<svg width="798" height="988" viewBox="0 0 798 988" fill="none" xmlns="http://www.w3.org/2000/svg"><path d="M702.58 865.462 655.584 839.004C747.548 745.623 798 623.779 798 494.011c0-129.825-50.495-251.699-142.516-345.124l47.208-26.416c40.544-23.3094 54.562-75.2427 31.245-115.77435C730.256.296674 722.094-1.89244 715.706 1.78035 709.304 5.4604 707.1 13.6203 710.788 20.0058 726.757 47.7728 717.168 83.3576 689.531 99.2426L6.83128 481.193C2.61909 483.549.00726335 488 0 492.822.0 497.658 2.59711 502.109 6.80204 504.473L689.39 888.676C717.158 904.639 726.761 940.218 710.792 967.993 707.111 974.378 709.316 982.545 715.71 986.218 717.805 987.425 720.097 988 722.345 988 726.972 988 731.468 985.6 733.934 981.302 757.251 940.778 743.239 888.844 702.586 865.469L702.58 865.462zM634.079 822.83C545.5 734.132 496.865 617.864 496.865 493.997 496.865 370.131 545.483 253.861 634.064 165.165 672.359 203.499 703.163 246.997 725.825 294.022 693.808 350.422 676.216 420.676 676.216 492.771c0 72.603 17.809 143.271 50.247 199.883-22.704 47.534-53.726 91.477-92.384 130.175V822.83zM740.091 661.223c-24.051-49.25-37.146-108.027-37.146-168.451C702.945 432.844 715.851 374.467 739.545 325.435c20.849 53.076 31.748 109.969 31.748 168.566C771.293 552.095 760.592 608.525 740.091 661.222V661.223zM571.827 195.678c-66 85.716-101.661 189.216-101.661 298.318.0 108.778 35.458 211.985 101.078 297.535L40.6277 492.879 571.827 195.678z" fill="#990900"/></svg>