<svg width="1272" height="455" viewBox="0 0 1272 455" fill="none" xmlns="http://www.w3.org/2000/svg"><path d="M194.684 218.93 121.723 24.5664H102.218L36.4806 216.763C30.7015 233.381 22.7553 239.162.0 241.329v9.393c22.7553-1.083 52.012-1.083 75.4896.0v-9.393C54.5404 239.162 42.2598 235.188 46.5941 222.543l16.2537-47.688H142.672l16.615 45.159C164.705 234.465 167.233 239.162 139.782 241.329v9.393c28.535-1.083 59.236-1.083 87.409.0v-9.393c-26.006-2.167-27.45-8.309-32.507-22.399zM66.0986 164.379 101.134 61.7774 138.699 164.379H66.0986z" fill="#990900"/><path d="M391.323 227.962V128.251c0-49.4938-19.866-61.7771-49.845-61.7771-33.23.0-55.985 28.5405-62.848 39.0171L281.881 74.7832C282.604 69.0028 279.353 65.7514 274.296 65.7514c-6.863.0-19.143 11.922-46.955 16.2572v9.3931C241.427 89.5953 249.013 92.8468 249.013 105.13V227.962c0 9.03200000000001-9.392 11.922-21.311 13.367v9.393c25.284-1.083 50.567-1.083 75.49.0v-9.393C291.633 239.884 281.881 236.994 281.881 227.962V115.246C285.854 108.743 306.442 80.9248 333.171 80.9248c19.866.0 25.283 18.7861 25.283 47.3262v99.711C358.454 236.994 349.063 239.884 337.505 241.329v9.393c24.923-1.083 50.206-1.083 75.49.0v-9.393C401.075 239.884 391.323 236.994 391.323 227.962z" fill="#990900"/><path d="M504.115 238.078V225.433C500.503 230.852 492.556 238.439 480.998 238.439c-14.809.0-18.421-12.283-18.421-25.289V80.5635h39.009C503.392 80.5635 504.837 79.4797 504.837 77.3121V72.9768C504.837 71.1705 503.392 69.7254 501.586 69.7254H462.577V20.5925H449.574C444.879 54.1907 435.488 69.7254 413.094 69.7254 411.288 69.7254 409.843 71.1705 409.843 72.9768v4.3353C409.843 79.4797 411.288 80.5635 413.094 80.5635h16.253V206.286c0 33.598 17.699 45.159 41.899 45.159 14.448.0 27.089-6.864 32.869-13.367z" fill="#990900"/><path d="M549.143 35.7659c9.39099999999996.0 18.059-7.948 18.059-18.0636C567.202 8.30924 558.534.0 549.143.0 539.39.0 531.083 8.30924 531.083 17.7023 531.083 27.8179 539.39 35.7659 549.143 35.7659zm18.42 192.1961V119.22C567.563 96.8207 569.731 83.815 569.731 74.4219 569.731 68.2803 565.758 65.7514 560.701 65.7514c-7.22400000000005.0-18.782 9.393-47.678 13.367v9.3931C527.11 87.789 534.695 91.0404 534.695 102.962v125C534.695 236.994 525.304 239.884 513.384 241.329v9.393c25.284-1.083 50.206-1.083 75.49.0v-9.393C577.316 239.884 567.563 236.994 567.563 227.962z" fill="#990900"/><path d="M751.093 67.1965C736.645 67.1965 729.421 76.9508 726.17 91.0404 716.418 79.841 700.887 66.8352 671.63 66.8352 626.481 66.8352 602.642 96.0982 602.642 130.78c0 22.76 13.0029999999999 42.269 31.424 52.746C609.866 181.72 596.14 193.641 596.14 208.815c0 15.173 10.836 26.011 42.26 31.792L696.552 250.361C719.307 254.696 729.782 259.754 729.782 276.734c0 26.011-16.976 42.991-54.1790000000001 42.991C645.624 319.725 629.37 303.829 629.37 288.295 629.37 274.566 633.704 272.399 633.704 263.006 633.704 255.058 628.286 250.361 618.895 250.361 604.086 250.361 597.224 262.644 597.224 277.818 597.224 310.693 627.203 329.118 674.881 329.118 721.114 329.118 757.955 306.358 757.955 272.037c0-30.708-20.5880000000001-42.63-61.042-48.41L652.848 216.763C631.537 213.511 619.618 209.537 619.618 200.506 619.618 195.087 623.952 190.029 634.066 190.029 645.985 190.029 657.543 195.087 672.713 195.087c42.9830000000001.0 69.35-29.263 69.35-64.307C742.063 119.581 739.173 110.549 735.561 102.24 733.755 97.182 734.839 92.1242 742.424 92.1242 746.397 92.1242 750.37 93.208 757.594 94.2918 764.818 95.0144 766.624 90.3179 766.624 82.0086 766.624 72.2543 765.179 67.1965 751.093 67.1965zM672.352 184.61c-26.728.0-36.119-28.179-36.119-53.468C636.233 106.214 645.624 76.5895 672.352 76.5895c27.09.0 36.12 29.6245 36.12 54.5525C708.472 156.431 699.803 184.61 672.352 184.61z" fill="#990900"/><path d="M848.598 66.8352C807.783 66.8352 768.413 100.072 768.413 161.488c0 57.804 39.37 92.847 81.63 92.847 40.8149999999999.0 80.185-35.043 80.185-95.737.0-58.526-39.37-91.7628-81.63-91.7628zM893.386 167.269c0 53.107-14.448 76.589-38.6479999999999 76.589-30.701.0-50.206-37.572-50.206-91.04.0-52.746 14.809-76.2285 39.01-76.2285C873.882 76.5895 893.386 113.801 893.386 167.269z" fill="#990900"/><path d="M1099.6 227.962V128.251C1099.6 78.7572 1079.74 66.4739 1049.76 66.4739c-33.23.0-55.987 28.5405-62.85 39.0171L990.161 74.7832C990.883 69.0028 987.633 65.7514 982.576 65.7514 975.713 65.7514 963.433 77.6734 935.621 82.0086v9.3931C949.707 89.5953 957.292 92.8468 957.292 105.13V227.962C957.292 236.994 947.901 239.884 935.982 241.329v9.393c25.284-1.083 50.567-1.083 75.4880000000001.0v-9.393C999.913 239.884 990.161 236.994 990.161 227.962V115.246C994.134 108.743 1014.72 80.9248 1041.45 80.9248c19.8699999999999.0 25.28 18.7861 25.28 47.3262v99.711C1066.73 236.994 1057.34 239.884 1045.79 241.329v9.393c24.9200000000001-1.083 50.2-1.083 75.48.0v-9.393C1109.36 239.884 1099.6 236.994 1099.6 227.962z" fill="#990900"/><path d="M1263.33 212.066H1258.64C1256.11 212.066 1253.58 213.873 1252.5 217.124 1243.1 235.549 1230.46 243.858 1210.24 243.858 1178.81 243.858 1159.67 213.15 1159.67 159.682h95.72C1267.67 159.682 1272 152.457 1272 140.535 1272 93.208 1240.21 66.8352 1201.57 66.8352 1158.58 66.8352 1123.19 100.795 1123.19 158.959 1123.19 216.763 1158.58 254.335 1206.26 254.335c33.5899999999999.0 51.29-15.535 59.96-36.127C1267.67 214.595 1265.86 212.066 1263.33 212.066zM1239.49 149.566H1159.67C1159.67 104.769 1174.12 76.5895 1201.93 76.5895 1229.02 76.5895 1239.49 104.769 1239.49 149.566z" fill="#990900"/><path d="M314.21 453.938H319.885V428.804h14.476C335.181 428.804 335.97 428.773 336.728 428.713l13.627 25.225H356.91L342.555 427.62C350.294 425.07 354.3 418.696 354.3 410.378 354.3 399.511 347.472 391.771 334.27 391.771H314.21v62.167zM319.885 423.613V396.87h14.233C343.951 396.87 348.716 402.243 348.716 410.378S343.951 423.613 334.209 423.613H319.885z" fill="#ded9d4"/><path d="M383.21 454.909C392.557 454.909 398.839 449.84 400.964 443.981L395.835 442.312C394.044 446.501 389.826 449.961 383.21 449.961 373.681 449.961 367.641 443.01 367.398 432.234h34.719V429.563c0-15.572-9.62000000000001-22.888-19.726-22.888-12.079.0-20.425 10.108-20.425 24.223C361.966 445.044 370.16 454.909 383.21 454.909zm-15.781-27.441C368.005 418.787 373.863 411.592 382.391 411.592 390.736 411.592 396.594 418.483 396.594 427.468H367.429z" fill="#ded9d4"/><path d="M443.204 417.542C440.928 410.803 435.951 406.675 427.423 406.675 418.015 406.675 411.187 412.048 411.187 419.728 411.187 425.981 414.98 430.23 423.083 432.173L430.701 433.994C435.83 435.209 438.288 437.849 438.288 441.583 438.288 446.44 433.644 450.052 426.482 450.052 420.109 450.052 416.133 447.168 414.828 441.644L409.639 442.919C411.278 450.69 417.438 454.909 426.573 454.909 436.831 454.909 443.872 449.263 443.872 441.34 443.872 435.118 439.957 430.959 432.157 429.047L425.117 427.316C419.32 425.859 416.619 423.522 416.619 419.485 416.619 414.749 421.141 411.441 427.423 411.441S436.801 414.749 438.257 418.938L443.204 417.542z" fill="#ded9d4"/><path d="M472.41 454.909C481.757 454.909 488.039 449.84 490.164 443.981L485.035 442.312C483.244 446.501 479.026 449.961 472.41 449.961 462.881 449.961 456.841 443.01 456.599 432.234h34.718V429.563c0-15.572-9.62000000000001-22.888-19.726-22.888-12.079.0-20.425 10.108-20.425 24.223C451.166 445.044 459.36 454.909 472.41 454.909zm-15.781-27.441C457.205 418.787 463.063 411.592 471.591 411.592 479.936 411.592 485.794 418.483 485.794 427.468H456.629z" fill="#ded9d4"/><path d="M514.104 455C521.873 455 526.608 450.69 528.55 446.561H528.884V453.938H534.286V422.277c0-12.506-9.4079999999999-15.602-16.54-15.602C510.614 406.675 503.27 409.498 500.114 417.117L505.243 418.969C506.942 414.962 511.16 411.532 517.898 411.532 524.969 411.532 528.884 415.417 528.884 421.792V422.884C528.884 426.406 524.514 426.466 516.684 427.438 506.153 428.743 498.778 431.687 498.778 440.915 498.778 449.9 505.637 455 514.104 455zM514.833 450.052C508.733 450.052 504.18 446.804 504.18 441.158 504.18 435.512 508.793 433.144 516.684 432.173 520.508 431.718 527.306 430.868 528.884 429.32V436.059c0 7.649-5.43200000000002 13.993-14.051 13.993z" fill="#ded9d4"/><path d="M546.519 453.938H551.921V423.826C551.921 416.935 557.232 411.896 564.516 411.896 566.307 411.896 567.733 412.2 568.795 412.685L570.677 408.041C569.19 407.191 567.308 406.614 564.911 406.614 559.023 406.614 554.016 409.771 552.164 414.476H551.77V407.312H546.519v46.626z" fill="#ded9d4"/><path d="M593.305 454.909C603.016 454.909 609.844 448.777 611.089 440.339H605.626C604.382 446.288 599.496 449.961 593.305 449.961 584.17 449.961 578.13 442.008 578.13 430.655 578.13 419.363 584.352 411.592 593.305 411.592 599.951 411.592 604.442 415.873 605.596 421.154H611.058C609.784 412.503 602.561 406.675 593.214 406.675 581.013 406.675 572.698 416.814 572.698 430.837 572.698 444.74 580.771 454.909 593.305 454.909z" fill="#ded9d4"/><path d="M625.932 424.797C625.932 416.662 631.395 411.653 638.861 411.653 646.083 411.653 650.697 416.389 650.697 424.068v29.87H656.129V423.734c0-11.109-6.43399999999997-17.029-15.903-17.029C633.185 406.705 628.603 409.802 626.418 414.628H625.932V391.771H620.53v62.167H625.932V424.797z" fill="#ded9d4"/><path d="M706.9 454.909C715.367 454.909 719.313 449.536 721.225 445.286H721.862V453.938H727.143V391.771H721.71v24.435H721.225C719.373 412.017 715.519 406.675 706.991 406.675c-11.502.0-19.271 9.714-19.271 24.071C687.72 445.226 695.459 454.909 706.9 454.909zM707.538 449.961C698.251 449.961 693.152 441.522 693.152 430.655 693.152 419.91 698.19 411.592 707.538 411.592 716.642 411.592 721.801 419.485 721.801 430.655c0 11.262-5.22000000000003 19.306-14.263 19.306z" fill="#ded9d4"/><path d="M740.453 453.938H745.886V407.312H740.453v46.626zM743.215 399.299C745.431 399.299 747.282 397.538 747.282 395.413S745.431 391.528 743.215 391.528C741 391.528 739.179 393.288 739.179 395.413S741 399.299 743.215 399.299z" fill="#ded9d4"/><path d="M794.12 407.312H788.263L774.424 446.804H773.999L760.16 407.312H754.303l17.025 46.626H777.095l17.025-46.626z" fill="#ded9d4"/><path d="M805.534 453.938H810.967V407.312H805.534v46.626zM808.296 399.299C810.511 399.299 812.363 397.538 812.363 395.413S810.511 391.528 808.296 391.528C806.08 391.528 804.26 393.288 804.26 395.413S806.08 399.299 808.296 399.299z" fill="#ded9d4"/><path d="M854.436 417.542C852.16 410.803 847.183 406.675 838.655 406.675 829.247 406.675 822.419 412.048 822.419 419.728 822.419 425.981 826.212 430.23 834.315 432.173L841.933 433.994C847.061 435.209 849.52 437.849 849.52 441.583 849.52 446.44 844.876 450.052 837.714 450.052 831.341 450.052 827.365 447.168 826.06 441.644L820.871 442.919C822.51 450.69 828.67 454.909 837.805 454.909 848.063 454.909 855.104 449.263 855.104 441.34 855.104 435.118 851.189 430.959 843.389 429.047L836.348 427.316C830.552 425.859 827.851 423.522 827.851 419.485 827.851 414.749 832.373 411.441 838.655 411.441 844.937 411.441 848.033 414.749 849.489 418.938L854.436 417.542z" fill="#ded9d4"/><path d="M864.856 453.938H870.289V407.312H864.856v46.626zM867.618 399.299C869.833 399.299 871.685 397.538 871.685 395.413S869.833 391.528 867.618 391.528C865.403 391.528 863.582 393.288 863.582 395.413S865.403 399.299 867.618 399.299z" fill="#ded9d4"/><path d="M900.557 454.909c12.078.0 20.515-9.86500000000001 20.515-24.072C921.072 416.54 912.635 406.675 900.557 406.675 888.478 406.675 880.041 416.54 880.041 430.837c0 14.207 8.4369999999999 24.072 20.516 24.072zM900.557 449.961C890.875 449.961 885.474 441.28 885.474 430.837c0-10.442 5.40099999999995-19.245 15.083-19.245C910.238 411.592 915.64 420.395 915.64 430.837 915.64 441.28 910.238 449.961 900.557 449.961z" fill="#ded9d4"/><path d="M936.196 424.797C936.196 416.662 941.538 411.653 948.882 411.653 956.044 411.653 960.657 416.449 960.657 424.068v29.87H966.059V423.734C966.059 412.685 959.656 406.705 950.248 406.705 943.419 406.705 938.715 409.862 936.53 414.628H936.045V407.312H930.794v46.626H936.196V424.797z" fill="#ded9d4"/></svg>