<svg width="1741" height="376" viewBox="0 0 1741 376" fill="none" xmlns="http://www.w3.org/2000/svg"><path d="M71.0676 38.8215H281.364V19.7036H71.0676V38.8215zm0 38.2357H281.364V57.9394H71.0676V77.0572zm0 38.2358H148.532V96.175H71.0676v19.118zm132.8314.0h77.465V96.175H203.899v19.118zM71.0676 153.529H281.364V134.411H71.0676v19.118zm0 38.235H281.364V172.646H71.0676v19.118zm0 38.236H281.364V210.882H71.0676V230z" fill="#0019f7"/><path d="M154.927 283.166C155.087 284.406 155.167 285.806 155.167 287.686v26.28C155.167 314.766 154.767 314.966 153.407 314.966 151.807 314.966 150.127 314.806 147.607 314.366 148.207 315.846 148.487 316.766 148.647 318.326 150.687 318.526 152.447 318.606 153.927 318.606 157.967 318.606 159.127 317.686 159.127 314.566v-26.84C159.127 285.726 159.207 284.326 159.367 283.166h-4.44zM164.407 292.726 165.607 297.046C167.407 303.246 169.487 307.566 173.007 312.486 174.207 311.206 174.527 310.966 176.327 309.846 173.767 306.526 171.847 303.086 170.367 299.126 169.127 295.846 168.527 293.806 168.287 291.606l-3.88 1.12zM145.287 291.806C145.167 293.526 144.847 295.286 144.167 297.726 142.887 302.326 140.887 306.406 138.127 310.086 139.487 310.726 140.367 311.326 141.647 312.486 145.207 307.166 146.927 302.926 148.727 295.366 149.087 293.806 149.087 293.806 149.367 292.846L145.287 291.806zm34.12 10.24C180.247 301.926 181.727 301.846 185.887 301.766 195.847 301.526 202.807 301.166 210.287 300.486 211.167 301.526 211.647 302.126 212.967 303.846L215.727 301.326C211.847 297.206 210.647 296.086 207.127 293.246L204.527 295.166C206.127 296.486 206.647 296.926 207.767 297.926 205.647 298.086 205.647 298.086 202.407 298.246L197.367 298.486C199.287 297.086 201.687 295.046 203.567 293.286 204.127 292.806 204.127 292.806 204.607 292.326 205.167 291.846 205.607 291.446 205.687 291.366L202.127 289.766C200.767 291.446 198.447 293.646 195.287 296.246 194.007 295.246 193.567 294.926 192.367 294.046 194.327 292.526 196.007 290.926 197.807 288.846h12.84C212.447 288.846 213.647 288.886 215.007 289.046V285.446C213.647 285.606 212.327 285.686 210.567 285.686h-12.12V284.766C198.447 283.846 198.527 283.086 198.687 282.206H194.607C194.767 283.086 194.847 283.846 194.847 284.806V285.686h-11.2C181.927 285.686 180.567 285.606 179.247 285.446V289.046C180.527 288.926 181.927 288.846 183.607 288.846H193.407C192.647 289.846 191.407 291.006 189.767 292.326 188.047 291.166 186.847 290.366 186.127 289.886L183.527 292.126C187.127 294.166 189.287 295.646 191.807 297.686 192.407 298.166 192.407 298.166 192.607 298.326 192.447 298.446 192.367 298.486 192.207 298.606 190.367 298.646 188.527 298.646 187.127 298.686 185.647 298.726 184.767 298.726 184.167 298.726 182.127 298.726 180.007 298.606 178.887 298.486L179.407 302.046zM186.567 303.726C184.607 303.726 183.767 303.686 182.647 303.606 182.807 304.766 182.847 305.726 182.847 307.606V315.366C182.847 316.966 182.767 318.206 182.607 319.446H186.367V317.726h21.24V319.446H211.367C211.207 318.366 211.127 316.966 211.127 315.366V307.606C211.127 305.686 211.167 304.646 211.327 303.606 210.367 303.686 209.247 303.726 207.367 303.726h-20.8zM186.367 306.566H195.127V309.286H186.367V306.566zM186.367 312.046H195.127v2.88H186.367v-2.88zM198.527 306.566H207.607V309.286H198.527V306.566zM198.527 312.046H207.607v2.88H198.527v-2.88z" fill="#0019f7"/><path d="M18.0093 352.57 13.5867 353.052C13.4616 352.606 13.2428 352.186 12.93 351.793 12.6263 351.4 12.2153 351.082 11.6971 350.841 11.1789 350.6 10.5446 350.479 9.79406 350.479 8.78446 350.479 7.93569 350.698 7.24774 351.136 6.56872 351.574 6.23368 352.141 6.24261 352.838 6.23368 353.437 6.45257 353.924 6.89929 354.299 7.35495 354.674 8.10544 354.982 9.15078 355.224l3.51122.75C14.6097 356.394 16.0571 357.06 17.0042 357.971 17.9601 358.882 18.4426 360.075 18.4515 361.549 18.4426 362.845 18.0629 363.988 17.3124 364.98 16.5708 365.963 15.5389 366.731 14.2166 367.285 12.8943 367.839 11.3755 368.116 9.66004 368.116 7.14052 368.116 5.1124 367.589 3.57568 366.535 2.03895 365.471 1.12317 363.993.828331 362.099L5.55912 361.643C5.77355 362.572 6.22921 363.273 6.9261 363.747 7.62298 364.22 8.52983 364.457 9.64664 364.457 10.7992 364.457 11.7239 364.22 12.4208 363.747 13.1266 363.273 13.4795 362.688 13.4795 361.991 13.4795 361.402 13.2517 360.915 12.796 360.531 12.3493 360.146 11.6524 359.852 10.7054 359.646L7.19413 358.909C5.21962 358.498 3.75883 357.806 2.81178 356.832 1.86473 355.849 1.39567 354.607 1.4046 353.106 1.39567 351.837 1.73965 350.738 2.43653 349.809 3.14235 348.871 4.12068 348.147 5.3715 347.638 6.63126 347.12 8.08311 346.861 9.72705 346.861c2.41235.0 4.31085.51400000000001 5.69575 1.541C16.8165 349.43 17.6787 350.819 18.0093 352.57zm4.4426 15.144V347.129h4.637V350.627H27.3302C27.759 349.447 28.4693 348.527 29.461 347.866 30.4527 347.196 31.6366 346.861 33.0125 346.861 34.4062 346.861 35.5811 347.2 36.5371 347.879 37.502 348.549 38.181 349.465 38.5742 350.627H38.7886C39.2442 349.483 40.0126 348.572 41.0937 347.893 42.1837 347.205 43.4747 346.861 44.9668 346.861 46.8609 346.861 48.4065 347.459 49.6037 348.657 50.801 349.854 51.3996 351.601 51.3996 353.897v13.817H46.5348V354.647C46.5348 353.37 46.1953 352.436 45.5162 351.846 44.8372 351.248 44.0063 350.948 43.0235 350.948 41.8531 350.948 40.9373 351.315 40.2762 352.047 39.624 352.771 39.2979 353.714 39.2979 354.875v12.839H34.5403V354.446C34.5403 353.383 34.2186 352.534 33.5753 351.9 32.941 351.266 32.1101 350.948 31.0826 350.948 30.3857 350.948 29.7514 351.127 29.1796 351.484 28.6078 351.833 28.1521 352.329 27.8126 352.972 27.4731 353.606 27.3034 354.348 27.3034 355.197v12.517H22.4519zM62.2449 368.129C60.9405 368.129 59.7656 367.897 58.7202 367.432 57.6838 366.959 56.8619 366.262 56.2543 365.342 55.6557 364.422 55.3564 363.287 55.3564 361.938 55.3564 360.776 55.5708 359.816 55.9997 359.056 56.4286 358.297 57.0138 357.689 57.7553 357.234 58.4969 356.778 59.3323 356.434 60.2614 356.202 61.1996 355.961 62.1689 355.786 63.1696 355.679 64.3758 355.554 65.3541 355.442 66.1046 355.344 66.8551 355.237 67.4001 355.076 67.7396 354.862 68.088 354.638 68.2622 354.294 68.2622 353.83V353.749C68.2622 352.74 67.9629 351.958 67.3643 351.404 66.7657 350.85 65.9035 350.573 64.7778 350.573 63.5895 350.573 62.6469 350.832 61.95 351.35 61.2621 351.869 60.7975 352.481 60.5563 353.186L56.0265 352.543C56.3839 351.292 56.9736 350.247 57.7955 349.407 58.6175 348.558 59.6226 347.924 60.8109 347.504 61.9992 347.075 63.3126 346.861 64.751 346.861 65.7427 346.861 66.73 346.977 67.7128 347.209 68.6956 347.442 69.5935 347.826 70.4065 348.362 71.2195 348.889 71.8718 349.608 72.3632 350.52 72.8635 351.431 73.1136 352.57 73.1136 353.937v13.777H68.4499V364.886H68.289C67.9942 365.458 67.5788 365.994 67.0427 366.494 66.5156 366.986 65.8499 367.383 65.0458 367.687 64.2507 367.982 63.317 368.129 62.2449 368.129zm1.2597-3.565C64.4785 364.564 65.3228 364.372 66.0376 363.988 66.7523 363.595 67.3018 363.077 67.686 362.434 68.0791 361.79 68.2756 361.089 68.2756 360.33V357.904C68.1238 358.029 67.8647 358.145 67.4983 358.252 67.141 358.359 66.7389 358.453 66.2922 358.534 65.8455 358.614 65.4032 358.686 64.9654 358.748 64.5276 358.811 64.1479 358.864 63.8263 358.909 63.1026 359.007 62.4548 359.168 61.883 359.391 61.3112 359.615 60.86 359.927 60.5295 360.33 60.1989 360.723 60.0336 361.232 60.0336 361.857 60.0336 362.751 60.3597 363.425 61.0119 363.881 61.6641 364.337 62.495 364.564 63.5046 364.564zm19.3387-24.297v27.447H77.9919V340.267h4.8514zM92.6834 340.267v27.447H87.832V340.267H92.6834zm20.2736 27.862C111.652 368.129 110.478 367.897 109.432 367.432 108.396 366.959 107.574 366.262 106.966 365.342 106.368 364.422 106.068 363.287 106.068 361.938 106.068 360.776 106.283 359.816 106.712 359.056 107.141 358.297 107.726 357.689 108.467 357.234 109.209 356.778 110.044 356.434 110.973 356.202 111.912 355.961 112.881 355.786 113.882 355.679 115.088 355.554 116.066 355.442 116.817 355.344 117.567 355.237 118.112 355.076 118.452 354.862 118.8 354.638 118.974 354.294 118.974 353.83V353.749C118.974 352.74 118.675 351.958 118.076 351.404 117.478 350.85 116.616 350.573 115.49 350.573 114.301 350.573 113.359 350.832 112.662 351.35 111.974 351.869 111.509 352.481 111.268 353.186L106.738 352.543C107.096 351.292 107.686 350.247 108.507 349.407 109.329 348.558 110.335 347.924 111.523 347.504 112.711 347.075 114.025 346.861 115.463 346.861 116.455 346.861 117.442 346.977 118.425 347.209 119.408 347.442 120.305 347.826 121.118 348.362 121.932 348.889 122.584 349.608 123.075 350.52 123.575 351.431 123.826 352.57 123.826 353.937v13.777H119.162V364.886H119.001C118.706 365.458 118.291 365.994 117.755 366.494 117.228 366.986 116.562 367.383 115.758 367.687 114.963 367.982 114.029 368.129 112.957 368.129zM114.217 364.564C115.19 364.564 116.035 364.372 116.75 363.988 117.464 363.595 118.014 363.077 118.398 362.434 118.791 361.79 118.988 361.089 118.988 360.33V357.904C118.836 358.029 118.577 358.145 118.21 358.252 117.853 358.359 117.451 358.453 117.004 358.534 116.557 358.614 116.115 358.686 115.677 358.748 115.24 358.811 114.86 358.864 114.538 358.909 113.815 359.007 113.167 359.168 112.595 359.391 112.023 359.615 111.572 359.927 111.241 360.33 110.911 360.723 110.746 361.232 110.746 361.857 110.746 362.751 111.072 363.425 111.724 363.881 112.376 364.337 113.207 364.564 114.217 364.564zM137.683 368.116C135.628 368.116 133.863 367.665 132.389 366.762 130.924 365.86 129.794 364.614 128.999 363.023 128.212 361.424 127.819 359.584 127.819 357.502 127.819 355.411 128.221 353.566 129.025 351.967 129.83 350.359 130.964 349.108 132.429 348.214 133.904 347.312 135.646 346.861 137.656 346.861 139.327 346.861 140.806 347.169 142.092 347.786 143.388 348.393 144.42 349.255 145.188 350.372 145.956 351.48 146.394 352.775 146.501 354.259h-4.637C141.677 353.267 141.23 352.44 140.524 351.779 139.827 351.109 138.894 350.774 137.723 350.774 136.731 350.774 135.86 351.042 135.11 351.578 134.359 352.105 133.774 352.865 133.354 353.857 132.943 354.848 132.738 356.037 132.738 357.421 132.738 358.824 132.943 360.03 133.354 361.04 133.765 362.04 134.341 362.813 135.083 363.358 135.834 363.894 136.714 364.162 137.723 364.162 138.438 364.162 139.077 364.028 139.64 363.76 140.211 363.483 140.689 363.086 141.074 362.568 141.458 362.049 141.721 361.42 141.864 360.678h4.637C146.385 362.134 145.956 363.425 145.215 364.551 144.473 365.668 143.464 366.543 142.186 367.178 140.908 367.803 139.407 368.116 137.683 368.116zm21.781.0C157.409 368.116 155.645 367.665 154.17 366.762 152.705 365.86 151.575 364.614 150.78 363.023 149.994 361.424 149.6 359.584 149.6 357.502 149.6 355.411 150.002 353.566 150.807 351.967 151.611 350.359 152.745 349.108 154.211 348.214 155.685 347.312 157.427 346.861 159.437 346.861 161.108 346.861 162.587 347.169 163.873 347.786 165.169 348.393 166.201 349.255 166.969 350.372 167.737 351.48 168.175 352.775 168.282 354.259h-4.637C163.458 353.267 163.011 352.44 162.305 351.779 161.608 351.109 160.675 350.774 159.504 350.774 158.513 350.774 157.641 351.042 156.891 351.578 156.14 352.105 155.555 352.865 155.135 353.857 154.724 354.848 154.519 356.037 154.519 357.421 154.519 358.824 154.724 360.03 155.135 361.04 155.546 362.04 156.123 362.813 156.864 363.358 157.615 363.894 158.495 364.162 159.504 364.162 160.219 364.162 160.858 364.028 161.421 363.76 161.992 363.483 162.47 363.086 162.855 362.568 163.239 362.049 163.502 361.42 163.645 360.678h4.637C168.166 362.134 167.737 363.425 166.996 364.551 166.254 365.668 165.245 366.543 163.967 367.178 162.689 367.803 161.188 368.116 159.464 368.116zm25.922-9.06V347.129h4.852v20.585H185.534V364.055H185.319C184.855 365.208 184.091 366.15 183.028 366.883 181.973 367.616 180.673 367.982 179.128 367.982 177.779 367.982 176.586 367.683 175.549 367.084 174.522 366.476 173.718 365.596 173.137 364.444 172.556 363.282 172.266 361.88 172.266 360.236V347.129h4.851v12.356C177.117 360.79 177.475 361.826 178.19 362.594 178.904 363.363 179.842 363.747 181.004 363.747 181.719 363.747 182.411 363.573 183.081 363.224 183.751 362.876 184.301 362.358 184.73 361.67 185.167 360.973 185.386 360.102 185.386 359.056zM195.226 367.714V347.129h4.637V350.627H200.105C200.533 349.447 201.244 348.527 202.235 347.866 203.227 347.196 204.411 346.861 205.787 346.861 207.181 346.861 208.356 347.2 209.312 347.879 210.276 348.549 210.956 349.465 211.349 350.627H211.563C212.019 349.483 212.787 348.572 213.868 347.893 214.958 347.205 216.249 346.861 217.741 346.861 219.635 346.861 221.181 347.459 222.378 348.657 223.575 349.854 224.174 351.601 224.174 353.897v13.817H219.309V354.647C219.309 353.37 218.97 352.436 218.291 351.846 217.612 351.248 216.781 350.948 215.798 350.948 214.628 350.948 213.712 351.315 213.051 352.047 212.398 352.771 212.072 353.714 212.072 354.875v12.839H207.315V354.446C207.315 353.383 206.993 352.534 206.35 351.9 205.715 351.266 204.885 350.948 203.857 350.948 203.16 350.948 202.526 351.127 201.954 351.484 201.382 351.833 200.927 352.329 200.587 352.972 200.248 353.606 200.078 354.348 200.078 355.197v12.517h-4.852zM242.216 359.056V347.129h4.851v20.585H242.363V364.055H242.149C241.684 365.208 240.921 366.15 239.857 366.883 238.803 367.616 237.503 367.982 235.957 367.982 234.608 367.982 233.416 367.683 232.379 367.084 231.352 366.476 230.548 365.596 229.967 364.444 229.386 363.282 229.096 361.88 229.096 360.236V347.129h4.851v12.356C233.947 360.79 234.305 361.826 235.019 362.594 235.734 363.363 236.672 363.747 237.834 363.747 238.548 363.747 239.241 363.573 239.911 363.224 240.581 362.876 241.131 362.358 241.559 361.67 241.997 360.973 242.216 360.102 242.216 359.056zm14.692-18.789v27.447h-4.852V340.267h4.852zm10.912 27.862C266.516 368.129 265.341 367.897 264.295 367.432 263.259 366.959 262.437 366.262 261.829 365.342 261.231 364.422 260.931 363.287 260.931 361.938 260.931 360.776 261.146 359.816 261.575 359.056 262.004 358.297 262.589 357.689 263.33 357.234 264.072 356.778 264.907 356.434 265.836 356.202 266.775 355.961 267.744 355.786 268.745 355.679 269.951 355.554 270.929 355.442 271.68 355.344 272.43 355.237 272.975 355.076 273.315 354.862 273.663 354.638 273.837 354.294 273.837 353.83V353.749C273.837 352.74 273.538 351.958 272.939 351.404 272.341 350.85 271.479 350.573 270.353 350.573 269.165 350.573 268.222 350.832 267.525 351.35 266.837 351.869 266.373 352.481 266.131 353.186L261.602 352.543C261.959 351.292 262.549 350.247 263.371 349.407 264.193 348.558 265.198 347.924 266.386 347.504 267.574 347.075 268.888 346.861 270.326 346.861 271.318 346.861 272.305 346.977 273.288 347.209 274.271 347.442 275.169 347.826 275.982 348.362 276.795 348.889 277.447 349.608 277.938 350.52 278.439 351.431 278.689 352.57 278.689 353.937v13.777H274.025V364.886H273.864C273.569 365.458 273.154 365.994 272.618 366.494 272.091 366.986 271.425 367.383 270.621 367.687 269.826 367.982 268.892 368.129 267.82 368.129zM269.08 364.564C270.054 364.564 270.898 364.372 271.613 363.988 272.327 363.595 272.877 363.077 273.261 362.434 273.654 361.79 273.851 361.089 273.851 360.33V357.904C273.699 358.029 273.44 358.145 273.073 358.252 272.716 358.359 272.314 358.453 271.867 358.534 271.421 358.614 270.978 358.686 270.54 358.748 270.103 358.811 269.723 358.864 269.401 358.909 268.678 359.007 268.03 359.168 267.458 359.391 266.886 359.615 266.435 359.927 266.105 360.33 265.774 360.723 265.609 361.232 265.609 361.857 265.609 362.751 265.935 363.425 266.587 363.881 267.239 364.337 268.07 364.564 269.08 364.564zm24.766-17.435V350.881H282.012V347.129h11.834zM284.934 342.197h4.851v19.325C289.785 362.175 289.884 362.675 290.08 363.023 290.286 363.363 290.554 363.595 290.884 363.72 291.215 363.845 291.581 363.908 291.983 363.908 292.287 363.908 292.564 363.885 292.814 363.841 293.073 363.796 293.27 363.756 293.404 363.72L294.221 367.513C293.962 367.602 293.591 367.7 293.109 367.808 292.635 367.915 292.055 367.977 291.367 367.995 290.152 368.031 289.057 367.848 288.083 367.446 287.109 367.035 286.337 366.401 285.765 365.543 285.202 364.685 284.925 363.613 284.934 362.326V342.197zm12.969 25.517V347.129H302.755v20.585H297.903zM300.342 344.207C299.574 344.207 298.913 343.953 298.359 343.443 297.805 342.925 297.528 342.304 297.528 341.581 297.528 340.848 297.805 340.227 298.359 339.718 298.913 339.2 299.574 338.94 300.342 338.94 301.12 338.94 301.781 339.2 302.326 339.718 302.88 340.227 303.157 340.848 303.157 341.581 303.157 342.304 302.88 342.925 302.326 343.443 301.781 343.953 301.12 344.207 300.342 344.207zm12.253 11.445v12.062h-4.851V347.129H312.381V350.627H312.622C313.095 349.474 313.85 348.558 314.887 347.879 315.932 347.2 317.223 346.861 318.76 346.861 320.18 346.861 321.418 347.165 322.472 347.772 323.535 348.38 324.357 349.26 324.938 350.412 325.528 351.565 325.818 352.963 325.809 354.607v13.107h-4.851V355.358C320.958 353.982 320.6 352.905 319.885 352.128 319.18 351.35 318.201 350.962 316.951 350.962 316.102 350.962 315.347 351.149 314.686 351.525 314.033 351.891 313.52 352.423 313.144 353.119 312.778 353.816 312.595 354.661 312.595 355.652zm27.098 20.21C337.951 375.862 336.454 375.625 335.204 375.152 333.953 374.687 332.948 374.062 332.188 373.276 331.429 372.489 330.902 371.618 330.607 370.662L334.976 369.604C335.172 370.006 335.458 370.403 335.833 370.796 336.209 371.198 336.714 371.529 337.348 371.788 337.991 372.056 338.8 372.19 339.774 372.19 341.149 372.19 342.289 371.855 343.191 371.185 344.093 370.524 344.545 369.434 344.545 367.915V364.015H344.303C344.053 364.515 343.687 365.029 343.204 365.556 342.731 366.083 342.101 366.526 341.315 366.883 340.537 367.24 339.559 367.419 338.38 367.419 336.798 367.419 335.364 367.048 334.078 366.307 332.8 365.556 331.782 364.439 331.022 362.956 330.272 361.464 329.897 359.597 329.897 357.354 329.897 355.094 330.272 353.186 331.022 351.632 331.782 350.068 332.805 348.885 334.091 348.08 335.378 347.267 336.812 346.861 338.393 346.861 339.599 346.861 340.591 347.066 341.368 347.477 342.155 347.879 342.78 348.366 343.245 348.938 343.709 349.501 344.062 350.033 344.303 350.533H344.571v-3.404H349.356v20.92C349.356 369.809 348.936 371.265 348.096 372.418 347.256 373.57 346.108 374.433 344.652 375.004 343.195 375.576 341.543 375.862 339.693 375.862zM339.733 363.613C340.761 363.613 341.636 363.363 342.36 362.862 343.084 362.362 343.633 361.643 344.008 360.705 344.384 359.767 344.571 358.641 344.571 357.328 344.571 356.032 344.384 354.897 344.008 353.924 343.642 352.95 343.097 352.195 342.373 351.659 341.659 351.114 340.779 350.841 339.733 350.841 338.652 350.841 337.75 351.123 337.026 351.685 336.303 352.248 335.758 353.021 335.391 354.004 335.025 354.978 334.842 356.086 334.842 357.328 334.842 358.587 335.025 359.691 335.391 360.638 335.766 361.576 336.316 362.309 337.04 362.836 337.772 363.354 338.67 363.613 339.733 363.613z" fill="#0019f7"/><path d="M999.649 38.8215H1077.11V19.7036H999.649V38.8215zm132.831.0h77.47V19.7036h-77.47V38.8215zM999.649 77.0572H1077.11V57.9394H999.649V77.0572zm132.831.0h77.47V57.9394h-77.47V77.0572zM999.649 115.293H1077.11V96.175H999.649v19.118zm132.831.0h77.47V96.175h-77.47v19.118zM999.649 153.529H1209.95V134.411H999.649v19.118zm0 38.235H1077.11V172.646H999.649v19.118zm132.831.0h77.47V172.646h-77.47v19.118zM999.649 230H1209.95V210.882H999.649V230z" fill="#0019f7"/><path d="M1098.83 306.366V314.006C1098.83 315.006 1098.55 315.246 1097.39 315.246 1096.15 315.246 1094.51 315.086 1092.87 314.846 1093.39 316.086 1093.63 317.046 1093.79 318.606 1095.15 318.686 1096.47 318.726 1097.51 318.726 1101.27 318.726 1102.43 317.766 1102.43 314.686v-26.12C1102.43 286.526 1102.47 285.326 1102.59 284.366 1101.51 284.486 1100.51 284.526 1098.47 284.526H1089.83C1087.91 284.526 1086.91 284.486 1085.63 284.366 1085.79 285.606 1085.87 288.326 1085.87 291.766 1085.87 300.046 1085.63 303.526 1084.83 306.926 1083.87 311.166 1081.99 314.046 1078.47 316.766 1079.75 317.606 1080.47 318.246 1081.39 319.446 1083.83 317.286 1085.07 315.726 1086.31 313.206 1087.35 311.166 1088.11 308.846 1088.55 306.366h10.28zM1098.83 296.846V303.126H1088.99C1089.19 300.966 1089.27 299.366 1089.35 296.846H1098.83zm0-3.12H1089.43c0-.199999999999989.0-.519999999999982.0-1V287.806H1098.83V293.726zm-29.72 13.8C1069.11 309.366 1069.03 310.806 1068.87 312.046H1072.59v-3H1079.07V310.806H1082.55C1082.47 309.886 1082.47 309.126 1082.47 306.766v-17.72C1082.47 287.006 1082.51 286.366 1082.59 285.326 1081.55 285.406 1080.83 285.446 1079.07 285.446H1073.55C1071.03 285.446 1070.19 285.406 1068.95 285.326 1069.07 286.526 1069.11 287.486 1069.11 289.326v18.2zM1072.55 288.686H1079.07V295.326H1072.55V288.686zM1072.55 298.446H1079.07V305.846H1072.55V298.446zM1138.59 306.206C1138.55 306.446 1138.51 306.646 1138.51 306.766 1138.51 306.926 1138.47 307.086 1138.43 307.246 1138.39 307.726 1138.27 308.086 1138.15 308.406 1137.95 308.886 1137.51 309.086 1136.67 309.086 1135.95 309.086 1134.35 308.926 1133.51 308.806 1133.91 309.846 1134.11 310.606 1134.27 311.806 1135.19 311.886 1135.67 311.886 1136.63 311.886 1139.47 311.886 1140.55 311.406 1141.11 309.886 1141.51 308.886 1141.95 306.646 1142.23 304.166 1142.31 303.566 1142.31 303.566 1142.35 303.206 1141.75 303.286 1140.95 303.326 1139.11 303.326h-12.76C1126.59 302.246 1126.67 301.806 1126.83 300.246H1136.23C1137.87 300.246 1138.99 300.286 1140.07 300.366 1139.95 299.606 1139.95 299.086 1139.95 297.526V294.046C1139.95 292.726 1139.99 292.046 1140.07 291.246 1139.19 291.366 1138.35 291.406 1136.27 291.406h-9L1127.31 290.606v-1.88h12.28C1141.23 288.726 1142.35 288.766 1143.67 288.926v-3.44C1142.43 285.686 1141.55 285.726 1139.63 285.726H1127.31C1127.35 284.166 1127.35 283.686 1127.51 282.686H1123.55C1123.75 283.846 1123.79 284.526 1123.79 285.726H1111.91C1109.95 285.726 1109.07 285.686 1107.79 285.486v3.44C1109.07 288.766 1110.19 288.726 1111.83 288.726h11.96V291.406H1114.39C1112.71 291.406 1111.43 291.366 1110.35 291.246V294.446C1111.51 294.326 1112.75 294.286 1114.23 294.286H1123.75C1123.71 295.726 1123.67 295.966 1123.59 297.366H1115.07C1113.67 297.366 1112.63 297.326 1111.59 297.246 1111.55 298.206 1111.31 299.686 1110.83 301.606 1110.31 303.766 1109.75 305.446 1108.79 307.646L1112.51 307.966C1112.83 307.126 1112.95 306.766 1113.15 306.206H1121.87C1119.63 311.046 1115.55 313.806 1107.47 315.766 1108.51 317.006 1108.91 317.646 1109.63 319.286 1113.51 318.166 1116.43 316.766 1118.99 314.926 1121.75 312.926 1123.35 311.006 1124.75 308.046 1126.59 311.246 1128.55 313.286 1131.59 315.246 1134.55 317.126 1137.19 318.166 1141.83 319.246 1142.47 317.766 1142.91 316.966 1143.75 315.686 1139.75 315.126 1137.35 314.446 1134.59 313.046 1131.23 311.326 1128.99 309.206 1127.27 306.206H1138.59zM1114.03 303.326C1114.19 302.606 1114.19 302.606 1114.79 300.246H1123.35C1123.15 301.806 1123.07 302.286 1122.83 303.326H1114.03zM1136.51 294.286V297.366H1127.11C1127.19 295.646 1127.19 295.566 1127.23 294.286H1136.51z" fill="#0019f7"/><path d="M920.304 368.076C918.687 368.076 917.239 367.66 915.962 366.829 914.684 365.998 913.674 364.792 912.933 363.211 912.191 361.63 911.821 359.709 911.821 357.448 911.821 355.161 912.196 353.231 912.946 351.659 913.706 350.077 914.729 348.885 916.015 348.08 917.302 347.267 918.736 346.861 920.317 346.861 921.523 346.861 922.515 347.066 923.292 347.477 924.07 347.879 924.686 348.366 925.142 348.938 925.597 349.501 925.95 350.033 926.201 350.533H926.402V340.267H931.266v27.447H926.495v-3.243H926.201C925.95 364.971 925.589 365.503 925.115 366.065 924.641 366.619 924.016 367.093 923.239 367.486 922.461 367.879 921.483 368.076 920.304 368.076zM921.657 364.095C922.685 364.095 923.56 363.818 924.284 363.265 925.008 362.702 925.557 361.92 925.932 360.919 926.308 359.919 926.495 358.753 926.495 357.421 926.495 356.09 926.308 354.933 925.932 353.95 925.566 352.968 925.021 352.204 924.297 351.659 923.583 351.114 922.703 350.841 921.657 350.841 920.576 350.841 919.674 351.123 918.95 351.685 918.227 352.248 917.682 353.026 917.315 354.017 916.949 355.009 916.766 356.144 916.766 357.421 916.766 358.708 916.949 359.856 917.315 360.866 917.69 361.866 918.24 362.657 918.964 363.238 919.696 363.81 920.594 364.095 921.657 364.095zM942.36 368.129C941.055 368.129 939.88 367.897 938.835 367.432 937.799 366.959 936.977 366.262 936.369 365.342 935.77 364.422 935.471 363.287 935.471 361.938 935.471 360.776 935.686 359.816 936.114 359.056 936.543 358.297 937.128 357.689 937.87 357.234 938.612 356.778 939.447 356.434 940.376 356.202 941.314 355.961 942.284 355.786 943.284 355.679 944.49 355.554 945.469 355.442 946.219 355.344 946.97 355.237 947.515 355.076 947.854 354.862 948.203 354.638 948.377 354.294 948.377 353.83V353.749C948.377 352.74 948.078 351.958 947.479 351.404 946.88 350.85 946.018 350.573 944.893 350.573 943.704 350.573 942.762 350.832 942.065 351.35 941.377 351.869 940.912 352.481 940.671 353.186L936.141 352.543C936.499 351.292 937.088 350.247 937.91 349.407 938.732 348.558 939.737 347.924 940.926 347.504 942.114 347.075 943.427 346.861 944.866 346.861 945.857 346.861 946.845 346.977 947.827 347.209 948.81 347.442 949.708 347.826 950.521 348.362 951.334 348.889 951.986 349.608 952.478 350.52 952.978 351.431 953.228 352.57 953.228 353.937v13.777H948.565V364.886H948.404C948.109 365.458 947.693 365.994 947.157 366.494 946.63 366.986 945.965 367.383 945.161 367.687 944.365 367.982 943.432 368.129 942.36 368.129zM943.619 364.564C944.593 364.564 945.438 364.372 946.152 363.988 946.867 363.595 947.417 363.077 947.801 362.434 948.194 361.79 948.39 361.089 948.39 360.33V357.904C948.238 358.029 947.979 358.145 947.613 358.252 947.256 358.359 946.854 358.453 946.407 358.534 945.96 358.614 945.518 358.686 945.08 358.748 944.642 358.811 944.263 358.864 943.941 358.909 943.217 359.007 942.57 359.168 941.998 359.391 941.426 359.615 940.975 359.927 940.644 360.33 940.314 360.723 940.148 361.232 940.148 361.857 940.148 362.751 940.474 363.425 941.127 363.881 941.779 364.337 942.61 364.564 943.619 364.564zM958.107 367.714V347.129H962.811V350.56H963.025C963.4 349.371 964.044 348.456 964.955 347.812 965.875 347.16 966.925 346.834 968.104 346.834 968.372 346.834 968.672 346.847 969.002 346.874 969.342 346.892 969.623 346.923 969.846 346.968V351.431C969.641 351.359 969.315 351.297 968.868 351.243 968.43 351.181 968.006 351.149 967.595 351.149 966.71 351.149 965.915 351.341 965.209 351.726 964.513 352.101 963.963 352.624 963.561 353.294 963.159 353.964 962.958 354.737 962.958 355.612v12.102h-4.851zM977.492 361.254 977.479 355.398H978.256L985.654 347.129H991.323L982.223 357.261h-1.005l-3.726 3.993zM973.07 367.714V340.267h4.851v27.447H973.07zm12.919.0L979.288 358.346 982.558 354.929 991.792 367.714h-5.803zM1002.82 368.116C1000.76 368.116 998.975 367.687 997.474 366.829 995.982 365.963 994.834 364.739 994.03 363.157 993.226 361.567 992.824 359.695 992.824 357.542 992.824 355.425 993.226 353.566 994.03 351.967 994.843 350.359 995.977 349.108 997.434 348.214 998.89 347.312 1000.6 346.861 1002.57 346.861 1003.84 346.861 1005.03 347.066 1006.16 347.477 1007.29 347.879 1008.29 348.505 1009.16 349.354 1010.04 350.202 1010.72 351.283 1011.22 352.597 1011.72 353.901 1011.97 355.456 1011.97 357.261V358.748H995.102V355.478H1007.32C1007.32 354.549 1007.11 353.723 1006.72 352.999 1006.33 352.266 1005.78 351.69 1005.07 351.27 1004.38 350.85 1003.56 350.64 1002.63 350.64 1001.64 350.64 1000.77 350.881 1000.02 351.364 999.27 351.837 998.685 352.463 998.265 353.24 997.854 354.008 997.644 354.853 997.635 355.773V358.628C997.635 359.825 997.854 360.852 998.292 361.71 998.729 362.559 999.341 363.211 1000.13 363.667 1000.91 364.113 1001.83 364.337 1002.89 364.337 1003.59 364.337 1004.23 364.238 1004.8 364.042 1005.38 363.836 1005.87 363.537 1006.29 363.144 1006.71 362.751 1007.03 362.264 1007.24 361.683L1011.77 362.192C1011.49 363.39 1010.94 364.435 1010.14 365.328 1009.34 366.213 1008.32 366.901 1007.08 367.392 1005.84 367.875 1004.42 368.116 1002.82 368.116zM1020.93 355.652v12.062H1016.08V347.129H1020.72V350.627H1020.96C1021.43 349.474 1022.19 348.558 1023.22 347.879 1024.27 347.2 1025.56 346.861 1027.1 346.861 1028.52 346.861 1029.75 347.165 1030.81 347.772 1031.87 348.38 1032.69 349.26 1033.27 350.412 1033.86 351.565 1034.15 352.963 1034.14 354.607v13.107H1029.29V355.358C1029.29 353.982 1028.94 352.905 1028.22 352.128 1027.51 351.35 1026.54 350.962 1025.29 350.962 1024.44 350.962 1023.68 351.149 1023.02 351.525 1022.37 351.891 1021.86 352.423 1021.48 353.119 1021.11 353.816 1020.93 354.661 1020.93 355.652zm18.15 12.062V347.129H1043.93v20.585H1039.08zM1041.52 344.207C1040.75 344.207 1040.09 343.953 1039.53 343.443 1038.98 342.925 1038.7 342.304 1038.7 341.581 1038.7 340.848 1038.98 340.227 1039.53 339.718 1040.09 339.2 1040.75 338.94 1041.52 338.94S1042.95 339.2 1043.5 339.718C1044.05 340.227 1044.33 340.848 1044.33 341.581 1044.33 342.304 1044.05 342.925 1043.5 343.443 1042.95 343.953 1042.29 344.207 1041.52 344.207zm12.25 11.445v12.062H1048.92V347.129H1053.55V350.627H1053.79C1054.27 349.474 1055.02 348.558 1056.06 347.879 1057.1 347.2 1058.4 346.861 1059.93 346.861 1061.35 346.861 1062.59 347.165 1063.64 347.772 1064.71 348.38 1065.53 349.26 1066.11 350.412 1066.7 351.565 1066.99 352.963 1066.98 354.607v13.107H1062.13V355.358C1062.13 353.982 1061.77 352.905 1061.06 352.128 1060.35 351.35 1059.37 350.962 1058.12 350.962 1057.27 350.962 1056.52 351.149 1055.86 351.525 1055.21 351.891 1054.69 352.423 1054.32 353.119 1053.95 353.816 1053.77 354.661 1053.77 355.652zM1080.87 375.862C1079.12 375.862 1077.63 375.625 1076.38 375.152 1075.13 374.687 1074.12 374.062 1073.36 373.276 1072.6 372.489 1072.07 371.618 1071.78 370.662L1076.15 369.604C1076.35 370.006 1076.63 370.403 1077.01 370.796 1077.38 371.198 1077.89 371.529 1078.52 371.788 1079.16 372.056 1079.97 372.19 1080.95 372.19 1082.32 372.19 1083.46 371.855 1084.36 371.185 1085.27 370.524 1085.72 369.434 1085.72 367.915V364.015H1085.48C1085.23 364.515 1084.86 365.029 1084.38 365.556 1083.9 366.083 1083.27 366.526 1082.49 366.883 1081.71 367.24 1080.73 367.419 1079.55 367.419 1077.97 367.419 1076.54 367.048 1075.25 366.307 1073.97 365.556 1072.95 364.439 1072.2 362.956 1071.44 361.464 1071.07 359.597 1071.07 357.354 1071.07 355.094 1071.44 353.186 1072.2 351.632 1072.95 350.068 1073.98 348.885 1075.26 348.08 1076.55 347.267 1077.98 346.861 1079.57 346.861 1080.77 346.861 1081.76 347.066 1082.54 347.477 1083.33 347.879 1083.95 348.366 1084.42 348.938 1084.88 349.501 1085.23 350.033 1085.48 350.533H1085.74v-3.404H1090.53v20.92C1090.53 369.809 1090.11 371.265 1089.27 372.418 1088.43 373.57 1087.28 374.433 1085.82 375.004 1084.37 375.576 1082.72 375.862 1080.87 375.862zM1080.91 363.613C1081.93 363.613 1082.81 363.363 1083.53 362.862 1084.26 362.362 1084.81 361.643 1085.18 360.705 1085.56 359.767 1085.74 358.641 1085.74 357.328 1085.74 356.032 1085.56 354.897 1085.18 353.924 1084.82 352.95 1084.27 352.195 1083.55 351.659 1082.83 351.114 1081.95 350.841 1080.91 350.841 1079.83 350.841 1078.92 351.123 1078.2 351.685 1077.48 352.248 1076.93 353.021 1076.56 354.004 1076.2 354.978 1076.01 356.086 1076.01 357.328 1076.01 358.587 1076.2 359.691 1076.56 360.638 1076.94 361.576 1077.49 362.309 1078.21 362.836 1078.95 363.354 1079.84 363.613 1080.91 363.613zM1113.84 368.116C1111.83 368.116 1110.09 367.674 1108.61 366.789 1107.14 365.905 1106 364.667 1105.18 363.077 1104.38 361.487 1103.98 359.628 1103.98 357.502 1103.98 355.375 1104.38 353.513 1105.18 351.913 1106 350.314 1107.14 349.072 1108.61 348.188 1110.09 347.303 1111.83 346.861 1113.84 346.861S1117.59 347.303 1119.07 348.188C1120.54 349.072 1121.68 350.314 1122.48 351.913 1123.3 353.513 1123.7 355.375 1123.7 357.502 1123.7 359.628 1123.3 361.487 1122.48 363.077 1121.68 364.667 1120.54 365.905 1119.07 366.789 1117.59 367.674 1115.85 368.116 1113.84 368.116zM1113.87 364.229C1114.96 364.229 1115.87 363.93 1116.6 363.332 1117.33 362.724 1117.88 361.911 1118.24 360.892 1118.6 359.874 1118.79 358.739 1118.79 357.488 1118.79 356.229 1118.6 355.089 1118.24 354.071 1117.88 353.043 1117.33 352.226 1116.6 351.618 1115.87 351.011 1114.96 350.707 1113.87 350.707 1112.75 350.707 1111.82 351.011 1111.08 351.618 1110.35 352.226 1109.8 353.043 1109.43 354.071 1109.07 355.089 1108.9 356.229 1108.9 357.488 1108.9 358.739 1109.07 359.874 1109.43 360.892 1109.8 361.911 1110.35 362.724 1111.08 363.332 1111.82 363.93 1112.75 364.229 1113.87 364.229zM1138.25 347.129V350.881H1126.08V347.129H1138.25zM1129.12 367.714V345.186C1129.12 343.801 1129.41 342.648 1129.98 341.728 1130.56 340.808 1131.34 340.12 1132.31 339.664 1133.29 339.208 1134.37 338.981 1135.55 338.981 1136.39 338.981 1137.14 339.048 1137.79 339.182 1138.45 339.316 1138.93 339.436 1139.24 339.544L1138.28 343.296C1138.07 343.233 1137.81 343.171 1137.5 343.108 1137.19 343.037 1136.84 343.001 1136.45 343.001 1135.55 343.001 1134.91 343.22 1134.54 343.658 1134.17 344.087 1133.99 344.703 1133.99 345.507v22.207H1129.12zM1161.69 347.129V350.881H1149.85V347.129H1161.69zM1152.78 342.197H1157.63v19.325C1157.63 362.175 1157.73 362.675 1157.92 363.023 1158.13 363.363 1158.4 363.595 1158.73 363.72S1159.42 363.908 1159.83 363.908C1160.13 363.908 1160.41 363.885 1160.66 363.841 1160.92 363.796 1161.11 363.756 1161.25 363.72L1162.06 367.513C1161.8 367.602 1161.43 367.7 1160.95 367.808 1160.48 367.915 1159.9 367.977 1159.21 367.995 1157.99 368.031 1156.9 367.848 1155.93 367.446 1154.95 367.035 1154.18 366.401 1153.61 365.543 1153.04 364.685 1152.77 363.613 1152.78 362.326V342.197zm18.26 13.455v12.062H1166.19V340.267H1170.93v10.36H1171.17C1171.66 349.465 1172.4 348.549 1173.41 347.879 1174.43 347.2 1175.73 346.861 1177.3 346.861 1178.73 346.861 1179.97 347.16 1181.04 347.759 1182.1 348.357 1182.92 349.233 1183.5 350.385 1184.09 351.538 1184.39 352.945 1184.39 354.607v13.107H1179.54V355.358C1179.54 353.973 1179.18 352.896 1178.46 352.128 1177.76 351.35 1176.77 350.962 1175.49 350.962 1174.63 350.962 1173.86 351.149 1173.18 351.525 1172.51 351.891 1171.99 352.423 1171.6 353.119 1171.23 353.816 1171.04 354.661 1171.04 355.652zM1198.45 368.116C1196.38 368.116 1194.6 367.687 1193.1 366.829 1191.61 365.963 1190.46 364.739 1189.65 363.157 1188.85 361.567 1188.45 359.695 1188.45 357.542 1188.45 355.425 1188.85 353.566 1189.65 351.967 1190.47 350.359 1191.6 349.108 1193.06 348.214 1194.51 347.312 1196.23 346.861 1198.19 346.861 1199.46 346.861 1200.66 347.066 1201.78 347.477 1202.92 347.879 1203.92 348.505 1204.78 349.354 1205.66 350.202 1206.35 351.283 1206.85 352.597 1207.35 353.901 1207.6 355.456 1207.6 357.261V358.748H1190.73V355.478h12.22C1202.94 354.549 1202.74 353.723 1202.35 352.999 1201.95 352.266 1201.4 351.69 1200.7 351.27 12e2 350.85 1199.19 350.64 1198.26 350.64 1197.27 350.64 1196.4 350.881 1195.64 351.364 1194.89 351.837 1194.31 352.463 1193.89 353.24 1193.48 354.008 1193.27 354.853 1193.26 355.773V358.628C1193.26 359.825 1193.48 360.852 1193.92 361.71 1194.35 362.559 1194.97 363.211 1195.75 363.667 1196.54 364.113 1197.46 364.337 1198.51 364.337 1199.22 364.337 1199.86 364.238 1200.43 364.042 1201 363.836 1201.5 363.537 1201.92 363.144 1202.34 362.751 1202.65 362.264 1202.87 361.683L1207.4 362.192C1207.11 363.39 1206.57 364.435 1205.76 365.328 1204.97 366.213 1203.95 366.901 1202.71 367.392 1201.47 367.875 1200.04 368.116 1198.45 368.116zm27.47-27.849v27.447H1221.06V340.267H1225.92zM1230.9 367.714V347.129H1235.76v20.585H1230.9zM1233.34 344.207C1232.58 344.207 1231.91 343.953 1231.36 343.443 1230.81 342.925 1230.53 342.304 1230.53 341.581 1230.53 340.848 1230.81 340.227 1231.36 339.718 1231.91 339.2 1232.58 338.94 1233.34 338.94 1234.12 338.94 1234.78 339.2 1235.33 339.718 1235.88 340.227 1236.16 340.848 1236.16 341.581 1236.16 342.304 1235.88 342.925 1235.33 343.443 1234.78 343.953 1234.12 344.207 1233.34 344.207zM1249.7 375.862C1247.95 375.862 1246.46 375.625 1245.21 375.152 1243.96 374.687 1242.95 374.062 1242.19 373.276 1241.43 372.489 1240.91 371.618 1240.61 370.662L1244.98 369.604C1245.18 370.006 1245.46 370.403 1245.84 370.796 1246.21 371.198 1246.72 371.529 1247.35 371.788 1247.99 372.056 1248.8 372.19 1249.78 372.19 1251.15 372.19 1252.29 371.855 1253.19 371.185 1254.1 370.524 1254.55 369.434 1254.55 367.915V364.015H1254.31C1254.06 364.515 1253.69 365.029 1253.21 365.556 1252.73 366.083 1252.1 366.526 1251.32 366.883 1250.54 367.24 1249.56 367.419 1248.38 367.419 1246.8 367.419 1245.37 367.048 1244.08 366.307 1242.8 365.556 1241.79 364.439 1241.03 362.956 1240.28 361.464 1239.9 359.597 1239.9 357.354 1239.9 355.094 1240.28 353.186 1241.03 351.632 1241.79 350.068 1242.81 348.885 1244.1 348.08 1245.38 347.267 1246.82 346.861 1248.4 346.861 1249.6 346.861 1250.59 347.066 1251.37 347.477 1252.16 347.879 1252.78 348.366 1253.25 348.938 1253.71 349.501 1254.07 350.033 1254.31 350.533H1254.58v-3.404H1259.36v20.92C1259.36 369.809 1258.94 371.265 1258.1 372.418 1257.26 373.57 1256.11 374.433 1254.66 375.004 1253.2 375.576 1251.55 375.862 1249.7 375.862zM1249.74 363.613C1250.76 363.613 1251.64 363.363 1252.36 362.862 1253.09 362.362 1253.64 361.643 1254.01 360.705 1254.39 359.767 1254.58 358.641 1254.58 357.328 1254.58 356.032 1254.39 354.897 1254.01 353.924 1253.65 352.95 1253.1 352.195 1252.38 351.659 1251.66 351.114 1250.78 350.841 1249.74 350.841 1248.66 350.841 1247.75 351.123 1247.03 351.685 1246.31 352.248 1245.76 353.021 1245.4 354.004 1245.03 354.978 1244.85 356.086 1244.85 357.328 1244.85 358.587 1245.03 359.691 1245.4 360.638 1245.77 361.576 1246.32 362.309 1247.04 362.836 1247.78 363.354 1248.67 363.613 1249.74 363.613zM1269.18 355.652v12.062H1264.33V340.267h4.75v10.36H1269.32C1269.8 349.465 1270.55 348.549 1271.56 347.879 1272.57 347.2 1273.87 346.861 1275.44 346.861 1276.87 346.861 1278.12 347.16 1279.18 347.759 1280.24 348.357 1281.07 349.233 1281.65 350.385 1282.24 351.538 1282.53 352.945 1282.53 354.607v13.107H1277.68V355.358C1277.68 353.973 1277.32 352.896 1276.61 352.128 1275.9 351.35 1274.91 350.962 1273.63 350.962 1272.77 350.962 1272.01 351.149 1271.33 351.525 1270.66 351.891 1270.13 352.423 1269.75 353.119 1269.37 353.816 1269.18 354.661 1269.18 355.652zM1297.76 347.129V350.881H1285.92V347.129H1297.76zM1288.84 342.197H1293.69v19.325C1293.69 362.175 1293.79 362.675 1293.99 363.023 1294.2 363.363 1294.46 363.595 1294.79 363.72S1295.49 363.908 1295.89 363.908C1296.2 363.908 1296.47 363.885 1296.72 363.841 1296.98 363.796 1297.18 363.756 1297.31 363.72L1298.13 367.513C1297.87 367.602 1297.5 367.7 1297.02 367.808 1296.54 367.915 1295.96 367.977 1295.28 367.995 1294.06 368.031 1292.97 367.848 1291.99 367.446 1291.02 367.035 1290.25 366.401 1289.67 365.543 1289.11 364.685 1288.83 363.613 1288.84 362.326V342.197z" fill="#0019f7"/><path d="M534.862 38.8215H612.326V19.7036H534.862V38.8215zm132.831.0h77.465V19.7036H667.693V38.8215zM534.862 77.0572H612.326V57.9394H534.862V77.0572zm132.831.0h77.465V57.9394H667.693V77.0572zM534.862 115.293H745.158V96.175H534.862v19.118zm0 38.236H612.326V134.411H534.862v19.118zm132.831.0h77.465V134.411H667.693v19.118zM534.862 191.764H745.158V172.646H534.862v19.118zm0 38.236H612.326V210.882H534.862V230zm132.831.0h77.465V210.882H667.693V230z" fill="#0019f7"/><path d="M635.184 292.326C635.824 291.286 636.464 290.086 636.944 289.246 637.744 287.686 637.864 287.446 638.264 286.886L636.664 285.126C636.184 285.206 635.704 285.246 634.464 285.246H630.864C631.184 284.406 631.224 284.366 631.424 283.806 631.584 283.366 631.664 283.206 631.824 282.926L628.224 282.166C628.024 283.286 627.664 284.286 627.064 285.766 625.824 288.686 624.104 291.166 621.984 293.206 623.304 293.926 624.024 294.486 624.744 295.366 624.744 296.246 624.744 296.566 624.744 297.126 624.744 309.486 624.304 312.886 622.304 316.526 623.544 317.286 623.864 317.566 625.144 319.006 626.624 315.846 627.104 313.846 627.544 309.046H636.304V314.686C636.304 315.326 635.984 315.526 634.704 315.526 633.944 315.526 632.824 315.406 631.144 315.206 631.584 316.446 631.784 317.286 631.864 318.566 633.704 318.606 634.624 318.646 634.664 318.646 638.304 318.646 639.344 317.926 639.344 315.406v-19.88C639.344 293.886 639.384 293.126 639.464 292.166 638.304 292.286 637.424 292.326 635.704 292.326H635.184zM628.744 292.326c-.960000000000036.0-1.12.0-1.60000000000002.0C628.144 290.886 628.664 289.966 629.544 288.206H633.904C633.184 289.766 632.544 291.006 631.744 292.326h-3zM627.704 306.166C627.784 304.766 627.784 304.766 627.784 303.446 627.784 303.126 627.784 302.646 627.824 302.006H630.664V306.166H627.704zM636.304 306.166h-2.88V302.006h2.88V306.166zM636.304 299.206h-2.88V295.286h2.88V299.206zM630.664 295.286V299.206H627.864V295.286H630.664zM645.464 287.286C645.144 289.006 644.864 289.846 644.144 290.846 643.224 292.126 641.904 293.126 639.424 294.366 640.544 295.406 641.184 296.246 641.704 297.206 644.704 295.446 645.904 294.366 647.184 292.286 648.184 290.686 648.544 289.686 648.984 287.286h4.88C653.664 289.886 653.544 290.806 653.184 291.846 652.984 292.566 652.624 292.766 651.464 292.766 650.744 292.766 649.424 292.646 648.224 292.446 648.744 293.766 648.904 294.446 648.984 295.686 651.184 295.806 651.344 295.806 652.184 295.806 654.544 295.806 655.464 295.406 656.064 294.166 656.624 292.886 657.144 289.646 657.464 285.206 657.504 284.606 657.544 284.486 657.584 284.046 656.584 284.166 655.544 284.206 653.984 284.206H644.424C642.504 284.206 641.384 284.126 640.304 283.966V287.486C641.224 287.366 642.304 287.286 643.944 287.286H645.464zM648.304 303.486v4.12H643.904C642.344 307.606 641.424 307.566 640.304 307.406V311.006C641.504 310.846 642.344 310.806 643.864 310.806H648.304V315.406C648.304 317.046 648.224 317.966 648.064 319.166H651.904C651.744 318.046 651.664 317.046 651.664 315.406V310.806H655.264C657.064 310.806 657.984 310.846 658.984 310.966v-3.56C657.824 307.566 656.824 307.606 655.184 307.606H651.664v-4.12H654.384C655.984 303.486 657.064 303.526 658.024 303.646v-3.56C657.184 300.286 656.264 300.326 654.384 300.326H651.664V299.726C651.664 298.646 651.704 297.686 651.824 296.686H648.064C648.224 297.606 648.304 298.526 648.304 299.726V300.326H645.464C645.624 299.766 645.624 299.766 646.144 297.886L642.824 297.166C642.824 297.606 642.744 298.126 642.544 299.126 642.024 301.566 641.384 303.086 639.984 305.286 640.944 305.606 641.624 305.966 642.984 306.846 643.744 305.366 644.024 304.766 644.504 303.486H648.304z" fill="#0019f7"/><path d="M542.341 347.129V350.881H530.507V347.129H542.341zM533.429 342.197h4.851v19.325C538.28 362.175 538.378 362.675 538.575 363.023 538.781 363.363 539.049 363.595 539.379 363.72 539.71 363.845 540.076 363.908 540.478 363.908 540.782 363.908 541.059 363.885 541.309 363.841 541.568 363.796 541.765 363.756 541.899 363.72L542.716 367.513C542.457 367.602 542.086 367.7 541.604 367.808 541.13 367.915 540.55 367.977 539.862 367.995 538.647 368.031 537.552 367.848 536.578 367.446 535.604 367.035 534.832 366.401 534.26 365.543 533.697 364.685 533.42 363.613 533.429 362.326V342.197zm18.893 25.932C551.017 368.129 549.843 367.897 548.797 367.432 547.761 366.959 546.939 366.262 546.331 365.342 545.733 364.422 545.433 363.287 545.433 361.938 545.433 360.776 545.648 359.816 546.077 359.056 546.505 358.297 547.091 357.689 547.832 357.234 548.574 356.778 549.409 356.434 550.338 356.202 551.276 355.961 552.246 355.786 553.247 355.679 554.453 355.554 555.431 355.442 556.182 355.344 556.932 355.237 557.477 355.076 557.817 354.862 558.165 354.638 558.339 354.294 558.339 353.83V353.749C558.339 352.74 558.04 351.958 557.441 351.404 556.843 350.85 555.98 350.573 554.855 350.573 553.666 350.573 552.724 350.832 552.027 351.35 551.339 351.869 550.874 352.481 550.633 353.186L546.103 352.543C546.461 351.292 547.05 350.247 547.872 349.407 548.694 348.558 549.7 347.924 550.888 347.504 552.076 347.075 553.389 346.861 554.828 346.861 555.82 346.861 556.807 346.977 557.79 347.209 558.773 347.442 559.67 347.826 560.483 348.362 561.296 348.889 561.949 349.608 562.44 350.52 562.94 351.431 563.191 352.57 563.191 353.937v13.777H558.527V364.886H558.366C558.071 365.458 557.656 365.994 557.12 366.494 556.592 366.986 555.927 367.383 555.123 367.687 554.328 367.982 553.394 368.129 552.322 368.129zM553.582 364.564C554.555 364.564 555.4 364.372 556.115 363.988 556.829 363.595 557.379 363.077 557.763 362.434 558.156 361.79 558.353 361.089 558.353 360.33V357.904C558.201 358.029 557.942 358.145 557.575 358.252 557.218 358.359 556.816 358.453 556.369 358.534 555.922 358.614 555.48 358.686 555.042 358.748 554.605 358.811 554.225 358.864 553.903 358.909 553.18 359.007 552.532 359.168 551.96 359.391 551.388 359.615 550.937 359.927 550.606 360.33 550.276 360.723 550.111 361.232 550.111 361.857 550.111 362.751 550.437 363.425 551.089 363.881 551.741 364.337 552.572 364.564 553.582 364.564zm18.909-3.31L572.478 355.398H573.255L580.653 347.129H586.322L577.222 357.261h-1.005l-3.726 3.993zM568.069 367.714V340.267h4.851v27.447h-4.851zM580.988 367.714 574.287 358.346 577.557 354.929 586.791 367.714h-5.803zM589.555 367.714V347.129h4.851v20.585h-4.851zM591.994 344.207C591.226 344.207 590.565 343.953 590.011 343.443 589.457 342.925 589.18 342.304 589.18 341.581 589.18 340.848 589.457 340.227 590.011 339.718 590.565 339.2 591.226 338.94 591.994 338.94 592.771 338.94 593.433 339.2 593.978 339.718 594.532 340.227 594.809 340.848 594.809 341.581 594.809 342.304 594.532 342.925 593.978 343.443 593.433 343.953 592.771 344.207 591.994 344.207zM604.247 355.652v12.062H599.395V347.129H604.032V350.627H604.273C604.747 349.474 605.502 348.558 606.538 347.879 607.584 347.2 608.875 346.861 610.411 346.861 611.832 346.861 613.069 347.165 614.124 347.772 615.187 348.38 616.009 349.26 616.59 350.412 617.179 351.565 617.47 352.963 617.461 354.607v13.107H612.609V355.358C612.609 353.982 612.252 352.905 611.537 352.128 610.831 351.35 609.853 350.962 608.602 350.962 607.753 350.962 606.998 351.149 606.337 351.525 605.685 351.891 605.171 352.423 604.796 353.119 604.43 353.816 604.247 354.661 604.247 355.652zM631.345 375.862C629.603 375.862 628.106 375.625 626.855 375.152 625.604 374.687 624.599 374.062 623.84 373.276 623.08 372.489 622.553 371.618 622.258 370.662L626.627 369.604C626.824 370.006 627.11 370.403 627.485 370.796 627.86 371.198 628.365 371.529 629 371.788 629.643 372.056 630.451 372.19 631.425 372.19 632.801 372.19 633.94 371.855 634.843 371.185 635.745 370.524 636.196 369.434 636.196 367.915V364.015H635.955C635.705 364.515 635.339 365.029 634.856 365.556 634.383 366.083 633.753 366.526 632.966 366.883 632.189 367.24 631.211 367.419 630.031 367.419 628.45 367.419 627.016 367.048 625.73 366.307 624.452 365.556 623.433 364.439 622.674 362.956 621.923 361.464 621.548 359.597 621.548 357.354 621.548 355.094 621.923 353.186 622.674 351.632 623.433 350.068 624.456 348.885 625.743 348.08 627.029 347.267 628.463 346.861 630.045 346.861 631.251 346.861 632.243 347.066 633.02 347.477 633.806 347.879 634.432 348.366 634.896 348.938 635.361 349.501 635.714 350.033 635.955 350.533H636.223v-3.404H641.007v20.92C641.007 369.809 640.588 371.265 639.748 372.418 638.908 373.57 637.76 374.433 636.303 375.004 634.847 375.576 633.194 375.862 631.345 375.862zM631.385 363.613C632.412 363.613 633.288 363.363 634.012 362.862 634.735 362.362 635.285 361.643 635.66 360.705S636.223 358.641 636.223 357.328C636.223 356.032 636.035 354.897 635.66 353.924 635.294 352.95 634.749 352.195 634.025 351.659 633.31 351.114 632.43 350.841 631.385 350.841 630.304 350.841 629.402 351.123 628.678 351.685 627.954 352.248 627.409 353.021 627.043 354.004 626.677 354.978 626.493 356.086 626.493 357.328 626.493 358.587 626.677 359.691 627.043 360.638 627.418 361.576 627.968 362.309 628.691 362.836 629.424 363.354 630.322 363.613 631.385 363.613zM661.264 368.129C659.96 368.129 658.785 367.897 657.739 367.432 656.703 366.959 655.881 366.262 655.274 365.342 654.675 364.422 654.376 363.287 654.376 361.938 654.376 360.776 654.59 359.816 655.019 359.056 655.448 358.297 656.033 357.689 656.775 357.234 657.516 356.778 658.351 356.434 659.281 356.202 660.219 355.961 661.188 355.786 662.189 355.679 663.395 355.554 664.373 355.442 665.124 355.344 665.874 355.237 666.419 355.076 666.759 354.862 667.107 354.638 667.281 354.294 667.281 353.83V353.749C667.281 352.74 666.982 351.958 666.384 351.404 665.785 350.85 664.923 350.573 663.797 350.573 662.609 350.573 661.666 350.832 660.969 351.35 660.281 351.869 659.817 352.481 659.575 353.186L655.046 352.543C655.403 351.292 655.993 350.247 656.815 349.407 657.637 348.558 658.642 347.924 659.83 347.504 661.018 347.075 662.332 346.861 663.77 346.861 664.762 346.861 665.749 346.977 666.732 347.209 667.715 347.442 668.613 347.826 669.426 348.362 670.239 348.889 670.891 349.608 671.382 350.52 671.883 351.431 672.133 352.57 672.133 353.937v13.777H667.469V364.886H667.308C667.013 365.458 666.598 365.994 666.062 366.494 665.535 366.986 664.869 367.383 664.065 367.687 663.27 367.982 662.336 368.129 661.264 368.129zM662.524 364.564C663.498 364.564 664.342 364.372 665.057 363.988 665.772 363.595 666.321 363.077 666.705 362.434 667.098 361.79 667.295 361.089 667.295 360.33V357.904C667.143 358.029 666.884 358.145 666.518 358.252 666.16 358.359 665.758 358.453 665.311 358.534 664.865 358.614 664.422 358.686 663.985 358.748 663.547 358.811 663.167 358.864 662.845 358.909 662.122 359.007 661.474 359.168 660.902 359.391 660.33 359.615 659.879 359.927 659.549 360.33 659.218 360.723 659.053 361.232 659.053 361.857 659.053 362.751 659.379 363.425 660.031 363.881 660.683 364.337 661.514 364.564 662.524 364.564zm14.487 10.869V347.129H681.782v3.404H682.063C682.314 350.033 682.667 349.501 683.122 348.938 683.578 348.366 684.194 347.879 684.972 347.477 685.749 347.066 686.741 346.861 687.947 346.861 689.537 346.861 690.971 347.267 692.249 348.08 693.535 348.885 694.554 350.077 695.304 351.659 696.064 353.231 696.443 355.161 696.443 357.448 696.443 359.709 696.073 361.63 695.331 363.211 694.59 364.792 693.58 365.998 692.302 366.829 691.025 367.66 689.577 368.076 687.96 368.076 686.781 368.076 685.803 367.879 685.025 367.486 684.248 367.093 683.623 366.619 683.149 366.065 682.684 365.503 682.323 364.971 682.063 364.471H681.862v10.962h-4.851zM681.769 357.421C681.769 358.753 681.956 359.919 682.332 360.919 682.716 361.92 683.265 362.702 683.98 363.265 684.704 363.818 685.579 364.095 686.607 364.095 687.679 364.095 688.577 363.81 689.3 363.238 690.024 362.657 690.569 361.866 690.935 360.866 691.311 359.856 691.498 358.708 691.498 357.421 691.498 356.144 691.315 355.009 690.949 354.017 690.582 353.026 690.037 352.248 689.314 351.685 688.59 351.123 687.688 350.841 686.607 350.841 685.57 350.841 684.69 351.114 683.967 351.659 683.243 352.204 682.693 352.968 682.318 353.95 681.952 354.933 681.769 356.09 681.769 357.421zm24.753 10.708C705.217 368.129 704.042 367.897 702.997 367.432 701.961 366.959 701.139 366.262 700.531 365.342 699.932 364.422 699.633 363.287 699.633 361.938 699.633 360.776 699.848 359.816 700.276 359.056 700.705 358.297 701.29 357.689 702.032 357.234 702.774 356.778 703.609 356.434 704.538 356.202 705.476 355.961 706.446 355.786 707.446 355.679 708.652 355.554 709.631 355.442 710.381 355.344 711.132 355.237 711.677 355.076 712.016 354.862 712.365 354.638 712.539 354.294 712.539 353.83V353.749C712.539 352.74 712.24 351.958 711.641 351.404 711.042 350.85 710.18 350.573 709.054 350.573 707.866 350.573 706.924 350.832 706.227 351.35 705.539 351.869 705.074 352.481 704.833 353.186L700.303 352.543C700.661 351.292 701.25 350.247 702.072 349.407 702.894 348.558 703.899 347.924 705.088 347.504 706.276 347.075 707.589 346.861 709.028 346.861 710.019 346.861 711.007 346.977 711.989 347.209 712.972 347.442 713.87 347.826 714.683 348.362 715.496 348.889 716.148 349.608 716.64 350.52 717.14 351.431 717.39 352.57 717.39 353.937v13.777H712.727V364.886H712.566C712.271 365.458 711.855 365.994 711.319 366.494 710.792 366.986 710.127 367.383 709.323 367.687 708.527 367.982 707.594 368.129 706.522 368.129zM707.781 364.564C708.755 364.564 709.599 364.372 710.314 363.988 711.029 363.595 711.578 363.077 711.963 362.434 712.356 361.79 712.552 361.089 712.552 360.33V357.904C712.4 358.029 712.141 358.145 711.775 358.252 711.418 358.359 711.016 358.453 710.569 358.534 710.122 358.614 709.68 358.686 709.242 358.748 708.804 358.811 708.425 358.864 708.103 358.909 707.379 359.007 706.732 359.168 706.16 359.391 705.588 359.615 705.137 359.927 704.806 360.33 704.476 360.723 704.31 361.232 704.31 361.857 704.31 362.751 704.636 363.425 705.289 363.881 705.941 364.337 706.772 364.564 707.781 364.564zM722.269 367.714V347.129H726.973V350.56H727.187C727.562 349.371 728.205 348.456 729.117 347.812 730.037 347.16 731.087 346.834 732.266 346.834 732.534 346.834 732.834 346.847 733.164 346.874 733.504 346.892 733.785 346.923 734.008 346.968V351.431C733.803 351.359 733.477 351.297 733.03 351.243 732.592 351.181 732.168 351.149 731.757 351.149 730.872 351.149 730.077 351.341 729.371 351.726 728.675 352.101 728.125 352.624 727.723 353.294 727.321 353.964 727.12 354.737 727.12 355.612v12.102h-4.851zm26.347-20.585V350.881H736.783V347.129h11.833zM739.704 342.197H744.556v19.325C744.556 362.175 744.654 362.675 744.85 363.023 745.056 363.363 745.324 363.595 745.654 363.72 745.985 363.845 746.351 363.908 746.753 363.908 747.057 363.908 747.334 363.885 747.584 363.841 747.843 363.796 748.04 363.756 748.174 363.72L748.991 367.513C748.732 367.602 748.362 367.7 747.879 367.808 747.406 367.915 746.825 367.977 746.137 367.995 744.922 368.031 743.827 367.848 742.854 367.446 741.88 367.035 741.107 366.401 740.535 365.543 739.972 364.685 739.695 363.613 739.704 362.326V342.197z" fill="#0019f7"/><path d="M1464.44 38.8215h210.29V19.7036H1464.44V38.8215zm0 38.2357h77.46V57.9394h-77.46V77.0572zm132.83.0h77.46V57.9394h-77.46V77.0572zM1464.44 115.293h210.29V96.175H1464.44v19.118zm0 38.236h210.29V134.411H1464.44v19.118zm0 38.235h77.46V172.646h-77.46v19.118zm132.83.0h77.46V172.646h-77.46v19.118zM1464.44 230h210.29V210.882H1464.44V230z" fill="#0019f7"/><path d="M1567.4 313.286V314.926C1567.4 315.806 1567.2 315.926 1565.72 315.926 1564.84 315.926 1563.76 315.806 1562.32 315.606 1562.76 316.806 1562.96 317.646 1563.04 318.846 1564.08 318.886 1564.6 318.886 1565.12 318.886 1567.32 318.886 1568.52 318.766 1569.2 318.406 1570.16 317.926 1570.56 317.086 1570.56 315.406V306.126C1570.56 304.766 1570.6 303.846 1570.72 302.686 1569.72 302.806 1568.88 302.846 1567.04 302.846H1563C1563.12 302.286 1563.2 302.086 1563.44 300.686h3C1567.52 300.686 1568.28 300.686 1569.44 300.766 1569.4 300.006 1569.36 299.166 1569.36 298.246v-2.12C1569.96 296.726 1570.44 297.406 1571 298.366 1571.72 297.446 1571.84 297.286 1572.76 295.646 1572.64 296.926 1572.64 297.366 1572.64 298.726v16.12C1572.64 317.006 1572.56 318.366 1572.44 319.286H1575.92v-1.88H1584.68C1586.24 317.406 1587.76 317.486 1588.76 317.646V314.046C1587.76 314.206 1586.72 314.246 1584.96 314.246H1583.04v-6H1584.08C1585.52 308.246 1586.72 308.326 1587.56 308.486V305.006C1586.68 305.166 1585.72 305.206 1584.08 305.206H1583.04V300.166H1584.08C1585.6 300.166 1586.72 300.246 1587.56 300.366v-3.44C1586.72 297.086 1585.92 297.126 1584.08 297.126H1583.04v-5H1584.32C1586.36 292.126 1587.48 292.166 1588.44 292.286v-3.56C1587.36 288.926 1586.52 288.966 1584.32 288.966H1583.24C1583.88 287.726 1584.52 286.206 1585.2 284.486 1585.28 284.286 1585.44 283.966 1585.6 283.566L1582.24 282.646C1581.68 285.086 1581 287.006 1580 288.966H1576.12C1576.84 287.166 1577.12 286.486 1577.44 285.526 1578 283.886 1578 283.846 1578.32 283.166L1574.8 282.246C1574.12 286.766 1572 291.886 1569.36 295.326V292.166C1569.36 291.126 1569.4 290.446 1569.52 289.686H1566.32C1566.44 290.446 1566.48 291.206 1566.48 292.166V298.086H1557V295.766C1557.64 296.286 1558.04 296.726 1558.8 297.686 1560.4 296.566 1561 296.126 1562.12 295.166 1562.92 295.926 1563.24 296.286 1564.32 297.406L1566.08 295.326C1564.92 294.206 1564.56 293.886 1563.92 293.326 1564.92 292.286 1565.16 292.006 1566 290.926L1563.88 289.206C1563.2 290.366 1562.84 290.806 1562.04 291.726 1561.04 290.926 1560.68 290.606 1559.32 289.606L1557.56 291.406C1558.88 292.326 1559.36 292.726 1560.24 293.446 1559.08 294.406 1558.72 294.646 1557 295.686V292.166C1557 291.166 1557.04 290.486 1557.16 289.646H1553.88C1554 290.646 1554.08 291.606 1554.08 292.526V297.926C1554.08 299.206 1554.04 300.046 1553.92 300.766 1554.96 300.686 1555.88 300.686 1557.2 300.686H1560.36C1560.16 302.086 1560.04 302.806 1560 302.846H1556.6C1555.2 302.846 1554.2 302.806 1553 302.686 1553.12 304.086 1553.16 305.086 1553.16 306.726V314.966C1553.16 316.846 1553.08 318.046 1552.96 319.246H1556.56C1556.44 318.326 1556.4 317.406 1556.4 315.006V305.606H1559.44C1558.84 308.206 1558.52 309.406 1558 310.806 1557.6 310.846 1557.12 310.886 1557 310.886 1556.92 310.886 1556.92 310.886 1556.48 310.846L1557.2 313.926C1557.6 313.806 1557.92 313.726 1558.48 313.646 1560.8 313.246 1562.64 312.886 1564.64 312.366 1564.8 313.006 1564.88 313.366 1565.12 314.286L1567.4 313.286zM1567.4 305.606V312.566C1566.52 310.006 1566.04 308.806 1565 306.846L1562.72 307.726C1563.28 308.766 1563.44 309.086 1563.8 309.966 1563 310.166 1562.16 310.326 1560.96 310.486 1561.48 309.006 1561.64 308.326 1562.36 305.606H1567.4zM1579.96 300.166V305.206H1575.92V300.166H1579.96zM1579.96 297.126H1575.92v-5H1579.96v5zM1575.92 308.246H1579.96v6H1575.92v-6zM1560.04 285.806H1555.68C1554.2 285.806 1553.28 285.766 1552.36 285.606V288.886C1553.28 288.766 1554.12 288.726 1555.6 288.726H1567.68C1568.96 288.726 1570.04 288.766 1571.04 288.886V285.606C1570.12 285.726 1568.92 285.806 1567.64 285.806H1563.48V285.246C1563.48 284.086 1563.52 283.486 1563.68 282.606H1559.84C1559.96 283.286 1560.04 284.086 1560.04 285.286V285.806z" fill="#0019f7"/><path d="M1492.38 367.714V347.129H1497.09V350.56H1497.3C1497.68 349.371 1498.32 348.456 1499.23 347.812 1500.15 347.16 1501.2 346.834 1502.38 346.834 1502.65 346.834 1502.95 346.847 1503.28 346.874 1503.62 346.892 1503.9 346.923 1504.12 346.968V351.431C1503.92 351.359 1503.59 351.297 1503.14 351.243 1502.71 351.181 1502.28 351.149 1501.87 351.149 1500.99 351.149 1500.19 351.341 1499.48 351.726 1498.79 352.101 1498.24 352.624 1497.84 353.294 1497.43 353.964 1497.23 354.737 1497.23 355.612v12.102H1492.38zM1512.9 368.129C1511.6 368.129 1510.42 367.897 1509.38 367.432 1508.34 366.959 1507.52 366.262 1506.91 365.342 1506.31 364.422 1506.01 363.287 1506.01 361.938 1506.01 360.776 1506.23 359.816 1506.65 359.056 1507.08 358.297 1507.67 357.689 1508.41 357.234 1509.15 356.778 1509.99 356.434 1510.92 356.202 1511.85 355.961 1512.82 355.786 1513.82 355.679 1515.03 355.554 1516.01 355.442 1516.76 355.344 1517.51 355.237 1518.06 355.076 1518.39 354.862 1518.74 354.638 1518.92 354.294 1518.92 353.83V353.749C1518.92 352.74 1518.62 351.958 1518.02 351.404 1517.42 350.85 1516.56 350.573 1515.43 350.573 1514.24 350.573 1513.3 350.832 1512.61 351.35 1511.92 351.869 1511.45 352.481 1511.21 353.186L1506.68 352.543C1507.04 351.292 1507.63 350.247 1508.45 349.407 1509.27 348.558 1510.28 347.924 1511.47 347.504 1512.65 347.075 1513.97 346.861 1515.41 346.861 1516.4 346.861 1517.39 346.977 1518.37 347.209 1519.35 347.442 1520.25 347.826 1521.06 348.362 1521.87 348.889 1522.53 349.608 1523.02 350.52 1523.52 351.431 1523.77 352.57 1523.77 353.937v13.777H1519.1V364.886H1518.94C1518.65 365.458 1518.23 365.994 1517.7 366.494 1517.17 366.986 1516.51 367.383 1515.7 367.687 1514.91 367.982 1513.97 368.129 1512.9 368.129zM1514.16 364.564C1515.13 364.564 1515.98 364.372 1516.69 363.988 1517.41 363.595 1517.96 363.077 1518.34 362.434 1518.73 361.79 1518.93 361.089 1518.93 360.33V357.904C1518.78 358.029 1518.52 358.145 1518.15 358.252 1517.8 358.359 1517.39 358.453 1516.95 358.534 1516.5 358.614 1516.06 358.686 1515.62 358.748 1515.18 358.811 1514.8 358.864 1514.48 358.909 1513.76 359.007 1513.11 359.168 1512.54 359.391 1511.97 359.615 1511.52 359.927 1511.18 360.33 1510.85 360.723 1510.69 361.232 1510.69 361.857 1510.69 362.751 1511.01 363.425 1511.67 363.881 1512.32 364.337 1513.15 364.564 1514.16 364.564zM1536.29 368.076C1534.67 368.076 1533.22 367.66 1531.94 366.829 1530.67 365.998 1529.66 364.792 1528.91 363.211 1528.17 361.63 1527.8 359.709 1527.8 357.448 1527.8 355.161 1528.18 353.231 1528.93 351.659 1529.69 350.077 1530.71 348.885 1532 348.08 1533.28 347.267 1534.72 346.861 1536.3 346.861 1537.51 346.861 1538.5 347.066 1539.27 347.477 1540.05 347.879 1540.67 348.366 1541.12 348.938 1541.58 349.501 1541.93 350.033 1542.18 350.533H1542.38V340.267H1547.25v27.447H1542.48v-3.243H1542.18C1541.93 364.971 1541.57 365.503 1541.1 366.065 1540.62 366.619 1540 367.093 1539.22 367.486 1538.44 367.879 1537.47 368.076 1536.29 368.076zM1537.64 364.095C1538.67 364.095 1539.54 363.818 1540.27 363.265 1540.99 362.702 1541.54 361.92 1541.91 360.919 1542.29 359.919 1542.48 358.753 1542.48 357.421 1542.48 356.09 1542.29 354.933 1541.91 353.95 1541.55 352.968 1541 352.204 1540.28 351.659S1538.68 350.841 1537.64 350.841C1536.56 350.841 1535.66 351.123 1534.93 351.685 1534.21 352.248 1533.66 353.026 1533.3 354.017 1532.93 355.009 1532.75 356.144 1532.75 357.421 1532.75 358.708 1532.93 359.856 1533.3 360.866 1533.67 361.866 1534.22 362.657 1534.95 363.238 1535.68 363.81 1536.58 364.095 1537.64 364.095zM1552.42 367.714V347.129H1557.27v20.585H1552.42zM1554.86 344.207C1554.09 344.207 1553.43 343.953 1552.87 343.443 1552.32 342.925 1552.04 342.304 1552.04 341.581 1552.04 340.848 1552.32 340.227 1552.87 339.718 1553.43 339.2 1554.09 338.94 1554.86 338.94 1555.63 338.94 1556.3 339.2 1556.84 339.718 1557.39 340.227 1557.67 340.848 1557.67 341.581 1557.67 342.304 1557.39 342.925 1556.84 343.443 1556.3 343.953 1555.63 344.207 1554.86 344.207zM1568.18 368.129C1566.88 368.129 1565.7 367.897 1564.66 367.432 1563.62 366.959 1562.8 366.262 1562.19 365.342 1561.59 364.422 1561.29 363.287 1561.29 361.938 1561.29 360.776 1561.51 359.816 1561.94 359.056 1562.37 358.297 1562.95 357.689 1563.69 357.234 1564.43 356.778 1565.27 356.434 1566.2 356.202 1567.14 355.961 1568.11 355.786 1569.11 355.679 1570.31 355.554 1571.29 355.442 1572.04 355.344 1572.79 355.237 1573.34 355.076 1573.68 354.862 1574.03 354.638 1574.2 354.294 1574.2 353.83V353.749C1574.2 352.74 1573.9 351.958 1573.3 351.404 1572.7 350.85 1571.84 350.573 1570.71 350.573 1569.53 350.573 1568.58 350.832 1567.89 351.35 1567.2 351.869 1566.73 352.481 1566.49 353.186L1561.96 352.543C1562.32 351.292 1562.91 350.247 1563.73 349.407 1564.55 348.558 1565.56 347.924 1566.75 347.504 1567.94 347.075 1569.25 346.861 1570.69 346.861 1571.68 346.861 1572.67 346.977 1573.65 347.209 1574.63 347.442 1575.53 347.826 1576.34 348.362 1577.16 348.889 1577.81 349.608 1578.3 350.52 1578.8 351.431 1579.05 352.57 1579.05 353.937v13.777H1574.39V364.886H1574.23C1573.93 365.458 1573.52 365.994 1572.98 366.494 1572.45 366.986 1571.79 367.383 1570.98 367.687 1570.19 367.982 1569.25 368.129 1568.18 368.129zM1569.44 364.564C1570.42 364.564 1571.26 364.372 1571.97 363.988 1572.69 363.595 1573.24 363.077 1573.62 362.434 1574.02 361.79 1574.21 361.089 1574.21 360.33V357.904C1574.06 358.029 1573.8 358.145 1573.44 358.252 1573.08 358.359 1572.68 358.453 1572.23 358.534 1571.78 358.614 1571.34 358.686 1570.9 358.748 1570.46 358.811 1570.08 358.864 1569.76 358.909 1569.04 359.007 1568.39 359.168 1567.82 359.391 1567.25 359.615 1566.8 359.927 1566.47 360.33 1566.14 360.723 1565.97 361.232 1565.97 361.857 1565.97 362.751 1566.3 363.425 1566.95 363.881 1567.6 364.337 1568.43 364.564 1569.44 364.564zM1588.78 355.652v12.062H1583.93V347.129H1588.57V350.627H1588.81C1589.28 349.474 1590.04 348.558 1591.07 347.879 1592.12 347.2 1593.41 346.861 1594.95 346.861 1596.37 346.861 1597.6 347.165 1598.66 347.772 1599.72 348.38 1600.54 349.26 1601.12 350.412 1601.71 351.565 1602 352.963 1601.99 354.607v13.107H1597.14V355.358C1597.14 353.982 1596.79 352.905 1596.07 352.128 1595.36 351.35 1594.39 350.962 1593.14 350.962 1592.29 350.962 1591.53 351.149 1590.87 351.525 1590.22 351.891 1589.71 352.423 1589.33 353.119 1588.96 353.816 1588.78 354.661 1588.78 355.652zM1615.91 368.116C1613.85 368.116 1612.09 367.665 1610.61 366.762 1609.15 365.86 1608.02 364.614 1607.22 363.023 1606.43 361.424 1606.04 359.584 1606.04 357.502 1606.04 355.411 1606.44 353.566 1607.25 351.967 1608.05 350.359 1609.19 349.108 1610.65 348.214 1612.13 347.312 1613.87 346.861 1615.88 346.861 1617.55 346.861 1619.03 347.169 1620.31 347.786 1621.61 348.393 1622.64 349.255 1623.41 350.372 1624.18 351.48 1624.62 352.775 1624.72 354.259H1620.09C1619.9 353.267 1619.45 352.44 1618.75 351.779 1618.05 351.109 1617.12 350.774 1615.95 350.774 1614.95 350.774 1614.08 351.042 1613.33 351.578 1612.58 352.105 1612 352.865 1611.58 353.857 1611.17 354.848 1610.96 356.037 1610.96 357.421 1610.96 358.824 1611.17 360.03 1611.58 361.04 1611.99 362.04 1612.56 362.813 1613.31 363.358 1614.06 363.894 1614.94 364.162 1615.95 364.162 1616.66 364.162 1617.3 364.028 1617.86 363.76 1618.43 363.483 1618.91 363.086 1619.3 362.568 1619.68 362.049 1619.94 361.42 1620.09 360.678H1624.72C1624.61 362.134 1624.18 363.425 1623.44 364.551 1622.7 365.668 1621.69 366.543 1620.41 367.178 1619.13 367.803 1617.63 368.116 1615.91 368.116zM1637.82 368.116C1635.76 368.116 1633.97 367.687 1632.47 366.829 1630.98 365.963 1629.83 364.739 1629.03 363.157 1628.22 361.567 1627.82 359.695 1627.82 357.542 1627.82 355.425 1628.22 353.566 1629.03 351.967 1629.84 350.359 1630.98 349.108 1632.43 348.214 1633.89 347.312 1635.6 346.861 1637.57 346.861 1638.83 346.861 1640.03 347.066 1641.16 347.477 1642.29 347.879 1643.29 348.505 1644.16 349.354 1645.03 350.202 1645.72 351.283 1646.22 352.597 1646.72 353.901 1646.97 355.456 1646.97 357.261V358.748H1630.1V355.478h12.22C1642.31 354.549 1642.11 353.723 1641.72 352.999 1641.33 352.266 1640.78 351.69 1640.07 351.27 1639.37 350.85 1638.56 350.64 1637.63 350.64 1636.64 350.64 1635.77 350.881 1635.02 351.364 1634.27 351.837 1633.68 352.463 1633.26 353.24 1632.85 354.008 1632.64 354.853 1632.63 355.773V358.628C1632.63 359.825 1632.85 360.852 1633.29 361.71 1633.73 362.559 1634.34 363.211 1635.13 363.667 1635.91 364.113 1636.83 364.337 1637.89 364.337 1638.59 364.337 1639.23 364.238 1639.8 364.042 1640.38 363.836 1640.87 363.537 1641.29 363.144 1641.71 362.751 1642.03 362.264 1642.24 361.683L1646.77 362.192C1646.49 363.39 1645.94 364.435 1645.14 365.328 1644.34 366.213 1643.32 366.901 1642.08 367.392 1640.84 367.875 1639.42 368.116 1637.82 368.116z" fill="#0019f7"/></svg>