<svg width="387" height="1713" viewBox="0 0 387 1713" fill="none" xmlns="http://www.w3.org/2000/svg"><path d="M89.0674 38.8216H299.364V19.7038H89.0674V38.8216zm0 38.2357H299.364V57.9395H89.0674V77.0573zm0 38.2357H166.532V96.1752H89.0674V115.293zm132.8316.0h77.465V96.1752H221.899V115.293zM89.0674 153.529H299.364V134.411H89.0674v19.118zm0 38.235H299.364V172.647H89.0674v19.117zm0 38.236H299.364V210.882H89.0674V230z" fill="#0019f7"/><path d="M172.927 283.166C173.087 284.406 173.167 285.806 173.167 287.686v26.28C173.167 314.766 172.767 314.966 171.407 314.966 169.807 314.966 168.127 314.806 165.607 314.366 166.207 315.846 166.487 316.766 166.647 318.326 168.687 318.526 170.447 318.606 171.927 318.606 175.967 318.606 177.127 317.686 177.127 314.566v-26.84C177.127 285.726 177.207 284.326 177.367 283.166h-4.44zM182.407 292.726 183.607 297.046C185.407 303.246 187.487 307.566 191.007 312.486 192.207 311.206 192.527 310.966 194.327 309.846 191.767 306.526 189.847 303.086 188.367 299.126 187.127 295.846 186.527 293.806 186.287 291.606l-3.88 1.12zM163.287 291.806C163.167 293.526 162.847 295.286 162.167 297.726 160.887 302.326 158.887 306.406 156.127 310.086 157.487 310.726 158.367 311.326 159.647 312.486 163.207 307.166 164.927 302.926 166.727 295.366 167.087 293.806 167.087 293.806 167.367 292.846L163.287 291.806zm34.12 10.24C198.247 301.926 199.727 301.846 203.887 301.766 213.847 301.526 220.807 301.166 228.287 300.486 229.167 301.526 229.647 302.126 230.967 303.846L233.727 301.326C229.847 297.206 228.647 296.086 225.127 293.246L222.527 295.166C224.127 296.486 224.647 296.926 225.767 297.926 223.647 298.086 223.647 298.086 220.407 298.246L215.367 298.486C217.287 297.086 219.687 295.046 221.567 293.286 222.127 292.806 222.127 292.806 222.607 292.326 223.167 291.846 223.607 291.446 223.687 291.366L220.127 289.766C218.767 291.446 216.447 293.646 213.287 296.246 212.007 295.246 211.567 294.926 210.367 294.046 212.327 292.526 214.007 290.926 215.807 288.846h12.84C230.447 288.846 231.647 288.886 233.007 289.046V285.446C231.647 285.606 230.327 285.686 228.567 285.686h-12.12V284.766C216.447 283.846 216.527 283.086 216.687 282.206H212.607C212.767 283.086 212.847 283.846 212.847 284.806V285.686h-11.2C199.927 285.686 198.567 285.606 197.247 285.446V289.046C198.527 288.926 199.927 288.846 201.607 288.846H211.407C210.647 289.846 209.407 291.006 207.767 292.326 206.047 291.166 204.847 290.366 204.127 289.886L201.527 292.126C205.127 294.166 207.287 295.646 209.807 297.686 210.407 298.166 210.407 298.166 210.607 298.326 210.447 298.446 210.367 298.486 210.207 298.606 208.367 298.646 206.527 298.646 205.127 298.686 203.647 298.726 202.767 298.726 202.167 298.726 200.127 298.726 198.007 298.606 196.887 298.486L197.407 302.046zM204.567 303.726C202.607 303.726 201.767 303.686 200.647 303.606 200.807 304.766 200.847 305.726 200.847 307.606V315.366C200.847 316.966 200.767 318.206 200.607 319.446H204.367V317.726h21.24V319.446H229.367C229.207 318.366 229.127 316.966 229.127 315.366V307.606C229.127 305.686 229.167 304.646 229.327 303.606 228.367 303.686 227.247 303.726 225.367 303.726h-20.8zM204.367 306.566H213.127V309.286H204.367V306.566zM204.367 312.046H213.127v2.88H204.367v-2.88zM216.527 306.566H225.607V309.286H216.527V306.566zM216.527 312.046H225.607v2.88H216.527v-2.88z" fill="#0019f7"/><path d="M36.0095 352.57 31.587 353.053C31.4619 352.606 31.243 352.186 30.9303 351.793 30.6265 351.4 30.2155 351.083 29.6973 350.841 29.1791 350.6 28.5448 350.48 27.7943 350.48 26.7847 350.48 25.9359 350.698 25.248 351.136 24.569 351.574 24.2339 352.141 24.2429 352.838 24.2339 353.437 24.4528 353.924 24.8995 354.299 25.3552 354.674 26.1057 354.983 27.151 355.224l3.5113.75C32.61 356.394 34.0574 357.06 35.0044 357.971 35.9604 358.882 36.4429 360.075 36.4518 361.549 36.4429 362.845 36.0631 363.988 35.3126 364.98 34.5711 365.963 33.5392 366.731 32.2169 367.285 30.8946 367.839 29.3757 368.116 27.6603 368.116 25.1408 368.116 23.1126 367.589 21.5759 366.535 20.0392 365.472 19.1234 363.993 18.8286 362.099L23.5594 361.643C23.7738 362.572 24.2295 363.274 24.9263 363.747 25.6232 364.221 26.5301 364.458 27.6469 364.458 28.7994 364.458 29.7241 364.221 30.421 363.747 31.1269 363.274 31.4798 362.688 31.4798 361.992 31.4798 361.402 31.2519 360.915 30.7963 360.531 30.3496 360.147 29.6527 359.852 28.7056 359.646L25.1944 358.909C23.2199 358.498 21.7591 357.806 20.812 356.832 19.865 355.849 19.3959 354.607 19.4048 353.106 19.3959 351.838 19.7399 350.739 20.4368 349.809 21.1426 348.871 22.1209 348.148 23.3717 347.638 24.6315 347.12 26.0834 346.861 27.7273 346.861c2.4123.0 4.3109.51400000000001 5.6957 1.541C34.8168 349.43 35.679 350.819 36.0095 352.57zm4.4427 15.144V347.129h4.637V350.627H45.3304C45.7593 349.448 46.4695 348.527 47.4613 347.866 48.453 347.196 49.6368 346.861 51.0127 346.861 52.4065 346.861 53.5814 347.201 54.5374 347.88 55.5023 348.55 56.1813 349.465 56.5744 350.627H56.7888C57.2445 349.483 58.0129 348.572 59.0939 347.893 60.1839 347.205 61.475 346.861 62.967 346.861 64.8611 346.861 66.4068 347.46 67.604 348.657S69.3998 351.601 69.3998 353.897v13.817H64.535V354.647C64.535 353.37 64.1955 352.436 63.5165 351.847 62.8375 351.248 62.0066 350.949 61.0238 350.949 59.8534 350.949 58.9376 351.315 58.2764 352.048 57.6242 352.771 57.2981 353.714 57.2981 354.875v12.839H52.5405V354.446C52.5405 353.383 52.2189 352.534 51.5756 351.9 50.9412 351.266 50.1103 350.949 49.0829 350.949 48.386 350.949 47.7516 351.127 47.1798 351.485 46.608 351.833 46.1524 352.329 45.8129 352.972 45.4734 353.607 45.3036 354.348 45.3036 355.197v12.517H40.4522zM80.2451 368.13C78.9407 368.13 77.7658 367.897 76.7205 367.433 75.6841 366.959 74.8621 366.262 74.2546 365.342 73.656 364.422 73.3567 363.287 73.3567 361.938 73.3567 360.777 73.5711 359.816 73.9999 359.057 74.4288 358.297 75.014 357.69 75.7556 357.234 76.4971 356.778 77.3325 356.434 78.2617 356.202 79.1998 355.961 80.1692 355.787 81.1698 355.679 82.376 355.554 83.3543 355.443 84.1048 355.344 84.8553 355.237 85.4003 355.076 85.7398 354.862 86.0883 354.639 86.2625 354.295 86.2625 353.83V353.75C86.2625 352.74 85.9632 351.958 85.3646 351.404 84.766 350.85 83.9038 350.573 82.778 350.573 81.5898 350.573 80.6472 350.832 79.9503 351.351 79.2623 351.869 78.7977 352.481 78.5565 353.187L74.0267 352.543C74.3841 351.293 74.9738 350.247 75.7958 349.407 76.6177 348.559 77.6229 347.924 78.8111 347.504 79.9994 347.076 81.3128 346.861 82.7512 346.861 83.743 346.861 84.7302 346.977 85.713 347.21 86.6958 347.442 87.5937 347.826 88.4068 348.362 89.2198 348.889 89.872 349.608 90.3634 350.52 90.8637 351.431 91.1139 352.57 91.1139 353.937v13.777H86.4501V364.886H86.2893C85.9944 365.458 85.579 365.994 85.0429 366.495 84.5158 366.986 83.8502 367.384 83.0461 367.687 82.2509 367.982 81.3173 368.13 80.2451 368.13zM81.5049 364.565C82.4787 364.565 83.323 364.373 84.0378 363.988 84.7526 363.595 85.302 363.077 85.6862 362.434 86.0793 361.791 86.2759 361.089 86.2759 360.33V357.904C86.124 358.029 85.8649 358.145 85.4986 358.253 85.1412 358.36 84.7392 358.454 84.2924 358.534 83.8457 358.614 83.4035 358.686 82.9657 358.748 82.5279 358.811 82.1482 358.865 81.8265 358.909 81.1028 359.007 80.4551 359.168 79.8833 359.392 79.3115 359.615 78.8603 359.928 78.5297 360.33 78.1991 360.723 78.0339 361.232 78.0339 361.858 78.0339 362.751 78.36 363.426 79.0122 363.881 79.6644 364.337 80.4953 364.565 81.5049 364.565zm19.3391-24.298v27.447H95.9921V340.267h4.8519zm9.84.0v27.447h-4.852V340.267h4.852zm20.273 27.863C129.653 368.13 128.478 367.897 127.432 367.433 126.396 366.959 125.574 366.262 124.967 365.342 124.368 364.422 124.069 363.287 124.069 361.938 124.069 360.777 124.283 359.816 124.712 359.057 125.141 358.297 125.726 357.69 126.468 357.234 127.209 356.778 128.044 356.434 128.974 356.202 129.912 355.961 130.881 355.787 131.882 355.679 133.088 355.554 134.066 355.443 134.817 355.344 135.567 355.237 136.112 355.076 136.452 354.862 136.8 354.639 136.974 354.295 136.974 353.83V353.75C136.974 352.74 136.675 351.958 136.077 351.404 135.478 350.85 134.616 350.573 133.49 350.573 132.302 350.573 131.359 350.832 130.662 351.351 129.974 351.869 129.51 352.481 129.268 353.187L124.739 352.543C125.096 351.293 125.686 350.247 126.508 349.407 127.33 348.559 128.335 347.924 129.523 347.504 130.711 347.076 132.025 346.861 133.463 346.861 134.455 346.861 135.442 346.977 136.425 347.21 137.408 347.442 138.306 347.826 139.119 348.362 139.932 348.889 140.584 349.608 141.075 350.52 141.576 351.431 141.826 352.57 141.826 353.937v13.777H137.162V364.886H137.001C136.706 365.458 136.291 365.994 135.755 366.495 135.228 366.986 134.562 367.384 133.758 367.687 132.963 367.982 132.029 368.13 130.957 368.13zM132.217 364.565C133.191 364.565 134.035 364.373 134.75 363.988 135.465 363.595 136.014 363.077 136.398 362.434 136.791 361.791 136.988 361.089 136.988 360.33V357.904C136.836 358.029 136.577 358.145 136.211 358.253 135.853 358.36 135.451 358.454 135.004 358.534 134.558 358.614 134.115 358.686 133.678 358.748 133.24 358.811 132.86 358.865 132.538 358.909 131.815 359.007 131.167 359.168 130.595 359.392 130.023 359.615 129.572 359.928 129.242 360.33 128.911 360.723 128.746 361.232 128.746 361.858 128.746 362.751 129.072 363.426 129.724 363.881 130.376 364.337 131.207 364.565 132.217 364.565zM155.683 368.116C153.628 368.116 151.864 367.665 150.39 366.763 148.924 365.86 147.794 364.614 146.999 363.024 146.213 361.424 145.82 359.584 145.82 357.502 145.82 355.411 146.222 353.566 147.026 351.967 147.83 350.359 148.964 349.108 150.43 348.215 151.904 347.312 153.646 346.861 155.656 346.861 157.327 346.861 158.806 347.169 160.092 347.786 161.388 348.393 162.42 349.256 163.188 350.372 163.956 351.48 164.394 352.776 164.501 354.259h-4.636C159.677 353.267 159.23 352.441 158.524 351.78 157.827 351.109 156.894 350.774 155.723 350.774 154.732 350.774 153.861 351.042 153.11 351.578 152.36 352.106 151.774 352.865 151.354 353.857 150.943 354.848 150.738 356.037 150.738 357.422 150.738 358.824 150.943 360.03 151.354 361.04 151.765 362.041 152.342 362.814 153.083 363.359 153.834 363.895 154.714 364.163 155.723 364.163 156.438 364.163 157.077 364.029 157.64 363.761 158.212 363.484 158.69 363.086 159.074 362.568 159.458 362.05 159.722 361.42 159.865 360.678h4.636C164.385 362.135 163.956 363.426 163.215 364.551 162.473 365.668 161.464 366.544 160.186 367.178 158.909 367.803 157.408 368.116 155.683 368.116zm21.781.0C175.409 368.116 173.645 367.665 172.171 366.763 170.705 365.86 169.575 364.614 168.78 363.024 167.994 361.424 167.601 359.584 167.601 357.502 167.601 355.411 168.003 353.566 168.807 351.967 169.611 350.359 170.746 349.108 172.211 348.215 173.685 347.312 175.427 346.861 177.437 346.861 179.108 346.861 180.587 347.169 181.873 347.786 183.169 348.393 184.201 349.256 184.969 350.372 185.738 351.48 186.175 352.776 186.283 354.259h-4.637C181.458 353.267 181.011 352.441 180.305 351.78 179.609 351.109 178.675 350.774 177.504 350.774 176.513 350.774 175.642 351.042 174.891 351.578 174.141 352.106 173.555 352.865 173.136 353.857 172.725 354.848 172.519 356.037 172.519 357.422 172.519 358.824 172.725 360.03 173.136 361.04 173.547 362.041 174.123 362.814 174.864 363.359 175.615 363.895 176.495 364.163 177.504 364.163 178.219 364.163 178.858 364.029 179.421 363.761 179.993 363.484 180.471 363.086 180.855 362.568 181.239 362.05 181.503 361.42 181.646 360.678h4.637C186.166 362.135 185.738 363.426 184.996 364.551 184.254 365.668 183.245 366.544 181.967 367.178 180.69 367.803 179.189 368.116 177.464 368.116zM203.386 359.057V347.129h4.852v20.585H203.534V364.055H203.319C202.855 365.208 202.091 366.151 201.028 366.883 199.974 367.616 198.674 367.982 197.128 367.982 195.779 367.982 194.586 367.683 193.55 367.084 192.522 366.477 191.718 365.597 191.137 364.444 190.557 363.283 190.266 361.88 190.266 360.236V347.129h4.852v12.356C195.118 360.79 195.475 361.826 196.19 362.595 196.905 363.363 197.843 363.747 199.004 363.747 199.719 363.747 200.411 363.573 201.081 363.225 201.751 362.876 202.301 362.358 202.73 361.67 203.168 360.973 203.386 360.102 203.386 359.057zM213.227 367.714V347.129h4.637V350.627H218.105C218.534 349.448 219.244 348.527 220.236 347.866 221.227 347.196 222.411 346.861 223.787 346.861 225.181 346.861 226.356 347.201 227.312 347.88 228.277 348.55 228.956 349.465 229.349 350.627H229.563C230.019 349.483 230.787 348.572 231.868 347.893 232.958 347.205 234.249 346.861 235.741 346.861 237.636 346.861 239.181 347.46 240.378 348.657 241.576 349.854 242.174 351.601 242.174 353.897v13.817H237.309V354.647C237.309 353.37 236.97 352.436 236.291 351.847 235.612 351.248 234.781 350.949 233.798 350.949 232.628 350.949 231.712 351.315 231.051 352.048 230.399 352.771 230.073 353.714 230.073 354.875v12.839H225.315V354.446C225.315 353.383 224.993 352.534 224.35 351.9 223.716 351.266 222.885 350.949 221.857 350.949 221.16 350.949 220.526 351.127 219.954 351.485 219.382 351.833 218.927 352.329 218.587 352.972 218.248 353.607 218.078 354.348 218.078 355.197v12.517h-4.851zM260.216 359.057V347.129H265.068v20.585H260.364V364.055H260.149C259.685 365.208 258.921 366.151 257.858 366.883 256.803 367.616 255.503 367.982 253.958 367.982 252.609 367.982 251.416 367.683 250.379 367.084 249.352 366.477 248.548 365.597 247.967 364.444 247.386 363.283 247.096 361.88 247.096 360.236V347.129h4.851v12.356C251.947 360.79 252.305 361.826 253.02 362.595 253.734 363.363 254.672 363.747 255.834 363.747 256.549 363.747 257.241 363.573 257.911 363.225 258.581 362.876 259.131 362.358 259.56 361.67 259.997 360.973 260.216 360.102 260.216 359.057zm14.692-18.79v27.447H270.056V340.267H274.908zM285.82 368.13C284.516 368.13 283.341 367.897 282.296 367.433 281.259 366.959 280.437 366.262 279.83 365.342 279.231 364.422 278.932 363.287 278.932 361.938 278.932 360.777 279.146 359.816 279.575 359.057 280.004 358.297 280.589 357.69 281.331 357.234 282.072 356.778 282.908 356.434 283.837 356.202 284.775 355.961 285.744 355.787 286.745 355.679 287.951 355.554 288.929 355.443 289.68 355.344 290.43 355.237 290.975 355.076 291.315 354.862 291.663 354.639 291.838 354.295 291.838 353.83V353.75C291.838 352.74 291.538 351.958 290.94 351.404 290.341 350.85 289.479 350.573 288.353 350.573 287.165 350.573 286.222 350.832 285.525 351.351 284.837 351.869 284.373 352.481 284.132 353.187L279.602 352.543C279.959 351.293 280.549 350.247 281.371 349.407 282.193 348.559 283.198 347.924 284.386 347.504 285.574 347.076 286.888 346.861 288.326 346.861 289.318 346.861 290.305 346.977 291.288 347.21 292.271 347.442 293.169 347.826 293.982 348.362 294.795 348.889 295.447 349.608 295.938 350.52 296.439 351.431 296.689 352.57 296.689 353.937v13.777H292.025V364.886H291.864C291.57 365.458 291.154 365.994 290.618 366.495 290.091 366.986 289.425 367.384 288.621 367.687 287.826 367.982 286.892 368.13 285.82 368.13zM287.08 364.565C288.054 364.565 288.898 364.373 289.613 363.988 290.328 363.595 290.877 363.077 291.261 362.434 291.654 361.791 291.851 361.089 291.851 360.33V357.904C291.699 358.029 291.44 358.145 291.074 358.253 290.716 358.36 290.314 358.454 289.867 358.534 289.421 358.614 288.979 358.686 288.541 358.748 288.103 358.811 287.723 358.865 287.402 358.909 286.678 359.007 286.03 359.168 285.458 359.392 284.887 359.615 284.435 359.928 284.105 360.33 283.774 360.723 283.609 361.232 283.609 361.858 283.609 362.751 283.935 363.426 284.587 363.881 285.239 364.337 286.07 364.565 287.08 364.565zm24.766-17.436V350.882H300.013V347.129h11.833zM302.934 342.197H307.786v19.326C307.786 362.175 307.884 362.675 308.08 363.024 308.286 363.363 308.554 363.595 308.884 363.72 309.215 363.845 309.581 363.908 309.983 363.908 310.287 363.908 310.564 363.886 310.814 363.841 311.073 363.796 311.27 363.756 311.404 363.72L312.222 367.513C311.962 367.602 311.592 367.701 311.109 367.808 310.636 367.915 310.055 367.978 309.367 367.996 308.152 368.031 307.057 367.848 306.084 367.446 305.11 367.035 304.337 366.401 303.765 365.543 303.202 364.685 302.925 363.613 302.934 362.327v-20.13zm12.97 25.517V347.129h4.851v20.585h-4.851zM318.343 344.208C317.574 344.208 316.913 343.953 316.359 343.444 315.805 342.925 315.528 342.305 315.528 341.581 315.528 340.848 315.805 340.227 316.359 339.718 316.913 339.2 317.574 338.941 318.343 338.941 319.12 338.941 319.781 339.2 320.326 339.718 320.88 340.227 321.157 340.848 321.157 341.581 321.157 342.305 320.88 342.925 320.326 343.444 319.781 343.953 319.12 344.208 318.343 344.208zm12.252 11.445v12.061h-4.851V347.129H330.381V350.627H330.622C331.096 349.474 331.851 348.559 332.887 347.88 333.932 347.201 335.223 346.861 336.76 346.861 338.181 346.861 339.418 347.165 340.472 347.772 341.535 348.38 342.357 349.26 342.938 350.413 343.528 351.565 343.818 352.963 343.809 354.607v13.107h-4.851V355.358C338.958 353.982 338.6 352.905 337.886 352.128 337.18 351.351 336.202 350.962 334.951 350.962 334.102 350.962 333.347 351.15 332.686 351.525 332.034 351.891 331.52 352.423 331.145 353.12 330.778 353.817 330.595 354.661 330.595 355.653zm27.098 20.209C355.951 375.862 354.455 375.626 353.204 375.152 351.953 374.687 350.948 374.062 350.188 373.276 349.429 372.49 348.902 371.618 348.607 370.662L352.976 369.604C353.173 370.006 353.458 370.403 353.834 370.796 354.209 371.199 354.714 371.529 355.348 371.788 355.991 372.056 356.8 372.19 357.774 372.19 359.15 372.19 360.289 371.855 361.191 371.185 362.094 370.524 362.545 369.434 362.545 367.915V364.015H362.304C362.053 364.516 361.687 365.029 361.205 365.556 360.731 366.084 360.101 366.526 359.315 366.883 358.538 367.241 357.559 367.419 356.38 367.419 354.799 367.419 353.365 367.048 352.078 366.307 350.8 365.556 349.782 364.44 349.022 362.957 348.272 361.464 347.897 359.597 347.897 357.355 347.897 355.094 348.272 353.187 349.022 351.632 349.782 350.069 350.805 348.885 352.091 348.081 353.378 347.268 354.812 346.861 356.393 346.861 357.6 346.861 358.591 347.067 359.369 347.478 360.155 347.88 360.78 348.367 361.245 348.938 361.709 349.501 362.062 350.033 362.304 350.533H362.572v-3.404H367.356v20.92C367.356 369.809 366.936 371.266 366.096 372.418 365.256 373.571 364.108 374.433 362.652 375.005 361.196 375.576 359.543 375.862 357.693 375.862zM357.734 363.613C358.761 363.613 359.637 363.363 360.36 362.863 361.084 362.362 361.633 361.643 362.009 360.705 362.384 359.767 362.572 358.641 362.572 357.328 362.572 356.032 362.384 354.898 362.009 353.924 361.642 352.95 361.097 352.195 360.374 351.659 359.659 351.114 358.779 350.841 357.734 350.841 356.653 350.841 355.75 351.123 355.026 351.686 354.303 352.249 353.758 353.021 353.391 354.004 353.025 354.978 352.842 356.086 352.842 357.328 352.842 358.588 353.025 359.691 353.391 360.638 353.767 361.576 354.316 362.309 355.04 362.836 355.772 363.354 356.67 363.613 357.734 363.613z" fill="#0019f7"/><path d="M88.0745 1375.04H165.539V1355.92H88.0745V1375.04zm132.8315.0h77.465V1355.92H220.906V1375.04zM88.0745 1413.27H165.539V1394.15H88.0745V1413.27zm132.8315.0h77.465V1394.15H220.906V1413.27zM88.0745 1451.51H165.539V1432.39H88.0745V1451.51zm132.8315.0h77.465V1432.39H220.906V1451.51zM88.0745 1489.74H298.371V1470.63H88.0745V1489.74zm0 38.24H165.539V1508.86H88.0745V1527.98zm132.8315.0h77.465V1508.86H220.906V1527.98zM88.0745 1566.22H298.371V1547.1H88.0745V1566.22z" fill="#0019f7"/><path d="M187.254 1642.58V1650.22C187.254 1651.22 186.974 1651.46 185.814 1651.46 184.574 1651.46 182.934 1651.3 181.294 1651.06 181.814 1652.3 182.054 1653.26 182.214 1654.82 183.574 1654.9 184.894 1654.94 185.934 1654.94 189.694 1654.94 190.854 1653.98 190.854 1650.9V1624.78C190.854 1622.74 190.894 1621.54 191.014 1620.58 189.934 1620.7 188.934 1620.74 186.894 1620.74H178.254C176.334 1620.74 175.334 1620.7 174.054 1620.58 174.214 1621.82 174.294 1624.54 174.294 1627.98 174.294 1636.26 174.054 1639.74 173.254 1643.14 172.294 1647.38 170.414 1650.26 166.894 1652.98 168.174 1653.82 168.894 1654.46 169.814 1655.66 172.254 1653.5 173.494 1651.94 174.734 1649.42 175.774 1647.38 176.534 1645.06 176.974 1642.58h10.28zM187.254 1633.06V1639.34h-9.84C177.614 1637.18 177.694 1635.58 177.774 1633.06H187.254zM187.254 1629.94H177.854c0-.200000000000045.0-.519999999999982.0-1V1624.02H187.254V1629.94zm-29.72 13.8C157.534 1645.58 157.454 1647.02 157.294 1648.26h3.72v-3H167.494V1647.02H170.974C170.894 1646.1 170.894 1645.34 170.894 1642.98v-17.72C170.894 1623.22 170.934 1622.58 171.014 1621.54 169.974 1621.62 169.254 1621.66 167.494 1621.66H161.974C159.454 1621.66 158.614 1621.62 157.374 1621.54 157.494 1622.74 157.534 1623.7 157.534 1625.54v18.2zM160.974 1624.9H167.494V1631.54H160.974V1624.9zM160.974 1634.66H167.494V1642.06H160.974V1634.66zM227.014 1642.42C226.974 1642.66 226.934 1642.86 226.934 1642.98 226.934 1643.14 226.894 1643.3 226.854 1643.46 226.814 1643.94 226.694 1644.3 226.574 1644.62 226.374 1645.1 225.934 1645.3 225.094 1645.3 224.374 1645.3 222.774 1645.14 221.934 1645.02 222.334 1646.06 222.534 1646.82 222.694 1648.02 223.614 1648.1 224.094 1648.1 225.054 1648.1 227.894 1648.1 228.974 1647.62 229.534 1646.1 229.934 1645.1 230.374 1642.86 230.654 1640.38 230.734 1639.78 230.734 1639.78 230.774 1639.42 230.174 1639.5 229.374 1639.54 227.534 1639.54h-12.76C215.014 1638.46 215.094 1638.02 215.254 1636.46H224.654C226.294 1636.46 227.414 1636.5 228.494 1636.58 228.374 1635.82 228.374 1635.3 228.374 1633.74V1630.26C228.374 1628.94 228.414 1628.26 228.494 1627.46 227.614 1627.58 226.774 1627.62 224.694 1627.62h-9L215.734 1626.82V1624.94h12.28C229.654 1624.94 230.774 1624.98 232.094 1625.14V1621.7C230.854 1621.9 229.974 1621.94 228.054 1621.94h-12.32C215.774 1620.38 215.774 1619.9 215.934 1618.9H211.974C212.174 1620.06 212.214 1620.74 212.214 1621.94h-11.88C198.374 1621.94 197.494 1621.9 196.214 1621.7V1625.14C197.494 1624.98 198.614 1624.94 200.254 1624.94h11.96V1627.62H202.814C201.134 1627.62 199.854 1627.58 198.774 1627.46V1630.66C199.934 1630.54 201.174 1630.5 202.654 1630.5H212.174C212.134 1631.94 212.094 1632.18 212.014 1633.58H203.494C202.094 1633.58 201.054 1633.54 200.014 1633.46 199.974 1634.42 199.734 1635.9 199.254 1637.82 198.734 1639.98 198.174 1641.66 197.214 1643.86L200.934 1644.18C201.254 1643.34 201.374 1642.98 201.574 1642.42h8.72C208.054 1647.26 203.974 1650.02 195.894 1651.98 196.934 1653.22 197.334 1653.86 198.054 1655.5 201.934 1654.38 204.854 1652.98 207.414 1651.14 210.174 1649.14 211.774 1647.22 213.174 1644.26 215.014 1647.46 216.974 1649.5 220.014 1651.46 222.974 1653.34 225.614 1654.38 230.254 1655.46 230.894 1653.98 231.334 1653.18 232.174 1651.9 228.174 1651.34 225.774 1650.66 223.014 1649.26 219.654 1647.54 217.414 1645.42 215.694 1642.42h11.32zM202.454 1639.54C202.614 1638.82 202.614 1638.82 203.214 1636.46h8.56C211.574 1638.02 211.494 1638.5 211.254 1639.54H202.454zM224.934 1630.5V1633.58H215.534C215.614 1631.86 215.614 1631.78 215.654 1630.5h9.28z" fill="#0019f7"/><path d="M8.72957 1704.29C7.11243 1704.29 5.66505 1703.88 4.38743 1703.04 3.1098 1702.21 2.10021 1701.01 1.35865 1699.43.617087 1697.84.246307 1695.92.246307 1693.66.246307 1691.38.621554 1689.45 1.37205 1687.87 2.13148 1686.29 3.15447 1685.1 4.44103 1684.3 5.72759 1683.48 7.16157 1683.08 8.74297 1683.08 9.94912 1683.08 10.9408 1683.28 11.7181 1683.69 12.4954 1684.09 13.1119 1684.58 13.5676 1685.15 14.0232 1685.72 14.3761 1686.25 14.6263 1686.75H14.8273v-10.27h4.8648v27.45h-4.771V1700.69H14.6263C14.3761 1701.19 14.0143 1701.72 13.5408 1702.28 13.0672 1702.83 12.4418 1703.31 11.6645 1703.7 10.8872 1704.09 9.90892 1704.29 8.72957 1704.29zM10.0831 1700.31C11.1106 1700.31 11.9862 1700.03 12.7099 1699.48 13.4336 1698.92 13.983 1698.14 14.3583 1697.13 14.7335 1696.13 14.9211 1694.97 14.9211 1693.64 14.9211 1692.31 14.7335 1691.15 14.3583 1690.17 13.992 1689.18 13.447 1688.42 12.7233 1687.87 12.0085 1687.33 11.1285 1687.06 10.0831 1687.06 9.00207 1687.06 8.09969 1687.34 7.376 1687.9 6.65231 1688.46 6.10731 1689.24 5.741 1690.23 5.37468 1691.22 5.19153 1692.36 5.19153 1693.64 5.19153 1694.92 5.37468 1696.07 5.741 1697.08 6.11624 1698.08 6.66571 1698.87 7.3894 1699.45 8.12203 1700.02 9.01994 1700.31 10.0831 1700.31zM30.7854 1704.34C29.481 1704.34 28.3061 1704.11 27.2607 1703.65 26.2243 1703.17 25.4024 1702.48 24.7948 1701.56 24.1962 1700.64 23.8969 1699.5 23.8969 1698.15 23.8969 1696.99 24.1113 1696.03 24.5402 1695.27 24.9691 1694.51 25.5543 1693.9 26.2958 1693.45 27.0374 1692.99 27.8728 1692.65 28.8019 1692.42 29.7401 1692.18 30.7094 1692 31.7101 1691.89 32.9163 1691.77 33.8946 1691.66 34.6451 1691.56 35.3956 1691.45 35.9406 1691.29 36.2801 1691.08 36.6285 1690.85 36.8027 1690.51 36.8027 1690.05V1689.96C36.8027 1688.96 36.5034 1688.17 35.9048 1687.62 35.3062 1687.07 34.444 1686.79 33.3183 1686.79 32.13 1686.79 31.1874 1687.05 30.4905 1687.57 29.8026 1688.08 29.338 1688.7 29.0968 1689.4L24.567 1688.76C24.9244 1687.51 25.5141 1686.46 26.336 1685.62 27.158 1684.77 28.1631 1684.14 29.3514 1683.72 30.5397 1683.29 31.8531 1683.08 33.2915 1683.08 34.2832 1683.08 35.2705 1683.19 36.2533 1683.42 37.2361 1683.66 38.134 1684.04 38.947 1684.58 39.76 1685.1 40.4123 1685.82 40.9037 1686.73 41.404 1687.65 41.6542 1688.79 41.6542 1690.15v13.78H36.9904V1701.1H36.8295C36.5347 1701.67 36.1193 1702.21 35.5832 1702.71 35.0561 1703.2 34.3904 1703.6 33.5863 1703.9 32.7912 1704.2 31.8575 1704.34 30.7854 1704.34zM32.0451 1700.78C33.019 1700.78 33.8633 1700.59 34.5781 1700.2 35.2928 1699.81 35.8423 1699.29 36.2265 1698.65 36.6196 1698.01 36.8161 1697.3 36.8161 1696.54V1694.12C36.6643 1694.24 36.4052 1694.36 36.0388 1694.47 35.6815 1694.57 35.2794 1694.67 34.8327 1694.75S33.9437 1694.9 33.5059 1694.96C33.0681 1695.03 32.6884 1695.08 32.3668 1695.12 31.6431 1695.22 30.9953 1695.38 30.4235 1695.61 29.8517 1695.83 29.4005 1696.14 29.07 1696.54 28.7394 1696.94 28.5741 1697.45 28.5741 1698.07 28.5741 1698.97 28.9002 1699.64 29.5524 1700.1 30.2046 1700.55 31.0356 1700.78 32.0451 1700.78zM46.5324 1703.93V1683.34h4.704V1686.78H51.4508C51.826 1685.59 52.4693 1684.67 53.3806 1684.03 54.3009 1683.38 55.3507 1683.05 56.53 1683.05 56.7981 1683.05 57.0974 1683.06 57.4279 1683.09 57.7674 1683.11 58.0489 1683.14 58.2722 1683.18V1687.65C58.0667 1687.57 57.7406 1687.51 57.2939 1687.46 56.8561 1687.4 56.4317 1687.36 56.0208 1687.36 55.1362 1687.36 54.3411 1687.56 53.6353 1687.94 52.9384 1688.32 52.3889 1688.84 51.9868 1689.51 51.5848 1690.18 51.3838 1690.95 51.3838 1691.83V1703.93H46.5324zM65.9179 1697.47 65.9045 1691.61H66.6818L74.0795 1683.34H79.7484L70.6487 1693.48H69.6436L65.9179 1697.47zM61.4953 1703.93v-27.45h4.8514v27.45H61.4953zm12.9193.0L67.7137 1694.56 70.9837 1691.14l9.2338 12.79H74.4146zM91.2471 1704.33C89.1832 1704.33 87.4008 1703.9 85.8998 1703.04 84.4077 1702.18 83.2597 1700.95 82.4556 1699.37 81.6515 1697.78 81.2494 1695.91 81.2494 1693.76 81.2494 1691.64 81.6515 1689.78 82.4556 1688.18 83.2686 1686.57 84.4033 1685.32 85.8596 1684.43 87.3159 1683.53 89.0269 1683.08 90.9924 1683.08 92.2611 1683.08 93.4583 1683.28 94.5841 1683.69 95.7188 1684.09 96.7194 1684.72 97.5861 1685.57 98.4616 1686.42 99.1496 1687.5 99.6499 1688.81 100.15 1690.12 100.4 1691.67 100.4 1693.48V1694.96H83.5277V1691.69H95.75C95.7411 1690.76 95.5401 1689.94 95.147 1689.21 94.7538 1688.48 94.2044 1687.91 93.4985 1687.49 92.8017 1687.07 91.9886 1686.86 91.0594 1686.86 90.0677 1686.86 89.1966 1687.1 88.4461 1687.58 87.6956 1688.05 87.1104 1688.68 86.6905 1689.46 86.2795 1690.22 86.0696 1691.07 86.0606 1691.99V1694.84C86.0606 1696.04 86.2795 1697.07 86.7173 1697.93 87.1551 1698.77 87.7671 1699.43 88.5533 1699.88 89.3396 1700.33 90.2598 1700.55 91.3141 1700.55 92.0199 1700.55 92.6587 1700.45 93.2305 1700.26 93.8023 1700.05 94.2982 1699.75 94.7181 1699.36 95.138 1698.97 95.4552 1698.48 95.6696 1697.9L100.199 1698.41C99.9135 1699.6 99.3685 1700.65 98.5644 1701.54 97.7692 1702.43 96.7507 1703.12 95.5088 1703.61 94.2669 1704.09 92.8463 1704.33 91.2471 1704.33zm18.1089-12.46V1703.93h-4.851V1683.34h4.637v3.5h.241C109.856 1685.69 110.611 1684.77 111.648 1684.09 112.693 1683.42 113.984 1683.08 115.521 1683.08 116.941 1683.08 118.179 1683.38 119.233 1683.99 120.296 1684.6 121.118 1685.48 121.699 1686.63 122.289 1687.78 122.579 1689.18 122.57 1690.82V1703.93h-4.851V1691.57C117.719 1690.2 117.361 1689.12 116.647 1688.34 115.941 1687.57 114.962 1687.18 113.712 1687.18 112.863 1687.18 112.108 1687.36 111.447 1687.74 110.795 1688.11 110.281 1688.64 109.906 1689.33 109.539 1690.03 109.356 1690.88 109.356 1691.87zM127.502 1703.93V1683.34H132.353V1703.93H127.502zM129.941 1680.42C129.173 1680.42 128.512 1680.17 127.958 1679.66 127.404 1679.14 127.127 1678.52 127.127 1677.8 127.127 1677.06 127.404 1676.44 127.958 1675.93 128.512 1675.41 129.173 1675.16 129.941 1675.16 130.718 1675.16 131.38 1675.41 131.925 1675.93 132.478 1676.44 132.755 1677.06 132.755 1677.8 132.755 1678.52 132.478 1679.14 131.925 1679.66 131.38 1680.17 130.718 1680.42 129.941 1680.42zM142.194 1691.87V1703.93H137.342V1683.34h4.637v3.5H142.22C142.694 1685.69 143.449 1684.77 144.485 1684.09 145.531 1683.42 146.822 1683.08 148.358 1683.08 149.779 1683.08 151.016 1683.38 152.071 1683.99 153.134 1684.6 153.956 1685.48 154.537 1686.63 155.126 1687.78 155.417 1689.18 155.408 1690.82V1703.93H150.556V1691.57C150.556 1690.2 150.199 1689.12 149.484 1688.34 148.778 1687.57 147.8 1687.18 146.549 1687.18 145.7 1687.18 144.945 1687.36 144.284 1687.74 143.632 1688.11 143.118 1688.64 142.743 1689.33 142.377 1690.03 142.194 1690.88 142.194 1691.87zm27.098 20.21C167.55 1712.08 166.053 1711.84 164.802 1711.37 163.551 1710.9 162.546 1710.28 161.787 1709.49 161.027 1708.7 160.5 1707.83 160.205 1706.88L164.574 1705.82C164.771 1706.22 165.057 1706.62 165.432 1707.01 165.807 1707.41 166.312 1707.74 166.946 1708 167.59 1708.27 168.398 1708.41 169.372 1708.41 170.748 1708.41 171.887 1708.07 172.79 1707.4 173.692 1706.74 174.143 1705.65 174.143 1704.13V1700.23H173.902C173.652 1700.73 173.285 1701.24 172.803 1701.77 172.329 1702.3 171.7 1702.74 170.913 1703.1 170.136 1703.46 169.158 1703.63 167.978 1703.63 166.397 1703.63 164.963 1703.26 163.676 1702.52 162.399 1701.77 161.38 1700.65 160.621 1699.17 159.87 1697.68 159.495 1695.81 159.495 1693.57 159.495 1691.31 159.87 1689.4 160.621 1687.85 161.38 1686.28 162.403 1685.1 163.69 1684.3 164.976 1683.48 166.41 1683.08 167.992 1683.08 169.198 1683.08 170.19 1683.28 170.967 1683.69 171.753 1684.09 172.379 1684.58 172.843 1685.15 173.308 1685.72 173.661 1686.25 173.902 1686.75H174.17V1683.34H178.954V1704.26C178.954 1706.02 178.534 1707.48 177.695 1708.63 176.855 1709.79 175.707 1710.65 174.25 1711.22 172.794 1711.79 171.141 1712.08 169.292 1712.08zM169.332 1699.83C170.359 1699.83 171.235 1699.58 171.959 1699.08 172.682 1698.58 173.232 1697.86 173.607 1696.92 173.982 1695.98 174.17 1694.86 174.17 1693.54 174.17 1692.25 173.982 1691.11 173.607 1690.14 173.241 1689.17 172.696 1688.41 171.972 1687.87 171.257 1687.33 170.377 1687.06 169.332 1687.06 168.251 1687.06 167.349 1687.34 166.625 1687.9 165.901 1688.46 165.356 1689.24 164.99 1690.22 164.624 1691.19 164.44 1692.3 164.44 1693.54 164.44 1694.8 164.624 1695.91 164.99 1696.85 165.365 1697.79 165.915 1698.52 166.638 1699.05 167.371 1699.57 168.269 1699.83 169.332 1699.83zm32.935 4.5C200.256 1704.33 198.514 1703.89 197.04 1703 195.566 1702.12 194.422 1700.88 193.609 1699.29 192.805 1697.7 192.403 1695.84 192.403 1693.72 192.403 1691.59 192.805 1689.73 193.609 1688.13 194.422 1686.53 195.566 1685.29 197.04 1684.4 198.514 1683.52 200.256 1683.08 202.267 1683.08 204.277 1683.08 206.019 1683.52 207.493 1684.4 208.967 1685.29 210.107 1686.53 210.911 1688.13 211.724 1689.73 212.13 1691.59 212.13 1693.72 212.13 1695.84 211.724 1697.7 210.911 1699.29 210.107 1700.88 208.967 1702.12 207.493 1703 206.019 1703.89 204.277 1704.33 202.267 1704.33zM202.293 1700.44C203.383 1700.44 204.295 1700.15 205.027 1699.55 205.76 1698.94 206.305 1698.13 206.662 1697.11 207.029 1696.09 207.212 1694.95 207.212 1693.7 207.212 1692.44 207.029 1691.3 206.662 1690.29 206.305 1689.26 205.76 1688.44 205.027 1687.83 204.295 1687.23 203.383 1686.92 202.293 1686.92 201.177 1686.92 200.247 1687.23 199.506 1687.83 198.773 1688.44 198.224 1689.26 197.857 1690.29 197.5 1691.3 197.321 1692.44 197.321 1693.7 197.321 1694.95 197.5 1696.09 197.857 1697.11 198.224 1698.13 198.773 1698.94 199.506 1699.55 200.247 1700.15 201.177 1700.44 202.293 1700.44zM226.674 1683.34V1687.1H214.506V1683.34h12.168zM217.548 1703.93V1681.4C217.548 1680.02 217.834 1678.86 218.406 1677.94 218.986 1677.02 219.764 1676.34 220.737 1675.88 221.711 1675.42 222.792 1675.2 223.981 1675.2 224.82 1675.2 225.567 1675.26 226.219 1675.4 226.871 1675.53 227.353 1675.65 227.666 1675.76L226.701 1679.51C226.496 1679.45 226.237 1679.39 225.924 1679.32 225.611 1679.25 225.263 1679.22 224.879 1679.22 223.976 1679.22 223.337 1679.44 222.962 1679.87 222.596 1680.3 222.413 1680.92 222.413 1681.72v22.21H217.548zM250.114 1683.34V1687.1H238.28V1683.34h11.834zM241.202 1678.41h4.851V1697.74C246.053 1698.39 246.152 1698.89 246.348 1699.24 246.554 1699.58 246.822 1699.81 247.152 1699.94 247.483 1700.06 247.849 1700.12 248.251 1700.12 248.555 1700.12 248.832 1700.1 249.082 1700.06 249.341 1700.01 249.538 1699.97 249.672 1699.94L250.489 1703.73C250.23 1703.82 249.859 1703.92 249.377 1704.02 248.903 1704.13 248.323 1704.19 247.635 1704.21 246.42 1704.25 245.325 1704.06 244.351 1703.66 243.377 1703.25 242.605 1702.62 242.033 1701.76 241.47 1700.9 241.193 1699.83 241.202 1698.54V1678.41zM259.465 1691.87V1703.93H254.614v-27.45h4.744V1686.84H259.599C260.081 1685.68 260.827 1684.76 261.837 1684.09 262.856 1683.42 264.151 1683.08 265.724 1683.08 267.153 1683.08 268.399 1683.38 269.463 1683.97 270.526 1684.57 271.348 1685.45 271.929 1686.6 272.518 1687.75 272.813 1689.16 272.813 1690.82V1703.93h-4.851V1691.57C267.962 1690.19 267.604 1689.11 266.889 1688.34 266.184 1687.57 265.192 1687.18 263.914 1687.18 263.057 1687.18 262.288 1687.36 261.609 1687.74 260.939 1688.11 260.412 1688.64 260.028 1689.33 259.653 1690.03 259.465 1690.88 259.465 1691.87zm27.406 12.46C284.808 1704.33 283.025 1703.9 281.524 1703.04 280.032 1702.18 278.884 1700.95 278.08 1699.37 277.276 1697.78 276.874 1695.91 276.874 1693.76 276.874 1691.64 277.276 1689.78 278.08 1688.18 278.893 1686.57 280.028 1685.32 281.484 1684.43 282.94 1683.53 284.651 1683.08 286.617 1683.08 287.885 1683.08 289.083 1683.28 290.208 1683.69 291.343 1684.09 292.344 1684.72 293.21 1685.57 294.086 1686.42 294.774 1687.5 295.274 1688.81 295.775 1690.12 296.025 1691.67 296.025 1693.48V1694.96H279.152V1691.69h12.222C291.365 1690.76 291.164 1689.94 290.771 1689.21 290.378 1688.48 289.829 1687.91 289.123 1687.49 288.426 1687.07 287.613 1686.86 286.684 1686.86 285.692 1686.86 284.821 1687.1 284.07 1687.58 283.32 1688.05 282.735 1688.68 282.315 1689.46 281.904 1690.22 281.694 1691.07 281.685 1691.99V1694.84C281.685 1696.04 281.904 1697.07 282.342 1697.93 282.779 1698.77 283.391 1699.43 284.178 1699.88 284.964 1700.33 285.884 1700.55 286.938 1700.55 287.644 1700.55 288.283 1700.45 288.855 1700.26 289.427 1700.05 289.923 1699.75 290.342 1699.36 290.762 1698.97 291.08 1698.48 291.294 1697.9L295.824 1698.41C295.538 1699.6 294.993 1700.65 294.189 1701.54 293.394 1702.43 292.375 1703.12 291.133 1703.61 289.891 1704.09 288.471 1704.33 286.871 1704.33zM314.341 1676.48v27.45H309.49v-27.45h4.851zM319.33 1703.93V1683.34H324.182V1703.93H319.33zM321.769 1680.42C321.001 1680.42 320.34 1680.17 319.786 1679.66 319.232 1679.14 318.955 1678.52 318.955 1677.8 318.955 1677.06 319.232 1676.44 319.786 1675.93 320.34 1675.41 321.001 1675.16 321.769 1675.16 322.547 1675.16 323.208 1675.41 323.753 1675.93 324.307 1676.44 324.584 1677.06 324.584 1677.8 324.584 1678.52 324.307 1679.14 323.753 1679.66 323.208 1680.17 322.547 1680.42 321.769 1680.42zM338.123 1712.08C336.381 1712.08 334.884 1711.84 333.633 1711.37 332.382 1710.9 331.377 1710.28 330.618 1709.49 329.858 1708.7 329.331 1707.83 329.036 1706.88L333.405 1705.82C333.602 1706.22 333.888 1706.62 334.263 1707.01 334.638 1707.41 335.143 1707.74 335.777 1708 336.421 1708.27 337.229 1708.41 338.203 1708.41 339.579 1708.41 340.718 1708.07 341.621 1707.4 342.523 1706.74 342.974 1705.65 342.974 1704.13V1700.23H342.733C342.483 1700.73 342.116 1701.24 341.634 1701.77 341.16 1702.3 340.531 1702.74 339.744 1703.1 338.967 1703.46 337.989 1703.63 336.809 1703.63 335.228 1703.63 333.794 1703.26 332.507 1702.52 331.23 1701.77 330.211 1700.65 329.452 1699.17 328.701 1697.68 328.326 1695.81 328.326 1693.57 328.326 1691.31 328.701 1689.4 329.452 1687.85 330.211 1686.28 331.234 1685.1 332.521 1684.3 333.807 1683.48 335.241 1683.08 336.823 1683.08 338.029 1683.08 339.021 1683.28 339.798 1683.69 340.584 1684.09 341.21 1684.58 341.674 1685.15 342.139 1685.72 342.492 1686.25 342.733 1686.75H343.001V1683.34H347.785V1704.26C347.785 1706.02 347.365 1707.48 346.526 1708.63 345.686 1709.79 344.538 1710.65 343.081 1711.22 341.625 1711.79 339.972 1712.08 338.123 1712.08zM338.163 1699.83C339.19 1699.83 340.066 1699.58 340.79 1699.08 341.513 1698.58 342.063 1697.86 342.438 1696.92 342.813 1695.98 343.001 1694.86 343.001 1693.54 343.001 1692.25 342.813 1691.11 342.438 1690.14 342.072 1689.17 341.527 1688.41 340.803 1687.87 340.088 1687.33 339.208 1687.06 338.163 1687.06 337.082 1687.06 336.18 1687.34 335.456 1687.9 334.732 1688.46 334.187 1689.24 333.821 1690.22 333.455 1691.19 333.271 1692.3 333.271 1693.54 333.271 1694.8 333.455 1695.91 333.821 1696.85 334.196 1697.79 334.746 1698.52 335.469 1699.05 336.202 1699.57 337.1 1699.83 338.163 1699.83zM357.609 1691.87V1703.93H352.757v-27.45h4.745V1686.84H357.743C358.225 1685.68 358.971 1684.76 359.981 1684.09 360.999 1683.42 362.295 1683.08 363.867 1683.08 365.297 1683.08 366.543 1683.38 367.606 1683.97 368.67 1684.57 369.492 1685.45 370.072 1686.6 370.662 1687.75 370.957 1689.16 370.957 1690.82V1703.93H366.105V1691.57C366.105 1690.19 365.748 1689.11 365.033 1688.34 364.328 1687.57 363.336 1687.18 362.058 1687.18 361.2 1687.18 360.432 1687.36 359.753 1687.74 359.083 1688.11 358.556 1688.64 358.172 1689.33 357.796 1690.03 357.609 1690.88 357.609 1691.87zM386.181 1683.34V1687.1H374.348V1683.34h11.833zM377.269 1678.41h4.851V1697.74C382.12 1698.39 382.219 1698.89 382.415 1699.24 382.621 1699.58 382.889 1699.81 383.219 1699.94 383.55 1700.06 383.916 1700.12 384.318 1700.12 384.622 1700.12 384.899 1700.1 385.149 1700.06 385.408 1700.01 385.605 1699.97 385.739 1699.94L386.556 1703.73C386.297 1703.82 385.927 1703.92 385.444 1704.02 384.971 1704.13 384.39 1704.19 383.702 1704.21 382.487 1704.25 381.392 1704.06 380.418 1703.66 379.445 1703.25 378.672 1702.62 378.1 1701.76 377.537 1700.9 377.26 1699.83 377.269 1698.54V1678.41z" fill="#0019f7"/><path d="M88.0742 484.227H165.539V465.109H88.0742v19.118zm132.8318.0h77.465V465.109H220.906v19.118zM88.0742 522.462H165.539V503.345H88.0742v19.117zm132.8318.0h77.465V503.345H220.906v19.117zM88.0742 560.698H298.371V541.58H88.0742V560.698zm0 38.236H165.539V579.816H88.0742V598.934zm132.8318.0h77.465V579.816H220.906V598.934zM88.0742 637.169H298.371V618.052H88.0742v19.117zm0 38.236H165.539V656.287H88.0742V675.405zm132.8318.0h77.465V656.287H220.906V675.405z" fill="#0019f7"/><path d="M188.397 737.731C189.037 736.691 189.677 735.491 190.157 734.651 190.957 733.091 191.077 732.851 191.477 732.291L189.877 730.531C189.397 730.611 188.917 730.651 187.677 730.651H184.077C184.397 729.811 184.437 729.771 184.637 729.211 184.797 728.771 184.877 728.611 185.037 728.331L181.437 727.571C181.237 728.691 180.877 729.691 180.277 731.171 179.037 734.091 177.317 736.571 175.197 738.611 176.517 739.331 177.237 739.891 177.957 740.771 177.957 741.651 177.957 741.971 177.957 742.531 177.957 754.891 177.517 758.291 175.517 761.931 176.757 762.691 177.077 762.971 178.357 764.411 179.837 761.251 180.317 759.251 180.757 754.451H189.517V760.091C189.517 760.731 189.197 760.931 187.917 760.931 187.157 760.931 186.037 760.811 184.357 760.611 184.797 761.851 184.997 762.691 185.077 763.971 186.917 764.011 187.837 764.051 187.877 764.051 191.517 764.051 192.557 763.331 192.557 760.811v-19.88C192.557 739.291 192.597 738.531 192.677 737.571 191.517 737.691 190.637 737.731 188.917 737.731H188.397zm-6.44.0c-.95999999999998.0-1.12.0-1.59999999999999.0C181.357 736.291 181.877 735.371 182.757 733.611H187.117C186.397 735.171 185.757 736.411 184.957 737.731h-3zM180.917 751.571C180.997 750.171 180.997 750.171 180.997 748.851 180.997 748.531 180.997 748.051 181.037 747.411h2.84V751.571H180.917zM189.517 751.571h-2.88V747.411h2.88V751.571zM189.517 744.611h-2.88V740.691h2.88V744.611zM183.877 740.691V744.611H181.077V740.691H183.877zm14.8-8C198.357 734.411 198.077 735.251 197.357 736.251 196.437 737.531 195.117 738.531 192.637 739.771 193.757 740.811 194.397 741.651 194.917 742.611 197.917 740.851 199.117 739.771 200.397 737.691 201.397 736.091 201.757 735.091 202.197 732.691h4.88C206.877 735.291 206.757 736.211 206.397 737.251 206.197 737.971 205.837 738.171 204.677 738.171 203.957 738.171 202.637 738.051 201.437 737.851 201.957 739.171 202.117 739.851 202.197 741.091 204.397 741.211 204.557 741.211 205.397 741.211 207.757 741.211 208.677 740.811 209.277 739.571 209.837 738.291 210.357 735.051 210.677 730.611 210.717 730.011 210.757 729.891 210.797 729.451 209.797 729.571 208.757 729.611 207.197 729.611h-9.56C195.717 729.611 194.597 729.531 193.517 729.371V732.891C194.437 732.771 195.517 732.691 197.157 732.691H198.677zM201.517 748.891v4.12H197.117C195.557 753.011 194.637 752.971 193.517 752.811V756.411C194.717 756.251 195.557 756.211 197.077 756.211h4.44V760.811C201.517 762.451 201.437 763.371 201.277 764.571h3.84C204.957 763.451 204.877 762.451 204.877 760.811V756.211H208.477C210.277 756.211 211.197 756.251 212.197 756.371V752.811C211.037 752.971 210.037 753.011 208.397 753.011H204.877v-4.12h2.72C209.197 748.891 210.277 748.931 211.237 749.051V745.491C210.397 745.691 209.477 745.731 207.597 745.731h-2.72V745.131C204.877 744.051 204.917 743.091 205.037 742.091H201.277C201.437 743.011 201.517 743.931 201.517 745.131V745.731h-2.84C198.837 745.171 198.837 745.171 199.357 743.291L196.037 742.571C196.037 743.011 195.957 743.531 195.757 744.531 195.237 746.971 194.597 748.491 193.197 750.691 194.157 751.011 194.837 751.371 196.197 752.251 196.957 750.771 197.237 750.171 197.717 748.891H201.517z" fill="#0019f7"/><path d="M95.5541 792.534V796.287H83.7204V792.534H95.5541zM86.6419 787.602h4.8514v19.326C91.4933 807.58 91.5916 808.08 91.7882 808.429 91.9937 808.768 92.2617 809 92.5923 809.125 92.9229 809.25 93.2892 809.313 93.6912 809.313 93.995 809.313 94.272 809.291 94.5221 809.246 94.7812 809.201 94.9778 809.161 95.1118 809.125L95.9293 812.918C95.6702 813.007 95.2994 813.106 94.817 813.213 94.3434 813.32 93.7627 813.383 93.0747 813.401 91.8597 813.436 90.7652 813.253 89.7913 812.851 88.8175 812.44 88.0447 811.806 87.4728 810.948 86.91 810.09 86.633 809.018 86.6419 807.732v-20.13zm18.8931 25.933C104.231 813.535 103.056 813.302 102.01 812.838 100.974 812.364 100.152 811.667 99.5444 810.747 98.9458 809.827 98.6465 808.692 98.6465 807.343 98.6465 806.182 98.8609 805.221 99.2898 804.462 99.7186 803.702 100.304 803.095 101.045 802.639 101.787 802.183 102.622 801.839 103.552 801.607 104.49 801.366 105.459 801.192 106.46 801.084 107.666 800.959 108.644 800.848 109.395 800.749 110.145 800.642 110.69 800.481 111.03 800.267 111.378 800.044 111.552 799.7 111.552 799.235V799.155C111.552 798.145 111.253 797.363 110.654 796.809 110.056 796.255 109.194 795.978 108.068 795.978 106.88 795.978 105.937 796.237 105.24 796.756 104.552 797.274 104.088 797.886 103.846 798.592L99.3166 797.948C99.674 796.698 100.264 795.652 101.086 794.812 101.908 793.964 102.913 793.329 104.101 792.909 105.289 792.481 106.603 792.266 108.041 792.266 109.033 792.266 110.02 792.382 111.003 792.615 111.986 792.847 112.884 793.231 113.697 793.767 114.51 794.294 115.162 795.013 115.653 795.925 116.154 796.836 116.404 797.975 116.404 799.342v13.777H111.74V810.291H111.579C111.284 810.863 110.869 811.399 110.333 811.9 109.806 812.391 109.14 812.789 108.336 813.092 107.541 813.387 106.607 813.535 105.535 813.535zM106.795 809.97C107.769 809.97 108.613 809.778 109.328 809.393 110.042 809 110.592 808.482 110.976 807.839 111.369 807.196 111.566 806.494 111.566 805.735V803.309C111.414 803.434 111.155 803.55 110.788 803.658 110.431 803.765 110.029 803.859 109.582 803.939 109.136 804.019 108.693 804.091 108.256 804.153 107.818 804.216 107.438 804.27 107.116 804.314 106.393 804.412 105.745 804.573 105.173 804.797 104.601 805.02 104.15 805.333 103.82 805.735 103.489 806.128 103.324 806.637 103.324 807.263 103.324 808.156 103.65 808.831 104.302 809.286 104.954 809.742 105.785 809.97 106.795 809.97zM125.704 806.659 125.691 800.803H126.468L133.866 792.534H139.535L130.435 802.666H129.43L125.704 806.659zM121.282 813.119V785.672h4.851v27.447h-4.851zm12.919.0L127.5 803.751 130.77 800.334 140.004 813.119h-5.803zM142.768 813.119V792.534h4.852v20.585h-4.852zM145.207 789.613C144.439 789.613 143.778 789.358 143.224 788.849 142.67 788.33 142.393 787.71 142.393 786.986 142.393 786.253 142.67 785.632 143.224 785.123 143.778 784.605 144.439 784.346 145.207 784.346 145.985 784.346 146.646 784.605 147.191 785.123 147.745 785.632 148.022 786.253 148.022 786.986 148.022 787.71 147.745 788.33 147.191 788.849 146.646 789.358 145.985 789.613 145.207 789.613zM157.46 801.058v12.061h-4.852V792.534h4.637V796.032H157.487C157.96 794.879 158.715 793.964 159.751 793.285 160.797 792.606 162.088 792.266 163.625 792.266 165.045 792.266 166.283 792.57 167.337 793.177 168.4 793.785 169.222 794.665 169.803 795.818 170.392 796.97 170.683 798.368 170.674 800.012V813.119h-4.852V800.763C165.822 799.387 165.465 798.31 164.75 797.533 164.044 796.756 163.066 796.367 161.815 796.367 160.967 796.367 160.212 796.555 159.55 796.93 158.898 797.296 158.384 797.828 158.009 798.525 157.643 799.222 157.46 800.066 157.46 801.058zM184.558 821.267C182.816 821.267 181.319 821.031 180.068 820.557 178.818 820.092 177.812 819.467 177.053 818.681 176.294 817.895 175.766 817.023 175.472 816.067L179.841 815.009C180.037 815.411 180.323 815.808 180.698 816.201 181.074 816.604 181.578 816.934 182.213 817.193 182.856 817.461 183.665 817.595 184.638 817.595 186.014 817.595 187.153 817.26 188.056 816.59 188.958 815.929 189.409 814.839 189.409 813.32V809.42H189.168C188.918 809.921 188.552 810.434 188.069 810.961 187.596 811.489 186.966 811.931 186.18 812.288 185.402 812.646 184.424 812.824 183.245 812.824 181.663 812.824 180.229 812.453 178.943 811.712 177.665 810.961 176.647 809.845 175.887 808.362 175.137 806.869 174.761 805.002 174.761 802.76 174.761 800.499 175.137 798.592 175.887 797.037 176.647 795.474 177.67 794.29 178.956 793.486 180.243 792.673 181.677 792.266 183.258 792.266 184.464 792.266 185.456 792.472 186.233 792.883 187.019 793.285 187.645 793.772 188.109 794.343 188.574 794.906 188.927 795.438 189.168 795.938H189.436v-3.404h4.785v20.92C194.221 815.214 193.801 816.671 192.961 817.823 192.121 818.976 190.973 819.838 189.517 820.41 188.06 820.981 186.407 821.267 184.558 821.267zM184.598 809.018C185.626 809.018 186.501 808.768 187.225 808.268 187.949 807.767 188.498 807.048 188.873 806.11 189.249 805.172 189.436 804.046 189.436 802.733 189.436 801.437 189.249 800.303 188.873 799.329 188.507 798.355 187.962 797.6 187.238 797.064 186.524 796.519 185.644 796.246 184.598 796.246 183.517 796.246 182.615 796.528 181.891 797.091 181.167 797.654 180.622 798.426 180.256 799.409 179.89 800.383 179.707 801.491 179.707 802.733 179.707 803.993 179.89 805.096 180.256 806.043 180.631 806.981 181.181 807.714 181.904 808.241 182.637 808.759 183.535 809.018 184.598 809.018zM214.477 813.535C213.173 813.535 211.998 813.302 210.953 812.838 209.916 812.364 209.094 811.667 208.487 810.747 207.888 809.827 207.589 808.692 207.589 807.343 207.589 806.182 207.803 805.221 208.232 804.462 208.661 803.702 209.246 803.095 209.988 802.639 210.729 802.183 211.565 801.839 212.494 801.607 213.432 801.366 214.401 801.192 215.402 801.084 216.608 800.959 217.586 800.848 218.337 800.749 219.087 800.642 219.632 800.481 219.972 800.267 220.32 800.044 220.495 799.7 220.495 799.235V799.155C220.495 798.145 220.195 797.363 219.597 796.809 218.998 796.255 218.136 795.978 217.01 795.978 215.822 795.978 214.879 796.237 214.182 796.756 213.494 797.274 213.03 797.886 212.789 798.592L208.259 797.948C208.616 796.698 209.206 795.652 210.028 794.812 210.85 793.964 211.855 793.329 213.043 792.909 214.232 792.481 215.545 792.266 216.983 792.266 217.975 792.266 218.962 792.382 219.945 792.615 220.928 792.847 221.826 793.231 222.639 793.767 223.452 794.294 224.104 795.013 224.595 795.925 225.096 796.836 225.346 797.975 225.346 799.342v13.777H220.682V810.291H220.521C220.227 810.863 219.811 811.399 219.275 811.9 218.748 812.391 218.082 812.789 217.278 813.092 216.483 813.387 215.549 813.535 214.477 813.535zM215.737 809.97C216.711 809.97 217.555 809.778 218.27 809.393 218.985 809 219.534 808.482 219.918 807.839 220.311 807.196 220.508 806.494 220.508 805.735V803.309C220.356 803.434 220.097 803.55 219.731 803.658 219.373 803.765 218.971 803.859 218.525 803.939 218.078 804.019 217.636 804.091 217.198 804.153 216.76 804.216 216.38 804.27 216.059 804.314 215.335 804.412 214.687 804.573 214.115 804.797 213.544 805.02 213.092 805.333 212.762 805.735 212.431 806.128 212.266 806.637 212.266 807.263 212.266 808.156 212.592 808.831 213.244 809.286 213.896 809.742 214.727 809.97 215.737 809.97zM230.224 820.838V792.534H234.995v3.404H235.277C235.527 795.438 235.88 794.906 236.335 794.343 236.791 793.772 237.407 793.285 238.185 792.883 238.962 792.472 239.954 792.266 241.16 792.266 242.75 792.266 244.184 792.673 245.462 793.486 246.748 794.29 247.767 795.482 248.517 797.064 249.277 798.636 249.657 800.566 249.657 802.853 249.657 805.114 249.286 807.035 248.544 808.616 247.803 810.198 246.793 811.404 245.516 812.235 244.238 813.066 242.79 813.481 241.173 813.481 239.994 813.481 239.016 813.284 238.238 812.891 237.461 812.498 236.836 812.025 236.362 811.471 235.898 810.908 235.536 810.376 235.277 809.876H235.076v10.962h-4.852zM234.982 802.827C234.982 804.158 235.169 805.324 235.545 806.324 235.929 807.325 236.478 808.107 237.193 808.67 237.917 809.224 238.792 809.501 239.82 809.501 240.892 809.501 241.79 809.215 242.514 808.643 243.237 808.062 243.782 807.272 244.149 806.271 244.524 805.261 244.711 804.113 244.711 802.827 244.711 801.549 244.528 800.414 244.162 799.423 243.796 798.431 243.251 797.654 242.527 797.091 241.803 796.528 240.901 796.246 239.82 796.246 238.783 796.246 237.903 796.519 237.18 797.064 236.456 797.609 235.907 798.373 235.531 799.356 235.165 800.338 234.982 801.495 234.982 802.827zm24.753 10.708C258.43 813.535 257.255 813.302 256.21 812.838 255.174 812.364 254.352 811.667 253.744 810.747 253.146 809.827 252.846 808.692 252.846 807.343 252.846 806.182 253.061 805.221 253.49 804.462 253.918 803.702 254.504 803.095 255.245 802.639 255.987 802.183 256.822 801.839 257.751 801.607 258.689 801.366 259.659 801.192 260.659 801.084 261.866 800.959 262.844 800.848 263.594 800.749 264.345 800.642 264.89 800.481 265.229 800.267 265.578 800.044 265.752 799.7 265.752 799.235V799.155C265.752 798.145 265.453 797.363 264.854 796.809 264.256 796.255 263.393 795.978 262.268 795.978 261.079 795.978 260.137 796.237 259.44 796.756 258.752 797.274 258.287 797.886 258.046 798.592L253.516 797.948C253.874 796.698 254.463 795.652 255.285 794.812 256.107 793.964 257.112 793.329 258.301 792.909 259.489 792.481 260.802 792.266 262.241 792.266 263.233 792.266 264.22 792.382 265.203 792.615 266.185 792.847 267.083 793.231 267.896 793.767 268.709 794.294 269.362 795.013 269.853 795.925 270.353 796.836 270.603 797.975 270.603 799.342v13.777H265.94V810.291H265.779C265.484 810.863 265.069 811.399 264.532 811.9 264.005 812.391 263.34 812.789 262.536 813.092 261.74 813.387 260.807 813.535 259.735 813.535zM260.994 809.97C261.968 809.97 262.813 809.778 263.527 809.393 264.242 809 264.792 808.482 265.176 807.839 265.569 807.196 265.765 806.494 265.765 805.735V803.309C265.614 803.434 265.354 803.55 264.988 803.658 264.631 803.765 264.229 803.859 263.782 803.939 263.335 804.019 262.893 804.091 262.455 804.153 262.017 804.216 261.638 804.27 261.316 804.314 260.592 804.412 259.945 804.573 259.373 804.797 258.801 805.02 258.35 805.333 258.019 805.735 257.689 806.128 257.523 806.637 257.523 807.263 257.523 808.156 257.85 808.831 258.502 809.286 259.154 809.742 259.985 809.97 260.994 809.97zm14.488 3.149V792.534H280.186V795.965H280.4C280.775 794.777 281.419 793.861 282.33 793.218 283.25 792.565 284.3 792.239 285.479 792.239 285.747 792.239 286.047 792.253 286.377 792.279 286.717 792.297 286.998 792.329 287.222 792.373V796.836C287.016 796.765 286.69 796.702 286.243 796.648 285.805 796.586 285.381 796.555 284.97 796.555 284.086 796.555 283.29 796.747 282.585 797.131 281.888 797.506 281.338 798.029 280.936 798.699 280.534 799.369 280.333 800.142 280.333 801.017v12.102h-4.851zm26.347-20.585V796.287H289.996V792.534h11.833zM292.917 787.602H297.769v19.326C297.769 807.58 297.867 808.08 298.064 808.429 298.269 808.768 298.537 809 298.868 809.125 299.198 809.25 299.564 809.313 299.967 809.313 300.27 809.313 300.547 809.291 300.797 809.246 301.057 809.201 301.253 809.161 301.387 809.125L302.205 812.918C301.946 813.007 301.575 813.106 301.092 813.213 300.619 813.32 300.038 813.383 299.35 813.401 298.135 813.436 297.041 813.253 296.067 812.851 295.093 812.44 294.32 811.806 293.748 810.948 293.185 810.09 292.908 809.018 292.917 807.732v-20.13z" fill="#0019f7"/><path d="M88.0745 929.632H298.371V910.514H88.0745V929.632zm0 38.235H165.539V948.749H88.0745V967.867zm132.8315.0h77.465V948.749H220.906V967.867zM88.0745 1006.1H298.371V986.985H88.0745V1006.1zM88.0745 1044.34H298.371V1025.22H88.0745V1044.34zm0 38.23H165.539V1063.46H88.0745V1082.57zm132.8315.0h77.465V1063.46H220.906V1082.57zM88.0745 1120.81H298.371V1101.69H88.0745V1120.81z" fill="#0019f7"/><path d="M191.037 1204.1V1205.74C191.037 1206.62 190.837 1206.74 189.357 1206.74 188.477 1206.74 187.397 1206.62 185.957 1206.42 186.397 1207.62 186.597 1208.46 186.677 1209.66 187.717 1209.7 188.237 1209.7 188.757 1209.7 190.957 1209.7 192.157 1209.58 192.837 1209.22 193.797 1208.74 194.197 1207.9 194.197 1206.22V1196.94C194.197 1195.58 194.237 1194.66 194.357 1193.5 193.357 1193.62 192.517 1193.66 190.677 1193.66H186.637C186.757 1193.1 186.837 1192.9 187.077 1191.5h3C191.157 1191.5 191.917 1191.5 193.077 1191.58 193.037 1190.82 192.997 1189.98 192.997 1189.06V1186.94C193.597 1187.54 194.077 1188.22 194.637 1189.18 195.357 1188.26 195.477 1188.1 196.397 1186.46 196.277 1187.74 196.277 1188.18 196.277 1189.54V1205.66C196.277 1207.82 196.197 1209.18 196.077 1210.1H199.557V1208.22H208.317C209.877 1208.22 211.397 1208.3 212.397 1208.46V1204.86C211.397 1205.02 210.357 1205.06 208.597 1205.06H206.677v-6H207.717C209.157 1199.06 210.357 1199.14 211.197 1199.3V1195.82C210.317 1195.98 209.357 1196.02 207.717 1196.02H206.677V1190.98H207.717C209.237 1190.98 210.357 1191.06 211.197 1191.18V1187.74C210.357 1187.9 209.557 1187.94 207.717 1187.94H206.677v-5h1.28C209.997 1182.94 211.117 1182.98 212.077 1183.1V1179.54C210.997 1179.74 210.157 1179.78 207.957 1179.78H206.877C207.517 1178.54 208.157 1177.02 208.837 1175.3 208.917 1175.1 209.077 1174.78 209.237 1174.38L205.877 1173.46C205.317 1175.9 204.637 1177.82 203.637 1179.78h-3.88C200.477 1177.98 200.757 1177.3 201.077 1176.34 201.637 1174.7 201.637 1174.66 201.957 1173.98L198.437 1173.06C197.757 1177.58 195.637 1182.7 192.997 1186.14V1182.98C192.997 1181.94 193.037 1181.26 193.157 1180.5H189.957C190.077 1181.26 190.117 1182.02 190.117 1182.98V1188.9H180.637V1186.58C181.277 1187.1 181.677 1187.54 182.437 1188.5 184.037 1187.38 184.637 1186.94 185.757 1185.98 186.557 1186.74 186.877 1187.1 187.957 1188.22L189.717 1186.14C188.557 1185.02 188.197 1184.7 187.557 1184.14 188.557 1183.1 188.797 1182.82 189.637 1181.74L187.517 1180.02C186.837 1181.18 186.477 1181.62 185.677 1182.54 184.677 1181.74 184.317 1181.42 182.957 1180.42L181.197 1182.22C182.517 1183.14 182.997 1183.54 183.877 1184.26 182.717 1185.22 182.357 1185.46 180.637 1186.5V1182.98C180.637 1181.98 180.677 1181.3 180.797 1180.46h-3.28C177.637 1181.46 177.717 1182.42 177.717 1183.34V1188.74C177.717 1190.02 177.677 1190.86 177.557 1191.58 178.597 1191.5 179.517 1191.5 180.837 1191.5H183.997C183.797 1192.9 183.677 1193.62 183.637 1193.66H180.237C178.837 1193.66 177.837 1193.62 176.637 1193.5 176.757 1194.9 176.797 1195.9 176.797 1197.54V1205.78C176.797 1207.66 176.717 1208.86 176.597 1210.06H180.197C180.077 1209.14 180.037 1208.22 180.037 1205.82V1196.42H183.077C182.477 1199.02 182.157 1200.22 181.637 1201.62 181.237 1201.66 180.757 1201.7 180.637 1201.7 180.557 1201.7 180.557 1201.7 180.117 1201.66L180.837 1204.74C181.237 1204.62 181.557 1204.54 182.117 1204.46 184.437 1204.06 186.277 1203.7 188.277 1203.18 188.437 1203.82 188.517 1204.18 188.757 1205.1l2.28-1zM191.037 1196.42V1203.38C190.157 1200.82 189.677 1199.62 188.637 1197.66L186.357 1198.54C186.917 1199.58 187.077 1199.9 187.437 1200.78 186.637 1200.98 185.797 1201.14 184.597 1201.3 185.117 1199.82 185.277 1199.14 185.997 1196.42H191.037zM203.597 1190.98V1196.02H199.557V1190.98H203.597zM203.597 1187.94H199.557v-5H203.597v5zM199.557 1199.06H203.597v6H199.557v-6zM183.677 1176.62H179.317C177.837 1176.62 176.917 1176.58 175.997 1176.42V1179.7C176.917 1179.58 177.757 1179.54 179.237 1179.54h12.08C192.597 1179.54 193.677 1179.58 194.677 1179.7V1176.42C193.757 1176.54 192.557 1176.62 191.277 1176.62h-4.16V1176.06C187.117 1174.9 187.157 1174.3 187.317 1173.42h-3.84C183.597 1174.1 183.677 1174.9 183.677 1176.1V1176.62z" fill="#0019f7"/><path d="M116.02 1258.52V1237.94H120.724V1241.37H120.939C121.314 1240.18 121.957 1239.27 122.868 1238.62 123.789 1237.97 124.839 1237.64 126.018 1237.64 126.286 1237.64 126.585 1237.66 126.916 1237.68 127.255 1237.7 127.537 1237.73 127.76 1237.78V1242.24C127.555 1242.17 127.228 1242.11 126.782 1242.05 126.344 1241.99 125.92 1241.96 125.509 1241.96 124.624 1241.96 123.829 1242.15 123.123 1242.54 122.426 1242.91 121.877 1243.43 121.475 1244.1 121.073 1244.77 120.872 1245.55 120.872 1246.42V1258.52H116.02zM136.538 1258.94C135.234 1258.94 134.059 1258.71 133.014 1258.24 131.977 1257.77 131.155 1257.07 130.548 1256.15 129.949 1255.23 129.65 1254.1 129.65 1252.75 129.65 1251.59 129.864 1250.63 130.293 1249.87 130.722 1249.11 131.307 1248.5 132.049 1248.04 132.79 1247.59 133.626 1247.24 134.555 1247.01 135.493 1246.77 136.462 1246.6 137.463 1246.49 138.669 1246.36 139.647 1246.25 140.398 1246.15 141.148 1246.05 141.693 1245.89 142.033 1245.67 142.381 1245.45 142.556 1245.1 142.556 1244.64V1244.56C142.556 1243.55 142.256 1242.77 141.658 1242.21 141.059 1241.66 140.197 1241.38 139.071 1241.38 137.883 1241.38 136.94 1241.64 136.243 1242.16 135.555 1242.68 135.091 1243.29 134.85 1244L130.32 1243.35C130.677 1242.1 131.267 1241.06 132.089 1240.22 132.911 1239.37 133.916 1238.73 135.104 1238.31 136.292 1237.89 137.606 1237.67 139.044 1237.67 140.036 1237.67 141.023 1237.79 142.006 1238.02S143.887 1238.64 144.7 1239.17C145.513 1239.7 146.165 1240.42 146.656 1241.33 147.157 1242.24 147.407 1243.38 147.407 1244.75v13.77H142.743V1255.7H142.582C142.287 1256.27 141.872 1256.8 141.336 1257.3 140.809 1257.8 140.143 1258.19 139.339 1258.5 138.544 1258.79 137.61 1258.94 136.538 1258.94zM137.798 1255.37C138.772 1255.37 139.616 1255.18 140.331 1254.8 141.046 1254.41 141.595 1253.89 141.979 1253.24 142.372 1252.6 142.569 1251.9 142.569 1251.14V1248.71C142.417 1248.84 142.158 1248.96 141.792 1249.06 141.434 1249.17 141.032 1249.26 140.585 1249.34 140.139 1249.42 139.697 1249.5 139.259 1249.56 138.821 1249.62 138.441 1249.67 138.12 1249.72 137.396 1249.82 136.748 1249.98 136.176 1250.2 135.605 1250.43 135.153 1250.74 134.823 1251.14 134.492 1251.53 134.327 1252.04 134.327 1252.67 134.327 1253.56 134.653 1254.24 135.305 1254.69 135.957 1255.15 136.788 1255.37 137.798 1255.37zM159.924 1258.89C158.307 1258.89 156.86 1258.47 155.582 1257.64 154.304 1256.81 153.295 1255.6 152.553 1254.02 151.812 1252.44 151.441 1250.52 151.441 1248.26 151.441 1245.97 151.816 1244.04 152.567 1242.47 153.326 1240.89 154.349 1239.69 155.636 1238.89 156.922 1238.08 158.356 1237.67 159.938 1237.67 161.144 1237.67 162.135 1237.88 162.913 1238.29 163.69 1238.69 164.306 1239.18 164.762 1239.75 165.218 1240.31 165.571 1240.84 165.821 1241.34H166.022v-10.26H170.887V1258.52H166.116V1255.28H165.821C165.571 1255.78 165.209 1256.31 164.735 1256.88 164.262 1257.43 163.636 1257.9 162.859 1258.3 162.082 1258.69 161.103 1258.89 159.924 1258.89zM161.278 1254.91C162.305 1254.91 163.181 1254.63 163.904 1254.07 164.628 1253.51 165.178 1252.73 165.553 1251.73S166.116 1249.56 166.116 1248.23 165.928 1245.74 165.553 1244.76C165.186 1243.78 164.641 1243.01 163.918 1242.47 163.203 1241.92 162.323 1241.65 161.278 1241.65 160.197 1241.65 159.294 1241.93 158.571 1242.5 157.847 1243.06 157.302 1243.84 156.936 1244.83 156.569 1245.82 156.386 1246.95 156.386 1248.23 156.386 1249.52 156.569 1250.67 156.936 1251.68 157.311 1252.68 157.86 1253.47 158.584 1254.05 159.317 1254.62 160.214 1254.91 161.278 1254.91zM176.056 1258.52V1237.94H180.908V1258.52H176.056zM178.495 1235.02C177.727 1235.02 177.066 1234.76 176.512 1234.25S175.681 1233.11 175.681 1232.39C175.681 1231.66 175.958 1231.04 176.512 1230.53 177.066 1230.01 177.727 1229.75 178.495 1229.75 179.273 1229.75 179.934 1230.01 180.479 1230.53 181.033 1231.04 181.31 1231.66 181.31 1232.39 181.31 1233.11 181.033 1233.74 180.479 1234.25 179.934 1234.76 179.273 1235.02 178.495 1235.02zM191.82 1258.94C190.516 1258.94 189.341 1258.71 188.295 1258.24 187.259 1257.77 186.437 1257.07 185.83 1256.15 185.231 1255.23 184.932 1254.1 184.932 1252.75 184.932 1251.59 185.146 1250.63 185.575 1249.87 186.004 1249.11 186.589 1248.5 187.331 1248.04 188.072 1247.59 188.907 1247.24 189.837 1247.01 190.775 1246.77 191.744 1246.6 192.745 1246.49 193.951 1246.36 194.929 1246.25 195.68 1246.15 196.43 1246.05 196.975 1245.89 197.315 1245.67 197.663 1245.45 197.837 1245.1 197.837 1244.64V1244.56C197.837 1243.55 197.538 1242.77 196.94 1242.21 196.341 1241.66 195.479 1241.38 194.353 1241.38 193.165 1241.38 192.222 1241.64 191.525 1242.16 190.837 1242.68 190.373 1243.29 190.131 1244L185.602 1243.35C185.959 1242.1 186.549 1241.06 187.371 1240.22 188.193 1239.37 189.198 1238.73 190.386 1238.31 191.574 1237.89 192.888 1237.67 194.326 1237.67 195.318 1237.67 196.305 1237.79 197.288 1238.02 198.271 1238.25 199.169 1238.64 199.982 1239.17S201.447 1240.42 201.938 1241.33C202.439 1242.24 202.689 1243.38 202.689 1244.75v13.77H198.025V1255.7H197.864C197.569 1256.27 197.154 1256.8 196.618 1257.3 196.091 1257.8 195.425 1258.19 194.621 1258.5 193.826 1258.79 192.892 1258.94 191.82 1258.94zM193.08 1255.37C194.054 1255.37 194.898 1255.18 195.613 1254.8 196.328 1254.41 196.877 1253.89 197.261 1253.24 197.654 1252.6 197.851 1251.9 197.851 1251.14V1248.71C197.699 1248.84 197.44 1248.96 197.074 1249.06 196.716 1249.17 196.314 1249.26 195.867 1249.34 195.421 1249.42 194.978 1249.5 194.541 1249.56 194.103 1249.62 193.723 1249.67 193.402 1249.72 192.678 1249.82 192.03 1249.98 191.458 1250.2 190.886 1250.43 190.435 1250.74 190.105 1251.14 189.774 1251.53 189.609 1252.04 189.609 1252.67 189.609 1253.56 189.935 1254.24 190.587 1254.69 191.239 1255.15 192.07 1255.37 193.08 1255.37zM212.418 1246.46V1258.52h-4.851V1237.94h4.637v3.5H212.445C212.919 1240.28 213.674 1239.37 214.71 1238.69 215.756 1238.01 217.047 1237.67 218.583 1237.67 220.004 1237.67 221.241 1237.97 222.296 1238.58 223.359 1239.19 224.181 1240.07 224.761 1241.22 225.351 1242.38 225.641 1243.77 225.633 1245.42V1258.52h-4.852V1246.17C220.781 1244.79 220.424 1243.72 219.709 1242.94 219.003 1242.16 218.025 1241.77 216.774 1241.77 215.925 1241.77 215.17 1241.96 214.509 1242.33 213.857 1242.7 213.343 1243.23 212.968 1243.93 212.602 1244.63 212.418 1245.47 212.418 1246.46zm27.125 12.47C237.489 1258.93 235.724 1258.47 234.25 1257.57 232.785 1256.67 231.654 1255.42 230.859 1253.83 230.073 1252.23 229.68 1250.39 229.68 1248.31 229.68 1246.22 230.082 1244.38 230.886 1242.78 231.69 1241.17 232.825 1239.92 234.29 1239.02 235.764 1238.12 237.506 1237.67 239.517 1237.67 241.187 1237.67 242.666 1237.98 243.953 1238.6 245.248 1239.2 246.28 1240.07 247.048 1241.18 247.817 1242.29 248.255 1243.59 248.362 1245.07h-4.637C243.537 1244.08 243.09 1243.25 242.385 1242.59 241.688 1241.92 240.754 1241.58 239.584 1241.58 238.592 1241.58 237.721 1241.85 236.97 1242.39 236.22 1242.92 235.635 1243.68 235.215 1244.67 234.804 1245.66 234.598 1246.85 234.598 1248.23 234.598 1249.63 234.804 1250.84 235.215 1251.85 235.626 1252.85 236.202 1253.62 236.944 1254.17 237.694 1254.7 238.574 1254.97 239.584 1254.97 240.298 1254.97 240.937 1254.84 241.5 1254.57 242.072 1254.29 242.55 1253.9 242.934 1253.38 243.318 1252.86 243.582 1252.23 243.725 1251.49h4.637C248.246 1252.94 247.817 1254.24 247.075 1255.36 246.334 1256.48 245.324 1257.35 244.046 1257.99 242.769 1258.61 241.268 1258.93 239.543 1258.93zm21.916.0C259.395 1258.93 257.612 1258.5 256.111 1257.64 254.619 1256.77 253.471 1255.55 252.667 1253.97 251.863 1252.38 251.461 1250.51 251.461 1248.35 251.461 1246.23 251.863 1244.38 252.667 1242.78 253.48 1241.17 254.615 1239.92 256.071 1239.02 257.527 1238.12 259.238 1237.67 261.204 1237.67 262.473 1237.67 263.67 1237.88 264.796 1238.29 265.93 1238.69 266.931 1239.32 267.798 1240.16 268.673 1241.01 269.361 1242.09 269.861 1243.41 270.362 1244.71 270.612 1246.27 270.612 1248.07V1249.56H253.739V1246.29h12.223C265.953 1245.36 265.752 1244.53 265.358 1243.81 264.965 1243.08 264.416 1242.5 263.71 1242.08 263.013 1241.66 262.2 1241.45 261.271 1241.45 260.279 1241.45 259.408 1241.69 258.658 1242.17 257.907 1242.65 257.322 1243.27 256.902 1244.05 256.491 1244.82 256.281 1245.66 256.272 1246.58V1249.44C256.272 1250.64 256.491 1251.66 256.929 1252.52 257.367 1253.37 257.979 1254.02 258.765 1254.48 259.551 1254.92 260.471 1255.15 261.526 1255.15 262.231 1255.15 262.87 1255.05 263.442 1254.85 264.014 1254.65 264.51 1254.35 264.93 1253.95 265.35 1253.56 265.667 1253.07 265.881 1252.49L270.411 1253C270.125 1254.2 269.58 1255.25 268.776 1256.14 267.981 1257.02 266.962 1257.71 265.72 1258.2 264.478 1258.68 263.058 1258.93 261.459 1258.93z" fill="#0019f7"/></svg>