<svg width="988" height="768" viewBox="0 0 988 768" fill="none" xmlns="http://www.w3.org/2000/svg"><g clip-path="url(#clip0_2788_3011)"><rect width="768" height="1087.28" transform="translate(0 768) rotate(-90)" fill="#f5f3f3"/><rect x="49.3101" y="718.69" width="669.38" height="228.674" transform="rotate(-90 49.3101 718.69)" stroke="#d02a31" stroke-width=".616372"/><rect x="302.639" y="718.69" width="669.38" height="228.674" transform="rotate(-90 302.639 718.69)" stroke="#d02a31" stroke-width=".616372"/><rect x="555.968" y="718.69" width="669.38" height="228.674" transform="rotate(-90 555.968 718.69)" stroke="#d02a31" stroke-width=".616372"/><rect x="809.297" y="718.69" width="669.38" height="228.674" transform="rotate(-90 809.297 718.69)" stroke="#d02a31" stroke-width=".616372"/><rect x="49.3096" y="718.69" width="114.152" height="988.661" transform="rotate(-90 49.3096 718.69)" stroke="#d02a31" stroke-width=".616372"/><rect x="49.3096" y="579.883" width="114.152" height="988.661" transform="rotate(-90 49.3096 579.883)" stroke="#d02a31" stroke-width=".616372"/><rect x="49.3096" y="441.076" width="114.152" height="988.661" transform="rotate(-90 49.3096 441.076)" stroke="#d02a31" stroke-width=".616372"/><rect x="49.3096" y="302.269" width="114.152" height="988.661" transform="rotate(-90 49.3096 302.269)" stroke="#d02a31" stroke-width=".616372"/><rect x="49.3096" y="163.462" width="114.152" height="988.661" transform="rotate(-90 49.3096 163.462)" stroke="#d02a31" stroke-width=".616372"/><path d="M49.5201 163.184H129.342V140.771H77.1896V117.299H125.262V94.8298H77.1896V71.4131H129.342V49H49.5201V163.184z" fill="#1d1d1d"/><path d="M135.652 163.184h27.334V137.482L168.52 130.791l20.459 32.393h31.582l-31.694-48.339 30.464-37.2989H188.364L164.216 108.211H162.986V49H135.652V163.184z" fill="#1d1d1d"/><path d="M254.638 164.801c26.999.0 43.377-17.785 43.377-44.157.0-26.4275-16.378-44.213-43.377-44.213s-43.377 17.7855-43.377 44.213c0 26.372 16.378 44.157 43.377 44.157zM254.806 144.228c-10.118.0-15.708-9.59-15.708-23.751C239.098 106.259 244.688 96.6139 254.806 96.6139 264.588 96.6139 270.178 106.259 270.178 120.477c0 14.161-5.58999999999998 23.751-15.372 23.751z" fill="#1d1d1d"/><path d="M300.999 195.299h27.334V149.301H328.892C332.357 157.219 340.071 164.411 353.04 164.411c19.005.0 34.321-14.831 34.321-43.99.0-30.2188-16.21-43.99-34.154-43.99-13.583.0-21.017 7.917-24.315 15.7784H328.053V77.5461H300.999V195.299zm26.775-74.934C327.774 106.371 333.587 97.729 343.593 97.729c10.117.0 15.707 8.865 15.707 22.636C359.3 134.192 353.71 143.169 343.593 143.169 333.587 143.169 327.774 134.248 327.774 120.365z" fill="#1d1d1d"/><path d="M418 49H390.666V163.184H418V49z" fill="#1d1d1d"/><path d="M479.775 126.219C479.775 136.199 473.402 141.775 465.297 141.775 456.913 141.775 451.77 136.088 451.714 126.777V77.5461H424.38V132.129C424.436 151.476 436.23 164.299 453.894 164.299 466.751 164.299 476.309 157.72 480.11 147.239H481.005v15.945h26.048V77.5461H479.775V126.219z" fill="#1d1d1d"/><path d="M553.456 197.083c25.88.0 43.544-11.764 43.544-33.564V77.5461H569.778V92.2094H568.995C565.697 84.348 558.207 76.431 544.68 76.431 526.736 76.431 510.47 90.2022 510.47 120.254 510.47 149.357 525.954 162.013 544.791 162.013 557.424 162.013 565.865 156.159 569.107 148.242H570.057v15.054c0 10.928-6.70799999999997 14.886-15.875 14.886-8.77600000000007.0-14.03-3.345-15.484-8.642L512.818 170.99C514.83 185.988 528.972 197.083 553.456 197.083zM554.294 142.165c-10.1179999999999.0-15.763-8.196-15.763-21.911C538.531 106.594 544.121 97.729 554.294 97.729 564.3 97.729 570.113 106.371 570.113 120.254 570.113 134.025 564.244 142.165 554.294 142.165z" fill="#1d1d1d"/><path d="M61.2227 225.658C66.983 225.658 71.0333 222.031 71.7713 217.04H68.5311C67.7931 220.559 64.8949 222.731 61.2227 222.731 55.8044 222.731 52.2222 218.027 52.2222 211.312c0-6.679 3.6902-11.275 9.0005-11.275C65.1649 200.037 67.8291 202.568 68.5131 205.692h3.2402C70.9973 200.575 66.713 197.128 61.1687 197.128 53.9323 197.128 49 203.125 49 211.42 49 219.643 53.7883 225.658 61.2227 225.658z" fill="#1d1d1d"/><path d="M86.3611 225.712C90.9694 225.712 93.7775 223.162 94.9296 220.721H95.1276v4.363h3.2042V206.357C98.3318 198.959 92.7515 197.128 88.5212 197.128 84.291 197.128 79.9348 198.798 78.0627 203.305L81.1048 204.4c1.0081-2.37 3.5102-4.399 7.5065-4.399 4.1942.0 6.5163 2.298 6.5163 6.06899999999999V206.716c0 2.083-2.5921 2.119-7.2364 2.69299999999998C81.6449 210.181 77.2706 211.923 77.2706 217.381 77.2706 222.696 81.3388 225.712 86.3611 225.712zM86.7932 222.785C83.1749 222.785 80.4748 220.864 80.4748 217.525 80.4748 214.185 83.2109 212.785 87.8912 212.21 90.1593 211.941 94.1916 211.438 95.1276 210.522V214.508C95.1276 219.033 91.9054 222.785 86.7932 222.785z" fill="#1d1d1d"/><path d="M117.746 197.505H111.896v-6.607h-3.223v6.607h-4.122V200.288h4.122v18.35C108.673 223.144 112.238 225.497 115.784 225.497 117.116 225.497 118.016 225.245 118.628 225.012L117.944 222.121C117.494 222.247 116.918 222.372 116.072 222.372 113.894 222.372 111.896 221.349 111.896 217.884V200.288H117.746V197.505z" fill="#1d1d1d"/><path d="M132.745 225.712C137.354 225.712 140.162 223.162 141.314 220.721H141.512v4.363H144.716V206.357C144.716 198.959 139.136 197.128 134.905 197.128 130.675 197.128 126.319 198.798 124.447 203.305l3.042 1.095C128.497 202.03 130.999 200.001 134.995 200.001 139.19 200.001 141.512 202.299 141.512 206.07V206.716C141.512 208.799 138.92 208.835 134.275 209.409 128.029 210.181 123.655 211.923 123.655 217.381 123.655 222.696 127.723 225.712 132.745 225.712zM133.177 222.785C129.559 222.785 126.859 220.864 126.859 217.525 126.859 214.185 129.595 212.785 134.275 212.21 136.543 211.941 140.576 211.438 141.512 210.522V214.508C141.512 219.033 138.29 222.785 133.177 222.785z" fill="#1d1d1d"/><path d="M156.444 188.312H153.239v36.772H156.444V188.312z" fill="#1d1d1d"/><path d="M175.669 225.658C182.833 225.658 187.837 219.823 187.837 211.42 187.837 202.963 182.833 197.128 175.669 197.128 168.504 197.128 163.5 202.963 163.5 211.42 163.5 219.823 168.504 225.658 175.669 225.658zM175.669 222.731C169.926 222.731 166.722 217.596 166.722 211.42 166.722 205.244 169.926 200.037 175.669 200.037 181.411 200.037 184.615 205.244 184.615 211.42 184.615 217.596 181.411 222.731 175.669 222.731z" fill="#1d1d1d"/><path d="M205.42 236C211.972 236 216.833 232.804 216.833 225.802V197.505H213.7v5.261H213.376C212.242 200.288 209.956 197.128 204.88 197.128 198.039 197.128 193.449 202.838 193.449 211.223 193.449 219.679 198.201 224.796 204.826 224.796 209.794 224.796 212.224 221.924 213.322 219.392H213.61V225.604C213.61 230.739 210.316 233.127 205.42 233.127 200.686 233.127 198.418 230.847 197.247 228.746L194.619 230.47c1.62 3.16 5.149 5.53 10.801 5.53zM205.204 221.87C199.714 221.87 196.671 217.489 196.671 211.169 196.671 204.956 199.66 200.037 205.204 200.037 210.622 200.037 213.664 204.705 213.664 211.169 213.664 217.83 210.532 221.87 205.204 221.87z" fill="#1d1d1d"/><path d="M242.885 214.544C242.885 219.607 239.068 222.336 235.324 222.336 231.328 222.336 228.52 219.482 228.52 215.173V197.505H225.316V215.37c0 6.536 3.78 10.073 9.09 10.073C238.456 225.443 241.336 223.342 242.633 220.505H242.885V225.084H246.089V197.505H242.885v17.039z" fill="#1d1d1d"/><path d="M265.75 225.658C271.295 225.658 275.021 222.66 276.281 219.194L273.239 218.207C272.177 220.685 269.675 222.731 265.75 222.731 260.098 222.731 256.516 218.62 256.372 212.246h20.593V210.666C276.965 201.455 271.259 197.128 265.264 197.128 258.1 197.128 253.15 203.107 253.15 211.456 253.15 219.823 258.01 225.658 265.75 225.658zM256.39 209.427C256.732 204.292 260.206 200.037 265.264 200.037 270.215 200.037 273.689 204.112 273.689 209.427H256.39z" fill="#1d1d1d"/></g><defs><clipPath id="clip0_2788_3011"><rect width="768" height="1087.28" fill="#fff" transform="translate(0 768) rotate(-90)"/></clipPath></defs></svg>