<svg width="456" height="300" viewBox="0 0 456 300" fill="none" xmlns="http://www.w3.org/2000/svg"><rect width="456" height="300" fill="#007050"/><path d="M122.677 228 122.168 227.884 122.149 227.88 122.112 227.872V227.515 227.498L122.111 166.48 121.909 166.2 121.885 166.167 121.063 165.028 121.06 165.024 121.056 165.018 121.054 165.015 121.051 165.011l-1.137-1.577L119.911 163.43 119.906 163.424 119.904 163.421 119.901 163.417 118.764 161.841 118.761 161.837 118.757 161.83 118.755 161.828 118.752 161.824 118.745 161.814 118.668 161.707 118.661 161.698 117.927 160.68 117.92 160.671 117.843 160.564V160.563L117.615 160.247 117.612 160.244 117.607 160.237 117.605 160.234 117.603 160.23 116.466 158.654 116.463 158.65 116.458 158.643 116.456 158.641 116.453 158.637l-1.137-1.577L115.313 157.056 115.308 157.05 115.307 157.047 115.304 157.043 114.167 155.467 114.164 155.463 114.159 155.456 114.157 155.454 114.154 155.45l-1.137-1.577L113.015 153.869 113.01 153.863 113.008 153.86 113.005 153.856 112.685 153.413 112.684 153.412 112.606 153.303 112.601 153.296 111.868 152.28 111.866 152.278 111.865 152.276 111.862 152.271 111.86 152.269 111.859 152.267 111.856 152.263 111.783 152.162 111.782 152.161 110.719 150.686 110.716 150.682 110.711 150.676 110.709 150.673 110.706 150.669 109.569 149.093 109.566 149.089 109.561 149.082 109.56 149.08 109.557 149.076l-1.137-1.577L108.417 147.495 108.412 147.489 108.41 147.486 108.408 147.482 107.271 145.906 107.268 145.902 107.263 145.895 107.261 145.893 107.258 145.889 106.544 144.899 106.541 144.894 106.121 144.312 106.118 144.308 106.113 144.301 106.112 144.299 106.109 144.295 105.723 143.76 105.722 143.759 104.972 142.719 104.969 142.715 104.964 142.708 104.962 142.706 104.959 142.702l-1.137-1.577L103.82 141.121 103.814 141.114 103.813 141.112 103.81 141.108 102.673 139.532 102.67 139.528 102.665 139.521 102.664 139.519 102.661 139.515l-1.137-1.577L101.521 137.934 101.516 137.927 101.514 137.925 101.511 137.921 100.565 136.609 100.564 136.608 100.482 136.494 100.481 136.493 100.374 136.345 100.371 136.341 100.366 136.334 100.365 136.332 100.362 136.328 99.7458 135.474 99.7448 135.472 99.6626 135.358 99.6615 135.357 99.2249 134.751 99.222 134.747 99.2167 134.74 99.2154 134.738 99.2126 134.734 98.0755 133.158 98.0727 133.154 98.0673 133.147 98.0661 133.145 98.0632 133.141 96.9261 131.564 96.9232 131.56 96.9179 131.553 96.9167 131.551 96.9138 131.547 96.3253 130.731 96.3206 130.725 95.8202 130.031 95.8155 130.025 95.7768 129.971 95.7739 129.967 95.7684 129.959 95.7673 129.958 94.6274 128.377 94.6245 128.373 94.6191 128.366 94.6179 128.364 94.6151 128.36 94.4796 128.172 94.475 128.166 94.0022 127.511 93.9971 127.504 93.9767 127.475 93.9721 127.469 93.478 126.784 93.4752 126.78 93.4657 126.767 92.6339 125.614 92.6293 125.607 92.3286 125.19 92.3257 125.186 92.3203 125.179 92.3163 125.173 92.1588 124.955 92.1541 124.948 92.1331 124.919 92.1287 124.913 91.1793 123.597 91.1764 123.593 91.1709 123.585 91.1698 123.584 91.167 123.58 90.7882 123.055 90.7837 123.049 90.7581 123.013 90.3153 122.399 90.2896 122.364 90.2853 122.357 90.0299 122.003 90.0214 121.992 90.0204 121.99 90.0176 121.986 88.9424 120.496 88.9381 120.49 88.8805 120.41 88.8777 120.406 88.8721 120.398 88.8711 120.397 88.8682 120.393 88.4717 119.843 88.4461 119.808 88.4419 119.802 87.7311 118.816 87.7282 118.812 87.7226 118.805 87.7217 118.803 87.7188 118.799 87.0967 117.937 87.0925 117.931 86.6282 117.287 86.6253 117.283 86.6026 117.252 86.5985 117.246 86.5818 117.223 86.5789 117.219 86.5732 117.211 86.5723 117.21 86.5695 117.206l-1.1371-1.577L85.4295 115.625 85.4238 115.617 85.4229 115.616 85.42 115.612 85.2509 115.378 85.2469 115.372 84.7847 114.731 84.7591 114.696 84.7551 114.69 84.283 114.036 84.2802 114.032 84.2744 114.024 84.2736 114.023 84.2707 114.019 83.4052 112.819 83.4014 112.814 83.1336 112.442 83.1307 112.438 83.125 112.43 83.1242 112.429 83.1213 112.425 82.9412 112.176 82.9394 112.173 82.9156 112.14 82.9117 112.135 81.9843 110.849 81.9814 110.845 81.9756 110.837 81.9748 110.836 81.972 110.832 81.5594 110.26 81.5558 110.255 81.5301 110.219 81.0976 109.62 81.0965 109.618 80.8348 109.255 80.832 109.251 80.8261 109.243 80.8254 109.242 80.8225 109.238 79.7137 107.701 79.7101 107.696 79.6855 107.662 79.6845 107.66 79.6826 107.658 79.6768 107.65 79.6761 107.649 79.6732 107.645 79.2541 107.064 79.2535 107.063 79.2285 107.028 79.2248 107.023 78.5361 106.068 78.5328 106.064 78.5273 106.056 78.5267 106.055 78.5238 106.051 77.8728 105.149 77.869 105.143 77.868 105.142 77.8655 105.139 77.8645 105.137 77.8578 105.128 77.8532 105.122 77.8389 105.102 33.8195 146.199 33.8304 207.824m88.8706-41.592V228M77.8389 104.049 33 145.861 33.0011 207.638 33.8185 207.824m88.9425 20.16V227.75m0 0V166.219m0 61.531L128.203 226.514M77.8495 104.046l21.812 30.234L99.6626 134.282l.9024 1.25V135.533L105.722 142.681 105.723 142.682 106.625 143.932V143.933l5.157 7.148L111.783 151.082 117.843 159.482 118.745 160.732V160.733L122.692 166.203M77.8509 104.041 77.9019 104.025m50.2611 61.069L128.171 165.104 128.172 226.496 128.737 226.624M128.163 165.094 124.805 160.438 124.728 160.331 124.721 160.322 124.601 160.155 124.581 160.127 123.987 159.304 123.98 159.295 123.903 159.188V159.187L118.745 152.037V152.036L118.666 151.927 118.661 151.92 117.927 150.902 117.922 150.895 117.843 150.786 117.842 150.785 112.685 143.635 112.684 143.634 112.604 143.522 112.601 143.518 111.866 142.5 111.863 142.496 111.783 142.384 111.782 142.383l-5.157-7.149L106.624 135.232 106.542 135.118 106.541 135.117 105.806 134.098 105.805 134.096 105.723 133.982 105.722 133.981 102.385 129.355 102.381 129.349 101.88 128.655 101.876 128.649 100.54 126.796 100.535 126.79 100.062 126.135 100.057 126.128 100.037 126.099 100.032 126.093 98.6941 124.238 98.6895 124.231 98.2189 123.579 98.2143 123.572 98.1933 123.543 98.1888 123.537 96.8483 121.679 96.8439 121.672 96.3714 121.017 96.3498 120.988 96.3455 120.981 95.0025 119.12 94.9983 119.114 94.5319 118.467 94.5063 118.432 94.502 118.426 93.1568 116.561 93.1527 116.555 92.6884 115.911 92.6855 115.907 92.6627 115.876 92.6586 115.87 91.3111 114.002 91.3071 113.996 90.8449 113.355 90.8425 113.352 90.8192 113.32 90.8152 113.314 89.4653 111.443 89.4614 111.438 89.0013 110.8 88.9996 110.797 88.9758 110.764 88.9718 110.759l-1.3522-1.875L87.6159 108.879 87.1578 108.244 87.1566 108.242 87.1322 108.208l-1.3583-1.883L85.7703 106.32 85.3143 105.688 85.3136 105.687 85.2887 105.652 85.285 105.647 83.9282 103.766 83.9247 103.761 83.9209 103.756m44.2421 61.338L122.762 166.335M128.761 164.856v61.768M83.9209 103.756 83.9178 103.752 83.9134 103.745 83.8991 103.726 83.8491 103.772M83.9209 103.756 83.8491 103.772M83.899 102.673l-1.5419 1.438m0 0L82.3454 104.114 78.5972 104.965M82.3571 104.111 83.8491 103.772M128.821 226.608V226.374m0 0V164.843m0 61.531L134.264 225.138M83.9097 102.67l21.8123 30.234L105.723 132.906 106.625 134.156V134.157l5.157 7.148L111.783 141.306l6.059 8.399L117.843 149.706 118.745 150.956V150.957l10.007 13.87M83.911 102.665 83.9619 102.649m50.2511 61.055L134.231 163.728 134.232 225.12 134.288 225.132 134.797 225.248M134.213 163.704 130.865 159.062 130.788 158.955 130.781 158.946 130.047 157.928 130.04 157.919 129.963 157.812V157.811L124.805 150.661V150.66L124.726 150.551 124.721 150.544 123.987 149.526 123.982 149.519 123.903 149.41V149.409L118.745 142.259V142.258L118.664 142.146 118.661 142.142 117.843 141.008 117.842 141.007l-5.157-7.149V133.857L112.684 133.856 112.602 133.742 112.601 133.741 111.866 132.722 111.865 132.72 111.783 132.606 111.782 132.605 108.446 127.979 108.441 127.973 107.966 127.315 107.96 127.307 107.941 127.279 107.936 127.273 106.6 125.42 106.595 125.414 106.57 125.378 106.123 124.759 106.117 124.752 106.097 124.723 106.092 124.717 104.754 122.862 104.75 122.855 104.279 122.203 104.274 122.196 104.253 122.167l-1.345-1.864L102.904 120.296 102.431 119.641 102.41 119.611 102.406 119.605l-1.343-1.861L101.058 117.738 100.592 117.091 100.589 117.086 100.566 117.056 100.562 117.05 99.217 115.185 99.2128 115.179 98.7485 114.535 98.7456 114.531 98.7229 114.5 98.7187 114.494 97.3713 112.626 97.3672 112.62 97.3416 112.585 96.9049 111.979 96.9026 111.976 96.8794 111.944 96.8753 111.938 95.5255 110.067 95.5216 110.061 95.0615 109.424 95.0597 109.421 95.0358 109.388 95.0319 109.383 93.218 106.868 93.2167 106.866 93.1923 106.832 93.1886 106.827 91.834 104.949 91.8304 104.944 91.3744 104.312 91.3738 104.311 91.3488 104.276 91.3452 104.271 89.9883 102.39 89.9848 102.385 89.981 102.38m44.232 61.324L128.822 164.942M134.821 163.48v61.768M89.981 102.38 89.978 102.376 89.9735 102.369 89.9592 102.35 89.9093 102.396M89.981 102.38 89.9093 102.396M89.9592 101.297l-1.542 1.438m0 0L88.4055 102.738 84.6572 103.589M88.4172 102.735 89.9093 102.396M134.881 225.232V224.998m0 0V163.467m0 61.531L140.324 223.762M89.9698 101.294l21.8122 30.234L111.783 131.53 112.685 132.78V132.781L117.789 139.856 117.842 139.929 117.843 139.93 118.745 141.18V141.181l11.218 15.549L134.812 163.451M89.9712 101.289 90.0221 101.273m50.2409 61.041L140.291 162.352 140.292 223.744 140.857 223.872M140.263 162.314 136.926 157.686H136.925L136.848 157.579 136.841 157.57 136.107 156.552 136.101 156.542 130.865 149.284 130.786 149.175 130.781 149.168 130.047 148.15 130.042 148.143 129.963 148.034V148.033L124.806 140.883 124.805 140.882 124.724 140.771 124.721 140.766 123.987 139.748 123.984 139.744 123.903 139.632 123.902 139.631 118.746 132.482 118.745 132.48 118.663 132.366 118.661 132.365 117.926 131.345 117.925 131.344 117.843 131.23 117.842 131.229 114.506 126.603 114.501 126.597 114.026 125.939 114.02 125.931 114.001 125.903 113.996 125.896l-1.336-1.852L112.655 124.038 112.183 123.383 112.178 123.376 112.157 123.347 112.152 123.341 110.81 121.479 110.784 121.444 110.339 120.827 110.335 120.82 110.314 120.791 108.969 118.927 108.964 118.92 108.492 118.265 108.47 118.235 108.466 118.229 107.123 116.368 107.119 116.362 106.652 115.715 106.649 115.71 106.627 115.68 106.622 115.674 105.277 113.809 105.273 113.803 104.809 113.159 104.806 113.155 104.783 113.124 104.779 113.118l-1.348-1.868L103.427 111.244 102.965 110.603 102.963 110.6 102.94 110.568 102.936 110.562 101.586 108.691 101.582 108.685 101.122 108.048 101.12 108.045 101.096 108.012 101.092 108.007 99.7361 106.127 99.2781 105.492 99.2769 105.49l-1.3827-1.917L97.8905 103.568 97.4345 102.936 97.434 102.935 97.409 102.9 97.4053 102.895l-1.3569-1.881L96.0449 101.009 96.0411 101.004m44.2219 61.31L134.882 163.55m5.999-1.446v61.768M96.0411 101.004 96.0381 101 96.0336 100.993 96.0193 100.974 95.9694 101.02M96.0411 101.004 95.9694 101.02M96.0193 99.9211l-1.5419 1.4379m0 0L95.9694 101.02M94.4774 101.359 90.7174 102.213M140.941 223.855V223.622m0 0V162.091m0 61.531L146.384 222.386M96.0299 99.9179 117.842 130.152 117.843 130.154 118.745 131.403 118.746 131.405 123.902 138.553H123.903L129.963 146.953V146.954L136.023 155.354H136.024L140.872 162.075M96.0314 99.9125 96.0823 99.8967M146.313 160.924 146.351 160.976 146.352 222.368 146.917 222.496M146.313 160.924l-3.327-4.614L142.985 156.309 142.908 156.203 142.902 156.193 142.775 156.018 142.774 156.017 142.167 155.176 142.161 155.166 142.084 155.06 142.083 155.059 136.926 147.908H136.925L136.846 147.799 136.842 147.792 136.107 146.774 136.102 146.767 136.024 146.658 136.023 146.657 130.865 139.507V139.506L130.785 139.394 130.782 139.39 130.047 138.372 130.044 138.368 129.963 138.256 129.962 138.255 124.806 131.105H124.805V131.104L124.723 130.99 124.722 130.989 123.986 129.969 123.985 129.968 123.903 129.854V129.853H123.902L120.566 125.227 120.535 125.185 120.086 124.562 120.081 124.555 120.056 124.52 118.72 122.668 118.716 122.662 118.243 122.007 118.238 121.999 118.217 121.971 118.213 121.965 116.399 119.451 116.395 119.444 116.374 119.415 116.369 119.409l-1.34-1.858L115.024 117.544 114.556 116.895 114.53 116.859 114.526 116.853 113.183 114.992 113.179 114.986 112.712 114.339 112.709 114.334 112.687 114.304 112.682 114.298 111.337 112.433 111.333 112.427 110.869 111.783 110.866 111.779 110.843 111.748 110.839 111.742 109.491 109.874 109.488 109.868 109.025 109.227 109.023 109.224 109 109.192 108.996 109.186 107.646 107.315 107.642 107.309 107.182 106.671 107.18 106.669 107.156 106.636 107.152 106.631l-1.352-1.875L105.796 104.751 105.338 104.116 105.337 104.114 105.309 104.075l-1.355-1.878L103.951 102.192 103.925 102.156 103.495 101.56 103.494 101.559 103.469 101.524 103.465 101.519 102.109 99.6379 102.105 99.6331 102.101 99.6278m44.212 61.2962L140.942 162.158M146.941 160.728v61.768M102.101 99.6278 102.098 99.6236 102.094 99.6174 102.079 99.5975 102.03 99.6441M102.101 99.6278 102.03 99.6441M102.079 98.5451 100.537 99.983m0 0L100.621 99.9639 100.622 99.9638 102.03 99.6441M100.537 99.983 100.526 99.9856 96.7775 100.837M147.001 222.479V222.246m0 0V160.715m0 61.531L152.444 221.01M102.09 98.5418l21.812 30.2342L123.903 128.777 124.805 130.028 124.806 130.029 129.962 137.177 129.963 137.178l6.06 8.399L136.024 145.578 142.083 153.978H142.084L146.932 160.699M102.091 98.5364 102.142 98.5207m50.222 61.0133L152.411 159.6 152.412 220.991 152.977 221.12m-.613-61.586L149.046 154.934 149.045 154.933 148.968 154.827 148.962 154.817 148.227 153.8 148.221 153.79 148.144 153.684 148.143 153.683 142.986 146.533 142.985 146.532 142.907 146.423 142.902 146.416 142.167 145.398 142.162 145.391 142.084 145.282 142.083 145.281 136.926 138.131 136.925 138.13 136.845 138.018 136.842 138.014 136.107 136.995 136.104 136.992 136.024 136.88 136.023 136.879 130.866 129.729H130.865V129.728L130.783 129.614 130.782 129.613 130.047 128.593 130.046 128.592 129.963 128.478 129.962 128.477 126.626 123.851 126.621 123.845 126.121 123.151 126.116 123.144l-1.336-1.852L124.776 121.286 124.303 120.631 124.298 120.623 124.277 120.595 124.273 120.589 122.935 118.733 122.93 118.727 122.459 118.075 122.455 118.068 122.434 118.039 122.429 118.033 121.089 116.174 121.084 116.168 120.59 115.483 120.586 115.477l-1.343-1.861L119.239 113.61 118.772 112.963 118.769 112.958 118.743 112.922 117.397 111.057 117.393 111.051 116.929 110.407 116.926 110.403 116.903 110.372 116.899 110.366 115.552 108.498 115.548 108.492 115.085 107.851 115.06 107.816 115.056 107.81 113.706 105.939 113.702 105.933 113.242 105.295 113.24 105.293 113.216 105.26 113.212 105.255l-1.352-1.875L111.856 103.375 111.831 103.339 111.398 102.74 111.397 102.738 110.014 100.821 110.011 100.816 109.555 100.184 109.554 100.183 109.529 100.148 109.526 100.143l-1.357-1.8811L108.165 98.257 108.161 98.2518m44.203 61.2822L147.003 160.766M153.001 159.352V221.12M108.161 98.2518 108.158 98.2476 108.154 98.2414 108.14 98.2215 108.09 98.2681M108.161 98.2518 108.09 98.2681M108.14 97.169l-1.542 1.4379m0 0L106.586 98.6096 102.838 99.4606M106.598 98.6069 108.09 98.2681M153.062 221.103V220.87m0 0V159.339m0 61.531L158.504 219.634M108.15 97.1658 129.962 127.4 129.963 127.402 130.865 128.652 130.866 128.653 136.023 135.801V135.802L136.925 137.052 136.926 137.053 142.083 144.201 142.084 144.202 148.143 152.602H148.144L149.045 153.852 149.046 153.853l3.946 5.47m-44.84-62.1626L108.203 97.1447m50.211 60.9993L158.471 158.224 158.472 219.615 159.038 219.744M158.414 158.144 155.106 153.558 155.105 153.557 155.029 153.451 155.022 153.441 154.288 152.424 154.281 152.414 154.204 152.308 154.203 152.307 149.046 145.157 149.045 145.156 148.967 145.047 148.962 145.04 148.227 144.022 148.223 144.015 148.144 143.906 148.143 143.905 142.986 136.754H142.985L142.905 136.642 142.902 136.638 142.167 135.619 142.164 135.616 142.084 135.504 142.083 135.503 136.926 128.353 136.925 128.352 136.843 128.238 136.842 128.237 136.107 127.217 136.106 127.216 136.023 127.102 136.022 127.101 132.686 122.475 132.681 122.469 132.201 121.802 132.181 121.775 132.176 121.768 130.84 119.916 130.836 119.91 130.363 119.255 130.358 119.247 130.338 119.219 130.333 119.213 128.995 117.357 128.99 117.351 128.52 116.699 128.515 116.692 128.494 116.663 128.49 116.657 127.149 114.798 127.145 114.792 126.672 114.137 126.651 114.107 126.646 114.101l-1.343-1.861L125.299 112.234 124.833 111.587 124.803 111.546 123.458 109.681 123.453 109.675 122.989 109.031 122.986 109.027 122.963 108.996 122.959 108.99 121.612 107.122 121.608 107.116 121.146 106.475 121.143 106.472 121.116 106.434 119.766 104.563 119.762 104.557 119.302 103.919 119.3 103.917 119.276 103.884 119.273 103.878 117.92 102.004 117.917 101.999 117.459 101.363 117.457 101.362 117.433 101.328l-1.358-1.8832L116.071 99.4398 115.615 98.8076 115.614 98.8067 115.589 98.7721 115.586 98.7671 114.229 96.8859 114.225 96.881 114.222 96.8758m44.192 61.2682L153.063 159.374M159.062 157.976v61.768M114.222 96.8758 114.15 96.8921M114.222 96.8758 114.214 96.8653 114.2 96.8455 114.15 96.8921M114.2 95.793l-1.542 1.4378m0 0L112.646 97.2335 108.898 98.0846M112.658 97.2308 114.15 96.8921M159.122 219.727V219.494m0 0V157.962m0 61.532L164.564 218.258M114.21 95.7897l21.812 30.2343L136.023 126.026 136.926 127.276V127.277L142.083 134.425 142.084 134.426l6.059 8.399L148.144 142.826 149.045 144.076 149.046 144.077 154.203 151.225 154.204 151.226 159.052 157.947m-44.84-62.1626L114.263 95.7687m50.201 60.9853L164.532 156.848 164.533 218.239 164.589 218.252 165.098 218.368M164.464 156.754l-3.298-4.572V152.181L161.089 152.075 161.082 152.065 160.348 151.048 160.341 151.038 160.264 150.931 155.106 143.78H155.105L155.027 143.671 155.022 143.664 154.287 142.645 154.283 142.639 154.204 142.53 154.203 142.529 149.046 135.379 149.045 135.378 148.965 135.266 148.962 135.262 148.227 134.243 148.224 134.239 148.144 134.128 148.143 134.127 142.986 126.977 142.985 126.976 142.903 126.862 142.902 126.861 142.167 125.841 142.166 125.84 142.084 125.726 142.083 125.725 138.746 121.099 138.742 121.093 138.267 120.434 138.261 120.426 138.241 120.399 138.236 120.392 136.901 118.54 136.896 118.534 136.87 118.498 136.423 117.879 136.418 117.871 136.398 117.843 136.393 117.837 135.055 115.981 135.05 115.975 134.58 115.323 134.575 115.316 134.554 115.287 134.55 115.281 133.209 113.422 133.205 113.416 132.711 112.731 132.706 112.725 131.359 110.858 130.893 110.211 130.889 110.206 130.867 110.175 130.863 110.17 129.518 108.305 129.514 108.299 129.049 107.655 129.046 107.651 129.024 107.62 129.019 107.614 127.672 105.746 127.668 105.74 127.206 105.099 127.203 105.096 127.18 105.064 127.176 105.058 125.826 103.187 125.822 103.181 125.362 102.543 125.36 102.541 125.337 102.508 125.333 102.502 123.977 100.623 123.519 99.9874 123.517 99.9858 123.493 99.9519 123.489 99.9468l-1.354-1.878L122.131 98.0638 121.675 97.4316 121.674 97.4307 121.65 97.3961 121.646 97.391l-1.357-1.8811L120.286 95.505 120.282 95.4998m44.182 61.2542L159.123 157.981M165.122 156.6v61.768M120.282 95.4998 120.279 95.4956 120.274 95.4893 120.26 95.4695 120.21 95.5161M120.282 95.4998 120.21 95.5161M120.26 94.417l-1.542 1.4378m0 0L118.706 95.8574 114.958 96.7086M118.718 95.8548 120.21 95.5161M165.182 218.351V218.118m0 0V156.586m0 61.532L170.624 216.882M120.27 94.4137l21.813 30.2343L142.084 124.65 142.986 125.9V125.901L148.143 133.049 148.144 133.05 149.045 134.299 149.046 134.301 154.203 141.449 154.204 141.45l10.909 15.121M120.272 94.4084 120.323 94.3926m50.191 60.9714L170.592 155.472 170.593 216.863 171.158 216.992M170.514 155.364 167.226 150.806V150.805L167.149 150.699 167.142 150.689 166.408 149.671 166.401 149.662 166.324 149.555 161.166 142.404 161.087 142.294 161.082 142.288 160.348 141.269 160.343 141.263 160.264 141.154 160.263 141.153 155.106 134.002H155.105L155.025 133.89 155.022 133.886 154.287 132.867 154.284 132.863 154.204 132.752 154.203 132.751 149.046 125.601 149.045 125.6 148.963 125.486 148.962 125.485 148.227 124.465 148.226 124.464 148.144 124.35 148.143 124.349 144.807 119.723 144.802 119.717 144.327 119.058 144.321 119.05 144.301 119.023 144.297 119.016 142.961 117.164 142.956 117.158 142.93 117.122 142.483 116.503 142.478 116.495 142.453 116.461 141.115 114.605 141.111 114.599 140.64 113.947 140.635 113.94 140.614 113.911 139.269 112.046 139.265 112.04 138.792 111.385 138.771 111.355 138.766 111.349 137.424 109.487 137.419 109.482 136.953 108.835 136.949 108.83 136.927 108.799 136.923 108.793l-1.345-1.864L135.574 106.923 135.109 106.279 135.106 106.275 135.084 106.243 135.08 106.238 133.732 104.37 133.728 104.364 133.266 103.723 133.263 103.72 133.24 103.688 133.236 103.682 131.886 101.811 131.882 101.805 131.421 101.165 131.397 101.132 131.393 101.126 130.041 99.2517 130.037 99.2465 129.579 98.6114 129.578 98.6098 129.553 98.5759l-1.358-1.8831L128.191 96.6877 127.735 96.0556V96.0546L127.71 96.0201 127.706 96.015l-1.357-1.8811L126.346 94.129 126.342 94.1238m44.172 61.2402L165.183 156.589M171.182 155.224v61.768M126.342 94.1238 126.339 94.1195 126.334 94.1133 126.32 94.0934 126.27 94.14M126.342 94.1238 126.27 94.14M126.32 93.041 124.778 94.4788m0 0L124.766 94.4814 121.018 95.3326M124.778 94.4788 126.27 94.14m44.972 122.835V216.742m0 0V155.21m0 61.532L174.213 216.067l9.018 2.38m-56.9-125.4093 21.812 30.2343L148.144 123.274 149.045 124.523 149.046 124.525 154.203 131.673 154.204 131.674l12.12 16.799V148.474L167.226 149.724l3.947 5.471M126.332 93.0323 126.383 93.0165M132.402 92.7477 132.399 92.7435 132.394 92.7373 132.38 92.7174 132.33 92.7639M132.402 92.7477 132.406 92.7529 132.409 92.7577l1.357 1.8813L133.77 94.644 133.795 94.6786V94.6795L134.251 95.3117 134.255 95.3167 135.61 97.1946 135.638 97.2337 135.639 97.2354 136.071 97.8349 136.097 97.8705 136.101 97.8756 137.453 99.7504 137.481 99.7888 137.482 99.7912 137.943 100.429 137.946 100.435 139.324 102.344 139.326 102.347 139.788 102.988 139.792 102.993 141.14 104.862 141.144 104.867 141.167 104.899 141.17 104.903 141.634 105.547 141.638 105.553l1.345 1.864L142.987 107.423 143.01 107.454 143.013 107.459 143.479 108.106 143.484 108.111 144.827 109.973 144.831 109.979 145.325 110.664 145.329 110.67 146.67 112.529 146.674 112.535 146.695 112.564 146.7 112.571 147.171 113.223 147.175 113.229 148.513 115.085 148.518 115.091 148.538 115.119 148.544 115.127 149.016 115.782 149.021 115.788 150.357 117.64 150.361 117.647 150.862 118.341 150.867 118.347 154.203 122.973 154.204 122.974 154.286 123.088 154.287 123.089 155.022 124.109 155.023 124.11 155.105 124.224 155.106 124.225 160.263 131.375H160.264L160.345 131.487 160.347 131.491 161.082 132.51 161.085 132.514 161.166 132.626V132.627L166.324 139.777V139.778L166.403 139.887 166.408 139.893 167.142 140.912 167.147 140.918 167.226 141.027V141.028L172.384 148.179 172.461 148.286 172.468 148.295 173.202 149.313 173.209 149.323 173.286 149.429V149.43L176.564 153.974M132.402 92.7477 132.33 92.7639M132.38 91.665l-1.542 1.4378m0 0L130.827 93.1054 127.078 93.9565M130.838 93.1028 132.33 92.7639M132.391 91.6617l21.812 30.2343L154.204 121.898 155.106 123.148V123.149L160.263 130.297H160.264L161.166 131.548V131.549L166.324 138.697V138.698L167.226 139.947V139.948L172.384 147.097V147.098L177.233 153.819M132.392 91.6562 132.443 91.6405M138.462 91.3716 138.459 91.3675 138.455 91.3612 138.44 91.3414 138.39 91.3879M138.462 91.3716 138.39 91.3879M138.462 91.3716 138.469 91.3817 139.826 93.2629 139.83 93.2679 139.855 93.3026 139.856 93.3034 140.312 93.9356 140.315 93.9407 141.67 95.8186 141.674 95.8239 141.698 95.8576 141.699 95.8594 142.132 96.4588 142.157 96.4944 142.161 96.4996 143.513 98.3744 143.517 98.3797 143.541 98.4128 143.543 98.4152 144.003 99.0532 144.007 99.0585 145.357 100.93 145.36 100.936 145.384 100.968 145.848 101.612 145.852 101.617 147.2 103.486 147.204 103.491 147.227 103.523 147.23 103.527 147.694 104.171 147.698 104.176 149.043 106.041 149.048 106.047 149.07 106.078 149.073 106.083 149.514 106.694 149.54 106.73 149.544 106.735 150.887 108.597 150.891 108.603 151.385 109.288 151.39 109.294 152.73 111.153 152.735 111.159 152.756 111.188 152.76 111.195 153.231 111.847 153.235 111.853 154.573 113.708 154.578 113.715 154.599 113.743 154.604 113.75 155.076 114.406 155.081 114.412 156.417 116.264 156.422 116.271 156.441 116.298 156.922 116.964 156.927 116.971 160.263 121.597H160.264V121.598L160.346 121.712 160.347 121.713 161.082 122.733 161.083 122.734 161.166 122.848V122.849H161.167L166.323 129.999 166.324 130 166.405 130.111 166.407 130.115 167.142 131.134 167.145 131.138 167.226 131.25 167.227 131.251 172.384 138.401V138.402L172.463 138.511 172.468 138.517 173.202 139.536 173.207 139.542 173.286 139.651V139.652L178.444 146.803 178.521 146.91 178.528 146.919 179.262 147.937 179.269 147.947 179.346 148.053V148.054L182.614 152.585M138.44 90.2889l-1.542 1.4379m0 0L136.887 91.7294 133.138 92.5805M136.898 91.7268 138.39 91.3879M138.451 90.2855 160.263 120.52 160.264 120.521 161.166 121.772 161.167 121.773 166.323 128.92 166.324 128.922 167.226 130.171 167.227 130.172 172.384 137.321V137.322l6.06 8.399L178.445 145.722 183.293 152.443M138.452 90.2802 138.503 90.2645M144.522 89.9956 144.519 89.9915 144.515 89.9851 144.5 89.9653 144.451 90.0119M144.522 89.9956 144.451 90.0119M144.522 89.9956 144.53 90.0057 145.887 91.8869 145.89 91.8919 145.915 91.9266 145.916 91.9274 146.372 92.5596 146.375 92.5647 147.758 94.4816 147.759 94.4833 148.217 95.1183 148.221 95.1236l1.352 1.8746L149.577 97.0037 149.601 97.0367 149.603 97.0392 150.063 97.6772 150.067 97.6825 151.417 99.554 151.421 99.5595 151.444 99.5918 151.446 99.595 151.909 100.236 151.913 100.241 153.26 102.11 153.264 102.115 153.287 102.147 153.29 102.151 153.728 102.759 153.754 102.795 153.758 102.8 155.103 104.665 155.13 104.702 155.133 104.707 155.6 105.353 155.604 105.359 156.947 107.221 156.951 107.227 157.445 107.912 157.45 107.918 158.79 109.777 158.795 109.783 158.816 109.812 158.82 109.819 159.291 110.471 159.295 110.477 160.634 112.332 160.638 112.339 160.659 112.367 160.664 112.374 161.137 113.03 161.141 113.036 162.477 114.888 162.482 114.895 162.502 114.922 162.982 115.588 162.987 115.595 166.323 120.22 166.324 120.222 166.406 120.336 166.407 120.337 167.143 121.356 167.144 121.358 167.226 121.472 167.227 121.473 172.383 128.623 172.384 128.624 172.465 128.735 172.468 128.739 173.203 129.758 173.206 129.762 173.286 129.874 178.444 137.025V137.026L178.523 137.135 178.528 137.141 179.262 138.16 179.267 138.166 179.346 138.275 179.347 138.276 188.664 151.195M144.5 88.9128l-1.542 1.4379m0 0L142.947 90.3534 139.199 91.2045M142.958 90.3507 144.451 90.0119M144.511 88.9095l21.812 30.2345L166.324 119.145 167.226 120.395 167.227 120.397 172.383 127.544 172.384 127.546 178.444 135.945V135.946l10.909 15.121M144.512 88.9042 144.563 88.8885M150.583 88.6196 150.58 88.6154 150.561 88.5892 150.511 88.6359M150.583 88.6196 150.511 88.6359M150.583 88.6196 150.59 88.6297 151.947 90.5109 151.95 90.5159 151.975 90.5505 151.976 90.5514 152.432 91.1836 152.435 91.1886 153.79 93.0666 153.794 93.0717 153.818 93.1056 153.819 93.1073 154.277 93.7423 154.281 93.7476l1.352 1.8746L155.637 95.6277 155.661 95.6607 155.663 95.6632 156.123 96.3011 156.127 96.3065 157.477 98.178 157.481 98.1835 157.504 98.2157 157.506 98.219 157.969 98.8599 157.973 98.8654 159.347 100.771 159.35 100.775 159.814 101.419 159.818 101.424 161.164 103.289 161.19 103.326 161.193 103.331 161.66 103.977 161.664 103.983 163.007 105.845 163.011 105.851 163.505 106.536 163.51 106.542 164.85 108.401 164.855 108.407 164.876 108.436 164.88 108.442 166.694 110.956 166.698 110.963 166.719 110.991 166.724 110.998 167.171 111.618 167.197 111.654 167.201 111.66 168.537 113.512 168.542 113.519 168.562 113.546 168.568 113.554 169.017 114.177 169.047 114.219 172.383 118.844 172.384 118.845V118.846L172.467 118.96V118.961L173.203 119.98 173.204 119.982 173.286 120.096V120.097H173.287L178.444 127.247V127.248L179.263 128.382 179.266 128.386 179.346 128.498l11.914 16.517L191.262 145.018 194.715 149.805M150.561 87.5368l-1.542 1.4378m0 0L150.511 88.6359M149.019 88.9746 145.259 89.8284M150.571 87.5335l21.812 30.2345L172.384 117.769 173.286 119.02 173.287 119.021 178.444 126.168V126.17l16.969 23.521m-44.84-62.1628L150.624 87.5124M156.643 87.2436 156.64 87.2393 156.635 87.2331 156.621 87.2132 156.571 87.2598M156.643 87.2436 156.646 87.2487 156.65 87.2536l1.357 1.8813L158.01 89.1399 158.035 89.1744 158.036 89.1754 158.466 89.772 158.492 89.8076 158.496 89.8125 159.85 91.6905 159.878 91.7296 159.88 91.7312 160.338 92.3663 160.341 92.3715 161.694 94.2462 161.697 94.2517 161.721 94.2846 161.723 94.2871 162.183 94.9251 162.187 94.9305 163.537 96.802 163.541 96.8075 163.564 96.8397 163.567 96.843 165.38 99.3576 165.384 99.3633 165.407 99.3948 165.41 99.3988 165.849 100.007 165.874 100.043 165.879 100.048 167.224 101.913 167.228 101.919 167.25 101.95 167.254 101.955 167.694 102.566 167.72 102.601 167.724 102.607 169.067 104.469 169.072 104.475 169.093 104.505 169.566 105.16 169.57 105.166 170.911 107.025 170.915 107.031 170.936 107.06 170.941 107.066 171.411 107.719 171.416 107.725 172.754 109.58 172.758 109.587 172.779 109.615 172.784 109.622 173.257 110.278 173.261 110.284 174.597 112.136 174.602 112.143 174.622 112.17 174.628 112.178 178.443 117.468 178.444 117.47 178.527 117.584 178.528 117.585 179.263 118.604 179.264 118.606 179.346 118.72H179.347V118.721l11.163 15.476L190.524 134.217 191.348 135.359 191.36 135.376 200.765 148.415M156.643 87.2436 156.571 87.2598M156.621 86.1608 155.079 87.5986m0 0L155.067 87.6012 151.319 88.4524M155.079 87.5986 156.571 87.2598M156.631 86.1575l21.812 30.2345L178.445 116.393 179.347 117.644l22.126 30.671m-44.84-62.1629L156.684 86.1363M162.703 85.8675 162.7 85.8633 162.695 85.8571 162.681 85.8372 162.631 85.8838M162.703 85.8675 162.706 85.8727 162.71 85.8776l1.357 1.8811L164.071 87.7639 164.096 87.7984V87.7993L164.552 88.4316 164.556 88.4365 165.91 90.3145 165.938 90.3536 165.94 90.3552 166.398 90.9903 166.401 90.9954 167.754 92.8702 167.781 92.9086 167.783 92.911 168.243 93.549 168.247 93.5544 169.624 95.4637 169.627 95.467 170.089 96.1078 170.093 96.1133 171.44 97.9816 171.445 97.9873 171.467 98.0187 171.47 98.0228 171.935 98.6665 171.939 98.6722l1.345 1.8648L173.288 100.543 173.31 100.574 173.314 100.579 173.78 101.225 173.784 101.231 175.127 103.093 175.132 103.099 175.153 103.129 175.6 103.748 175.626 103.784 175.63 103.79 176.971 105.649 176.975 105.655 176.996 105.684 177.001 105.69 177.446 106.307 177.471 106.343 177.476 106.349 178.814 108.204 178.819 108.211 178.839 108.239 178.844 108.246 179.317 108.902 179.322 108.908 180.657 110.76 180.662 110.767 181.163 111.46 181.167 111.467l25.648 35.558M162.703 85.8675 162.631 85.8838m44.184 61.1412L206.953 147.216V147.22 147.231v14.382M206.815 147.025 201.495 148.247m5.458 13.366V161.623M206.953 161.613 201.544 162.841M162.681 84.7848l-1.542 1.4378m0 0L161.127 86.2252 157.379 87.0763M161.139 86.2226 162.631 85.8838M162.691 84.7815l44.842 62.1565m-44.84-62.1619L162.744 84.7603M168.763 84.4915 168.76 84.4873 168.755 84.4811 168.741 84.4612 168.691 84.5078M168.763 84.4915 168.691 84.5078M168.763 84.4915 168.77 84.5015 170.127 86.3827 170.131 86.3878 170.156 86.4224V86.4233L170.612 87.0554 170.616 87.0605 172 88.9792 172.458 89.6143 172.462 89.6194l1.352 1.8747L173.818 91.4995 173.842 91.5326 173.843 91.535 174.303 92.173 174.307 92.1784 175.657 94.0498 175.661 94.0554 175.685 94.0877 175.687 94.0909 176.149 94.7318 176.153 94.7373 177.501 96.6056 177.505 96.6113 177.527 96.6427 177.53 96.6468 177.995 97.2905 177.999 97.2962 179.348 99.1671 179.37 99.1978 179.374 99.2026 181.187 101.717 181.192 101.723 181.213 101.753 181.66 102.372 181.686 102.408 181.69 102.414 183.031 104.273 183.035 104.279 183.056 104.308 183.061 104.314 183.531 104.967 183.536 104.973 184.874 106.828 184.879 106.835 184.899 106.863 184.904 106.87 185.377 107.526 185.382 107.532l27.483 38.103m0 0L213.013 145.84v14.397M212.865 145.635 207.545 146.857M213.013 160.237V160.247M213.013 160.237 207.604 161.465M168.741 83.4087l-1.542 1.4379m0 0L167.283 84.8276V84.8275L168.691 84.5078M167.199 84.8466 167.187 84.8492 163.439 85.7003M168.752 83.4054l44.842 62.1566M168.753 83.4 168.804 83.3843M174.823 83.1155 174.82 83.1113 174.815 83.105 174.801 83.0852 174.751 83.1318M174.823 83.1155 174.751 83.1318M174.823 83.1155 174.83 83.1255 176.187 85.0067 176.191 85.0118 176.216 85.0464V85.0473L176.672 85.6794 176.676 85.6845 178.059 87.6014 178.06 87.6031 178.518 88.2382 178.522 88.2434l1.352 1.8747L179.878 90.1235 179.902 90.1565 179.904 90.159 180.364 90.797 180.368 90.8024 181.717 92.6738 181.721 92.6793 181.745 92.7117 181.747 92.7149 182.184 93.3201 182.209 93.3558 182.213 93.3613 183.561 95.2295 183.565 95.2353 183.588 95.2667 183.59 95.2707 184.055 95.9145 184.059 95.9202 185.404 97.7852 185.408 97.7911 185.43 97.8218 185.434 97.8266 185.9 98.4732 185.905 98.4792 187.248 100.341 187.252 100.347 187.273 100.377 187.278 100.382 187.746 101.032 187.75 101.038 189.091 102.897 189.095 102.903 189.116 102.932 189.121 102.938l26.389 36.586 3.405 4.721m0 0L219.073 144.464v14.397M218.915 144.245 213.595 145.467M219.073 158.861V158.871M219.073 158.861 213.664 160.089M174.801 82.0327l-1.542 1.4378m0 0L173.247 83.4732 169.499 84.3243M173.259 83.4705 174.751 83.1318M174.812 82.0294l44.842 62.1566M174.813 82.024 174.864 82.0083M180.883 81.7394 180.88 81.7353 180.861 81.7091 180.811 81.7557M180.883 81.7394 180.887 81.7447 180.89 81.7495 182.247 83.6307 182.251 83.6357 182.276 83.6704 182.277 83.6713 182.733 84.3034 182.736 84.3085 184.091 86.1863 184.094 86.1916 184.119 86.2254 184.12 86.2271 184.578 86.8622 184.582 86.8674 185.934 88.7421 185.938 88.7475 185.962 88.7805 185.964 88.7829 186.424 89.4209 186.428 89.4263 187.778 91.2978 187.782 91.3033 187.805 91.3355 187.807 91.3388 189.621 93.8534 189.625 93.8592 189.648 93.8906 189.651 93.8947 190.089 94.5029 190.115 94.5385 190.119 94.5442 191.464 96.4092 191.494 96.4506 191.961 97.0972 191.965 97.1031 193.806 99.656 193.811 99.6621 195.928 102.598M180.883 81.7394 180.811 81.7557m15.117 20.8423H195.929L196.579 102.45 196.594 102.447M195.928 102.598 194.207 102.989M180.861 80.6566l-1.542 1.4379m0 0L179.308 82.0971 175.559 82.9483M179.319 82.0945 180.811 81.7557M180.872 80.6534l15.722 21.7936m0 0L196.662 102.431H196.663L201.783 101.269 202.14 101.765M180.873 80.648 180.924 80.6322M186.943 80.3634 186.94 80.3591 186.936 80.3529 186.921 80.333 186.872 80.3796M186.943 80.3634 186.947 80.3686 186.951 80.3734 188.307 82.2547 188.311 82.2597 188.336 82.2943 188.337 82.2952 188.796 82.9323 190.151 84.8103 190.179 84.8494 190.18 84.8511 190.638 85.4861 190.642 85.4913l1.352 1.8747L191.998 87.3714 192.022 87.4045 192.024 87.4069 192.484 88.0449 192.488 88.0502 193.865 89.9595 193.867 89.9628 194.329 90.6036 194.334 90.6092 195.681 92.4774 195.685 92.4831 195.708 92.5146 195.711 92.5187 196.175 93.1624 196.179 93.1681 197.529 95.0391 197.551 95.0697 197.554 95.0745 198.021 95.7212 198.025 95.727 202.259 101.597M186.943 80.3634 186.872 80.3796m15.387 21.2174V101.596L202.624 101.078M202.259 101.597 202.14 101.765M186.921 79.2806l-1.541 1.4379m0 0L185.368 80.7211 181.62 81.5722M185.38 80.7185 186.872 80.3796M186.932 79.2773l15.722 21.7937m0 0L202.722 101.055H202.723L208.049 99.8459M202.654 101.071 202.639 101.074 202.624 101.078M186.933 79.2719 186.984 79.2562M193.003 78.9873 193 78.9831 192.996 78.9769 192.982 78.957 192.932 79.0036M193.003 78.9873 193.007 78.9925 193.011 78.9974 194.368 80.8786 194.371 80.8836 194.396 80.9182 194.397 80.9191 194.853 81.5513 194.856 81.5563 196.239 83.4733 196.24 83.475 196.698 84.1101 196.702 84.1153 198.054 85.99 198.058 85.9954 198.082 86.0284 198.084 86.0309 198.544 86.6689 198.548 86.6742 200.39 89.2276 200.394 89.2331 201.741 91.1014 201.745 91.1071 201.768 91.1386 201.771 91.1426 202.235 91.7863 202.239 91.7921l5.81 8.0538M193.003 78.9873 192.932 79.0036m15.117 20.8423L208.05 99.8456 208.715 99.6947M192.982 77.9045l-1.542 1.4379m0 0L191.428 79.3451 187.68 80.1961M191.44 79.3424 192.932 79.0036M192.992 77.9013l15.723 21.7934m0 0L208.782 99.6793 208.783 99.6791 210.199 99.3576 210.557 99.8535M192.994 77.8959 193.045 77.8802M199.064 77.6113 199.061 77.6071 199.056 77.6009 199.042 77.581 198.992 77.6276M199.064 77.6113 198.992 77.6276M199.064 77.6113 199.071 77.6214 200.428 79.5026 200.431 79.5076 200.456 79.5422 200.457 79.5431 200.913 80.1753 200.917 80.1803 202.299 82.0973 202.3 82.099 202.733 82.6985 202.759 82.7341 202.762 82.7393 204.115 84.6139 204.118 84.6194 204.142 84.6523 204.144 84.6549 204.604 85.2929 204.608 85.2982 205.958 87.1697 205.962 87.1752 205.985 87.2075 205.988 87.2107 206.45 87.8516 206.454 87.8571l7.655 10.6128m0 0L214.11 98.4697 214.759 98.3223 214.775 98.3187M214.109 98.4699 211.041 99.1664M199.042 76.5285 197.5 77.9664m0 0L197.488 77.969 193.74 78.8201M197.5 77.9664 198.992 77.6276M199.052 76.5252l15.723 21.7935m0 0L214.842 98.3033 214.843 98.3031 218.616 97.4464 233.63 118.264M199.054 76.5199 199.105 76.5042M205.124 76.2353 205.121 76.2311 205.116 76.2248 205.102 76.205 205.052 76.2516M205.124 76.2353 205.127 76.2405 205.131 76.2454 206.488 78.1265 206.491 78.1316 206.516 78.1662 206.517 78.1671 206.973 78.7993 206.977 78.8043 208.359 80.7213 208.361 80.7229 208.819 81.358 208.822 81.3632 210.175 83.2379 210.179 83.2433 210.202 83.2763 210.204 83.2789 210.664 83.9167 210.668 83.9222l30.64 42.4788V126.402L244.08 130.244 244.915 131.402 244.925 131.417 245.172 131.758 245.179 131.768 247.229 134.61 249.162 137.29 249.166 137.296M205.124 76.2353 205.052 76.2516m44.114 61.0444L249.374 137.584V151.98M249.166 137.296 243.846 138.518M249.374 151.98V151.991M249.374 151.98 243.965 153.209M205.102 75.1525l-1.542 1.4378m0 0L203.548 76.593 199.8 77.4441M203.56 76.5903 205.052 76.2516M205.113 75.1492l42.125 58.3918L247.245 133.551 249.954 137.306m-44.84-62.1621L205.165 75.1281M211.184 74.8593 211.181 74.8551 211.162 74.8289 211.112 74.8756M211.184 74.8593 211.188 74.8645 211.191 74.8694l1.357 1.8811L212.552 76.7556 212.577 76.7902V76.7911L213.033 77.4232 213.037 77.4283 214.391 79.3063 214.395 79.3114 214.42 79.3453 214.421 79.3469l28.116 38.9801V118.328L247.23 124.835 247.246 124.857l4.221 5.851L251.506 130.762 251.832 131.215 251.837 131.221 252.44 132.057 252.444 132.063 254.618 135.076 254.654 135.127 255.216 135.906M211.184 74.8593 211.112 74.8756m44.104 61.0304L255.434 136.208v14.396M255.216 135.906 249.896 137.128M255.434 150.604V150.615M255.434 150.604 250.037 151.83 250.025 151.833M211.162 73.7765l-1.542 1.4378m0 0L209.608 75.217 205.86 76.0681M209.62 75.2143 211.112 74.8756M211.173 73.7732l39.036 54.1098L250.252 127.942 256.015 135.93M211.174 73.7678 211.225 73.752M217.244 73.4832 217.241 73.479 217.236 73.4728 217.222 73.4529 217.172 73.4995M217.244 73.4832 217.248 73.4884 217.251 73.4932l1.357 1.8813L218.612 75.3795 218.637 75.4141V75.4151L219.068 76.0116 219.093 76.0472 219.097 76.0522l29.127 40.3818L248.234 116.447 249.057 117.589 249.075 117.614 252.441 122.281 252.454 122.299l1.452 2.012L257.268 128.973 257.291 129.005 259.055 131.451 259.06 131.457 259.224 131.684 261.256 134.501 261.266 134.516M217.244 73.4832 217.172 73.4995M217.222 72.4005 215.68 73.8383m0 0L215.669 73.8409 211.92 74.6921M215.68 73.8383 217.172 73.4995M217.233 72.3972 256.264 126.5 256.269 126.507 261.962 134.398 262.061 134.536 262.075 134.554M217.234 72.3917 217.285 72.376M223.304 72.1071 223.301 72.103 223.297 72.0968 223.282 72.0769 223.232 72.1234M223.304 72.1071 223.232 72.1234M223.304 72.1071 223.311 72.1172l38.717 53.6768L262.061 125.84 262.264 126.122 262.277 126.139 263.954 128.464 263.955 128.466 265.31 130.345 265.893 131.152 265.909 131.175 267.316 133.125V133.126m0 0L267.554 133.455v14.397m-.238-14.726L261.996 134.348M267.554 147.852V147.863M267.554 147.852 267.4 147.887 262.145 149.081M223.282 71.0245l-1.542 1.4378m0 0L221.729 72.4649 217.98 73.316M221.74 72.4623 223.232 72.1234M223.293 71.0211l33.961 47.0749L257.255 118.098 262.061 124.759 262.089 124.797 268.075 133.095 268.135 133.178M223.294 71.0157 223.345 71m-46.781 82.974L176.652 154.096v14.397M176.564 153.974 171.243 155.197M176.652 168.493V168.503M176.652 168.493 174.214 169.046M177.242 153.848v14.784M177.302 168.617V153.834M182.614 152.585 182.712 152.72v14.397M182.614 152.585 177.294 153.807M182.712 167.117V167.127M182.712 167.117 179.273 167.898 179.262 167.9 177.303 168.345m5.999-15.873v14.784m5.362-16.061L188.772 151.344v14.397M188.664 151.195 183.344 152.417m5.428 13.324V165.751M188.772 165.741 183.363 166.969m5.999-15.873V165.88M194.715 149.805 194.832 149.968 194.833 164.365M194.715 149.805 189.394 151.027M194.833 164.365V164.375M194.833 164.365 189.423 165.593m5.999-15.873v14.784M200.765 148.415 200.892 148.592 200.893 162.989M200.765 148.415 195.445 149.637M200.893 162.989V162.999M200.893 162.989 195.483 164.217m6-15.873v14.784M201.543 163.113V148.33M207.543 146.968v14.784m6.06-16.16v14.784m6.06-16.16V159M224.965 142.855 225.133 143.088v14.396M224.965 142.855 221.533 138.097 221.525 138.086l-10.01-13.879L208.448 124.903m16.517 17.952L219.645 144.077m5.488 13.407V157.495M225.133 157.484 219.724 158.713M225.723 142.84v14.783M225.783 157.609V142.826M231.015 141.465 230.969 141.401 230.955 141.381 229.278 139.056 227.596 136.725 227.593 136.721l-10.018-13.89L216.865 122.992m14.15 18.473L231.193 141.712v14.396M231.015 141.465 225.695 142.688M231.193 156.108V156.119M231.193 156.108 225.784 157.337m5.999-15.873v14.784M237.066 140.075 237.033 140.031 233.656 135.349 233.648 135.337l-10.013-13.882L218.307 122.665m18.759 17.41L237.253 140.336 237.254 154.732M237.066 140.075 231.745 141.298M237.254 154.732V154.743M237.254 154.732 231.844 155.961m5.999-15.873v14.783M237.904 154.857V140.074M243.116 138.686 243.098 138.66l-2.28-3.16L239.71 133.963 239.689 133.935l-9.994-13.856L225.282 121.081m17.834 17.605L243.313 138.96 243.314 153.356M243.116 138.686 237.796 139.908m5.518 13.448V153.367M243.314 153.356 237.904 154.585m5.999-15.873v14.783M243.964 153.481V138.698M249.964 137.336v14.783m6.06-16.159v14.783M256.084 150.729V135.946M261.266 134.516 261.494 134.832v14.396M261.266 134.516 255.946 135.738M261.494 149.228V149.239M261.494 149.228 261.452 149.238 256.929 150.265 256.891 150.273 256.085 150.457M262.084 134.584v14.783M262.144 149.353V134.57m6-1.363v14.784M268.204 147.977V133.194m-93.991 40.837v39.876l9.018 2.048m0 0V218.447M183.231 215.955 186.839 215.135M183.231 215.955V176.079m3.608 39.056 90.06-20.449m-90.06 20.449V211.035 211.029m142.365-32.617L338.823 180.596m0 0L342.43 179.777V139.93M338.823 180.596V140.75M342.424 139.932V134.947m0 0L332.805 132.763 328.41 133.761M342.424 134.947 183.232 171.094M328.41 133.761V133.714M328.41 133.761 286.323 143.317 286.276 143.328 268.205 147.431m-84.973 23.663-9.018-2.048m9.018 2.048V176.078M186.84 175.259 196.037 173.171 196.061 173.165 196.067 173.164l72.175-16.388L268.266 156.771 268.285 156.766 268.91 156.624m-94.696 12.422V174.031M328.2 176.893 326.017 177.396M328.2 176.893 328.195 143.163M328.2 176.893V177.883L329.029 178.072m0 0L329.204 178.032M329.029 178.072 329.035 142.972m-21.667-13.048v-.988m0 .988L308.354 129.7 309.556 129.433 310.374 129.618M307.368 129.924 286.985 134.552 268.205 138.817m39.163-9.881L306.55 128.75 305.354 129.011 304.362 129.236M307.368 128.936 306.19 129.209 286.325 133.716 286.275 133.727 268.205 137.827M304.362 129.236V128.256M304.362 129.236l-17.348 3.941L286.962 133.188 286.325 133.333 286.275 133.345 268.205 137.449M328.41 133.714 327.232 133.987 286.323 143.276 286.276 143.286 268.205 147.39m60.205-13.676L327.593 133.528 325.404 134.025M325.199 176.209V176.265L325.2 177.15V177.21L326.017 177.396M325.199 176.209 325.19 143.845M325.199 176.209 323.017 176.707M326.017 177.396V143.657M325.404 134.025v-.994m0 .994-57.199 12.983m57.199-13.977L324.22 133.294 286.323 141.899 286.276 141.91 268.205 146.013m57.199-12.982L324.587 132.845 323.39 133.106 322.398 133.331M322.182 175.522 320.005 176.031M322.182 175.522V144.528m0 30.994V176.509L323.017 176.707m0 0L323.022 144.337M313.17 173.48 313.165 146.575M313.17 173.48V174.471L314.005 174.652 316.176 174.162M313.17 173.48 310.987 173.983M316.176 174.162 316.171 145.893M316.176 174.162V175.153L317.005 175.342m-36.691-52.549L279.111 123.068 263.475 126.62m16.839-3.827V123.776M280.314 122.793 279.484 122.607 278.3 122.868 277.308 123.093m45.09 10.238V132.349M322.398 133.331l-35.556 8.077L286.803 141.417 268.205 145.641m54.193-13.292L321.22 132.622 286.822 140.432l-18.617 4.227m54.193-12.31L321.581 132.163 320.39 132.417 319.392 132.643M319.182 174.845V174.901 175.836L320.005 176.031M319.182 174.845 319.177 145.21M319.182 174.845 317.005 175.342M320.005 176.031 320.015 145.02m-18.87 25.73L301.142 149.305M301.145 170.75 301.146 171.74 301.969 171.936M301.145 170.75 298.963 171.253M301.969 171.936 304.151 171.433M301.969 171.936 301.976 149.116M304.151 171.433 304.148 148.623M304.151 171.433 304.152 172.423 304.981 172.611M298.35 127.876v-.988m0 .988L299.336 127.653 300.526 127.385 301.356 127.571M298.35 127.876l-30.145 6.845m30.145-7.833L297.532 126.702 296.318 126.975 295.344 127.197M298.35 126.888 297.172 127.161l-10.065 2.286L287.091 129.45 268.288 133.72 268.205 133.738m27.139-6.541v-.991m0 .991L287.107 129.067 287.099 129.068 268.205 133.358M319.392 132.643V131.666M319.392 132.643 286.324 140.158 286.276 140.169 268.205 144.275m51.187-12.609L318.202 131.939 286.324 139.173 286.276 139.184l-18.071 4.101m51.187-11.619L318.574 131.48 317.372 131.748 316.386 131.972M317.005 175.342 317.01 145.703m-15.654-17.144v-.988m0 .988L302.342 128.335 303.544 128.068 304.362 128.256M301.356 128.559 268.205 136.086M301.356 127.571 300.178 127.844 268.205 135.103m48.181-3.131V130.986M316.386 131.972 286.899 138.667 286.856 138.677 268.205 142.912m48.181-11.926L315.556 130.798 314.366 131.065 313.38 131.289M316.386 130.986 315.208 131.256l-28.884 6.559L286.276 137.826 268.205 141.929m45.175-10.64v-.988m0 .988L286.324 137.43 286.275 137.441l-18.07 4.102M271.084 156.131 271.085 163.924M271.084 156.131 268.91 156.624M271.084 156.131 271.916 155.942M271.085 163.924V164.915L271.915 165.103M271.085 163.924 268.909 164.421M271.915 165.103 274.085 164.608M271.915 165.103 271.916 155.942M274.085 164.608V155.449M274.085 164.608V165.588L274.927 165.779M265.284 120.368V119.383M265.284 120.368 267.448 119.877 268.29 120.068M265.284 120.368 259.855 121.601M265.284 119.383 264.466 119.194 263.264 119.465 262.278 119.688M265.284 119.383 264.105 119.653l-4.834 1.098L259.246 120.756M262.278 119.688v-.991m0 .991L259.011 120.43M292.338 126.511V125.526M292.338 126.511 293.324 126.287 294.514 126.02 295.344 126.206M292.338 126.511 288.289 127.431 287.108 127.699 287.068 127.708 267.469 132.158M292.338 125.526 291.508 125.337 290.318 125.61 289.497 125.797M292.338 125.526 291.136 125.796l-24.278 5.515M289.497 125.797V124.878M289.497 125.797 288.292 126.07 288.268 126.076 287.111 126.338 287.095 126.342 266.624 130.986M313.38 130.301 312.562 130.115 310.374 130.612M313.38 130.301l-45.175 10.261m41.964 32.234L307.981 173.301M310.169 172.796 310.162 147.257M310.169 172.796 310.17 173.798 310.987 173.983m0 0L310.995 147.068m-15.651-20.862L294.166 126.479l-26.46 6.008m30.439 37.579L295.957 170.571M298.145 170.066 298.139 149.987M298.145 170.066 298.146 171.067 298.963 171.253m0 0L298.97 149.799m11.404-19.187v-.994m0 .994-24.05 5.459L286.275 136.082l-18.07 4.101m42.169-10.565L309.184 129.872 286.324 135.07 286.275 135.082 268.205 139.191m38.952 32.924L307.154 147.94M307.157 172.115 307.158 173.106 307.981 173.301M307.157 172.115 304.981 172.611M307.981 173.301V147.753M268.29 121.045V120.068M268.29 121.045 269.282 120.82 270.478 120.559 271.296 120.745M268.29 121.045 260.698 122.769M268.29 120.068 267.099 120.316 260.08 121.913m44.901 50.698L304.985 148.433m-33.689-26.711V120.745M271.296 121.722 272.294 121.496 273.46 121.242 274.302 121.43M271.296 121.722 261.542 123.939M271.296 120.745 270.105 120.999l-9.178 2.087m43.435 5.17L303.178 128.517 287.034 132.185l-18.829 4.279m26.928 32.921L295.131 150.671M295.133 169.385 295.134 170.375 295.957 170.571M295.133 169.385 292.951 169.888M295.957 170.571 295.963 150.481m-15.649-26.705L281.306 123.55 282.49 123.29 283.32 123.478M280.314 123.776l-16.231 3.687M277.308 123.093V122.11M277.308 123.093l-14.071 3.196M262.278 118.697 261.448 118.512 260.258 118.779 259.272 119.003M262.278 118.697 261.099 118.97 258.4 119.583M259.272 119.003V118.018M259.272 119.003 258.163 119.255m30.956 32.781L289.121 167.926V167.975 168.095M289.119 152.036 287.105 152.493M289.119 152.036 289.95 151.847M289.121 168.095V169.01L289.945 169.206M289.121 168.095 287.104 168.56M289.945 169.206 292.127 168.702M289.945 169.206 289.95 151.847M292.127 168.702 292.125 151.353M292.127 168.702V169.693L292.951 169.888M289.95 151.847 292.125 151.353M292.951 169.888V151.165M289.497 124.878 288.679 124.692 287.478 124.959M289.497 124.878 288.293 125.151M287.478 124.959 286.326 125.22M287.478 124.959l-21.633 4.947M286.326 125.22v-1.062m0 1.062L265.808 129.855M283.32 124.464V123.478M283.32 124.464 284.306 124.24 285.508 123.972 286.326 124.158M283.32 124.464 264.931 128.639M283.32 123.478 282.142 123.748l-17.822 4.044m22.006-3.634L285.147 124.431 265.168 128.967m17.935 37.688V153.401m0 13.254V167.635L283.106 167.636 283.945 167.826M283.103 166.655 280.939 167.144M283.945 167.826 286.28 167.299M283.945 167.826V153.21M280.097 154.084v11.888m0-11.888L277.933 154.575M280.097 154.084 280.939 153.893M280.097 165.972V166.953L280.939 167.144M280.097 165.972 277.933 166.461M280.939 167.144V153.893M277.091 154.767V165.29m0-10.523L274.927 155.258M277.091 154.767 277.933 154.575M277.091 165.29V166.27L277.933 166.461M277.091 165.29 274.927 165.779M277.933 166.461V154.575m-.625-32.465L276.123 122.374 262.625 125.441m14.683-3.331L276.478 121.925 275.294 122.185 274.302 122.411M274.085 155.449 271.916 155.942M274.085 155.449 274.927 155.258m0 10.521V155.258m-.625-32.847V121.43M274.302 122.411l-11.911 2.705M274.302 121.43l-12.52 2.842M268.266 164.275 268.302 164.283 268.909 164.421M268.266 164.275V164.724l-72.133 16.379V179.873L268.242 163.5 268.266 163.494V164.275zM268.909 164.421 268.91 156.624M259.272 118.018 258.087 118.278 257.547 118.401M259.272 118.018 258.442 117.829 257.318 118.082m29.786 50.478L286.28 168.365v-1.066M287.104 168.56v-.381m0 0L287.115 168.177M287.104 168.179 287.105 152.493M34.6498 145.473 39.0602 146.474 39.0612 146.475l6.0591 1.375L45.1214 147.851l6.0591 1.375L51.1815 149.227l6.0592 1.375L57.2416 150.603l6.0593 1.375L63.3018 151.979 69.3611 153.355H69.3619l6.0594 1.376H75.4221L81.4814 156.107H81.4822l6.0594 1.376H87.5424L121.031 165.087 121.812 166.171V166.494L81.4822 157.336H81.4814L75.4221 155.96H75.4213l-6.0594-1.376H69.3612l-6.0594-1.376H63.3009l-6.0593-1.376H57.2407L51.1816 150.456H51.1806L45.1214 149.08H45.1203l-6.0591-1.376H39.0601L33.9032 146.533 33.8923 146.53 33.8683 146.525M34.6498 145.473 33.8683 146.202V146.525M34.6498 145.473 33.9036 146.477M33.8683 146.525 33.8923 146.493 33.9031 146.479 33.9036 146.477M104.45 212.972V213.187L104.474 213.193 121.812 217.13V215.9L104.474 211.963 104.45 211.958V212.972zm0 0-7.5515-1.714V180.13m7.5515 31.323V211.726M104.45 211.453V210.625L104.474 210.631 121.812 214.568V215.797L104.474 211.86 104.45 211.855V211.726M104.45 211.453l-6.0265-1.368M104.45 211.726 97.8222 210.222M104.45 182.152v.387L121.812 186.482V185.252l-82.7508-18.79H39.0605L33.9035 165.291 33.8683 165.283V166.513L33.8923 166.518 33.9026 166.521H33.9034l60.8548 13.818V179.611L104.45 181.811V182.152zm0 0L100.49 181.253 100.48 181.251 99.7466 181.084 99.7368 181.082 98.4015 180.778M224.924 120.585 225.282 121.081M224.924 120.585 224.627 121.007 224.44 121.272 224.368 121.289M224.924 120.585 225.201 120.192 225.213 120.175M225.282 121.081 226.055 119.984M230.428 119.913 232.857 119.361 233.63 118.264m0 0L232.29 118.568 232.282 118.57l-6.227 1.414M211.041 99.1664 210.557 99.8535M211.041 99.1664l15.014 20.8176M210.557 99.8535l14.656 20.3215M226.168 119.364 211.891 99.568 214.477 98.9807 214.478 98.9805 215.211 98.8142 215.212 98.814 218.504 98.0665M216.508 122.496 216.865 122.992M216.508 122.496 216.796 122.086M216.508 122.496 216.024 123.183 212.247 124.041M216.865 122.992 217.638 121.895M225.213 120.175 217.638 121.895m0 0-15.014-20.817M202.14 101.765l14.656 20.321m-6.709-22.1084L209.151 100.19H209.15L208.418 100.357H208.417L203.474 101.479l14.277 19.796L223.32 120.01 223.344 120.005 224.342 119.778 224.364 119.773 210.428 100.45m6.368 21.636L216.775 122.091l-7.554 1.715m-15.014-20.817L193.435 104.086l15.013 20.817m-14.241-21.914 15.014 20.817M208.448 124.903 209.221 123.806m-13.719 85.256L186.839 211.029m0 0V211.023 175.26m-3.608 43.187 93.668-21.269m79.57 18.068V212.753M356.469 215.246 422 200.366V197.874m-65.531 17.372-79.57-18.068M422 197.874l-79.57-18.068M422 197.874l-65.531 14.879m-79.57-15.575V194.686m0 0 79.57 18.067M98.1293 210.142 98.4015 210.08V180.778m0 0L97.8004 180.642v29.575M33.9032 146.478 33.9036 146.477M189.422 165.593V165.861m0-14.661V151.896M195.483 153.054v1.94M213.663 150.866V151.836M213.663 145.696V146.392M219.723 147.55v1.94M211.815 123.544l13.899 19.266m-7.839-20.642 13.751 19.061L231.64 141.249 231.774 141.434M231.843 143.931V144.798M231.843 142.195V142.562m-7.678-21.45 13.521 18.741L237.705 139.879 237.834 140.058m-7.839-20.642 13.751 19.061L243.769 138.509 243.894 138.682M250.024 147.994v3.839m0-5.583V146.63M250.024 142.164V142.531m0-1.732V141.173M250.024 137.867V138.07m30.915 15.823L283.103 153.401m0 0L283.945 153.21m0 0L286.278 152.681m0 0L286.322 152.671 287.105 152.493M286.278 152.681 286.28 167.299M287.508 125.328l-21.466 4.851m26.083 21.174L292.951 151.165m0 0L295.131 150.671m0 0L295.963 150.481m0 0L298.139 149.987m0 0L298.97 149.799m0 0L301.142 149.305m0 0L301.976 149.116m0 0L304.148 148.623m0 0L304.985 148.433m0 0L307.154 147.94m0 0L307.981 147.753m0 0L310.162 147.257m0 0L310.995 147.068m0 0L313.165 146.575m0 0L314.005 146.385m0 27.24v-27.24m0 0L316.171 145.893m0 0L317.01 145.703m0 0L319.177 145.21m0 0L320.015 145.02m0 0L322.182 144.528m0 0L323.022 144.337m0 0L325.19 143.845m0 0L326.017 143.657m0 0 2.178-.494m0 0L329.035 142.972m0 0L338.794 140.756m-70.528 17.305V156.832L268.242 156.837 196.133 173.21V174.44l72.109-16.373L268.266 158.061zm0 1.333V158.164L268.242 158.17l-72.109 16.373V175.772l72.109-16.373L268.266 159.394zM268.266 160.726V159.497l-72.133 16.378V177.105l72.109-16.373L268.266 160.726zm0 1.333V160.829L268.242 160.835l-72.109 16.373V178.437l72.109-16.373L268.266 162.059zM268.266 163.391 268.242 163.397 196.133 179.77V178.54l72.109-16.373L268.266 162.162V163.391zM268.266 166.056 268.242 166.062l-72.109 16.373V181.205l72.109-16.373L268.266 164.827V166.056zm0 1.333L268.242 167.394l-72.109 16.373V182.538l72.109-16.373L268.266 166.159V167.389zM268.266 168.721V167.492L268.242 167.497l-72.109 16.374V185.1l72.109-16.373L268.266 168.721zm0 1.333L268.242 170.059l-72.109 16.374V185.203l72.109-16.373L268.266 168.824V170.054zm0 1.333V170.157L268.242 170.162l-72.109 16.374V187.765l72.109-16.373L268.266 171.387zM268.266 172.719V171.489L268.242 171.495l-72.109 16.373V189.098l72.109-16.374L268.266 172.719zm0 1.333V172.822L268.242 172.827l-72.109 16.374V190.43l72.109-16.373L268.266 174.052zM268.266 175.384V174.155L268.242 174.16l-72.109 16.373V191.763l72.133-16.379zM268.266 176.717V175.487L268.242 175.493l-72.109 16.373V193.095l72.133-16.378zM268.266 178.049V176.82L268.242 176.825l-72.109 16.373V194.428l72.109-16.373L268.266 178.049zm0 1.333V178.152L268.242 178.158l-72.109 16.373V195.76l72.133-16.378zM268.266 180.714V179.485L268.242 179.49l-72.109 16.373V197.093l72.109-16.373L268.266 180.714zm0 1.333V180.817L268.242 180.823l-72.109 16.373V198.425l72.109-16.373L268.266 182.047zM268.266 183.379V182.15L268.242 182.155l-72.109 16.373V199.758l72.109-16.373L268.266 183.379zm0 1.333V183.482L268.242 183.488l-72.109 16.373V201.09l72.133-16.378zM268.266 186.044V184.815L268.242 184.82l-72.109 16.373V202.423l72.133-16.379zm0 1.333V186.147L268.242 186.153l-72.109 16.373V203.755l72.109-16.373L268.266 187.377zM268.266 188.709V187.48L268.242 187.485l-72.109 16.373V205.088l72.109-16.373L268.266 188.709zm0 1.333V188.812L268.242 188.818l-72.109 16.373V206.42l72.133-16.378zM268.266 191.374V190.145L268.242 190.15l-72.109 16.373V207.753l72.109-16.373L268.266 191.374zM268.266 192.61V191.477L268.242 191.483l-72.109 16.373V208.989l72.109-16.373L268.266 192.61zM39.0612 145.142H39.0601L35.7991 144.401 34.7387 145.39 34.7573 145.394 39.0602 146.371 39.0612 146.372l6.0591 1.375L45.1214 147.748l6.0591 1.375L51.1816 149.124 57.2407 150.499 57.2416 150.5 69.3611 153.252H69.3619L75.4213 154.628H75.4221l6.0594 1.376H81.4822l6.0594 1.376H87.5424l33.3996 7.584L119.882 163.493 87.5424 156.15H87.5416l-6.0594-1.376H81.4814L75.4221 153.398H75.4213l-6.0594-1.376H69.3611L63.3018 150.646H63.3009L57.2416 149.27H57.2407l-6.0592-1.376H51.1805L46.024 146.723H46.0232L45.1214 146.518H45.1203l-6.0591-1.376zM45.1214 145.186 45.1203 145.185 36.9483 143.33 35.8879 144.319 35.9053 144.322 39.0601 145.039H39.0612l6.0591 1.376H45.1214l6.0591 1.376H51.1816L57.2407 149.167H57.2416l6.0593 1.376H63.3018L69.3611 151.919H69.3619L75.4213 153.295H75.4221L81.4814 154.671H81.4822l6.0594 1.376H87.5424l31.1436 7.072L118.745 163.132l1.048.238-1.048-1.452V161.917L118.732 161.9 87.5424 154.818H87.5416l-6.0594-1.376H81.4814L75.4221 152.066H75.4212L69.3619 150.69H69.3611L63.3018 149.314 63.3009 149.313l-6.0593-1.375L57.2407 147.937l-6.0592-1.375L51.1805 146.561l-6.0591-1.375zm0-1.333H45.1202l-7.0226-1.595L37.0371 143.247 45.1203 145.082 45.1214 145.083l6.0591 1.375L51.1816 146.459 57.2407 147.834 57.2416 147.835l6.0593 1.375L63.3018 149.211 69.3611 150.587H69.3619L75.4212 151.963H75.4221L81.4814 153.339H81.4822l6.0594 1.376H87.5424L118.644 161.777 117.843 160.667V160.666L117.583 160.306l-30.0406-6.821H87.5416l-6.0594-1.376H81.4814L75.4221 150.733H75.4212L69.3619 149.357H69.3611L63.3018 147.981H63.3008L58.1442 146.81H58.1434L57.2416 146.605H57.2407L51.1815 145.229H51.1805l-6.0591-1.376zM51.1816 143.897 51.1804 143.896 39.2469 141.187l-1.0605.988L38.2012 142.179l6.919 1.571H45.1214l6.0591 1.376H51.1816l6.059 1.376H57.2416L63.3008 147.878H63.3018L69.3611 149.254H69.3619L75.4212 150.63H75.4221L81.4814 152.006H81.4822l6.0594 1.376H87.5424L117.494 160.183l-1.06-1.47-28.8916-6.56H87.5415L81.4822 150.777H81.4814L75.4221 149.401H75.4212L69.3619 148.025 69.361 148.024l-6.0592-1.375L63.3008 146.648 58.1442 145.478 58.1434 145.477 57.2417 145.273 57.2406 145.272l-6.059-1.375zM51.1815 142.564H51.1804L40.3961 140.115 39.3356 141.104 39.3492 141.107 51.1804 143.793 51.1815 143.794l6.0591 1.375L57.2417 145.17l6.0591 1.375L63.3018 146.546l6.0592 1.375L69.3619 147.922 75.4212 149.297 75.4221 149.298 81.4814 150.674H81.4822L87.5415 152.05H87.5424L116.345 158.59l-1.06-1.47L112.685 156.529 112.639 156.519 87.5424 150.82H87.5415L81.4822 149.444H81.4814L75.4221 148.068H75.4212L69.3619 146.692H69.361l-6.0592-1.376H63.3008l-6.0591-1.376H57.2405l-6.059-1.376zM57.2417 142.608 57.2405 142.607 41.5564 139.046 41.5454 139.043 40.4849 140.032 40.4972 140.035 51.1804 142.461H51.1815L57.2405 143.837H57.2417l6.0591 1.376H63.3018l6.0592 1.376H69.3619L75.4212 147.965H75.4221L81.4814 149.341H81.4822l33.7138 7.655L114.135 155.526 93.6025 150.864H93.6017L87.5424 149.488H87.5415L81.4822 148.112H81.4814L75.4221 146.736 75.4211 146.735 69.3619 145.36 69.361 145.359l-6.0592-1.375L63.3008 143.983l-6.0591-1.375zm0-1.333H57.2405L42.7044 137.974 42.6946 137.972 41.6342 138.961 41.6452 138.963l15.5953 3.541L57.2417 142.505l6.0591 1.375L63.3018 143.881l6.0592 1.375L69.3619 145.257 75.4211 146.633H75.4221L81.4814 148.009H81.4822L87.5415 149.385H87.5424L93.6017 150.761H93.6025l20.4445 4.642L112.986 153.933 99.6626 150.907H99.6618L93.6025 149.531H93.6017L87.5424 148.155H87.5415L81.4822 146.779H81.4813l-6.0592-1.376H75.4211L69.3619 144.027H69.361L64.2044 142.856H64.2036L63.3018 142.651H63.3007l-6.059-1.376zM63.3018 141.319 63.3007 141.318 43.8524 136.902 43.8438 136.9 42.7834 137.889 42.7932 137.891 57.2405 141.172H57.2417l6.059 1.376H63.3018l6.0592 1.376H69.3619L75.4211 145.3H75.4221L81.4813 146.676H81.4822L87.5415 148.052H87.5424L93.6017 149.428H93.6025L99.6618 150.804H99.6626l13.2344 3.005L112.685 153.515 111.837 152.339 105.723 150.951H105.722l-6.0594-1.376H99.6618L93.6025 148.199H93.6017L87.5424 146.823 87.5414 146.822 81.4822 145.447 81.4813 145.446l-6.0592-1.375L75.4211 144.07 69.3619 142.695 69.3609 142.694l-6.0591-1.375zm0-1.333H63.3007L45.0004 135.83 44.993 135.829 43.9327 136.818 43.9411 136.819 63.3007 141.215 63.3018 141.216l6.0591 1.375L69.3619 142.592 75.4211 143.967 75.4221 143.968l6.0592 1.375L81.4822 145.344 87.5414 146.719 87.5424 146.72 93.6017 148.096H93.6025L99.6618 149.472H99.6626l6.0594 1.376H105.723L111.748 152.216l-1.06-1.47L105.723 149.618H105.722l-6.0594-1.376H99.6618L93.6025 146.866H93.6017L87.5424 145.49H87.5414L81.4822 144.114H81.4813l-6.0592-1.376H75.4211L70.2645 141.567H70.2637L69.3619 141.362H69.3609l-6.0591-1.376zM69.3619 140.03 69.3609 140.029 46.1483 134.759 46.1423 134.757 45.0819 135.746 45.0891 135.748 63.3007 139.883H63.3018L69.3609 141.259H69.3619L75.4211 142.635H75.4221l6.0592 1.376H81.4822L87.5414 145.387H87.5424L93.6017 146.763H93.6025L99.6618 148.139H99.6626L105.722 149.515H105.723L110.599 150.622 109.538 149.152 105.723 148.286H105.722l-6.0594-1.376H99.6619l-6.0594-1.376L93.6016 145.533l-6.0592-1.375H87.5414L81.4822 142.782 81.4813 142.781l-6.0592-1.375L75.421 141.405l-6.0591-1.375zm0-1.333H69.3609l-22.0694-5.011-1.0603.988L46.2371 134.676l23.1238 5.25L69.3619 139.927l6.0591 1.375L75.4221 141.303l6.0592 1.375L81.4822 142.679 87.5414 144.054 87.5424 144.055l6.0592 1.375L93.6025 145.431 99.6618 146.807H99.6626l6.0594 1.376H105.723L109.45 149.029 108.389 147.559 105.743 146.958 105.723 146.953H105.722l-6.0594-1.376H99.6617L93.6025 144.201H93.6016l-6.0592-1.376H87.5414L81.4822 141.449H81.4812l-6.0591-1.376H75.421l-6.0591-1.376zM75.4221 138.741 75.421 138.74l-26.9767-6.125L48.4408 132.614 47.3804 133.603 47.3851 133.604 69.3609 138.594H69.3619l6.0591 1.376H75.4221l6.0591 1.376H81.4822L87.5414 142.722H87.5424l6.0592 1.376H93.6025L99.6617 145.474H99.6626l6.0594 1.376H105.723L108.3 147.436l-1.06-1.471L105.723 145.621H105.722l-6.0594-1.376H99.6617L93.6025 142.869 93.6016 142.868l-6.0592-1.375L87.5413 141.492l-6.0591-1.375L81.4812 140.116l-6.0591-1.375zM75.4221 137.408H75.421L49.5923 131.543H49.59L48.5297 132.531 48.5331 132.532 75.421 138.637 75.4221 138.638l6.0591 1.375L81.4822 140.014l6.0591 1.375L87.5424 141.39l6.0592 1.375L93.6025 142.766 99.6618 144.141 99.6626 144.142l6.0594 1.375L105.723 145.518 107.151 145.842 106.625 145.113V145.112L106.091 144.372 105.723 144.288H105.722l-6.0594-1.376H99.6618L93.6025 141.536H93.6016l-6.0592-1.376H87.5413l-6.0591-1.376H81.4812l-6.0591-1.376zM81.4822 137.452 81.4812 137.451 50.7403 130.471H50.7393L49.6789 131.46H49.681l25.74 5.845H75.4221l6.0591 1.376H81.4822L87.5413 140.057H87.5424l6.0592 1.376H93.6025L99.6617 142.809H99.6626l6.0594 1.376H105.723L106.002 144.249 105.723 143.862 105.722 143.86 104.941 142.778 99.6626 141.58 99.6617 141.579 93.6024 140.204 93.6015 140.203l-6.0591-1.375L87.5413 138.827 82.3848 137.657 82.3841 137.656 81.4822 137.452zm0-1.333H81.4811l-29.5926-6.72L50.8282 130.388H50.829L81.4812 137.348 81.4822 137.349l6.0591 1.375L87.5424 138.725l6.0591 1.375L93.6025 140.101 99.6617 141.476 99.6626 141.477 99.6965 141.484 104.853 142.655 103.792 141.185 99.6626 140.247H99.6617L93.6025 138.871H93.6015l-6.0591-1.376H87.5413l-6.0591-1.376zM87.5424 136.163 87.5413 136.162l-34.5035-7.834L51.9774 129.317 81.4811 136.016H81.4823L87.5413 137.392H87.5424l6.0591 1.376H93.6025l6.0591 1.376H99.6626L103.703 141.062l-1.06-1.471L99.6626 138.915 99.6617 138.914 93.6024 137.539 93.6015 137.538l-6.0591-1.375zm0-1.333H87.5412L54.187 127.256 53.1267 128.245 87.5412 136.059 87.5424 136.06l6.0591 1.375L93.6025 137.436 97.398 138.297 99.6616 138.811 99.6626 138.812 102.554 139.468l-1.06-1.47L99.6626 137.582H99.6617L93.6024 136.206H93.6015L87.5424 134.83zM87.5424 133.498 87.5412 133.497 55.3363 126.185l-1.0604.988 33.2653 7.554H87.5424l6.0591 1.376H93.6025L99.6617 137.479H99.6626L101.405 137.875 100.565 136.71 100.344 136.404 99.6626 136.25 99.6617 136.249 93.6025 134.874 93.6014 134.873l-6.059-1.375zM93.6025 133.541H93.6014l-37.1159-8.428L55.4251 126.102 93.6014 134.77H93.6025L99.6616 136.146H99.6626L100.256 136.281l-1.0609-1.47L93.6025 133.541zm0-1.333H93.6014l-35.9666-8.166-1.0605.988L93.6014 133.438H93.6025l5.5038 1.25L98.046 133.217 93.6025 132.208zM93.6025 132.105H93.6014L57.7236 123.959 58.7841 122.97l38.1126 8.654 1.0604 1.47L93.6025 132.105zM59.9333 121.898 58.8729 122.887l37.9349 8.614-1.0603-1.471L59.9333 121.898zm1.1493-1.071L60.0221 121.816 95.6586 129.907l-1.0604-1.47L61.0826 120.827zm1.1492-1.072L61.1714 120.744 94.5093 128.314l-1.0603-1.47-31.2172-7.089zm1.1493-1.071-1.0605.988 31.0395 7.048-1.0604-1.47L91.8716 125.153 91.8389 125.145l-28.4578-6.461zM64.5302 117.612 63.4699 118.601l28.7409 6.526-1.0604-1.47-26.6202-6.045zM65.6795 116.541l-1.0604.988L91.0615 123.533l-1.0603-1.47L65.6795 116.541zM66.8287 115.469 65.7684 116.458l24.1439 5.482-1.0604-1.47L66.8287 115.469zM67.978 114.397 66.9177 115.386 88.7631 120.346l-1.0604-1.47-19.7247-4.479zM69.1273 113.326 68.0669 114.315l19.547 4.438-1.0581-1.467L86.5534 117.283 69.1273 113.326zM70.2765 112.254 69.2161 113.243l17.2484 3.917-1.0603-1.471L70.2765 112.254zm1.1493-1.071-1.0604.988 14.9499 3.395L84.2549 114.096l-12.8291-2.913zM72.575 110.111 71.5147 111.1 81.5201 113.372 81.5723 113.384 84.1661 113.972l-1.0604-1.47L82.6448 112.398 82.6327 112.395 72.575 110.111zm1.1493-1.071-1.0604.988 10.353 2.351-1.0605-1.47-8.2321-1.869zM74.8735 107.968 73.8132 108.957 81.8676 110.786l-1.0604-1.471L74.8735 107.968zm1.1493-1.072L74.9623 107.885 80.7184 109.192l-1.0604-1.47L76.0228 106.896zM77.172 105.825 76.1116 106.814 79.5691 107.599 78.5088 106.128 77.172 105.825zM77.2608 105.742 77.8403 105.202 78.4199 106.005 77.2608 105.742zm44.5512 112.72V217.233L104.45 213.29V213.978L94.7582 211.777V211.089L33.9028 197.272 33.8923 197.269 33.8683 197.264V198.493L33.8923 198.499l87.9197 19.963zM94.7582 210.987V209.757L33.9028 195.939 33.8923 195.937 33.8683 195.931V197.161l60.8899 13.826zm0-1.333V208.424L33.9028 194.607 33.8923 194.604 33.8683 194.599V195.828l60.8899 13.826zm0-1.333V207.092L33.9029 193.274 33.8923 193.272 33.8683 193.266V194.496l60.8899 13.825zM94.7582 206.989V205.759L33.9029 191.941 33.8923 191.939 33.8683 191.934V193.163L33.8923 193.169l60.8659 13.82zm0-1.333V204.427L33.9029 190.609 33.8923 190.607 33.8683 190.601V191.831l60.8899 13.825zM94.7582 204.324V203.094L33.9029 189.276 33.8923 189.274 33.8683 189.269V190.498l60.8899 13.826zm0-1.333V201.762L33.8923 187.941 33.8683 187.936V189.166L33.8923 189.171 33.9026 189.173l60.8556 13.818zM94.7582 201.659V200.429l-60.8659-13.82L33.8683 186.603V187.833l60.8899 13.826zm0-1.333V199.097L33.8923 185.276 33.8683 185.271V186.501L33.8923 186.506l60.8659 13.82zM94.7582 198.994V197.764L33.9033 183.946 33.8923 183.944 33.8683 183.939V185.168L33.8923 185.173 33.9028 185.176l60.8554 13.818zm0-1.333V196.432L33.9031 182.614 33.8683 182.606V183.835L33.8923 183.841l60.8659 13.82zM94.7582 196.329V195.099L33.9031 181.281 33.8923 181.279 33.8683 181.273V182.503L33.8923 182.508l60.8659 13.821zm0-1.333V193.767L33.9031 179.949 33.8683 179.941V181.171L33.8923 181.176l60.8659 13.82zM94.7582 193.664V192.434L33.9031 178.616 33.8683 178.608V179.838L33.8923 179.843 33.9026 179.846l60.8556 13.818zm0-1.333V191.102l-60.855-13.818L33.8923 177.281 33.8683 177.276V178.505L33.8923 178.511l60.8659 13.82zM94.7582 190.999V189.769L33.9034 175.951 33.8923 175.949 33.8683 175.943V177.173l60.8899 13.826zm0-1.333V188.437l-60.855-13.818L33.8923 174.616 33.8683 174.611V175.84L33.8923 175.846l60.8659 13.82zM94.7582 188.334V187.104l-60.855-13.818L33.8923 173.284 33.8683 173.278V174.508L33.8923 174.513 33.9026 174.516l60.8556 13.818zm0-1.333V185.772L33.9033 171.954 33.8923 171.951 33.8683 171.946V173.175L33.8923 173.181l60.8659 13.82zM94.7582 185.669V184.439L33.9033 170.621 33.8923 170.619 33.8683 170.613V171.843l60.8899 13.826zm0-1.333V183.107L33.9033 169.289 33.8923 169.286 33.8683 169.281V170.51L33.8923 170.516l60.8659 13.82zM94.7582 183.004V181.774L33.9033 167.956 33.8923 167.954 33.8683 167.948V169.178L33.8923 169.183l60.8659 13.821zm0-1.333V180.442L33.9034 166.624H33.9026L33.8923 166.621 33.8683 166.616V167.845L33.8923 167.851 33.903 167.853l60.8552 13.818zM121.812 227.79 33.886 207.825 33.8683 207.821V206.591L33.8923 206.597 121.812 226.56V227.79zm0-1.333V225.228L33.8923 205.264 33.8683 205.259V206.488l87.9437 19.969zM121.812 225.125 33.8923 205.161 33.8683 205.156V203.926L33.9027 203.934l87.9093 19.961V225.125zm0-1.333V222.563L33.9027 202.602 33.8923 202.599 33.8683 202.594V203.823l87.9437 19.969zM121.812 222.46V221.23L33.9027 201.269 33.8923 201.267 33.8683 201.261V202.491L33.9026 202.499 121.812 222.46zm0-1.333V219.898L33.9027 199.937 33.8683 199.929V201.158l87.9437 19.969zM121.812 219.795V218.565L33.9028 198.604 33.8923 198.602 33.8683 198.596V199.826L33.8923 199.831l87.9197 19.964zm0-34.646V183.92L39.0612 165.13H39.0605L33.9034 163.959 33.9026 163.958 33.8683 163.951V165.18L33.8923 165.186 33.9026 165.188H33.9034L39.0605 166.359H39.0612l82.7508 18.79zM121.812 183.817V182.587L45.1214 165.173H45.1206l-6.0594-1.376H39.0605L33.9034 162.626H33.9026L33.8923 162.624 33.8683 162.618V163.848L33.8923 163.853 33.9026 163.856H33.9034L39.0605 165.027H39.0612l82.7508 18.79zm0-1.333V181.255L51.1815 165.217H51.1808l-6.0594-1.376H45.1206l-6.0594-1.376H39.0605L33.9035 161.294H33.9026L33.8683 161.286V162.515L33.8923 162.521 33.9026 162.523H33.9034L39.0605 163.694H39.0612l6.0594 1.376H45.1214l76.6906 17.414zM121.812 181.152V179.922L51.1815 163.884H51.1808L45.1214 162.508H45.1206l-6.0594-1.376H39.0604L33.9035 159.961H33.9026L33.8683 159.953V161.183L33.9026 161.19 33.9035 161.191 39.0605 162.362H39.0612l6.0594 1.376H45.1214l6.0594 1.376H51.1816l70.6304 16.038zm0-1.333V178.589L51.1815 162.552H51.1808l-6.0594-1.376H45.1206L39.0612 159.8H39.0604L33.9035 158.629 33.8923 158.626 33.8683 158.621V159.85L33.8923 159.856 33.9026 159.858H33.9035L39.0604 161.029H39.0612l6.0594 1.376H45.1214l6.0594 1.376H51.1816l70.6304 16.038zM121.812 178.487V177.257L51.1815 161.219H51.1808l-6.0594-1.376H45.1205L39.0612 158.467H39.0604L33.9035 157.296H33.9026L33.8923 157.294 33.8683 157.288V158.518L33.8923 158.523 33.9026 158.525 33.9035 158.526 39.0604 159.697H39.0612l6.0594 1.376H45.1214l6.0594 1.376H51.1816l70.6304 16.038zm0-1.333V175.925L51.1815 159.887H51.1807l-6.0593-1.376H45.1205l-6.0593-1.376L39.0604 157.134 33.9036 155.964 33.9026 155.963 33.8923 155.961 33.8683 155.956V157.185L33.8923 157.191 33.9026 157.193H33.9035L39.0604 158.364H39.0612l6.0593 1.376H45.1214l6.0594 1.376H51.1816l70.6304 16.038zm0-1.333V174.592L57.2416 159.93H57.2408l-6.0593-1.376H51.1807l-6.0593-1.376H45.1205l-6.0593-1.376H39.0603L33.9036 154.631 33.8923 154.629 33.8683 154.623V155.853L33.9026 155.86 33.9036 155.861 39.0604 157.032H39.0612L45.1205 158.408H45.1214l6.0593 1.376H51.1816l70.6304 16.037zM121.812 174.489V173.259L57.2416 158.598H57.2408l-6.0593-1.376H51.1807l-6.0593-1.376H45.1205l-6.0593-1.376H39.0603L33.9036 153.299 33.9026 153.298 33.8923 153.296 33.8683 153.291V154.52L33.8923 154.526l5.168 1.173H39.0612L45.1205 157.075H45.1214l6.0593 1.376H51.1816l6.0592 1.376H57.2416l64.5704 14.662zm0-1.333V171.927L63.3018 158.641H63.301l-6.0594-1.376H57.2408L51.1815 155.889H51.1807l-6.0593-1.376H45.1204l-6.0592-1.376H39.0603L33.9036 151.966 33.8923 151.964 33.8683 151.958V153.188L33.8923 153.193 33.9026 153.195 33.9036 153.196 39.0603 154.366 39.0612 154.367l6.0593 1.375L45.1214 155.743l6.0593 1.376H51.1816l6.0592 1.376H57.2416l64.5704 14.661zM121.812 171.824 63.3018 158.538H63.301l-6.0594-1.376H57.2408l-6.0592-1.376H51.1807l-6.0593-1.376H45.1204l-6.0592-1.376H39.0603L33.9031 151.863 33.8923 151.861 33.8683 151.855V150.626L33.8923 150.631 33.9029 150.633 33.9037 150.634 39.0603 151.804 39.0612 151.805l6.0592 1.376H45.1214L51.1806 154.557H51.1815l6.0593 1.376H57.2416l6.0594 1.376H63.3018l6.0594 1.376H69.3619l52.4501 11.909V171.824zm0-1.333-52.4501-11.909H69.3612l-6.0594-1.376H63.301L57.2416 155.83H57.2408l-6.0592-1.376H51.1806l-6.0592-1.376L45.1204 153.077l-6.0592-1.375L39.0603 151.701 33.9037 150.531 33.9026 150.53 33.8683 150.522V149.293L33.8923 149.298 33.9029 149.301H33.9037L39.0602 150.472H39.0612l6.0592 1.376H45.1214L51.1806 153.224H51.1815l6.0592 1.376H57.2416l6.0594 1.376H63.3017l6.0595 1.376H69.3619l52.4501 11.91V170.491zM121.744 169.143 121.812 169.159V167.929L75.4221 157.396H75.4213L69.3619 156.02H69.3612l-6.0594-1.376H63.301l-6.0594-1.376H57.2407l-6.0592-1.376L51.1806 151.891l-6.0592-1.375L45.1204 150.515l-6.0592-1.375L39.0602 149.139 33.9036 147.969 33.8923 147.966 33.8683 147.96V149.19L33.8923 149.196 33.9026 149.198H33.9037L39.0602 150.369H39.0612l6.0592 1.376H45.1214l6.0592 1.376H51.1816L57.2407 154.497H57.2416L63.301 155.873H63.3018l6.0594 1.376H69.3619l52.3821 11.894zM121.812 167.826 75.4221 157.293H75.4213l-6.0594-1.376H69.3612l-6.0594-1.376H63.301l-6.0594-1.376H57.2407L51.1816 151.789 51.1806 151.788l-6.0592-1.375L45.1204 150.412l-6.0592-1.375L39.0602 149.036 33.9031 147.865 33.8923 147.863 33.8683 147.858V146.628L33.8923 146.633 33.9037 146.636 39.0601 147.807H39.0612L39.963 148.012H39.9638L45.1203 149.183H45.1214l6.0592 1.376H51.1815l6.0592 1.376H57.2416l6.0593 1.376H63.3018l6.0594 1.376H69.3619L75.4213 156.063H75.4221l6.0594 1.376H81.4822L121.812 166.597V167.826zm0 46.638V213.235L104.45 209.293V210.522L104.474 210.527 121.812 214.464zM121.812 213.132V211.902L104.474 207.965 104.45 207.96V209.19L104.474 209.195 121.812 213.132zm0-1.333V210.57L104.474 206.633 104.45 206.627V207.857L104.474 207.862 121.812 211.799zM121.812 210.467V209.237L104.474 205.3 104.45 205.295V206.525L104.474 206.53 121.812 210.467zM121.812 209.134V207.905L104.474 203.968 104.45 203.962V205.192L104.474 205.197 121.812 209.134zM121.812 207.802V206.572L104.474 202.635 104.45 202.63V203.859L104.474 203.865 121.812 207.802zm0-1.333V205.24L104.474 201.303 104.45 201.297V202.527L104.474 202.532 121.812 206.469zM121.812 205.137V203.907L104.474 199.97 104.45 199.965V201.194L104.474 201.2 121.812 205.137zm0-1.333V202.575L104.474 198.638 104.45 198.632V199.862L104.474 199.867 121.812 203.804zM121.812 202.472V201.242L104.474 197.305 104.45 197.3V198.529L104.474 198.535 121.812 202.472zm0-1.333V199.91L104.474 195.973 104.45 195.967V197.197L104.474 197.202 121.812 201.139zM121.812 199.807V198.577L104.474 194.64 104.45 194.635V195.864L104.474 195.87 121.812 199.807zm0-1.333V197.245L104.474 193.308 104.45 193.302V194.532L104.474 194.537 121.812 198.474zM121.812 197.142V195.912L104.474 191.975 104.45 191.97V193.199L104.474 193.205 121.812 197.142zm0-1.333V194.58L104.474 190.643 104.45 190.637V191.867L104.474 191.872 121.812 195.809zM121.812 194.477V193.247L104.474 189.31 104.45 189.305V190.534L104.474 190.54 121.812 194.477zm0-1.333V191.915L104.474 187.978 104.45 187.972V189.202L104.474 189.207 121.812 193.144zM121.812 191.812V190.582L104.474 186.645 104.45 186.64V187.869L104.474 187.875 121.812 191.812zm0-1.333V189.25L104.474 185.313 104.45 185.307V186.537L104.474 186.542 121.812 190.479zM121.812 189.147V187.917L104.474 183.98 104.45 183.975V185.204L104.474 185.21 121.812 189.147zm0-1.333V186.585L104.474 182.648 104.45 182.642V183.872L104.474 183.877 121.812 187.814zm94.135-66.13L215.926 121.689 211.243 122.752 209.334 123.186 195.057 103.39 196.297 103.109H196.298L197.03 102.942H197.031L201.67 101.889l14.277 19.795z" stroke="#2b2522" stroke-width=".5"/></svg>