<svg width="1272" height="1403" viewBox="0 0 1272 1403" fill="none" xmlns="http://www.w3.org/2000/svg"><g clip-path="url(#clip0_2559_1712)"><rect width="1272" height="1402.38" fill="#f5f3f3"/><rect x="205.109" y="1229.07" width="861.78" height="173.31" fill="#e1e0e0"/><rect x="203.52" y="1000.11" width="478.59" height="101.76" fill="#e1e0e0"/><rect x="205.109" y="739.35" width="478.59" height="227.37" fill="#e1e0e0"/><rect x="842.699" y="508.8" width="224.19" height="103.35" fill="#e1e0e0"/><rect x="203.52" y="249.63" width="351.39" height="362.52" fill="#e1e0e0"/><rect x="715.5" y="739.35" width="351.39" height="362.52" fill="#e1e0e0"/><rect x="588.301" y="249.63" width="478.59" height="225.78" fill="#e1e0e0"/><rect x="586.711" y="508.8" width="224.19" height="103.35" fill="#e1e0e0"/><rect x="203.523" y="-11.1301" width="96.0814" height="1437.36" stroke="#d02a31" stroke-width=".795"/><rect x="331.402" y="-11.1301" width="96.0814" height="1437.36" stroke="#d02a31" stroke-width=".795"/><rect x="459.285" y="-11.1301" width="96.0814" height="1437.36" stroke="#d02a31" stroke-width=".795"/><rect x="587.168" y="-11.1301" width="96.0814" height="1437.36" stroke="#d02a31" stroke-width=".795"/><rect x="715.047" y="-11.1301" width="96.0814" height="1437.36" stroke="#d02a31" stroke-width=".795"/><rect x="842.93" y="-11.1301" width="96.0814" height="1437.36" stroke="#d02a31" stroke-width=".795"/><rect x="970.809" y="-11.1301" width="96.0814" height="1437.36" stroke="#d02a31" stroke-width=".795"/><path d="M722.915 87.705H722.172C722.116 87.4284 722.016 87.1728 721.871 86.9383 721.729 86.7011 721.55 86.4943 721.334 86.3177 721.118 86.1412 720.873 86.0042 720.599 85.9067S720.028 85.7604 719.709 85.7604C719.198 85.7604 718.732 85.8935 718.31 86.1596 717.891 86.4258 717.555 86.817 717.302 87.3335 717.052 87.8473 716.927 88.4771 716.927 89.2227 716.927 89.9737 717.052 90.6061 717.302 91.1199 717.555 91.6337 717.891 92.0237 718.31 92.2898 718.732 92.5533 719.198 92.6851 719.709 92.6851 720.028 92.6851 720.325 92.6363 720.599 92.5388 720.873 92.4413 721.118 92.3056 721.334 92.1317 721.55 91.9552 721.729 91.7483 721.871 91.5112 722.016 91.2741 722.116 91.0171 722.172 90.7405H722.915C722.849 91.112 722.725 91.4585 722.543 91.78 722.364 92.0988 722.135 92.3781 721.855 92.6179 721.579 92.8577 721.26 93.0447 720.899 93.1791S720.141 93.3807 719.709 93.3807C719.03 93.3807 718.426 93.2107 717.899 92.8708 717.372 92.5283 716.958 92.0461 716.658 91.4242 716.36 90.8024 716.211 90.0686 716.211 89.2227 716.211 88.3769 716.36 87.6431 716.658 87.0213 716.958 86.3994 717.372 85.9185 717.899 85.5786 718.426 85.2361 719.03 85.0648 719.709 85.0648 720.141 85.0648 720.538 85.132 720.899 85.2664 721.26 85.3981 721.579 85.5852 721.855 85.8276 722.135 86.0674 722.364 86.3467 722.543 86.6655 722.725 86.9844 722.849 87.3309 722.915 87.705zM726.53 93.3965C726.006 93.3965 725.542 93.2634 725.139 92.9973 724.739 92.7312 724.425 92.3636 724.198 91.8946 723.972 91.4229 723.858 90.8788 723.858 90.2622 723.858 89.6404 723.972 89.0936 724.198 88.622 724.425 88.1477 724.739 87.7788 725.139 87.5153 725.542 87.2492 726.006 87.1161 726.53 87.1161 727.055 87.1161 727.517 87.2492 727.918 87.5153 728.318 87.7814 728.632 88.1503 728.858 88.622 729.087 89.0936 729.202 89.6404 729.202 90.2622 729.202 90.8788 729.089 91.4229 728.862 91.8946 728.636 92.3636 728.321 92.7312 727.918 92.9973 727.517 93.2634 727.055 93.3965 726.53 93.3965zM726.53 92.7523C726.952 92.7523 727.309 92.639 727.601 92.4123 727.894 92.1857 728.115 91.884 728.265 91.5072 728.418 91.1304 728.495 90.7154 728.495 90.2622 728.495 89.809 728.418 89.3927 728.265 89.0133 728.115 88.6338 727.894 88.3295 727.601 88.1003 727.309 87.871 726.952 87.7564 726.53 87.7564 726.111 87.7564 725.754 87.871 725.459 88.1003 725.167 88.3295 724.944 88.6338 724.791 89.0133 724.641 89.3927 724.566 89.809 724.566 90.2622 724.566 90.7154 724.641 91.1304 724.791 91.5072 724.944 91.884 725.167 92.1857 725.459 92.4123 725.752 92.639 726.109 92.7523 726.53 92.7523zM730.413 95.5466V87.1991H731.096v1.1581H731.179C731.264 88.1754 731.38 87.9896 731.527 87.7999 731.675 87.6075 731.87 87.4455 732.112 87.3137 732.357 87.182 732.665 87.1161 733.037 87.1161 733.538 87.1161 733.975 87.2479 734.349 87.5114 734.726 87.7722 735.018 88.1385 735.227 88.6101 735.437 89.0791 735.543 89.6259 735.543 90.2504 735.543 90.8775 735.437 91.4269 735.227 91.8985 735.018 92.3702 734.726 92.7378 734.349 93.0013 733.975 93.2647 733.54 93.3965 733.045 93.3965 732.679 93.3965 732.372 93.3306 732.124 93.1989 731.879 93.0671 731.68 92.9051 731.527 92.7127 731.377 92.5177 731.261 92.328 731.179 92.1436H731.116V95.5466H730.413zM731.108 90.2385C731.108 90.7286 731.181 91.1634 731.326 91.5428 731.473 91.9196 731.684 92.216 731.958 92.4321 732.235 92.6455 732.569 92.7523 732.962 92.7523 733.365 92.7523 733.705 92.6416 733.982 92.4203 734.261 92.1963 734.473 91.8946 734.618 91.5151 734.766 91.1357 734.839 90.7102 734.839 90.2385 734.839 89.7721 734.767 89.3519 734.622 88.9777 734.48 88.6035 734.269 88.3071 733.99 88.0884 733.71 87.8671 733.368 87.7564 732.962 87.7564 732.567 87.7564 732.231 87.8631 731.954 88.0765 731.677 88.2873 731.467 88.5798 731.322 88.954 731.179 89.3255 731.108 89.7537 731.108 90.2385zM736.752 93.27V87.1991H737.436v.9328H737.488C737.609 87.8262 737.82 87.5799 738.12 87.3928 738.423 87.2031 738.765 87.1082 739.148 87.1082 739.206 87.1082 739.27 87.1095 739.341 87.1122 739.412 87.1148 739.472 87.1174 739.519 87.1201V87.8354C739.487 87.8302 739.432 87.8223 739.353 87.8117 739.274 87.8012 739.188 87.7959 739.096 87.7959 738.78 87.7959 738.498 87.8631 738.25 87.9975 738.005 88.1292 737.812 88.3124 737.669 88.5469 737.527 88.7814 737.456 89.0488 737.456 89.3492V93.27H736.752zM742.561 93.3965C742.036 93.3965 741.572 93.2634 741.169 92.9973 740.769 92.7312 740.455 92.3636 740.229 91.8946 740.002 91.4229 739.889 90.8788 739.889 90.2622 739.889 89.6404 740.002 89.0936 740.229 88.622 740.455 88.1477 740.769 87.7788 741.169 87.5153 741.572 87.2492 742.036 87.1161 742.561 87.1161 743.085 87.1161 743.547 87.2492 743.948 87.5153 744.348 87.7814 744.662 88.1503 744.888 88.622 745.118 89.0936 745.232 89.6404 745.232 90.2622 745.232 90.8788 745.119 91.4229 744.892 91.8946 744.666 92.3636 744.351 92.7312 743.948 92.9973 743.547 93.2634 743.085 93.3965 742.561 93.3965zM742.561 92.7523C742.982 92.7523 743.339 92.639 743.632 92.4123 743.924 92.1857 744.145 91.884 744.296 91.5072 744.448 91.1304 744.525 90.7154 744.525 90.2622 744.525 89.809 744.448 89.3927 744.296 89.0133 744.145 88.6338 743.924 88.3295 743.632 88.1003 743.339 87.871 742.982 87.7564 742.561 87.7564 742.142 87.7564 741.785 87.871 741.489 88.1003 741.197 88.3295 740.974 88.6338 740.821 89.0133 740.671 89.3927 740.596 89.809 740.596 90.2622 740.596 90.7154 740.671 91.1304 740.821 91.5072 740.974 91.884 741.197 92.1857 741.489 92.4123 741.782 92.639 742.139 92.7523 742.561 92.7523zM746.443 95.5466V87.1991H747.127v1.1581H747.21C747.294 88.1754 747.41 87.9896 747.557 87.7999 747.705 87.6075 747.9 87.4455 748.142 87.3137 748.387 87.182 748.696 87.1161 749.067 87.1161 749.568 87.1161 750.005 87.2479 750.379 87.5114 750.756 87.7722 751.049 88.1385 751.257 88.6101 751.468 89.0791 751.573 89.6259 751.573 90.2504 751.573 90.8775 751.468 91.4269 751.257 91.8985 751.049 92.3702 750.756 92.7378 750.379 93.0013 750.005 93.2647 749.571 93.3965 749.075 93.3965 748.709 93.3965 748.402 93.3306 748.154 93.1989 747.909 93.0671 747.71 92.9051 747.557 92.7127 747.407 92.5177 747.291 92.328 747.21 92.1436H747.146V95.5466H746.443zM747.138 90.2385C747.138 90.7286 747.211 91.1634 747.356 91.5428 747.503 91.9196 747.714 92.216 747.988 92.4321 748.265 92.6455 748.6 92.7523 748.992 92.7523 749.395 92.7523 749.735 92.6416 750.012 92.4203 750.291 92.1963 750.503 91.8946 750.648 91.5151 750.796 91.1357 750.87 90.7102 750.87 90.2385 750.87 89.7721 750.797 89.3519 750.652 88.9777 750.51 88.6035 750.299 88.3071 750.02 88.0884 749.74 87.8671 749.398 87.7564 748.992 87.7564 748.597 87.7564 748.261 87.8631 747.984 88.0765 747.708 88.2873 747.497 88.5798 747.352 88.954 747.21 89.3255 747.138 89.7537 747.138 90.2385zM752.783 93.27V87.1991H753.466v.9328H753.518C753.639 87.8262 753.85 87.5799 754.15 87.3928 754.453 87.2031 754.796 87.1082 755.178 87.1082 755.236 87.1082 755.3 87.1095 755.371 87.1122 755.443 87.1148 755.502 87.1174 755.549 87.1201V87.8354C755.518 87.8302 755.462 87.8223 755.383 87.8117 755.304 87.8012 755.219 87.7959 755.126 87.7959 754.81 87.7959 754.528 87.8631 754.281 87.9975 754.036 88.1292 753.842 88.3124 753.7 88.5469 753.557 88.7814 753.486 89.0488 753.486 89.3492V93.27H752.783zM756.424 93.27V87.1991H757.131V93.27H756.424zM756.784 86.1557C756.639 86.1557 756.515 86.1069 756.412 86.0094 756.309 85.9093 756.258 85.7894 756.258 85.6498 756.258 85.5101 756.309 85.3915 756.412 85.294 756.515 85.1939 756.639 85.1439 756.784 85.1439 756.928 85.1439 757.052 85.1939 757.155 85.294 757.258 85.3915 757.309 85.5101 757.309 85.6498 757.309 85.7894 757.258 85.9093 757.155 86.0094 757.052 86.1069 756.928 86.1557 756.784 86.1557zM761.112 93.3965C760.546 93.3965 760.056 93.2647 759.642 93.0013 759.229 92.7351 758.908 92.3676 758.682 91.8985 758.458 91.4269 758.346 90.8841 758.346 90.2701 758.346 89.6588 758.458 89.116 758.682 88.6417 758.908 88.1648 759.221 87.792 759.618 87.5232 760.019 87.2518 760.481 87.1161 761.006 87.1161 761.335 87.1161 761.653 87.1767 761.958 87.2979 762.264 87.4165 762.538 87.5996 762.78 87.8473 763.025 88.0924 763.219 88.402 763.361 88.7761 763.504 89.1477 763.575 89.5877 763.575 90.0962V90.444H758.832V89.8235h4.024C762.856 89.4335 762.776 89.0831 762.618 88.7722 762.463 88.4586 762.246 88.2109 761.966 88.0291 761.69 87.8473 761.369 87.7564 761.006 87.7564 760.621 87.7564 760.282 87.8592 759.99 88.0647S759.468 88.5416 759.302 88.8789C759.139 89.2162 759.056 89.5851 759.053 89.9856V90.3571C759.053 90.8393 759.136 91.2609 759.302 91.6219 759.471 91.9802 759.709 92.2582 760.018 92.4558 760.326 92.6534 760.691 92.7523 761.112 92.7523 761.4 92.7523 761.651 92.7075 761.867 92.6179 762.086 92.5283 762.269 92.4084 762.417 92.2582 762.567 92.1054 762.68 91.9381 762.757 91.7562L763.425 91.9736C763.332 92.2292 763.181 92.465 762.97 92.6811 762.762 92.8972 762.501 93.0711 762.188 93.2028 761.877 93.3319 761.518 93.3965 761.112 93.3965zM767.182 87.1991V87.8117H764.285V87.1991H767.182zM765.19 85.7446H765.898v5.9405C765.898 91.9381 765.941 92.137 766.028 92.2819 766.115 92.4242 766.229 92.5256 766.368 92.5863 766.508 92.6442 766.657 92.6732 766.815 92.6732 766.907 92.6732 766.986 92.6679 767.052 92.6574 767.118 92.6442 767.176 92.631 767.226 92.6179L767.376 93.2542C767.308 93.2806 767.223 93.3043 767.123 93.3254 767.023 93.3491 766.899 93.3609 766.752 93.3609 766.493 93.3609 766.244 93.3043 766.005 93.191 765.768 93.0777 765.573 92.909 765.42 92.6851 765.267 92.4611 765.19 92.1831 765.19 91.8511V85.7446zM770.836 93.3965C770.269 93.3965 769.779 93.2647 769.365 93.0013 768.952 92.7351 768.631 92.3676 768.405 91.8985 768.181 91.4269 768.069 90.8841 768.069 90.2701 768.069 89.6588 768.181 89.116 768.405 88.6417 768.631 88.1648 768.944 87.792 769.342 87.5232 769.742 87.2518 770.205 87.1161 770.729 87.1161 771.058 87.1161 771.376 87.1767 771.681 87.2979 771.987 87.4165 772.261 87.5996 772.504 87.8473 772.749 88.0924 772.942 88.402 773.085 88.7761 773.227 89.1477 773.298 89.5877 773.298 90.0962V90.444H768.555V89.8235h4.024C772.579 89.4335 772.5 89.0831 772.341 88.7722 772.186 88.4586 771.969 88.2109 771.689 88.0291 771.413 87.8473 771.092 87.7564 770.729 87.7564 770.344 87.7564 770.006 87.8592 769.713 88.0647 769.421 88.2702 769.191 88.5416 769.025 88.8789 768.862 89.2162 768.779 89.5851 768.776 89.9856V90.3571C768.776 90.8393 768.859 91.2609 769.025 91.6219 769.194 91.9802 769.432 92.2582 769.741 92.4558 770.049 92.6534 770.414 92.7523 770.836 92.7523 771.123 92.7523 771.374 92.7075 771.59 92.6179 771.809 92.5283 771.992 92.4084 772.14 92.2582 772.29 92.1054 772.403 91.9381 772.48 91.7562L773.148 91.9736C773.056 92.2292 772.904 92.465 772.693 92.6811 772.485 92.8972 772.224 93.0711 771.911 93.2028 771.6 93.3319 771.241 93.3965 770.836 93.3965zM778.593 88.5311 777.949 88.7129C777.886 88.5311 777.796 88.3664 777.68 88.2188 777.564 88.0713 777.413 87.954 777.226 87.8671 777.041 87.7801 776.812 87.7366 776.538 87.7366 776.127 87.7366 775.79 87.8341 775.526 88.0291 775.263 88.2241 775.131 88.4757 775.131 88.784 775.131 89.0449 775.221 89.257 775.4 89.4204 775.582 89.5811 775.861 89.7089 776.238 89.8038L777.155 90.029C777.663 90.1529 778.044 90.3492 778.297 90.6179 778.552 90.8867 778.68 91.224 778.68 91.6298 778.68 91.9723 778.585 92.2766 778.396 92.5428 778.206 92.8089 777.941 93.0184 777.601 93.1712 777.264 93.3214 776.873 93.3965 776.427 93.3965 775.834 93.3965 775.346 93.2634 774.961 92.9973 774.576 92.7285 774.33 92.3412 774.222 91.8353L774.898 91.6693C774.985 92.0303 775.155 92.303 775.408 92.4874 775.663 92.6719 775.999 92.7641 776.415 92.7641 776.882 92.7641 777.255 92.66 777.534 92.4519 777.813 92.2411 777.953 91.9776 777.953 91.6614 777.953 91.4163 777.871 91.2108 777.708 91.0448 777.545 90.8762 777.297 90.7523 776.965 90.6733L775.973 90.4361C775.446 90.3097 775.056 90.1094 774.803 89.8354 774.55 89.5613 774.423 89.2214 774.423 88.8156 774.423 88.481 774.514 88.1872 774.696 87.9343 774.878 87.6787 775.128 87.4784 775.447 87.3335 775.766 87.1886 776.13 87.1161 776.538 87.1161 777.094 87.1161 777.538 87.2426 777.87 87.4955 778.205 87.7459 778.446 88.091 778.593 88.5311z" fill="#1d1d1d"/><path d="M810.04 93.27V85.1755H812.652C813.227 85.1755 813.706 85.2861 814.091 85.5075 814.478 85.7262 814.77 86.0239 814.965 86.4007 815.162 86.7775 815.261 87.2017 815.261 87.6734S815.164 88.5706 814.969 88.95C814.774 89.3268 814.484 89.6259 814.099 89.8472 813.714 90.0659 813.236 90.1753 812.664 90.1753H810.609V89.5113H812.645C813.069 89.5113 813.421 89.4322 813.7 89.2741 813.979 89.1134 814.187 88.8947 814.324 88.618 814.464 88.3414 814.534 88.0265 814.534 87.6734S814.464 87.0054 814.324 86.7288C814.187 86.4521 813.978 86.2347 813.696 86.0766 813.417 85.9185 813.062 85.8395 812.633 85.8395H810.779V93.27H810.04zM818.212 93.4084C817.845 93.4084 817.511 93.3372 817.208 93.1949 816.905 93.05 816.664 92.8418 816.484 92.5704 816.305 92.2964 816.216 91.9644 816.216 91.5744 816.216 91.2741 816.272 91.0211 816.386 90.8156 816.499 90.61 816.66 90.4414 816.868 90.3097 817.076 90.1779 817.322 90.0738 817.607 89.9974 817.891 89.921 818.205 89.8617 818.548 89.8196 818.887 89.7774 819.175 89.7405 819.409 89.7089 819.646 89.6773 819.827 89.6272 819.951 89.5587S820.136 89.3795 820.136 89.2267V89.0844C820.136 88.6707 820.013 88.3453 819.765 88.1082 819.52 87.8684 819.167 87.7485 818.706 87.7485 818.268 87.7485 817.911 87.8447 817.635 88.037 817.361 88.2294 817.168 88.456 817.057 88.7168L816.39 88.4757C816.527 88.1437 816.716 87.8789 816.959 87.6813 817.201 87.481 817.472 87.3374 817.773 87.2505 818.073 87.1609 818.378 87.1161 818.686 87.1161 818.918 87.1161 819.159 87.1464 819.409 87.207 819.662 87.2676 819.897 87.373 820.113 87.5232 820.329 87.6708 820.504 87.8776 820.638 88.1437 820.773 88.4072 820.84 88.7419 820.84 89.1477V93.27H820.136V92.3096H820.093C820.009 92.4888 819.883 92.6627 819.717 92.8313 819.551 92.9999 819.343 93.1383 819.093 93.2463 818.843 93.3543 818.549 93.4084 818.212 93.4084zM818.306 92.7641C818.681 92.7641 819.005 92.6811 819.279 92.5151S819.764 92.1291 819.911 91.8551C820.061 91.5784 820.136 91.274 820.136 90.942V90.0646C820.084 90.1147 819.995 90.1595 819.872 90.199 819.75 90.2385 819.609 90.2741 819.449 90.3057 819.291 90.3347 819.133 90.3597 818.974 90.3808 818.816 90.4019 818.674 90.4203 818.548 90.4361 818.205 90.4783 817.913 90.5442 817.67 90.6338 817.428 90.7233 817.242 90.8472 817.113 91.0053 816.984 91.1607 816.919 91.361 816.919 91.6061 816.919 91.9749 817.051 92.2608 817.314 92.4637 817.578 92.664 817.909 92.7641 818.306 92.7641zM822.378 93.27V87.1991H823.061v.9328H823.113C823.234 87.8262 823.445 87.5799 823.745 87.3928 824.048 87.2031 824.391 87.1082 824.773 87.1082 824.831 87.1082 824.895 87.1095 824.966 87.1122 825.037 87.1148 825.097 87.1174 825.144 87.1201V87.8354C825.113 87.8302 825.057 87.8223 824.978 87.8117 824.899 87.8012 824.814 87.7959 824.721 87.7959 824.405 87.7959 824.123 87.8631 823.875 87.9975 823.63 88.1292 823.437 88.3124 823.294 88.5469 823.152 88.7814 823.081 89.0488 823.081 89.3492V93.27H822.378zm6.404-6.0709V87.8117H825.885V87.1991H828.782zM826.79 85.7446H827.498v5.9405C827.498 91.9381 827.541 92.137 827.628 92.2819 827.715 92.4242 827.829 92.5256 827.968 92.5863 828.108 92.6442 828.257 92.6732 828.415 92.6732 828.507 92.6732 828.586 92.6679 828.652 92.6574 828.718 92.6442 828.776 92.631 828.826 92.6179L828.976 93.2542C828.908 93.2806 828.823 93.3043 828.723 93.3254 828.623 93.3491 828.499 93.3609 828.352 93.3609 828.093 93.3609 827.844 93.3043 827.605 93.191 827.368 93.0777 827.173 92.909 827.02 92.6851 826.867 92.4611 826.79 92.1831 826.79 91.8511V85.7446zM830.054 93.27V87.1991H830.762V93.27H830.054zM830.414 86.1557C830.269 86.1557 830.145 86.1069 830.042 86.0094 829.94 85.9093 829.888 85.7894 829.888 85.6498 829.888 85.5101 829.94 85.3915 830.042 85.294 830.145 85.1939 830.269 85.1439 830.414 85.1439S830.683 85.1939 830.785 85.294C830.888 85.3915 830.94 85.5101 830.94 85.6498 830.94 85.7894 830.888 85.9093 830.785 86.0094 830.683 86.1069 830.559 86.1557 830.414 86.1557zM834.66 93.3965C834.117 93.3965 833.644 93.2608 833.241 92.9894 832.84 92.718 832.53 92.3465 832.308 91.8748 832.087 91.4032 831.976 90.8656 831.976 90.2622 831.976 89.6536 832.088 89.1121 832.312 88.6378 832.539 88.1635 832.852 87.792 833.253 87.5232 833.653 87.2518 834.118 87.1161 834.648 87.1161 835.054 87.1161 835.421 87.1952 835.751 87.3533 836.08 87.5087 836.352 87.7287 836.565 88.0133 836.781 88.2952 836.917 88.6246 836.972 89.0014H836.261C836.187 88.6589 836.009 88.3664 835.727 88.124 835.448 87.8789 835.092 87.7564 834.66 87.7564 834.273 87.7564 833.93 87.8618 833.632 88.0726 833.335 88.2808 833.101 88.5719 832.933 88.9461 832.767 89.3176 832.684 89.7484 832.684 90.2385 832.684 90.7313 832.765 91.1673 832.929 91.5468 833.092 91.9236 833.321 92.2187 833.616 92.4321 833.914 92.6455 834.262 92.7523 834.66 92.7523 834.929 92.7523 835.174 92.7022 835.395 92.6021 835.619 92.4993 835.806 92.3544 835.956 92.1673 836.109 91.9802 836.212 91.7576 836.265 91.4993H836.976C836.923 91.8656 836.793 92.1923 836.585 92.4795 836.379 92.7641 836.112 92.9881 835.782 93.1514 835.456 93.3148 835.081 93.3965 834.66 93.3965zM842.008 90.95V87.1991H842.711V93.27H842.008V92.2622H841.952C841.81 92.5731 841.585 92.8326 841.276 93.0408 840.968 93.2463 840.591 93.3491 840.146 93.3491 839.759 93.3491 839.415 93.2647 839.114 93.0961 838.814 92.9248 838.578 92.6745 838.407 92.3452 838.236 92.0158 838.15 91.6113 838.15 91.1318V87.1991H838.853v3.8892C838.853 91.5626 838.993 91.9446 839.272 92.2345 839.552 92.5217 839.91 92.6653 840.347 92.6653 840.622 92.6653 840.885 92.5994 841.138 92.4677 841.391 92.3359 841.599 92.1436 841.762 91.8906 841.926 91.635 842.008 91.3215 842.008 90.95zM844.943 85.1755V93.27H844.24V85.1755H844.943zM846.479 93.27V87.1991H847.186V93.27H846.479zM846.839 86.1557C846.694 86.1557 846.57 86.1069 846.467 86.0094 846.364 85.9093 846.313 85.7894 846.313 85.6498 846.313 85.5101 846.364 85.3915 846.467 85.294 846.57 85.1939 846.694 85.1439 846.839 85.1439 846.983 85.1439 847.107 85.1939 847.21 85.294 847.313 85.3915 847.364 85.5101 847.364 85.6498 847.364 85.7894 847.313 85.9093 847.21 86.0094 847.107 86.1069 846.983 86.1557 846.839 86.1557zM851.167 93.3965C850.601 93.3965 850.111 93.2647 849.697 93.0013 849.283 92.7351 848.963 92.3676 848.737 91.8985 848.513 91.4269 848.401 90.8841 848.401 90.2701 848.401 89.6588 848.513 89.116 848.737 88.6417 848.963 88.1648 849.276 87.792 849.673 87.5232 850.074 87.2518 850.536 87.1161 851.061 87.1161 851.39 87.1161 851.708 87.1767 852.013 87.2979 852.319 87.4165 852.593 87.5996 852.835 87.8473 853.08 88.0924 853.274 88.402 853.416 88.7761 853.559 89.1477 853.63 89.5877 853.63 90.0962V90.444H848.887V89.8235H852.91C852.91 89.4335 852.831 89.0831 852.673 88.7722 852.518 88.4586 852.3 88.2109 852.021 88.0291 851.745 87.8473 851.424 87.7564 851.061 87.7564 850.676 87.7564 850.337 87.8592 850.045 88.0647 849.753 88.2702 849.523 88.5416 849.357 88.8789 849.194 89.2162 849.111 89.5851 849.108 89.9856V90.3571C849.108 90.8393 849.191 91.2609 849.357 91.6219 849.526 91.9802 849.764 92.2582 850.073 92.4558 850.381 92.6534 850.746 92.7523 851.167 92.7523 851.455 92.7523 851.706 92.7075 851.922 92.6179 852.141 92.5283 852.324 92.4084 852.472 92.2582 852.622 92.1054 852.735 91.9381 852.812 91.7562L853.48 91.9736C853.387 92.2292 853.236 92.465 853.025 92.6811 852.817 92.8972 852.556 93.0711 852.243 93.2028 851.932 93.3319 851.573 93.3965 851.167 93.3965zM854.846 93.27V87.1991H855.53v.9328H855.581C855.703 87.8262 855.913 87.5799 856.214 87.3928 856.517 87.2031 856.859 87.1082 857.241 87.1082 857.299 87.1082 857.364 87.1095 857.435 87.1122 857.506 87.1148 857.566 87.1174 857.613 87.1201V87.8354C857.581 87.8302 857.526 87.8223 857.447 87.8117 857.368 87.8012 857.282 87.7959 857.19 87.7959 856.874 87.7959 856.592 87.8631 856.344 87.9975 856.099 88.1292 855.905 88.3124 855.763 88.5469 855.621 88.7814 855.55 89.0488 855.55 89.3492V93.27H854.846zM862.558 88.5311 861.914 88.7129C861.851 88.5311 861.761 88.3664 861.645 88.2188 861.53 88.0713 861.378 87.954 861.191 87.8671 861.007 87.7801 860.777 87.7366 860.503 87.7366 860.092 87.7366 859.755 87.8341 859.491 88.0291 859.228 88.2241 859.096 88.4757 859.096 88.784 859.096 89.0449 859.186 89.257 859.365 89.4204 859.547 89.5811 859.826 89.7089 860.203 89.8038L861.12 90.029C861.628 90.1529 862.009 90.3492 862.262 90.6179 862.518 90.8867 862.645 91.224 862.645 91.6298 862.645 91.9723 862.551 92.2766 862.361 92.5428 862.171 92.8089 861.906 93.0184 861.566 93.1712 861.229 93.3214 860.838 93.3965 860.393 93.3965 859.8 93.3965 859.311 93.2634 858.926 92.9973 858.542 92.7285 858.295 92.3412 858.187 91.8353L858.863 91.6693C858.95 92.0303 859.12 92.303 859.373 92.4874 859.628 92.6719 859.964 92.7641 860.381 92.7641 860.847 92.7641 861.22 92.66 861.499 92.4519 861.779 92.2411 861.918 91.9776 861.918 91.6614 861.918 91.4163 861.837 91.2108 861.673 91.0448 861.51 90.8762 861.262 90.7523 860.93 90.6733L859.938 90.4361C859.411 90.3097 859.021 90.1094 858.768 89.8354 858.515 89.5613 858.389 89.2214 858.389 88.8156 858.389 88.481 858.48 88.1872 858.661 87.9343 858.843 87.6787 859.094 87.4784 859.412 87.3335 859.731 87.1886 860.095 87.1161 860.503 87.1161 861.059 87.1161 861.503 87.2426 861.835 87.4955 862.17 87.7459 862.411 88.091 862.558 88.5311z" fill="#1d1d1d"/><path d="M894.501 93.27V85.1755H899.196V85.8395H895.24V88.8868H898.947V89.5508H895.24V92.606H899.275V93.27h-4.774zM901.333 89.4757V93.27H900.629V87.1991H901.313V88.1516H901.376C901.518 87.8407 901.74 87.5917 902.04 87.4046 902.343 87.2149 902.717 87.1201 903.163 87.1201 903.571 87.1201 903.929 87.2057 904.238 87.377 904.549 87.5456 904.79 87.7946 904.961 88.124 905.135 88.4533 905.222 88.8578 905.222 89.3374V93.27H904.518V89.3808C904.518 88.8828 904.379 88.4889 904.099 88.1991 903.823 87.9092 903.451 87.7643 902.985 87.7643 902.666 87.7643 902.383 87.8328 902.135 87.9698S901.691 88.3045 901.546 88.5627C901.404 88.8183 901.333 89.1226 901.333 89.4757zM909.132 87.1991V87.8117H906.235V87.1991H909.132zM907.14 85.7446H907.847v5.9405C907.847 91.9381 907.891 92.137 907.978 92.2819 908.065 92.4242 908.178 92.5256 908.318 92.5863 908.457 92.6442 908.606 92.6732 908.764 92.6732 908.856 92.6732 908.936 92.6679 909.001 92.6574 909.067 92.6442 909.125 92.631 909.175 92.6179L909.326 93.2542C909.257 93.2806 909.173 93.3043 909.073 93.3254 908.972 93.3491 908.849 93.3609 908.701 93.3609 908.443 93.3609 908.194 93.3043 907.954 93.191 907.717 93.0777 907.522 92.909 907.369 92.6851 907.216 92.4611 907.14 92.1831 907.14 91.8511V85.7446zM910.396 93.27V87.1991H911.079v.9328H911.131C911.252 87.8262 911.463 87.5799 911.763 87.3928 912.066 87.2031 912.409 87.1082 912.791 87.1082 912.849 87.1082 912.913 87.1095 912.985 87.1122 913.056 87.1148 913.115 87.1174 913.162 87.1201V87.8354C913.131 87.8302 913.075 87.8223 912.996 87.8117 912.917 87.8012 912.832 87.7959 912.739 87.7959 912.423 87.7959 912.141 87.8631 911.894 87.9975 911.649 88.1292 911.455 88.3124 911.313 88.5469 911.17 88.7814 911.099 89.0488 911.099 89.3492V93.27H910.396zM916.299 93.3965C915.732 93.3965 915.242 93.2647 914.828 93.0013 914.415 92.7351 914.095 92.3676 913.868 91.8985 913.644 91.4269 913.532 90.8841 913.532 90.2701 913.532 89.6588 913.644 89.116 913.868 88.6417 914.095 88.1648 914.407 87.792 914.805 87.5232 915.205 87.2518 915.668 87.1161 916.192 87.1161 916.521 87.1161 916.839 87.1767 917.145 87.2979 917.45 87.4165 917.724 87.5996 917.967 87.8473 918.212 88.0924 918.405 88.402 918.548 88.7761 918.69 89.1477 918.761 89.5877 918.761 90.0962V90.444H914.018V89.8235h4.024C918.042 89.4335 917.963 89.0831 917.805 88.7722 917.649 88.4586 917.432 88.2109 917.152 88.0291 916.876 87.8473 916.556 87.7564 916.192 87.7564 915.807 87.7564 915.469 87.8592 915.176 88.0647 914.884 88.2702 914.655 88.5416 914.489 88.8789 914.325 89.2162 914.242 89.5851 914.24 89.9856V90.3571C914.24 90.8393 914.323 91.2609 914.489 91.6219 914.657 91.9802 914.896 92.2582 915.204 92.4558 915.512 92.6534 915.877 92.7523 916.299 92.7523 916.586 92.7523 916.838 92.7075 917.054 92.6179 917.272 92.5283 917.455 92.4084 917.603 92.2582 917.753 92.1054 917.867 91.9381 917.943 91.7562L918.611 91.9736C918.519 92.2292 918.367 92.465 918.156 92.6811 917.948 92.8972 917.687 93.0711 917.374 93.2028 917.063 93.3319 916.705 93.3965 916.299 93.3965zM919.978 95.5466V87.1991H920.661v1.1581H920.744C920.829 88.1754 920.945 87.9896 921.092 87.7999 921.24 87.6075 921.435 87.4455 921.677 87.3137 921.922 87.182 922.23 87.1161 922.602 87.1161 923.103 87.1161 923.54 87.2479 923.914 87.5114 924.291 87.7722 924.583 88.1385 924.792 88.6101 925.002 89.0791 925.108 89.6259 925.108 90.2504 925.108 90.8775 925.002 91.4269 924.792 91.8985 924.583 92.3702 924.291 92.7378 923.914 93.0013 923.54 93.2647 923.105 93.3965 922.61 93.3965 922.244 93.3965 921.937 93.3306 921.689 93.1989 921.444 93.0671 921.245 92.9051 921.092 92.7127 920.942 92.5177 920.826 92.328 920.744 92.1436H920.681V95.5466H919.978zM920.673 90.2385C920.673 90.7286 920.746 91.1634 920.891 91.5428 921.038 91.9196 921.249 92.216 921.523 92.4321 921.8 92.6455 922.134 92.7523 922.527 92.7523 922.93 92.7523 923.27 92.6416 923.547 92.4203 923.826 92.1963 924.038 91.8946 924.183 91.5151 924.33 91.1357 924.404 90.7102 924.404 90.2385 924.404 89.7721 924.332 89.3519 924.187 88.9777 924.045 88.6035 923.834 88.3071 923.554 88.0884 923.275 87.8671 922.933 87.7564 922.527 87.7564 922.132 87.7564 921.796 87.8631 921.519 88.0765 921.242 88.2873 921.031 88.5798 920.887 88.954 920.744 89.3255 920.673 89.7537 920.673 90.2385zM926.317 93.27V87.1991H927.001v.9328H927.052C927.174 87.8262 927.384 87.5799 927.685 87.3928 927.988 87.2031 928.33 87.1082 928.712 87.1082 928.77 87.1082 928.835 87.1095 928.906 87.1122 928.977 87.1148 929.037 87.1174 929.084 87.1201V87.8354C929.052 87.8302 928.997 87.8223 928.918 87.8117 928.839 87.8012 928.753 87.7959 928.661 87.7959 928.345 87.7959 928.063 87.8631 927.815 87.9975 927.57 88.1292 927.377 88.3124 927.234 88.5469 927.092 88.7814 927.021 89.0488 927.021 89.3492V93.27H926.317zM929.959 93.27V87.1991H930.666V93.27H929.959zM930.318 86.1557C930.173 86.1557 930.049 86.1069 929.947 86.0094 929.844 85.9093 929.793 85.7894 929.793 85.6498 929.793 85.5101 929.844 85.3915 929.947 85.294 930.049 85.1939 930.173 85.1439 930.318 85.1439S930.587 85.1939 930.69 85.294C930.792 85.3915 930.844 85.5101 930.844 85.6498 930.844 85.7894 930.792 85.9093 930.69 86.0094 930.587 86.1069 930.463 86.1557 930.318 86.1557zM936.272 88.5311 935.627 88.7129C935.564 88.5311 935.475 88.3664 935.359 88.2188 935.243 88.0713 935.091 87.954 934.904 87.8671 934.72 87.7801 934.49 87.7366 934.216 87.7366 933.805 87.7366 933.468 87.8341 933.205 88.0291 932.941 88.2241 932.809 88.4757 932.809 88.784 932.809 89.0449 932.899 89.257 933.078 89.4204 933.26 89.5811 933.539 89.7089 933.916 89.8038L934.833 90.029C935.341 90.1529 935.722 90.3492 935.975 90.6179 936.231 90.8867 936.359 91.224 936.359 91.6298 936.359 91.9723 936.264 92.2766 936.074 92.5428 935.884 92.8089 935.619 93.0184 935.28 93.1712 934.942 93.3214 934.551 93.3965 934.106 93.3965 933.513 93.3965 933.024 93.2634 932.639 92.9973 932.255 92.7285 932.008 92.3412 931.9 91.8353L932.576 91.6693C932.663 92.0303 932.833 92.303 933.086 92.4874 933.342 92.6719 933.677 92.7641 934.094 92.7641 934.56 92.7641 934.933 92.66 935.212 92.4519 935.492 92.2411 935.631 91.9776 935.631 91.6614 935.631 91.4163 935.55 91.2108 935.386 91.0448 935.223 90.8762 934.975 90.7523 934.643 90.6733L933.651 90.4361C933.124 90.3097 932.734 90.1094 932.481 89.8354 932.228 89.5613 932.102 89.2214 932.102 88.8156 932.102 88.481 932.193 88.1872 932.374 87.9343 932.556 87.6787 932.807 87.4784 933.125 87.3335 933.444 87.1886 933.808 87.1161 934.216 87.1161 934.772 87.1161 935.216 87.2426 935.548 87.4955 935.883 87.7459 936.124 88.091 936.272 88.5311zM940.02 93.3965C939.453 93.3965 938.963 93.2647 938.549 93.0013 938.136 92.7351 937.815 92.3676 937.589 91.8985 937.365 91.4269 937.253 90.8841 937.253 90.2701 937.253 89.6588 937.365 89.116 937.589 88.6417 937.815 88.1648 938.128 87.792 938.526 87.5232 938.926 87.2518 939.388 87.1161 939.913 87.1161 940.242 87.1161 940.56 87.1767 940.865 87.2979 941.171 87.4165 941.445 87.5996 941.687 87.8473 941.933 88.0924 942.126 88.402 942.268 88.7761 942.411 89.1477 942.482 89.5877 942.482 90.0962V90.444H937.739V89.8235h4.024C941.763 89.4335 941.684 89.0831 941.525 88.7722 941.37 88.4586 941.153 88.2109 940.873 88.0291 940.597 87.8473 940.276 87.7564 939.913 87.7564 939.528 87.7564 939.19 87.8592 938.897 88.0647 938.605 88.2702 938.375 88.5416 938.209 88.8789 938.046 89.2162 937.963 89.5851 937.96 89.9856V90.3571C937.96 90.8393 938.043 91.2609 938.209 91.6219 938.378 91.9802 938.616 92.2582 938.925 92.4558 939.233 92.6534 939.598 92.7523 940.02 92.7523 940.307 92.7523 940.558 92.7075 940.774 92.6179 940.993 92.5283 941.176 92.4084 941.324 92.2582 941.474 92.1054 941.587 91.9381 941.664 91.7562L942.332 91.9736C942.239 92.2292 942.088 92.465 941.877 92.6811 941.669 92.8972 941.408 93.0711 941.095 93.2028 940.784 93.3319 940.425 93.3965 940.02 93.3965zM947.777 88.5311 947.133 88.7129C947.07 88.5311 946.98 88.3664 946.864 88.2188 946.748 88.0713 946.597 87.954 946.41 87.8671 946.225 87.7801 945.996 87.7366 945.722 87.7366 945.311 87.7366 944.974 87.8341 944.71 88.0291 944.447 88.2241 944.315 88.4757 944.315 88.784 944.315 89.0449 944.404 89.257 944.584 89.4204 944.765 89.5811 945.045 89.7089 945.422 89.8038L946.339 90.029C946.847 90.1529 947.228 90.3492 947.481 90.6179 947.736 90.8867 947.864 91.224 947.864 91.6298 947.864 91.9723 947.769 92.2766 947.58 92.5428 947.39 92.8089 947.125 93.0184 946.785 93.1712 946.448 93.3214 946.057 93.3965 945.611 93.3965 945.018 93.3965 944.53 93.2634 944.145 92.9973 943.76 92.7285 943.514 92.3412 943.406 91.8353L944.082 91.6693C944.169 92.0303 944.339 92.303 944.592 92.4874 944.847 92.6719 945.183 92.7641 945.599 92.7641 946.066 92.7641 946.439 92.66 946.718 92.4519 946.997 92.2411 947.137 91.9776 947.137 91.6614 947.137 91.4163 947.055 91.2108 946.892 91.0448 946.729 90.8762 946.481 90.7523 946.149 90.6733L945.157 90.4361C944.63 90.3097 944.24 90.1094 943.987 89.8354 943.734 89.5613 943.607 89.2214 943.607 88.8156 943.607 88.481 943.698 88.1872 943.88 87.9343 944.062 87.6787 944.312 87.4784 944.631 87.3335 944.95 87.1886 945.314 87.1161 945.722 87.1161 946.278 87.1161 946.722 87.2426 947.054 87.4955 947.389 87.7459 947.63 88.091 947.777 88.5311z" fill="#1d1d1d"/><path d="M982.997 90.7405H983.819L984.855 92.112 985.029 92.3412 986.301 94.0289H985.479L984.547 92.7839 984.381 92.5625 982.997 90.7405zM986.602 89.2227C986.602 90.0659 986.452 90.7998 986.151 91.4242 985.851 92.0461 985.437 92.5283 984.91 92.8708 984.386 93.2107 983.782 93.3807 983.1 93.3807 982.417 93.3807 981.813 93.2107 981.286 92.8708 980.761 92.5283 980.349 92.0461 980.049 91.4242 979.751 90.7998 979.602 90.0659 979.602 89.2227 979.602 88.3796 979.751 87.6471 980.049 87.0252 980.349 86.4007 980.763 85.9185 981.29 85.5786 981.817 85.2361 982.42 85.0648 983.1 85.0648 983.782 85.0648 984.386 85.2361 984.91 85.5786 985.437 85.9185 985.851 86.4007 986.151 87.0252 986.452 87.6471 986.602 88.3796 986.602 89.2227zM985.882 89.2227C985.882 88.4981 985.761 87.8776 985.519 87.3612 985.276 86.8421 984.946 86.4455 984.527 86.1715 984.108 85.8974 983.632 85.7604 983.1 85.7604 982.57 85.7604 982.096 85.8974 981.677 86.1715 981.258 86.4455 980.926 86.8408 980.681 87.3572 980.439 87.8737 980.317 88.4955 980.317 89.2227 980.317 89.9474 980.439 90.5679 980.681 91.0843 980.923 91.6008 981.254 91.9973 981.673 92.274 982.092 92.548 982.568 92.6851 983.1 92.6851 983.632 92.6851 984.108 92.548 984.527 92.274 984.948 92 985.28 91.6047 985.523 91.0883 985.765 90.5692 985.885 89.9474 985.882 89.2227zM991.767 90.95V87.1991H992.47V93.27H991.767V92.2622H991.711C991.569 92.5731 991.344 92.8326 991.035 93.0408 990.727 93.2463 990.35 93.3491 989.905 93.3491 989.518 93.3491 989.174 93.2647 988.874 93.0961 988.573 92.9248 988.337 92.6745 988.166 92.3452 987.995 92.0158 987.909 91.6113 987.909 91.1318V87.1991H988.613v3.8892C988.613 91.5626 988.752 91.9446 989.032 92.2345 989.311 92.5217 989.669 92.6653 990.107 92.6653 990.381 92.6653 990.644 92.5994 990.897 92.4677 991.15 92.3359 991.358 92.1436 991.522 91.8906 991.685 91.635 991.767 91.3215 991.767 90.95zM994.007 93.27V87.1991H994.714V93.27H994.007zM994.366 86.1557C994.222 86.1557 994.098 86.1069 993.995 86.0094 993.892 85.9093 993.841 85.7894 993.841 85.6498 993.841 85.5101 993.892 85.3915 993.995 85.294 994.098 85.1939 994.222 85.1439 994.366 85.1439 994.511 85.1439 994.635 85.1939 994.738 85.294 994.841 85.3915 994.892 85.5101 994.892 85.6498 994.892 85.7894 994.841 85.9093 994.738 86.0094 994.635 86.1069 994.511 86.1557 994.366 86.1557zM1003.12 88.5311 1002.47 88.7129C1002.41 88.5311 1002.32 88.3664 1002.2 88.2188 1002.09 88.0713 1001.94 87.954 1001.75 87.8671 1001.56 87.7801 1001.34 87.7366 1001.06 87.7366 1000.65 87.7366 1000.31 87.8341 1000.05 88.0291 999.786 88.2241 999.654 88.4757 999.654 88.784 999.654 89.0449 999.744 89.257 999.923 89.4204 1000.1 89.5811 1000.38 89.7089 1000.76 89.8038L1001.68 90.029C1002.19 90.1529 1002.57 90.3492 1002.82 90.6179 1003.08 90.8867 1003.2 91.224 1003.2 91.6298 1003.2 91.9723 1003.11 92.2766 1002.92 92.5428 1002.73 92.8089 1002.46 93.0184 1002.12 93.1712 1001.79 93.3214 1001.4 93.3965 1000.95 93.3965 1000.36 93.3965 999.869 93.2634 999.484 92.9973 999.099 92.7285 998.853 92.3412 998.745 91.8353L999.421 91.6693C999.508 92.0303 999.678 92.303 999.931 92.4874 1000.19 92.6719 1000.52 92.7641 1000.94 92.7641 1001.4 92.7641 1001.78 92.66 1002.06 92.4519 1002.34 92.2411 1002.48 91.9776 1002.48 91.6614 1002.48 91.4163 1002.39 91.2108 1002.23 91.0448 1002.07 90.8762 1001.82 90.7523 1001.49 90.6733L1000.5 90.4361C999.969 90.3097 999.579 90.1094 999.326 89.8354 999.073 89.5613 998.946 89.2214 998.946 88.8156 998.946 88.481 999.037 88.1872 999.219 87.9343 999.401 87.6787 999.651 87.4784 999.97 87.3335 1000.29 87.1886 1000.65 87.1161 1001.06 87.1161 1001.62 87.1161 1002.06 87.2426 1002.39 87.4955 1002.73 87.7459 1002.97 88.091 1003.12 88.5311zM1006.77 93.3965C1006.25 93.3965 1005.78 93.2634 1005.38 92.9973 1004.98 92.7312 1004.66 92.3636 1004.44 91.8946 1004.21 91.4229 1004.1 90.8788 1004.1 90.2622 1004.1 89.6404 1004.21 89.0936 1004.44 88.622 1004.66 88.1477 1004.98 87.7788 1005.38 87.5153 1005.78 87.2492 1006.25 87.1161 1006.77 87.1161S1007.76 87.2492 1008.16 87.5153C1008.56 87.7814 1008.87 88.1503 1009.1 88.622 1009.33 89.0936 1009.44 89.6404 1009.44 90.2622 1009.44 90.8788 1009.33 91.4229 1009.1 91.8946 1008.87 92.3636 1008.56 92.7312 1008.16 92.9973 1007.76 93.2634 1007.29 93.3965 1006.77 93.3965zM1006.77 92.7523C1007.19 92.7523 1007.55 92.639 1007.84 92.4123 1008.13 92.1857 1008.35 91.884 1008.5 91.5072 1008.66 91.1304 1008.73 90.7154 1008.73 90.2622 1008.73 89.809 1008.66 89.3927 1008.5 89.0133 1008.35 88.6338 1008.13 88.3295 1007.84 88.1003 1007.55 87.871 1007.19 87.7564 1006.77 87.7564 1006.35 87.7564 1005.99 87.871 1005.7 88.1003 1005.41 88.3295 1005.18 88.6338 1005.03 89.0133 1004.88 89.3927 1004.81 89.809 1004.81 90.2622 1004.81 90.7154 1004.88 91.1304 1005.03 91.5072S1005.41 92.1857 1005.7 92.4123C1005.99 92.639 1006.35 92.7523 1006.77 92.7523zM1010.65 93.27V87.1991H1011.34v.9328H1011.4C1011.52 87.8183 1011.72 87.572 1012 87.3928 1012.29 87.211 1012.63 87.1201 1013.03 87.1201 1013.45 87.1201 1013.79 87.2189 1014.06 87.4165 1014.33 87.6115 1014.53 87.8802 1014.67 88.2228H1014.72C1014.86 87.8855 1015.08 87.6181 1015.39 87.4204 1015.7 87.2202 1016.07 87.1201 1016.52 87.1201 1017.08 87.1201 1017.53 87.2979 1017.85 87.6536 1018.18 88.0067 1018.34 88.5232 1018.34 89.203V93.27H1017.64V89.203C1017.64 88.7234 1017.52 88.3638 1017.27 88.124 1017.03 87.8842 1016.7 87.7643 1016.3 87.7643 1015.84 87.7643 1015.48 87.9066 1015.23 88.1912 1014.98 88.4757 1014.86 88.8367 1014.86 89.2741V93.27H1014.14V89.1397C1014.14 88.7287 1014.02 88.3967 1013.79 88.1437 1013.56 87.8908 1013.24 87.7643 1012.83 87.7643 1012.55 87.7643 1012.29 87.8328 1012.07 87.9698 1011.85 88.1068 1011.67 88.2979 1011.54 88.5429 1011.42 88.7853 1011.36 89.0646 1011.36 89.3808V93.27H1010.65zM1019.87 93.27V87.1991H1020.56v.9328H1020.62C1020.74 87.8183 1020.94 87.572 1021.22 87.3928 1021.51 87.211 1021.85 87.1201 1022.25 87.1201 1022.67 87.1201 1023.01 87.2189 1023.28 87.4165 1023.55 87.6115 1023.75 87.8802 1023.89 88.2228H1023.94C1024.08 87.8855 1024.3 87.6181 1024.61 87.4204 1024.92 87.2202 1025.29 87.1201 1025.74 87.1201 1026.3 87.1201 1026.75 87.2979 1027.07 87.6536 1027.4 88.0067 1027.56 88.5232 1027.56 89.203V93.27H1026.86V89.203C1026.86 88.7234 1026.74 88.3638 1026.49 88.124 1026.25 87.8842 1025.92 87.7643 1025.52 87.7643 1025.06 87.7643 1024.7 87.9066 1024.45 88.1912 1024.2 88.4757 1024.08 88.8367 1024.08 89.2741V93.27H1023.36V89.1397C1023.36 88.7287 1023.24 88.3967 1023.01 88.1437 1022.78 87.8908 1022.46 87.7643 1022.05 87.7643 1021.77 87.7643 1021.51 87.8328 1021.29 87.9698 1021.07 88.1068 1020.89 88.2979 1020.77 88.5429 1020.64 88.7853 1020.58 89.0646 1020.58 89.3808V93.27H1019.87zM1031.55 93.3965C1030.98 93.3965 1030.49 93.2647 1030.08 93.0013 1029.66 92.7351 1029.34 92.3676 1029.12 91.8985 1028.89 91.4269 1028.78 90.8841 1028.78 90.2701 1028.78 89.6588 1028.89 89.116 1029.12 88.6417 1029.34 88.1648 1029.65 87.792 1030.05 87.5232 1030.45 87.2518 1030.92 87.1161 1031.44 87.1161 1031.77 87.1161 1032.09 87.1767 1032.39 87.2979 1032.7 87.4165 1032.97 87.5996 1033.21 87.8473 1033.46 88.0924 1033.65 88.402 1033.8 88.7761 1033.94 89.1477 1034.01 89.5877 1034.01 90.0962V90.444H1029.27V89.8235H1033.29C1033.29 89.4335 1033.21 89.0831 1033.05 88.7722 1032.9 88.4586 1032.68 88.2109 1032.4 88.0291 1032.12 87.8473 1031.8 87.7564 1031.44 87.7564 1031.05 87.7564 1030.72 87.8592 1030.42 88.0647 1030.13 88.2702 1029.9 88.5416 1029.74 88.8789 1029.57 89.2162 1029.49 89.5851 1029.49 89.9856V90.3571C1029.49 90.8393 1029.57 91.2609 1029.74 91.6219 1029.9 91.9802 1030.14 92.2582 1030.45 92.4558 1030.76 92.6534 1031.12 92.7523 1031.55 92.7523 1031.83 92.7523 1032.09 92.7075 1032.3 92.6179 1032.52 92.5283 1032.7 92.4084 1032.85 92.2582 1033 92.1054 1033.11 91.9381 1033.19 91.7562L1033.86 91.9736C1033.77 92.2292 1033.61 92.465 1033.4 92.6811 1033.2 92.8972 1032.93 93.0711 1032.62 93.2028 1032.31 93.3319 1031.95 93.3965 1031.55 93.3965zM1039.3 88.5311 1038.66 88.7129C1038.6 88.5311 1038.51 88.3664 1038.39 88.2188 1038.28 88.0713 1038.12 87.954 1037.94 87.8671 1037.75 87.7801 1037.52 87.7366 1037.25 87.7366 1036.84 87.7366 1036.5 87.8341 1036.24 88.0291 1035.97 88.2241 1035.84 88.4757 1035.84 88.784 1035.84 89.0449 1035.93 89.257 1036.11 89.4204 1036.29 89.5811 1036.57 89.7089 1036.95 89.8038L1037.87 90.029C1038.37 90.1529 1038.75 90.3492 1039.01 90.6179 1039.26 90.8867 1039.39 91.224 1039.39 91.6298 1039.39 91.9723 1039.3 92.2766 1039.11 92.5428 1038.92 92.8089 1038.65 93.0184 1038.31 93.1712 1037.97 93.3214 1037.58 93.3965 1037.14 93.3965 1036.55 93.3965 1036.06 93.2634 1035.67 92.9973 1035.29 92.7285 1035.04 92.3412 1034.93 91.8353L1035.61 91.6693C1035.7 92.0303 1035.87 92.303 1036.12 92.4874 1036.37 92.6719 1036.71 92.7641 1037.13 92.7641 1037.59 92.7641 1037.97 92.66 1038.24 92.4519 1038.52 92.2411 1038.66 91.9776 1038.66 91.6614 1038.66 91.4163 1038.58 91.2108 1038.42 91.0448 1038.26 90.8762 1038.01 90.7523 1037.68 90.6733L1036.68 90.4361C1036.16 90.3097 1035.77 90.1094 1035.51 89.8354 1035.26 89.5613 1035.13 89.2214 1035.13 88.8156 1035.13 88.481 1035.23 88.1872 1035.41 87.9343 1035.59 87.6787 1035.84 87.4784 1036.16 87.3335 1036.48 87.1886 1036.84 87.1161 1037.25 87.1161 1037.8 87.1161 1038.25 87.2426 1038.58 87.4955 1038.92 87.7459 1039.16 88.091 1039.3 88.5311zM1044.1 89.4757V93.27H1043.39V87.1991H1044.08V88.1516H1044.14C1044.28 87.8407 1044.5 87.5917 1044.8 87.4046 1045.11 87.2149 1045.48 87.1201 1045.93 87.1201 1046.34 87.1201 1046.69 87.2057 1047 87.377 1047.31 87.5456 1047.55 87.7946 1047.73 88.124 1047.9 88.4533 1047.99 88.8578 1047.99 89.3374V93.27H1047.28V89.3808C1047.28 88.8828 1047.14 88.4889 1046.86 88.1991 1046.59 87.9092 1046.22 87.7643 1045.75 87.7643 1045.43 87.7643 1045.15 87.8328 1044.9 87.9698S1044.46 88.3045 1044.31 88.5627C1044.17 88.8183 1044.1 89.1226 1044.1 89.4757zM1051.87 93.3965C1051.34 93.3965 1050.88 93.2634 1050.47 92.9973 1050.07 92.7312 1049.76 92.3636 1049.53 91.8946 1049.31 91.4229 1049.19 90.8788 1049.19 90.2622 1049.19 89.6404 1049.31 89.0936 1049.53 88.622 1049.76 88.1477 1050.07 87.7788 1050.47 87.5153 1050.88 87.2492 1051.34 87.1161 1051.87 87.1161 1052.39 87.1161 1052.85 87.2492 1053.25 87.5153 1053.65 87.7814 1053.97 88.1503 1054.19 88.622 1054.42 89.0936 1054.54 89.6404 1054.54 90.2622 1054.54 90.8788 1054.42 91.4229 1054.2 91.8946 1053.97 92.3636 1053.66 92.7312 1053.25 92.9973 1052.85 93.2634 1052.39 93.3965 1051.87 93.3965zM1051.87 92.7523C1052.29 92.7523 1052.64 92.639 1052.94 92.4123 1053.23 92.1857 1053.45 91.884 1053.6 91.5072 1053.75 91.1304 1053.83 90.7154 1053.83 90.2622 1053.83 89.809 1053.75 89.3927 1053.6 89.0133 1053.45 88.6338 1053.23 88.3295 1052.94 88.1003 1052.64 87.871 1052.29 87.7564 1051.87 87.7564 1051.45 87.7564 1051.09 87.871 1050.79 88.1003 1050.5 88.3295 1050.28 88.6338 1050.13 89.0133 1049.98 89.3927 1049.9 89.809 1049.9 90.2622 1049.9 90.7154 1049.98 91.1304 1050.13 91.5072 1050.28 91.884 1050.5 92.1857 1050.79 92.4123 1051.09 92.639 1051.44 92.7523 1051.87 92.7523zM1059.6 90.95V87.1991H1060.31V93.27H1059.6V92.2622H1059.55C1059.41 92.5731 1059.18 92.8326 1058.87 93.0408 1058.57 93.2463 1058.19 93.3491 1057.74 93.3491 1057.36 93.3491 1057.01 93.2647 1056.71 93.0961 1056.41 92.9248 1056.18 92.6745 1056 92.3452 1055.83 92.0158 1055.75 91.6113 1055.75 91.1318V87.1991H1056.45v3.8892C1056.45 91.5626 1056.59 91.9446 1056.87 92.2345 1057.15 92.5217 1057.51 92.6653 1057.94 92.6653 1058.22 92.6653 1058.48 92.5994 1058.74 92.4677 1058.99 92.3359 1059.2 92.1436 1059.36 91.8906 1059.52 91.635 1059.6 91.3215 1059.6 90.95zM1065.92 88.5311 1065.27 88.7129C1065.21 88.5311 1065.12 88.3664 1065 88.2188 1064.89 88.0713 1064.74 87.954 1064.55 87.8671 1064.36 87.7801 1064.13 87.7366 1063.86 87.7366 1063.45 87.7366 1063.11 87.8341 1062.85 88.0291 1062.59 88.2241 1062.45 88.4757 1062.45 88.784 1062.45 89.0449 1062.54 89.257 1062.72 89.4204 1062.9 89.5811 1063.18 89.7089 1063.56 89.8038L1064.48 90.029C1064.99 90.1529 1065.37 90.3492 1065.62 90.6179 1065.88 90.8867 1066 91.224 1066 91.6298 1066 91.9723 1065.91 92.2766 1065.72 92.5428 1065.53 92.8089 1065.26 93.0184 1064.92 93.1712 1064.59 93.3214 1064.2 93.3965 1063.75 93.3965 1063.16 93.3965 1062.67 93.2634 1062.28 92.9973 1061.9 92.7285 1061.65 92.3412 1061.54 91.8353L1062.22 91.6693C1062.31 92.0303 1062.48 92.303 1062.73 92.4874 1062.99 92.6719 1063.32 92.7641 1063.74 92.7641 1064.2 92.7641 1064.58 92.66 1064.86 92.4519 1065.14 92.2411 1065.28 91.9776 1065.28 91.6614 1065.28 91.4163 1065.19 91.2108 1065.03 91.0448 1064.87 90.8762 1064.62 90.7523 1064.29 90.6733L1063.3 90.4361C1062.77 90.3097 1062.38 90.1094 1062.13 89.8354 1061.87 89.5613 1061.75 89.2214 1061.75 88.8156 1061.75 88.481 1061.84 88.1872 1062.02 87.9343 1062.2 87.6787 1062.45 87.4784 1062.77 87.3335 1063.09 87.1886 1063.45 87.1161 1063.86 87.1161 1064.42 87.1161 1064.86 87.2426 1065.19 87.4955 1065.53 87.7459 1065.77 88.091 1065.92 88.5311z" fill="#1d1d1d"/><path d="M203.461 100.5V80.2636h14.11v3.9722H208.352V88.3858H216.85v3.9821H208.352V96.5278H217.571V100.5h-14.11zm19.583-3.9821L223.064 90.7573H223.736L228.005 85.3227H233.479L227.135 93.109H225.86l-2.816 3.4089zM218.687 100.5V80.2636H223.519V100.5H218.687zM228.113 100.5 224.141 94.1959 227.323 90.7672 233.696 100.5h-5.583zM239.72 100.787C238.126 100.787 236.756 100.46 235.609 99.8083 234.47 99.1496 233.59 98.2339 232.971 97.0614 232.358 95.8823 232.052 94.5154 232.052 92.9608 232.052 91.3996 232.358 90.0327 232.971 88.8601 233.59 87.681 234.47 86.7654 235.609 86.1132 236.756 85.4545 238.126 85.1251 239.72 85.1251S242.681 85.4545 243.82 86.1132C244.967 86.7654 245.846 87.681 246.459 88.8601 247.078 90.0327 247.387 91.3996 247.387 92.9608 247.387 94.5154 247.078 95.8823 246.459 97.0614 245.846 98.2339 244.967 99.1496 243.82 99.8083 242.681 100.46 241.314 100.787 239.72 100.787zM239.749 97.1404C240.329 97.1404 240.82 96.9626 241.222 96.6069 241.624 96.2512 241.93 95.7571 242.141 95.1247 242.358 94.4923 242.467 93.7611 242.467 92.9311 242.467 92.0879 242.358 91.3502 242.141 90.7178 241.93 90.0854 241.624 89.5913 241.222 89.2356 240.82 88.8799 240.329 88.702 239.749 88.702 239.15 88.702 238.643 88.8799 238.228 89.2356 237.819 89.5913 237.506 90.0854 237.289 90.7178 237.078 91.3502 236.973 92.0879 236.973 92.9311 236.973 93.7611 237.078 94.4923 237.289 95.1247 237.506 95.7571 237.819 96.2512 238.228 96.6069 238.643 96.9626 239.15 97.1404 239.749 97.1404zm8.166 9.0506V85.3227H252.697V87.9214H252.846C253.043 87.4603 253.323 87.0157 253.685 86.5875 254.054 86.1593 254.522 85.8102 255.089 85.5401 255.662 85.2634 256.347 85.1251 257.144 85.1251 258.198 85.1251 259.183 85.4018 260.098 85.9551 261.02 86.5085 261.765 87.3615 262.331 88.5143 262.898 89.6671 263.181 91.1361 263.181 92.9212 263.181 94.6405 262.908 96.0799 262.361 97.2393 261.821 98.3986 261.09 99.2682 260.167 99.8479 259.252 100.428 258.234 100.717 257.114 100.717 256.35 100.717 255.688 100.592 255.128 100.342 254.568 100.092 254.097 99.7622 253.715 99.3538 253.34 98.9454 253.05 98.5073 252.846 98.0396H252.747V106.191H247.915zm4.733-13.2796C252.648 93.7282 252.757 94.4396 252.974 95.0457 253.198 95.6517 253.517 96.1227 253.932 96.4587 254.354 96.788 254.858 96.9527 255.444 96.9527 256.037 96.9527 256.541 96.788 256.956 96.4587 257.371 96.1227 257.684 95.6517 257.895 95.0457 258.112 94.4396 258.221 93.7282 258.221 92.9114 258.221 92.0945 258.112 91.3864 257.895 90.7869 257.684 90.1875 257.371 89.7231 256.956 89.3937 256.548 89.0643 256.044 88.8997 255.444 88.8997 254.851 88.8997 254.348 89.0611 253.932 89.3838 253.517 89.7066 253.198 90.1677 252.974 90.7672 252.757 91.3666 252.648 92.0814 252.648 92.9114zm15.949-12.6478V100.5H263.765V80.2636H268.597zm10.92 13.6853V85.3227h4.822V100.5H279.734V97.674H279.576C279.24 98.6028 278.667 99.3406 277.857 99.8874 277.053 100.428 276.082 100.698 274.942 100.698 273.908 100.698 272.999 100.46 272.215 99.9862 271.431 99.5119 270.822 98.8499 270.387 98.0001 269.952 97.1437 269.732 96.1425 269.725 94.9963V85.3227H274.557V94.0477C274.563 94.8711 274.781 95.52 275.209 95.9942 275.637 96.4685 276.22 96.7057 276.958 96.7057 277.439 96.7057 277.87 96.6003 278.252 96.3895 278.641 96.1721 278.947 95.8592 279.171 95.4508 279.402 95.0358 279.517 94.5351 279.517 93.9489zm13.025 12.5591C291.099 106.508 289.864 106.307 288.836 105.905 287.809 105.503 287.002 104.953 286.415 104.255 285.829 103.557 285.477 102.766 285.358 101.883L289.933 101.626C290.019 101.936 290.177 102.206 290.407 102.437 290.644 102.667 290.951 102.845 291.326 102.97 291.708 103.095 292.156 103.158 292.67 103.158 293.48 103.158 294.149 102.96 294.676 102.565 295.209 102.176 295.476 101.495 295.476 100.52V97.8519H295.308C295.117 98.3196 294.827 98.7379 294.439 99.1068 294.05 99.4757 293.566 99.7655 292.986 99.9763 292.413 100.187 291.754 100.292 291.01 100.292 289.903 100.292 288.889 100.036 287.967 99.5218 287.051 99.0014 286.317 98.1977 285.763 97.1108 285.216 96.0173 284.943 94.6109 284.943 92.8916 284.943 91.1196 285.226 89.6605 285.793 88.5143 286.359 87.3615 287.1 86.5085 288.016 85.9551 288.938 85.4018 289.93 85.1251 290.99 85.1251 291.787 85.1251 292.469 85.2634 293.036 85.5401 293.609 85.8102 294.08 86.1593 294.449 86.5875 294.817 87.0157 295.097 87.4603 295.288 87.9214H295.427V85.3227H300.239V100.559C300.239 101.844 299.916 102.927 299.271 103.81 298.625 104.693 297.723 105.361 296.563 105.816 295.404 106.277 294.063 106.508 292.542 106.508zM292.69 96.7748C293.276 96.7748 293.777 96.62 294.192 96.3104S294.926 95.5562 295.15 94.9765C295.374 94.3968 295.486 93.7018 295.486 92.8916 295.486 92.0682 295.374 91.36 295.15 90.7672 294.933 90.1677 294.613 89.7066 294.192 89.3838 293.777 89.0611 293.276 88.8997 292.69 88.8997 292.09 88.8997 291.583 89.0643 291.168 89.3937 290.753 89.7231 290.437 90.1875 290.22 90.7869 290.009 91.3798 289.903 92.0814 289.903 92.8916 289.903 93.7018 290.012 94.3968 290.229 94.9765 290.447 95.5562 290.76 96.0008 291.168 96.3104 291.583 96.62 292.09 96.7748 292.69 96.7748z" fill="#1d1d1d"/></g><defs><clipPath id="clip0_2559_1712"><rect width="1272" height="1402.38" fill="#fff"/></clipPath></defs></svg>