<svg width="456" height="300" viewBox="0 0 456 300" fill="none" xmlns="http://www.w3.org/2000/svg"><rect width="456" height="300" fill="#fafaf8"/><path d="M109.615 191.943V180.171h-1.622V182.506C107.304 180.982 105.732 179.925 103.864 179.925 100.325 179.925 98.2849 182.85 98.2849 186.34 98.2849 189.781 100.325 192.73 103.864 192.73 105.756 192.73 107.304 191.673 107.993 190.174v1.868C107.993 194.966 106.395 196.293 103.888 196.293 101.971 196.293 100.497 195.286 100.054 193.492L98.5061 194.106C99.1451 196.342 101.209 197.669 103.888 197.669 107.255 197.669 109.615 195.703 109.615 191.943zM108.017 186.045V186.684c0 3.21899999999999-2.089 4.62-3.932 4.62C101.504 191.304 99.9315 189.264 99.9315 186.34 99.9315 183.391 101.504 181.375 104.085 181.375 105.928 181.375 108.017 182.752 108.017 186.045zm11.644-5.898C119.439 180.097 119.095 180.048 118.727 180.048 116.908 180.048 115.704 181.203 115.139 182.604V180.171h-1.622V193h1.622V185.799C115.139 183.342 116.736 181.67 118.604 181.67 118.997 181.67 119.317 181.695 119.661 181.769V180.147zm5.345 13.099C126.825 193.246 128.349 192.386 129.086 191.329 129.209 192.754 130.339 193.295 132.207 193.025V191.648C131.298 191.919 130.61 191.624 130.61 190.714V183.882C130.61 181.302 128.939 179.925 126.211 179.925 123.753 179.925 121.885 181.302 121.271 183.366L122.819 183.833C123.237 182.236 124.392 181.375 126.161 181.375 128.029 181.375 128.988 182.285 128.988 183.956V184.742L126.211 185.308C123.016 185.947 120.878 187.028 120.878 189.608 120.878 191.968 122.77 193.246 125.006 193.246zM128.988 188.748C128.988 190.444 127.341 191.894 125.178 191.894c-1.622.0-2.654-.908999999999992-2.654-2.31.0-1.917 1.598-2.53100000000001 4.154-3.048L128.988 186.045v2.703zM140.402 193.246c3.51500000000002.0 5.506-3.023 5.506-6.66.0-3.613-1.99099999999999-6.661-5.506-6.661C138.486 179.925 136.937 180.933 136.175 182.457v-2.286H134.553v17.253H136.175V190.714C136.937 192.238 138.486 193.246 140.402 193.246zM136.151 186.094C136.151 182.653 138.363 181.375 140.132 181.375 142.762 181.375 144.286 183.563 144.286 186.586 144.286 189.608 142.762 191.82 140.132 191.82 138.363 191.82 136.151 190.542 136.151 187.151V186.094zM148.876 193H150.498V185.234C150.498 182.875 152.366 181.449 154.16 181.449 156.298 181.449 157.158 182.948 157.158 184.939V193H158.78V184.57C158.78 181.842 157.33 179.925 154.553 179.925 152.611 179.925 151.235 180.982 150.498 182.236V175.354H148.876V193zm13.551-15.458h1.893V175.354h-1.893V177.542zM164.172 180.171H162.55V193H164.172V180.171zM168.777 186.586C168.777 183.415 170.473 181.351 172.98 181.351 174.921 181.351 176.052 182.58 176.445 184.3L177.895 183.686C177.305 181.474 175.56 179.925 172.98 179.925 169.49 179.925 167.155 182.629 167.155 186.586 167.155 190.567 169.49 193.246 172.98 193.246 175.585 193.246 177.354 191.697 177.919 189.461L176.445 188.871C176.052 190.592 174.921 191.82 172.98 191.82 170.473 191.82 168.777 189.781 168.777 186.586zm21.512 6.66C192.206 193.246 193.754 192.238 194.516 190.714V193H196.138V175.354H194.516V182.457C193.754 180.933 192.206 179.925 190.289 179.925c-3.51499999999999.0-5.505 3.048-5.505 6.661.0 3.637 1.99000000000001 6.66 5.505 6.66zM194.541 186.094V187.151C194.541 190.542 192.329 191.82 190.559 191.82 187.93 191.82 186.406 189.608 186.406 186.586 186.406 183.563 187.93 181.375 190.559 181.375 192.329 181.375 194.541 182.653 194.541 186.094zM204.858 193.246C207.414 193.246 209.257 191.82 209.945 189.51L208.471 189.043C208.078 190.739 206.8 191.82 204.858 191.82 202.376 191.82 200.656 189.83 200.606 186.708H210.044V186.168C210.044 182.604 208.25 179.925 204.784 179.925c-3.416.0-5.726 2.77799999999999-5.726 6.661C199.058 190.542 201.368 193.246 204.858 193.246zM204.784 181.351C207.291 181.351 208.348 183.317 208.397 185.431H200.68C201.049 182.899 202.646 181.351 204.784 181.351zM211.519 190.075C212.379 192.238 214.69 193.246 216.951 193.246 219.58 193.246 221.694 191.697 221.694 189.363 221.694 186.684 219.359 186.242 217.098 185.701 215.181 185.258 213.879 184.988 213.879 183.563 213.879 182.162 215.009 181.302 216.705 181.302 218.499 181.302 219.703 182.211 220.268 183.612L221.522 182.776C220.907 181.154 219.113 179.925 216.779 179.925 214.247 179.925 212.306 181.425 212.306 183.636 212.306 186.192 214.419 186.61 216.607 187.126 218.769 187.618 220.121 187.864 220.121 189.461 220.121 191.058 218.622 191.894 216.951 191.894 215.157 191.894 213.461 190.911 212.846 189.191L211.519 190.075zm12.866-12.533h1.893V175.354h-1.893V177.542zM226.13 180.171H224.508V193H226.13V180.171zm14.313 11.772V180.171H238.821V182.506C238.133 180.982 236.56 179.925 234.692 179.925 231.153 179.925 229.113 182.85 229.113 186.34 229.113 189.781 231.153 192.73 234.692 192.73 236.584 192.73 238.133 191.673 238.821 190.174v1.868C238.821 194.966 237.223 196.293 234.717 196.293 232.8 196.293 231.325 195.286 230.883 193.492L229.334 194.106C229.973 196.342 232.038 197.669 234.717 197.669 238.084 197.669 240.443 195.703 240.443 191.943zM238.845 186.045V186.684C238.845 189.903 236.756 191.304 234.913 191.304 232.333 191.304 230.76 189.264 230.76 186.34 230.76 183.391 232.333 181.375 234.913 181.375 236.756 181.375 238.845 182.752 238.845 186.045zM244.345 193H245.967V185.234C245.967 182.875 247.835 181.449 249.629 181.449 251.767 181.449 252.627 182.948 252.627 184.939V193H254.249V184.57C254.249 181.842 252.799 179.925 250.022 179.925 248.081 179.925 246.704 180.982 245.967 182.236v-2.065H244.345V193zm13.232.0H258.56V193.197C258.56 194.425 257.946 195.04 256.84 195.114V196.072C258.683 196.023 259.764 194.917 259.764 193.123v-2.482H257.577V193zM266.781 190.075C267.642 192.238 269.952 193.246 272.213 193.246 274.842 193.246 276.956 191.697 276.956 189.363 276.956 186.684 274.621 186.242 272.36 185.701 270.443 185.258 269.141 184.988 269.141 183.563 269.141 182.162 270.271 181.302 271.967 181.302 273.761 181.302 274.965 182.211 275.53 183.612L276.784 182.776C276.169 181.154 274.375 179.925 272.041 179.925 269.509 179.925 267.568 181.425 267.568 183.636 267.568 186.192 269.681 186.61 271.869 187.126 274.031 187.618 275.383 187.864 275.383 189.461 275.383 191.058 273.884 191.894 272.213 191.894 270.419 191.894 268.723 190.911 268.108 189.191L266.781 190.075zM290.387 186.586C290.387 182.629 288.052 179.925 284.612 179.925 281.171 179.925 278.861 182.629 278.861 186.586 278.861 190.542 281.171 193.246 284.612 193.246 288.052 193.246 290.387 190.542 290.387 186.586zm-9.904.0C280.483 183.415 282.13 181.326 284.612 181.326 287.094 181.326 288.741 183.415 288.741 186.586 288.741 189.781 287.094 191.845 284.612 191.845 282.13 191.845 280.483 189.781 280.483 186.586zm18.15-11.404C298.215 175.108 297.92 175.108 297.478 175.108 295.119 175.108 293.792 176.632 293.792 178.992v1.179H291.776V181.572H293.792V193H295.438V181.572h3.048V180.171h-3.048V179.114C295.438 177.32 296.2 176.558 297.601 176.558 298.019 176.558 298.24 176.583 298.633 176.632V175.182zM301.321 190.075C301.321 192.386 302.5 193.123 304.491 193.123 305.228 193.123 305.769 193.049 306.359 192.902V191.476C305.794 191.624 305.351 191.673 304.811 191.673 303.582 191.673 302.918 191.304 302.918 189.83V181.572H306.015V180.171H302.918V176.46H301.321V180.171H299.183V181.572H301.321V190.075zm13.76-9.904L312.156 190.567 309.109 180.171H307.438L311.37 193H312.795L315.769 182.604 318.694 193H320.119L324.051 180.171H322.429L319.406 190.592 316.482 180.171H315.081zm14.154 13.075C331.054 193.246 332.578 192.386 333.315 191.329 333.438 192.754 334.568 193.295 336.436 193.025V191.648C335.527 191.919 334.839 191.624 334.839 190.714V183.882C334.839 181.302 333.167 179.925 330.439 179.925 327.982 179.925 326.114 181.302 325.5 183.366L327.048 183.833C327.466 182.236 328.621 181.375 330.39 181.375 332.258 181.375 333.217 182.285 333.217 183.956V184.742L330.439 185.308C327.245 185.947 325.106 187.028 325.106 189.608 325.106 191.968 326.999 193.246 329.235 193.246zM333.217 188.748C333.217 190.444 331.57 191.894 329.407 191.894 327.785 191.894 326.753 190.985 326.753 189.584 326.753 187.667 328.35 187.053 330.906 186.536L333.217 186.045v2.703zm11.709-8.601C344.705 180.097 344.361 180.048 343.992 180.048 342.174 180.048 340.969 181.203 340.404 182.604V180.171H338.782V193H340.404V185.799C340.404 183.342 342.002 181.67 343.869 181.67 344.263 181.67 344.582 181.695 344.926 181.769V180.147zM351.875 193.246C354.431 193.246 356.274 191.82 356.962 189.51L355.488 189.043C355.095 190.739 353.817 191.82 351.875 191.82 349.393 191.82 347.673 189.83 347.623 186.708H357.061V186.168C357.061 182.604 355.267 179.925 351.801 179.925c-3.416.0-5.726 2.77799999999999-5.726 6.661C346.075 190.542 348.385 193.246 351.875 193.246zM351.801 181.351C354.308 181.351 355.365 183.317 355.414 185.431H347.697C348.066 182.899 349.663 181.351 351.801 181.351zM96.6059 224.246C99.1619 224.246 101.005 222.82 101.693 220.51L100.219 220.043C99.8254 221.739 98.5475 222.82 96.6059 222.82 94.1237 222.82 92.4034 220.83 92.3542 217.708h9.4378V217.168c0-3.56399999999999-1.7945-6.243-5.2598-6.243C93.1161 210.925 90.8059 213.703 90.8059 217.586 90.8059 221.542 93.1161 224.246 96.6059 224.246zM96.5322 212.351C99.039 212.351 100.096 214.317 100.145 216.431H92.428C92.7966 213.899 94.3941 212.351 96.5322 212.351zM104.742 224h1.622V216.234C106.364 213.875 108.231 212.449 110.026 212.449 112.164 212.449 113.024 213.948 113.024 215.939V224h1.622V215.57C114.646 212.842 113.196 210.925 110.419 210.925 108.477 210.925 107.101 211.982 106.364 213.236v-2.065h-1.622V224zM128.836 222.943V211.171H127.214V213.506C126.526 211.982 124.953 210.925 123.086 210.925 119.547 210.925 117.507 213.85 117.507 217.34 117.507 220.781 119.547 223.73 123.086 223.73 124.978 223.73 126.526 222.673 127.214 221.174v1.868C127.214 225.966 125.617 227.293 123.11 227.293 121.193 227.293 119.719 226.286 119.276 224.492L117.728 225.106C118.367 227.342 120.431 228.669 123.11 228.669 126.477 228.669 128.836 226.703 128.836 222.943zM127.239 217.045V217.684c0 3.21899999999999-2.089 4.62-3.932 4.62-2.581.0-4.154-2.03999999999999-4.154-4.964C119.153 214.391 120.726 212.375 123.307 212.375 125.15 212.375 127.239 213.752 127.239 217.045zM132.616 208.542h1.892V206.354h-1.892V208.542zM134.36 211.171H132.738V224H134.36V211.171zM138.253 224H139.875V216.234C139.875 213.875 141.743 212.449 143.537 212.449 145.675 212.449 146.535 213.948 146.535 215.939V224H148.157V215.57C148.157 212.842 146.707 210.925 143.93 210.925 141.988 210.925 140.612 211.982 139.875 213.236v-2.065H138.253V224zM156.818 224.246C159.374 224.246 161.217 222.82 161.905 220.51L160.431 220.043C160.037 221.739 158.759 222.82 156.818 222.82 154.336 222.82 152.615 220.83 152.566 217.708H162.003V217.168C162.003 213.604 160.209 210.925 156.744 210.925c-3.416.0-5.726 2.77799999999999-5.726 6.661C151.018 221.542 153.328 224.246 156.818 224.246zM156.744 212.351C159.251 212.351 160.308 214.317 160.357 216.431H152.64C153.008 213.899 154.606 212.351 156.744 212.351zm13.1 11.895C172.4 224.246 174.243 222.82 174.931 220.51L173.457 220.043C173.064 221.739 171.786 222.82 169.844 222.82 167.362 222.82 165.642 220.83 165.592 217.708H175.03V217.168C175.03 213.604 173.236 210.925 169.77 210.925c-3.416.0-5.726 2.77799999999999-5.726 6.661C164.044 221.542 166.354 224.246 169.844 224.246zM169.77 212.351C172.277 212.351 173.334 214.317 173.383 216.431H165.666C166.035 213.899 167.632 212.351 169.77 212.351zM184.124 211.147C183.903 211.097 183.559 211.048 183.19 211.048 181.371 211.048 180.167 212.203 179.602 213.604V211.171H177.98V224H179.602V216.799C179.602 214.342 181.199 212.67 183.067 212.67 183.46 212.67 183.78 212.695 184.124 212.769V211.147zM186.515 208.542h1.893V206.354h-1.893V208.542zM188.26 211.171H186.638V224H188.26V211.171zM192.153 224H193.775V216.234C193.775 213.875 195.642 212.449 197.436 212.449 199.575 212.449 200.435 213.948 200.435 215.939V224H202.057V215.57C202.057 212.842 200.607 210.925 197.83 210.925 195.888 210.925 194.512 211.982 193.775 213.236v-2.065H192.153V224zM216.247 222.943V211.171H214.625V213.506C213.937 211.982 212.364 210.925 210.496 210.925 206.957 210.925 204.918 213.85 204.918 217.34 204.918 220.781 206.957 223.73 210.496 223.73 212.389 223.73 213.937 222.673 214.625 221.174v1.868C214.625 225.966 213.028 227.293 210.521 227.293 208.604 227.293 207.129 226.286 206.687 224.492L205.139 225.106C205.778 227.342 207.842 228.669 210.521 228.669 213.888 228.669 216.247 226.703 216.247 222.943zM214.65 217.045V217.684C214.65 220.903 212.561 222.304 210.718 222.304 208.137 222.304 206.564 220.264 206.564 217.34 206.564 214.391 208.137 212.375 210.718 212.375 212.561 212.375 214.65 213.752 214.65 217.045zM219.707 224H220.69V224.197C220.69 225.425 220.076 226.04 218.97 226.114V227.072C220.813 227.023 221.894 225.917 221.894 224.123v-2.482H219.707V224zM235.449 224.246C238.963 224.246 241.347 222.034 241.347 219.109 241.347 216.578 239.676 215.177 237.857 214.735 239.381 214.268 240.782 212.818 240.782 210.827 240.782 208.05 238.816 206.108 235.498 206.108 232.229 206.108 229.993 208.247 229.501 211.122L231.049 211.515C231.492 209.058 233.138 207.583 235.449 207.583 237.71 207.583 239.135 208.836 239.135 210.876 239.135 212.842 237.587 214.047 235.375 214.047H233.36V215.497H235.35C237.71 215.497 239.651 216.725 239.651 219.036 239.651 221.321 237.955 222.796 235.424 222.796 232.966 222.796 231.025 221.247 230.632 218.519L228.96 218.937C229.526 222.427 232.18 224.246 235.449 224.246zM244.159 224h5.357C254.8 224 258.192 220.559 258.192 215.177S254.8 206.354 249.516 206.354h-5.357V224zM245.854 222.501V207.853H249.492C253.842 207.853 256.496 210.753 256.496 215.177 256.496 219.576 253.842 222.501 249.516 222.501H245.854zm21.897-6.316C267.751 213.924 269.545 212.449 271.192 212.449 273.232 212.449 274.067 213.948 274.067 215.939V224H275.689v-7.815C275.689 213.924 277.459 212.449 279.13 212.449 281.17 212.449 282.005 213.948 282.005 215.939V224H283.627V215.57C283.627 212.842 282.104 210.925 279.474 210.925 277.459 210.925 275.96 212.179 275.296 213.432 274.731 211.908 273.477 210.925 271.634 210.925 269.766 210.925 268.439 212.007 267.751 213.236v-2.065H266.129V224H267.751v-7.815zM297.98 217.586C297.98 213.629 295.646 210.925 292.205 210.925 288.764 210.925 286.454 213.629 286.454 217.586 286.454 221.542 288.764 224.246 292.205 224.246 295.646 224.246 297.98 221.542 297.98 217.586zm-9.904.0C288.076 214.415 289.723 212.326 292.205 212.326 294.687 212.326 296.334 214.415 296.334 217.586 296.334 220.781 294.687 222.845 292.205 222.845 289.723 222.845 288.076 220.781 288.076 217.586zm17.438 6.66C307.431 224.246 308.979 223.238 309.741 221.714V224H311.363V206.354H309.741V213.457C308.979 211.933 307.431 210.925 305.514 210.925c-3.51499999999999.0-5.505 3.048-5.505 6.661.0 3.637 1.99000000000001 6.66 5.505 6.66zM309.765 217.094V218.151C309.765 221.542 307.553 222.82 305.784 222.82 303.154 222.82 301.631 220.608 301.631 217.586 301.631 214.563 303.154 212.375 305.784 212.375 307.553 212.375 309.765 213.653 309.765 217.094zM320.083 224.246C322.639 224.246 324.482 222.82 325.17 220.51L323.696 220.043C323.302 221.739 322.024 222.82 320.083 222.82 317.601 222.82 315.88 220.83 315.831 217.708H325.269V217.168C325.269 213.604 323.474 210.925 320.009 210.925c-3.416.0-5.726 2.77799999999999-5.726 6.661C314.283 221.542 316.593 224.246 320.083 224.246zM320.009 212.351C322.516 212.351 323.573 214.317 323.622 216.431H315.905C316.274 213.899 317.871 212.351 320.009 212.351zM329.841 206.354H328.219V224H329.841V206.354zM333.61 208.542h1.892V206.354H333.61V208.542zM335.355 211.171H333.733V224H335.355V211.171zM339.247 224H340.869V216.234C340.869 213.875 342.737 212.449 344.531 212.449 346.669 212.449 347.529 213.948 347.529 215.939V224H349.152V215.57C349.152 212.842 347.702 210.925 344.924 210.925 342.983 210.925 341.607 211.982 340.869 213.236v-2.065H339.247V224zM363.342 222.943V211.171H361.72V213.506C361.032 211.982 359.459 210.925 357.591 210.925 354.052 210.925 352.012 213.85 352.012 217.34 352.012 220.781 354.052 223.73 357.591 223.73 359.484 223.73 361.032 222.673 361.72 221.174v1.868C361.72 225.966 360.122 227.293 357.616 227.293 355.699 227.293 354.224 226.286 353.782 224.492L352.234 225.106C352.872 227.342 354.937 228.669 357.616 228.669 360.983 228.669 363.342 226.703 363.342 222.943zM361.745 217.045V217.684C361.745 220.903 359.656 222.304 357.812 222.304 355.232 222.304 353.659 220.264 353.659 217.34 353.659 214.391 355.232 212.375 357.812 212.375 359.656 212.375 361.745 213.752 361.745 217.045z" fill="#000"/><path d="M68.6332 100.65 52.5898 143h7.4909l3.5979-9.673H81.9634L85.6203 143H93.2292L77.1858 100.65H68.6332zM72.762 109.026 79.4861 126.721H66.1559l6.6061-17.695zm41.183 2.949C113.414 111.916 112.765 111.857 111.94 111.857c-3.952.0-7.137 1.887-8.494 4.77800000000001v-4.601H96.3682V143h7.0778V126.721c0-4.955 3.42100000000001-7.845 7.904-7.845C112.353 118.876 113.06 118.935 113.945 119.053v-7.078zM119.467 135.214C119.467 141.525 122.652 143.354 128.551 143.354 130.379 143.354 132.149 143.177 133.446 142.941V136.984C132.385 137.102 131.736 137.161 130.556 137.161 128.02 137.161 126.427 136.866 126.427 134.094V118.05H132.916V112.034H126.427V102.951H119.467V112.034H115.162V118.05H119.467v17.164zM138.159 143h7.078V124.833c0-4.42399999999999 3.244-6.783 6.429-6.783C155.559 118.05 157.092 120.822 157.092 124.656V143H164.17V122.592c0-6.66499999999999-3.893-11.148-10.381-11.148C149.778 111.444 147.006 113.273 145.237 115.337V100.65h-7.078V143zm58.421-30.966h-7.078v18.403C189.502 134.86 186.317 137.22 183.132 137.22 179.298 137.22 177.646 134.801 177.646 131.026V112.034H170.568V132.56c0 6.66499999999999 4.011 11.089 10.499 11.089C185.078 143.649 187.732 141.761 189.502 139.697V143h7.078V112.034zM221.027 111.975C220.496 111.916 219.847 111.857 219.022 111.857c-3.952.0-7.137 1.887-8.494 4.77800000000001v-4.601H203.45V143h7.078V126.721c0-4.955 3.42100000000002-7.845 7.904-7.845C219.434 118.876 220.142 118.935 221.027 119.053v-7.078zm23.706 14.628H251.575L261.897 143H270.509l-10.912-16.987C265.79 124.538 269.447 120.292 269.447 113.626 269.447 105.074 263.549 100.65 254.111 100.65H237.183V143H244.733V126.603zm0-6.488V107.138H253.699C259.125 107.138 262.015 109.439 262.015 113.626 262.015 117.755 259.125 120.115 253.699 120.115H244.733zm29.694-12.21H281.741V100.65H274.427v7.255zM281.623 112.034H274.545V143H281.623V112.034zm18.527 31.615C304.16 143.649 307.11 142.056 309.056 139.756V143H316.134V100.65H309.056v14.687C307.11 113.037 304.16 111.444 300.15 111.444 291.479 111.444 286.524 118.758 286.524 127.546c0 8.789 4.95499999999998 16.103 13.626 16.103zM309.233 126.662v1.828C309.233 134.212 305.93 137.456 301.565 137.456 296.434 137.456 293.661 133.445 293.661 127.546 293.661 121.648 296.434 117.637 301.565 117.637 305.93 117.637 309.233 120.822 309.233 126.662zm39.502-14.628H341.657v18.403C341.657 134.86 338.472 137.22 335.287 137.22 331.453 137.22 329.802 134.801 329.802 131.026V112.034H322.724V132.56C322.724 139.225 326.735 143.649 333.223 143.649 337.234 143.649 339.888 141.761 341.657 139.697V143H348.735V112.034zM368.7 143.649C374.893 143.649 379.789 140.405 381.971 134.978L375.896 132.678C374.952 135.863 372.18 137.633 368.7 137.633 364.158 137.633 360.973 134.388 360.442 129.08h21.706V126.721C382.148 118.227 377.37 111.444 368.405 111.444 359.793 111.444 353.659 118.463 353.659 127.546 353.659 137.102 359.852 143.649 368.7 143.649zM368.346 117.401C372.829 117.401 374.952 120.351 375.011 123.772H360.796C361.858 119.584 364.689 117.401 368.346 117.401zm19.172 17.813C387.518 141.525 390.703 143.354 396.601 143.354 398.43 143.354 400.199 143.177 401.497 142.941V136.984C400.435 137.102 399.786 137.161 398.607 137.161 396.07 137.161 394.478 136.866 394.478 134.094V118.05h6.488V112.034h-6.488V102.951H387.518V112.034H383.212V118.05H387.518v17.164z" fill="#2b2522"/></svg>