<svg width="456" height="300" viewBox="0 0 456 300" fill="none" xmlns="http://www.w3.org/2000/svg"><g clip-path="url(#clip0_2605_1503)"><rect width="456" height="300" fill="#f6f6f6"/><g clip-path="url(#clip1_2605_1503)"><rect width="57" height="212" fill="#e6323a"/><rect x="57" width="57" height="212" fill="#f6731f"/><rect x="114" width="57" height="212" fill="#fab905"/><rect x="171" width="57" height="212" fill="#26ab4f"/><rect x="228" width="57" height="212" fill="#2baadb"/><rect x="285" width="57" height="212" fill="#0078c9"/><rect x="342" width="57" height="212" fill="#8437cf"/><rect x="399" width="57" height="212" fill="#8b5336"/></g><g clip-path="url(#clip2_2605_1503)"><rect y="212" width="57" height="88" fill="#fafaf8"/><rect x="57" y="212" width="57" height="88" fill="#f5f3f3"/><rect x="114" y="212" width="57" height="88" fill="#e1e0e0"/><rect x="171" y="212" width="57" height="88" fill="#b5b5b5"/><rect x="228" y="212" width="57" height="88" fill="#807f7f"/><rect x="285" y="212" width="57" height="88" fill="#666464"/><rect x="342" y="212" width="57" height="88" fill="#424242"/><rect x="399" y="212" width="57" height="88" fill="#1d1d1d"/></g><g style="mix-blend-mode:soft-light"><rect width="456" height="28" fill="#fff"/></g><g style="mix-blend-mode:multiply" opacity=".6"><rect y="184" width="456" height="28" fill="#f7b86e"/></g></g><defs><clipPath id="clip0_2605_1503"><rect width="456" height="300" fill="#fff"/></clipPath><clipPath id="clip1_2605_1503"><rect width="456" height="212" fill="#fff"/></clipPath><clipPath id="clip2_2605_1503"><rect width="456" height="88" fill="#fff" transform="translate(0 212)"/></clipPath></defs></svg>