<svg width="1272" height="624" viewBox="0 0 1272 624" fill="none" xmlns="http://www.w3.org/2000/svg"><g clip-path="url(#clip0_2735_3004)"><rect width="159" height="159" fill="#e6323a"/><rect x="159" width="159" height="159" fill="#f6731f"/><rect x="318" width="159" height="159" fill="#fab905"/><rect x="477" width="159" height="159" fill="#26ab4f"/><rect x="636" width="159" height="159" fill="#2baadb"/><rect x="795" width="159" height="159" fill="#0078c9"/><rect x="954" width="159" height="159" fill="#8437cf"/><rect x="1113" width="159" height="159" fill="#8b5336"/></g><g clip-path="url(#clip1_2735_3004)"><rect y="400" width="159" height="159" fill="#fff"/><rect x="159" y="400" width="159" height="159" fill="#f5f3f3"/><rect x="318" y="400" width="159" height="159" fill="#e1e0e0"/><rect x="477" y="400" width="159" height="159" fill="#b5b5b5"/><rect x="636" y="400" width="159" height="159" fill="#807f7f"/><rect x="795" y="400" width="159" height="159" fill="#666464"/><rect x="954" y="400" width="159" height="159" fill="#424242"/><rect x="1113" y="400" width="159" height="159" fill="#1d1d1d"/></g><rect y="208" width="1272" height="15" fill="url(#paint0_linear_2735_3004)"/><rect y="609" width="1272" height="15" fill="url(#paint1_linear_2735_3004)"/><defs><linearGradient id="paint0_linear_2735_3004" x1=".943994e-5" y1="215.5" x2="1272" y2="215.501" gradientUnits="userSpaceOnUse"><stop offset=".0700558" stop-color="#e6323a"/><stop offset=".188856" stop-color="#f6731f"/><stop offset=".310702" stop-color="#fab905"/><stop offset=".435595" stop-color="#26ab4f"/><stop offset=".560487" stop-color="#2baadb"/><stop offset=".689949" stop-color="#0078c9"/><stop offset=".811795" stop-color="#8437cf"/><stop offset=".939734" stop-color="#8b5336"/></linearGradient><linearGradient id="paint1_linear_2735_3004" x1=".943994e-5" y1="616.5" x2="1272" y2="616.501" gradientUnits="userSpaceOnUse"><stop offset=".0700558" stop-color="#fff"/><stop offset=".188856" stop-color="#f5f3f3"/><stop offset=".310702" stop-color="#e1e0e0"/><stop offset=".435595" stop-color="#b5b5b5"/><stop offset=".560487" stop-color="#807f7f"/><stop offset=".689949" stop-color="#666464"/><stop offset=".811795" stop-color="#424242"/><stop offset=".939734" stop-color="#1d1d1d"/></linearGradient><clipPath id="clip0_2735_3004"><rect width="1272" height="159" fill="#fff"/></clipPath><clipPath id="clip1_2735_3004"><rect width="1272" height="159" fill="#fff" transform="translate(0 400)"/></clipPath></defs></svg>