<svg width="456" height="300" viewBox="0 0 456 300" fill="none" xmlns="http://www.w3.org/2000/svg"><g clip-path="url(#clip0_2497_58)"><g clip-path="url(#clip1_2497_58)"><rect width="456" height="300" fill="#00754b"/><circle cx="239.163" cy="149.407" r="212.444" fill="#f6ca5a"/><ellipse cx="356.487" cy="149.407" rx="212.206" ry="212.444" fill="#ea873f"/><ellipse cx="474.05" cy="150.119" rx="212.206" ry="213.156" fill="#de4e36"/><circle cx="591.85" cy="149.407" r="212.444" fill="#0d85b9"/><path d="M170.208 169.678C169.721 169.678 169.3 169.501 168.947 169.148 168.606 168.795 168.435 168.374 168.435 167.887 168.435 167.399 168.606 166.985 168.947 166.644 169.3 166.29 169.721 166.114 170.208 166.114 170.708 166.114 171.128 166.29 171.47 166.644 171.823 166.985 172 167.399 172 167.887 172 168.374 171.823 168.795 171.47 169.148 171.128 169.501 170.708 169.678 170.208 169.678zM155.786 168.947C156.907 168.557 158.046 168.228 159.204 167.96 160.362 167.68 161.501 167.466 162.622 167.32 163.743 167.174 164.791 167.101 165.766 167.101 166.132 167.101 166.504 167.113 166.881 167.137 167.259 167.162 167.625 167.204 167.978 167.265 167.954 167.363 167.929 167.466 167.905 167.576 167.893 167.674 167.887 167.777 167.887 167.887 167.887 168.313 167.99 168.703 168.198 169.057 168.405 169.41 168.685 169.696 169.038 169.916 169.392 170.123 169.782 170.227 170.208 170.227 170.537 170.227 170.83 170.166 171.086 170.044 171.098 170.129 171.104 170.22 171.104 170.318 171.116 170.403 171.122 170.495 171.122 170.592 171.122 171.177 170.988 171.92 170.72 172.822 170.464 173.724 170.025 174.717 169.404 175.802 168.795 176.886 167.972 178.008 166.936 179.165 165.9 180.323 164.609 181.45 163.061 182.547L160.429 180.262C161.66 179.506 162.738 178.696 163.664 177.831 164.59 176.966 165.364 176.113 165.986 175.272 166.607 174.431 167.07 173.669 167.375 172.987 167.692 172.292 167.85 171.744 167.85 171.342 167.85 170.866 167.667 170.556 167.302 170.409 166.948 170.251 166.498 170.172 165.949 170.172 164.804 170.172 163.463 170.318 161.928 170.61 160.392 170.891 158.704 171.354 156.864 172l-1.078-3.053zM170.208 168.472C170.379 168.472 170.519 168.417 170.629 168.307 170.738 168.185 170.793 168.045 170.793 167.887 170.793 167.728 170.738 167.594 170.629 167.485 170.519 167.363 170.379 167.302 170.208 167.302 170.05 167.302 169.916 167.363 169.806 167.485 169.696 167.594 169.642 167.728 169.642 167.887 169.642 168.045 169.696 168.185 169.806 168.307 169.916 168.417 170.05 168.472 170.208 168.472zM173.635 181.724C173.501 181.066 173.379 180.305 173.269 179.439 173.16 178.562 173.068 177.63 172.995 176.643S172.867 174.656 172.831 173.645C172.794 172.633 172.776 171.665 172.776 170.738 172.776 170.214 172.782 169.715 172.794 169.239 172.806 168.752 172.824 168.301 172.849 167.887L175.938 167.832C175.914 168.1 175.889 168.386 175.865 168.691 176.633 168.386 177.541 168.118 178.589 167.887 179.637 167.655 180.837 167.539 182.19 167.539 183.762 167.539 184.95 167.899 185.754 168.618 186.571 169.325 186.979 170.33 186.979 171.634 186.979 172.499 186.839 173.511 186.558 174.669 186.29 175.826 185.949 176.978 185.535 178.123 185.876 178.184 186.193 178.245 186.485 178.306L186.028 181.286C185.212 181.066 184.341 180.914 183.414 180.829 182.5 180.731 181.586 180.682 180.672 180.682 179.953 180.682 179.253 180.707 178.57 180.756 177.888 180.804 177.248 180.865 176.651 180.938 176.675 181.048 176.7 181.158 176.724 181.267L173.635 181.724zM181.276 170.61C180.459 170.61 179.551 170.751 178.552 171.031 177.565 171.311 176.633 171.665 175.755 172.091 175.767 173.054 175.804 174.053 175.865 175.089 175.938 176.125 176.036 177.124 176.157 178.087 176.864 177.977 177.602 177.898 178.369 177.849 179.137 177.788 179.899 177.758 180.654 177.758 181.239 177.758 181.83 177.776 182.427 177.813 182.89 176.533 183.226 175.424 183.433 174.486 183.652 173.547 183.762 172.865 183.762 172.438 183.762 171.78 183.524 171.311 183.049 171.031 182.586 170.751 181.995 170.61 181.276 170.61zM202.665 168.581C202.543 168.484 202.366 168.325 202.135 168.106 201.915 167.875 201.702 167.631 201.495 167.375 201.288 167.107 201.135 166.881 201.038 166.699L202.135 165.858C202.305 166.114 202.531 166.4 202.811 166.717 203.091 167.034 203.371 167.296 203.652 167.503L202.665 168.581zM200.38 169.038C200.27 168.929 200.118 168.734 199.923 168.453 199.728 168.173 199.539 167.881 199.356 167.576 199.185 167.259 199.07 166.997 199.009 166.79L200.27 166.205C200.38 166.485 200.544 166.808 200.764 167.174 200.995 167.539 201.233 167.85 201.476 168.106L200.38 169.038zM194.475 171.908C193.939 171.409 193.245 170.915 192.392 170.428 191.551 169.94 190.673 169.495 189.759 169.093L190.765 166.424C191.411 166.656 192.056 166.942 192.702 167.284 193.36 167.613 193.976 167.96 194.549 168.325 195.121 168.691 195.59 169.038 195.956 169.367L194.475 171.908zM192.519 175.784C192.105 175.552 191.606 175.32 191.021 175.089 190.448 174.857 189.869 174.65 189.284 174.467 188.699 174.285 188.187 174.151 187.749 174.065L188.608 171.25C189.132 171.36 189.692 171.512 190.289 171.707 190.887 171.89 191.478 172.097 192.062 172.329 192.647 172.56 193.184 172.798 193.671 173.042L192.519 175.784zm10.913-1.024C202.908 175.564 202.281 176.344 201.55 177.1 200.831 177.843 200.051 178.538 199.21 179.184 198.381 179.829 197.528 180.396 196.651 180.884 195.785 181.359 194.938 181.731 194.11 181.999 193.281 182.267 192.513 182.401 191.807 182.401 190.844 182.401 190.003 182.102 189.284 181.505 188.577 180.908 188.078 179.909 187.785 178.507L190.362 177.319C190.533 178.05 190.771 178.574 191.075 178.891 191.38 179.208 191.782 179.366 192.282 179.366 192.599 179.366 193.031 179.269 193.58 179.074 194.14 178.867 194.762 178.568 195.444 178.178 196.127 177.788 196.827 177.307 197.546 176.734 198.265 176.161 198.96 175.503 199.63 174.76 200.3 174.017 200.898 173.2 201.422 172.31L203.432 174.76zM204.417 181.066 204.655 178.343C205.886 178.672 207.458 178.848 209.371 178.873 209.334 178.215 209.316 177.496 209.316 176.716 209.316 176.094 209.328 175.485 209.353 174.888 209.377 174.291 209.414 173.767 209.462 173.316 208.743 173.389 208.061 173.474 207.415 173.572 206.781 173.657 206.239 173.755 205.788 173.864L205.404 171.177C205.989 171.019 206.69 170.891 207.506 170.793 208.335 170.684 209.2 170.604 210.102 170.556 211.016 170.495 211.887 170.464 212.716 170.464 213.386 170.464 214.014 170.482 214.599 170.519 215.196 170.556 215.69 170.61 216.08 170.684L215.933 173.371C215.129 173.237 214.118 173.17 212.899 173.17 212.667 173.17 212.43 173.17 212.186 173.17 212.137 173.596 212.095 174.09 212.058 174.65 212.034 175.199 212.022 175.777 212.022 176.387 212.022 176.789 212.028 177.197 212.04 177.612 212.052 178.014 212.076 178.41 212.113 178.8 213.149 178.727 214.118 178.611 215.019 178.452 215.921 178.294 216.677 178.099 217.286 177.867L217.578 180.664C216.494 180.969 215.312 181.194 214.032 181.341 212.765 181.499 211.461 181.578 210.12 181.578 209.097 181.578 208.104 181.529 207.141 181.432 206.178 181.347 205.27 181.225 204.417 181.066zM221.261 176.295 218.355 175.491C218.672 173.541 219.116 171.799 219.689 170.263 220.262 168.715 220.981 167.302 221.846 166.022L224.789 166.9C224.46 167.375 224.155 167.862 223.875 168.362 224.655 168.094 225.423 167.881 226.178 167.722c.756-.170000000000016 1.505-.256 2.249-.256C229.194 167.466 229.913 167.6 230.584 167.869 231.254 168.124 231.796 168.514 232.211 169.038 232.625 169.55 232.832 170.202 232.832 170.994 232.832 171.445 232.716 172.097 232.485 172.95 232.253 173.791 231.888 174.76 231.388 175.857 230.901 176.941 230.261 178.087 229.469 179.293 228.689 180.5 227.744 181.682 226.635 182.839L223.692 181.322C224.558 180.494 225.319 179.647 225.977 178.781 226.635 177.904 227.196 177.057 227.659 176.241 228.122 175.412 228.5 174.656 228.792 173.974 229.085 173.279 229.298 172.694 229.432 172.219 229.566 171.744 229.633 171.427 229.633 171.269 229.633 170.988 229.56 170.787 229.414 170.665 229.28 170.531 229.097 170.446 228.865 170.409 228.646 170.373 228.408 170.355 228.153 170.355 227.665 170.355 227.086 170.409 226.416 170.519 225.758 170.629 225.069 170.799 224.35 171.031 223.644 171.25 222.973 171.531 222.34 171.872 222.12 172.542 221.919 173.243 221.736 173.974 221.554 174.705 221.395 175.479 221.261 176.295zM233.888 182.437C233.79 181.791 233.717 181.06 233.668 180.244 233.62 179.427 233.595 178.593 233.595 177.739 233.595 176.752 233.62 175.735 233.668 174.687 233.717 173.639 233.778 172.609 233.851 171.598 233.936 170.574 234.034 169.605 234.144 168.691 234.253 167.777 234.363 166.967 234.473 166.26L237.58 166.571C237.446 167.18 237.312 167.911 237.178 168.764 237.056 169.617 236.953 170.537 236.867 171.524 237.964 171.853 239.061 172.262 240.158 172.749 241.254 173.224 242.296 173.755 243.283 174.339 244.271 174.912 245.148 175.509 245.916 176.131L244.216 178.727C243.545 178.129 242.778 177.563 241.912 177.027 241.059 176.478 240.176 175.979 239.262 175.528 238.36 175.077 237.501 174.693 236.684 174.376 236.66 174.998 236.648 175.613 236.648 176.222 236.648 177.307 236.678 178.367 236.739 179.403 236.8 180.427 236.898 181.408 237.032 182.346L233.888 182.437zM252.407 180.518 250.67 177.959C251.791 177.605 252.894 177.191 253.979 176.716 255.076 176.228 256.099 175.723 257.05 175.199 258.013 174.675 258.853 174.169 259.572 173.681 260.304 173.194 260.876 172.761 261.291 172.384 261.705 172.006 261.912 171.725 261.912 171.543 261.912 171.311 261.614 171.195 261.016 171.195 260.663 171.195 260.163 171.25 259.518 171.36 258.872 171.457 258.147 171.591 257.342 171.762 256.55 171.92 255.734 172.103 254.893 172.31 254.064 172.518 253.272 172.731 252.516 172.95L251.858 170.099C252.675 169.879 253.461 169.684 254.216 169.514 254.972 169.331 255.697 169.172 256.392 169.038 256.209 168.587 256.044 168.124 255.898 167.649S255.636 166.656 255.551 166.095L258.439 165.401C258.5 165.9 258.61 166.431 258.768 166.991 258.939 167.552 259.134 168.082 259.353 168.581 260.133 168.496 260.864 168.453 261.547 168.453 261.997 168.453 262.448 168.478 262.899 168.527 263.362 168.575 263.783 168.679 264.161 168.837 264.551 168.984 264.861 169.209 265.093 169.514 265.337 169.818 265.458 170.227 265.458 170.738 265.458 171.457 265.154 172.201 264.544 172.969 263.947 173.724 263.167 174.474 262.205 175.217 262.875 175.656 263.63 176.088 264.471 176.515 265.324 176.929 266.202 177.252 267.104 177.484L265.769 180.171C263.892 179.525 262.266 178.714 260.889 177.739 260.876 178.056 260.87 178.367 260.87 178.672 260.87 179.293 260.901 179.921 260.962 180.555 261.035 181.176 261.151 181.804 261.309 182.437L258.256 182.657C258.134 182.096 258.043 181.469 257.982 180.774 257.921 180.079 257.891 179.379 257.891 178.672 257.891 178.416 257.897 178.178 257.909 177.959 256.971 178.458 256.026 178.928 255.076 179.366 254.137 179.793 253.248 180.177 252.407 180.518zM269.867 181.45 267.948 179.001C268.472 178.623 269.05 178.154 269.684 177.593 270.33 177.033 270.988 176.436 271.658 175.802 272.329 175.156 272.968 174.51 273.578 173.864 274.187 173.206 274.717 172.603 275.168 172.055 273.913 172.128 272.706 172.25 271.549 172.42 270.391 172.591 269.41 172.804 268.606 173.06L267.874 170.263C268.691 170.019 269.605 169.824 270.616 169.678 271.64 169.52 272.706 169.404 273.815 169.331 274.924 169.246 276.027 169.197 277.124 169.185 277.1 168.734 277.069 168.289 277.033 167.85 276.996 167.399 276.959 166.961 276.923 166.534L279.811 166.37C279.872 166.772 279.921 167.217 279.957 167.704 280.006 168.179 280.043 168.685 280.067 169.221 281.273 169.27 282.346 169.355 283.284 169.477L282.864 172.365C282.486 172.28 282.072 172.213 281.621 172.164 281.182 172.103 280.713 172.061 280.213 172.036 280.238 172.926 280.256 173.834 280.268 174.76 280.28 175.674 280.286 176.563 280.286 177.429 280.286 178.294 280.28 179.117 280.268 179.896 280.268 180.664 280.256 181.341 280.231 181.925L277.142 181.944C277.191 181.079 277.227 180.116 277.252 179.056 277.288 177.983 277.307 176.862 277.307 175.692 277.307 175.119 277.301 174.547 277.288 173.974 276.777 174.632 276.204 175.314 275.57 176.021 274.936 176.716 274.284 177.398 273.614 178.069 272.944 178.739 272.286 179.366 271.64 179.951 270.994 180.524 270.403 181.024 269.867 181.45zM289.125 173.115C288.528 172.323 287.845 171.598 287.078 170.939 286.322 170.281 285.548 169.727 284.756 169.276L286.858 167.046C287.614 167.497 288.388 168.039 289.18 168.673 289.972 169.306 290.703 170.056 291.373 170.921L289.125 173.115zM292.562 180.975C291.672 181.438 290.898 181.743 290.24 181.889 289.582 182.035 289.028 182.108 288.577 182.108 286.2 182.108 284.689 180.823 284.043 178.251L286.804 177.008C286.974 177.703 287.218 178.209 287.535 178.525 287.852 178.842 288.248 179.001 288.723 179.001 288.918 179.001 289.247 178.94 289.71 178.818 290.173 178.696 290.721 178.483 291.355 178.178 292.001 177.861 292.69 177.423 293.421 176.862S294.883 175.589 295.614 174.723C296.345 173.858 297.028 172.804 297.662 171.561L299.983 173.7V173.718C299.691 174.303 299.288 174.931 298.777 175.601 298.277 176.271 297.698 176.941 297.04 177.612 296.394 178.27 295.687 178.891 294.92 179.476 294.164 180.049 293.378 180.548 292.562 180.975z" fill="#edefed"/><line x1="310.26" y1="173.118" x2="383.378" y2="173.118" stroke="#edefed" stroke-width="2"/><line x1="73.5391" y1="173.118" x2="146.657" y2="173.118" stroke="#edefed" stroke-width="2"/><path d="M71.198 157 79.8927 116.06H97.1669l5.0671 1.497L105.804 121.933 106.149 127.979l-2.476 5.758L99.8156 137.941 93.7696 140.647H81.1019L77.647 157H71.198zm11.2282-22.514H93.3666L96.5911 133.046 98.4337 131.031l1.497-2.994L99.758 125.158l-1.6698-2.015L95.2667 122.221H85.0174l-2.5912 12.265zM102.482 157l6.449-30.345H115.322L114.862 128.843 115.668 128.152 119.814 126.194H123.902L127.414 127.173 124.65 133.104 121.887 132.298h-1.958L117.05 133.565 114.516 135.81l-1.67 2.476L108.873 157H102.482zM131.374 157.461l-4.952-2.822L124.061 149.975V145.138L125.27 138.459 127.401 133.392 131.431 129.073 137.765 126.194H143.869L149.051 129.073 151.469 133.737V138.459L150.03 145.254 148.13 150.205 144.099 154.754 137.593 157.461H131.374zM133.792 151.415H137.593L140.932 149.918 142.602 147.96 144.099 144.447 145.193 139.15v-3.34L144.272 133.737 141.738 132.298H137.765L134.771 133.737 132.871 135.753 131.431 139.15 130.337 144.332 130.165 148.017 131.201 149.918 133.792 151.415zm23.679-29.482 1.785-8.349H167.605l-1.785 8.349H157.471zm-12.553 44.395L141.348 165.407 144.055 159.476 146.588 160.167h1.267L149.582 159.649 150.964 157.979 157.644 126.655H164.035L156.953 160.109 153.268 164.485 147.797 166.328H144.918zM173.043 157.461 167.976 154.351 165.212 149.284 164.694 145.196 165.845 138.574 167.976 134.14 172.755 129.073 179.434 126.194H184.847L189.914 129.189 192.563 134.256 193.369 138.229 191.872 145.138H170.97L171.085 146.635 172.755 149.918 175.519 151.357H178.455L181.91 150.436l3.858-2.131L188.359 153.257 183.292 156.194 177.88 157.461H173.043zM172.237 139.035h14.74L186.747 137.192 185.077 133.91 182.486 132.298H179.377L176.21 133.795l-3.167 3.34L172.237 139.035zm30.703 18.426L197.815 154.409 195.051 149.399 194.591 145.196 195.973 138.344 198.161 133.91 203.055 128.843 209.446 126.194h4.952L218.602 127.864 222.114 132.068 216.817 136.156l-2.476-3.167L212.556 132.298H209.274L206.164 133.795 202.997 137.135 202.019 139.323 200.925 144.447 201.04 146.52l1.785 3.398L205.416 151.357H208.295L210.483 150.666 214.514 147.499 218.026 151.875 212.959 155.964 207.777 157.461H202.94zm25.856.0L224.938 155.733 222.347 151.184l3.743-17.677H220.908L222.232 127.404H227.414L229.66 116.809H236.051L233.806 127.404H241.349L240.024 133.507H232.481l-3.339 15.777L229.89 150.666 231.272 151.357h1.209L237.203 150.148 237.664 156.136 231.675 157.461H228.796zM253.972 157 262.666 116.06h5.125l14.165 30.115L288.347 116.06H294.854L286.159 157H279.883l-13.301-28.675L260.478 157h-6.506zM303.162 157.461 298.095 154.351 295.331 149.284 294.812 145.196 295.964 138.574 298.095 134.14 302.874 129.073 309.553 126.194H314.966L320.033 129.189 322.681 134.256 323.488 138.229 321.991 145.138H301.089L301.204 146.635 302.874 149.918 305.638 151.357H308.574L312.029 150.436l3.858-2.131L318.478 153.257 313.411 156.194 307.998 157.461H303.162zM302.356 139.035h14.74L316.866 137.192 315.196 133.91 312.605 132.298H309.496L306.329 133.795 303.162 137.135 302.356 139.035zm29.954 18.426-4.952-2.822L324.997 149.975V145.138l1.209-6.679L328.337 133.392 332.368 129.073 338.701 126.194H344.805L349.987 129.073 352.406 133.737V138.459L350.966 145.254 349.066 150.205 345.035 154.754 338.529 157.461H332.31zM334.728 151.415H338.529L341.868 149.918 343.538 147.96 345.035 144.447 346.129 139.15v-3.34L345.208 133.737 342.675 132.298H338.701L335.707 133.737 333.807 135.753 332.368 139.15 331.274 144.332 331.101 148.017 332.137 149.918 334.728 151.415zM352.959 157 359.408 126.655H365.8L365.397 128.498 369.888 126.194H374.955L379.792 127.864 382.613 132.759 377.489 157h-6.392L375.819 134.774 375.07 133.219 372.594 132.298H369.543L365.454 134.659 363.669 136.616 359.351 157h-6.392z" fill="#edefed"/></g></g><defs><clipPath id="clip0_2497_58"><rect width="456" height="300" fill="#fff"/></clipPath><clipPath id="clip1_2497_58"><rect width="456" height="300" fill="#fff"/></clipPath></defs></svg>