<svg width="1249" height="773" viewBox="0 0 1249 773" fill="none" xmlns="http://www.w3.org/2000/svg"><g opacity=".3"><circle cx="775.858" cy="575.417" r="82.7295" fill="#7c7b75" stroke="#000" stroke-width="5.38078"/><circle cx="775.228" cy="576.048" r="63.1523" fill="#aeada1" stroke="#000" stroke-width="2.69039"/></g><g opacity=".3"><circle cx="431.488" cy="575.417" r="82.7295" fill="#7c7b75" stroke="#000" stroke-width="5.38078"/><circle cx="430.857" cy="576.048" r="63.1523" fill="#aeada1" stroke="#000" stroke-width="2.69039"/></g><g opacity=".3"><rect x="892.218" y="414.666" width="80.7117" height="80.7117" rx="40.3559" fill="#f37272"/><path d="M939.917 468.521H943.085L933.761 442.925H931.385L922.061 468.521H925.229L927.893 460.853H937.253L939.917 468.521zm-10.98-10.62L932.573 447.425 936.209 457.901H928.937z" fill="#000"/><rect x="892.218" y="414.666" width="80.7117" height="80.7117" rx="40.3559" stroke="#000" stroke-width="5.38078"/></g><g opacity=".3"><rect x="978.311" y="329.918" width="80.7117" height="80.7117" rx="40.3559" fill="#56c3d1"/><path d="M1010.59 383.774h11.92L1025.49 382.37 1027.37 380.102 1028.19 376.61 1027.4 373.118 1025.85 370.886 1024.77 370.202 1025.85 369.626 1027.01 367.97 1027.73 365.126 1026.97 361.67 1024.59 359.078 1021.28 358.178H1010.59v25.596zM1013.58 368.69v-7.56H1020.99L1022.97 361.706 1024.23 363.11 1024.67 365.126 1024.23 366.746 1023.73 367.466 1021.93 368.69H1013.58zm0 12.132V371.642H1021.79L1023.69 372.794 1024.59 374.306 1025.13 376.61 1024.59 378.77 1023.51 380.03 1021.75 380.822H1013.58z" fill="#000"/><rect x="978.311" y="329.918" width="80.7117" height="80.7117" rx="40.3559" stroke="#000" stroke-width="5.38078"/></g><g opacity=".3"><rect x="808.816" y="329.918" width="80.7117" height="80.7117" rx="40.3559" fill="#f3cd45"/><path d="M837.971 383.774H841.643l7.524-10.368 7.524 10.368H860.363L851.003 371.03 860.435 358.178H856.763l-7.596 10.404-7.596-10.404H837.899L847.331 371.03 837.971 383.774z" fill="#000"/><rect x="808.816" y="329.918" width="80.7117" height="80.7117" rx="40.3559" stroke="#000" stroke-width="5.38078"/></g><g opacity=".3"><rect x="892.218" y="246.516" width="80.7117" height="80.7117" rx="40.3559" fill="#69e7b9"/><path d="M931.09 300.372h2.952V287.484L942.394 274.776H938.866L932.566 284.46 926.266 274.776H922.738L931.09 287.484v12.888z" fill="#000"/><rect x="892.218" y="246.516" width="80.7117" height="80.7117" rx="40.3559" stroke="#000" stroke-width="5.38078"/></g><rect opacity=".3" x="678.332" y="352.786" width="51.1174" height="34.9751" rx="5.38078" fill="#7c7b75" stroke="#000" stroke-width="5.38078"/><rect opacity=".3" x="477.897" y="352.786" width="51.1174" height="34.9751" rx="5.38078" fill="#7c7b75" stroke="#000" stroke-width="5.38078"/><mask id="path-15-inside-1_2502_1533" fill="#fff"><path fill-rule="evenodd" clip-rule="evenodd" d="M310.092 286.627C310.092 278.65 303.625 272.184 295.648 272.184h-44.44C243.231 272.184 236.765 278.65 236.765 286.627v34.441C236.765 329.045 230.298 335.511 222.322 335.511H187.88c-7.977.0-14.443 6.46699999999998-14.443 14.443v44.441C173.437 402.372 179.903 408.838 187.88 408.838h34.442c7.976.0 14.443 6.46599999999995 14.443 14.443v34.442c0 7.976 6.46600000000001 14.443 14.443 14.443h44.44C303.625 472.166 310.092 465.699 310.092 457.723V423.281C310.092 415.304 316.558 408.838 324.535 408.838h34.441C366.953 408.838 373.419 402.372 373.419 394.395V349.954c0-7.976-6.46600000000001-14.443-14.443-14.443H324.535C316.558 335.511 310.092 329.045 310.092 321.068V286.627z"/></mask><path fill-rule="evenodd" clip-rule="evenodd" d="M310.092 286.627C310.092 278.65 303.625 272.184 295.648 272.184h-44.44C243.231 272.184 236.765 278.65 236.765 286.627v34.441C236.765 329.045 230.298 335.511 222.322 335.511H187.88c-7.977.0-14.443 6.46699999999998-14.443 14.443v44.441C173.437 402.372 179.903 408.838 187.88 408.838h34.442c7.976.0 14.443 6.46599999999995 14.443 14.443v34.442c0 7.976 6.46600000000001 14.443 14.443 14.443h44.44C303.625 472.166 310.092 465.699 310.092 457.723V423.281C310.092 415.304 316.558 408.838 324.535 408.838h34.441C366.953 408.838 373.419 402.372 373.419 394.395V349.954c0-7.976-6.46600000000001-14.443-14.443-14.443H324.535C316.558 335.511 310.092 329.045 310.092 321.068V286.627z" fill="#aeada1"/><path d="M324.535 335.511V331.067 335.511zm34.441.0V339.955 335.511zm0 73.327V413.282 408.838zm-48.884 14.443H314.536 310.092zm14.443-14.443V404.394 408.838zM310.092 286.627H314.536 310.092zM251.208 276.628h44.44V267.74h-44.44V276.628zm-9.999 44.44V286.627H232.321v34.441H241.209zM187.88 339.955h34.442V331.067H187.88V339.955zm-9.999 54.44V349.954H168.993v44.441H177.881zM222.322 404.394H187.88V413.282h34.442V404.394zm18.887 53.329V423.281H232.321v34.442H241.209zM295.648 467.722h-44.44V476.61h44.44V467.722zM305.647 423.281v34.442H314.536V423.281H305.647zm53.329-18.887H324.535V413.282h34.441V404.394zM368.975 349.954v44.441H377.863V349.954H368.975zM324.535 339.955h34.441V331.067H324.535V339.955zm-18.888-53.328v34.441H314.536V286.627H305.647zm18.888 44.44C319.012 331.067 314.536 326.59 314.536 321.068H305.647c0 10.431 8.45699999999999 18.887 18.888 18.887V331.067zm53.328 18.887c0-10.431-8.45600000000002-18.887-18.887-18.887V339.955C364.498 339.955 368.975 344.432 368.975 349.954H377.863zm-18.887 63.328c10.431.0 18.887-8.45599999999996 18.887-18.887H368.975C368.975 399.917 364.498 404.394 358.976 404.394V413.282zM314.536 423.281C314.536 417.759 319.012 413.282 324.535 413.282V404.394C314.104 404.394 305.647 412.85 305.647 423.281H314.536zM295.648 476.61C306.079 476.61 314.536 468.154 314.536 457.723H305.647C305.647 463.245 301.171 467.722 295.648 467.722V476.61zm-63.327-18.887C232.321 468.154 240.777 476.61 251.208 476.61V467.722C245.686 467.722 241.209 463.245 241.209 457.723H232.321zm-9.999-44.441C227.844 413.282 232.321 417.759 232.321 423.281H241.209C241.209 412.85 232.753 404.394 222.322 404.394V413.282zm-53.329-18.887C168.993 404.826 177.449 413.282 187.88 413.282V404.394C182.358 404.394 177.881 399.917 177.881 394.395H168.993zm18.887-63.328C177.449 331.067 168.993 339.523 168.993 349.954H177.881C177.881 344.432 182.358 339.955 187.88 339.955V331.067zM232.321 321.068C232.321 326.59 227.844 331.067 222.322 331.067V339.955c10.431.0 18.887-8.45599999999996 18.887-18.887H232.321zm63.327-44.44C301.171 276.628 305.647 281.104 305.647 286.627H314.536C314.536 276.196 306.079 267.74 295.648 267.74V276.628zM251.208 267.74C240.777 267.74 232.321 276.196 232.321 286.627H241.209C241.209 281.104 245.686 276.628 251.208 276.628V267.74z" fill="#000" mask="url(#path-15-inside-1_2502_1533)"/><rect x="347.866" y="349.955" width="11.1101" height="43.3295" rx="5.55506" fill="#bfbfb6" stroke="#000" stroke-width="2.69039"/><rect x="330.091" y="349.955" width="11.1101" height="43.3295" rx="5.55506" fill="#bfbfb6" stroke="#000" stroke-width="2.69039"/><rect x="312.314" y="349.955" width="11.1101" height="43.3295" rx="5.55506" fill="#bfbfb6" stroke="#000" stroke-width="2.69039"/><rect x="295.094" y="446.057" width="11.1101" height="43.3295" rx="5.55506" transform="rotate(90 295.094 446.057)" fill="#bfbfb6" stroke="#000" stroke-width="2.69039"/><rect x="295.094" y="428.281" width="11.1101" height="43.3295" rx="5.55506" transform="rotate(90 295.094 428.281)" fill="#bfbfb6" stroke="#000" stroke-width="2.69039"/><rect x="295.094" y="410.505" width="11.1101" height="43.3295" rx="5.55506" transform="rotate(90 295.094 410.505)" fill="#bfbfb6" stroke="#000" stroke-width="2.69039"/><rect x="223.433" y="349.955" width="11.1101" height="43.3295" rx="5.55506" fill="#bfbfb6" stroke="#000" stroke-width="2.69039"/><rect x="205.657" y="349.955" width="11.1101" height="43.3295" rx="5.55506" fill="#bfbfb6" stroke="#000" stroke-width="2.69039"/><rect x="187.881" y="349.955" width="11.1101" height="43.3295" rx="5.55506" fill="#bfbfb6" stroke="#000" stroke-width="2.69039"/><rect x="295.094" y="321.624" width="11.1101" height="43.3295" rx="5.55506" transform="rotate(90 295.094 321.624)" fill="#bfbfb6" stroke="#000" stroke-width="2.69039"/><rect x="295.094" y="303.847" width="11.1101" height="43.3295" rx="5.55506" transform="rotate(90 295.094 303.847)" fill="#bfbfb6" stroke="#000" stroke-width="2.69039"/><rect x="295.094" y="286.071" width="11.1101" height="43.3295" rx="5.55506" transform="rotate(90 295.094 286.071)" fill="#bfbfb6" stroke="#000" stroke-width="2.69039"/><circle cx="273.428" cy="371.064" r="18.8872" fill="#f5f5f5" fill-opacity=".25" stroke="#000" stroke-width="2.69039"/><path opacity=".3" d="M272.482 235.945C272.915 235.241 273.94 235.241 274.374 235.945l13.405 21.768C288.235 258.454 287.703 259.407 286.833 259.407H260.022C259.153 259.407 258.62 258.454 259.076 257.713l13.406-21.768z" fill="#b380d9" stroke="#000" stroke-width="4.44405"/><path opacity=".3" d="M409.102 370.673C409.806 371.107 409.806 372.131 409.102 372.565l-21.768 13.406C386.593 386.427 385.64 385.894 385.64 385.025V358.214C385.64 357.344 386.593 356.812 387.334 357.268l21.768 13.405z" fill="#b380d9" stroke="#000" stroke-width="4.44405"/><path opacity=".3" d="M274.375 507.293C273.941 507.998 272.917 507.998 272.483 507.293l-13.406-21.768C258.621 484.785 259.154 483.831 260.023 483.831h26.812C287.704 483.831 288.236 484.785 287.781 485.525l-13.406 21.768z" fill="#b380d9" stroke="#000" stroke-width="4.44405"/><path opacity=".3" d="M137.754 372.565C137.049 372.131 137.049 371.107 137.754 370.673l21.768-13.405C160.262 356.812 161.216 357.344 161.216 358.214v26.811C161.216 385.894 160.262 386.427 159.522 385.971l-21.768-13.406z" fill="#b380d9" stroke="#000" stroke-width="4.44405"/><g opacity=".3"><rect x="865.313" y="118.722" width="134.52" height="53.8078" rx="9.35231" fill="#7c7b75"/><path d="M919.476 154.626H922.068V147.81H925.884l2.976 6.816h2.88L928.476 147.258 929.628 146.682 930.852 144.882 931.5 142.482 930.78 139.962 928.956 138.138 926.724 137.562H919.476v17.064zM922.068 145.242V140.13H926.34L927.588 140.514 928.452 141.354 928.788 142.554 928.428 143.802 927.852 144.642 926.628 145.242H922.068zM934.71 154.626H942.774L944.79 153.69 946.11 152.058 946.686 149.706 946.134 147.354 945.03 145.89 944.55 145.626 945.03 145.386 945.894 144.258 946.374 142.362 945.846 140.01 944.19 138.186 941.886 137.562H934.71v17.064zM937.302 144.282V140.13H941.694L942.75 140.466 943.446 141.258 943.71 142.29 943.422 143.322 943.206 143.61 942.198 144.282H937.302zM937.302 152.058v-5.184H942.126L943.182 147.522 943.662 148.29 943.974 149.706 943.662 150.954 943.086 151.602 942.126 152.058H937.302z" fill="#000"/><rect x="865.313" y="118.722" width="134.52" height="53.8078" rx="9.35231" stroke="#000" stroke-width="4.67616"/></g><g opacity=".3"><path d="M865.313 49.7972C865.313 23.9715 886.249 3.03564 912.075 3.03564h40.996C978.897 3.03564 999.833 23.9715 999.833 49.7972V87.847C999.833 93.0122 995.646 97.1993 990.481 97.1993H874.666C869.501 97.1993 865.313 93.0122 865.313 87.847V49.7972z" fill="#7c7b75"/><path d="M921.328 59.1174H923.92v-6.816H927.736l2.976 6.816h2.88L930.328 51.7494 931.48 51.1734 932.704 49.3734 933.352 46.9734 932.632 44.4534 930.808 42.6294 928.576 42.0534H921.328v17.064zM923.92 49.7334v-5.112H928.192L929.44 45.0054 930.304 45.8454 930.64 47.0454 930.28 48.2934 929.704 49.1334 928.48 49.7334H923.92zM938.475 59.1174H941.091V44.6214H945.531v-2.568h-11.4v2.568H938.475v14.496z" fill="#000"/><path d="M865.313 49.7972C865.313 23.9715 886.249 3.03564 912.075 3.03564h40.996C978.897 3.03564 999.833 23.9715 999.833 49.7972V87.847C999.833 93.0122 995.646 97.1993 990.481 97.1993H874.666C869.501 97.1993 865.313 93.0122 865.313 87.847V49.7972z" stroke="#000" stroke-width="4.67616"/></g><g opacity=".3"><rect x="206.168" y="118.722" width="134.52" height="53.8078" rx="9.35231" fill="#7c7b75"/><path d="M261.486 154.626h10.056V152.058h-7.464V137.562H261.486v17.064zm12.731.0H282.281L284.297 153.69 285.617 152.058 286.193 149.706 285.641 147.354 284.537 145.89 284.057 145.626 284.537 145.386 285.401 144.258 285.881 142.362 285.353 140.01 283.697 138.186 281.393 137.562H274.217v17.064zM276.809 144.282V140.13h4.392L282.257 140.466 282.953 141.258 283.217 142.29 282.929 143.322 282.713 143.61 281.705 144.282H276.809zM276.809 152.058v-5.184H281.633L282.689 147.522 283.169 148.29 283.481 149.706 283.169 150.954 282.593 151.602 281.633 152.058H276.809z" fill="#000"/><rect x="206.168" y="118.722" width="134.52" height="53.8078" rx="9.35231" stroke="#000" stroke-width="4.67616"/></g><g opacity=".3"><path d="M206.168 49.7972c0-25.8257 20.936-46.76156 46.762-46.76156h40.996c25.826.0 46.762 20.93586 46.762 46.76156V87.847C340.688 93.0122 336.5 97.1993 331.335 97.1993H215.52C210.355 97.1993 206.168 93.0122 206.168 87.847V49.7972z" fill="#7c7b75"/><path d="M263.935 59.1174h10.056V56.5494h-7.464V42.0534H263.935v17.064zm13.45.0H280.001V44.6214h4.44v-2.568h-11.4v2.568H277.385v14.496z" fill="#000"/><path d="M206.168 49.7972c0-25.8257 20.936-46.76156 46.762-46.76156h40.996c25.826.0 46.762 20.93586 46.762 46.76156V87.847C340.688 93.0122 336.5 97.1993 331.335 97.1993H215.52C210.355 97.1993 206.168 93.0122 206.168 87.847V49.7972z" stroke="#000" stroke-width="4.67616"/></g><circle cx="775.857" cy="575.416" r="82.7295" fill="#7c7b75" stroke="#000" stroke-width="5.38078"/><circle cx="775.227" cy="576.048" r="63.1523" fill="#aeada1" stroke="#000" stroke-width="2.69039"/><circle cx="431.487" cy="575.416" r="82.7295" fill="#7c7b75" stroke="#000" stroke-width="5.38078"/><circle cx="430.856" cy="576.048" r="63.1523" fill="#aeada1" stroke="#000" stroke-width="2.69039"/><path d="M865.313 49.7972C865.313 23.9715 886.249 3.03564 912.075 3.03564h40.996C978.897 3.03564 999.833 23.9715 999.833 49.7972V87.847C999.833 93.0122 995.646 97.1993 990.481 97.1993H874.666C869.501 97.1993 865.313 93.0122 865.313 87.847V49.7972z" fill="#7c7b75"/><path d="M921.328 59.1174H923.92v-6.816H927.736l2.976 6.816h2.88L930.328 51.7494 931.48 51.1734 932.704 49.3734 933.352 46.9734 932.632 44.4534 930.808 42.6294 928.576 42.0534H921.328v17.064zM923.92 49.7334v-5.112H928.192L929.44 45.0054 930.304 45.8454 930.64 47.0454 930.28 48.2934 929.704 49.1334 928.48 49.7334H923.92zM938.475 59.1174H941.091V44.6214H945.531v-2.568h-11.4v2.568H938.475v14.496z" fill="#000"/><path d="M865.313 49.7972C865.313 23.9715 886.249 3.03564 912.075 3.03564h40.996C978.897 3.03564 999.833 23.9715 999.833 49.7972V87.847C999.833 93.0122 995.646 97.1993 990.481 97.1993H874.666C869.501 97.1993 865.313 93.0122 865.313 87.847V49.7972z" stroke="#000" stroke-width="4.67616"/><rect x="678.331" y="352.786" width="51.1174" height="34.9751" rx="5.38078" fill="#7c7b75" stroke="#000" stroke-width="5.38078"/><rect x="477.896" y="352.786" width="51.1174" height="34.9751" rx="5.38078" fill="#7c7b75" stroke="#000" stroke-width="5.38078"/><rect x="892.217" y="414.666" width="80.7117" height="80.7117" rx="40.3559" fill="#f37272"/><path d="M939.916 468.521H943.084L933.76 442.925H931.384L922.06 468.521H925.228L927.892 460.853H937.252L939.916 468.521zm-10.98-10.62L932.572 447.425 936.208 457.901H928.936z" fill="#000"/><rect x="892.217" y="414.666" width="80.7117" height="80.7117" rx="40.3559" stroke="#000" stroke-width="5.38078"/><rect x="808.815" y="329.918" width="80.7117" height="80.7117" rx="40.3559" fill="#f3cd45"/><path d="M837.97 383.774H841.642l7.524-10.368 7.524 10.368H860.362L851.002 371.03 860.434 358.178H856.762L849.166 368.582l-7.596-10.404H837.898L847.33 371.03 837.97 383.774z" fill="#000"/><rect x="808.815" y="329.918" width="80.7117" height="80.7117" rx="40.3559" stroke="#000" stroke-width="5.38078"/><mask id="path-54-inside-2_2502_1533" fill="#fff"><path fill-rule="evenodd" clip-rule="evenodd" d="M310.091 286.627C310.091 278.65 303.624 272.184 295.647 272.184h-44.44C243.23 272.184 236.764 278.65 236.764 286.627v34.441C236.764 329.045 230.297 335.511 222.321 335.511H187.879c-7.977.0-14.443 6.46699999999998-14.443 14.443v44.441C173.436 402.372 179.902 408.838 187.879 408.838h34.442c7.976.0 14.443 6.46599999999995 14.443 14.443v34.442c0 7.976 6.46599999999998 14.443 14.443 14.443h44.44C303.624 472.166 310.091 465.699 310.091 457.723V423.281C310.091 415.304 316.557 408.838 324.534 408.838h34.441C366.952 408.838 373.418 402.372 373.418 394.395V349.954c0-7.976-6.46600000000001-14.443-14.443-14.443H324.534C316.557 335.511 310.091 329.045 310.091 321.068V286.627z"/></mask><path fill-rule="evenodd" clip-rule="evenodd" d="M310.091 286.627C310.091 278.65 303.624 272.184 295.647 272.184h-44.44C243.23 272.184 236.764 278.65 236.764 286.627v34.441C236.764 329.045 230.297 335.511 222.321 335.511H187.879c-7.977.0-14.443 6.46699999999998-14.443 14.443v44.441C173.436 402.372 179.902 408.838 187.879 408.838h34.442c7.976.0 14.443 6.46599999999995 14.443 14.443v34.442c0 7.976 6.46599999999998 14.443 14.443 14.443h44.44C303.624 472.166 310.091 465.699 310.091 457.723V423.281C310.091 415.304 316.557 408.838 324.534 408.838h34.441C366.952 408.838 373.418 402.372 373.418 394.395V349.954c0-7.976-6.46600000000001-14.443-14.443-14.443H324.534C316.557 335.511 310.091 329.045 310.091 321.068V286.627z" fill="#aeada1"/><path d="M358.975 408.838V413.282 408.838zm-48.884 14.443H314.535 310.091zm14.443-14.443V404.394 408.838zm-73.327-132.21h44.44V267.74h-44.44V276.628zm-9.999 44.44V286.627H232.32v34.441H241.208zm-53.329 18.887h34.442V331.067H187.879V339.955zm-9.999 54.44V349.954H168.992v44.441H177.88zM222.321 404.394H187.879V413.282h34.442V404.394zm18.887 53.329V423.281H232.32v34.442H241.208zM295.647 467.722h-44.44V476.61h44.44V467.722zm10-44.441v34.442H314.535V423.281H305.647zm53.328-18.887H324.534V413.282h34.441V404.394zM368.974 349.954v44.441H377.862V349.954H368.974zM324.534 339.955h34.441V331.067H324.534V339.955zm-18.887-53.328v34.441H314.535V286.627H305.647zm18.887 44.44C319.011 331.067 314.535 326.59 314.535 321.068H305.647c0 10.431 8.45600000000002 18.887 18.887 18.887V331.067zm53.328 18.887c0-10.431-8.45600000000002-18.887-18.887-18.887V339.955C364.497 339.955 368.974 344.432 368.974 349.954H377.862zm-18.887 63.328c10.431.0 18.887-8.45599999999996 18.887-18.887H368.974C368.974 399.917 364.497 404.394 358.975 404.394V413.282zM314.535 423.281C314.535 417.759 319.011 413.282 324.534 413.282V404.394C314.103 404.394 305.647 412.85 305.647 423.281H314.535zM295.647 476.61C306.079 476.61 314.535 468.154 314.535 457.723H305.647C305.647 463.245 301.17 467.722 295.647 467.722V476.61zM232.32 457.723C232.32 468.154 240.776 476.61 251.207 476.61V467.722C245.685 467.722 241.208 463.245 241.208 457.723H232.32zm-9.999-44.441C227.843 413.282 232.32 417.759 232.32 423.281H241.208C241.208 412.85 232.752 404.394 222.321 404.394V413.282zm-53.329-18.887c0 10.431 8.45600000000002 18.887 18.887 18.887V404.394C182.357 404.394 177.88 399.917 177.88 394.395H168.992zm18.887-63.328C177.448 331.067 168.992 339.523 168.992 349.954H177.88C177.88 344.432 182.357 339.955 187.879 339.955V331.067zM232.32 321.068C232.32 326.59 227.843 331.067 222.321 331.067V339.955c10.431.0 18.887-8.45599999999996 18.887-18.887H232.32zm63.327-44.44C301.17 276.628 305.647 281.104 305.647 286.627H314.535C314.535 276.196 306.078 267.74 295.647 267.74V276.628zM251.207 267.74C240.776 267.74 232.32 276.196 232.32 286.627H241.208C241.208 281.104 245.685 276.628 251.207 276.628V267.74z" fill="#000" mask="url(#path-54-inside-2_2502_1533)"/><rect x="347.865" y="349.955" width="11.1101" height="43.3295" rx="5.55506" fill="#bfbfb6" stroke="#000" stroke-width="2.69039"/><rect x="330.09" y="349.955" width="11.1101" height="43.3295" rx="5.55506" fill="#bfbfb6" stroke="#000" stroke-width="2.69039"/><rect x="312.313" y="349.955" width="11.1101" height="43.3295" rx="5.55506" fill="#bfbfb6" stroke="#000" stroke-width="2.69039"/><rect x="295.093" y="446.057" width="11.1101" height="43.3295" rx="5.55506" transform="rotate(90 295.093 446.057)" fill="#bfbfb6" stroke="#000" stroke-width="2.69039"/><rect x="295.093" y="428.281" width="11.1101" height="43.3295" rx="5.55506" transform="rotate(90 295.093 428.281)" fill="#bfbfb6" stroke="#000" stroke-width="2.69039"/><rect x="295.093" y="410.505" width="11.1101" height="43.3295" rx="5.55506" transform="rotate(90 295.093 410.505)" fill="#bfbfb6" stroke="#000" stroke-width="2.69039"/><rect x="223.432" y="349.955" width="11.1101" height="43.3295" rx="5.55506" fill="#bfbfb6" stroke="#000" stroke-width="2.69039"/><rect x="205.656" y="349.955" width="11.1101" height="43.3295" rx="5.55506" fill="#bfbfb6" stroke="#000" stroke-width="2.69039"/><rect x="187.88" y="349.955" width="11.1101" height="43.3295" rx="5.55506" fill="#bfbfb6" stroke="#000" stroke-width="2.69039"/><rect x="295.093" y="321.624" width="11.1101" height="43.3295" rx="5.55506" transform="rotate(90 295.093 321.624)" fill="#bfbfb6" stroke="#000" stroke-width="2.69039"/><rect x="295.093" y="303.847" width="11.1101" height="43.3295" rx="5.55506" transform="rotate(90 295.093 303.847)" fill="#bfbfb6" stroke="#000" stroke-width="2.69039"/><rect x="295.093" y="286.071" width="11.1101" height="43.3295" rx="5.55506" transform="rotate(90 295.093 286.071)" fill="#bfbfb6" stroke="#000" stroke-width="2.69039"/><circle cx="273.427" cy="371.064" r="18.8872" fill="#f5f5f5" fill-opacity=".25" stroke="#000" stroke-width="2.69039"/><path d="M272.481 235.945C272.914 235.241 273.939 235.241 274.373 235.945l13.405 21.768C288.234 258.454 287.702 259.407 286.832 259.407H260.021C259.152 259.407 258.619 258.454 259.075 257.713l13.406-21.768z" fill="#b380d9" stroke="#000" stroke-width="4.44405"/><path d="M409.101 370.673C409.805 371.107 409.805 372.131 409.101 372.565l-21.768 13.406C386.592 386.427 385.639 385.894 385.639 385.025V358.214C385.639 357.344 386.592 356.812 387.333 357.268l21.768 13.405z" fill="#b380d9" stroke="#000" stroke-width="4.44405"/><path d="M274.373 507.293C273.939 507.998 272.915 507.998 272.481 507.293l-13.406-21.768C258.619 484.785 259.152 483.831 260.021 483.831h26.812C287.702 483.831 288.234 484.785 287.779 485.525l-13.406 21.768z" fill="#b380d9" stroke="#000" stroke-width="4.44405"/><path d="M137.753 372.565C137.048 372.131 137.048 371.107 137.753 370.673l21.768-13.405C160.261 356.812 161.215 357.344 161.215 358.214v26.811C161.215 385.894 160.261 386.427 159.521 385.971l-21.768-13.406z" fill="#b380d9" stroke="#000" stroke-width="4.44405"/><path d="M986.382 491.342 1017.32 518.246H1120.9" stroke="#000" stroke-width="4.03559"/><rect x="1122.92" y="494.705" width="123.63" height="35.726" rx="3.36299" fill="#f5f5f5"/><path d="M1141.73 506.452H1145.09V502.972H1141.73V506.452zM1142.13 521.068H1144.7V508.42H1142.13v12.648zM1149.18 521.068H1151.75V512.572L1152.33 511.756 1153.81 510.772H1155.09L1156.29 511.156 1156.74 511.804V521.068H1159.31v-10.2L1157.8 508.828 1155.57 508.228H1153.41L1151.75 509.188V508.42H1149.18v12.648zM1166.89 521.26H1168.05L1170.49 520.708 1169.85 518.212 1167.9 518.716h-.5L1166.75 518.428 1166.32 517.852V511.276H1169.46V508.732H1166.32V504.316H1163.75V508.732H1161.59V511.276H1163.75v7.368L1165.12 520.588 1166.89 521.26zM1176.36 521.26H1178.38L1180.49 520.732 1182.34 519.508 1180.99 517.444 1179.53 518.332 1178.09 518.716H1176.87L1175.62 518.116 1174.61 516.7 1174.37 516.124H1183.13v-2.88L1182.55 511.588 1180.97 509.428 1178.52 508.228H1176.36L1173.91 509.428 1172.31 511.588 1171.8 513.388V516.148L1172.31 517.9 1173.91 520.06 1176.36 521.26zM1174.39 513.58 1174.56 512.788 1175.59 511.396 1176.77 510.772H1178.07L1179.29 511.444 1180.27 512.812 1180.54 513.58H1174.39zM1186.04 521.068H1188.61V513.268L1189.09 512.236 1189.93 511.3 1191.03 510.772H1191.85L1193.07 511.108 1193.7 508.636 1192.23 508.228H1190.58L1188.9 509.044 1188.61 509.332V508.42H1186.04v12.648zM1204.36 521.38 1206.43 519.892 1205.42 518.428V511.588L1204.75 509.908 1202.85 508.636 1201.24 508.228H1199.01L1197.4 508.708 1196.32 509.404 1195.36 510.292 1197.14 512.14 1197.81 511.492 1198.46 511.06 1199.25 510.772H1200.79L1201.84 511.036 1202.66 511.588 1202.85 512.068V513.1L1202.76 513.028 1201.17 512.5H1199.59L1197.24 513.1 1195.44 514.924 1195.08 516.58V518.044L1196.47 520.06 1197.64 520.756 1199.28 521.26H1200.81L1203.02 520.132 1203.31 519.82 1204.36 521.38zM1199.61 518.716 1198.68 518.404 1198.24 518.164 1197.64 517.3V516.82L1197.81 516.196 1198.58 515.404 1199.88 515.044H1200.81L1201.92 515.38 1202.47 515.644 1202.85 516.052V516.724L1202.66 517.252 1201.84 518.116 1200.28 518.716H1199.61zM1212.95 521.26H1214.96L1216.96 520.612 1218.68 518.884 1216.91 517.108 1215.49 518.428 1214.65 518.716H1213.45L1212.23 518.116 1211.2 516.7 1210.96 515.836V513.7L1211.17 512.788 1212.2 511.396 1213.36 510.772H1214.72L1215.54 511.06 1216.86 512.38 1218.71 510.652 1216.96 508.876 1214.96 508.228H1212.95L1210.52 509.428 1208.92 511.588 1208.39 513.388V516.148L1208.92 517.9 1210.52 520.06 1212.95 521.26zm11.95.0H1226.05L1228.5 520.708 1227.85 518.212 1225.91 518.716h-.5L1224.76 518.428 1224.33 517.852V511.276H1227.47V508.732H1224.33V504.316H1221.76V508.732H1219.6V511.276H1221.76v7.368L1223.13 520.588 1224.9 521.26z" fill="#000"/><rect x="1122.92" y="494.705" width="123.63" height="35.726" rx="3.36299" stroke="#000" stroke-width="4.03559"/><path d="M1134.35 52.8079H1026.74" stroke="#000" stroke-width="4.03559"/><rect x="1136.37" y="27.9218" width="93.6299" height="35.726" rx="3.36299" fill="#f5f5f5"/><path d="M1154.29 54.2849H1164.13v-2.544H1157.89L1164.01 43.5809v-1.944H1154.65v2.52H1160.48L1154.29 52.3409v1.944zm15.78.192H1172.61L1175.06 53.3009 1176.33 51.4529 1176.77 49.3889v-2.832L1176.33 44.4929 1175.06 42.6449 1172.61 41.4449H1170.07L1167.65 42.6449 1166.37 44.4929 1165.92 46.5569v2.832L1166.37 51.4529 1167.65 53.3009 1170.07 54.4769zM1170.55 51.9569 1169.33 51.3329 1168.77 50.5409 1168.49 49.0529v-2.208L1168.77 45.4289 1169.37 44.5889 1170.5 43.9889H1172.16L1173.33 44.5889 1173.91 45.4529 1174.22 46.8449v2.208L1173.91 50.5169 1173.38 51.3329 1172.13 51.9569H1170.55zM1183.45 54.4769H1186L1188.45 53.3009 1189.72 51.4529 1190.15 49.3889v-2.832L1189.72 44.4929 1188.45 42.6449 1186 41.4449H1183.45L1181.03 42.6449 1179.76 44.4929 1179.3 46.5569v2.832L1179.76 51.4529 1181.03 53.3009 1183.45 54.4769zM1183.93 51.9569 1182.71 51.3329 1182.16 50.5409 1181.87 49.0529v-2.208L1182.16 45.4289 1182.76 44.5889 1183.89 43.9889H1185.54L1186.72 44.5889 1187.29 45.4529 1187.61 46.8449v2.208L1187.29 50.5169 1186.77 51.3329 1185.52 51.9569H1183.93zM1193.55 54.2849H1196.12v-8.496L1196.69 44.9729 1198.18 43.9889H1199.48L1200.68 44.3729 1201.13 45.0209v9.264H1203.7v-8.496L1204.28 44.9729 1205.76 43.9889H1207.06L1208.26 44.3729 1208.72 45.0209v9.264H1211.28v-10.2L1209.77 42.0449 1207.54 41.4449H1205.36L1203.72 42.3809 1202.91 43.0529 1202.19 42.0449 1199.96 41.4449H1197.77L1196.12 42.4049V41.6369H1193.55v12.648z" fill="#000"/><rect x="1136.37" y="27.9218" width="93.6299" height="35.726" rx="3.36299" stroke="#000" stroke-width="4.03559"/><path d="M324.545 250.552l30.939-26.904h103.58" stroke="#000" stroke-width="4.03559"/><rect x="461.082" y="201.452" width="140.63" height="35.726" rx="3.36299" fill="#f5f5f5"/><path d="M479.889 213.199H483.249V209.719H479.889V213.199zM480.297 227.815H482.865V215.167H480.297v12.648zM487.346 227.815H489.914V219.319L490.49 218.503 491.978 217.519H493.25L494.45 217.903 494.906 218.551V227.815H497.474v-10.2L495.962 215.575 493.73 214.975H491.57L489.914 215.935V215.167H487.346v12.648zm16.27.0H505.8L510.816 215.167H508.08L504.696 223.831 501.336 215.167H498.6L503.616 227.815zM516.447 228.007H518.463L520.575 227.479 522.423 226.255 521.079 224.191 519.615 225.079 518.175 225.463H516.951L515.703 224.863 514.695 223.447 514.455 222.871H523.215v-2.88L522.639 218.335 521.055 216.175 518.607 214.975H516.447L513.999 216.175 512.391 218.335 511.887 220.135V222.895L512.391 224.647 513.999 226.807 516.447 228.007zM514.479 220.327 514.647 219.535 515.679 218.143 516.855 217.519H518.151L519.375 218.191 520.359 219.559 520.623 220.327H514.479zm12.101 7.488H529.148V219.319L529.724 218.503 531.212 217.519H532.484L533.684 217.903 534.14 218.551V227.815H536.708v-10.2L535.196 215.575 532.964 214.975H530.804L529.148 215.935V215.167H526.58v12.648zM544.291 228.007H545.443L547.891 227.455 547.243 224.959 545.299 225.463H544.795L544.147 225.175 543.715 224.599V218.023H546.859V215.479H543.715V211.063H541.147V215.479H538.987V218.023H541.147v7.368L542.515 227.335 544.291 228.007zM553.4 228.007H555.944L558.392 226.831 559.664 224.983 560.096 222.919V220.087L559.664 218.023 558.392 216.175 555.944 214.975H553.4L550.976 216.175 549.704 218.023 549.248 220.087V222.919L549.704 224.983 550.976 226.831 553.4 228.007zM553.88 225.487 552.656 224.863 552.104 224.071 551.816 222.583v-2.208L552.104 218.959 552.704 218.119 553.832 217.519H555.488L556.664 218.119 557.24 218.983 557.552 220.375v2.208L557.24 224.047 556.712 224.863 555.464 225.487H553.88zM563.038 227.815H565.606V220.015L566.086 218.983 566.926 218.047 568.03 217.519H568.846L570.07 217.855 570.694 215.383 569.23 214.975H567.574L565.894 215.791 565.606 216.079V215.167H563.038v12.648zM573.678 231.727H576.462L583.926 215.167H581.07L577.71 222.799 574.35 215.167h-2.904L576.318 225.895 573.678 231.727z" fill="#000"/><rect x="461.082" y="201.452" width="140.63" height="35.726" rx="3.36299" stroke="#000" stroke-width="4.03559"/><path d="M151.016 410.63l-30.94 26.904H89.1366" stroke="#000" stroke-width="4.03559"/><rect x="2.4885" y="415.338" width="84.6299" height="35.726" rx="3.36299" fill="#f5f5f5"/><path d="M25.0877 441.893h1.152L28.6877 441.341 28.0397 438.845 26.0957 439.349H25.5917L24.9437 439.061 24.5117 438.485V431.909h3.144V429.365h-3.144v-4.416h-2.568v4.416h-2.16V431.909h2.16v7.368L23.3117 441.221 25.0877 441.893zm9.1088.0h2.544L39.1885 440.717 40.4605 438.869 40.8925 436.805V433.973L40.4605 431.909 39.1885 430.061 36.7405 428.861h-2.544L31.7725 430.061 30.5005 431.909 30.0445 433.973V436.805L30.5005 438.869 31.7725 440.717 34.1965 441.893zM34.6765 439.373 33.4525 438.749 32.9005 437.957 32.6125 436.469V434.261L32.9005 432.845 33.5005 432.005 34.6285 431.405h1.656L37.4605 432.005 38.0365 432.869 38.3485 434.261V436.469L38.0365 437.933 37.5085 438.749 36.2605 439.373h-1.584zM47.9873 441.893h2.256L51.7073 441.005V441.701h2.544V423.605h-2.568v5.928L51.4913 429.389 50.0513 428.861H47.9393L45.4913 430.061 43.8833 432.221 43.3553 434.021V436.781L43.8833 438.533 45.4913 440.717 47.9873 441.893zM48.4673 439.349 47.1473 438.725 46.1633 437.333 45.9233 436.493V434.333L46.1633 433.421l1.008-1.368L48.3713 431.381h1.368L50.5313 431.669 51.2993 432.149 51.6833 432.629V437.573L51.0833 438.437 49.7633 439.349h-1.296zM61.8293 441.893h2.544L66.8213 440.717 68.0933 438.869 68.5253 436.805V433.973L68.0933 431.909 66.8213 430.061 64.3733 428.861h-2.544L59.4053 430.061 58.1333 431.909 57.6773 433.973V436.805L58.1333 438.869 59.4053 440.717 61.8293 441.893zM62.3093 439.373 61.0853 438.749 60.5333 437.957 60.2453 436.469V434.261L60.5333 432.845 61.1333 432.005 62.2613 431.405h1.656L65.0933 432.005 65.6693 432.869 65.9813 434.261V436.469L65.6693 437.933 65.1413 438.749 63.8933 439.373h-1.584z" fill="#000"/><rect x="2.4885" y="415.338" width="84.6299" height="35.726" rx="3.36299" stroke="#000" stroke-width="4.03559"/><path d="M812.851 330.591 781.911 303.687H750.972" stroke="#000" stroke-width="4.03559"/><rect x="677.324" y="280.819" width="71.6299" height="35.726" rx="3.36299" fill="#f5f5f5"/><path d="M695.82 307.182H698.388V299.382L698.868 298.35 699.708 297.414 700.812 296.886H701.628L702.852 297.222 703.476 294.75 702.012 294.342H700.356L698.676 295.158 698.388 295.446V294.534H695.82v12.648zM709.507 307.374H711.427L713.107 306.414V307.182H715.651V294.534H713.083V303.054L712.483 303.846 710.995 304.854H709.891L708.739 304.542 708.187 303.798V294.534H705.619v10.152L707.227 306.774 709.507 307.374zM719.924 307.182H722.492V298.686L723.068 297.87 724.556 296.886H725.828L727.028 297.27 727.484 297.918V307.182H730.052v-10.2L728.54 294.942 726.308 294.342H724.148L722.492 295.302V294.534H719.924v12.648z" fill="#000"/><rect x="677.324" y="280.819" width="71.6299" height="35.726" rx="3.36299" stroke="#000" stroke-width="4.03559"/><line x1="703.219" y1="422.737" x2="703.219" y2="399.868" stroke="#000" stroke-width="4.03559"/><rect x="651.731" y="424.755" width="101.63" height="35.726" rx="3.36299" fill="#f5f5f5"/><path d="M670.706 455.03H673.274v-4.392L673.466 450.782 674.882 451.31H677.018L679.466 450.11 681.074 447.95 681.602 446.15V443.39L681.074 441.638 679.466 439.454 676.97 438.278H674.714L673.25 439.166V438.47H670.706V455.03zM675.218 448.79 674.426 448.502 673.658 448.022 673.274 447.542V442.598L673.874 441.734 675.194 440.822H676.49L677.81 441.446 678.794 442.838 679.034 443.702V445.838L678.794 446.75 677.786 448.118 676.586 448.79H675.218zM693.332 451.43 695.396 449.942 694.388 448.478V441.638L693.716 439.958 691.82 438.686 690.212 438.278H687.98L686.372 438.758 685.292 439.454 684.332 440.342 686.108 442.19 686.78 441.542 687.428 441.11 688.22 440.822H689.756L690.812 441.086 691.628 441.638 691.82 442.118V443.15L691.724 443.078 690.14 442.55H688.556L686.204 443.15 684.404 444.974 684.044 446.63v1.464L685.436 450.11 686.612 450.806 688.244 451.31H689.78L691.988 450.182 692.276 449.87 693.332 451.43zM688.58 448.766 687.644 448.454 687.212 448.214 686.612 447.35V446.87L686.78 446.246 687.548 445.454 688.844 445.094H689.78L690.884 445.43 691.436 445.694 691.82 446.102V446.774L691.628 447.302 690.812 448.166 689.252 448.766H688.58zM702.03 451.31H703.95L705.63 450.35V451.118H708.174V438.47H705.606V446.99L705.006 447.782 703.518 448.79H702.414L701.262 448.478 700.71 447.734V438.47H698.142v10.152L699.75 450.71 702.03 451.31zm13.226.0H717.368L719.048 450.83 720.272 449.942 721.208 448.526V446.366L720.224 444.782 718.808 443.846 715.304 443.15 714.8 442.886 714.464 442.454V441.638L714.68 441.254 714.92 441.038 715.784 440.798H717.2L718.352 441.158 719.648 442.046 721.064 439.934 719.36 438.782 717.464 438.278H715.352L713.912 438.686 712.736 439.574 711.92 440.99V443.246L712.976 444.686 714.584 445.55 717.824 446.222 718.352 446.582 718.664 447.086V447.782L718.352 448.214 717.872 448.55 717.08 448.79H715.688L714.296 448.406 713.768 447.998 713.144 447.278 711.344 449.006 712.112 449.87 713.264 450.806 715.256 451.31zm12.793.0H730.065L732.177 450.782 734.025 449.558 732.681 447.494 731.217 448.382 729.777 448.766H728.553L727.305 448.166 726.297 446.75 726.057 446.174H734.817v-2.88L734.241 441.638 732.657 439.478 730.209 438.278H728.049L725.601 439.478 723.993 441.638 723.489 443.438V446.198L723.993 447.95 725.601 450.11 728.049 451.31zM726.081 443.63 726.249 442.838 727.281 441.446 728.457 440.822H729.753L730.977 441.494 731.961 442.862 732.225 443.63H726.081z" fill="#000"/><rect x="651.731" y="424.755" width="101.63" height="35.726" rx="3.36299" stroke="#000" stroke-width="4.03559"/><path d="M223.656 490.669l-30.939 26.904H89.1367" stroke="#000" stroke-width="4.03559"/><rect x="3.4885" y="494.705" width="83.6299" height="35.726" rx="3.36299" fill="#f5f5f5"/><path d="M22.4397 521.068h2.568V512.572L25.5837 511.756 27.0717 510.772h1.296L29.5677 511.156 30.0237 511.804V521.068h2.568V512.572L33.1677 511.756 34.6557 510.772h1.296L37.1517 511.156 37.6077 511.804V521.068h2.568v-10.2L38.6637 508.828 36.4317 508.228h-2.184L32.6157 509.164 31.7997 509.836 31.0797 508.828 28.8477 508.228h-2.184L25.0077 509.188V508.42h-2.568v12.648zM52.5194 521.38 54.5834 519.892 53.5754 518.428V511.588L52.9034 509.908 51.0074 508.636 49.3994 508.228h-2.232L45.5594 508.708 44.4794 509.404 43.5194 510.292 45.2954 512.14 45.9674 511.492 46.6154 511.06 47.4074 510.772H48.9434L49.9994 511.036 50.8154 511.588 51.0074 512.068V513.1L50.9114 513.028 49.3274 512.5h-1.584L45.3914 513.1 43.5914 514.924 43.2314 516.58V518.044L44.6234 520.06 45.7994 520.756 47.4314 521.26h1.536L51.1754 520.132 51.4634 519.82 52.5194 521.38zM47.7674 518.716 46.8314 518.404 46.3994 518.164 45.7994 517.3V516.82L45.9674 516.196 46.7354 515.404 48.0314 515.044h.936L50.0714 515.38 50.6234 515.644 51.0074 516.052V516.724L50.8154 517.252 49.9994 518.116 48.4394 518.716H47.7674zM57.7137 524.98h2.568V520.588L60.4737 520.732 61.8897 521.26h2.136L66.4737 520.06 68.0817 517.9 68.6097 516.1V513.34L68.0817 511.588 66.4737 509.404 63.9777 508.228h-2.256L60.2577 509.116V508.42h-2.544v16.56zM62.2257 518.74 61.4337 518.452 60.6657 517.972 60.2817 517.492V512.548L60.8817 511.684 62.2017 510.772h1.296L64.8177 511.396 65.8017 512.788 66.0417 513.652V515.788L65.8017 516.7 64.7937 518.068 63.5937 518.74h-1.368z" fill="#000"/><rect x="3.4885" y="494.705" width="83.6299" height="35.726" rx="3.36299" stroke="#000" stroke-width="4.03559"/><path d="M851.861 653.2l84.747 84.747H1004.74" stroke="#000" stroke-width="4.03559"/><rect x="1005.89" y="711.281" width="85.6299" height="35.726" rx="3.36299" fill="#f5f5f5"/><path d="M1028.01 737.644H1030.19L1035.21 724.996H1032.47L1029.09 733.66 1025.73 724.996H1022.99L1028.01 737.644zm9.5-14.616H1040.87V719.548H1037.51V723.028zM1037.92 737.644H1040.49V724.996H1037.92v12.648zM1048.62 737.836H1050.63L1052.75 737.308 1054.59 736.084 1053.25 734.02 1051.79 734.908 1050.35 735.292H1049.12L1047.87 734.692 1046.87 733.276 1046.63 732.7H1055.39v-2.88L1054.81 728.164 1053.23 726.004 1050.78 724.804H1048.62L1046.17 726.004 1044.56 728.164 1044.06 729.964V732.724L1044.56 734.476 1046.17 736.636 1048.62 737.836zM1046.65 730.156 1046.82 729.364 1047.85 727.972 1049.03 727.348H1050.32L1051.55 728.02 1052.53 729.388 1052.79 730.156H1046.65zM1060.42 737.644H1062.7L1065.34 729.988 1068 737.644H1070.28L1073.95 724.996H1071.27L1069.06 733.06 1066.37 725.452H1064.33L1061.64 733.084 1059.41 724.996H1056.75L1060.42 737.644z" fill="#000"/><rect x="1005.89" y="711.281" width="85.6299" height="35.726" rx="3.36299" stroke="#000" stroke-width="4.03559"/><path d="M500.765 653.2 585.513 737.947h68.129" stroke="#000" stroke-width="4.03559"/><rect x="654.79" y="711.281" width="154.63" height="35.726" rx="3.36299" fill="#f5f5f5"/><path d="M673.741 737.644H676.309V729.148L676.885 728.332 678.373 727.348H679.669L680.869 727.732 681.325 728.38V737.644H683.893V729.148L684.469 728.332 685.957 727.348H687.253L688.453 727.732 688.909 728.38V737.644H691.477v-10.2L689.965 725.404 687.733 724.804H685.549L683.917 725.74 683.101 726.412 682.381 725.404 680.149 724.804H677.965L676.309 725.764V724.996H673.741v12.648zM698.709 737.836H701.253L703.701 736.66 704.973 734.812 705.405 732.748V729.916L704.973 727.852 703.701 726.004 701.253 724.804H698.709L696.285 726.004 695.013 727.852 694.557 729.916V732.748L695.013 734.812 696.285 736.66 698.709 737.836zM699.189 735.316 697.965 734.692 697.413 733.9 697.125 732.412V730.204L697.413 728.788 698.013 727.948 699.141 727.348H700.797L701.973 727.948 702.549 728.812 702.861 730.204V732.412L702.549 733.876 702.021 734.692 700.773 735.316H699.189zM711.503 737.644H713.687L718.703 724.996H715.967L712.583 733.66 709.223 724.996H706.487L711.503 737.644zM724.335 737.836H726.351L728.463 737.308 730.311 736.084 728.967 734.02 727.503 734.908 726.063 735.292H724.839L723.591 734.692 722.583 733.276 722.343 732.7H731.103v-2.88L730.527 728.164 728.943 726.004 726.495 724.804H724.335L721.887 726.004 720.279 728.164 719.775 729.964V732.724L720.279 734.476 721.887 736.636 724.335 737.836zM722.367 730.156 722.535 729.364 723.567 727.972 724.743 727.348H726.039L727.263 728.02 728.247 729.388 728.511 730.156H722.367zM734.468 737.644H737.036V729.148L737.612 728.332 739.1 727.348H740.396L741.596 727.732 742.052 728.38V737.644H744.62V729.148L745.196 728.332 746.684 727.348H747.98L749.18 727.732 749.636 728.38V737.644H752.204v-10.2L750.692 725.404 748.46 724.804H746.276L744.644 725.74 743.828 726.412 743.108 725.404 740.876 724.804H738.692L737.036 725.764V724.996H734.468v12.648zM759.796 737.836H761.812L763.924 737.308 765.772 736.084 764.428 734.02 762.964 734.908 761.524 735.292H760.3L759.052 734.692 758.044 733.276 757.804 732.7H766.564v-2.88L765.988 728.164 764.404 726.004 761.956 724.804H759.796L757.348 726.004 755.74 728.164 755.236 729.964V732.724L755.74 734.476 757.348 736.636 759.796 737.836zM757.828 730.156 757.996 729.364 759.028 727.972 760.204 727.348H761.5L762.724 728.02 763.708 729.388 763.972 730.156H757.828zM769.929 737.644H772.497V729.148L773.073 728.332 774.561 727.348H775.833L777.033 727.732 777.489 728.38V737.644H780.057v-10.2L778.545 725.404 776.313 724.804H774.153L772.497 725.764V724.996H769.929v12.648zM787.639 737.836H788.791L791.239 737.284 790.591 734.788 788.647 735.292H788.143L787.495 735.004 787.063 734.428V727.852H790.207V725.308H787.063V720.892H784.495V725.308H782.335V727.852H784.495V735.22L785.863 737.164 787.639 737.836z" fill="#000"/><rect x="654.79" y="711.281" width="154.63" height="35.726" rx="3.36299" stroke="#000" stroke-width="4.03559"/><path d="M397.186 330.591l30.939-26.904h30.94" stroke="#000" stroke-width="4.03559"/><rect x="461.082" y="280.819" width="123.63" height="35.726" rx="3.36299" fill="#f5f5f5"/><path d="M483.681 307.374H485.697L487.809 306.846 489.657 305.622 488.313 303.558 486.849 304.446 485.409 304.83H484.185L482.937 304.23 481.929 302.814 481.689 302.238H490.449v-2.88L489.873 297.702 488.289 295.542 485.841 294.342H483.681L481.233 295.542 479.625 297.702 479.121 299.502V302.262L479.625 304.014 481.233 306.174 483.681 307.374zM481.713 299.694 481.881 298.902 482.913 297.51 484.089 296.886H485.385L486.609 297.558 487.593 298.926 487.857 299.694H481.713zm12.102 7.488H496.383V298.686L496.959 297.87 498.447 296.886H499.719L500.919 297.27 501.375 297.918V307.182H503.943v-10.2L502.431 294.942 500.199 294.342H498.039L496.383 295.302V294.534H493.815v12.648zM511.525 307.374H513.541L515.533 306.726 517.261 304.998 515.485 303.222 514.069 304.542 513.229 304.83H512.029L510.805 304.23 509.773 302.814 509.533 301.95V299.814L509.749 298.902 510.781 297.51 511.933 296.886H513.301L514.117 297.174 515.437 298.494 517.285 296.766 515.533 294.99 513.541 294.342H511.525L509.101 295.542 507.493 297.702 506.965 299.502V302.262L507.493 304.014 509.101 306.174 511.525 307.374zM519.935 311.094H522.719L530.183 294.534H527.327L523.967 302.166 520.607 294.534h-2.904L522.575 305.262 519.935 311.094zM535.385 307.374H537.401L539.393 306.726 541.121 304.998 539.345 303.222 537.929 304.542 537.089 304.83H535.889L534.665 304.23 533.633 302.814 533.393 301.95V299.814L533.609 298.902 534.641 297.51 535.793 296.886H537.161L537.977 297.174 539.297 298.494 541.145 296.766 539.393 294.99 537.401 294.342H535.385L532.961 295.542 531.353 297.702 530.825 299.502V302.262L531.353 304.014 532.961 306.174 535.385 307.374zM543.777 307.182H546.345V289.086H543.777v18.096zM553.634 307.374H556.178L558.626 306.198 559.898 304.35 560.33 302.286V299.454L559.898 297.39 558.626 295.542 556.178 294.342H553.634L551.21 295.542 549.938 297.39 549.482 299.454V302.286L549.938 304.35 551.21 306.198 553.634 307.374zM554.114 304.854 552.89 304.23 552.338 303.438 552.05 301.95V299.742L552.338 298.326 552.938 297.486 554.066 296.886H555.722L556.898 297.486 557.474 298.35 557.786 299.742V301.95L557.474 303.414 556.946 304.23 555.698 304.854H554.114zM562.852 307.182H566.092V303.846H562.852V307.182z" fill="#000"/><rect x="461.082" y="280.819" width="123.63" height="35.726" rx="3.36299" stroke="#000" stroke-width="4.03559"/><line x1="502.783" y1="422.737" x2="502.783" y2="399.868" stroke="#000" stroke-width="4.03559"/><rect x="458.141" y="424.755" width="90.6299" height="35.726" rx="3.36299" fill="#f5f5f5"/><path d="M479.9 451.31H482.012L483.692 450.83 484.916 449.942 485.852 448.526V446.366L484.868 444.782 483.452 443.846 479.948 443.15 479.444 442.886 479.108 442.454V441.638L479.324 441.254 479.564 441.038 480.428 440.798h1.416L482.996 441.158 484.292 442.046 485.708 439.934 484.004 438.782 482.108 438.278H479.996L478.556 438.686 477.38 439.574 476.564 440.99V443.246L477.62 444.686 479.228 445.55 482.468 446.222 482.996 446.582 483.308 447.086V447.782L482.996 448.214 482.516 448.55 481.724 448.79h-1.392L478.94 448.406 478.412 447.998 477.788 447.278 475.988 449.006 476.756 449.87 477.908 450.806 479.9 451.31zm12.559.0H493.611L496.059 450.758 495.411 448.262 493.467 448.766H492.963L492.315 448.478 491.883 447.902V441.326H495.027V438.782H491.883v-4.416H489.315v4.416H487.155V441.326H489.315v7.368L490.683 450.638 492.459 451.31zM506.68 451.43 508.744 449.942 507.736 448.478V441.638L507.064 439.958 505.168 438.686 503.56 438.278H501.328L499.72 438.758 498.64 439.454 497.68 440.342 499.456 442.19 500.128 441.542 500.776 441.11 501.568 440.822h1.536L504.16 441.086 504.976 441.638 505.168 442.118V443.15L505.072 443.078 503.488 442.55h-1.584L499.552 443.15 497.752 444.974 497.392 446.63v1.464L498.784 450.11 499.96 450.806 501.592 451.31h1.536L505.336 450.182 505.624 449.87 506.68 451.43zM501.928 448.766 500.992 448.454 500.56 448.214 499.96 447.35V446.87L500.128 446.246 500.896 445.454 502.192 445.094H503.128L504.232 445.43 504.784 445.694 505.168 446.102V446.774L504.976 447.302 504.16 448.166 502.6 448.766H501.928zM515.146 451.31H516.298L518.746 450.758 518.098 448.262 516.154 448.766H515.65L515.002 448.478 514.57 447.902V441.326H517.714V438.782H514.57v-4.416H512.002v4.416H509.842V441.326H512.002v7.368L513.37 450.638 515.146 451.31zM524.009 451.31H526.121L527.801 450.83 529.025 449.942 529.961 448.526V446.366L528.977 444.782 527.561 443.846 524.057 443.15 523.553 442.886 523.217 442.454V441.638L523.433 441.254 523.673 441.038 524.537 440.798H525.953L527.105 441.158 528.401 442.046 529.817 439.934 528.113 438.782 526.217 438.278H524.105L522.665 438.686 521.489 439.574 520.673 440.99V443.246L521.729 444.686 523.337 445.55 526.577 446.222 527.105 446.582 527.417 447.086V447.782L527.105 448.214 526.625 448.55 525.833 448.79H524.441L523.049 448.406 522.521 447.998 521.897 447.278 520.097 449.006 520.865 449.87 522.017 450.806 524.009 451.31z" fill="#000"/><rect x="458.141" y="424.755" width="90.6299" height="35.726" rx="3.36299" stroke="#000" stroke-width="4.03559"/></svg>