<svg width="1272" height="716" viewBox="0 0 1272 716" fill="none" xmlns="http://www.w3.org/2000/svg"><g clip-path="url(#clip0_2497_73)"><rect width="1272" height="715.5" rx="8.63739" fill="#00754b"/><circle cx="667.138" cy="356.094" r="592.606" fill="#f6ca5a"/><ellipse cx="994.412" cy="356.094" rx="591.944" ry="592.606" fill="#ea873f"/><ellipse cx="1322.35" cy="358.081" rx="591.944" ry="594.594" fill="#de4e36"/><circle cx="1650.95" cy="356.094" r="592.606" fill="#0d85b9"/><path d="M530.994 651.76C530.994 650.988 531.182 650.285 531.559 649.65 531.935 649.015 532.441 648.509 533.076 648.132 533.711 647.756 534.415 647.568 535.187 647.568 535.855 647.568 536.471 647.711 537.036 647.998 537.605 648.285 538.076 648.678 538.447 649.177 538.819 649.671 539.05 650.231 539.139 650.857H537.431C537.337 650.372 537.076 649.977 536.648 649.671 536.219 649.36 535.732 649.205 535.187 649.205 534.716 649.205 534.288 649.32 533.902 649.551 533.516 649.781 533.208 650.09 532.977 650.475 532.747 650.861 532.632 651.29 532.632 651.76 532.632 652.231 532.747 652.659 532.977 653.045 533.208 653.43 533.516 653.739 533.902 653.969 534.288 654.2 534.716 654.315 535.187 654.315 535.732 654.315 536.193 654.162 536.57 653.856 536.951 653.546 537.191 653.148 537.29 652.663H538.998C538.908 653.289 538.69 653.852 538.341 654.35 537.993 654.844 537.546 655.235 537 655.522 536.459 655.809 535.855 655.952 535.187 655.952 534.415 655.952 533.711 655.764 533.076 655.388 532.441 655.011 531.935 654.506 531.559 653.87 531.182 653.235 530.994 652.532 530.994 651.76zM535.116 659.213C534.09 659.213 533.126 659.02 532.222 658.634 531.324 658.249 530.531 657.715 529.844 657.032 529.161 656.345 528.625 655.552 528.235 654.654 527.849 653.755 527.658 652.79 527.663 651.76S527.863 649.765 528.249 648.866C528.639 647.968 529.176 647.177 529.858 646.495 530.54 645.808 531.331 645.271 532.229 644.886 533.128 644.5 534.09 644.307 535.116 644.307 536.146 644.307 537.111 644.5 538.01 644.886 538.913 645.271 539.704 645.808 540.381 646.495 541.063 647.177 541.597 647.968 541.983 648.866 542.369 649.765 542.564 650.73 542.569 651.76S542.383 653.755 541.997 654.654C541.612 655.552 541.078 656.345 540.395 657.032 539.713 657.715 538.92 658.249 538.017 658.634 537.113 659.02 536.146 659.213 535.116 659.213zM535.116 657.576C535.921 657.576 536.676 657.425 537.382 657.124 538.087 656.823 538.706 656.406 539.238 655.875 539.769 655.343 540.186 654.727 540.487 654.026 540.788 653.32 540.936 652.567 540.932 651.767 540.927 650.962 540.774 650.207 540.473 649.502 540.172 648.796 539.755 648.177 539.224 647.645 538.692 647.114 538.076 646.697 537.374 646.396 536.673 646.095 535.921 645.944 535.116 645.944 534.316 645.944 533.566 646.095 532.864 646.396 532.163 646.697 531.547 647.116 531.015 647.652 530.484 648.184 530.065 648.803 529.759 649.509 529.458 650.21 529.305 650.962 529.3 651.767 529.296 652.562 529.444 653.313 529.745 654.019 530.046 654.72 530.462 655.336 530.994 655.868 531.531 656.399 532.149 656.818 532.85 657.124 533.556 657.425 534.311 657.576 535.116 657.576zM550.702 658.987V657.717L555.473 652.494C556.033 651.882 556.494 651.351 556.856 650.899 557.218 650.443 557.487 650.014 557.661 649.614 557.84 649.21 557.929 648.786 557.929 648.344 557.929 647.836 557.807 647.396 557.562 647.024 557.322 646.652 556.993 646.365 556.574 646.163 556.155 645.961 555.685 645.86 555.162 645.86 554.607 645.86 554.122 645.975 553.708 646.205 553.299 646.431 552.981 646.749 552.756 647.158 552.534 647.568 552.424 648.048 552.424 648.598H550.758C550.758 647.751 550.953 647.008 551.344 646.368 551.734 645.728 552.266 645.229 552.939 644.872 553.617 644.514 554.376 644.335 555.219 644.335 556.066 644.335 556.816 644.514 557.47 644.872 558.124 645.229 558.637 645.711 559.009 646.318 559.381 646.925 559.566 647.601 559.566 648.344 559.566 648.876 559.47 649.396 559.277 649.904 559.089 650.407 558.759 650.97 558.289 651.591 557.823 652.207 557.176 652.96 556.348 653.849L553.101 657.322V657.435H559.82V658.987H550.702zM567.152 659.185C566.089 659.185 565.183 658.896 564.435 658.317 563.686 657.733 563.115 656.889 562.72 655.783 562.324 654.673 562.127 653.332 562.127 651.76 562.127 650.198 562.324 648.864 562.72 647.758 563.119 646.648 563.694 645.801 564.442 645.217 565.195 644.629 566.098 644.335 567.152 644.335 568.206 644.335 569.107 644.629 569.855 645.217 570.608 645.801 571.182 646.648 571.577 647.758 571.977 648.864 572.177 650.198 572.177 651.76 572.177 653.332 571.979 654.673 571.584 655.783 571.189 656.889 570.617 657.733 569.869 658.317 569.121 658.896 568.215 659.185 567.152 659.185zm0-1.553C568.206 657.632 569.025 657.124 569.608 656.108 570.191 655.091 570.483 653.642 570.483 651.76 570.483 650.508 570.349 649.443 570.081 648.563 569.817 647.683 569.436 647.012 568.938 646.551 568.443 646.09 567.848 645.86 567.152 645.86 566.107 645.86 565.291 646.375 564.703 647.405 564.115 648.431 563.821 649.883 563.821 651.76 563.821 653.012 563.952 654.075 564.216 654.95 564.479 655.825 564.858 656.491 565.352 656.948 565.851 657.404 566.451 657.632 567.152 657.632zM574.561 658.987V657.717L579.332 652.494C579.892 651.882 580.353 651.351 580.715 650.899 581.078 650.443 581.346 650.014 581.52 649.614 581.699 649.21 581.788 648.786 581.788 648.344 581.788 647.836 581.666 647.396 581.421 647.024 581.181 646.652 580.852 646.365 580.433 646.163S579.544 645.86 579.022 645.86C578.466 645.86 577.982 645.975 577.568 646.205 577.158 646.431 576.841 646.749 576.615 647.158 576.394 647.568 576.283 648.048 576.283 648.598H574.617C574.617 647.751 574.813 647.008 575.203 646.368 575.594 645.728 576.125 645.229 576.798 644.872 577.476 644.514 578.236 644.335 579.078 644.335 579.925 644.335 580.675 644.514 581.329 644.872 581.984 645.229 582.496 645.711 582.868 646.318 583.24 646.925 583.426 647.601 583.426 648.344 583.426 648.876 583.329 649.396 583.136 649.904 582.948 650.407 582.619 650.97 582.148 651.591 581.682 652.207 581.035 652.96 580.207 653.849L576.961 657.322V657.435H583.68V658.987H574.561zm11.736.0V657.717L591.068 652.494C591.628 651.882 592.089 651.351 592.451 650.899 592.813 650.443 593.082 650.014 593.256 649.614 593.434 649.21 593.524 648.786 593.524 648.344 593.524 647.836 593.401 647.396 593.157 647.024 592.917 646.652 592.587 646.365 592.169 646.163 591.75 645.961 591.279 645.86 590.757 645.86 590.202 645.86 589.717 645.975 589.303 646.205 588.894 646.431 588.576 646.749 588.35 647.158 588.129 647.568 588.019 648.048 588.019 648.598H586.353C586.353 647.751 586.548 647.008 586.939 646.368 587.329 645.728 587.861 645.229 588.534 644.872 589.211 644.514 589.971 644.335 590.814 644.335 591.661 644.335 592.411 644.514 593.065 644.872 593.719 645.229 594.232 645.711 594.604 646.318 594.975 646.925 595.161 647.601 595.161 648.344 595.161 648.876 595.065 649.396 594.872 649.904 594.684 650.407 594.354 650.97 593.884 651.591 593.418 652.207 592.771 652.96 591.943 653.849L588.696 657.322V657.435H595.415V658.987H586.297zM602.787 646.085V644.533h10.841V646.085H609.083V658.987h-1.75V646.085H602.787zM618.779 659.213C617.734 659.213 616.833 658.983 616.076 658.521 615.323 658.056 614.742 657.406 614.332 656.574 613.928 655.736 613.725 654.762 613.725 653.652 613.725 652.541 613.928 651.562 614.332 650.715 614.742 649.864 615.311 649.2 616.04 648.725 616.774 648.245 617.631 648.005 618.61 648.005 619.174 648.005 619.732 648.099 620.282 648.288 620.833 648.476 621.334 648.782 621.786 649.205 622.237 649.624 622.597 650.179 622.865 650.871 623.134 651.562 623.268 652.414 623.268 653.426V654.131H614.911V652.692H621.574C621.574 652.08 621.451 651.534 621.207 651.054 620.967 650.574 620.623 650.196 620.176 649.918 619.734 649.64 619.212 649.502 618.61 649.502 617.946 649.502 617.372 649.666 616.887 649.996 616.407 650.32 616.038 650.744 615.779 651.266 615.521 651.788 615.391 652.348 615.391 652.946V653.906C615.391 654.724 615.532 655.418 615.815 655.988 616.102 656.552 616.499 656.983 617.007 657.279 617.516 657.571 618.106 657.717 618.779 657.717 619.216 657.717 619.612 657.656 619.965 657.533 620.322 657.406 620.63 657.218 620.889 656.969 621.148 656.715 621.348 656.399 621.489 656.023L623.098 656.475C622.929 657.021 622.644 657.5 622.244 657.915 621.844 658.324 621.35 658.644 620.762 658.874 620.174 659.1 619.513 659.213 618.779 659.213zM627.169 652.466V658.987H625.503V648.146H627.113V649.84H627.254C627.508 649.29 627.894 648.847 628.411 648.513 628.929 648.175 629.597 648.005 630.416 648.005 631.15 648.005 631.792 648.156 632.342 648.457 632.893 648.753 633.321 649.205 633.627 649.812 633.933 650.414 634.086 651.177 634.086 652.099V658.987H632.42V652.212C632.42 651.36 632.199 650.697 631.757 650.221 631.314 649.741 630.707 649.502 629.936 649.502 629.404 649.502 628.929 649.617 628.51 649.847 628.096 650.078 627.769 650.414 627.529 650.857 627.289 651.299 627.169 651.835 627.169 652.466zM641.235 659.213C640.219 659.213 639.344 658.973 638.61 658.493 637.876 658.013 637.311 657.352 636.916 656.51 636.521 655.668 636.323 654.706 636.323 653.623 636.323 652.522 636.526 651.551 636.93 650.708 637.34 649.861 637.909 649.2 638.638 648.725 639.372 648.245 640.229 648.005 641.207 648.005 641.969 648.005 642.656 648.146 643.268 648.429 643.88 648.711 644.381 649.106 644.771 649.614 645.162 650.123 645.404 650.715 645.498 651.393H643.833C643.706 650.899 643.423 650.461 642.986 650.08 642.553 649.694 641.969 649.502 641.235 649.502 640.586 649.502 640.017 649.671 639.527 650.01 639.043 650.344 638.664 650.817 638.391 651.428 638.123 652.035 637.989 652.748 637.989 653.567 637.989 654.404 638.121 655.134 638.384 655.755 638.652 656.376 639.029 656.858 639.513 657.202 640.003 657.545 640.577 657.717 641.235 657.717 641.668 657.717 642.061 657.642 642.414 657.491 642.767 657.34 643.066 657.124 643.31 656.842 643.555 656.559 643.729 656.221 643.833 655.825H645.498C645.404 656.465 645.171 657.042 644.8 657.555 644.433 658.063 643.946 658.467 643.339 658.769 642.736 659.065 642.035 659.213 641.235 659.213zm10.804.0C651.061 659.213 650.202 658.98 649.463 658.514 648.729 658.049 648.155 657.397 647.741 656.559 647.332 655.722 647.127 654.743 647.127 653.623 647.127 652.494 647.332 651.508 647.741 650.666 648.155 649.824 648.729 649.17 649.463 648.704 650.202 648.238 651.061 648.005 652.039 648.005 653.018 648.005 653.874 648.238 654.608 648.704 655.347 649.17 655.921 649.824 656.331 650.666 656.745 651.508 656.952 652.494 656.952 653.623 656.952 654.743 656.745 655.722 656.331 656.559 655.921 657.397 655.347 658.049 654.608 658.514 653.874 658.98 653.018 659.213 652.039 659.213zM652.039 657.717C652.783 657.717 653.394 657.526 653.874 657.145S654.71 656.263 654.94 655.642C655.171 655.021 655.286 654.348 655.286 653.623 655.286 652.899 655.171 652.223 654.94 651.598 654.71 650.972 654.354 650.466 653.874 650.08 653.394 649.694 652.783 649.502 652.039 649.502 651.296 649.502 650.684 649.694 650.204 650.08 649.724 650.466 649.369 650.972 649.139 651.598 648.908 652.223 648.793 652.899 648.793 653.623 648.793 654.348 648.908 655.021 649.139 655.642 649.369 656.263 649.724 656.764 650.204 657.145 650.684 657.526 651.296 657.717 652.039 657.717zM672.619 648.146C672.534 647.431 672.19 646.876 671.588 646.481 670.986 646.085 670.247 645.888 669.372 645.888 668.732 645.888 668.172 645.991 667.692 646.198 667.217 646.405 666.845 646.69 666.577 647.052 666.314 647.415 666.182 647.826 666.182 648.288 666.182 648.673 666.274 649.005 666.457 649.283 666.645 649.556 666.885 649.784 667.177 649.967 667.469 650.146 667.774 650.294 668.094 650.412 668.414 650.525 668.708 650.617 668.977 650.687L670.445 651.082C670.821 651.181 671.24 651.318 671.701 651.492 672.167 651.666 672.611 651.904 673.035 652.205 673.463 652.501 673.816 652.882 674.094 653.348 674.371 653.814 674.51 654.386 674.51 655.063 674.51 655.844 674.305 656.55 673.896 657.18 673.491 657.811 672.899 658.312 672.117 658.684 671.341 659.056 670.398 659.241 669.287 659.241 668.252 659.241 667.356 659.074 666.598 658.74 665.845 658.406 665.252 657.94 664.82 657.343 664.391 656.745 664.149 656.051 664.093 655.261H665.899C665.946 655.807 666.13 656.258 666.45 656.616 666.775 656.969 667.184 657.232 667.678 657.406 668.177 657.576 668.713 657.66 669.287 657.66 669.955 657.66 670.555 657.552 671.087 657.336 671.619 657.115 672.04 656.809 672.35 656.418 672.661 656.023 672.816 655.562 672.816 655.035 672.816 654.555 672.682 654.164 672.414 653.863 672.146 653.562 671.793 653.317 671.355 653.129 670.918 652.941 670.445 652.776 669.937 652.635L668.158 652.127C667.029 651.802 666.135 651.339 665.476 650.737 664.817 650.134 664.488 649.346 664.488 648.372 664.488 647.563 664.707 646.857 665.144 646.255 665.587 645.648 666.179 645.177 666.923 644.843 667.671 644.505 668.506 644.335 669.428 644.335 670.36 644.335 671.188 644.502 671.913 644.836 672.637 645.166 673.211 645.617 673.635 646.191 674.063 646.765 674.289 647.417 674.312 648.146H672.619zm8.649 11.067C680.289 659.213 679.431 658.98 678.692 658.514 677.958 658.049 677.384 657.397 676.97 656.559 676.56 655.722 676.356 654.743 676.356 653.623 676.356 652.494 676.56 651.508 676.97 650.666 677.384 649.824 677.958 649.17 678.692 648.704 679.431 648.238 680.289 648.005 681.268 648.005 682.247 648.005 683.103 648.238 683.837 648.704 684.576 649.17 685.15 649.824 685.559 650.666 685.973 651.508 686.18 652.494 686.18 653.623 686.18 654.743 685.973 655.722 685.559 656.559 685.15 657.397 684.576 658.049 683.837 658.514 683.103 658.98 682.247 659.213 681.268 659.213zM681.268 657.717C682.011 657.717 682.623 657.526 683.103 657.145 683.583 656.764 683.938 656.263 684.169 655.642 684.399 655.021 684.515 654.348 684.515 653.623 684.515 652.899 684.399 652.223 684.169 651.598 683.938 650.972 683.583 650.466 683.103 650.08 682.623 649.694 682.011 649.502 681.268 649.502 680.525 649.502 679.913 649.694 679.433 650.08 678.953 650.466 678.598 650.972 678.367 651.598 678.137 652.223 678.021 652.899 678.021 653.623 678.021 654.348 678.137 655.021 678.367 655.642 678.598 656.263 678.953 656.764 679.433 657.145S680.525 657.717 681.268 657.717zM693.252 648.146V649.558H687.408V648.146H693.252zM689.159 658.987V646.65C689.159 646.029 689.305 645.511 689.596 645.097 689.888 644.683 690.267 644.373 690.733 644.166 691.199 643.959 691.69 643.855 692.208 643.855 692.617 643.855 692.951 643.888 693.21 643.954 693.469 644.02 693.662 644.081 693.789 644.138L693.309 645.577C693.224 645.549 693.107 645.514 692.956 645.471 692.81 645.429 692.617 645.408 692.377 645.408 691.827 645.408 691.429 645.547 691.184 645.824 690.944 646.102 690.824 646.509 690.824 647.045v11.942H689.159zM700.003 648.146V649.558H694.385V648.146H700.003zM696.023 645.549H697.688v10.333C697.688 656.352 697.757 656.705 697.893 656.941 698.034 657.171 698.213 657.326 698.429 657.406 698.651 657.482 698.883 657.519 699.128 657.519 699.312 657.519 699.462 657.51 699.58 657.491 699.698 657.468 699.792 657.449 699.862 657.435L700.201 658.931C700.088 658.973 699.93 659.016 699.728 659.058 699.526 659.105 699.269 659.128 698.959 659.128 698.488 659.128 698.027 659.027 697.575 658.825 697.128 658.623 696.757 658.314 696.46 657.9 696.169 657.486 696.023 656.964 696.023 656.334V645.549zM704.667 658.987l-3.303-10.841h1.75L705.457 656.446H705.57L707.885 648.146h1.779L711.951 656.418H712.064L714.407 648.146h1.75l-3.303 10.841H711.217L708.845 650.659H708.676L706.304 658.987H704.667zM721.251 659.241C720.564 659.241 719.941 659.112 719.381 658.853 718.821 658.59 718.376 658.211 718.047 657.717 717.718 657.218 717.553 656.616 717.553 655.91 717.553 655.289 717.675 654.786 717.92 654.4 718.165 654.009 718.492 653.703 718.901 653.482S719.762 653.096 720.256 652.988C720.755 652.875 721.256 652.786 721.759 652.72 722.418 652.635 722.952 652.572 723.362 652.529 723.776 652.482 724.077 652.405 724.265 652.296 724.458 652.188 724.554 652 724.554 651.732V651.675C724.554 650.979 724.364 650.438 723.983 650.052 723.606 649.666 723.035 649.473 722.268 649.473 721.472 649.473 720.849 649.647 720.397 649.996 719.946 650.344 719.628 650.715 719.444 651.111L717.863 650.546C718.146 649.887 718.522 649.374 718.993 649.007 719.468 648.636 719.986 648.377 720.545 648.231 721.11 648.081 721.665 648.005 722.211 648.005 722.559 648.005 722.959 648.048 723.411 648.132 723.867 648.212 724.307 648.379 724.731 648.633 725.159 648.887 725.514 649.271 725.797 649.784 726.079 650.297 726.22 650.984 726.22 651.845V658.987H724.554V657.519H724.47C724.357 657.755 724.169 658.006 723.905 658.274 723.642 658.543 723.291 658.771 722.853 658.959 722.416 659.147 721.882 659.241 721.251 659.241zM721.505 657.745C722.164 657.745 722.719 657.616 723.171 657.357 723.627 657.098 723.971 656.764 724.201 656.355 724.437 655.945 724.554 655.515 724.554 655.063v-1.524C724.484 653.623 724.328 653.701 724.089 653.772 723.853 653.837 723.58 653.896 723.27 653.948 722.964 653.995 722.665 654.037 722.373 654.075 722.086 654.108 721.854 654.136 721.675 654.16 721.242 654.216 720.837 654.308 720.461 654.435 720.089 654.557 719.788 654.743 719.557 654.993 719.331 655.237 719.219 655.571 719.219 655.995 719.219 656.574 719.433 657.011 719.861 657.308 720.294 657.599 720.842 657.745 721.505 657.745zM728.962 658.987V648.146H730.571V649.784H730.684C730.882 649.247 731.239 648.812 731.757 648.478 732.275 648.144 732.858 647.977 733.507 647.977 733.63 647.977 733.783 647.979 733.966 647.984 734.15 647.989 734.288 647.996 734.383 648.005V649.699C734.326 649.685 734.197 649.664 733.994 649.636 733.797 649.603 733.587 649.586 733.366 649.586 732.839 649.586 732.369 649.697 731.955 649.918 731.545 650.134 731.221 650.436 730.981 650.821 730.745 651.202 730.628 651.638 730.628 652.127V658.987H728.962zM740.274 659.213C739.23 659.213 738.329 658.983 737.571 658.521 736.818 658.056 736.237 657.406 735.828 656.574 735.423 655.736 735.221 654.762 735.221 653.652 735.221 652.541 735.423 651.562 735.828 650.715 736.237 649.864 736.806 649.2 737.536 648.725 738.27 648.245 739.126 648.005 740.105 648.005 740.669 648.005 741.227 648.099 741.777 648.288 742.328 648.476 742.829 648.782 743.281 649.205 743.733 649.624 744.092 650.179 744.361 650.871 744.629 651.562 744.763 652.414 744.763 653.426V654.131H736.406V652.692H743.069C743.069 652.08 742.947 651.534 742.702 651.054 742.462 650.574 742.119 650.196 741.672 649.918 741.229 649.64 740.707 649.502 740.105 649.502 739.441 649.502 738.867 649.666 738.383 649.996 737.903 650.32 737.533 650.744 737.275 651.266 737.016 651.788 736.886 652.348 736.886 652.946V653.906C736.886 654.724 737.028 655.418 737.31 655.988 737.597 656.552 737.994 656.983 738.503 657.279 739.011 657.571 739.601 657.717 740.274 657.717 740.712 657.717 741.107 657.656 741.46 657.533 741.817 657.406 742.126 657.218 742.384 656.969 742.643 656.715 742.843 656.399 742.984 656.023L744.594 656.475C744.424 657.021 744.14 657.5 743.74 657.915 743.34 658.324 742.846 658.644 742.257 658.874 741.669 659.1 741.008 659.213 740.274 659.213z" fill="#fff"/><path d="M461.976 423.034C460.513 423.034 459.252 422.504 458.192 421.444 457.168 420.384 456.656 419.123 456.656 417.66 456.656 416.198 457.168 414.955 458.192 413.931 459.252 412.871 460.513 412.341 461.976 412.341 463.475 412.341 464.736 412.871 465.759 413.931 466.82 414.955 467.35 416.198 467.35 417.66 467.35 419.123 466.82 420.384 465.759 421.444 464.736 422.504 463.475 423.034 461.976 423.034zM418.708 420.841C422.071 419.671 425.489 418.684 428.963 417.88 432.436 417.039 435.854 416.399 439.217 415.96 442.581 415.521 445.725 415.302 448.65 415.302 449.747 415.302 450.862 415.339 451.995 415.412 453.128 415.485 454.225 415.613 455.285 415.796 455.212 416.088 455.139 416.399 455.066 416.728 455.029 417.02 455.011 417.331 455.011 417.66 455.011 418.94 455.322 420.11 455.943 421.17 456.565 422.23 457.406 423.089 458.466 423.747 459.526 424.369 460.696 424.68 461.976 424.68 462.963 424.68 463.84 424.497 464.608 424.131 464.644 424.387 464.663 424.661 464.663 424.954 464.699 425.21 464.718 425.484 464.718 425.776 464.718 427.531 464.315 429.761 463.511 432.467 462.743 435.172 461.427 438.152 459.563 441.405 457.735 444.659 455.267 448.023 452.159 451.496 449.052 454.969 445.177 458.351 440.534 461.641L432.637 454.786C436.329 452.519 439.565 450.088 442.343 447.493 445.122 444.897 447.443 442.338 449.308 439.815 451.172 437.293 452.562 435.008 453.476 432.96 454.426 430.876 454.901 429.231 454.901 428.025 454.901 426.599 454.353 425.667 453.256 425.228 452.196 424.753 450.843 424.515 449.198 424.515 445.762 424.515 441.74 424.954 437.134 425.831 432.527 426.672 427.464 428.061 421.943 429.999L418.708 420.841zM461.976 419.415C462.487 419.415 462.908 419.25 463.237 418.921 463.566 418.556 463.73 418.135 463.73 417.66 463.73 417.185 463.566 416.783 463.237 416.454 462.908 416.088 462.487 415.905 461.976 415.905 461.5 415.905 461.098 416.088 460.769 416.454 460.44 416.783 460.276 417.185 460.276 417.66 460.276 418.135 460.44 418.556 460.769 418.921 461.098 419.25 461.5 419.415 461.976 419.415zm10.279 39.758C471.853 457.199 471.488 454.914 471.159 452.318 470.83 449.686 470.555 446.889 470.336 443.928S469.952 437.969 469.842 434.934C469.733 431.9 469.678 428.994 469.678 426.215 469.678 424.643 469.696 423.144 469.733 421.718 469.769 420.256 469.824 418.903 469.897 417.66L479.165 417.496C479.092 418.3 479.019 419.159 478.946 420.073 481.249 419.159 483.973 418.355 487.117 417.66 490.261 416.966 493.862 416.618 497.92 416.618 502.636 416.618 506.201 417.697 508.614 419.854 511.063 421.974 512.288 424.99 512.288 428.902 512.288 431.498 511.867 434.532 511.026 438.005 510.222 441.479 509.199 444.933 507.955 448.37 508.979 448.553 509.93 448.736 510.807 448.918L509.436 457.857C506.987 457.199 504.373 456.742 501.594 456.486 498.852 456.194 496.11 456.047 493.368 456.047 491.211 456.047 489.109 456.121 487.062 456.267 485.015 456.413 483.095 456.596 481.304 456.815 481.377 457.144 481.45 457.473 481.523 457.802L472.255 459.173zm22.923-33.342C492.729 425.831 490.005 426.252 487.007 427.092 484.046 427.933 481.249 428.994 478.617 430.273 478.653 433.161 478.763 436.159 478.946 439.267 479.165 442.374 479.458 445.372 479.823 448.26 481.944 447.931 484.155 447.694 486.459 447.547 488.762 447.365 491.047 447.273 493.313 447.273 495.068 447.273 496.841 447.328 498.633 447.438 500.022 443.599 501.027 440.272 501.649 437.457 502.307 434.642 502.636 432.595 502.636 431.315 502.636 429.341 501.923 427.933 500.497 427.092 499.108 426.252 497.335 425.831 495.178 425.831zM559.345 419.744C558.98 419.452 558.449 418.976 557.755 418.318 557.097 417.624 556.457 416.892 555.835 416.125 555.214 415.32 554.757 414.644 554.464 414.096L557.755 411.573C558.267 412.341 558.943 413.2 559.784 414.15 560.625 415.101 561.466 415.887 562.306 416.509L559.345 419.744zM552.49 421.115C552.161 420.786 551.704 420.201 551.119 419.36 550.534 418.519 549.968 417.642 549.419 416.728 548.907 415.777 548.56 414.991 548.377 414.37L552.161 412.615C552.49 413.456 552.984 414.425 553.642 415.521 554.337 416.618 555.049 417.55 555.781 418.318L552.49 421.115zM534.777 429.725C533.169 428.226 531.085 426.745 528.526 425.283 526.003 423.82 523.371 422.486 520.629 421.28L523.645 413.273C525.583 413.968 527.52 414.827 529.458 415.85 531.432 416.838 533.278 417.88 534.997 418.976 536.715 420.073 538.122 421.115 539.219 422.102L534.777 429.725zM528.91 441.351C527.667 440.656 526.168 439.961 524.413 439.267 522.694 438.572 520.958 437.951 519.203 437.402 517.448 436.854 515.913 436.452 514.597 436.196L517.174 427.751C518.746 428.08 520.428 428.537 522.219 429.122 524.011 429.67 525.784 430.291 527.539 430.986 529.293 431.681 530.902 432.394 532.364 433.125L528.91 441.351zM561.648 438.28C560.076 440.693 558.194 443.032 556 445.299 553.843 447.529 551.503 449.613 548.981 451.551 546.495 453.488 543.935 455.188 541.303 456.651 538.707 458.076 536.167 459.192 533.681 459.996 531.194 460.8 528.891 461.202 526.771 461.202 523.883 461.202 521.36 460.307 519.203 458.515 517.083 456.724 515.584 453.726 514.706 449.522L522.439 445.957C522.95 448.151 523.663 449.723 524.577 450.673 525.491 451.624 526.698 452.099 528.197 452.099 529.147 452.099 530.445 451.807 532.09 451.222 533.772 450.6 535.636 449.704 537.684 448.534 539.731 447.365 541.833 445.921 543.99 444.202 546.147 442.484 548.231 440.51 550.242 438.28 552.253 436.049 554.044 433.6 555.616 430.931L561.648 438.28zM564.603 457.199 565.316 449.028C569.008 450.015 573.724 450.545 579.464 450.618 579.355 448.644 579.3 446.487 579.3 444.147 579.3 442.283 579.336 440.455 579.409 438.663 579.482 436.872 579.592 435.3 579.738 433.947 577.581 434.167 575.534 434.423 573.596 434.715 571.695 434.971 570.068 435.263 568.716 435.593L567.564 427.531C569.319 427.056 571.421 426.672 573.871 426.38 576.357 426.051 578.952 425.813 581.658 425.667 584.4 425.484 587.014 425.392 589.5 425.392 591.51 425.392 593.393 425.447 595.148 425.557 596.94 425.667 598.42 425.831 599.59 426.051L599.151 434.112C596.738 433.71 593.704 433.509 590.048 433.509 589.353 433.509 588.641 433.509 587.909 433.509 587.763 434.788 587.635 436.269 587.526 437.951 587.452 439.596 587.416 441.332 587.416 443.16 587.416 444.367 587.434 445.591 587.471 446.834 587.507 448.041 587.58 449.229 587.69 450.399 590.798 450.18 593.704 449.832 596.409 449.357 599.115 448.882 601.382 448.297 603.209 447.602L604.087 455.993C600.833 456.907 597.287 457.583 593.448 458.022 589.646 458.497 585.734 458.735 581.713 458.735 578.642 458.735 575.662 458.588 572.774 458.296 569.886 458.04 567.162 457.674 564.603 457.199zm50.532-14.313L606.415 440.473C607.366 434.624 608.7 429.396 610.419 424.789 612.137 420.146 614.294 415.905 616.89 412.067L625.719 414.699C624.732 416.125 623.818 417.587 622.977 419.086 625.317 418.282 627.62 417.642 629.886 417.167 632.153 416.655 634.402 416.399 636.632 416.399 638.935 416.399 641.092 416.801 643.103 417.605 645.113 418.373 646.74 419.543 647.983 421.115 649.226 422.651 649.848 424.606 649.848 426.983 649.848 428.335 649.501 430.291 648.806 432.851 648.111 435.373 647.015 438.28 645.516 441.57 644.053 444.824 642.134 448.26 639.757 451.88 637.418 455.499 634.584 459.045 631.257 462.518L622.428 457.967C625.024 455.481 627.309 452.94 629.283 450.344 631.257 447.712 632.939 445.171 634.328 442.722 635.718 440.236 636.851 437.969 637.728 435.922 638.606 433.838 639.246 432.083 639.648 430.657 640.05 429.231 640.251 428.281 640.251 427.805 640.251 426.965 640.032 426.361 639.593 425.996 639.191 425.594 638.642 425.338 637.948 425.228 637.29 425.118 636.577 425.063 635.809 425.063 634.347 425.063 632.61 425.228 630.599 425.557 628.625 425.886 626.56 426.398 624.403 427.092 622.282 427.751 620.271 428.591 618.37 429.615 617.712 431.626 617.109 433.728 616.561 435.922 616.012 438.115 615.537 440.437 615.135 442.886zm37.88 18.426C652.722 459.374 652.503 457.181 652.357 454.731 652.21 452.282 652.137 449.778 652.137 447.218 652.137 444.257 652.21 441.204 652.357 438.06 652.503 434.916 652.686 431.827 652.905 428.792 653.161 425.721 653.454 422.815 653.783 420.073 654.112 417.331 654.441 414.9 654.77 412.779L664.092 413.712C663.69 415.54 663.288 417.733 662.886 420.292 662.52 422.852 662.209 425.612 661.954 428.573 665.244 429.56 668.534 430.785 671.825 432.247 675.115 433.673 678.241 435.263 681.202 437.018 684.163 438.737 686.796 440.528 689.099 442.393L683.999 450.18C681.988 448.388 679.685 446.688 677.089 445.08 674.53 443.434 671.879 441.936 669.137 440.583 666.432 439.23 663.855 438.079 661.405 437.128 661.332 438.993 661.295 440.839 661.295 442.667 661.295 445.921 661.387 449.101 661.57 452.209 661.752 455.28 662.045 458.223 662.447 461.038L653.015 461.312zM708.572 455.554 703.363 447.876C706.726 446.816 710.035 445.573 713.288 444.147 716.579 442.685 719.65 441.168 722.501 439.596 725.39 438.024 727.912 436.506 730.069 435.044 732.263 433.582 733.981 432.284 735.224 431.151 736.467 430.017 737.088 429.176 737.088 428.628 737.088 427.933 736.193 427.586 734.401 427.586 733.341 427.586 731.842 427.751 729.905 428.08 727.967 428.372 725.792 428.774 723.379 429.286 721.002 429.761 718.553 430.31 716.03 430.931 713.544 431.553 711.168 432.192 708.901 432.851L706.927 424.296C709.377 423.638 711.735 423.053 714.001 422.541 716.268 421.992 718.443 421.517 720.527 421.115 719.979 419.762 719.485 418.373 719.046 416.947 718.608 415.521 718.26 413.968 718.005 412.286L726.669 410.202C726.852 411.701 727.181 413.291 727.656 414.973 728.168 416.655 728.753 418.245 729.411 419.744 731.751 419.488 733.944 419.36 735.992 419.36 737.344 419.36 738.697 419.433 740.05 419.58 741.439 419.726 742.7 420.037 743.834 420.512 745.004 420.951 745.936 421.627 746.63 422.541 747.362 423.455 747.727 424.68 747.727 426.215 747.727 428.372 746.813 430.602 744.985 432.905 743.194 435.172 740.854 437.42 737.966 439.651 739.977 440.967 742.243 442.265 744.766 443.544 747.325 444.787 749.957 445.756 752.663 446.451L748.659 454.512C743.029 452.574 738.149 450.143 734.017 447.218 733.981 448.169 733.963 449.101 733.963 450.015 733.963 451.88 734.054 453.762 734.237 455.664 734.456 457.528 734.804 459.411 735.279 461.312L726.121 461.97C725.755 460.288 725.481 458.406 725.298 456.322S725.024 452.136 725.024 450.015C725.024 449.247 725.042 448.534 725.079 447.876 722.264 449.375 719.43 450.783 716.579 452.099 713.764 453.379 711.095 454.53 708.572 455.554zM760.953 458.351 755.195 451.002C756.767 449.869 758.503 448.461 760.404 446.78 762.342 445.098 764.316 443.307 766.327 441.405 768.338 439.468 770.257 437.53 772.085 435.593 773.913 433.618 775.503 431.809 776.856 430.163 773.091 430.383 769.471 430.748 765.998 431.26 762.525 431.772 759.582 432.412 757.169 433.18L754.975 424.789C757.425 424.058 760.167 423.473 763.201 423.034 766.272 422.559 769.471 422.212 772.798 421.992 776.125 421.737 779.434 421.59 782.724 421.554 782.651 420.201 782.559 418.867 782.45 417.55 782.34 416.198 782.23 414.882 782.121 413.602L790.785 413.109C790.968 414.315 791.114 415.649 791.224 417.112 791.37 418.538 791.48 420.055 791.553 421.663 795.172 421.81 798.39 422.066 801.205 422.431L799.943 431.096C798.81 430.84 797.567 430.639 796.214 430.492 794.898 430.31 793.491 430.182 791.992 430.109 792.065 432.777 792.12 435.501 792.156 438.28 792.193 441.022 792.211 443.69 792.211 446.286S792.193 451.35 792.156 453.689C792.156 455.993 792.12 458.022 792.047 459.776L782.779 459.831C782.925 457.236 783.035 454.347 783.108 451.167 783.217 447.95 783.272 444.586 783.272 441.076 783.272 439.358 783.254 437.64 783.217 435.922 781.682 437.896 779.964 439.943 778.063 442.063 776.162 444.147 774.206 446.195 772.195 448.205 770.184 450.216 768.21 452.099 766.272 453.854 764.335 455.572 762.561 457.071 760.953 458.351zm57.774-25.007C816.936 430.968 814.889 428.792 812.585 426.818 810.319 424.844 807.997 423.181 805.621 421.828L811.927 415.138C814.194 416.49 816.516 418.117 818.892 420.018 821.268 421.919 823.462 424.168 825.473 426.763L818.727 433.344zM829.037 456.925C826.368 458.314 824.047 459.228 822.073 459.667 820.098 460.106 818.435 460.325 817.082 460.325 809.953 460.325 805.42 456.468 803.482 448.754L811.763 445.025C812.275 447.109 813.006 448.626 813.956 449.576 814.907 450.527 816.095 451.002 817.521 451.002 818.106 451.002 819.093 450.819 820.482 450.454 821.872 450.088 823.517 449.448 825.418 448.534 827.355 447.584 829.421 446.268 831.615 444.586 833.808 442.904 836.002 440.766 838.195 438.17 840.389 435.574 842.436 432.412 844.337 428.683L851.302 435.099V435.154C850.424 436.909 849.218 438.791 847.682 440.802 846.183 442.813 844.447 444.824 842.473 446.834 840.535 448.809 838.415 450.673 836.111 452.428 833.845 454.146 831.487 455.645 829.037 456.925z" fill="#edefed"/><line x1="883.131" y1="433.356" x2="1102.49" y2="433.356" stroke="#edefed" stroke-width="6.00003"/><line x1="172.969" y1="433.356" x2="392.324" y2="433.356" stroke="#edefed" stroke-width="6.00003"/><path d="M165.443 384l26.085-122.82H243.35L258.552 265.671l10.71 13.129 1.036 18.138-7.428 17.274-11.573 12.61L233.159 334.941H195.155L184.791 384H165.443zm33.685-67.542h32.821L241.623 312.139 247.151 306.093 251.642 297.11 251.124 288.473 246.114 282.427 237.65 279.663H206.902l-7.774 36.795zM259.295 384l19.348-91.035h19.174L296.435 299.529 298.853 297.456 311.291 291.583h12.265L334.093 294.519 325.801 312.312 317.51 309.893H311.636L302.999 313.694 295.399 320.431 290.389 327.859 278.47 384H259.295zM345.972 385.382l-14.856-8.464L324.033 362.925v-14.51L327.661 328.377 334.052 313.175l12.092-12.955 19.002-8.637h18.311l15.547 8.637 7.255 13.992v14.165L401.94 348.76 396.24 363.616l-12.092 13.647L364.628 385.382H345.972zm7.255-18.138h11.401L374.647 362.753 379.657 356.879 384.148 346.342 387.43 330.45V320.431L384.666 314.212 377.065 309.893H365.146L356.164 314.212 350.463 320.258 346.144 330.45 342.862 345.997 342.344 357.052 345.453 362.753 353.227 367.244zM424.263 278.8 429.618 253.752h25.048L449.311 278.8H424.263zM386.605 411.984 375.895 409.22 384.014 391.428 391.615 393.501H395.415L400.598 391.946 404.743 386.937l20.039-93.972h19.174L422.709 393.328l-11.056 13.129L395.243 411.984H386.605zm84.374-26.602L455.778 376.054 447.486 360.852 445.932 348.588 449.387 328.722 455.778 315.421l14.338-15.201 20.038-8.637h16.238L521.593 300.565 529.539 315.767 531.958 327.686 527.466 348.415H464.761L465.106 352.906 470.116 362.753 478.407 367.071h8.81L497.582 364.307 509.156 357.916 516.929 372.772l-15.201 8.81L485.49 385.382H470.979zM468.561 330.104h44.222L512.092 324.577 507.083 314.73 499.309 309.893H489.981L480.48 314.385 470.979 324.404 468.561 330.104zM560.671 385.382 545.297 376.227 537.005 361.198 535.623 348.588 539.769 328.031 546.333 314.73l14.683-15.201L580.191 291.583h14.855L607.657 296.592 618.194 309.202 602.302 321.467 594.874 311.966 589.519 309.893H579.672L570.344 314.385 560.843 324.404 557.907 330.968 554.625 346.342 554.97 352.561 560.325 362.753 568.099 367.071H576.736L583.3 364.998 595.392 355.497 605.929 368.626l-15.201 12.265L575.181 385.382h-14.51zm77.569.0L626.666 380.2 618.893 366.553l11.228-53.032H614.574L618.548 295.21H634.094L640.831 263.426h19.175L653.269 295.21h22.629L671.925 313.521H649.296l-10.019 47.331L641.522 364.998 645.668 367.071H649.296L663.461 363.444 664.843 381.409 646.877 385.382H638.24zM713.767 384 739.851 261.18h15.374l42.495 90.344 19.174-90.344h19.52L810.33 384H791.501l-39.904-86.026L733.287 384h-19.52zM861.337 385.382 846.136 376.054 837.844 360.852 836.29 348.588 839.745 328.722 846.136 315.421 860.474 300.22 880.512 291.583H896.75L911.951 300.565 919.897 315.767 922.316 327.686 917.824 348.415H855.119L855.464 352.906 860.474 362.753 868.765 367.071H877.575L887.94 364.307 899.514 357.916 907.287 372.772l-15.201 8.81L875.848 385.382H861.337zM858.919 330.104h44.222L902.45 324.577 897.441 314.73 889.667 309.893H880.339L870.838 314.385 861.337 324.404 858.919 330.104zm89.864 55.278-14.856-8.464L926.845 362.925v-14.51L930.472 328.377 936.864 313.175l12.092-12.955 19.002-8.637H986.268l15.552 8.637 7.25 13.992v14.165L1004.75 348.76 999.051 363.616 986.959 377.263 967.439 385.382H948.783zm7.255-18.138h11.401L977.458 362.753 982.468 356.879 986.959 346.342 990.241 330.45V320.431L987.477 314.212 979.877 309.893H967.958L958.975 314.212 953.274 320.258 948.956 330.45 945.674 345.997 945.155 357.052 948.265 362.753 956.038 367.244zM1010.73 384 1030.08 292.965H1049.25L1048.04 298.492 1061.52 291.583h15.2L1091.23 296.592 1099.69 311.275 1084.32 384H1065.15L1079.31 317.321 1077.06 312.657 1069.64 309.893H1060.48L1048.22 316.976 1042.86 322.849 1029.91 384H1010.73z" fill="#edefed"/></g><defs><clipPath id="clip0_2497_73"><rect width="1272" height="715.5" rx="8.63739" fill="#fff"/></clipPath></defs></svg>