<svg width="2209" height="1244" viewBox="0 0 2209 1244" fill="none" xmlns="http://www.w3.org/2000/svg"><g clip-path="url(#clip0_2408_1691)"><rect y=".71875" width="2209" height="1242.56" rx="15" fill="#00754b"/><circle cx="1158.57" cy="619.124" r="1029.14" fill="#f6ca5a"/><ellipse cx="1726.93" cy="619.124" rx="1027.99" ry="1029.14" fill="#ea873f"/><ellipse cx="2296.44" cy="622.575" rx="1027.99" ry="1032.59" fill="#de4e36"/><circle cx="2867.1" cy="619.124" r="1029.14" fill="#0d85b9"/><path d="M922.143 1132.12C922.143 1130.78 922.469 1129.56 923.123 1128.45 923.777 1127.35 924.655 1126.47 925.758 1125.82 926.862 1125.17 928.083 1124.84 929.423 1124.84 930.584 1124.84 931.654 1125.09 932.635 1125.59 933.623 1126.08 934.44 1126.77 935.086 1127.63 935.731 1128.49 936.132 1129.46 936.287 1130.55H933.321C933.158 1129.71 932.704 1129.02 931.96 1128.49 931.217 1127.95 930.371 1127.68 929.423 1127.68 928.606 1127.68 927.862 1127.88 927.192 1128.28 926.522 1128.68 925.987 1129.22 925.587 1129.89 925.186 1130.56 924.986 1131.3 924.986 1132.12 924.986 1132.94 925.186 1133.68 925.587 1134.35 925.987 1135.02 926.522 1135.56 927.192 1135.96 927.862 1136.36 928.606 1136.56 929.423 1136.56 930.371 1136.56 931.172 1136.29 931.826 1135.76 932.487 1135.22 932.904 1134.53 933.076 1133.69H936.042C935.887 1134.77 935.507 1135.75 934.902 1136.62 934.297 1137.48 933.521 1138.15 932.573 1138.65 931.634 1139.15 930.584 1139.4 929.423 1139.4 928.083 1139.4 926.862 1139.07 925.758 1138.42 924.655 1137.77 923.777 1136.89 923.123 1135.78 922.469 1134.68 922.143 1133.46 922.143 1132.12zM929.301 1145.06C927.519 1145.06 925.844 1144.73 924.275 1144.06 922.715 1143.39 921.338 1142.46 920.145 1141.28 918.96 1140.08 918.028 1138.71 917.35 1137.14 916.68 1135.58 916.349 1133.91 916.357 1132.12 916.365 1130.33 916.705 1128.65 917.375 1127.09 918.053 1125.53 918.984 1124.16 920.169 1122.98 921.354 1121.78 922.727 1120.85 924.288 1120.18 925.848 1119.51 927.519 1119.18 929.301 1119.18 931.09 1119.18 932.765 1119.51 934.326 1120.18 935.895 1120.85 937.268 1121.78 938.444 1122.98 939.629 1124.16 940.557 1125.53 941.227 1127.09 941.897 1128.65 942.236 1130.33 942.244 1132.12 942.252 1133.91 941.921 1135.58 941.251 1137.14 940.581 1138.71 939.654 1140.08 938.469 1141.28 937.284 1142.46 935.907 1143.39 934.338 1144.06 932.769 1144.73 931.09 1145.06 929.301 1145.06zM929.301 1142.22C930.698 1142.22 932.009 1141.96 933.235 1141.43 934.461 1140.91 935.535 1140.19 936.459 1139.27 937.382 1138.34 938.105 1137.27 938.628 1136.05 939.151 1134.83 939.409 1133.52 939.4 1132.13 939.392 1130.73 939.127 1129.42 938.604 1128.2 938.081 1126.97 937.358 1125.9 936.434 1124.97 935.511 1124.05 934.44 1123.33 933.223 1122.8 932.005 1122.28 930.698 1122.02 929.301 1122.02 927.912 1122.02 926.608 1122.28 925.391 1122.8 924.173 1123.33 923.103 1124.05 922.179 1124.99 921.256 1125.91 920.529 1126.98 919.998 1128.21 919.475 1129.43 919.209 1130.73 919.201 1132.13 919.193 1133.51 919.45 1134.82 919.973 1136.04 920.496 1137.26 921.219 1138.33 922.143 1139.25 923.074 1140.18 924.149 1140.9 925.366 1141.43 926.592 1141.96 927.903 1142.22 929.301 1142.22zM956.367 1144.67V1142.46L964.653 1133.39C965.625 1132.33 966.426 1131.41 967.055 1130.62 967.685 1129.83 968.15 1129.09 968.453 1128.39 968.763 1127.69 968.918 1126.96 968.918 1126.19 968.918 1125.3 968.706 1124.54 968.281 1123.89 967.864 1123.25 967.292 1122.75 966.565 1122.4 965.838 1122.05 965.021 1121.87 964.114 1121.87 963.15 1121.87 962.308 1122.07 961.589 1122.47 960.878 1122.87 960.326 1123.42 959.934 1124.13 959.55 1124.84 959.358 1125.67 959.358 1126.63H956.465C956.465 1125.16 956.805 1123.87 957.483 1122.75 958.161 1121.64 959.084 1120.78 960.253 1120.16 961.429 1119.54 962.749 1119.22 964.212 1119.22 965.683 1119.22 966.986 1119.54 968.122 1120.16 969.258 1120.78 970.148 1121.62 970.794 1122.67 971.439 1123.72 971.762 1124.9 971.762 1126.19 971.762 1127.11 971.595 1128.01 971.26 1128.9 970.933 1129.77 970.361 1130.75 969.544 1131.83 968.735 1132.9 967.611 1134.2 966.173 1135.75L960.535 1141.78V1141.97h11.668V1144.67H956.367zM984.935 1145.01C983.089 1145.01 981.516 1144.51 980.216 1143.51 978.917 1142.49 977.924 1141.03 977.238 1139.11 976.552 1137.18 976.208 1134.85 976.208 1132.12 976.208 1129.41 976.552 1127.09 977.238 1125.17 977.933 1123.24 978.929 1121.77 980.229 1120.76 981.536 1119.74 983.105 1119.22 984.935 1119.22 986.766 1119.22 988.331 1119.74 989.63 1120.76 990.937 1121.77 991.934 1123.24 992.621 1125.17 993.315 1127.09 993.662 1129.41 993.662 1132.12 993.662 1134.85 993.319 1137.18 992.633 1139.11 991.946 1141.03 990.954 1142.49 989.654 1143.51 988.355 1144.51 986.782 1145.01 984.935 1145.01zM984.935 1142.32C986.766 1142.32 988.188 1141.43 989.201 1139.67 990.214 1137.9 990.721 1135.39 990.721 1132.12 990.721 1129.95 990.488 1128.09 990.022 1126.57 989.564 1125.04 988.903 1123.87 988.036 1123.07 987.178 1122.27 986.145 1121.87 984.935 1121.87 983.121 1121.87 981.704 1122.77 980.682 1124.56 979.661 1126.34 979.15 1128.86 979.15 1132.12 979.15 1134.29 979.379 1136.14 979.836 1137.66 980.294 1139.18 980.952 1140.34 981.81 1141.13 982.676 1141.92 983.718 1142.32 984.935 1142.32zM997.802 1144.67V1142.46L1006.09 1133.39C1007.06 1132.33 1007.86 1131.41 1008.49 1130.62 1009.12 1129.83 1009.59 1129.09 1009.89 1128.39 1010.2 1127.69 1010.35 1126.96 1010.35 1126.19 1010.35 1125.3 1010.14 1124.54 1009.72 1123.89 1009.3 1123.25 1008.73 1122.75 1008 1122.4 1007.27 1122.05 1006.46 1121.87 1005.55 1121.87 1004.58 1121.87 1003.74 1122.07 1003.02 1122.47 1002.31 1122.87 1001.76 1123.42 1001.37 1124.13 1000.99 1124.84 1000.79 1125.67 1000.79 1126.63H997.9C997.9 1125.16 998.239 1123.87 998.918 1122.75 999.596 1121.64 1000.52 1120.78 1001.69 1120.16 1002.86 1119.54 1004.18 1119.22 1005.65 1119.22S1008.42 1119.54 1009.56 1120.16C1010.69 1120.78 1011.58 1121.62 1012.23 1122.67 1012.87 1123.72 1013.2 1124.9 1013.2 1126.19 1013.2 1127.11 1013.03 1128.01 1012.69 1128.9 1012.37 1129.77 1011.8 1130.75 1010.98 1131.83 1010.17 1132.9 1009.05 1134.2 1007.61 1135.75L1001.97 1141.78V1141.97h11.67V1144.67H997.802zM1018.18 1144.67V1142.46L1026.47 1133.39C1027.44 1132.33 1028.24 1131.41 1028.87 1130.62 1029.5 1129.83 1029.97 1129.09 1030.27 1128.39 1030.58 1127.69 1030.73 1126.96 1030.73 1126.19 1030.73 1125.3 1030.52 1124.54 1030.1 1123.89 1029.68 1123.25 1029.11 1122.75 1028.38 1122.4 1027.65 1122.05 1026.84 1121.87 1025.93 1121.87 1024.96 1121.87 1024.12 1122.07 1023.4 1122.47 1022.69 1122.87 1022.14 1123.42 1021.75 1124.13 1021.37 1124.84 1021.17 1125.67 1021.17 1126.63H1018.28C1018.28 1125.16 1018.62 1123.87 1019.3 1122.75 1019.98 1121.64 1020.9 1120.78 1022.07 1120.16 1023.24 1119.54 1024.56 1119.22 1026.03 1119.22S1028.8 1119.54 1029.94 1120.16C1031.07 1120.78 1031.96 1121.62 1032.61 1122.67 1033.25 1123.72 1033.58 1124.9 1033.58 1126.19 1033.58 1127.11 1033.41 1128.01 1033.07 1128.9 1032.75 1129.77 1032.18 1130.75 1031.36 1131.83 1030.55 1132.9 1029.43 1134.2 1027.99 1135.75L1022.35 1141.78V1141.97h11.67V1144.67h-15.84zM1046.82 1122.26V1119.57H1065.65V1122.26H1057.75V1144.67H1054.71V1122.26H1046.82zm27.77 22.8C1072.78 1145.06 1071.21 1144.66 1069.9 1143.86 1068.59 1143.05 1067.58 1141.92 1066.87 1140.48 1066.17 1139.02 1065.82 1137.33 1065.82 1135.4 1065.82 1133.48 1066.17 1131.78 1066.87 1130.31 1067.58 1128.83 1068.57 1127.67 1069.84 1126.85 1071.11 1126.02 1072.6 1125.6 1074.3 1125.6 1075.28 1125.6 1076.25 1125.76 1077.2 1126.09 1078.16 1126.42 1079.03 1126.95 1079.81 1127.68 1080.6 1128.41 1081.22 1129.37 1081.69 1130.57 1082.16 1131.78 1082.39 1133.26 1082.39 1135.01V1136.24h-14.51v-2.5H1079.45C1079.45 1132.67 1079.23 1131.73 1078.81 1130.89 1078.39 1130.06 1077.8 1129.4 1077.02 1128.92 1076.25 1128.44 1075.34 1128.2 1074.3 1128.2 1073.15 1128.2 1072.15 1128.48 1071.31 1129.06 1070.47 1129.62 1069.83 1130.35 1069.38 1131.26 1068.93 1132.17 1068.71 1133.14 1068.71 1134.18V1135.85C1068.71 1137.27 1068.95 1138.47 1069.44 1139.46 1069.94 1140.44 1070.63 1141.19 1071.52 1141.7 1072.4 1142.21 1073.42 1142.46 1074.59 1142.46 1075.35 1142.46 1076.04 1142.36 1076.65 1142.15 1077.27 1141.92 1077.81 1141.6 1078.26 1141.16 1078.71 1140.72 1079.05 1140.18 1079.3 1139.52L1082.09 1140.31C1081.8 1141.25 1081.31 1142.09 1080.61 1142.81 1079.92 1143.52 1079.06 1144.07 1078.04 1144.47 1077.02 1144.87 1075.87 1145.06 1074.59 1145.06zM1089.16 1133.34V1144.67H1086.27V1125.84H1089.07V1128.79H1089.31C1089.75 1127.83 1090.42 1127.06 1091.32 1126.48 1092.22 1125.89 1093.38 1125.6 1094.8 1125.6 1096.08 1125.6 1097.19 1125.86 1098.15 1126.38 1099.1 1126.9 1099.85 1127.68 1100.38 1128.74 1100.91 1129.78 1101.18 1131.11 1101.18 1132.71v11.96H1098.28V1132.9C1098.28 1131.42 1097.9 1130.27 1097.13 1129.45 1096.36 1128.61 1095.31 1128.2 1093.97 1128.2 1093.04 1128.2 1092.22 1128.4 1091.49 1128.8 1090.77 1129.2 1090.21 1129.78 1089.79 1130.55S1089.16 1132.25 1089.16 1133.34zM1113.59 1145.06C1111.83 1145.06 1110.31 1144.65 1109.03 1143.81 1107.76 1142.98 1106.78 1141.83 1106.09 1140.37 1105.4 1138.91 1105.06 1137.23 1105.06 1135.36 1105.06 1133.44 1105.41 1131.76 1106.11 1130.29 1106.83 1128.82 1107.81 1127.67 1109.08 1126.85 1110.36 1126.02 1111.84 1125.6 1113.54 1125.6 1114.87 1125.6 1116.06 1125.84 1117.12 1126.33 1118.18 1126.82 1119.05 1127.51 1119.73 1128.39 1120.41 1129.28 1120.83 1130.31 1120.99 1131.48H1118.1C1117.88 1130.62 1117.39 1129.86 1116.63 1129.2 1115.88 1128.53 1114.87 1128.2 1113.59 1128.2 1112.46 1128.2 1111.48 1128.49 1110.63 1129.08 1109.78 1129.66 1109.13 1130.48 1108.65 1131.54 1108.19 1132.6 1107.95 1133.84 1107.95 1135.26 1107.95 1136.71 1108.18 1137.98 1108.64 1139.06 1109.11 1140.14 1109.76 1140.97 1110.6 1141.57 1111.45 1142.17 1112.45 1142.46 1113.59 1142.46 1114.34 1142.46 1115.03 1142.33 1115.64 1142.07 1116.25 1141.81 1116.77 1141.43 1117.2 1140.94 1117.62 1140.45 1117.92 1139.87 1118.1 1139.18H1120.99C1120.83 1140.29 1120.43 1141.29 1119.78 1142.18 1119.14 1143.06 1118.3 1143.77 1117.24 1144.29 1116.2 1144.81 1114.98 1145.06 1113.59 1145.06zm18.76.0C1130.65 1145.06 1129.16 1144.66 1127.88 1143.85 1126.61 1143.04 1125.61 1141.91 1124.89 1140.45 1124.18 1139 1123.82 1137.3 1123.82 1135.36 1123.82 1133.39 1124.18 1131.68 1124.89 1130.22 1125.61 1128.76 1126.61 1127.62 1127.88 1126.81 1129.16 1126 1130.65 1125.6 1132.35 1125.6 1134.05 1125.6 1135.54 1126 1136.82 1126.81S1139.1 1128.76 1139.81 1130.22C1140.53 1131.68 1140.88 1133.39 1140.88 1135.36 1140.88 1137.3 1140.53 1139 1139.81 1140.45 1139.1 1141.91 1138.1 1143.04 1136.82 1143.85 1135.54 1144.66 1134.05 1145.06 1132.35 1145.06zM1132.35 1142.46C1133.65 1142.46 1134.71 1142.13 1135.54 1141.47S1136.99 1139.94 1137.39 1138.86C1137.79 1137.78 1137.99 1136.61 1137.99 1135.36 1137.99 1134.1 1137.79 1132.92 1137.39 1131.84 1136.99 1130.75 1136.37 1129.87 1135.54 1129.2 1134.71 1128.53 1133.65 1128.2 1132.35 1128.2 1131.06 1128.2 1130 1128.53 1129.17 1129.2 1128.33 1129.87 1127.72 1130.75 1127.32 1131.84 1126.92 1132.92 1126.72 1134.1 1126.72 1135.36 1126.72 1136.61 1126.92 1137.78 1127.32 1138.86 1127.72 1139.94 1128.33 1140.81 1129.17 1141.47 1130 1142.13 1131.06 1142.46 1132.35 1142.46zM1168.09 1125.84C1167.95 1124.6 1167.35 1123.64 1166.3 1122.95 1165.26 1122.26 1163.97 1121.92 1162.45 1121.92 1161.34 1121.92 1160.37 1122.1 1159.54 1122.46 1158.71 1122.82 1158.07 1123.31 1157.6 1123.94 1157.14 1124.57 1156.91 1125.29 1156.91 1126.09 1156.91 1126.76 1157.07 1127.33 1157.39 1127.82 1157.72 1128.29 1158.14 1128.69 1158.64 1129.01 1159.15 1129.32 1159.68 1129.57 1160.24 1129.78 1160.79 1129.97 1161.3 1130.13 1161.77 1130.26L1164.32 1130.94C1164.97 1131.11 1165.7 1131.35 1166.5 1131.65 1167.31 1131.96 1168.08 1132.37 1168.82 1132.89 1169.56 1133.41 1170.17 1134.07 1170.65 1134.88 1171.14 1135.69 1171.38 1136.68 1171.38 1137.86 1171.38 1139.21 1171.02 1140.44 1170.31 1141.53 1169.61 1142.63 1168.58 1143.5 1167.22 1144.14 1165.87 1144.79 1164.24 1145.11 1162.31 1145.11 1160.51 1145.11 1158.95 1144.82 1157.64 1144.24 1156.33 1143.66 1155.3 1142.85 1154.55 1141.81 1153.8 1140.78 1153.38 1139.57 1153.29 1138.2H1156.42C1156.51 1139.15 1156.82 1139.93 1157.38 1140.55 1157.94 1141.16 1158.65 1141.62 1159.51 1141.92 1160.38 1142.22 1161.31 1142.37 1162.31 1142.37 1163.47 1142.37 1164.51 1142.18 1165.43 1141.8 1166.36 1141.42 1167.09 1140.89 1167.63 1140.21 1168.17 1139.52 1168.44 1138.72 1168.44 1137.81 1168.44 1136.97 1168.2 1136.29 1167.74 1135.77 1167.27 1135.25 1166.66 1134.82 1165.9 1134.5 1165.14 1134.17 1164.32 1133.88 1163.43 1133.64L1160.35 1132.76C1158.38 1132.19 1156.83 1131.39 1155.69 1130.34 1154.54 1129.3 1153.97 1127.93 1153.97 1126.24 1153.97 1124.83 1154.35 1123.6 1155.11 1122.56 1155.88 1121.5 1156.91 1120.69 1158.2 1120.11 1159.5 1119.52 1160.95 1119.22 1162.55 1119.22 1164.17 1119.22 1165.61 1119.52 1166.87 1120.1 1168.13 1120.67 1169.12 1121.45 1169.86 1122.45S1170.99 1124.58 1171.03 1125.84H1168.09zm15.02 19.22C1181.41 1145.06 1179.92 1144.66 1178.64 1143.85 1177.37 1143.04 1176.37 1141.91 1175.65 1140.45 1174.94 1139 1174.58 1137.3 1174.58 1135.36 1174.58 1133.39 1174.94 1131.68 1175.65 1130.22 1176.37 1128.76 1177.37 1127.62 1178.64 1126.81 1179.92 1126 1181.41 1125.6 1183.11 1125.6 1184.81 1125.6 1186.3 1126 1187.58 1126.81S1189.85 1128.76 1190.57 1130.22C1191.28 1131.68 1191.64 1133.39 1191.64 1135.36 1191.64 1137.3 1191.28 1139 1190.57 1140.45 1189.85 1141.91 1188.86 1143.04 1187.58 1143.85 1186.3 1144.66 1184.81 1145.06 1183.11 1145.06zM1183.11 1142.46C1184.4 1142.46 1185.47 1142.13 1186.3 1141.47 1187.13 1140.81 1187.75 1139.94 1188.15 1138.86 1188.55 1137.78 1188.75 1136.61 1188.75 1135.36 1188.75 1134.1 1188.55 1132.92 1188.15 1131.84 1187.75 1130.75 1187.13 1129.87 1186.3 1129.2 1185.47 1128.53 1184.4 1128.2 1183.11 1128.2 1181.82 1128.2 1180.76 1128.53 1179.93 1129.2 1179.09 1129.87 1178.48 1130.75 1178.08 1131.84 1177.68 1132.92 1177.48 1134.1 1177.48 1135.36 1177.48 1136.61 1177.68 1137.78 1178.08 1138.86 1178.48 1139.94 1179.09 1140.81 1179.93 1141.47 1180.76 1142.13 1181.82 1142.46 1183.11 1142.46zM1203.93 1125.84V1128.3H1193.78V1125.84H1203.93zM1196.82 1144.67V1123.25C1196.82 1122.17 1197.07 1121.27 1197.58 1120.55 1198.08 1119.83 1198.74 1119.29 1199.55 1118.93 1200.36 1118.57 1201.21 1118.39 1202.11 1118.39 1202.82 1118.39 1203.4 1118.45 1203.85 1118.56 1204.3 1118.68 1204.64 1118.78 1204.86 1118.88L1204.02 1121.38C1203.88 1121.33 1203.67 1121.27 1203.41 1121.2 1203.16 1121.12 1202.82 1121.09 1202.41 1121.09 1201.45 1121.09 1200.76 1121.33 1200.33 1121.81 1199.92 1122.29 1199.71 1123 1199.71 1123.93v20.74H1196.82zM1215.65 1125.84V1128.3H1205.89V1125.84H1215.65zM1208.74 1121.33H1211.63v17.95C1211.63 1140.09 1211.75 1140.71 1211.99 1141.12 1212.23 1141.52 1212.54 1141.79 1212.92 1141.92 1213.3 1142.06 1213.71 1142.12 1214.13 1142.12 1214.45 1142.12 1214.71 1142.1 1214.91 1142.07 1215.12 1142.03 1215.28 1142 1215.4 1141.97L1215.99 1144.57C1215.8 1144.65 1215.52 1144.72 1215.17 1144.79 1214.82 1144.87 1214.38 1144.92 1213.84 1144.92 1213.02 1144.92 1212.22 1144.74 1211.43 1144.39 1210.66 1144.04 1210.01 1143.5 1209.5 1142.78S1208.74 1141.16 1208.74 1140.06v-18.73zM1223.75 1144.67 1218.01 1125.84H1221.05L1225.12 1140.26H1225.32L1229.34 1125.84H1232.43L1236.4 1140.21H1236.59L1240.66 1125.84H1243.7L1237.97 1144.67H1235.12L1231 1130.21H1230.71L1226.59 1144.67H1223.75zM1252.55 1145.11C1251.36 1145.11 1250.27 1144.89 1249.3 1144.44 1248.33 1143.98 1247.56 1143.32 1246.99 1142.46 1246.41 1141.6 1246.13 1140.55 1246.13 1139.33 1246.13 1138.25 1246.34 1137.37 1246.76 1136.7 1247.19 1136.03 1247.76 1135.49 1248.47 1135.11 1249.18 1134.73 1249.96 1134.44 1250.82 1134.25 1251.69 1134.06 1252.56 1133.9 1253.43 1133.79 1254.58 1133.64 1255.5 1133.53 1256.21 1133.46 1256.93 1133.37 1257.46 1133.24 1257.78 1133.05 1258.12 1132.86 1258.29 1132.54 1258.29 1132.07V1131.97C1258.29 1130.76 1257.96 1129.82 1257.29 1129.15 1256.64 1128.48 1255.65 1128.15 1254.31 1128.15 1252.93 1128.15 1251.85 1128.45 1251.07 1129.06 1250.28 1129.66 1249.73 1130.31 1249.41 1130.99L1246.67 1130.01C1247.16 1128.87 1247.81 1127.98 1248.63 1127.34 1249.45 1126.69 1250.35 1126.24 1251.32 1125.99 1252.3 1125.73 1253.27 1125.6 1254.22 1125.6 1254.82 1125.6 1255.52 1125.67 1256.3 1125.82 1257.09 1125.96 1257.86 1126.25 1258.59 1126.69 1259.34 1127.13 1259.95 1127.8 1260.44 1128.69 1260.93 1129.58 1261.18 1130.77 1261.18 1132.27V1144.67H1258.29V1142.12H1258.14C1257.94 1142.53 1257.62 1142.97 1257.16 1143.43 1256.7 1143.9 1256.09 1144.29 1255.33 1144.62 1254.57 1144.95 1253.64 1145.11 1252.55 1145.11zM1252.99 1142.51C1254.14 1142.51 1255.1 1142.29 1255.88 1141.84 1256.68 1141.39 1257.27 1140.81 1257.67 1140.1 1258.08 1139.39 1258.29 1138.64 1258.29 1137.86V1135.21C1258.16 1135.36 1257.89 1135.49 1257.48 1135.61 1257.07 1135.73 1256.59 1135.83 1256.06 1135.92 1255.52 1136 1255.01 1136.07 1254.5 1136.14 1254 1136.2 1253.6 1136.25 1253.29 1136.29 1252.53 1136.38 1251.83 1136.54 1251.18 1136.76 1250.53 1136.98 1250.01 1137.3 1249.61 1137.73 1249.22 1138.16 1249.02 1138.74 1249.02 1139.47 1249.02 1140.48 1249.39 1141.24 1250.14 1141.75S1251.84 1142.51 1252.99 1142.51zM1265.94 1144.67V1125.84H1268.74V1128.69H1268.93C1269.27 1127.76 1269.9 1127 1270.79 1126.42 1271.69 1125.84 1272.71 1125.55 1273.83 1125.55 1274.05 1125.55 1274.31 1125.55 1274.63 1125.56 1274.95 1125.57 1275.19 1125.58 1275.35 1125.6V1128.54C1275.26 1128.52 1275.03 1128.48 1274.68 1128.43 1274.34 1128.37 1273.97 1128.34 1273.59 1128.34 1272.67 1128.34 1271.86 1128.54 1271.14 1128.92 1270.43 1129.3 1269.86 1129.82 1269.45 1130.49 1269.04 1131.15 1268.83 1131.91 1268.83 1132.76V1144.67H1265.94zM1285.59 1145.06C1283.77 1145.06 1282.21 1144.66 1280.89 1143.86 1279.58 1143.05 1278.57 1141.92 1277.86 1140.48 1277.16 1139.02 1276.81 1137.33 1276.81 1135.4 1276.81 1133.48 1277.16 1131.78 1277.86 1130.31 1278.57 1128.83 1279.56 1127.67 1280.83 1126.85 1282.1 1126.02 1283.59 1125.6 1285.29 1125.6 1286.27 1125.6 1287.24 1125.76 1288.2 1126.09 1289.15 1126.42 1290.02 1126.95 1290.81 1127.68 1291.59 1128.41 1292.22 1129.37 1292.68 1130.57 1293.15 1131.78 1293.38 1133.26 1293.38 1135.01V1136.24H1278.87v-2.5H1290.44C1290.44 1132.67 1290.23 1131.73 1289.8 1130.89 1289.39 1130.06 1288.79 1129.4 1288.01 1128.92 1287.24 1128.44 1286.34 1128.2 1285.29 1128.2 1284.14 1128.2 1283.14 1128.48 1282.3 1129.06 1281.47 1129.62 1280.83 1130.35 1280.38 1131.26 1279.93 1132.17 1279.7 1133.14 1279.7 1134.18V1135.85C1279.7 1137.27 1279.95 1138.47 1280.44 1139.46 1280.94 1140.44 1281.63 1141.19 1282.51 1141.7 1283.39 1142.21 1284.42 1142.46 1285.59 1142.46 1286.35 1142.46 1287.03 1142.36 1287.64 1142.15 1288.27 1141.92 1288.8 1141.6 1289.25 1141.16 1289.7 1140.72 1290.05 1140.18 1290.29 1139.52L1293.09 1140.31C1292.79 1141.25 1292.3 1142.09 1291.6 1142.81 1290.91 1143.52 1290.05 1144.07 1289.03 1144.47 1288.01 1144.87 1286.86 1145.06 1285.59 1145.06z" fill="#fff"/><path d="M520.062 659.967H554.132L572.384 573.574h66.924L671.249 559.277l20.381-22.206 13.081-30.42L702.886 474.71l-18.861-23.12L657.256 443.681h-91.26L520.062 659.967zM579.38 541.025l13.689-64.794h54.148L662.123 481.098l8.822 10.647L671.857 506.955 663.948 522.773 654.214 533.42 637.178 541.025H579.38z" fill="#edefed"/><path d="M686.247 659.967H720.013L768.685 430.601H734.919L686.247 659.967z" fill="#edefed"/><path d="M855.29 663.922 886.014 645.67l-8.822-19.165 18.556-86.697L890.577 519.731l-20.686-17.339L851.335 497.22H823.044L799.925 503.304 784.715 512.126 770.722 523.382l17.948 23.423L799.013 538.592 808.443 533.116 819.09 529.466H838.559L851.335 532.812 860.157 539.808 861.374 545.892 858.332 560.19 855.594 558.06 838.255 551.368H816.961L785.02 559.581l-24.641 20.077L750.037 602.473l-2.13 18.557L760.075 645.974l13.689 10.039L792.016 662.401h20.077l29.812-13.689L846.164 644.149 855.29 663.922zM802.359 630.156 791.408 626.201 786.541 623.159 781.369 612.208 782.89 604.907 786.845 596.998l11.255-8.822L815.744 583.613H827.608L840.688 587.872 846.772 591.218 850.727 596.389 848.902 604.907 844.947 611.599l-12.776 10.952L810.877 630.156H802.359z" fill="#edefed"/><path d="M903.18 659.967H936.946L959.761 552.281 969.191 541.938l21.598-12.472h16.121L1019.99 534.333 1023.95 542.546 999.003 659.967H1032.77L1059.84 531.899 1044.94 506.042 1019.38 497.22H992.615L968.887 509.388 971.016 499.654H937.25L903.18 659.967z" fill="#edefed"/><path d="M1112.75 662.401h15.21L1159.6 655.404 1157.17 623.767 1132.22 630.156H1125.84L1118.53 626.505 1114.58 619.204 1132.22 535.854H1172.07L1179.07 503.609H1139.22L1151.08 447.636h-33.76L1105.45 503.609H1078.08L1071.08 535.854H1098.46l-19.78 93.389L1092.37 653.275 1112.75 662.401z" fill="#edefed"/><path d="M1270.8 663.922 1301.52 645.67 1292.7 626.505l18.55-86.697L1306.08 519.731 1285.4 502.392 1266.84 497.22h-28.29L1215.43 503.304l-15.21 8.822-13.99 11.256 17.95 23.423L1214.52 538.592 1223.95 533.116 1234.6 529.466h19.46l12.78 3.346L1275.66 539.808 1276.88 545.892 1273.84 560.19 1271.1 558.06 1253.76 551.368h-21.29L1200.53 559.581 1175.89 579.658 1165.54 602.473 1163.41 621.03 1175.58 645.974 1189.27 656.013 1207.52 662.401H1227.6L1257.41 648.712 1261.67 644.149 1270.8 663.922zM1217.86 630.156 1206.91 626.201 1202.05 623.159 1196.88 612.208 1198.4 604.907 1202.35 596.998l11.26-8.822L1231.25 583.613H1243.11L1256.19 587.872 1262.28 591.218 1266.23 596.389 1264.41 604.907 1260.45 611.599l-12.77 10.952L1226.38 630.156H1217.86z" fill="#edefed"/><path d="M1357.93 662.401h26.77L1409.03 656.317l17.95-10.951L1440.67 627.114 1446.45 599.736 1438.24 579.658l-15.21-11.255L1380.44 558.973 1374.66 555.627 1371.62 550.151 1373.75 539.808 1377.7 534.941 1381.35 532.203 1392.91 529.161H1410.86L1424.55 533.724l13.99 11.256 22.21-26.77L1442.19 504.217 1419.68 497.22h-26.77l-19.47 4.868L1355.8 512.735 1342.11 531.595 1337.24 560.19 1346.67 578.442l18.25 10.342L1404.17 597.91 1409.64 602.473 1412.38 608.862 1410.55 617.683 1405.38 623.159 1398.39 627.418 1387.74 630.46H1370.1L1353.36 625.593 1347.28 620.421 1341.2 611.904l-26.47 21.902L1322.94 644.149 1336.63 655.404 1357.93 662.401z" fill="#edefed"/><path d="M1490.88 474.71H1534.99L1544.42 430.601H1500.31L1490.88 474.71zm-33.46 185.257h33.76L1525.25 499.654h-33.76L1457.42 659.967z" fill="#edefed"/><path d="M1632.23 663.922 1662.96 645.67 1654.14 626.505l18.55-86.697L1667.52 519.731 1646.84 502.392 1628.28 497.22h-28.29L1576.87 503.304 1561.66 512.126l-13.99 11.256L1565.62 546.805 1575.96 538.592 1585.39 533.116 1596.04 529.466h19.46l12.78 3.346L1637.1 539.808 1638.32 545.892 1635.28 560.19 1632.54 558.06 1615.2 551.368h-21.29L1561.96 559.581 1537.32 579.658 1526.98 602.473 1524.85 621.03 1537.02 645.974 1550.71 656.013 1568.96 662.401H1589.04L1618.85 648.712 1623.11 644.149 1632.23 663.922zM1579.3 630.156 1568.35 626.201 1563.49 623.159 1558.31 612.208 1559.84 604.907 1563.79 596.998l11.26-8.822L1592.69 583.613H1604.55L1617.63 587.872 1623.72 591.218 1627.67 596.389 1625.85 604.907 1621.89 611.599 1609.12 622.551 1587.82 630.156H1579.3z" fill="#edefed"/><path d="M946.165 732.22C943.941 732.22 942.023 731.414 940.411 729.802 938.855 728.19 938.077 726.273 938.077 724.049 938.077 721.826 938.855 719.936 940.411 718.379 942.023 716.767 943.941 715.961 946.165 715.961 948.444 715.961 950.361 716.767 951.918 718.379 953.53 719.936 954.336 721.826 954.336 724.049 954.336 726.273 953.53 728.19 951.918 729.802 950.361 731.414 948.444 732.22 946.165 732.22zM880.379 728.885C885.493 727.106 890.69 725.606 895.971 724.383 901.252 723.104 906.449 722.131 911.563 721.464 916.676 720.797 921.457 720.464 925.904 720.464 927.571 720.464 929.267 720.519 930.99 720.631 932.713 720.742 934.38 720.936 935.992 721.214 935.881 721.659 935.77 722.131 935.659 722.632 935.603 723.076 935.575 723.549 935.575 724.049 935.575 725.995 936.048 727.773 936.993 729.385 937.938 730.997 939.216 732.304 940.828 733.304 942.44 734.249 944.219 734.722 946.165 734.722 947.665 734.722 948.999 734.444 950.167 733.888 950.222 734.277 950.25 734.694 950.25 735.138 950.306 735.528 950.333 735.944 950.333 736.389 950.333 739.057 949.722 742.448 948.499 746.561 947.332 750.675 945.331 755.205 942.496 760.152 939.717 765.099 935.965 770.213 931.24 775.493 926.515 780.774 920.623 785.916 913.564 790.918L901.557 780.496C907.171 777.05 912.091 773.353 916.315 769.407 920.54 765.46 924.069 761.569 926.904 757.734 929.739 753.898 931.851 750.424 933.241 747.312 934.686 744.143 935.409 741.642 935.409 739.808 935.409 737.64 934.575 736.222 932.907 735.555 931.295 734.833 929.239 734.471 926.737 734.471 921.512 734.471 915.398 735.138 908.394 736.472 901.39 737.751 893.692 739.863 885.299 742.809L880.379 728.885zM946.165 726.717C946.943 726.717 947.582 726.467 948.082 725.967 948.582 725.411 948.833 724.772 948.833 724.049 948.833 723.327 948.582 722.715 948.082 722.215 947.582 721.659 946.943 721.381 946.165 721.381 945.442 721.381 944.83 721.659 944.33 722.215 943.83 722.715 943.58 723.327 943.58 724.049 943.58 724.772 943.83 725.411 944.33 725.967c.5.5 1.11199999999997.75 1.83499999999992.75zM1017.57 735.722C1015.57 735.111 1013.04 734.527 1009.99 733.971 1006.98 733.415 1003.71 732.943 1000.15 732.554 996.59 732.109 992.95 731.776 989.225 731.553 985.501 731.275 981.971 731.136 978.636 731.136 976.524 731.136 974.523 731.192 972.633 731.303 970.743 731.359 969.048 731.525 967.547 731.803L968.965 718.379C970.576 718.102 972.327 717.935 974.217 717.879 976.163 717.768 978.247 717.712 980.471 717.712 983.806 717.712 987.28 717.824 990.893 718.046 994.562 718.268 998.175 718.602 1001.73 719.046 1005.35 719.491 1008.71 720.019 1011.82 720.631 1014.93 721.186 1017.63 721.798 1019.91 722.465L1017.57 735.722zM995.395 792.169 985.807 781.33C988.141 780.051 990.587 778.523 993.144 776.744 995.701 774.91 998.175 772.992 1000.56 770.991 1003.01 768.99 1005.21 767.017 1007.15 765.071 1009.1 763.07 1010.63 761.208 1011.74 759.485 1012.9 757.762 1013.49 756.316 1013.49 755.149 1013.49 754.037 1013.04 753.259 1012.15 752.815 1011.26 752.314 1010.13 752.009 1008.74 751.897 1007.35 751.786 1005.9 751.731 1004.4 751.731 1001.79 751.731 998.703 751.897 995.145 752.231 991.643 752.509 987.891 752.981 983.889 753.648 979.887 754.26 975.857 755.038 971.799 755.983 967.742 756.928 963.906 758.067 960.293 759.401L957.875 745.978C962.378 744.421 967.325 743.115 972.717 742.059 978.164 741.003 983.639 740.197 989.142 739.641 994.645 739.085 999.759 738.807 1004.48 738.807 1009.04 738.807 1012.93 739.057 1016.16 739.557 1020.49 740.224 1023.6 741.809 1025.49 744.31 1027.44 746.756 1028.41 749.452 1028.41 752.398 1028.41 755.233 1027.5 758.345 1025.66 761.736 1023.88 765.127 1021.44 768.629 1018.32 772.242 1015.21 775.799 1011.68 779.301 1007.74 782.747 1003.79 786.138 999.675 789.279 995.395 792.169zM1055.13 747.895C1052.41 744.282 1049.29 740.975 1045.79 737.973 1042.35 734.972 1038.82 732.443 1035.2 730.386L1044.79 720.214C1048.24 722.27 1051.77 724.744 1055.38 727.634 1058.99 730.525 1062.33 733.943 1065.39 737.89l-10.26 10.005zM1070.81 783.748C1066.75 785.86 1063.22 787.25 1060.22 787.917 1057.21 788.584 1054.69 788.917 1052.63 788.917 1041.79 788.917 1034.9 783.053 1031.95 771.325L1044.54 765.655C1045.32 768.823 1046.43 771.13 1047.88 772.575 1049.32 774.02 1051.13 774.743 1053.3 774.743 1054.19 774.743 1055.69 774.465 1057.8 773.909 1059.91 773.353 1062.41 772.381 1065.3 770.991 1068.25 769.546 1071.39 767.545 1074.72 764.988 1078.06 762.431 1081.39 759.179 1084.73 755.233 1088.06 751.286 1091.18 746.478 1094.07 740.808L1104.66 750.563V750.647C1103.32 753.315 1101.49 756.177 1099.15 759.235 1096.88 762.292 1094.23 765.349 1091.23 768.406 1088.29 771.408 1085.06 774.243 1081.56 776.911 1078.12 779.523 1074.53 781.802 1070.81 783.748zM1120.73 760.902 1108.14 757.484C1108.64 753.704 1109.42 749.785 1110.48 745.727 1111.59 741.67 1112.9 737.695 1114.4 733.804 1115.95 729.858 1117.65 726.189 1119.48 722.798 1121.32 719.352 1123.24 716.351 1125.24 713.794L1137.83 718.296C1136.27 720.242 1134.83 722.298 1133.49 724.466 1136.83 723.076 1140.25 722.02 1143.75 721.298 1147.3 720.575 1150.72 720.214 1154 720.214 1157.89 720.214 1161.42 720.742 1164.59 721.798 1167.76 722.798 1170.29 724.383 1172.18 726.55 1174.12 728.718 1175.1 731.525 1175.1 734.972 1175.1 738.196 1174.32 742.059 1172.76 746.561 1171.21 751.064 1169.01 755.9 1166.18 761.069 1163.34 766.238 1159.92 771.491 1155.92 776.827 1151.97 782.108 1147.58 787.139 1142.75 791.919L1130.91 784.331C1134.24 781.108 1137.27 777.828 1140 774.493 1142.77 771.158 1145.3 767.878 1147.58 764.654 1146.25 763.376 1144.5 762.097 1142.33 760.819 1140.22 759.54 1137.83 758.29 1135.16 757.067 1132.55 755.788 1129.85 754.621 1127.07 753.565L1133.57 742.976C1134.96 743.198 1136.6 743.671 1138.49 744.393 1140.38 745.06 1142.36 745.894 1144.41 746.895 1146.47 747.84 1148.39 748.868 1150.17 749.98 1152 751.036 1153.5 752.092 1154.67 753.148 1156.67 749.479 1158.17 746.339 1159.17 743.726 1160.23 741.058 1160.76 739.224 1160.76 738.223 1160.76 736.611 1160.01 735.472 1158.51 734.805 1157 734.138 1155.03 733.804 1152.59 733.804 1150.08 733.804 1147.28 734.11 1144.16 734.722 1141.11 735.277 1137.97 736.056 1134.74 737.056 1131.57 738.001 1128.6 739.029 1125.82 740.141 1123.54 746.533 1121.85 753.454 1120.73 760.902zM1246.67 727.218C1246.12 726.773 1245.31 726.05 1244.26 725.05 1243.26 723.994 1242.28 722.882 1241.34 721.715 1240.39 720.492 1239.7 719.463 1239.25 718.63L1244.26 714.794C1245.03 715.961 1246.06 717.268 1247.34 718.713 1248.62 720.158 1249.9 721.353 1251.18 722.298L1246.67 727.218zM1236.25 729.302C1235.75 728.802 1235.06 727.912 1234.17 726.634 1233.28 725.355 1232.42 724.021 1231.58 722.632 1230.81 721.186 1230.28 719.991 1230 719.046L1235.75 716.378C1236.25 717.657 1237 719.13 1238 720.797 1239.06 722.465 1240.14 723.882 1241.26 725.05L1236.25 729.302zM1209.32 742.392C1206.88 740.113 1203.71 737.862 1199.82 735.639 1195.98 733.415 1191.98 731.386 1187.81 729.552L1192.4 717.379C1195.34 718.435 1198.29 719.741 1201.23 721.298 1204.24 722.798 1207.04 724.383 1209.65 726.05 1212.27 727.718 1214.41 729.302 1216.07 730.803L1209.32 742.392zM1200.4 760.068C1198.51 759.012 1196.23 757.956 1193.56 756.9 1190.95 755.844 1188.31 754.899 1185.64 754.065 1182.97 753.231 1180.64 752.62 1178.64 752.231L1182.56 739.391C1184.95 739.891 1187.5 740.586 1190.23 741.475 1192.95 742.309 1195.65 743.254 1198.32 744.31 1200.98 745.366 1203.43 746.45 1205.65 747.562l-5.25 12.506zM1250.18 755.399C1247.79 759.068 1244.92 762.625 1241.59 766.072 1238.31 769.462 1234.75 772.631 1230.92 775.577 1227.14 778.523 1223.25 781.108 1219.24 783.331 1215.3 785.499 1211.43 787.194 1207.65 788.417 1203.87 789.64 1200.37 790.251 1197.15 790.251 1192.76 790.251 1188.92 788.889 1185.64 786.166 1182.42 783.442 1180.14 778.884 1178.8 772.492L1190.56 767.072C1191.34 770.407 1192.42 772.798 1193.81 774.243 1195.2 775.688 1197.04 776.411 1199.32 776.411 1200.76 776.411 1202.73 775.966 1205.24 775.077 1207.79 774.132 1210.63 772.77 1213.74 770.991S1220.05 767.017 1223.33 764.404C1226.61 761.792 1229.78 758.79 1232.83 755.399 1235.89 752.009 1238.61 748.284 1241.01 744.227L1250.18 755.399zm24.75 36.52L1264.01 782.247C1268.56 779.912 1272.32 777.022 1275.26 773.576 1278.21 770.074 1280.4 766.405 1281.85 762.57 1283.3 758.679 1284.02 755.01 1284.02 751.564 1284.02 748.173 1283.32 745.172 1281.93 742.559L1295.36 739.808C1296.75 743.365 1297.52 747.256 1297.69 751.481 1301.75 749.646 1305.03 747.729 1307.53 745.727 1310.09 743.726 1311.95 741.836 1313.12 740.058 1314.28 738.223 1314.87 736.695 1314.87 735.472 1314.87 734.193 1314.2 733.276 1312.87 732.72 1311.59 732.109 1310.03 731.72 1308.2 731.553 1306.36 731.386 1304.61 731.303 1302.94 731.303 1299.05 731.303 1294.75 731.692 1290.02 732.47 1285.3 733.249 1280.4 734.388 1275.35 735.889 1270.34 737.39 1265.42 739.196 1260.59 741.308L1254.67 728.218C1257.28 727.162 1260.45 726.078 1264.17 724.966 1267.95 723.799 1272.04 722.715 1276.43 721.715 1280.82 720.714 1285.3 719.908 1289.85 719.297 1294.41 718.685 1298.83 718.379 1303.11 718.379 1306.56 718.379 1309.84 718.657 1312.95 719.213 1316.12 719.713 1318.93 720.603 1321.37 721.881 1323.82 723.104 1325.73 724.8 1327.12 726.967 1328.57 729.135 1329.29 731.859 1329.29 735.138 1329.29 737.807 1328.65 740.391 1327.37 742.893 1326.1 745.338 1324.46 747.645 1322.46 749.813 1320.45 751.981 1318.31 753.954 1316.03 755.733 1313.81 757.512 1311.7 759.012 1309.7 760.235 1307.7 761.458 1306.09 762.375 1304.86 762.987L1297.69 751.897C1297.69 752.231 1297.69 752.537 1297.69 752.815 1297.69 757.206 1296.91 761.764 1295.36 766.489 1293.8 771.213 1291.35 775.771 1288.02 780.163 1284.68 784.554 1280.32 788.473 1274.93 791.919z" fill="#edefed"/><line x1="1371.42" y1="745.474" x2="1693.57" y2="745.474" stroke="#edefed" stroke-width="8.46809"/><line x1="514.282" y1="745.474" x2="836.428" y2="745.474" stroke="#edefed" stroke-width="8.46809"/></g><defs><clipPath id="clip0_2408_1691"><rect y=".71875" width="2209" height="1242.56" rx="15" fill="#fff"/></clipPath></defs></svg>