<svg width="456" height="300" viewBox="0 0 456 300" fill="none" xmlns="http://www.w3.org/2000/svg"><g clip-path="url(#clip0_1175_293)"><rect width="456" height="300" fill="#030304"/><g clip-path="url(#clip1_1175_293)"><rect width="456" height="300" rx="3.09642" fill="#00754b"/><circle cx="239.163" cy="149.406" r="212.444" fill="#f6ca5a"/><ellipse cx="356.487" cy="149.406" rx="212.206" ry="212.444" fill="#ea873f"/><ellipse cx="474.05" cy="150.119" rx="212.206" ry="213.156" fill="#de4e36"/><circle cx="591.85" cy="149.406" r="212.444" fill="#0d85b9"/><path d="M107.355 157.838h7.033l3.768-17.834h13.815L138.564 137.052l4.208-4.584L145.472 126.189 145.095 119.595 141.202 114.823 135.676 113.19H116.837l-9.482 44.648zM119.6 133.284 122.426 119.909h11.177l3.077 1.005L138.502 123.112 138.69 126.251 137.057 129.517 135.048 131.715 131.531 133.284H119.6z" fill="#edefed"/><path d="M141.66 157.838h6.971l10.047-47.348h-6.97L141.66 157.838z" fill="#edefed"/><path d="M176.556 158.654 182.898 154.886 181.077 150.93 184.907 133.033 183.84 128.889 179.57 125.309 175.739 124.242h-5.84L165.127 125.498 161.987 127.319 159.098 129.642 162.803 134.478 164.938 132.782 166.885 131.652 169.083 130.898H173.102L175.739 131.589 177.56 133.033 177.811 134.289 177.184 137.241 176.618 136.801 173.039 135.42H168.643L162.05 137.115 156.963 141.26 154.828 145.969 154.389 149.8l2.512 5.149L159.726 157.021 163.494 158.34H167.639L173.793 155.514 174.672 154.572 176.556 158.654zm-10.927-6.97L163.369 150.867 162.364 150.239 161.296 147.979 161.61 146.472 162.427 144.839 164.75 143.018 168.392 142.076H170.841L173.541 142.955 174.797 143.646 175.614 144.713 175.237 146.472 174.42 147.853l-2.637 2.261L167.387 151.684H165.629z" fill="#edefed"/><path d="M186.441 157.838h6.971l4.709-22.23L200.068 133.473 204.526 130.898H207.855L210.555 131.903 211.371 133.598l-5.149 24.24h6.97l5.589-26.437L215.704 126.063 210.429 124.242H204.903l-4.898 2.512L200.445 124.744h-6.971L186.441 157.838z" fill="#edefed"/><path d="M229.704 158.34H232.843L239.374 156.896 238.872 150.365 233.722 151.684H232.404L230.897 150.93 230.08 149.423l3.642-17.206h8.227L243.393 125.561h-8.226L237.616 114.006h-6.971L228.196 125.561H222.545L221.101 132.217H226.752L222.67 151.495 225.496 156.456 229.704 158.34z" fill="#edefed"/><path d="M262.328 158.654 268.67 154.886 266.849 150.93 270.68 133.033 269.612 128.889 265.342 125.309 261.511 124.242H255.671L250.899 125.498 247.759 127.319 244.871 129.642 248.576 134.478 250.711 132.782 252.657 131.652 254.855 130.898H258.874L261.511 131.589 263.332 133.033 263.584 134.289 262.956 137.241 262.391 136.801 258.811 135.42H254.415L247.822 137.115 242.736 141.26 240.601 145.969 240.161 149.8l2.512 5.149L245.499 157.021 249.266 158.34H253.411L259.565 155.514 260.444 154.572 262.328 158.654zm-10.927-6.97L249.141 150.867 248.136 150.239 247.068 147.979 247.382 146.472 248.199 144.839 250.522 143.018 254.164 142.076H256.613L259.314 142.955 260.569 143.646 261.386 144.713 261.009 146.472 260.193 147.853 257.555 150.114 253.16 151.684H251.401z" fill="#edefed"/><path d="M280.314 158.34H285.84l5.024-1.256L294.569 154.823 297.395 151.056 298.588 145.404 296.892 141.26 293.752 138.936l-8.791-1.947L283.768 136.299 283.14 135.168 283.58 133.033 284.396 132.029 285.149 131.463 287.536 130.835H291.241L294.066 131.777 296.955 134.101 301.539 128.575 297.709 125.686 293.062 124.242H287.536L283.517 125.247 279.875 127.445 277.049 131.338 276.044 137.241l1.947 3.767L281.758 143.143 289.859 145.027 290.989 145.969 291.555 147.288 291.178 149.109 290.11 150.239 288.666 151.118 286.468 151.746h-3.642L279.372 150.742 278.116 149.674 276.86 147.916 271.397 152.437 273.093 154.572 275.919 156.896 280.314 158.34z" fill="#edefed"/><path d="M307.759 119.595H316.864l1.947-9.105h-9.106L307.759 119.595zM300.851 157.838h6.971L314.855 124.744h-6.971L300.851 157.838z" fill="#edefed"/><path d="M336.939 158.654 343.281 154.886 341.46 150.93 345.291 133.033 344.223 128.889 339.953 125.309 336.123 124.242H330.283L325.51 125.498 322.37 127.319 319.482 129.642 323.187 134.478 325.322 132.782 327.268 131.652 329.466 130.898H333.485L336.123 131.589 337.944 133.033 338.195 134.289 337.567 137.241 337.002 136.801 333.422 135.42H329.027L322.433 137.115 317.347 141.26 315.212 145.969 314.772 149.8l2.512 5.149L320.11 157.021 323.878 158.34H328.022L334.176 155.514 335.055 154.572 336.939 158.654zm-10.926-6.97L323.752 150.867 322.747 150.239 321.68 147.979 321.994 146.472 322.81 144.839 325.133 143.018 328.776 142.076H331.225L333.925 142.955 335.181 143.646 335.997 144.713 335.62 146.472 334.804 147.853l-2.637 2.261L327.771 151.684H326.013z" fill="#edefed"/><path d="M195.315 172.753C194.856 172.753 194.46 172.586 194.127 172.253 193.806 171.921 193.645 171.525 193.645 171.066S193.806 170.217 194.127 169.895C194.46 169.563 194.856 169.396 195.315 169.396 195.785 169.396 196.181 169.563 196.502 169.895 196.835 170.217 197.002 170.607 197.002 171.066S196.835 171.921 196.502 172.253C196.181 172.586 195.785 172.753 195.315 172.753zM181.735 172.064C182.791 171.697 183.863 171.387 184.953 171.135 186.043 170.871 187.116 170.67 188.172 170.532 189.228 170.395 190.214 170.326 191.132 170.326 191.477 170.326 191.827 170.337 192.182 170.36 192.538 170.383 192.882 170.423 193.215 170.481 193.192 170.572 193.169 170.67 193.146 170.773 193.135 170.865 193.129 170.963 193.129 171.066 193.129 171.467 193.226 171.835 193.422 172.167 193.617 172.5 193.881 172.77 194.213 172.976 194.546 173.171 194.913 173.269 195.315 173.269 195.625 173.269 195.9 173.212 196.141 173.097 196.152 173.177 196.158 173.263 196.158 173.355 196.17 173.435 196.175 173.521 196.175 173.613 196.175 174.164 196.049 174.864 195.797 175.713 195.556 176.562 195.143 177.497 194.558 178.518 193.984 179.54 193.209 180.595 192.234 181.685 191.259 182.775 190.042 183.837 188.585 184.87L186.107 182.718C187.266 182.007 188.281 181.244 189.153 180.429 190.025 179.614 190.754 178.811 191.339 178.019 191.924 177.228 192.36 176.51 192.647 175.868 192.945 175.214 193.095 174.698 193.095 174.319 193.095 173.871 192.922 173.579 192.578 173.441 192.245 173.292 191.821 173.217 191.305 173.217 190.226 173.217 188.964 173.355 187.518 173.63 186.072 173.894 184.483 174.33 182.75 174.938L181.735 172.064zM195.315 171.617C195.475 171.617 195.607 171.565 195.711 171.462 195.814 171.347 195.866 171.215 195.866 171.066S195.814 170.79 195.711 170.687C195.607 170.572 195.475 170.515 195.315 170.515 195.166 170.515 195.039 170.572 194.936 170.687 194.833 170.79 194.781 170.917 194.781 171.066S194.833 171.347 194.936 171.462C195.039 171.565 195.166 171.617 195.315 171.617z" fill="#edefed"/><path d="M210.056 173.475C209.643 173.349 209.121 173.229 208.489 173.114 207.87 172.999 207.193 172.902 206.459 172.821 205.724 172.73 204.973 172.661 204.204 172.615 203.435 172.558 202.706 172.529 202.018 172.529 201.582 172.529 201.169 172.54 200.779 172.563 200.389 172.575 200.039 172.609 199.729 172.667L200.021 169.895C200.354 169.838 200.716 169.804 201.106 169.792 201.507 169.769 201.938 169.758 202.397 169.758 203.085 169.758 203.802 169.781 204.548 169.827 205.305 169.873 206.051 169.941 206.786 170.033 207.531 170.125 208.226 170.234 208.868 170.36 209.511 170.475 210.067 170.601 210.538 170.739L210.056 173.475zM205.477 185.128 203.498 182.89C203.98 182.626 204.485 182.311 205.013 181.944 205.541 181.565 206.051 181.169 206.545 180.756 207.049 180.343 207.503 179.936 207.904 179.534 208.306 179.121 208.621 178.736 208.851 178.381 209.092 178.025 209.212 177.727 209.212 177.486 209.212 177.256 209.121 177.096 208.937 177.004 208.753 176.901 208.518 176.837 208.231 176.815 207.944 176.792 207.646 176.78 207.336 176.78 206.797 176.78 206.16 176.815 205.426 176.883 204.703 176.941 203.928 177.038 203.102 177.176 202.276 177.302 201.444 177.463 200.607 177.658 199.769 177.853 198.977 178.088 198.231 178.364L197.732 175.593C198.662 175.271 199.683 175.002 200.796 174.784 201.92 174.566 203.051 174.399 204.187 174.284 205.323 174.17 206.378 174.112 207.354 174.112 208.294 174.112 209.098 174.164 209.763 174.267 210.658 174.405 211.301 174.732 211.691 175.248 212.092 175.753 212.293 176.31 212.293 176.918 212.293 177.503 212.104 178.146 211.725 178.846 211.358 179.545 210.853 180.268 210.211 181.014 209.568 181.749 208.839 182.471 208.025 183.183 207.21 183.883 206.361 184.531 205.477 185.128z" fill="#edefed"/><path d="M217.808 175.988C217.246 175.243 216.604 174.56 215.881 173.94 215.169 173.321 214.441 172.798 213.695 172.374L215.674 170.274C216.386 170.699 217.114 171.209 217.86 171.806 218.606 172.403 219.294 173.108 219.926 173.923l-2.118 2.065zM221.044 183.389C220.207 183.825 219.478 184.112 218.858 184.25 218.239 184.388 217.717 184.456 217.292 184.456 215.055 184.456 213.632 183.246 213.024 180.825L215.623 179.654C215.783 180.308 216.013 180.785 216.311 181.083S216.982 181.531 217.43 181.531C217.613 181.531 217.923 181.473 218.359 181.358 218.795 181.244 219.312 181.043 219.908 180.756 220.516 180.458 221.165 180.045 221.853 179.517 222.542 178.989 223.23 178.318 223.919 177.503 224.607 176.688 225.25 175.696 225.846 174.525L228.032 176.539V176.556C227.757 177.107 227.378 177.698 226.896 178.329 226.426 178.96 225.881 179.591 225.261 180.222 224.653 180.842 223.987 181.427 223.265 181.978 222.553 182.517 221.813 182.988 221.044 183.389z" fill="#edefed"/><path d="M231.351 178.673 228.752 177.968C228.855 177.187 229.016 176.379 229.234 175.541 229.464 174.703 229.733 173.883 230.043 173.08 230.364 172.265 230.714 171.508 231.093 170.808 231.472 170.096 231.867 169.477 232.28 168.949L234.879 169.878C234.558 170.28 234.26 170.704 233.984 171.152 234.673 170.865 235.379 170.647 236.101 170.498 236.836 170.349 237.541 170.274 238.218 170.274 239.022 170.274 239.75 170.383 240.404 170.601 241.058 170.808 241.58 171.135 241.971 171.582 242.372 172.03 242.573 172.609 242.573 173.321 242.573 173.986 242.412 174.784 242.091 175.713S241.317 177.641 240.731 178.708C240.146 179.775 239.44 180.859 238.614 181.961 237.8 183.051 236.893 184.089 235.895 185.076L233.451 183.51C234.139 182.844 234.765 182.167 235.327 181.479 235.901 180.79 236.423 180.113 236.893 179.448 236.618 179.184 236.256 178.92 235.809 178.656 235.373 178.392 234.879 178.134 234.329 177.882 233.789 177.618 233.233 177.377 232.659 177.159L234.002 174.973C234.288 175.019 234.627 175.116 235.017 175.265 235.407 175.403 235.815 175.575 236.239 175.782 236.664 175.977 237.06 176.189 237.427 176.419 237.805 176.637 238.115 176.855 238.356 177.073 238.769 176.315 239.079 175.667 239.286 175.128 239.504 174.577 239.613 174.198 239.613 173.992 239.613 173.659 239.458 173.424 239.148 173.286S238.431 173.08 237.926 173.08C237.41 173.08 236.83 173.143 236.188 173.269 235.556 173.384 234.908 173.544 234.243 173.751 233.589 173.946 232.975 174.158 232.401 174.388 231.931 175.707 231.581 177.136 231.351 178.673z" fill="#edefed"/><path d="M257.349 171.72C257.234 171.628 257.067 171.479 256.849 171.272 256.643 171.054 256.442 170.825 256.247 170.584 256.052 170.332 255.909 170.119 255.817 169.947L256.849 169.155C257.01 169.396 257.222 169.666 257.486 169.964 257.75 170.263 258.014 170.509 258.278 170.704L257.349 171.72zM255.197 172.15C255.094 172.047 254.95 171.863 254.767 171.599 254.583 171.336 254.405 171.06 254.233 170.773 254.073 170.475 253.964 170.228 253.906 170.033L255.094 169.482C255.197 169.746 255.352 170.05 255.559 170.395 255.777 170.739 256 171.031 256.23 171.272L255.197 172.15zm-5.559 2.702C249.133 174.382 248.479 173.917 247.676 173.458 246.884 172.999 246.058 172.58 245.197 172.202L246.144 169.689C246.752 169.907 247.36 170.177 247.968 170.498 248.588 170.808 249.167 171.135 249.707 171.479 250.246 171.823 250.688 172.15 251.032 172.46L249.638 174.852zM247.796 178.501C247.406 178.283 246.936 178.065 246.385 177.847 245.846 177.629 245.301 177.434 244.75 177.262S243.717 176.964 243.304 176.883L244.113 174.233C244.606 174.336 245.134 174.479 245.696 174.663 246.259 174.835 246.815 175.03 247.366 175.248 247.917 175.466 248.422 175.69 248.881 175.92L247.796 178.501zM258.072 177.537C257.578 178.295 256.987 179.029 256.299 179.741 255.622 180.44 254.887 181.094 254.096 181.703 253.315 182.311 252.512 182.844 251.686 183.303 250.871 183.751 250.074 184.101 249.294 184.353 248.513 184.606 247.79 184.732 247.125 184.732 246.218 184.732 245.427 184.451 244.75 183.889 244.084 183.326 243.614 182.385 243.338 181.066L245.765 179.947C245.926 180.636 246.15 181.129 246.436 181.427 246.723 181.726 247.102 181.875 247.572 181.875 247.871 181.875 248.278 181.783 248.794 181.599 249.322 181.404 249.907 181.123 250.55 180.756S251.852 179.936 252.529 179.396C253.206 178.857 253.86 178.237 254.492 177.537 255.123 176.837 255.685 176.069 256.178 175.231L258.072 177.537z" fill="#edefed"/><path d="M263.181 185.076 260.926 183.08C261.867 182.598 262.642 182.001 263.25 181.29 263.858 180.567 264.311 179.809 264.61 179.018 264.908 178.214 265.057 177.457 265.057 176.746 265.057 176.046 264.914 175.426 264.627 174.887L267.398 174.319C267.685 175.053 267.846 175.856 267.88 176.728 268.718 176.35 269.395 175.954 269.911 175.541 270.439 175.128 270.823 174.738 271.064 174.37 271.305 173.992 271.426 173.676 271.426 173.424 271.426 173.16 271.288 172.971 271.012 172.856 270.749 172.73 270.427 172.649 270.049 172.615 269.67 172.58 269.309 172.563 268.964 172.563 268.161 172.563 267.272 172.644 266.297 172.804 265.321 172.965 264.311 173.2 263.267 173.51 262.235 173.82 261.219 174.193 260.221 174.629L258.999 171.926C259.538 171.708 260.192 171.485 260.961 171.255 261.741 171.014 262.585 170.79 263.491 170.584 264.397 170.377 265.321 170.211 266.262 170.085S268.115 169.895 268.999 169.895C269.71 169.895 270.387 169.953 271.03 170.068 271.684 170.171 272.263 170.354 272.768 170.618 273.273 170.871 273.669 171.221 273.956 171.668 274.254 172.116 274.403 172.678 274.403 173.355 274.403 173.906 274.271 174.439 274.007 174.956 273.743 175.461 273.405 175.937 272.992 176.384 272.579 176.832 272.137 177.239 271.667 177.606 271.208 177.973 270.772 178.283 270.358 178.536 269.945 178.788 269.613 178.977 269.36 179.104L267.88 176.815c0 .0680000000000121.0.131.0.188999999999993C267.88 177.91 267.719 178.851 267.398 179.827 267.077 180.802 266.572 181.743 265.883 182.649 265.195 183.556 264.294 184.365 263.181 185.076z" fill="#edefed"/><line x1="283.1" y1="175.488" x2="349.6" y2="175.488" stroke="#edefed" stroke-width="1.74805"/><line x1="106.162" y1="175.488" x2="172.662" y2="175.488" stroke="#edefed" stroke-width="1.74805"/></g></g><defs><clipPath id="clip0_1175_293"><rect width="456" height="300" fill="#fff"/></clipPath><clipPath id="clip1_1175_293"><rect width="456" height="300" rx="3.09642" fill="#fff"/></clipPath></defs></svg>