<svg width="456" height="300" viewBox="0 0 456 300" fill="none" xmlns="http://www.w3.org/2000/svg"><rect width="456" height="300" fill="#979691"/><rect x="60" y="52" width="336.571" height="196.333" rx="8.88175" fill="#f1efec"/><path fill-rule="evenodd" clip-rule="evenodd" d="M189.955 52H68.8827c-4.9052.0-8.8817 3.9765-8.8817 8.8817V77.944h9.3491V64.3877C69.3501 62.7096 70.7105 61.3492 72.3886 61.3492H189.955V52zm40.669 9.3492h77.598V52H230.624v9.3492zM60.001 239.452V110.666h9.3491v125.28C69.3501 237.624 70.7105 238.984 72.3886 238.984H384.185C385.863 238.984 387.223 237.624 387.223 235.946V64.3877C387.223 62.7096 385.863 61.3492 384.185 61.3492H359.409V52h28.282C392.596 52 396.572 55.9765 396.572 60.8817V239.452c0 4.905-3.976 8.881-8.88100000000003 8.881H68.8827c-4.9052.0-8.8817-3.976-8.8817-8.881z" fill="#f1efec"/><path d="M189.955 52H190.189V51.7663H189.955V52zM60.001 77.944H59.7672V78.1778H60.001V77.944zm9.3491.0V78.1778H69.5839V77.944H69.3501zM189.955 61.3492V61.5829H190.189V61.3492H189.955zm118.267.0V61.5829H308.456V61.3492H308.222zm-77.598.0H230.39V61.5829H230.624V61.3492zM308.222 52H308.456V51.7663H308.222V52zm-77.598.0V51.7663H230.39V52H230.624zM60.001 110.666V110.433H59.7672V110.666H60.001zm9.3491.0H69.5839V110.433H69.3501V110.666zM359.409 61.3492H359.176V61.5829H359.409V61.3492zm0-9.3492V51.7663H359.176V52H359.409zM68.8827 52.2337H189.955V51.7663H68.8827V52.2337zm-8.648 8.648c0-4.7761 3.8719-8.648 8.648-8.648V51.7663c-5.0343.0-9.1155 4.0811-9.1155 9.1154H60.2347zm0 17.0623V60.8817H59.7672V77.944H60.2347zM69.3501 77.7103H60.001V78.1778h9.3491V77.7103zM69.1164 64.3877V77.944H69.5839V64.3877H69.1164zm3.2722-3.2722c-1.80719999999999.0-3.2722 1.465-3.2722 3.2722H69.5839C69.5839 62.8387 70.8396 61.5829 72.3886 61.5829V61.1155zm117.5664.0H72.3886V61.5829H189.955V61.1155zM190.189 61.3492V52H189.721v9.3492H190.189zM308.222 61.1155H230.624V61.5829h77.598V61.1155zM307.989 52v9.3492H308.456V52H307.989zM230.624 52.2337h77.598V51.7663H230.624V52.2337zM230.39 52v9.3492H230.858V52H230.39zM59.7672 110.666V239.452H60.2347V110.666H59.7672zM69.3501 110.433H60.001V110.9h9.3491V110.433zM69.5839 235.946V110.666H69.1164v125.28H69.5839zm2.8047 2.804c-1.54899999999999.0-2.8047-1.255-2.8047-2.804H69.1164C69.1164 237.753 70.5814 239.218 72.3886 239.218V238.75zm311.7964.0H72.3886V239.218H384.185V238.75zM386.989 235.946C386.989 237.495 385.734 238.75 384.185 238.75V239.218C385.992 239.218 387.457 237.753 387.457 235.946H386.989zm0-171.5583V235.946H387.457V64.3877H386.989zM384.185 61.5829C385.734 61.5829 386.989 62.8387 386.989 64.3877H387.457C387.457 62.5805 385.992 61.1155 384.185 61.1155V61.5829zm-24.776.0h24.776V61.1155H359.409V61.5829zM359.176 52v9.3492H359.643V52H359.176zM387.691 51.7663H359.409V52.2337h28.282V51.7663zM396.806 60.8817C396.806 55.8474 392.725 51.7663 387.691 51.7663V52.2337C392.467 52.2337 396.339 56.1056 396.339 60.8817H396.806zm0 178.5703V60.8817H396.339V239.452H396.806zM387.691 248.567C392.725 248.567 396.806 244.486 396.806 239.452H396.339C396.339 244.228 392.467 248.1 387.691 248.1V248.567zm-318.8083.0H387.691V248.1H68.8827V248.567zM59.7672 239.452C59.7672 244.486 63.8484 248.567 68.8827 248.567V248.1c-4.7761.0-8.648-3.87199999999999-8.648-8.648H59.7672z" fill="#5b5b5b"/><rect x="117.498" y="201.12" width="227.887" height="22.6718" fill="#abaaa0" stroke="#5b5b5b" stroke-width=".46746"/><circle cx="122.99" cy="218.533" r="3.62282" fill="#abaaa0" stroke="#5b5b5b" stroke-width=".46746"/><circle cx="122.99" cy="206.612" r="3.62282" fill="#abaaa0" stroke="#5b5b5b" stroke-width=".46746"/><circle cx="180.254" cy="218.533" r="3.62282" fill="#abaaa0" stroke="#5b5b5b" stroke-width=".46746"/><circle cx="180.254" cy="206.612" r="3.62282" fill="#abaaa0" stroke="#5b5b5b" stroke-width=".46746"/><circle cx="237.517" cy="218.533" r="3.62282" fill="#abaaa0" stroke="#5b5b5b" stroke-width=".46746"/><circle cx="237.517" cy="206.612" r="3.62282" fill="#abaaa0" stroke="#5b5b5b" stroke-width=".46746"/><circle cx="294.782" cy="218.533" r="3.62282" fill="#abaaa0" stroke="#5b5b5b" stroke-width=".46746"/><circle cx="294.782" cy="206.612" r="3.62282" fill="#abaaa0" stroke="#5b5b5b" stroke-width=".46746"/><circle cx="134.443" cy="218.533" r="3.62282" fill="#abaaa0" stroke="#5b5b5b" stroke-width=".46746"/><circle cx="134.443" cy="206.612" r="3.62282" fill="#abaaa0" stroke="#5b5b5b" stroke-width=".46746"/><circle cx="191.707" cy="218.533" r="3.62282" fill="#abaaa0" stroke="#5b5b5b" stroke-width=".46746"/><circle cx="191.707" cy="206.612" r="3.62282" fill="#abaaa0" stroke="#5b5b5b" stroke-width=".46746"/><circle cx="248.97" cy="218.533" r="3.62282" fill="#abaaa0" stroke="#5b5b5b" stroke-width=".46746"/><circle cx="248.97" cy="206.612" r="3.62282" fill="#abaaa0" stroke="#5b5b5b" stroke-width=".46746"/><circle cx="306.234" cy="218.533" r="3.62282" fill="#abaaa0" stroke="#5b5b5b" stroke-width=".46746"/><circle cx="306.234" cy="206.612" r="3.62282" fill="#abaaa0" stroke="#5b5b5b" stroke-width=".46746"/><circle cx="145.895" cy="218.533" r="3.62282" fill="#abaaa0" stroke="#5b5b5b" stroke-width=".46746"/><circle cx="145.895" cy="206.612" r="3.62282" fill="#abaaa0" stroke="#5b5b5b" stroke-width=".46746"/><circle cx="203.159" cy="218.533" r="3.62282" fill="#abaaa0" stroke="#5b5b5b" stroke-width=".46746"/><circle cx="203.159" cy="206.612" r="3.62282" fill="#abaaa0" stroke="#5b5b5b" stroke-width=".46746"/><circle cx="260.424" cy="218.533" r="3.62282" fill="#abaaa0" stroke="#5b5b5b" stroke-width=".46746"/><circle cx="260.424" cy="206.612" r="3.62282" fill="#abaaa0" stroke="#5b5b5b" stroke-width=".46746"/><circle cx="317.687" cy="218.533" r="3.62282" fill="#abaaa0" stroke="#5b5b5b" stroke-width=".46746"/><circle cx="317.687" cy="206.612" r="3.62282" fill="#abaaa0" stroke="#5b5b5b" stroke-width=".46746"/><circle cx="157.348" cy="218.533" r="3.62282" fill="#abaaa0" stroke="#5b5b5b" stroke-width=".46746"/><circle cx="157.348" cy="206.612" r="3.62282" fill="#abaaa0" stroke="#5b5b5b" stroke-width=".46746"/><circle cx="214.612" cy="218.533" r="3.62282" fill="#abaaa0" stroke="#5b5b5b" stroke-width=".46746"/><circle cx="214.612" cy="206.612" r="3.62282" fill="#abaaa0" stroke="#5b5b5b" stroke-width=".46746"/><circle cx="271.876" cy="218.533" r="3.62282" fill="#abaaa0" stroke="#5b5b5b" stroke-width=".46746"/><circle cx="271.876" cy="206.612" r="3.62282" fill="#abaaa0" stroke="#5b5b5b" stroke-width=".46746"/><circle cx="329.14" cy="218.533" r="3.62282" fill="#abaaa0" stroke="#5b5b5b" stroke-width=".46746"/><circle cx="329.14" cy="206.612" r="3.62282" fill="#abaaa0" stroke="#5b5b5b" stroke-width=".46746"/><circle cx="168.801" cy="218.533" r="3.62282" fill="#abaaa0" stroke="#5b5b5b" stroke-width=".46746"/><circle cx="168.801" cy="206.612" r="3.62282" fill="#abaaa0" stroke="#5b5b5b" stroke-width=".46746"/><circle cx="226.065" cy="218.533" r="3.62282" fill="#abaaa0" stroke="#5b5b5b" stroke-width=".46746"/><circle cx="226.065" cy="206.612" r="3.62282" fill="#abaaa0" stroke="#5b5b5b" stroke-width=".46746"/><circle cx="283.329" cy="218.533" r="3.62282" fill="#abaaa0" stroke="#5b5b5b" stroke-width=".46746"/><circle cx="283.329" cy="206.612" r="3.62282" fill="#abaaa0" stroke="#5b5b5b" stroke-width=".46746"/><circle cx="340.593" cy="218.533" r="3.62282" fill="#abaaa0" stroke="#5b5b5b" stroke-width=".46746"/><circle cx="340.593" cy="206.612" r="3.62282" fill="#abaaa0" stroke="#5b5b5b" stroke-width=".46746"/><rect x="312.896" y="61.5829" width="41.791" height="32.2548" fill="#abaaa0" stroke="#5b5b5b" stroke-width=".46746"/><rect x="71.2197" y="75.6067" width="57.0302" height="37.3968" fill="#abaaa0" stroke="#5b5b5b" stroke-width=".46746"/><path d="M58.1309 83.0861c0-1.54900000000001 1.2557-2.8048 2.8047-2.8048h9.8167V108.329H60.9356c-1.549.0-2.8047-1.256-2.8047-2.80499999999999V83.0861z" fill="#5b5b5b" stroke="#5b5b5b" stroke-width=".46746"/><rect x="188.084" y="111.134" width="44.4087" height="35.0595" fill="#abaaa0" stroke="#5b5b5b" stroke-width=".46746"/><rect x="196.265" y="41.0147" width="28.0476" height="70.119" fill="#abaaa0" stroke="#5b5b5b" stroke-width=".46746"/><path fill-rule="evenodd" clip-rule="evenodd" d="M382.547 72.3345V227.999C382.547 231.484 379.722 234.31 376.237 234.31H80.3342C76.8489 234.31 74.0234 231.484 74.0234 227.999V72.3345C74.0234 68.8492 76.8488 66.0238 80.3342 66.0238H256.01C259.495 66.0238 262.321 68.8492 262.321 72.3345V177.971C262.321 180.402 264.292 182.373 266.723 182.373 269.155 182.373 271.126 180.402 271.126 177.971V72.3345C271.126 68.8492 273.952 66.0238 277.437 66.0238h98.8C379.722 66.0238 382.547 68.8492 382.547 72.3345zM361.628 219.117C365.178 219.117 368.056 216.239 368.056 212.689 368.056 209.14 365.178 206.262 361.628 206.262 358.079 206.262 355.201 209.14 355.201 212.689 355.201 216.239 358.079 219.117 361.628 219.117zm-253.947-6.428c0 3.55000000000001-2.878 6.428-6.428 6.428-3.5498.0-6.4275-2.87799999999999-6.4275-6.428C94.8255 209.14 97.7032 206.262 101.253 206.262 104.803 206.262 107.681 209.14 107.681 212.689zm253.947-96.881C365.178 115.808 368.056 112.931 368.056 109.381S365.178 102.953 361.628 102.953C358.079 102.953 355.201 105.831 355.201 109.381S358.079 115.808 361.628 115.808z" fill="#d0cfc8"/><path d="M382.781 227.999V72.3345H382.314V227.999H382.781zM376.237 234.543C379.851 234.543 382.781 231.613 382.781 227.999H382.314c0 3.35599999999999-2.721 6.077-6.077 6.077V234.543zm-295.9028.0H376.237V234.076H80.3342V234.543zM73.7897 227.999C73.7897 231.613 76.7198 234.543 80.3342 234.543V234.076c-3.3562.0-6.077-2.721-6.077-6.077H73.7897zm0-155.6645V227.999H74.2572V72.3345H73.7897zM80.3342 65.7901C76.7198 65.7901 73.7897 68.7201 73.7897 72.3345H74.2572C74.2572 68.9783 76.9779 66.2575 80.3342 66.2575V65.7901zm175.6758.0H80.3342V66.2575H256.01V65.7901zM262.554 72.3345C262.554 68.7201 259.624 65.7901 256.01 65.7901V66.2575C259.366 66.2575 262.087 68.9783 262.087 72.3345H262.554zm0 105.6365V72.3345H262.087V177.971H262.554zM266.723 182.14C264.421 182.14 262.554 180.273 262.554 177.971H262.087C262.087 180.531 264.163 182.607 266.723 182.607V182.14zM270.893 177.971C270.893 180.273 269.026 182.14 266.723 182.14V182.607C269.284 182.607 271.36 180.531 271.36 177.971H270.893zm0-105.6365V177.971H271.36V72.3345H270.893zM277.437 65.7901C273.823 65.7901 270.893 68.7201 270.893 72.3345H271.36C271.36 68.9783 274.081 66.2575 277.437 66.2575V65.7901zm98.8.0h-98.8V66.2575h98.8V65.7901zM382.781 72.3345C382.781 68.7201 379.851 65.7901 376.237 65.7901V66.2575C379.593 66.2575 382.314 68.9783 382.314 72.3345H382.781zM367.822 212.689C367.822 216.11 365.049 218.883 361.628 218.883V219.351C365.307 219.351 368.29 216.368 368.29 212.689H367.822zM361.628 206.496C365.049 206.496 367.822 209.269 367.822 212.689H368.29c0-3.678-2.983-6.661-6.66200000000004-6.661V206.496zM355.435 212.689C355.435 209.269 358.208 206.496 361.628 206.496V206.028c-3.67899999999997.0-6.661 2.983-6.661 6.661H355.435zM361.628 218.883C358.208 218.883 355.435 216.11 355.435 212.689H354.967C354.967 216.368 357.949 219.351 361.628 219.351V218.883zM101.253 219.351c3.679.0 6.661-2.983 6.661-6.66200000000001H107.447C107.447 216.11 104.674 218.883 101.253 218.883V219.351zM94.5917 212.689C94.5917 216.368 97.5741 219.351 101.253 219.351V218.883C97.8323 218.883 95.0592 216.11 95.0592 212.689H94.5917zm6.6613-6.661c-3.6789.0-6.6613 2.983-6.6613 6.661H95.0592C95.0592 209.269 97.8323 206.496 101.253 206.496V206.028zm6.661 6.661c0-3.678-2.982-6.661-6.661-6.661V206.496C104.674 206.496 107.447 209.269 107.447 212.689H107.914zM367.822 109.381C367.822 112.802 365.049 115.575 361.628 115.575V116.042C365.307 116.042 368.29 113.06 368.29 109.381H367.822zM361.628 103.187C365.049 103.187 367.822 105.96 367.822 109.381H368.29C368.29 105.702 365.307 102.719 361.628 102.719V103.187zM355.435 109.381C355.435 105.96 358.208 103.187 361.628 103.187V102.719C357.949 102.719 354.967 105.702 354.967 109.381H355.435zM361.628 115.575C358.208 115.575 355.435 112.802 355.435 109.381H354.967c0 3.679 2.98200000000003 6.661 6.661 6.661V115.575z" fill="#5b5b5b"/><circle cx="361.747" cy="109.498" r="10.0504" fill="#abaaa0" stroke="#5b5b5b" stroke-width=".46746"/><path d="M362.704 106.381C362.704 106.252 362.599 106.147 362.47 106.147h-1.447C360.894 106.147 360.789 106.252 360.789 106.381v1.926C360.789 108.436 360.685 108.54 360.556 108.54H358.63C358.501 108.54 358.396 108.645 358.396 108.774v1.447C358.396 110.35 358.501 110.455 358.63 110.455H360.556C360.685 110.455 360.789 110.559 360.789 110.689V112.614C360.789 112.743 360.894 112.848 361.023 112.848h1.447C362.599 112.848 362.704 112.743 362.704 112.614V110.689C362.704 110.559 362.808 110.455 362.938 110.455H364.863C364.992 110.455 365.097 110.35 365.097 110.221v-1.447C365.097 108.645 364.992 108.54 364.863 108.54H362.938C362.808 108.54 362.704 108.436 362.704 108.307v-1.926z" fill="#5b5b5b"/><circle cx="361.747" cy="212.806" r="10.0504" fill="#abaaa0" stroke="#5b5b5b" stroke-width=".46746"/><path d="M362.704 209.69C362.704 209.561 362.599 209.456 362.47 209.456h-1.447C360.894 209.456 360.789 209.561 360.789 209.69V211.615C360.789 211.745 360.685 211.849 360.556 211.849H358.63C358.501 211.849 358.396 211.954 358.396 212.083v1.447C358.396 213.659 358.501 213.764 358.63 213.764H360.556C360.685 213.764 360.789 213.868 360.789 213.997V215.923C360.789 216.052 360.894 216.156 361.023 216.156h1.447C362.599 216.156 362.704 216.052 362.704 215.923V213.997C362.704 213.868 362.808 213.764 362.938 213.764H364.863C364.992 213.764 365.097 213.659 365.097 213.53v-1.447C365.097 211.954 364.992 211.849 364.863 211.849H362.938C362.808 211.849 362.704 211.745 362.704 211.615V209.69z" fill="#5b5b5b"/><circle cx="101.372" cy="212.806" r="10.0504" fill="#abaaa0" stroke="#5b5b5b" stroke-width=".46746"/><path d="M102.329 209.69C102.329 209.561 102.224 209.456 102.095 209.456h-1.447C100.519 209.456 100.414 209.561 100.414 209.69V211.615C100.414 211.745 100.31 211.849 100.181 211.849H98.2552C98.1261 211.849 98.0215 211.954 98.0215 212.083v1.447C98.0215 213.659 98.1261 213.764 98.2552 213.764h1.9258C100.31 213.764 100.414 213.868 100.414 213.997V215.923C100.414 216.052 100.519 216.156 100.648 216.156h1.447C102.224 216.156 102.329 216.052 102.329 215.923V213.997C102.329 213.868 102.433 213.764 102.563 213.764h1.925C104.617 213.764 104.722 213.659 104.722 213.53v-1.447C104.722 211.954 104.617 211.849 104.488 211.849h-1.925C102.433 211.849 102.329 211.745 102.329 211.615V209.69z" fill="#5b5b5b"/><path d="M159.328 238.517c-48.53.0-86.9403-40.977-86.9403-89.377.0-38.315 25.4886-72.5454 62.3833-84.7523h45.74c18.128 4.4483 32.057 15.4987 43.801 29.2163C228.147 98.0824 231.324 101.668 239.037 102.836h20.919v17.402H266.241 269.965v58.849H266.241 259.956v18.108h-20.67C232.376 200.068 230.969 198.783 226.299 204.041c-18.04 20.313-38.961 34.476-66.971 34.476z" fill="#abaaa0"/><path d="M239.037 102.836C231.324 101.668 228.147 98.0824 224.312 93.604c-11.744-13.7176-25.673-24.768-43.801-29.2163h-45.74C97.8763 76.5946 72.3877 110.825 72.3877 149.14c0 48.4 38.4103 89.377 86.9403 89.377 28.01.0 48.931-14.163 66.971-34.476C230.969 198.783 232.376 200.068 239.286 197.195M239.037 102.836 239.286 197.195M239.037 102.836h20.919v17.402m-20.67 76.957h20.67V179.087m0 0H266.241M259.956 179.087V120.238M266.241 179.087V120.238m0 58.849H269.965V120.238H266.241m0 0H259.956" stroke="#5b5b5b" stroke-width=".46746"/><circle cx="158.166" cy="150.167" r="70.119" transform="rotate(-90 158.166 150.167)" fill="#7f7e74" stroke="#5b5b5b" stroke-width=".46746"/><rect x="302.846" y="187.797" width="27.5802" height="27.5802" transform="rotate(90 302.846 187.797)" fill="#abaaa0" stroke="#5b5b5b" stroke-width=".46746"/><circle cx="289.056" cy="201.587" r="7.47936" transform="rotate(90 289.056 201.587)" fill="#abaaa0" stroke="#5b5b5b" stroke-width=".46746"/><rect x="302.846" y="84.956" width="27.5802" height="27.5802" transform="rotate(90 302.846 84.956)" fill="#abaaa0" stroke="#5b5b5b" stroke-width=".46746"/><circle cx="289.056" cy="98.746" r="7.47936" transform="rotate(90 289.056 98.746)" fill="#abaaa0" stroke="#5b5b5b" stroke-width=".46746"/><rect x="302.846" y="136.377" width="27.5802" height="27.5802" transform="rotate(90 302.846 136.377)" fill="#abaaa0" stroke="#5b5b5b" stroke-width=".46746"/><circle cx="289.056" cy="150.167" r="7.47936" transform="rotate(90 289.056 150.167)" fill="#abaaa0" stroke="#5b5b5b" stroke-width=".46746"/><rect x="60" y="52" width="336.571" height="196.333" rx="8.88175" stroke="#5b5b5b" stroke-width=".46746"/></svg>