<svg width="1450" height="889" viewBox="0 0 1450 889" fill="none" xmlns="http://www.w3.org/2000/svg"><rect x="9" y="48" width="1440" height="840" rx="38" fill="#f1efec"/><path fill-rule="evenodd" clip-rule="evenodd" d="M565 48H47C26.0132 48 9 65.0132 9 86v73H49V101c0-7.1797 5.8203-13 13-13H565V48zM739 88h332V48H739V88zM9 850V299H49V835C49 842.18 54.8203 848 62 848H1396C1403.18 848 1409 842.18 1409 835V101C1409 93.8203 1403.18 88 1396 88H1290V48h121c20.99.0 38 17.0132 38 38V850c0 20.987-17.01 38-38 38H47c-20.9868.0-38-17.013-38-38z" fill="#f1efec"/><path d="M565 48h1V47h-1v1zM9 159H8v1H9v-1zm40 0v1h1v-1H49zM565 88v1h1V88h-1zm506 0v1h1V88h-1zM739 88h-1v1h1V88zm332-40h1V47h-1v1zM739 48V47h-1v1h1zM9 299v-1H8v1H9zm40 0h1v-1H49v1zM1290 88h-1v1h1V88zm0-40V47h-1v1h1zM47 49H565V47H47v2zM10 86c0-20.4345 16.5655-37 37-37V47C25.4609 47 8 64.4609 8 86h2zm0 73V86H8v73h2zm39-1H9v2H49v-2zm-1-57v58h2V101H48zM62 87c-7.732.0-14 6.268-14 14h2C50 94.3726 55.3726 89 62 89V87zm503 0H62v2H565V87zm1 1V48h-2V88h2zm505-1H739v2h332V87zm-1-39V88h2V48h-2zM739 49h332V47H739v2zm-1-1V88h2V48h-2zM8 299V850h2V299H8zm41-1H9v2H49v-2zm1 537V299H48V835h2zm12 12C55.3726 847 50 841.627 50 835H48C48 842.732 54.268 849 62 849v-2zm1334 0H62v2H1396v-2zm12-12C1408 841.627 1402.63 847 1396 847v2C1403.73 849 1410 842.732 1410 835h-2zm0-734V835h2V101h-2zm-12-12C1402.63 89 1408 94.3726 1408 101h2C1410 93.268 1403.73 87 1396 87v2zm-106 0h106V87H1290v2zm-1-41V88h2V48h-2zm122-1H1290v2h121V47zm39 39c0-21.5391-17.46-39-39-39v2C1431.43 49 1448 65.5655 1448 86h2zm0 764V86h-2V850h2zm-39 39c21.54.0 39-17.461 39-39h-2C1448 870.435 1431.43 887 1411 887v2zM47 889H1411v-2H47v2zM8 850c0 21.539 17.4609 39 39 39v-2C26.5655 887 10 870.435 10 850H8z" fill="#5b5b5b"/><rect x="255" y="686" width="975" height="97" fill="#abaaa0" stroke="#5b5b5b" stroke-width="2"/><circle cx="278.5" cy="760.5" r="15.5" fill="#abaaa0" stroke="#5b5b5b" stroke-width="2"/><circle cx="278.5" cy="709.5" r="15.5" fill="#abaaa0" stroke="#5b5b5b" stroke-width="2"/><circle cx="523.5" cy="760.5" r="15.5" fill="#abaaa0" stroke="#5b5b5b" stroke-width="2"/><circle cx="523.5" cy="709.5" r="15.5" fill="#abaaa0" stroke="#5b5b5b" stroke-width="2"/><circle cx="768.5" cy="760.5" r="15.5" fill="#abaaa0" stroke="#5b5b5b" stroke-width="2"/><circle cx="768.5" cy="709.5" r="15.5" fill="#abaaa0" stroke="#5b5b5b" stroke-width="2"/><circle cx="1013.5" cy="760.5" r="15.5" fill="#abaaa0" stroke="#5b5b5b" stroke-width="2"/><circle cx="1013.5" cy="709.5" r="15.5" fill="#abaaa0" stroke="#5b5b5b" stroke-width="2"/><circle cx="327.5" cy="760.5" r="15.5" fill="#abaaa0" stroke="#5b5b5b" stroke-width="2"/><circle cx="327.5" cy="709.5" r="15.5" fill="#abaaa0" stroke="#5b5b5b" stroke-width="2"/><circle cx="572.5" cy="760.5" r="15.5" fill="#abaaa0" stroke="#5b5b5b" stroke-width="2"/><circle cx="572.5" cy="709.5" r="15.5" fill="#abaaa0" stroke="#5b5b5b" stroke-width="2"/><circle cx="817.5" cy="760.5" r="15.5" fill="#abaaa0" stroke="#5b5b5b" stroke-width="2"/><circle cx="817.5" cy="709.5" r="15.5" fill="#abaaa0" stroke="#5b5b5b" stroke-width="2"/><circle cx="1062.5" cy="760.5" r="15.5" fill="#abaaa0" stroke="#5b5b5b" stroke-width="2"/><circle cx="1062.5" cy="709.5" r="15.5" fill="#abaaa0" stroke="#5b5b5b" stroke-width="2"/><circle cx="376.5" cy="760.5" r="15.5" fill="#abaaa0" stroke="#5b5b5b" stroke-width="2"/><circle cx="376.5" cy="709.5" r="15.5" fill="#abaaa0" stroke="#5b5b5b" stroke-width="2"/><circle cx="621.5" cy="760.5" r="15.5" fill="#abaaa0" stroke="#5b5b5b" stroke-width="2"/><circle cx="621.5" cy="709.5" r="15.5" fill="#abaaa0" stroke="#5b5b5b" stroke-width="2"/><circle cx="866.5" cy="760.5" r="15.5" fill="#abaaa0" stroke="#5b5b5b" stroke-width="2"/><circle cx="866.5" cy="709.5" r="15.5" fill="#abaaa0" stroke="#5b5b5b" stroke-width="2"/><circle cx="1111.5" cy="760.5" r="15.5" fill="#abaaa0" stroke="#5b5b5b" stroke-width="2"/><circle cx="1111.5" cy="709.5" r="15.5" fill="#abaaa0" stroke="#5b5b5b" stroke-width="2"/><circle cx="425.5" cy="760.5" r="15.5" fill="#abaaa0" stroke="#5b5b5b" stroke-width="2"/><circle cx="425.5" cy="709.5" r="15.5" fill="#abaaa0" stroke="#5b5b5b" stroke-width="2"/><circle cx="670.5" cy="760.5" r="15.5" fill="#abaaa0" stroke="#5b5b5b" stroke-width="2"/><circle cx="670.5" cy="709.5" r="15.5" fill="#abaaa0" stroke="#5b5b5b" stroke-width="2"/><circle cx="915.5" cy="760.5" r="15.5" fill="#abaaa0" stroke="#5b5b5b" stroke-width="2"/><circle cx="915.5" cy="709.5" r="15.5" fill="#abaaa0" stroke="#5b5b5b" stroke-width="2"/><circle cx="1160.5" cy="760.5" r="15.5" fill="#abaaa0" stroke="#5b5b5b" stroke-width="2"/><circle cx="1160.5" cy="709.5" r="15.5" fill="#abaaa0" stroke="#5b5b5b" stroke-width="2"/><circle cx="474.5" cy="760.5" r="15.5" fill="#abaaa0" stroke="#5b5b5b" stroke-width="2"/><circle cx="474.5" cy="709.5" r="15.5" fill="#abaaa0" stroke="#5b5b5b" stroke-width="2"/><circle cx="719.5" cy="760.5" r="15.5" fill="#abaaa0" stroke="#5b5b5b" stroke-width="2"/><circle cx="719.5" cy="709.5" r="15.5" fill="#abaaa0" stroke="#5b5b5b" stroke-width="2"/><circle cx="964.5" cy="760.5" r="15.5" fill="#abaaa0" stroke="#5b5b5b" stroke-width="2"/><circle cx="964.5" cy="709.5" r="15.5" fill="#abaaa0" stroke="#5b5b5b" stroke-width="2"/><circle cx="1209.5" cy="760.5" r="15.5" fill="#abaaa0" stroke="#5b5b5b" stroke-width="2"/><circle cx="1209.5" cy="709.5" r="15.5" fill="#abaaa0" stroke="#5b5b5b" stroke-width="2"/><rect x="1091" y="89" width="178.8" height="138" fill="#abaaa0" stroke="#5b5b5b" stroke-width="2"/><rect x="57" y="149" width="244" height="160" fill="#abaaa0" stroke="#5b5b5b" stroke-width="2"/><path d="M1 181C1 174.373 6.37258 169 13 169H55V289H13C6.37258 289 1 283.627 1 277V181z" fill="#5b5b5b" stroke="#5b5b5b" stroke-width="2"/><rect x="557" y="301" width="190" height="150" fill="#abaaa0" stroke="#5b5b5b" stroke-width="2"/><rect x="592" y="1" width="120" height="300" fill="#abaaa0" stroke="#5b5b5b" stroke-width="2"/><path fill-rule="evenodd" clip-rule="evenodd" d="M1389 135V801C1389 815.912 1376.91 828 1362 828H96c-14.9117.0-27-12.088-27-27V135c0-14.912 12.0883-27 27-27H847.617c14.912.0 27 12.088 27 27V586.957C874.617 597.361 883.051 605.795 893.455 605.795 903.858 605.795 912.292 597.361 912.292 586.957V135c0-14.912 12.088-27 27-27H1362C1376.91 108 1389 120.088 1389 135zm-89.5 628C1314.69 763 1327 750.688 1327 735.5S1314.69 708 1299.5 708s-27.5 12.312-27.5 27.5S1284.31 763 1299.5 763zM213 735.5c0 15.188-12.312 27.5-27.5 27.5S158 750.688 158 735.5 170.312 708 185.5 708 213 720.312 213 735.5zM1299.5 321C1314.69 321 1327 308.688 1327 293.5S1314.69 266 1299.5 266s-27.5 12.312-27.5 27.5S1284.31 321 1299.5 321z" fill="#d0cfc8"/><path d="M1390 801V135h-2V801h2zm-28 28C1377.46 829 1390 816.464 1390 801h-2C1388 815.359 1376.36 827 1362 827v2zM96 829H1362v-2H96v2zM68 801C68 816.464 80.536 829 96 829v-2c-14.3594.0-26-11.641-26-26H68zm0-666V801h2V135H68zm28-28c-15.464.0-28 12.536-28 28h2c0-14.359 11.6406-26 26-26v-2zm751.617.0H96v2H847.617v-2zm28 28c0-15.464-12.5359999999999-28-28-28v2c14.36.0 26 11.641 26 26h2zm0 451.957V135h-2V586.957h2zM893.455 604.795C883.604 604.795 875.617 596.809 875.617 586.957h-2C873.617 597.913 882.499 606.795 893.455 606.795v-2zm17.837-17.838C911.292 596.809 903.306 604.795 893.455 604.795v2C904.411 606.795 913.292 597.913 913.292 586.957h-2zm0-451.957V586.957h2V135h-2zm28-28c-15.4640000000001.0-28 12.536-28 28h2c0-14.359 11.641-26 26-26v-2zM1362 107H939.292v2H1362v-2zm28 28c0-15.464-12.54-28-28-28v2C1376.36 109 1388 120.641 1388 135h2zm-64 600.5C1326 750.135 1314.14 762 1299.5 762v2c15.74.0 28.5-12.76 28.5-28.5h-2zM1299.5 709C1314.14 709 1326 720.865 1326 735.5h2c0-15.74-12.76-28.5-28.5-28.5v2zM1273 735.5C1273 720.865 1284.86 709 1299.5 709v-2c-15.74.0-28.5 12.76-28.5 28.5h2zm26.5 26.5C1284.86 762 1273 750.135 1273 735.5h-2c0 15.74 12.76 28.5 28.5 28.5v-2zm-1114 2c15.74.0 28.5-12.76 28.5-28.5h-2c0 14.635-11.864 26.5-26.5 26.5v2zM157 735.5c0 15.74 12.76 28.5 28.5 28.5v-2c-14.636.0-26.5-11.865-26.5-26.5h-2zM185.5 707c-15.74.0-28.5 12.76-28.5 28.5h2c0-14.635 11.864-26.5 26.5-26.5v-2zM214 735.5c0-15.74-12.76-28.5-28.5-28.5v2c14.636.0 26.5 11.865 26.5 26.5h2zm1112-442C1326 308.136 1314.14 320 1299.5 320v2c15.74.0 28.5-12.76 28.5-28.5h-2zM1299.5 267C1314.14 267 1326 278.864 1326 293.5h2c0-15.74-12.76-28.5-28.5-28.5v2zM1273 293.5C1273 278.864 1284.86 267 1299.5 267v-2c-15.74.0-28.5 12.76-28.5 28.5h2zm26.5 26.5C1284.86 320 1273 308.136 1273 293.5h-2c0 15.74 12.76 28.5 28.5 28.5v-2z" fill="#5b5b5b"/><circle cx="1300" cy="294" r="43" fill="#abaaa0" stroke="#5b5b5b" stroke-width="2"/><path d="M1304.1 280.667c0-.552999999999997-.449999999999818-1-1-1H1296.91c-.560000000000173.0-1 .447000000000003-1 1v8.238c0 .552000000000021-.450000000000046 1-1 1H1286.67c-.560000000000173.0-1 .447000000000003-1 1V297.095c0 .551999999999964.439999999999827 1 1 1H1294.91c.549999999999955.0 1 .447999999999979 1 1v8.238c0 .552999999999997.439999999999827 1 1 1H1303.1c.550000000000182.0 1-.447000000000003 1-1v-8.238c0-.552000000000021.440000000000055-1 1-1H1313.33c.560000000000173.0 1-.448000000000036 1-1V290.905c0-.552999999999997-.439999999999827-1-1-1H1305.1c-.559999999999945.0-1-.447999999999979-1-1v-8.238z" fill="#5b5b5b"/><circle cx="1300" cy="736" r="43" fill="#abaaa0" stroke="#5b5b5b" stroke-width="2"/><path d="M1304.1 722.667c0-.552999999999997-.449999999999818-1-1-1H1296.91c-.560000000000173.0-1 .447000000000003-1 1V730.905c0 .552000000000021-.450000000000046 1-1 1H1286.67c-.560000000000173.0-1 .447000000000003-1 1V739.095c0 .552000000000021.439999999999827 1 1 1H1294.91c.549999999999955.0 1 .447999999999979 1 1V749.333c0 .552999999999997.439999999999827 1 1 1H1303.1c.550000000000182.0 1-.447000000000003 1-1V741.095c0-.552000000000021.440000000000055-1 1-1H1313.33c.560000000000173.0 1-.447999999999979 1-1V732.905c0-.552999999999997-.439999999999827-1-1-1H1305.1c-.559999999999945.0-1-.447999999999979-1-1V722.667z" fill="#5b5b5b"/><circle cx="186" cy="736" r="43" fill="#abaaa0" stroke="#5b5b5b" stroke-width="2"/><path d="M190.096 722.667c0-.552999999999997-.448000000000008-1-1-1h-6.191c-.551999999999993.0-1 .447000000000003-1 1V730.905c0 .552000000000021-.448000000000008 1-1 1h-8.238c-.551999999999993.0-1 .447000000000003-1 1V739.095c0 .552000000000021.448000000000008 1 1 1h8.238c.551999999999993.0 1 .447999999999979 1 1V749.333c0 .552999999999997.448000000000008 1 1 1h6.191c.551999999999993.0 1-.447000000000003 1-1V741.095c0-.552000000000021.447000000000003-1 1-1h8.238c.551999999999993.0 1-.447999999999979 1-1V732.905c0-.552999999999997-.448000000000008-1-1-1h-8.238c-.552999999999997.0-1-.447999999999979-1-1V722.667z" fill="#5b5b5b"/><path d="M433.97 846C226.337 846 62 670.684 62 463.609 62 299.677 171.051 153.226 328.902 101H524.597C602.157 120.032 661.751 167.31 712 226c16.405 19.16 30 34.5 63 39.5h89.5v74.452h26.889H907.324V591.735H891.389 864.5v77.471H776.063C746.5 681.5 740.482 676 720.5 698.5 643.317 785.407 553.81 846 433.97 846z" fill="#abaaa0"/><path d="M775 265.5c-33-5-46.595-20.34-63-39.5-50.249-58.69-109.843-105.968-187.403-125H328.902C171.051 153.226 62 299.677 62 463.609 62 670.684 226.337 846 433.97 846c119.84.0 209.347-60.593 286.53-147.5 19.982-22.5 26-17 55.563-29.294M775 265.5 776.063 669.206M775 265.5h89.5v74.452M776.063 669.206H864.5V591.735m0 0h26.889m-26.889.0V339.952m26.889 251.783V339.952m0 251.783H907.324V339.952H891.389m0 0H864.5" stroke="#5b5b5b" stroke-width="2"/><circle cx="429" cy="468" r="300" transform="rotate(-90 429 468)" fill="#7f7e74" stroke="#5b5b5b" stroke-width="2"/><rect x="1048" y="629" width="118" height="118" transform="rotate(90 1048 629)" fill="#abaaa0" stroke="#5b5b5b" stroke-width="2"/><circle cx="989.001" cy="688" r="32" transform="rotate(90 989.001 688)" fill="#abaaa0" stroke="#5b5b5b" stroke-width="2"/><rect x="1048" y="189" width="118" height="118" transform="rotate(90 1048 189)" fill="#abaaa0" stroke="#5b5b5b" stroke-width="2"/><circle cx="989.001" cy="248" r="32" transform="rotate(90 989.001 248)" fill="#abaaa0" stroke="#5b5b5b" stroke-width="2"/><rect x="1048" y="409" width="118" height="118" transform="rotate(90 1048 409)" fill="#abaaa0" stroke="#5b5b5b" stroke-width="2"/><circle cx="989.001" cy="468" r="32" transform="rotate(90 989.001 468)" fill="#abaaa0" stroke="#5b5b5b" stroke-width="2"/><rect x="9" y="48" width="1440" height="840" rx="38" stroke="#5b5b5b" stroke-width="2"/></svg>