<svg width="1270" height="775" viewBox="0 0 1270 775" fill="none" xmlns="http://www.w3.org/2000/svg"><rect x="129" y="157" width="1011.36" height="589.959" rx="26.6886" fill="#fafaf8"/><path fill-rule="evenodd" clip-rule="evenodd" d="M519.492 157H155.685c-14.74.0-26.689 11.949-26.689 26.689v51.27H157.09V194.224C157.09 189.181 161.178 185.093 166.22 185.093H519.492V157zm122.206 28.093H874.875V157H641.698v28.093zM128.996 720.271V333.285H157.09V709.736C157.09 714.778 161.178 718.866 166.22 718.866h936.91C1108.17 718.866 1112.26 714.778 1112.26 709.736V194.224C1112.26 189.181 1108.17 185.093 1103.13 185.093H1028.69V157h84.98C1128.41 157 1140.36 168.949 1140.36 183.689V720.271C1140.36 735.01 1128.41 746.959 1113.67 746.959H155.685c-14.74.0-26.689-11.949-26.689-26.688z" fill="#fafaf8"/><path d="M519.492 157H520.195V156.298H519.492V157zM128.996 234.959H128.294V235.661H128.996V234.959zm28.094.0V235.661H157.792V234.959H157.09zm362.402-49.866V185.796H520.195V185.093H519.492zm355.383.0V185.796H875.577V185.093H874.875zm-233.177.0H640.996V185.796H641.698V185.093zM874.875 157H875.577V156.298H874.875V157zm-233.177.0V156.298H640.996V157H641.698zM128.996 333.285V332.583H128.294V333.285H128.996zm28.094.0H157.792V332.583H157.09V333.285zm871.6-148.192H1027.98V185.796H1028.69V185.093zm0-28.093V156.298H1027.98V157H1028.69zM155.685 157.702H519.492v-1.404H155.685v1.404zm-25.987 25.987c0-14.352 11.635-25.987 25.987-25.987v-1.404c-15.128.0-27.391 12.263-27.391 27.391h1.404zm0 51.27v-51.27h-1.404v51.27h1.404zM157.09 234.257H128.996v1.404H157.09v-1.404zM156.388 194.224v40.735h1.404V194.224h-1.404zM166.22 184.391C160.79 184.391 156.388 188.793 156.388 194.224h1.404c0-4.655 3.774-8.428 8.428-8.428v-1.405zm353.272.0H166.22v1.405H519.492v-1.405zM520.195 185.093V157H518.79v28.093H520.195zM874.875 184.391H641.698v1.405H874.875v-1.405zM874.173 157v28.093h1.404V157h-1.404zM641.698 157.702H874.875v-1.404H641.698v1.404zM640.996 157v28.093H642.4V157h-1.404zM128.294 333.285V720.271h1.404V333.285h-1.404zM157.09 332.583H128.996V333.988H157.09V332.583zM157.792 709.736V333.285h-1.404V709.736h1.404zm8.428 8.428c-4.655.0-8.428-3.774-8.428-8.428h-1.404C156.388 715.166 160.79 719.568 166.22 719.568v-1.404zm936.91.0H166.22v1.404h936.91v-1.404zM1111.56 709.736C1111.56 714.39 1107.79 718.164 1103.13 718.164v1.404C1108.56 719.568 1112.96 715.166 1112.96 709.736H1111.56zm0-515.512V709.736H1112.96V194.224H1111.56zM1103.13 185.796C1107.79 185.796 1111.56 189.569 1111.56 194.224H1112.96C1112.96 188.793 1108.56 184.391 1103.13 184.391v1.405zM1028.69 185.796H1103.13v-1.405H1028.69v1.405zM1027.98 157v28.093H1029.39V157H1027.98zM1113.67 156.298h-84.98v1.404h84.98v-1.404zM1141.06 183.689c0-15.128-12.27-27.391-27.3899999999999-27.391v1.404c14.3499999999999.0 25.98 11.635 25.98 25.987H1141.06zm0 536.582V183.689H1139.65V720.271H1141.06zM1113.67 747.662C1128.79 747.662 1141.06 735.398 1141.06 720.271H1139.65C1139.65 734.623 1128.02 746.257 1113.67 746.257V747.662zm-957.985.0H1113.67V746.257H155.685V747.662zM128.294 720.271C128.294 735.398 140.557 747.662 155.685 747.662V746.257C141.333 746.257 129.698 734.623 129.698 720.271h-1.404z" fill="#5b5b5b"/><rect x="301.77" y="605.088" width="684.774" height="68.1263" fill="#cecdc5" stroke="#5b5b5b" stroke-width="1.40467"/><circle cx="318.273" cy="657.412" r="10.8862" fill="#cecdc5" stroke="#5b5b5b" stroke-width="1.40467"/><circle cx="318.273" cy="621.593" r="10.8862" fill="#cecdc5" stroke="#5b5b5b" stroke-width="1.40467"/><circle cx="490.343" cy="657.412" r="10.8862" fill="#cecdc5" stroke="#5b5b5b" stroke-width="1.40467"/><circle cx="490.343" cy="621.593" r="10.8862" fill="#cecdc5" stroke="#5b5b5b" stroke-width="1.40467"/><circle cx="662.414" cy="657.412" r="10.8862" fill="#cecdc5" stroke="#5b5b5b" stroke-width="1.40467"/><circle cx="662.414" cy="621.593" r="10.8862" fill="#cecdc5" stroke="#5b5b5b" stroke-width="1.40467"/><circle cx="834.488" cy="657.412" r="10.8862" fill="#cecdc5" stroke="#5b5b5b" stroke-width="1.40467"/><circle cx="834.488" cy="621.593" r="10.8862" fill="#cecdc5" stroke="#5b5b5b" stroke-width="1.40467"/><circle cx="352.687" cy="657.412" r="10.8862" fill="#cecdc5" stroke="#5b5b5b" stroke-width="1.40467"/><circle cx="352.687" cy="621.593" r="10.8862" fill="#cecdc5" stroke="#5b5b5b" stroke-width="1.40467"/><circle cx="524.761" cy="657.412" r="10.8862" fill="#cecdc5" stroke="#5b5b5b" stroke-width="1.40467"/><circle cx="524.761" cy="621.593" r="10.8862" fill="#cecdc5" stroke="#5b5b5b" stroke-width="1.40467"/><circle cx="696.831" cy="657.412" r="10.8862" fill="#cecdc5" stroke="#5b5b5b" stroke-width="1.40467"/><circle cx="696.831" cy="621.593" r="10.8862" fill="#cecdc5" stroke="#5b5b5b" stroke-width="1.40467"/><circle cx="868.902" cy="657.412" r="10.8862" fill="#cecdc5" stroke="#5b5b5b" stroke-width="1.40467"/><circle cx="868.902" cy="621.593" r="10.8862" fill="#cecdc5" stroke="#5b5b5b" stroke-width="1.40467"/><circle cx="387.101" cy="657.412" r="10.8862" fill="#cecdc5" stroke="#5b5b5b" stroke-width="1.40467"/><circle cx="387.101" cy="621.593" r="10.8862" fill="#cecdc5" stroke="#5b5b5b" stroke-width="1.40467"/><circle cx="559.175" cy="657.412" r="10.8862" fill="#cecdc5" stroke="#5b5b5b" stroke-width="1.40467"/><circle cx="559.175" cy="621.593" r="10.8862" fill="#cecdc5" stroke="#5b5b5b" stroke-width="1.40467"/><circle cx="731.242" cy="657.412" r="10.8862" fill="#cecdc5" stroke="#5b5b5b" stroke-width="1.40467"/><circle cx="731.242" cy="621.593" r="10.8862" fill="#cecdc5" stroke="#5b5b5b" stroke-width="1.40467"/><circle cx="903.316" cy="657.412" r="10.8862" fill="#cecdc5" stroke="#5b5b5b" stroke-width="1.40467"/><circle cx="903.316" cy="621.593" r="10.8862" fill="#cecdc5" stroke="#5b5b5b" stroke-width="1.40467"/><circle cx="421.515" cy="657.412" r="10.8862" fill="#cecdc5" stroke="#5b5b5b" stroke-width="1.40467"/><circle cx="421.515" cy="621.593" r="10.8862" fill="#cecdc5" stroke="#5b5b5b" stroke-width="1.40467"/><circle cx="593.589" cy="657.412" r="10.8862" fill="#cecdc5" stroke="#5b5b5b" stroke-width="1.40467"/><circle cx="593.589" cy="621.593" r="10.8862" fill="#cecdc5" stroke="#5b5b5b" stroke-width="1.40467"/><circle cx="765.66" cy="657.412" r="10.8862" fill="#cecdc5" stroke="#5b5b5b" stroke-width="1.40467"/><circle cx="765.66" cy="621.593" r="10.8862" fill="#cecdc5" stroke="#5b5b5b" stroke-width="1.40467"/><circle cx="937.73" cy="657.412" r="10.8862" fill="#cecdc5" stroke="#5b5b5b" stroke-width="1.40467"/><circle cx="937.73" cy="621.593" r="10.8862" fill="#cecdc5" stroke="#5b5b5b" stroke-width="1.40467"/><circle cx="455.929" cy="657.412" r="10.8862" fill="#cecdc5" stroke="#5b5b5b" stroke-width="1.40467"/><circle cx="455.929" cy="621.593" r="10.8862" fill="#cecdc5" stroke="#5b5b5b" stroke-width="1.40467"/><circle cx="628.003" cy="657.412" r="10.8862" fill="#cecdc5" stroke="#5b5b5b" stroke-width="1.40467"/><circle cx="628.003" cy="621.593" r="10.8862" fill="#cecdc5" stroke="#5b5b5b" stroke-width="1.40467"/><circle cx="800.074" cy="657.412" r="10.8862" fill="#cecdc5" stroke="#5b5b5b" stroke-width="1.40467"/><circle cx="800.074" cy="621.593" r="10.8862" fill="#cecdc5" stroke="#5b5b5b" stroke-width="1.40467"/><circle cx="972.144" cy="657.412" r="10.8862" fill="#cecdc5" stroke="#5b5b5b" stroke-width="1.40467"/><circle cx="972.144" cy="621.593" r="10.8862" fill="#cecdc5" stroke="#5b5b5b" stroke-width="1.40467"/><rect x="888.922" y="185.796" width="125.577" height="96.9219" fill="#cecdc5" stroke="#5b5b5b" stroke-width="1.40467"/><rect x="162.711" y="227.936" width="171.369" height="112.373" fill="#cecdc5" stroke="#5b5b5b" stroke-width="1.40467"/><path d="M123.379 250.41c0-4.654 3.773-8.428 8.42799999999998-8.428h29.498v84.28H131.807C127.152 326.262 123.379 322.489 123.379 317.834V250.41z" fill="#373737" stroke="#373737" stroke-width="1.40467"/><rect x="513.879" y="302.383" width="133.443" height="105.35" fill="#cecdc5" stroke="#5b5b5b" stroke-width="1.40467"/><rect x="538.461" y="91.6831" width="84.2799" height="210.7" fill="#cecdc5" stroke="#5b5b5b" stroke-width="1.40467"/><rect x="538.461" y="91.6831" width="84.2799" height="175.583" fill="#cecdc5"/><path d="M527.222 85.0088C527.222 81.3952 529.725 78.3002 533.254 77.6741 542.475 76.038 560.382 73.4225 580.599 73.4225 600.816 73.4225 618.723 76.038 627.945 77.6741 631.474 78.3002 633.976 81.3952 633.976 85.0087V266.564H527.222V85.0088z" fill="#df9291" stroke="#5b5b5b" stroke-width="1.40467"/><path fill-rule="evenodd" clip-rule="evenodd" d="M1098.22 218.103V685.857c0 10.472-8.49000000000001 18.962-18.97 18.962H190.1C179.627 704.819 171.137 696.329 171.137 685.857V218.103C171.137 207.63 179.627 199.14 190.1 199.14H717.985C728.458 199.14 736.948 207.63 736.948 218.103V535.527c0 7.3069999999999 5.923 13.231 13.23 13.231S763.408 542.834 763.408 535.527V218.103C763.408 207.63 771.898 199.14 782.371 199.14H1079.25c10.48.0 18.97 8.49000000000001 18.97 18.963zM1035.36 659.168C1046.02 659.168 1054.67 650.521 1054.67 639.854 1054.67 629.187 1046.02 620.54 1035.36 620.54 1024.69 620.54 1016.04 629.187 1016.04 639.854 1016.04 650.521 1024.69 659.168 1035.36 659.168zM272.273 639.854C272.273 650.521 263.626 659.168 252.959 659.168 242.292 659.168 233.645 650.521 233.645 639.854 233.645 629.187 242.292 620.54 252.959 620.54S272.273 629.187 272.273 639.854zM1035.36 348.737C1046.02 348.737 1054.67 340.09 1054.67 329.423 1054.67 318.756 1046.02 310.109 1035.36 310.109 1024.69 310.109 1016.04 318.756 1016.04 329.423 1016.04 340.09 1024.69 348.737 1035.36 348.737z" fill="#f1efec"/><path d="M1098.92 685.857V218.103H1097.51V685.857H1098.92zM1079.25 705.522C1090.11 705.522 1098.92 696.717 1098.92 685.857H1097.51c0 10.085-8.17000000000007 18.26-18.26 18.26V705.522zm-889.15.0h889.15V704.117H190.1V705.522zM170.434 685.857C170.434 696.717 179.239 705.522 190.1 705.522V704.117c-10.085.0-18.261-8.17499999999996-18.261-18.26h-1.405zm0-467.754V685.857h1.405V218.103h-1.405zM190.1 198.438c-10.861.0-19.666 8.804-19.666 19.665h1.405C171.839 208.018 180.015 199.842 190.1 199.842V198.438zm527.885.0H190.1V199.842H717.985V198.438zM737.651 218.103C737.651 207.242 728.846 198.438 717.985 198.438V199.842C728.07 199.842 736.246 208.018 736.246 218.103H737.651zm0 317.424V218.103H736.246V535.527H737.651zM750.178 548.055C743.259 548.055 737.651 542.446 737.651 535.527H736.246C736.246 543.222 742.484 549.46 750.178 549.46V548.055zM762.706 535.527C762.706 542.446 757.097 548.055 750.178 548.055V549.46C757.873 549.46 764.111 543.222 764.111 535.527H762.706zm0-317.424V535.527H764.111V218.103H762.706zm19.665-19.665c-10.861.0-19.665 8.804-19.665 19.665H764.111c0-10.085 8.17499999999996-18.261 18.26-18.261V198.438zm296.879.0H782.371V199.842H1079.25V198.438zM1098.92 218.103C1098.92 207.242 1090.11 198.438 1079.25 198.438V199.842C1089.34 199.842 1097.51 208.018 1097.51 218.103H1098.92zm-44.95 421.751C1053.97 650.133 1045.64 658.466 1035.36 658.466v1.404C1046.41 659.87 1055.37 650.909 1055.37 639.854H1053.97zM1035.36 621.242C1045.64 621.242 1053.97 629.575 1053.97 639.854H1055.37C1055.37 628.799 1046.41 619.837 1035.36 619.837V621.242zM1016.75 639.854C1016.75 629.575 1025.08 621.242 1035.36 621.242V619.837C1024.3 619.837 1015.34 628.799 1015.34 639.854H1016.75zM1035.36 658.466C1025.08 658.466 1016.75 650.133 1016.75 639.854H1015.34C1015.34 650.909 1024.3 659.87 1035.36 659.87v-1.404zM252.959 659.87C264.013 659.87 272.975 650.909 272.975 639.854H271.57C271.57 650.133 263.238 658.466 252.959 658.466v1.404zm-20.017-20.016C232.942 650.909 241.904 659.87 252.959 659.87v-1.404C242.68 658.466 234.347 650.133 234.347 639.854h-1.405zM252.959 619.837C241.904 619.837 232.942 628.799 232.942 639.854h1.405C234.347 629.575 242.68 621.242 252.959 621.242V619.837zM272.975 639.854C272.975 628.799 264.013 619.837 252.959 619.837V621.242C263.238 621.242 271.57 629.575 271.57 639.854H272.975zM1053.97 329.423C1053.97 339.702 1045.64 348.035 1035.36 348.035v1.404C1046.41 349.439 1055.37 340.478 1055.37 329.423H1053.97zM1035.36 310.811C1045.64 310.811 1053.97 319.144 1053.97 329.423H1055.37c0-11.055-8.95999999999981-20.017-20.01-20.017V310.811zM1016.75 329.423C1016.75 319.144 1025.08 310.811 1035.36 310.811V309.406C1024.3 309.406 1015.34 318.368 1015.34 329.423H1016.75zM1035.36 348.035C1025.08 348.035 1016.75 339.702 1016.75 329.423H1015.34C1015.34 340.478 1024.3 349.439 1035.36 349.439v-1.404z" fill="#5b5b5b"/><circle cx="1035.71" cy="329.774" r="21.07" fill="#abaaa0" stroke="#5b5b5b" stroke-width="1.40467"/><path d="M1037.71 323.453C1037.71 323.065 1037.4 322.75 1037.01 322.75H1034.4C1034.01 322.75 1033.7 323.065 1033.7 323.453V327.065C1033.7 327.453 1033.39 327.767 1033 327.767H1029.39C1029 327.767 1028.68 328.082 1028.68 328.469V331.078C1028.68 331.466 1029 331.78 1029.39 331.78H1033C1033.39 331.78 1033.7 332.095 1033.7 332.483V336.095C1033.7 336.483 1034.01 336.797 1034.4 336.797H1037.01C1037.4 336.797 1037.71 336.483 1037.71 336.095V332.483C1037.71 332.095 1038.03 331.78 1038.42 331.78H1042.03C1042.42 331.78 1042.73 331.466 1042.73 331.078V328.469C1042.73 328.082 1042.42 327.767 1042.03 327.767H1038.42C1038.03 327.767 1037.71 327.453 1037.71 327.065V323.453z" fill="#5b5b5b"/><circle cx="1035.71" cy="640.205" r="21.07" fill="#abaaa0" stroke="#5b5b5b" stroke-width="1.40467"/><path d="M1037.71 633.884C1037.71 633.496 1037.4 633.181 1037.01 633.181H1034.4C1034.01 633.181 1033.7 633.496 1033.7 633.884V637.496C1033.7 637.884 1033.39 638.198 1033 638.198H1029.39C1029 638.198 1028.68 638.513 1028.68 638.9V641.509C1028.68 641.897 1029 642.211 1029.39 642.211H1033C1033.39 642.211 1033.7 642.526 1033.7 642.914V646.526C1033.7 646.914 1034.01 647.228 1034.4 647.228H1037.01C1037.4 647.228 1037.71 646.914 1037.71 646.526V642.914C1037.71 642.526 1038.03 642.211 1038.42 642.211H1042.03C1042.42 642.211 1042.73 641.897 1042.73 641.509V638.9C1042.73 638.513 1042.42 638.198 1042.03 638.198H1038.42C1038.03 638.198 1037.71 637.884 1037.71 637.496V633.884z" fill="#5b5b5b"/><circle cx="253.308" cy="640.205" r="21.07" fill="#abaaa0" stroke="#5b5b5b" stroke-width="1.40467"/><path d="M255.315 633.884C255.315 633.496 255.001 633.182 254.613 633.182H252.004C251.616 633.182 251.302 633.496 251.302 633.884V637.496C251.302 637.884 250.987 638.198 250.599 638.198H246.987C246.6 638.198 246.285 638.513 246.285 638.901V641.509C246.285 641.897 246.6 642.212 246.987 642.212H250.599C250.987 642.212 251.302 642.526 251.302 642.914V646.526C251.302 646.914 251.616 647.228 252.004 647.228H254.613C255.001 647.228 255.315 646.914 255.315 646.526V642.914C255.315 642.526 255.63 642.212 256.017 642.212H259.629C260.017 642.212 260.332 641.897 260.332 641.509V638.901C260.332 638.513 260.017 638.198 259.629 638.198H256.017C255.63 638.198 255.315 637.884 255.315 637.496V633.884z" fill="#5b5b5b"/><path d="M427.466 717.461c-145.828.0-261.247-123.13-261.247-268.565.0-115.135 76.59-217.992 187.454-254.672H491.116c54.472 13.366 96.328 46.571 131.619 87.791C634.256 295.472 643.805 306.246 666.982 309.757h62.859v52.291h18.885 11.191V538.883H748.726 729.841v54.41H667.729C646.965 601.928 642.739 598.065 628.705 613.867 574.497 674.905 511.633 717.461 427.466 717.461z" fill="#cecdc5"/><path d="M666.982 309.757C643.805 306.246 634.256 295.472 622.735 282.015 587.444 240.795 545.588 207.59 491.116 194.224H353.673c-110.864 36.68-187.454 139.537-187.454 254.672.0 145.435 115.419 268.565 261.247 268.565 84.167.0 147.031-42.556 201.239-103.594C642.739 598.065 646.965 601.928 667.729 593.293M666.982 309.757 667.729 593.293M666.982 309.757h62.859v52.291M667.729 593.293h62.112v-54.41m0 0h18.885m-18.885.0V362.048m18.885 176.835V362.048m0 176.835h11.191V362.048H748.726m0 0H729.841" stroke="#5b5b5b" stroke-width="1.40467"/><circle cx="423.977" cy="451.98" r="210.7" transform="rotate(-90 423.977 451.98)" fill="#cecdc5" stroke="#5b5b5b" stroke-width="1.40467"/><rect x="858.716" y="565.055" width="82.8753" height="82.8753" transform="rotate(90 858.716 565.055)" fill="#cecdc5" stroke="#5b5b5b" stroke-width="1.40467"/><circle cx="817.28" cy="606.493" r="22.4746" transform="rotate(90 817.28 606.493)" fill="#cecdc5" stroke="#5b5b5b" stroke-width="1.40467"/><rect x="858.716" y="256.029" width="82.8753" height="82.8753" transform="rotate(90 858.716 256.029)" fill="#cecdc5" stroke="#5b5b5b" stroke-width="1.40467"/><circle cx="817.28" cy="297.467" r="22.4746" transform="rotate(90 817.28 297.467)" fill="#cecdc5" stroke="#5b5b5b" stroke-width="1.40467"/><rect x="858.716" y="410.542" width="82.8753" height="82.8753" transform="rotate(90 858.716 410.542)" fill="#cecdc5" stroke="#5b5b5b" stroke-width="1.40467"/><circle cx="817.28" cy="451.98" r="22.4746" transform="rotate(90 817.28 451.98)" fill="#cecdc5" stroke="#5b5b5b" stroke-width="1.40467"/><rect x="816.583" y="565.055" width="82.8753" height="82.8753" transform="rotate(90 816.583 565.055)" fill="#b5d1b0" stroke="#5b5b5b" stroke-width="1.40467"/><circle cx="775.147" cy="606.493" r="22.4746" transform="rotate(90 775.147 606.493)" fill="#b5d1b0" stroke="#5b5b5b" stroke-width="1.40467"/><rect x="816.583" y="256.029" width="82.8753" height="82.8753" transform="rotate(90 816.583 256.029)" fill="#b5d1b0" stroke="#5b5b5b" stroke-width="1.40467"/><circle cx="775.147" cy="297.467" r="22.4746" transform="rotate(90 775.147 297.467)" fill="#b5d1b0" stroke="#5b5b5b" stroke-width="1.40467"/><rect x="816.583" y="410.542" width="82.8753" height="82.8753" transform="rotate(90 816.583 410.542)" fill="#b5d1b0" stroke="#5b5b5b" stroke-width="1.40467"/><circle cx="775.147" cy="451.98" r="22.4746" transform="rotate(90 775.147 451.98)" fill="#b5d1b0" stroke="#5b5b5b" stroke-width="1.40467"/><path fill-rule="evenodd" clip-rule="evenodd" d="M155.685 157c-14.74.0-26.689 11.949-26.689 26.689V720.271c0 14.739 11.949 26.688 26.689 26.688H1113.67C1128.41 746.959 1140.36 735.01 1140.36 720.271V183.689C1140.36 168.949 1128.41 157 1113.67 157H155.685zM762.499 606.493C762.499 636.748 787.025 661.275 817.281 661.275 847.536 661.275 872.062 636.748 872.062 606.493S847.536 551.711 817.281 551.711C787.025 551.711 762.499 576.238 762.499 606.493zM817.281 506.762C787.025 506.762 762.499 482.235 762.499 451.98c0-30.256 24.526-54.782 54.7819999999999-54.782C847.536 397.198 872.062 421.724 872.062 451.98 872.062 482.235 847.536 506.762 817.281 506.762zM762.499 297.466c0 30.256 24.526 54.782 54.7819999999999 54.782C847.536 352.248 872.062 327.722 872.062 297.466 872.062 267.211 847.536 242.685 817.281 242.685 787.025 242.685 762.499 267.211 762.499 297.466z" fill="#fafaf8"/><path d="M129.698 183.689c0-14.352 11.635-25.987 25.987-25.987v-1.404c-15.128.0-27.391 12.263-27.391 27.391h1.404zm0 536.582V183.689h-1.404V720.271h1.404zm25.987 25.986C141.333 746.257 129.698 734.623 129.698 720.271h-1.404C128.294 735.398 140.557 747.662 155.685 747.662V746.257zm957.985.0H155.685V747.662H1113.67V746.257zm25.98-25.986C1139.65 734.623 1128.02 746.257 1113.67 746.257V747.662C1128.79 747.662 1141.06 735.398 1141.06 720.271H1139.65zm0-536.582V720.271H1141.06V183.689H1139.65zm-25.98-25.987c14.3499999999999.0 25.98 11.635 25.98 25.987H1141.06c0-15.128-12.27-27.391-27.3899999999999-27.391v1.404zm-957.985.0H1113.67v-1.404H155.685v1.404zm661.596 502.87C787.413 660.572 763.201 636.36 763.201 606.493H761.796C761.796 637.136 786.637 661.977 817.281 661.977V660.572zM871.36 606.493C871.36 636.36 847.148 660.572 817.281 660.572V661.977c30.643.0 55.484-24.841 55.484-55.4839999999999H871.36zM817.281 552.413C847.148 552.413 871.36 576.625 871.36 606.493H872.765c0-30.643-24.841-55.484-55.484-55.484v1.404zM763.201 606.493C763.201 576.625 787.413 552.413 817.281 552.413v-1.404C786.637 551.009 761.796 575.85 761.796 606.493H763.201zM761.796 451.98C761.796 482.623 786.637 507.464 817.281 507.464V506.059C787.413 506.059 763.201 481.847 763.201 451.98H761.796zM817.281 396.495C786.637 396.495 761.796 421.337 761.796 451.98H763.201C763.201 422.112 787.413 397.9 817.281 397.9V396.495zm55.484 55.485c0-30.643-24.841-55.485-55.484-55.485V397.9C847.148 397.9 871.36 422.112 871.36 451.98H872.765zm-55.484 55.484c30.643.0 55.484-24.841 55.484-55.484H871.36C871.36 481.847 847.148 506.059 817.281 506.059V507.464zm0-155.918C787.413 351.546 763.201 327.334 763.201 297.466H761.796C761.796 328.11 786.637 352.951 817.281 352.951V351.546zM871.36 297.466c0 29.868-24.212 54.08-54.0790000000001 54.08V352.951c30.643.0 55.484-24.841 55.484-55.485H871.36zM817.281 243.387C847.148 243.387 871.36 267.599 871.36 297.466H872.765c0-30.643-24.841-55.484-55.484-55.484v1.405zM763.201 297.466c0-29.867 24.212-54.079 54.0799999999999-54.079v-1.405C786.637 241.982 761.796 266.823 761.796 297.466H763.201z" fill="#5b5b5b"/><circle cx="423.977" cy="451.98" r="210.7" fill="#373737"/><path d="M294.35 390.208V364.026H303.197C305.251 364.026 306.93 364.397 308.234 365.138 309.546 365.871 310.518 366.864 311.148 368.117 311.779 369.37 312.094 370.768 312.094 372.31 312.094 373.853 311.779 375.255 311.148 376.516 310.526 377.777 309.563 378.783 308.259 379.533 306.955 380.275 305.285 380.645 303.248 380.645H296.907V377.833H303.146C304.552 377.833 305.681 377.59 306.533 377.104 307.386 376.618 308.004 375.962 308.387 375.135 308.779 374.3 308.975 373.358 308.975 372.31S308.779 370.324 308.387 369.498C308.004 368.671 307.381 368.023 306.521 367.554 305.66 367.077 304.518 366.839 303.094 366.839H297.521v23.369H294.35zm25.46-26.182v26.182h-3.017V364.026h3.017zm11.304 26.642C329.87 390.668 328.74 390.434 327.726 389.965 326.712 389.488 325.907 388.802 325.31 387.907 324.713 387.003 324.415 385.912 324.415 384.634 324.415 383.509 324.637 382.597 325.08 381.898 325.523 381.191 326.115 380.637 326.857 380.236 327.598 379.836 328.417 379.537 329.311 379.341 330.215 379.137 331.123 378.975 332.034 378.856 333.228 378.702 334.195 378.587 334.936 378.51 335.686 378.425 336.232 378.285 336.573 378.089 336.922 377.893 337.097 377.552 337.097 377.066V376.964C337.097 375.702 336.752 374.722 336.061 374.023 335.38 373.324 334.344 372.975 332.955 372.975 331.515 372.975 330.385 373.29 329.567 373.921 328.749 374.552 328.174 375.225 327.841 375.941L324.978 374.918C325.489 373.725 326.171 372.796 327.023 372.131 327.884 371.458 328.821 370.989 329.836 370.725 330.858 370.452 331.864 370.316 332.853 370.316 333.483 370.316 334.208 370.393 335.026 370.546 335.853 370.691 336.65 370.993 337.417 371.454 338.192 371.914 338.836 372.608 339.347 373.537 339.858 374.466 340.114 375.711 340.114 377.27v12.938h-3.017V387.549H336.944C336.739 387.975 336.398 388.431 335.921 388.917 335.444 389.402 334.809 389.816 334.016 390.157S332.256 390.668 331.114 390.668zM331.574 387.958C332.767 387.958 333.773 387.724 334.591 387.255 335.418 386.786 336.04 386.181 336.458 385.439 336.884 384.698 337.097 383.918 337.097 383.1V380.339C336.969 380.492 336.688 380.633 336.253 380.76 335.827 380.88 335.333 380.986 334.77 381.08 334.216 381.165 333.675 381.242 333.147 381.31 332.627 381.37 332.205 381.421 331.881 381.464 331.097 381.566 330.364 381.732 329.682 381.962 329.009 382.184 328.463 382.52 328.046 382.972 327.637 383.415 327.432 384.02 327.432 384.787 327.432 385.836 327.82 386.628 328.596 387.165 329.38 387.694 330.373 387.958 331.574 387.958zM346.861 397.572C346.349 397.572 345.893 397.529 345.493 397.444 345.092 397.367 344.815 397.29 344.662 397.214L345.429 394.554C346.162 394.742 346.81 394.81 347.372 394.759 347.935 394.708 348.433 394.456 348.868 394.005 349.311 393.562 349.716 392.841 350.082 391.844L350.645 390.31 343.384 370.572H346.656L352.077 386.219H352.281L357.702 370.572H360.974L352.639 393.072C352.264 394.086 351.8 394.925 351.246 395.59 350.692 396.263 350.048 396.762 349.315 397.086 348.591 397.41 347.773 397.572 346.861 397.572zM364.957 390.208V370.572h3.017v19.636h-3.017zM366.491 367.299C365.903 367.299 365.396 367.099 364.969 366.698 364.552 366.297 364.343 365.816 364.343 365.253 364.343 364.691 364.552 364.209 364.969 363.809 365.396 363.408 365.903 363.208 366.491 363.208 367.079 363.208 367.582 363.408 367.999 363.809 368.425 364.209 368.638 364.691 368.638 365.253 368.638 365.816 368.425 366.297 367.999 366.698 367.582 367.099 367.079 367.299 366.491 367.299zm10.026 11.096v11.813H373.5V370.572H376.414V373.64H376.67C377.13 372.643 377.829 371.841 378.767 371.236 379.704 370.623 380.914 370.316 382.397 370.316 383.727 370.316 384.89 370.589 385.887 371.134 386.885 371.671 387.66 372.489 388.214 373.589 388.768 374.679 389.045 376.06 389.045 377.731v12.477h-3.017V377.935C386.028 376.393 385.627 375.191 384.826 374.33 384.025 373.461 382.926 373.026 381.528 373.026 380.565 373.026 379.704 373.235 378.946 373.652 378.196 374.07 377.603 374.679 377.169 375.481 376.734 376.282 376.517 377.253 376.517 378.395zm25.967 19.586C401.027 397.981 399.774 397.793 398.726 397.418 397.678 397.052 396.804 396.566 396.105 395.961 395.415 395.364 394.865 394.725 394.456 394.043L396.859 392.356C397.132 392.714 397.477 393.123 397.895 393.583 398.313 394.052 398.884 394.456 399.608 394.797 400.341 395.147 401.3 395.322 402.484 395.322 404.07 395.322 405.378 394.938 406.409 394.171S407.956 392.202 407.956 390.566V386.577H407.7C407.479 386.935 407.163 387.378 406.754 387.907 406.354 388.427 405.774 388.891 405.016 389.3 404.266 389.701 403.251 389.901 401.973 389.901 400.388 389.901 398.964 389.526 397.703 388.776 396.45 388.026 395.457 386.935 394.724 385.503 394 384.072 393.638 382.333 393.638 380.287 393.638 378.276 393.991 376.525 394.699 375.033 395.406 373.533 396.391 372.374 397.652 371.556 398.913 370.729 400.371 370.316 402.024 370.316 403.303 370.316 404.317 370.529 405.067 370.955 405.825 371.373 406.405 371.85 406.805 372.387 407.214 372.915 407.53 373.35 407.751 373.691H408.058V370.572H410.973V390.77C410.973 392.458 410.589 393.83 409.822 394.887 409.064 395.952 408.041 396.732 406.754 397.226 405.476 397.729 404.053 397.981 402.484 397.981zM402.382 387.191C403.592 387.191 404.615 386.914 405.45 386.36 406.286 385.806 406.92 385.009 407.355 383.969S408.007 381.685 408.007 380.236C408.007 378.822 407.794 377.573 407.368 376.491 406.942 375.408 406.311 374.56 405.476 373.947 404.641 373.333 403.609 373.026 402.382 373.026 401.104 373.026 400.038 373.35 399.186 373.998 398.342 374.645 397.707 375.515 397.281 376.606 396.864 377.697 396.655 378.907 396.655 380.236 396.655 381.6 396.868 382.806 397.294 383.854 397.729 384.894 398.368 385.712 399.212 386.309 400.064 386.897 401.121 387.191 402.382 387.191zM429.638 378.395v11.813h-3.017V370.572H429.536V373.64H429.791C430.251 372.643 430.95 371.841 431.888 371.236 432.825 370.623 434.036 370.316 435.518 370.316 436.848 370.316 438.011 370.589 439.009 371.134 440.006 371.671 440.781 372.489 441.335 373.589 441.889 374.679 442.166 376.06 442.166 377.731v12.477h-3.017V377.935C439.149 376.393 438.749 375.191 437.947 374.33 437.146 373.461 436.047 373.026 434.649 373.026 433.686 373.026 432.825 373.235 432.067 373.652 431.317 374.07 430.724 374.679 430.29 375.481 429.855 376.282 429.638 377.253 429.638 378.395zm26.019 12.222C453.884 390.617 452.328 390.195 450.99 389.351 449.661 388.508 448.621 387.327 447.871 385.81 447.13 384.293 446.759 382.52 446.759 380.492 446.759 378.447 447.13 376.661 447.871 375.135 448.621 373.61 449.661 372.425 450.99 371.581 452.328 370.738 453.884 370.316 455.657 370.316 457.429 370.316 458.98 370.738 460.31 371.581 461.648 372.425 462.688 373.61 463.429 375.135 464.179 376.661 464.554 378.447 464.554 380.492 464.554 382.52 464.179 384.293 463.429 385.81 462.688 387.327 461.648 388.508 460.31 389.351 458.98 390.195 457.429 390.617 455.657 390.617zM455.657 387.907C457.003 387.907 458.111 387.562 458.98 386.871 459.85 386.181 460.493 385.273 460.911 384.148 461.328 383.023 461.537 381.804 461.537 380.492 461.537 379.179 461.328 377.956 460.911 376.823 460.493 375.689 459.85 374.773 458.98 374.074 458.111 373.375 457.003 373.026 455.657 373.026 454.31 373.026 453.202 373.375 452.333 374.074 451.463 374.773 450.82 375.689 450.402 376.823 449.985 377.956 449.776 379.179 449.776 380.492 449.776 381.804 449.985 383.023 450.402 384.148 450.82 385.273 451.463 386.181 452.333 386.871 453.202 387.562 454.31 387.907 455.657 387.907zM472.941 390.208 466.958 370.572H470.128l4.245 15.034H474.577L478.77 370.572H481.992l4.142 14.982H486.338l4.245-14.982H493.753l-5.983 19.636H484.804L480.509 375.123H480.202L475.907 390.208H472.941zM499.941 390.412C499.31 390.412 498.769 390.187 498.317 389.735S497.64 388.742 497.64 388.111C497.64 387.481 497.865 386.939 498.317 386.488 498.769 386.036 499.31 385.81 499.941 385.81 500.571 385.81 501.113 386.036 501.564 386.488 502.016 386.939 502.242 387.481 502.242 388.111 502.242 388.529 502.135 388.912 501.922 389.262 501.718 389.611 501.441 389.893 501.091 390.106 500.75 390.31 500.367 390.412 499.941 390.412zm0-14.573C499.31 375.839 498.769 375.613 498.317 375.161S497.64 374.168 497.64 373.537C497.64 372.907 497.865 372.366 498.317 371.914S499.31 371.236 499.941 371.236C500.571 371.236 501.113 371.462 501.564 371.914 502.016 372.366 502.242 372.907 502.242 373.537 502.242 373.955 502.135 374.339 501.922 374.688 501.718 375.037 501.441 375.319 501.091 375.532 500.75 375.736 500.367 375.839 499.941 375.839z" fill="#fafaf8"/><path d="M294.35 443.208V417.026H297.521v23.369h12.17V443.208H294.35zM322.168 443.617C320.396 443.617 318.84 443.195 317.502 442.351 316.173 441.508 315.133 440.327 314.383 438.81 313.641 437.293 313.271 435.52 313.271 433.492 313.271 431.447 313.641 429.661 314.383 428.135 315.133 426.61 316.173 425.425 317.502 424.581 318.84 423.738 320.396 423.316 322.168 423.316 323.941 423.316 325.492 423.738 326.822 424.581 328.16 425.425 329.2 426.61 329.941 428.135 330.691 429.661 331.066 431.447 331.066 433.492 331.066 435.52 330.691 437.293 329.941 438.81 329.2 440.327 328.16 441.508 326.822 442.351 325.492 443.195 323.941 443.617 322.168 443.617zM322.168 440.907C323.515 440.907 324.623 440.562 325.492 439.871 326.362 439.181 327.005 438.273 327.423 437.148 327.84 436.023 328.049 434.804 328.049 433.492 328.049 432.179 327.84 430.956 327.423 429.823 327.005 428.689 326.362 427.773 325.492 427.074 324.623 426.375 323.515 426.026 322.168 426.026 320.822 426.026 319.714 426.375 318.844 427.074 317.975 427.773 317.332 428.689 316.914 429.823 316.496 430.956 316.288 432.179 316.288 433.492 316.288 434.804 316.496 436.023 316.914 437.148S317.975 439.181 318.844 439.871C319.714 440.562 320.822 440.907 322.168 440.907zM343.649 443.617C341.876 443.617 340.321 443.195 338.983 442.351 337.653 441.508 336.613 440.327 335.863 438.81 335.122 437.293 334.751 435.52 334.751 433.492 334.751 431.447 335.122 429.661 335.863 428.135 336.613 426.61 337.653 425.425 338.983 424.581 340.321 423.738 341.876 423.316 343.649 423.316S346.973 423.738 348.302 424.581C349.64 425.425 350.68 426.61 351.422 428.135 352.172 429.661 352.547 431.447 352.547 433.492 352.547 435.52 352.172 437.293 351.422 438.81 350.68 440.327 349.64 441.508 348.302 442.351 346.973 443.195 345.422 443.617 343.649 443.617zM343.649 440.907C344.995 440.907 346.103 440.562 346.973 439.871 347.842 439.181 348.485 438.273 348.903 437.148S349.529 434.804 349.529 433.492C349.529 432.179 349.321 430.956 348.903 429.823 348.485 428.689 347.842 427.773 346.973 427.074 346.103 426.375 344.995 426.026 343.649 426.026 342.302 426.026 341.194 426.375 340.325 427.074 339.456 427.773 338.812 428.689 338.395 429.823 337.977 430.956 337.768 432.179 337.768 433.492 337.768 434.804 337.977 436.023 338.395 437.148 338.812 438.273 339.456 439.181 340.325 439.871 341.194 440.562 342.302 440.907 343.649 440.907zm27.412-12.938L368.351 428.736C368.18 428.285 367.929 427.846 367.597 427.42 367.273 426.985 366.83 426.627 366.267 426.346 365.705 426.064 364.984 425.924 364.107 425.924 362.905 425.924 361.903 426.201 361.102 426.755 360.31 427.3 359.913 427.995 359.913 428.839 359.913 429.589 360.186 430.181 360.732 430.616 361.277 431.05 362.129 431.412 363.288 431.702L366.203 432.418C367.959 432.844 369.267 433.496 370.128 434.374 370.989 435.243 371.419 436.364 371.419 437.736 371.419 438.861 371.095 439.867 370.447 440.753 369.808 441.64 368.913 442.339 367.763 442.85 366.612 443.361 365.274 443.617 363.749 443.617 361.746 443.617 360.088 443.182 358.776 442.313 357.463 441.444 356.632 440.174 356.283 438.503L359.146 437.787C359.419 438.844 359.935 439.637 360.693 440.165 361.46 440.694 362.462 440.958 363.697 440.958 365.104 440.958 366.22 440.66 367.047 440.063 367.882 439.458 368.3 438.733 368.3 437.89 368.3 437.208 368.061 436.637 367.584 436.177 367.107 435.708 366.374 435.358 365.385 435.128L362.112 434.361C360.314 433.935 358.993 433.275 358.149 432.38 357.314 431.476 356.896 430.347 356.896 428.992 356.896 427.884 357.207 426.904 357.83 426.052 358.46 425.199 359.317 424.53 360.399 424.045 361.49 423.559 362.726 423.316 364.107 423.316 366.05 423.316 367.575 423.742 368.683 424.594 369.8 425.447 370.592 426.572 371.061 427.969zm13.133 15.648C382.301 443.617 380.669 443.199 379.297 442.364 377.934 441.52 376.881 440.344 376.14 438.836 375.407 437.319 375.04 435.554 375.04 433.543 375.04 431.532 375.407 429.759 376.14 428.225 376.881 426.682 377.912 425.481 379.233 424.62 380.563 423.75 382.114 423.316 383.887 423.316 384.909 423.316 385.919 423.486 386.917 423.827 387.914 424.168 388.821 424.722 389.64 425.489 390.458 426.248 391.11 427.253 391.596 428.506 392.081 429.759 392.324 431.302 392.324 433.134V434.412H377.188v-2.608h12.068C389.256 430.697 389.034 429.708 388.591 428.839 388.157 427.969 387.534 427.283 386.725 426.78 385.924 426.277 384.978 426.026 383.887 426.026 382.685 426.026 381.645 426.324 380.767 426.921 379.898 427.509 379.229 428.276 378.76 429.222 378.292 430.168 378.057 431.182 378.057 432.265v1.738C378.057 435.486 378.313 436.743 378.824 437.775 379.344 438.797 380.064 439.577 380.985 440.114 381.905 440.643 382.975 440.907 384.194 440.907 384.986 440.907 385.702 440.796 386.341 440.574 386.989 440.344 387.547 440.003 388.016 439.552 388.485 439.091 388.847 438.52 389.103 437.839L392.017 438.657C391.711 439.645 391.195 440.515 390.471 441.265 389.746 442.006 388.851 442.586 387.786 443.003 386.721 443.412 385.523 443.617 384.194 443.617zm31.384-20.045V426.128H405.402V423.572h10.176zM408.368 418.867h3.017v18.716C411.385 438.435 411.509 439.074 411.756 439.5 412.012 439.918 412.336 440.199 412.728 440.344 413.128 440.481 413.55 440.549 413.993 440.549 414.326 440.549 414.598 440.532 414.811 440.498 415.025 440.455 415.195 440.421 415.323 440.395L415.936 443.106C415.732 443.182 415.446 443.259 415.08 443.336 414.713 443.421 414.249 443.464 413.686 443.464 412.834 443.464 411.999 443.28 411.181 442.914 410.371 442.547 409.698 441.989 409.161 441.239 408.632 440.489 408.368 439.543 408.368 438.401V418.867zm11.749 24.341V423.572H423.032V426.537H423.236C423.594 425.566 424.242 424.777 425.179 424.172 426.117 423.567 427.174 423.265 428.35 423.265 428.571 423.265 428.848 423.269 429.181 423.277 429.513 423.286 429.765 423.299 429.935 423.316V426.384C429.833 426.358 429.598 426.32 429.232 426.269 428.874 426.209 428.495 426.179 428.094 426.179 427.14 426.179 426.287 426.38 425.537 426.78 424.796 427.172 424.208 427.718 423.773 428.417 423.347 429.107 423.134 429.895 423.134 430.782v12.426h-3.017zM445.886 435.179V423.572h3.017v19.636h-3.017V439.884H445.682C445.222 440.881 444.506 441.729 443.534 442.428 442.563 443.118 441.335 443.464 439.852 443.464 438.625 443.464 437.534 443.195 436.58 442.658 435.625 442.113 434.875 441.295 434.33 440.204 433.784 439.104 433.511 437.719 433.511 436.049V423.572h3.017v12.272C436.528 437.276 436.929 438.418 437.73 439.27 438.54 440.123 439.571 440.549 440.824 440.549 441.574 440.549 442.337 440.357 443.112 439.974 443.896 439.59 444.553 439.002 445.081 438.209 445.618 437.417 445.886 436.407 445.886 435.179zm17.083-11.607V426.128H452.793V423.572h10.176zM455.759 418.867h3.017v18.716C458.776 438.435 458.9 439.074 459.147 439.5 459.402 439.918 459.726 440.199 460.118 440.344 460.519 440.481 460.941 440.549 461.384 440.549 461.716 440.549 461.989 440.532 462.202 440.498 462.415 440.455 462.586 440.421 462.713 440.395L463.327 443.106C463.123 443.182 462.837 443.259 462.471 443.336 462.104 443.421 461.64 443.464 461.077 443.464 460.225 443.464 459.39 443.28 458.571 442.914 457.762 442.547 457.088 441.989 456.551 441.239 456.023 440.489 455.759 439.543 455.759 438.401V418.867zm15.187 12.528v11.813H467.929V417.026H470.946V426.64H471.202C471.662 425.625 472.353 424.82 473.273 424.224 474.202 423.618 475.438 423.316 476.98 423.316 478.319 423.316 479.49 423.584 480.496 424.121 481.502 424.65 482.282 425.464 482.836 426.563 483.398 427.654 483.679 429.043 483.679 430.731v12.477h-3.017V430.935C480.662 429.375 480.257 428.17 479.448 427.317 478.647 426.456 477.534 426.026 476.111 426.026 475.123 426.026 474.236 426.235 473.452 426.652 472.676 427.07 472.063 427.679 471.611 428.481 471.168 429.282 470.946 430.253 470.946 431.395zM304.373 461.026H307.543v18.716C307.543 481.412 307.237 482.831 306.623 483.999 306.009 485.167 305.144 486.053 304.028 486.658 302.911 487.263 301.594 487.566 300.077 487.566 298.646 487.566 297.371 487.306 296.255 486.786 295.138 486.258 294.261 485.508 293.621 484.536 292.982 483.564 292.663 482.41 292.663 481.072H295.782C295.782 481.813 295.965 482.461 296.332 483.015 296.707 483.56 297.218 483.986 297.866 484.293 298.513 484.6 299.251 484.753 300.077 484.753 300.989 484.753 301.765 484.562 302.404 484.178 303.043 483.795 303.529 483.232 303.862 482.491 304.202 481.741 304.373 480.824 304.373 479.742V461.026zm14.893 26.642C318.022 487.668 316.893 487.434 315.879 486.965 314.864 486.488 314.059 485.802 313.462 484.907 312.866 484.003 312.567 482.912 312.567 481.634 312.567 480.509 312.789 479.597 313.232 478.898 313.675 478.191 314.268 477.637 315.009 477.236 315.751 476.836 316.569 476.537 317.464 476.341 318.367 476.137 319.275 475.975 320.187 475.856 321.38 475.702 322.347 475.587 323.089 475.51 323.839 475.425 324.384 475.285 324.725 475.089 325.075 474.893 325.249 474.552 325.249 474.066V473.964C325.249 472.702 324.904 471.722 324.214 471.023 323.532 470.324 322.496 469.975 321.107 469.975 319.667 469.975 318.538 470.29 317.719 470.921 316.901 471.552 316.326 472.225 315.994 472.941L313.13 471.918C313.641 470.725 314.323 469.796 315.175 469.131 316.036 468.458 316.974 467.989 317.988 467.725 319.011 467.452 320.016 467.316 321.005 467.316 321.636 467.316 322.36 467.393 323.178 467.546 324.005 467.691 324.802 467.993 325.569 468.454 326.344 468.914 326.988 469.608 327.499 470.537 328.011 471.466 328.266 472.711 328.266 474.27v12.938h-3.017V484.549H325.096C324.891 484.975 324.55 485.431 324.073 485.917 323.596 486.402 322.961 486.816 322.168 487.157 321.376 487.498 320.408 487.668 319.266 487.668zM319.727 484.958C320.92 484.958 321.925 484.724 322.744 484.255 323.57 483.786 324.192 483.181 324.61 482.439 325.036 481.698 325.249 480.918 325.249 480.1V477.339C325.121 477.492 324.84 477.633 324.406 477.76 323.979 477.88 323.485 477.986 322.923 478.08 322.369 478.165 321.827 478.242 321.299 478.31 320.779 478.37 320.357 478.421 320.033 478.464 319.249 478.566 318.516 478.732 317.835 478.962 317.161 479.184 316.616 479.52 316.198 479.972 315.789 480.415 315.585 481.02 315.585 481.787 315.585 482.836 315.972 483.628 316.748 484.165 317.532 484.694 318.525 484.958 319.727 484.958zM341.75 487.617C339.909 487.617 338.324 487.182 336.995 486.313 335.665 485.444 334.642 484.246 333.926 482.721 333.211 481.195 332.853 479.452 332.853 477.492 332.853 475.498 333.219 473.738 333.952 472.212 334.694 470.678 335.725 469.481 337.046 468.62 338.375 467.75 339.926 467.316 341.699 467.316 343.08 467.316 344.324 467.572 345.432 468.083 346.54 468.594 347.448 469.31 348.155 470.231 348.863 471.151 349.301 472.225 349.472 473.452h-3.017C346.225 472.557 345.713 471.765 344.921 471.074 344.137 470.375 343.08 470.026 341.75 470.026 340.574 470.026 339.543 470.333 338.657 470.947 337.779 471.552 337.093 472.408 336.598 473.516 336.113 474.616 335.87 475.907 335.87 477.39 335.87 478.907 336.108 480.228 336.586 481.353 337.071 482.478 337.753 483.351 338.631 483.974 339.517 484.596 340.557 484.907 341.75 484.907 342.534 484.907 343.246 484.77 343.885 484.498 344.525 484.225 345.066 483.833 345.509 483.322 345.952 482.81 346.267 482.197 346.455 481.481h3.017C349.301 482.64 348.88 483.684 348.206 484.613 347.542 485.533 346.659 486.266 345.56 486.812 344.469 487.349 343.199 487.617 341.75 487.617zM356.695 480.049 356.644 476.316h.613L365.848 467.572h3.733L360.428 476.827H360.172L356.695 480.049zM353.882 487.208V461.026H356.9v26.182H353.882zm12.478.0L358.689 477.492 360.837 475.395l9.358 11.813H366.36zm27.661-26.182H397.192v18.716C397.192 481.412 396.885 482.831 396.271 483.999 395.658 485.167 394.793 486.053 393.676 486.658 392.56 487.263 391.243 487.566 389.726 487.566 388.294 487.566 387.02 487.306 385.903 486.786 384.787 486.258 383.909 485.508 383.27 484.536S382.311 482.41 382.311 481.072H385.43C385.43 481.813 385.614 482.461 385.98 483.015 386.355 483.56 386.866 483.986 387.514 484.293 388.162 484.6 388.899 484.753 389.726 484.753 390.638 484.753 391.413 484.562 392.053 484.178 392.692 483.795 393.178 483.232 393.51 482.491 393.851 481.741 394.021 480.824 394.021 479.742V461.026zm21.49 18.153V467.572h3.017v19.636h-3.017V483.884H415.307C414.847 484.881 414.131 485.729 413.159 486.428 412.188 487.118 410.96 487.464 409.477 487.464 408.25 487.464 407.159 487.195 406.205 486.658 405.25 486.113 404.5 485.295 403.955 484.204 403.409 483.104 403.136 481.719 403.136 480.049V467.572h3.017v12.272C406.153 481.276 406.554 482.418 407.355 483.27 408.165 484.123 409.196 484.549 410.449 484.549 411.199 484.549 411.962 484.357 412.737 483.974 413.521 483.59 414.178 483.002 414.706 482.209 415.243 481.417 415.511 480.407 415.511 479.179zm17.083-11.607V470.128H422.418V467.572h10.176zM425.384 462.867h3.017v18.716C428.401 482.435 428.525 483.074 428.772 483.5 429.027 483.918 429.351 484.199 429.743 484.344 430.144 484.481 430.566 484.549 431.009 484.549 431.341 484.549 431.614 484.532 431.827 484.498 432.04 484.455 432.211 484.421 432.338 484.395L432.952 487.106C432.748 487.182 432.462 487.259 432.096 487.336 431.729 487.421 431.265 487.464 430.702 487.464 429.85 487.464 429.015 487.28 428.196 486.914 427.387 486.547 426.713 485.989 426.176 485.239 425.648 484.489 425.384 483.543 425.384 482.401V462.867zM450.69 471.969 447.98 472.736C447.809 472.285 447.558 471.846 447.225 471.42 446.902 470.985 446.458 470.627 445.896 470.346 445.333 470.064 444.613 469.924 443.735 469.924 442.534 469.924 441.532 470.201 440.731 470.755 439.939 471.3 439.542 471.995 439.542 472.839 439.542 473.589 439.815 474.181 440.36 474.616 440.906 475.05 441.758 475.412 442.917 475.702L445.832 476.418C447.588 476.844 448.896 477.496 449.757 478.374 450.618 479.243 451.048 480.364 451.048 481.736 451.048 482.861 450.724 483.867 450.076 484.753 449.437 485.64 448.542 486.339 447.392 486.85 446.241 487.361 444.903 487.617 443.377 487.617 441.375 487.617 439.717 487.182 438.404 486.313 437.092 485.444 436.261 484.174 435.912 482.503L438.775 481.787C439.048 482.844 439.564 483.637 440.322 484.165 441.089 484.694 442.091 484.958 443.326 484.958 444.733 484.958 445.849 484.66 446.676 484.063 447.511 483.458 447.929 482.733 447.929 481.89 447.929 481.208 447.69 480.637 447.213 480.177 446.735 479.708 446.002 479.358 445.014 479.128L441.741 478.361C439.943 477.935 438.622 477.275 437.778 476.38 436.943 475.476 436.525 474.347 436.525 472.992 436.525 471.884 436.836 470.904 437.458 470.052 438.089 469.199 438.946 468.53 440.028 468.045 441.119 467.559 442.355 467.316 443.735 467.316 445.679 467.316 447.204 467.742 448.312 468.594 449.429 469.447 450.221 470.572 450.69 471.969zm12.877 15.648C461.794 487.617 460.239 487.195 458.901 486.351 457.571 485.508 456.531 484.327 455.781 482.81 455.04 481.293 454.669 479.52 454.669 477.492 454.669 475.447 455.04 473.661 455.781 472.135 456.531 470.61 457.571 469.425 458.901 468.581 460.239 467.738 461.794 467.316 463.567 467.316 465.339 467.316 466.891 467.738 468.22 468.581 469.558 469.425 470.598 470.61 471.339 472.135 472.089 473.661 472.464 475.447 472.464 477.492 472.464 479.52 472.089 481.293 471.339 482.81 470.598 484.327 469.558 485.508 468.22 486.351 466.891 487.195 465.339 487.617 463.567 487.617zM463.567 484.907C464.913 484.907 466.021 484.562 466.891 483.871 467.76 483.181 468.403 482.273 468.821 481.148 469.239 480.023 469.447 478.804 469.447 477.492 469.447 476.179 469.239 474.956 468.821 473.823 468.403 472.689 467.76 471.773 466.891 471.074 466.021 470.375 464.913 470.026 463.567 470.026 462.22 470.026 461.112 470.375 460.243 471.074 459.374 471.773 458.73 472.689 458.312 473.823 457.895 474.956 457.686 476.179 457.686 477.492 457.686 478.804 457.895 480.023 458.312 481.148 458.73 482.273 459.374 483.181 460.243 483.871 461.112 484.562 462.22 484.907 463.567 484.907zm16.52-9.512v11.813H477.07V467.572H479.985V470.64H480.24C480.701 469.643 481.4 468.841 482.337 468.236 483.275 467.623 484.485 467.316 485.968 467.316 487.297 467.316 488.461 467.589 489.458 468.134 490.455 468.671 491.23 469.489 491.784 470.589 492.338 471.679 492.615 473.06 492.615 474.731v12.477h-3.017V474.935C489.598 473.393 489.198 472.191 488.397 471.33 487.596 470.461 486.496 470.026 485.098 470.026 484.135 470.026 483.275 470.235 482.516 470.652 481.766 471.07 481.174 471.679 480.739 472.481 480.304 473.282 480.087 474.253 480.087 475.395zM294.35 505.026H298.134L307.032 526.759H307.339L316.237 505.026H320.021v26.182H317.055V511.316H316.799L308.617 531.208h-2.863L297.572 511.316H297.316v19.892H294.35V505.026zm39.596 26.591C332.173 531.617 330.618 531.195 329.279 530.351 327.95 529.508 326.91 528.327 326.16 526.81 325.419 525.293 325.048 523.52 325.048 521.492 325.048 519.447 325.419 517.661 326.16 516.135 326.91 514.61 327.95 513.425 329.279 512.581 330.618 511.738 332.173 511.316 333.946 511.316 335.718 511.316 337.27 511.738 338.599 512.581 339.937 513.425 340.977 514.61 341.718 516.135 342.468 517.661 342.843 519.447 342.843 521.492 342.843 523.52 342.468 525.293 341.718 526.81 340.977 528.327 339.937 529.508 338.599 530.351 337.27 531.195 335.718 531.617 333.946 531.617zM333.946 528.907C335.292 528.907 336.4 528.562 337.27 527.871 338.139 527.181 338.782 526.273 339.2 525.148S339.826 522.804 339.826 521.492C339.826 520.179 339.618 518.956 339.2 517.823 338.782 516.689 338.139 515.773 337.27 515.074 336.4 514.375 335.292 514.026 333.946 514.026 332.599 514.026 331.491 514.375 330.622 515.074 329.752 515.773 329.109 516.689 328.691 517.823 328.274 518.956 328.065 520.179 328.065 521.492 328.065 522.804 328.274 524.023 328.691 525.148 329.109 526.273 329.752 527.181 330.622 527.871 331.491 528.562 332.599 528.907 333.946 528.907zm22.043-17.335V514.128H345.812V511.572h10.177zM348.778 506.867h3.017v18.716C351.795 526.435 351.919 527.074 352.166 527.5 352.422 527.918 352.746 528.199 353.138 528.344 353.538 528.481 353.96 528.549 354.403 528.549 354.736 528.549 355.009 528.532 355.222 528.498 355.435 528.455 355.605 528.421 355.733 528.395L356.347 531.106C356.142 531.182 355.857 531.259 355.49 531.336 355.124 531.421 354.659 531.464 354.097 531.464 353.244 531.464 352.409 531.28 351.591 530.914 350.781 530.547 350.108 529.989 349.571 529.239 349.043 528.489 348.778 527.543 348.778 526.401V506.867zm15.188 12.528v11.813h-3.017V505.026h3.017V514.64H364.222C364.682 513.625 365.372 512.82 366.293 512.224 367.222 511.618 368.457 511.316 370 511.316 371.338 511.316 372.51 511.584 373.516 512.121 374.521 512.65 375.301 513.464 375.855 514.563 376.418 515.654 376.699 517.043 376.699 518.731v12.477h-3.017V518.935C373.682 517.375 373.277 516.17 372.467 515.317 371.666 514.456 370.554 514.026 369.131 514.026 368.142 514.026 367.256 514.235 366.472 514.652 365.696 515.07 365.082 515.679 364.631 516.481 364.188 517.282 363.966 518.253 363.966 519.395zm26.485 12.222C388.559 531.617 386.927 531.199 385.555 530.364 384.191 529.52 383.139 528.344 382.397 526.836 381.664 525.319 381.298 523.554 381.298 521.543S381.664 517.759 382.397 516.225C383.139 514.682 384.17 513.481 385.491 512.62 386.821 511.75 388.372 511.316 390.145 511.316 391.167 511.316 392.177 511.486 393.174 511.827 394.172 512.168 395.079 512.722 395.897 513.489 396.716 514.248 397.368 515.253 397.853 516.506 398.339 517.759 398.582 519.302 398.582 521.134V522.412H383.446V519.804h12.068C395.514 518.697 395.292 517.708 394.849 516.839 394.414 515.969 393.792 515.283 392.983 514.78 392.181 514.277 391.235 514.026 390.145 514.026 388.943 514.026 387.903 514.324 387.025 514.921 386.156 515.509 385.487 516.276 385.018 517.222 384.549 518.168 384.315 519.182 384.315 520.265V522.003C384.315 523.486 384.571 524.743 385.082 525.775 385.602 526.797 386.322 527.577 387.243 528.114 388.163 528.643 389.233 528.907 390.451 528.907 391.244 528.907 391.96 528.796 392.599 528.574 393.247 528.344 393.805 528.003 394.274 527.552 394.743 527.091 395.105 526.52 395.36 525.839L398.275 526.657C397.968 527.645 397.453 528.515 396.728 529.265 396.004 530.006 395.109 530.586 394.044 531.003 392.978 531.412 391.781 531.617 390.451 531.617zM403.172 531.208V511.572H406.086V514.537H406.291C406.649 513.566 407.297 512.777 408.234 512.172 409.172 511.567 410.228 511.265 411.404 511.265 411.626 511.265 411.903 511.269 412.235 511.277 412.568 511.286 412.819 511.299 412.99 511.316V514.384C412.887 514.358 412.653 514.32 412.287 514.269 411.929 514.209 411.549 514.179 411.149 514.179 410.194 514.179 409.342 514.38 408.592 514.78 407.85 515.172 407.262 515.718 406.828 516.417 406.402 517.107 406.189 517.895 406.189 518.782V531.208h-3.017zm46.019-13.091C449.191 520.878 448.692 523.265 447.695 525.276 446.698 527.287 445.33 528.839 443.592 529.929 441.853 531.02 439.867 531.566 437.634 531.566S433.415 531.02 431.677 529.929C429.938 528.839 428.57 527.287 427.573 525.276 426.576 523.265 426.077 520.878 426.077 518.117 426.077 515.356 426.576 512.969 427.573 510.958 428.57 508.947 429.938 507.395 431.677 506.304 433.415 505.214 435.401 504.668 437.634 504.668S441.853 505.214 443.592 506.304C445.33 507.395 446.698 508.947 447.695 510.958S449.191 515.356 449.191 518.117zM446.123 518.117C446.123 515.85 445.744 513.937 444.985 512.377 444.235 510.817 443.217 509.637 441.93 508.836 440.651 508.035 439.219 507.634 437.634 507.634 436.049 507.634 434.613 508.035 433.326 508.836 432.048 509.637 431.029 510.817 430.271 512.377 429.521 513.937 429.146 515.85 429.146 518.117 429.146 520.384 429.521 522.297 430.271 523.857 431.029 525.417 432.048 526.597 433.326 527.398 434.613 528.199 436.049 528.6 437.634 528.6 439.219 528.6 440.651 528.199 441.93 527.398 443.217 526.597 444.235 525.417 444.985 523.857 445.744 522.297 446.123 520.384 446.123 518.117zM462.857 511.572V514.128H452.272V511.572h10.585zM455.442 531.208V508.861C455.442 507.736 455.707 506.799 456.235 506.049 456.763 505.299 457.45 504.736 458.293 504.361 459.137 503.986 460.028 503.799 460.965 503.799 461.707 503.799 462.312 503.858 462.781 503.978 463.249 504.097 463.599 504.208 463.829 504.31L462.96 506.918C462.806 506.867 462.593 506.803 462.32 506.726 462.056 506.65 461.707 506.611 461.272 506.611 460.275 506.611 459.555 506.863 459.112 507.366 458.677 507.868 458.46 508.606 458.46 509.577v21.631H455.442zm20.388-19.636V514.128H465.245V511.572H475.83zM468.415 531.208V508.861C468.415 507.736 468.679 506.799 469.208 506.049 469.736 505.299 470.422 504.736 471.266 504.361S473 503.799 473.938 503.799C474.679 503.799 475.284 503.858 475.753 503.978 476.222 504.097 476.571 504.208 476.801 504.31L475.932 506.918C475.779 506.867 475.566 506.803 475.293 506.726 475.029 506.65 474.679 506.611 474.245 506.611 473.248 506.611 472.527 506.863 472.084 507.366 471.65 507.868 471.432 508.606 471.432 509.577v21.631h-3.017zm11.643.0V511.572h3.017v19.636h-3.017zM481.592 508.299C481.004 508.299 480.497 508.099 480.071 507.698 479.653 507.297 479.445 506.816 479.445 506.253 479.445 505.691 479.653 505.209 480.071 504.809 480.497 504.408 481.004 504.208 481.592 504.208 482.18 504.208 482.683 504.408 483.101 504.809 483.527 505.209 483.74 505.691 483.74 506.253 483.74 506.816 483.527 507.297 483.101 507.698 482.683 508.099 482.18 508.299 481.592 508.299zm14.986 23.318C494.738 531.617 493.152 531.182 491.823 530.313 490.493 529.444 489.471 528.246 488.755 526.721 488.039 525.195 487.681 523.452 487.681 521.492 487.681 519.498 488.047 517.738 488.78 516.212 489.522 514.678 490.553 513.481 491.874 512.62 493.203 511.75 494.755 511.316 496.527 511.316 497.908 511.316 499.152 511.572 500.26 512.083 501.368 512.594 502.276 513.31 502.983 514.231 503.691 515.151 504.13 516.225 504.3 517.452h-3.017C501.053 516.557 500.542 515.765 499.749 515.074 498.965 514.375 497.908 514.026 496.578 514.026 495.402 514.026 494.371 514.333 493.485 514.947 492.607 515.552 491.921 516.408 491.426 517.516 490.941 518.616 490.698 519.907 490.698 521.39 490.698 522.907 490.936 524.228 491.414 525.353 491.9 526.478 492.581 527.351 493.459 527.974 494.346 528.596 495.385 528.907 496.578 528.907 497.363 528.907 498.074 528.77 498.713 528.498 499.353 528.225 499.894 527.833 500.337 527.322 500.78 526.81 501.096 526.197 501.283 525.481H504.3C504.13 526.64 503.708 527.684 503.034 528.613 502.37 529.533 501.488 530.266 500.388 530.812 499.297 531.349 498.027 531.617 496.578 531.617zM508.711 531.208V511.572h3.017v19.636h-3.017zM510.245 508.299C509.657 508.299 509.15 508.099 508.723 507.698 508.306 507.297 508.097 506.816 508.097 506.253 508.097 505.691 508.306 505.209 508.723 504.809 509.15 504.408 509.657 504.208 510.245 504.208S511.336 504.408 511.753 504.809C512.179 505.209 512.392 505.691 512.392 506.253 512.392 506.816 512.179 507.297 511.753 507.698 511.336 508.099 510.833 508.299 510.245 508.299zm12.787 23.369C521.788 531.668 520.658 531.434 519.644 530.965 518.63 530.488 517.825 529.802 517.228 528.907 516.631 528.003 516.333 526.912 516.333 525.634 516.333 524.509 516.555 523.597 516.998 522.898 517.441 522.191 518.033 521.637 518.775 521.236 519.516 520.836 520.335 520.537 521.229 520.341 522.133 520.137 523.04 519.975 523.952 519.856 525.146 519.702 526.113 519.587 526.854 519.51 527.604 519.425 528.15 519.285 528.491 519.089 528.84 518.893 529.015 518.552 529.015 518.066V517.964C529.015 516.702 528.67 515.722 527.979 515.023 527.298 514.324 526.262 513.975 524.873 513.975 523.433 513.975 522.303 514.29 521.485 514.921 520.667 515.552 520.092 516.225 519.759 516.941L516.896 515.918C517.407 514.725 518.089 513.796 518.941 513.131 519.802 512.458 520.739 511.989 521.754 511.725 522.776 511.452 523.782 511.316 524.771 511.316 525.401 511.316 526.126 511.393 526.944 511.546 527.771 511.691 528.567 511.993 529.335 512.454 530.11 512.914 530.754 513.608 531.265 514.537 531.776 515.466 532.032 516.711 532.032 518.27v12.938H529.015V528.549H528.862C528.657 528.975 528.316 529.431 527.839 529.917 527.362 530.402 526.727 530.816 525.934 531.157S524.174 531.668 523.032 531.668zM523.492 528.958C524.685 528.958 525.691 528.724 526.509 528.255 527.336 527.786 527.958 527.181 528.376 526.439 528.802 525.698 529.015 524.918 529.015 524.1V521.339C528.887 521.492 528.606 521.633 528.171 521.76 527.745 521.88 527.251 521.986 526.688 522.08 526.134 522.165 525.593 522.242 525.065 522.31 524.545 522.37 524.123 522.421 523.799 522.464 523.015 522.566 522.282 522.732 521.6 522.962 520.927 523.184 520.381 523.52 519.964 523.972 519.555 524.415 519.35 525.02 519.35 525.787 519.35 526.836 519.738 527.628 520.513 528.165 521.298 528.694 522.29 528.958 523.492 528.958zM540.556 505.026v26.182H537.539V505.026H540.556z" fill="#fafaf8"/><circle cx="817.286" cy="606.493" r="55.4843" transform="rotate(90 817.286 606.493)" fill="#f0d7a4" stroke="#5b5b5b" stroke-width="1.40467"/><circle cx="817.286" cy="451.98" r="55.4843" transform="rotate(90 817.286 451.98)" fill="#f1efec" stroke="#5b5b5b" stroke-width="1.40467"/><circle cx="817.286" cy="297.466" r="55.4843" transform="rotate(90 817.286 297.466)" fill="#f1efec" stroke="#5b5b5b" stroke-width="1.40467"/><rect x="129" y="157" width="1011.36" height="589.959" rx="26.6886" stroke="#5b5b5b" stroke-width="1.40467"/></svg>