<svg width="809" height="1649" viewBox="0 0 809 1649" fill="none" xmlns="http://www.w3.org/2000/svg"><path fill-rule="evenodd" clip-rule="evenodd" d="M320.239 551.933 322.127 550.015 322.151 549.952V536.501 536.344H322.317 329.012 329.18V536.501 539.726H476.114V536.501 536.344H476.282 482.976 483.143V536.501v13.451L483.167 550.015 485.03 551.902 485.087 551.933h17.804V516.224L508.89 513.707 515.537 520.44 520.966 518.158v-33.79L515.537 482.087 508.89 488.82 502.891 486.303v-35.71H485.087L485.03 450.624 483.167 452.512 483.143 452.559v13.466V466.183H482.976 476.282 476.114V466.025 462.8H329.18V466.025 466.183H329.012 322.317 322.151V466.025 452.559L322.127 452.512 320.289 450.656H284.263L284.207 450.671 282.344 452.559 282.319 452.622v13.45V466.23H282.153 275.458 275.29V466.072 462.848H201.991v15.416V478.437H201.823 195.13 194.962V478.264v-3.209H128.355v3.209V478.437H128.188 121.494 121.326V478.264 452.622L121.303 452.559 119.44 450.671 119.383 450.656H83.4406L83.3831 450.671 81.5202 452.559 81.4969 452.622v25.642V478.437h-.1678-6.6934-.1678V478.264v-3.209H1.16663L1.16662 527.581H74.4679V524.357 524.184h.1678 6.6934.1678V524.357v25.658L81.5202 550.062 83.3831 551.949 83.4406 551.981H119.383L119.44 551.949 121.303 550.062 121.326 550.015V524.357 524.184H121.494 128.188 128.355V524.357 527.581h66.607V524.357 524.184H195.13 201.823 201.991V524.357 539.773H275.29V536.564 536.391H275.458 282.153 282.319V536.564v13.451L282.344 550.062 284.207 551.949 284.263 551.981H320.357" fill="#000" fill-opacity=".06"/><path fill-rule="evenodd" clip-rule="evenodd" d="M201.893 550.281l-1.886 1.904L199.982 552.248V565.698 565.871H199.816 193.121 192.953V565.698 562.473H46.0178V565.698 565.871H45.85 39.1565 38.9888V565.698 552.248L38.9654 552.185 37.1026 550.297 37.0451 550.281H19.241v35.71L13.2421 588.508 6.59537 581.775 1.16663 584.041 1.16662 617.847 6.59536 620.113 13.2421 613.395 19.241 615.897V651.607H37.0451L37.1026 651.591 38.9654 649.703 38.9888 649.64V636.19 636.017H39.1565 45.85h.1678V636.19 639.415H192.953V636.19 636.017H193.121 199.815 199.982V636.19 649.64L200.007 649.703 201.843 651.56h36.026L237.925 651.528 239.79 649.656 239.813 649.593V636.143 635.97H239.979 246.674 246.842V636.143 639.352h73.3V623.935 623.762H320.309 327.003 327.171V623.935 627.16h66.606V623.935 623.762H393.945 400.638 400.806V623.935v25.658L400.829 649.656 402.692 651.528 402.75 651.56h35.943L438.749 651.528 440.612 649.656 440.635 649.593V623.935 623.762H440.803 447.498 447.664V623.935 627.16h73.302V574.633H447.664V577.858 578.016H447.498 440.803 440.635V577.858 552.2L440.612 552.137 438.749 550.25 438.693 550.234H402.75L402.692 550.25 400.829 552.137 400.806 552.2V577.858 578.016H400.638 393.945 393.777V577.858 574.633H327.171V577.858 578.016H327.003 320.309 320.142V577.858 562.426h-73.3V565.651 565.823H246.674 239.979 239.813V565.651 552.2L239.79 552.137 237.925 550.25 237.869 550.234H201.775" fill="#000" fill-opacity=".06"/><path fill-rule="evenodd" clip-rule="evenodd" d="M633.844 634.429H685.054V613.081h-3.178H681.708V612.908 606.128 605.955H681.876 695.16L695.217 605.94 697.08 604.052 697.104 603.989V587.927L697.08 587.88 695.217 585.992 695.16 585.961H681.876 681.708V585.804 579.023 578.85H681.876h3.178V557.503H633.844V560.712 560.885H633.678 626.983 626.815V560.712v-13.45L626.792 547.215 624.929 545.327 624.873 545.295H602.317L602.26 545.327 600.397 547.215 600.374 547.262v13.45V560.885H600.206 593.513 593.345V560.712 557.503H542.134V578.85H545.315 545.483V579.023 585.804 585.961H545.315 532.029L531.973 585.992 530.108 587.88 530.085 587.927v16.062L530.108 604.052 531.973 605.94 532.029 605.955H545.315 545.483V606.128 612.908 613.081H545.315 542.134v21.348h51.211V631.204 631.031H593.513 600.206 600.374V631.204v13.45L600.397 644.717 602.26 646.605 602.317 646.621h22.556L624.929 646.605 626.792 644.717 626.815 644.654v-13.45V631.031H626.983 633.678 633.844V631.204 634.429z" fill="#000" fill-opacity=".06"/><path fill-rule="evenodd" clip-rule="evenodd" d="M388.421 243.639V210.1H221.402v33.539h3.179H224.749V243.812 250.593 250.765H224.581 209.353V372.431h15.228H224.749V372.588 379.368 379.541H224.581h-3.179V384.119h23.965L252.228 391.056v44.063L258.755 441.726h21.622L286.904 435.119V391.056L293.765 384.119h22.293L322.919 391.056v44.063L329.445 441.726h21.623L357.595 435.119V391.056L364.456 384.119h23.965V379.541H385.241 385.074V379.368 372.588 372.431H385.241 400.47V250.765H385.241 385.074V250.593 243.812 243.639H385.241 388.421z" fill="#000" fill-opacity=".06"/><path fill-rule="evenodd" clip-rule="evenodd" d="M221.402.00127638V33.5406h3.179H224.749V33.7135v6.7806V40.6669H224.581 209.353V162.317h15.228H224.749V162.49v6.78V169.444H224.581h-3.179v33.538H388.421V169.444H385.241 385.074V169.27v-6.78V162.317H385.241 400.47V40.667H385.241 385.074V40.4941 33.7135 33.5406H385.241 388.421V.00129101L221.402.00127638z" fill="#000" fill-opacity=".06"/><path fill-rule="evenodd" clip-rule="evenodd" d="M186.93 243.639V210.1H19.9113v33.539h3.1805.1678V243.812 250.593 250.765h-.1678H7.86228L7.86227 372.431H23.0918h.1678V372.588 379.368 379.541h-.1678-3.1805V384.119H43.8774L50.7386 391.056v44.063L57.2658 441.726H78.8873L85.4145 435.119V391.056L92.2757 384.119H114.567L121.428 391.056v44.063L127.955 441.726h21.622L156.104 435.119V391.056L162.965 384.119H186.93V379.541h-3.179H183.583V379.368 372.588 372.431H183.751 198.98V250.765H183.751 183.583V250.593 243.812 243.639H183.751h3.179z" fill="#000" fill-opacity=".06"/><path fill-rule="evenodd" clip-rule="evenodd" d="M19.9113.0013256V33.5407h3.1805.1678V33.7135v6.7807V40.667h-.1678H7.86228L7.86227 162.317H23.0918h.1678V162.49v6.78V169.444h-.1678-3.1805v33.538H186.93V169.444h-3.179H183.583V169.27v-6.78V162.317H183.751 198.98V40.667H183.751 183.583V40.4942 33.7135 33.5407H183.751h3.179V.00134023L19.9113.0013256z" fill="#000" fill-opacity=".06"/><path fill-rule="evenodd" clip-rule="evenodd" d="M422.898.00113848V33.5405H426.077 426.245V33.7133v6.7806V40.6668H426.077h-15.23V162.317h15.23H426.245V162.49v6.779V169.443H426.077 422.898v67.44H426.077 426.245V237.04v6.78V243.993H426.077h-15.23V365.658h15.23H426.244V365.816 372.597 372.769H426.077 422.898v62.359h23.964L453.222 428.694V384.63L460.251 377.52h21.621L488.901 384.63v44.064L495.261 435.128h22.291L523.911 428.694V384.63L530.94 377.52h21.622L559.591 384.63v44.064L565.95 435.128h23.966V372.769H586.736 586.568V372.597 365.816 365.659H586.736h15.229V243.993H586.736 586.568V243.82v-6.78V236.883H586.736 589.916v-67.44H586.736 586.568V169.27v-6.78V162.317H586.736h15.229V40.6668H586.736 586.568V40.4939 33.7133 33.5405H586.736 589.916V.00115311L422.898.00113848z" fill="#000" fill-opacity=".06"/><path fill-rule="evenodd" clip-rule="evenodd" d="M624.382.00113848V33.5405H627.563 627.729V33.7133v6.7806V40.6668H627.563h-15.23V162.317h15.23H627.729V162.49v6.779V169.443H627.563 624.382v67.44H627.563 627.729V237.04v6.78V243.993H627.563h-15.23V365.658h15.23H627.729V365.816 372.597 372.769H627.563 624.382v62.359h23.965L654.706 428.694V384.63L661.735 377.52H683.358L690.386 384.63v44.064L696.745 435.128h22.293L725.397 428.694V384.63L732.426 377.52h21.622L761.077 384.63v44.064L767.436 435.128H791.401V372.769H788.222 788.054V372.597 365.816 365.659H788.222 803.45V243.993H788.222 788.054V243.82v-6.78V236.883H788.222 791.401v-67.44H788.222 788.054V169.27v-6.78V162.317H788.222 803.45V40.6668H788.222 788.054V40.4939 33.7133 33.5405H788.222 791.401V.00115311L624.382.00113848z" fill="#000" fill-opacity=".06"/><path fill-rule="evenodd" clip-rule="evenodd" d="M748.915 548.689h59.913V717.784H722.138V657.125H725.319 725.487V656.952 650.187 650.014H725.319 695.363V616.46H725.319 725.487V616.286 609.506 609.349H725.319 722.138V536.482H741.886v15.417V552.071H742.054 748.747 748.915V551.899 548.689z" fill="#000" fill-opacity=".06"/><path fill-rule="evenodd" clip-rule="evenodd" d="M779.656 755.401V816.076H612.638V728.295H672.549v3.226V731.678H672.717 679.412 679.578V731.521 701.191H712.714V731.521 731.678H712.882 719.575 719.743V731.521v-3.226h71.962V748.29H776.476 776.308V748.463 755.243 755.401H776.476 779.656z" fill="#000" fill-opacity=".06"/><path fill-rule="evenodd" clip-rule="evenodd" d="M320.356 1378.92 322.267 1376.99 322.315 1376.88V1363.4H329.01V1366.78H476.281V1363.4H482.974v13.48L483.024 1376.99 484.934 1378.92 485.053 1378.97h18.005V1343.1L508.771 1340.71 515.418 1347.44 521.132 1345.04v-33.79L515.418 1308.86 508.771 1315.59 503.058 1313.18V1277.31H485.053L484.934 1277.36 483.024 1279.3 482.974 1279.41v13.49H476.281V1289.51H329.01V1292.9H322.315v-13.49L322.267 1279.3 320.356 1277.36H284.229L284.111 1277.41 282.2 1279.34 282.152 1279.47v13.48H275.457V1289.55H201.821V1305.14H195.128V1301.76H128.186V1305.14H121.493V1279.47L121.443 1279.34 119.533 1277.41 119.415 1277.36H83.4048L83.2867 1277.41 81.3772 1279.34 81.3275 1279.47V1305.14H74.6341V1301.76H.997255L.997251 1354.63H74.6341V1351.24h6.6934V1376.92L81.3772 1377.05 83.2867 1378.97 83.4048 1379.03H119.415L119.533 1378.97 121.443 1377.05 121.493 1376.92V1351.24H128.186V1354.63h66.942V1351.24H201.821V1366.82h73.636V1363.44H282.152v13.48L282.2 1377.05 284.111 1378.97 284.229 1379.03h36.127" fill="#000" fill-opacity=".06"/><path fill-rule="evenodd" clip-rule="evenodd" d="M201.773 1377.05 199.862 1378.97 199.814 1379.09v13.49H193.119V1389.19H45.8484V1392.58H39.155v-13.49L39.1053 1378.97 37.1958 1377.05 37.0777 1376.99H19.0717V1412.87L13.3586 1415.26 6.71186 1408.53.997318 1410.93.997316 1444.73 6.71185 1447.12 13.3586 1440.38 19.0717 1442.79V1478.66h18.006L37.1958 1478.61 39.1053 1476.67 39.155 1476.55v-13.48h6.6934V1466.47H193.119V1463.07H199.814v13.48L199.862 1476.67 201.773 1478.61H237.9L238.018 1478.56 239.929 1476.63 239.978 1476.5v-13.48H246.673V1466.4h73.635V1450.81H327.001V1454.21h66.942V1450.81H400.637V1476.5L400.686 1476.63 402.596 1478.56 402.715 1478.61H438.725L438.843 1478.56 440.754 1476.63 440.802 1476.5V1450.81H447.497V1454.21H521.132V1401.34H447.497V1404.74H440.802V1379.05L440.754 1378.92 438.843 1376.99 438.725 1376.94H402.715L402.596 1376.99 400.686 1378.92 400.637 1379.05V1404.74H393.943V1401.34H327.001V1404.74H320.308V1389.15H246.673V1392.53H239.978v-13.48L239.929 1378.92 238.018 1376.99 237.9 1376.94H201.773" fill="#000" fill-opacity=".06"/><path fill-rule="evenodd" clip-rule="evenodd" d="M748.751 1375.41H809v169.44H721.976v-60.99H725.323V1477.08H695.199V1443.2h30.124V1436.42H721.976V1363.22h20.082V1378.79H748.751V1375.41z" fill="#000" fill-opacity=".06"/><path fill-rule="evenodd" clip-rule="evenodd" d="M779.816 1582.12v60.99H612.463V1555H672.71V1558.4H679.405v-30.5h33.47v30.5H719.569V1555h72.297V1575.34H776.469V1582.12H779.816z" fill="#000" fill-opacity=".06"/><path fill-rule="evenodd" clip-rule="evenodd" d="M633.837 1461.48h51.379V1439.79H681.869V1433.01h13.318L695.305 1432.96 697.215 1431.03 697.265 1430.92V1414.78L697.215 1414.67 695.305 1412.73 695.187 1412.68H681.869V1405.9H685.216V1384.21H633.671V1387.61H626.976v-13.5L626.928 1374 625.017 1372.07 624.899 1372.02H602.277L602.158 1372.07 600.249 1374 600.199 1374.11v13.5H593.506V1384.21H541.961V1405.9H545.308V1412.68H531.989L531.871 1412.73 529.96 1414.67 529.912 1414.78V1430.92L529.96 1431.03 531.871 1432.96 531.989 1433.01h13.319V1439.79H541.961V1461.48h51.545V1458.08H600.199v13.5L600.249 1471.69 602.158 1473.63 602.277 1473.67h22.622L625.017 1473.63 626.928 1471.69 626.976 1471.58v-13.5H633.671V1461.48H633.837z" fill="#000" fill-opacity=".06"/><path fill-rule="evenodd" clip-rule="evenodd" d="M388.587 1070.7V1036.82H221.233V1070.7H224.58V1077.48H209.184v122H224.58V1206.26H221.233V1211.18h24.133L252.061 1217.96v44.05L258.754 1268.79h21.622L287.071 1262.01v-44.05L293.764 1211.18h22.293L322.75 1217.96v44.05L329.444 1268.79h21.623L357.76 1262.01v-44.05L364.455 1211.18h24.132V1206.26H385.239V1199.48h15.397v-122H385.239V1070.7H388.587z" fill="#000" fill-opacity=".06"/><path fill-rule="evenodd" clip-rule="evenodd" d="M221.233 826.708v33.885H224.58V867.373H209.184V989.368H224.58V996.149H221.233v33.881H388.587V996.149H385.239V989.368h15.397V867.373H385.239V860.593H388.587V826.708H221.233z" fill="#000" fill-opacity=".06"/><path fill-rule="evenodd" clip-rule="evenodd" d="M187.092 1070.7V1036.82H19.7396V1070.7h3.3468V1077.48H7.69061L7.6906 1199.48H23.0864L23.0863 1206.26H19.7396V1211.18H43.872L50.5654 1217.96v44.05L57.2604 1268.79H78.8818L85.5752 1262.01v-44.05L92.2702 1211.18H114.561L121.255 1217.96v44.05L127.95 1268.79h21.621L156.266 1262.01v-44.05L162.96 1211.18h24.132V1206.26H183.745V1199.48h15.396v-122H183.745V1070.7H187.092z" fill="#000" fill-opacity=".06"/><path fill-rule="evenodd" clip-rule="evenodd" d="M19.7396 826.708v33.885h3.3468V867.373H7.69061L7.6906 989.368H23.0863V996.149H19.7396v33.881H187.092V996.149H183.745V989.368h15.396V867.373H183.745V860.593H187.092V826.708H19.7396z" fill="#000" fill-opacity=".06"/><path fill-rule="evenodd" clip-rule="evenodd" d="M422.725 826.712v33.885h3.346V867.377H410.676V989.373h15.395V996.153h-3.346v67.787h3.346V1070.7H410.676v122.02h15.395V1199.48h-3.346v62.7h24.132L453.384 1255.58V1211.51L460.245 1204.58h21.622L488.728 1211.51V1255.58L495.255 1262.18h22.292L524.074 1255.58V1211.51L530.935 1204.58H552.556L559.418 1211.51V1255.58L565.945 1262.18H590.077v-62.7H586.73V1192.72h15.396V1070.7H586.73V1063.94H590.077V996.153H586.73V989.373h15.396V867.377H586.73V860.597H590.077V826.712H422.725z" fill="#000" fill-opacity=".06"/><path fill-rule="evenodd" clip-rule="evenodd" d="M624.219 826.712v33.885H627.567V867.377H612.169V989.373h15.398V996.153H624.219v67.787H627.567V1070.7H612.169v122.02h15.398V1199.48H624.219v62.7H648.351L654.878 1255.58V1211.51L661.739 1204.58H683.362L690.224 1211.51V1255.58L696.749 1262.18h22.293L725.567 1255.58V1211.51L732.43 1204.58H754.052L760.913 1211.51V1255.58L767.44 1262.18H791.572v-62.7h-3.346V1192.72h15.396V1070.7H788.226V1063.94H791.573V996.153H788.226V989.373h15.396V867.377H788.226V860.597H791.573V826.712H624.219z" fill="#000" fill-opacity=".06"/><path fill-rule="evenodd" clip-rule="evenodd" d="M604.81 1487.2H2.41524L2.41523 1643.11H604.977V1487.2" fill="#000" fill-opacity=".06"/><path fill-rule="evenodd" clip-rule="evenodd" d="M604.815 660.478H2.58839L2.58837 816.076H604.815V660.478z" fill="#000" fill-opacity=".06"/><path fill-rule="evenodd" clip-rule="evenodd" d="M100.824 1512.28C100.824 1513.4 101.723 1514.31 102.831 1514.31 103.941 1514.31 104.84 1513.4 104.84 1512.28 104.84 1511.17 103.941 1510.25 102.831 1510.25 101.723 1510.25 100.824 1511.17 100.824 1512.28z" fill="#000" fill-opacity=".06"/><path fill-rule="evenodd" clip-rule="evenodd" d="M201.233 1512.28C201.233 1513.4 202.133 1514.31 203.241 1514.31 204.35 1514.31 205.25 1513.4 205.25 1512.28 205.25 1511.17 204.35 1510.25 203.241 1510.25 202.133 1510.25 201.233 1511.17 201.233 1512.28z" fill="#000" fill-opacity=".06"/><path fill-rule="evenodd" clip-rule="evenodd" d="M502.467 1512.28C502.467 1513.4 503.367 1514.31 504.476 1514.31 505.584 1514.31 506.483 1513.4 506.483 1512.28 506.483 1511.17 505.584 1510.25 504.476 1510.25 503.367 1510.25 502.467 1511.17 502.467 1512.28z" fill="#000" fill-opacity=".06"/><path fill-rule="evenodd" clip-rule="evenodd" d="M301.648 1512.28C301.648 1513.4 302.548 1514.31 303.656 1514.31 304.765 1514.31 305.665 1513.4 305.665 1512.28 305.665 1511.17 304.765 1510.25 303.656 1510.25 302.548 1510.25 301.648 1511.17 301.648 1512.28z" fill="#000" fill-opacity=".06"/><path fill-rule="evenodd" clip-rule="evenodd" d="M402.063 1512.28C402.063 1513.4 402.963 1514.31 404.072 1514.31 405.18 1514.31 406.079 1513.4 406.079 1512.28 406.079 1511.17 405.18 1510.25 404.072 1510.25 402.963 1510.25 402.063 1511.17 402.063 1512.28z" fill="#000" fill-opacity=".06"/><path fill-rule="evenodd" clip-rule="evenodd" d="M402.063 685.389C402.063 686.506 402.963 687.418 404.072 687.418 405.18 687.418 406.079 686.506 406.079 685.389 406.079 684.256 405.18 683.359 404.072 683.359 402.963 683.359 402.063 684.256 402.063 685.389z" fill="#000" fill-opacity=".06"/><path fill-rule="evenodd" clip-rule="evenodd" d="M301.648 685.389C301.648 686.506 302.548 687.418 303.656 687.418 304.765 687.418 305.665 686.506 305.665 685.389 305.665 684.256 304.765 683.359 303.656 683.359 302.548 683.359 301.648 684.256 301.648 685.389z" fill="#000" fill-opacity=".06"/><path fill-rule="evenodd" clip-rule="evenodd" d="M502.467 685.389C502.467 686.506 503.367 687.418 504.476 687.418 505.584 687.418 506.483 686.506 506.483 685.389 506.483 684.256 505.584 683.359 504.476 683.359 503.367 683.359 502.467 684.256 502.467 685.389z" fill="#000" fill-opacity=".06"/><path fill-rule="evenodd" clip-rule="evenodd" d="M201.233 685.389C201.233 686.506 202.133 687.418 203.241 687.418 204.35 687.418 205.25 686.506 205.25 685.389 205.25 684.256 204.35 683.359 203.241 683.359 202.133 683.359 201.233 684.256 201.233 685.389z" fill="#000" fill-opacity=".06"/><path fill-rule="evenodd" clip-rule="evenodd" d="M100.824 685.389C100.824 686.506 101.723 687.418 102.831 687.418c1.11.0 2.009-.912000000000035 2.009-2.029C104.84 684.256 103.941 683.359 102.831 683.359 101.723 683.359 100.824 684.256 100.824 685.389z" fill="#000" fill-opacity=".06"/><path fill-rule="evenodd" clip-rule="evenodd" d="M557.933 546.91H540.129V511.216L545.557 508.936 552.203 515.668 558.203 513.152V479.361l-6-2.517L545.557 483.561 540.129 481.296v-35.71h17.804L557.99 445.617 559.853 447.505 559.877 447.552v13.451V461.176H560.044 566.738 566.906V461.003 457.793H640.205v76.926H566.906V531.494 531.321H566.738 560.044 559.877V531.494 544.944L559.853 545.007 557.99 546.895 557.933 546.91z" fill="#000" fill-opacity=".06"/><path fill-rule="evenodd" clip-rule="evenodd" d="M681.381 540.902H663.577V505.208L669.004 502.927 675.651 509.66 681.651 507.143V473.352L675.651 470.836 669.004 477.568 663.577 475.287V439.578h17.804L681.437 439.608 683.301 441.496 683.324 441.544v13.465V455.167H683.491 690.186 690.353V455.009 451.785H763.653v76.926H690.353V525.486 525.329H690.186 683.491 683.324V525.486v13.45L683.301 538.999 681.437 540.886 681.381 540.902z" fill="#000" fill-opacity=".06"/><path fill-rule="evenodd" clip-rule="evenodd" d="M557.969 1373.96H539.965V1338.1L545.679 1335.69 552.326 1342.42 558.039 1340.03v-33.79L552.326 1303.83 545.679 1310.57 539.965 1308.18V1272.29h18.004L558.089 1272.36 559.998 1274.29 560.048 1274.4v13.48H566.742V1284.5h73.635v77.27H566.742V1358.37H560.048v13.49L559.998 1371.98 558.089 1373.92 557.969 1373.96z" fill="#000" fill-opacity=".06"/><path fill-rule="evenodd" clip-rule="evenodd" d="M681.407 1367.96H663.402V1332.09L669.117 1329.7 675.762 1336.42 681.477 1334.03v-33.79L675.762 1297.85 669.117 1304.56 663.402 1302.17V1266.31h18.005L681.525 1266.35 683.436 1268.29 683.484 1268.4v13.5H690.179V1278.5h73.635v77.27H690.179V1352.37H683.484v13.5L683.436 1365.98 681.525 1367.91 681.407 1367.96z" fill="#000" fill-opacity=".06"/><circle cx="716.81" cy="206.067" r="37.9597" fill="#f7f7f7"/><path d="M701.728 227.261H696.221l15.929-43.382h5.423l15.929 43.382H727.995L715.031 190.742H714.692L701.728 227.261zM703.762 210.315H725.961v4.66H703.762v-4.66zm11.099 36.011C710.357 246.326 706.064 245.641 701.982 244.271 697.915 242.902 694.18 240.967 690.777 238.467 687.387 235.982 684.443 233.037 681.943 229.634 679.458 226.245 677.53 222.517 676.16 218.449 674.791 214.368 674.106 210.075 674.106 205.57S674.791 196.779 676.16 192.712C677.53 188.631 679.458 184.896 681.943 181.506 684.443 178.103 687.387 175.159 690.777 172.673 694.18 170.174 697.915 168.239 701.982 166.869 706.064 165.499 710.357 164.814 714.861 164.814 719.366 164.814 723.652 165.499 727.719 166.869 731.801 168.239 735.536 170.174 738.925 172.673 742.329 175.159 745.273 178.103 747.758 181.506 750.258 184.896 752.193 188.631 753.563 192.712 754.932 196.779 755.617 201.065 755.617 205.57S754.932 214.368 753.563 218.449C752.193 222.517 750.258 226.245 747.758 229.634 745.273 233.037 742.329 235.982 738.925 238.467 735.536 240.967 731.801 242.902 727.719 244.271 723.652 245.641 719.366 246.326 714.861 246.326zM714.861 241.412C718.83 241.412 722.6 240.804 726.173 239.59 729.76 238.39 733.043 236.688 736.023 234.485 739.017 232.296 741.608 229.712 743.797 226.732 746 223.738 747.702 220.455 748.902 216.882 750.103 213.295 750.703 209.524 750.703 205.57 750.703 201.602 750.103 197.831 748.902 194.259 747.702 190.672 746 187.388 743.797 184.408 741.608 181.415 739.017 178.823 736.023 176.634 733.043 174.431 729.76 172.73 726.173 171.529 722.6 170.329 718.83 169.729 714.861 169.729 710.893 169.729 707.116 170.329 703.529 171.529 699.956 172.73 696.672 174.431 693.679 176.634 690.699 178.823 688.107 181.415 685.904 184.408 683.716 187.388 682.021 190.672 680.821 194.259 679.62 197.831 679.02 201.602 679.02 205.57 679.02 209.524 679.62 213.295 680.821 216.882 682.021 220.455 683.716 223.738 685.904 226.732 688.107 229.712 690.699 232.296 693.679 234.485 696.672 236.688 699.956 238.39 703.529 239.59 707.116 240.804 710.893 241.412 714.861 241.412z" fill="#000"/><circle cx="505.32" cy="206.067" r="37.9597" fill="#f7f7f7"/><path d="M490.238 227.261H484.731l15.929-43.382h5.423L522.012 227.261H516.505l-12.964-36.519H503.202l-12.964 36.519zM492.272 210.315h22.199v4.66H492.272v-4.66zm11.099 36.011C498.867 246.326 494.574 245.641 490.492 244.271 486.425 242.902 482.69 240.967 479.287 238.467 475.897 235.982 472.953 233.037 470.453 229.634 467.968 226.245 466.04 222.517 464.67 218.449 463.301 214.368 462.616 210.075 462.616 205.57S463.301 196.779 464.67 192.712C466.04 188.631 467.968 184.896 470.453 181.506 472.953 178.103 475.897 175.159 479.287 172.673 482.69 170.174 486.425 168.239 490.492 166.869 494.574 165.499 498.867 164.814 503.371 164.814 507.876 164.814 512.162 165.499 516.229 166.869 520.311 168.239 524.046 170.174 527.435 172.673 530.839 175.159 533.783 178.103 536.268 181.506 538.768 184.896 540.703 188.631 542.073 192.712 543.442 196.779 544.127 201.065 544.127 205.57S543.442 214.368 542.073 218.449C540.703 222.517 538.768 226.245 536.268 229.634 533.783 233.037 530.839 235.982 527.435 238.467 524.046 240.967 520.311 242.902 516.229 244.271 512.162 245.641 507.876 246.326 503.371 246.326zM503.371 241.412C507.34 241.412 511.11 240.804 514.683 239.59 518.27 238.39 521.553 236.688 524.533 234.485 527.527 232.296 530.118 229.712 532.307 226.732 534.51 223.738 536.212 220.455 537.412 216.882 538.613 213.295 539.213 209.524 539.213 205.57 539.213 201.602 538.613 197.831 537.412 194.259 536.212 190.672 534.51 187.388 532.307 184.408 530.118 181.415 527.527 178.823 524.533 176.634 521.553 174.431 518.27 172.73 514.683 171.529 511.11 170.329 507.34 169.729 503.371 169.729 499.403 169.729 495.626 170.329 492.039 171.529 488.466 172.73 485.182 174.431 482.189 176.634 479.209 178.823 476.617 181.415 474.414 184.408 472.226 187.388 470.531 190.672 469.331 194.259 468.13 197.831 467.53 201.602 467.53 205.57 467.53 209.524 468.13 213.295 469.331 216.882 470.531 220.455 472.226 223.738 474.414 226.732 476.617 229.712 479.209 232.296 482.189 234.485 485.182 236.688 488.466 238.39 492.039 239.59 495.626 240.804 499.403 241.412 503.371 241.412z" fill="#000"/><circle cx="716.81" cy="1030.33" r="37.9597" fill="#f7f7f7"/><path d="M701.728 1051.53H696.221l15.929-43.38h5.423l15.929 43.38H727.995L715.031 1015.01H714.692L701.728 1051.53zM703.762 1034.58H725.961V1039.24H703.762V1034.58zm11.099 36.01C710.357 1070.59 706.064 1069.91 701.982 1068.54 697.915 1067.17 694.18 1065.23 690.777 1062.74 687.387 1060.25 684.443 1057.31 681.943 1053.9 679.458 1050.51 677.53 1046.78 676.16 1042.72 674.791 1038.64 674.106 1034.34 674.106 1029.84 674.106 1025.33 674.791 1021.05 676.16 1016.98 677.53 1012.9 679.458 1009.16 681.943 1005.77 684.443 1002.37 687.387 999.427 690.777 996.941 694.18 994.442 697.915 992.507 701.982 991.137 706.064 989.767 710.357 989.082 714.861 989.082 719.366 989.082 723.652 989.767 727.719 991.137 731.801 992.507 735.536 994.442 738.925 996.941 742.329 999.427 745.273 1002.37 747.758 1005.77 750.258 1009.16 752.193 1012.9 753.563 1016.98 754.932 1021.05 755.617 1025.33 755.617 1029.84 755.617 1034.34 754.932 1038.64 753.563 1042.72 752.193 1046.78 750.258 1050.51 747.758 1053.9 745.273 1057.31 742.329 1060.25 738.925 1062.74 735.536 1065.23 731.801 1067.17 727.719 1068.54 723.652 1069.91 719.366 1070.59 714.861 1070.59zM714.861 1065.68C718.83 1065.68 722.6 1065.07 726.173 1063.86 729.76 1062.66 733.043 1060.96 736.023 1058.75 739.017 1056.56 741.608 1053.98 743.797 1051 746 1048.01 747.702 1044.72 748.902 1041.15 750.103 1037.56 750.703 1033.79 750.703 1029.84 750.703 1025.87 750.103 1022.1 748.902 1018.53 747.702 1014.94 746 1011.66 743.797 1008.68 741.608 1005.68 739.017 1003.09 736.023 1000.9 733.043 998.699 729.76 996.998 726.173 995.797 722.6 994.597 718.83 993.997 714.861 993.997 710.893 993.997 707.116 994.597 703.529 995.797 699.956 996.998 696.672 998.699 693.679 1000.9 690.699 1003.09 688.107 1005.68 685.904 1008.68 683.716 1011.66 682.021 1014.94 680.821 1018.53 679.62 1022.1 679.02 1025.87 679.02 1029.84 679.02 1033.79 679.62 1037.56 680.821 1041.15 682.021 1044.72 683.716 1048.01 685.904 1051 688.107 1053.98 690.699 1056.56 693.679 1058.75 696.672 1060.96 699.956 1062.66 703.529 1063.86 707.116 1065.07 710.893 1065.68 714.861 1065.68z" fill="#000"/><circle cx="505.32" cy="1030.33" r="37.9597" fill="#f7f7f7"/><path d="M490.238 1051.53H484.731l15.929-43.38h5.423L522.012 1051.53H516.505l-12.964-36.52H503.202l-12.964 36.52zM492.272 1034.58h22.199V1039.24H492.272V1034.58zm11.099 36.01C498.867 1070.59 494.574 1069.91 490.492 1068.54 486.425 1067.17 482.69 1065.23 479.287 1062.74 475.897 1060.25 472.953 1057.31 470.453 1053.9 467.968 1050.51 466.04 1046.78 464.67 1042.72 463.301 1038.64 462.616 1034.34 462.616 1029.84 462.616 1025.33 463.301 1021.05 464.67 1016.98 466.04 1012.9 467.968 1009.16 470.453 1005.77 472.953 1002.37 475.897 999.427 479.287 996.941 482.69 994.442 486.425 992.507 490.492 991.137 494.574 989.767 498.867 989.082 503.371 989.082 507.876 989.082 512.162 989.767 516.229 991.137 520.311 992.507 524.046 994.442 527.435 996.941 530.839 999.427 533.783 1002.37 536.268 1005.77 538.768 1009.16 540.703 1012.9 542.073 1016.98 543.442 1021.05 544.127 1025.33 544.127 1029.84 544.127 1034.34 543.442 1038.64 542.073 1042.72 540.703 1046.78 538.768 1050.51 536.268 1053.9 533.783 1057.31 530.839 1060.25 527.435 1062.74 524.046 1065.23 520.311 1067.17 516.229 1068.54 512.162 1069.91 507.876 1070.59 503.371 1070.59zM503.371 1065.68C507.34 1065.68 511.11 1065.07 514.683 1063.86 518.27 1062.66 521.553 1060.96 524.533 1058.75 527.527 1056.56 530.118 1053.98 532.307 1051 534.51 1048.01 536.212 1044.72 537.412 1041.15 538.613 1037.56 539.213 1033.79 539.213 1029.84 539.213 1025.87 538.613 1022.1 537.412 1018.53 536.212 1014.94 534.51 1011.66 532.307 1008.68 530.118 1005.68 527.527 1003.09 524.533 1000.9 521.553 998.699 518.27 996.998 514.683 995.797 511.11 994.597 507.34 993.997 503.371 993.997 499.403 993.997 495.626 994.597 492.039 995.797 488.466 996.998 485.182 998.699 482.189 1000.9 479.209 1003.09 476.617 1005.68 474.414 1008.68 472.226 1011.66 470.531 1014.94 469.331 1018.53 468.13 1022.1 467.53 1025.87 467.53 1029.84 467.53 1033.79 468.13 1037.56 469.331 1041.15 470.531 1044.72 472.226 1048.01 474.414 1051 476.617 1053.98 479.209 1056.56 482.189 1058.75 485.182 1060.96 488.466 1062.66 492.039 1063.86 495.626 1065.07 499.403 1065.68 503.371 1065.68z" fill="#000"/><circle cx="304.677" cy="103.033" r="37.9597" fill="#f7f7f7"/><path d="M289.256 124.228V80.8454h15.167C307.445 80.8454 309.937 81.3679 311.9 82.4129 313.863 83.4438 315.325 84.8348 316.285 86.5859 317.245 88.3229 317.726 90.2506 317.726 92.3688 317.726 94.2329 317.394 95.7722 316.73 96.9867 316.08 98.2012 315.219 99.1615 314.146 99.8676 313.087 100.574 311.936 101.096 310.693 101.435V101.859C312.02 101.944 313.355 102.41 314.696 103.257 316.038 104.104 317.161 105.319 318.065 106.9 318.968 108.482 319.42 110.417 319.42 112.704 319.42 114.879 318.926 116.835 317.937 118.572 316.949 120.309 315.388 121.686 313.256 122.703 311.124 123.72 308.349 124.228 304.931 124.228H289.256zM294.509 119.568h10.422C308.363 119.568 310.799 118.904 312.239 117.576 313.694 116.235 314.421 114.611 314.421 112.704 314.421 111.236 314.047 109.88 313.298 108.637 312.55 107.38 311.484 106.378 310.1 105.629 308.716 104.867 307.078 104.485 305.185 104.485H294.509v15.083zm0-19.658H304.253C305.835 99.91 307.261 99.5993 308.532 98.9779 309.817 98.3565 310.834 97.481 311.583 96.3512 312.345 95.2215 312.726 93.894 312.726 92.3688 312.726 90.4624 312.063 88.8454 310.735 87.518 309.408 86.1764 307.304 85.5056 304.423 85.5056H294.509V99.91zM302.728 143.293C298.223 143.293 293.93 142.608 289.849 141.238 285.782 139.868 282.047 137.933 278.643 135.434 275.254 132.948 272.31 130.004 269.81 126.6 267.324 123.211 265.397 119.483 264.027 115.416 262.657 111.335 261.972 107.042 261.972 102.537 261.972 98.0317 262.657 93.7457 264.027 89.6786 265.397 85.5974 267.324 81.8621 269.81 78.4729 272.31 75.0695 275.254 72.1251 278.643 69.6396 282.047 67.14 285.782 65.2053 289.849 63.8355 293.93 62.4657 298.223 61.7808 302.728 61.7808S311.519 62.4657 315.586 63.8355C319.667 65.2053 323.403 67.14 326.792 69.6396 330.195 72.1251 333.14 75.0695 335.625 78.4729 338.125 81.8621 340.059 85.5974 341.429 89.6786 342.799 93.7457 343.484 98.0317 343.484 102.537 343.484 107.042 342.799 111.335 341.429 115.416 340.059 119.483 338.125 123.211 335.625 126.6 333.14 130.004 330.195 132.948 326.792 135.434 323.403 137.933 319.667 139.868 315.586 141.238 311.519 142.608 307.233 143.293 302.728 143.293zM302.728 138.378C306.696 138.378 310.467 137.771 314.04 136.556 317.627 135.356 320.91 133.654 323.89 131.451 326.884 129.262 329.475 126.678 331.664 123.698 333.867 120.704 335.569 117.421 336.769 113.848 337.969 110.261 338.57 106.491 338.57 102.537 338.57 98.5684 337.969 94.7978 336.769 91.225 335.569 87.638 333.867 84.3546 331.664 81.3749 329.475 78.3811 326.884 75.7897 323.89 73.6008 320.91 71.3978 317.627 69.6961 314.04 68.4957 310.467 67.2954 306.696 66.6952 302.728 66.6952S294.982 67.2954 291.395 68.4957C287.822 69.6961 284.539 71.3978 281.545 73.6008 278.566 75.7897 275.974 78.3811 273.771 81.3749 271.582 84.3546 269.888 87.638 268.687 91.225 267.487 94.7978 266.887 98.5684 266.887 102.537 266.887 106.491 267.487 110.261 268.687 113.848 269.888 117.421 271.582 120.704 273.771 123.698 275.974 126.678 278.566 129.262 281.545 131.451 284.539 133.654 287.822 135.356 291.395 136.556 294.982 137.771 298.76 138.378 302.728 138.378z" fill="#000"/><circle cx="98.6099" cy="103.033" r="37.9597" fill="#f7f7f7"/><path d="M83.1887 124.228V80.8454h15.167C101.378 80.8454 103.87 81.3679 105.833 82.4129 107.796 83.4438 109.258 84.8348 110.218 86.5859 111.178 88.3229 111.659 90.2506 111.659 92.3688 111.659 94.2329 111.327 95.7722 110.663 96.9867 110.013 98.2012 109.152 99.1615 108.079 99.8676 107.019 100.574 105.869 101.096 104.626 101.435V101.859C105.953 101.944 107.288 102.41 108.629 103.257 109.971 104.104 111.094 105.319 111.997 106.9 112.901 108.482 113.353 110.417 113.353 112.704 113.353 114.879 112.859 116.835 111.87 118.572 110.882 120.309 109.321 121.686 107.189 122.703 105.057 123.72 102.282 124.228 98.864 124.228H83.1887zm5.2534-4.66H98.864C102.296 119.568 104.732 118.904 106.172 117.576 107.627 116.235 108.354 114.611 108.354 112.704 108.354 111.236 107.98 109.88 107.231 108.637 106.483 107.38 105.417 106.378 104.033 105.629 102.649 104.867 101.011 104.485 99.1182 104.485H88.4421v15.083zm0-19.658h9.7441C99.7678 99.91 101.194 99.5993 102.465 98.9779 103.75 98.3565 104.767 97.481 105.515 96.3512 106.278 95.2215 106.659 93.894 106.659 92.3688 106.659 90.4624 105.996 88.8454 104.668 87.518 103.341 86.1764 101.237 85.5056 98.3557 85.5056H88.4421V99.91zM96.661 143.293C92.1561 143.293 87.8631 142.608 83.7818 141.238 79.7147 139.868 75.9795 137.933 72.5761 135.434 69.1868 132.948 66.2424 130.004 63.7428 126.6 61.2574 123.211 59.3297 119.483 57.9599 115.416c-1.3698-4.081-2.0548-8.374-2.0548-12.879C55.9051 98.0317 56.5901 93.7457 57.9599 89.6786 59.3297 85.5974 61.2574 81.8621 63.7428 78.4729 66.2424 75.0695 69.1868 72.1251 72.5761 69.6396 75.9795 67.14 79.7147 65.2053 83.7818 63.8355 87.8631 62.4657 92.1561 61.7808 96.661 61.7808c4.505.0 8.791.684899999999999 12.858 2.0547C113.6 65.2053 117.336 67.14 120.725 69.6396 124.128 72.1251 127.073 75.0695 129.558 78.4729c2.5 3.3892 4.434 7.1245 5.804 11.2057C136.732 93.7457 137.417 98.0317 137.417 102.537 137.417 107.042 136.732 111.335 135.362 115.416 133.992 119.483 132.058 123.211 129.558 126.6 127.073 130.004 124.128 132.948 120.725 135.434c-3.389 2.499-7.125 4.434-11.206 5.804C105.452 142.608 101.166 143.293 96.661 143.293zM96.661 138.378C100.629 138.378 104.4 137.771 107.973 136.556 111.56 135.356 114.843 133.654 117.823 131.451 120.817 129.262 123.408 126.678 125.597 123.698 127.8 120.704 129.502 117.421 130.702 113.848 131.902 110.261 132.502 106.491 132.502 102.537 132.502 98.5684 131.902 94.7978 130.702 91.225 129.502 87.638 127.8 84.3546 125.597 81.3749 123.408 78.3811 120.817 75.7897 117.823 73.6008 114.843 71.3978 111.56 69.6961 107.973 68.4957 104.4 67.2954 100.629 66.6952 96.661 66.6952 92.6928 66.6952 88.9151 67.2954 85.3282 68.4957 81.7553 69.6961 78.472 71.3978 75.4781 73.6008 72.4984 75.7897 69.907 78.3811 67.704 81.3749 65.5151 84.3546 63.8205 87.638 62.6201 91.225c-1.2003 3.5728-1.8005 7.3434-1.8005 11.312C60.8196 106.491 61.4198 110.261 62.6201 113.848 63.8205 117.421 65.5151 120.704 67.704 123.698 69.907 126.678 72.4984 129.262 75.4781 131.451 78.472 133.654 81.7553 135.356 85.3282 136.556 88.9151 137.771 92.6928 138.378 96.661 138.378z" fill="#000"/><circle cx="304.677" cy="927.302" r="37.9597" fill="#f7f7f7"/><path d="M289.256 948.497V905.114h15.167C307.445 905.114 309.938 905.637 311.901 906.682 313.864 907.713 315.325 909.104 316.285 910.855 317.246 912.592 317.726 914.519 317.726 916.638 317.726 918.502 317.394 920.041 316.73 921.256 316.081 922.47 315.219 923.43 314.146 924.137 313.087 924.843 311.936 925.365 310.693 925.704V926.128C312.021 926.212 313.355 926.678 314.697 927.526 316.038 928.373 317.161 929.588 318.065 931.169 318.969 932.751 319.421 934.686 319.421 936.973 319.421 939.148 318.926 941.104 317.938 942.841 316.949 944.578 315.389 945.955 313.256 946.972 311.124 947.988 308.349 948.497 304.931 948.497H289.256zM294.509 943.837h10.422C308.363 943.837 310.799 943.173 312.24 941.845 313.694 940.504 314.421 938.88 314.421 936.973 314.421 935.505 314.047 934.149 313.299 932.906 312.55 931.649 311.484 930.647 310.1 929.898 308.716 929.136 307.078 928.754 305.186 928.754H294.509v15.083zm0-19.658H304.254C305.835 924.179 307.262 923.868 308.533 923.247 309.818 922.625 310.834 921.75 311.583 920.62 312.345 919.49 312.727 918.163 312.727 916.638 312.727 914.731 312.063 913.114 310.736 911.787 309.408 910.445 307.304 909.775 304.423 909.775H294.509v14.404zM302.728 967.561C298.224 967.561 293.93 966.877 289.849 965.507 285.782 964.137 282.047 962.202 278.643 959.703 275.254 957.217 272.31 954.273 269.81 950.869 267.325 947.48 265.397 943.752 264.027 939.685 262.657 935.604 261.973 931.31 261.973 926.806 261.973 922.301 262.657 918.015 264.027 913.948 265.397 909.866 267.325 906.131 269.81 902.742 272.31 899.338 275.254 896.394 278.643 893.909 282.047 891.409 285.782 889.474 289.849 888.104 293.93 886.735 298.224 886.05 302.728 886.05 307.233 886.05 311.519 886.735 315.586 888.104 319.668 889.474 323.403 891.409 326.792 893.909 330.196 896.394 333.14 899.338 335.625 902.742 338.125 906.131 340.06 909.866 341.43 913.948 342.799 918.015 343.484 922.301 343.484 926.806 343.484 931.31 342.799 935.604 341.43 939.685 340.06 943.752 338.125 947.48 335.625 950.869 333.14 954.273 330.196 957.217 326.792 959.703 323.403 962.202 319.668 964.137 315.586 965.507 311.519 966.877 307.233 967.561 302.728 967.561zM302.728 962.647C306.697 962.647 310.467 962.04 314.04 960.825 317.627 959.625 320.91 957.923 323.89 955.72 326.884 953.531 329.475 950.947 331.664 947.967 333.867 944.973 335.569 941.69 336.769 938.117 337.97 934.53 338.57 930.76 338.57 926.806 338.57 922.837 337.97 919.067 336.769 915.494 335.569 911.907 333.867 908.624 331.664 905.644 329.475 902.65 326.884 900.059 323.89 897.87 320.91 895.667 317.627 893.965 314.04 892.765 310.467 891.564 306.697 890.964 302.728 890.964 298.76 890.964 294.983 891.564 291.396 892.765 287.823 893.965 284.539 895.667 281.546 897.87 278.566 900.059 275.974 902.65 273.771 905.644 271.583 908.624 269.888 911.907 268.688 915.494 267.487 919.067 266.887 922.837 266.887 926.806 266.887 930.76 267.487 934.53 268.688 938.117 269.888 941.69 271.583 944.973 273.771 947.967 275.974 950.947 278.566 953.531 281.546 955.72 284.539 957.923 287.823 959.625 291.396 960.825 294.983 962.04 298.76 962.647 302.728 962.647z" fill="#000"/><circle cx="98.6099" cy="927.302" r="37.9597" fill="#f7f7f7"/><path d="M83.1887 948.497V905.114h15.167C101.378 905.114 103.87 905.637 105.833 906.682 107.796 907.713 109.258 909.104 110.218 910.855 111.178 912.592 111.659 914.519 111.659 916.638 111.659 918.502 111.327 920.041 110.663 921.256 110.013 922.47 109.152 923.43 108.079 924.137 107.019 924.843 105.869 925.365 104.626 925.704V926.128C105.953 926.212 107.288 926.678 108.629 927.526 109.971 928.373 111.094 929.588 111.997 931.169 112.901 932.751 113.353 934.686 113.353 936.973 113.353 939.148 112.859 941.104 111.87 942.841 110.882 944.578 109.321 945.955 107.189 946.972 105.057 947.988 102.282 948.497 98.864 948.497H83.1887zM88.4421 943.837H98.864C102.296 943.837 104.732 943.173 106.172 941.845 107.627 940.504 108.354 938.88 108.354 936.973 108.354 935.505 107.98 934.149 107.231 932.906 106.483 931.649 105.417 930.647 104.033 929.898 102.649 929.136 101.011 928.754 99.1182 928.754H88.4421v15.083zm0-19.658h9.7441C99.7678 924.179 101.194 923.868 102.465 923.247 103.75 922.625 104.767 921.75 105.515 920.62 106.278 919.49 106.659 918.163 106.659 916.638 106.659 914.731 105.996 913.114 104.668 911.787 103.341 910.445 101.237 909.775 98.3557 909.775H88.4421v14.404zM96.661 967.561C92.1561 967.561 87.8631 966.877 83.7818 965.507 79.7147 964.137 75.9795 962.202 72.5761 959.703 69.1868 957.217 66.2424 954.273 63.7428 950.869 61.2574 947.48 59.3297 943.752 57.9599 939.685 56.5901 935.604 55.9051 931.31 55.9051 926.806 55.9051 922.301 56.5901 918.015 57.9599 913.948 59.3297 909.866 61.2574 906.131 63.7428 902.742 66.2424 899.338 69.1868 896.394 72.5761 893.909 75.9795 891.409 79.7147 889.474 83.7818 888.104 87.8631 886.735 92.1561 886.05 96.661 886.05 101.166 886.05 105.452 886.735 109.519 888.104 113.6 889.474 117.336 891.409 120.725 893.909 124.128 896.394 127.073 899.338 129.558 902.742 132.058 906.131 133.992 909.866 135.362 913.948 136.732 918.015 137.417 922.301 137.417 926.806 137.417 931.31 136.732 935.604 135.362 939.685 133.992 943.752 132.058 947.48 129.558 950.869 127.073 954.273 124.128 957.217 120.725 959.703 117.336 962.202 113.6 964.137 109.519 965.507 105.452 966.877 101.166 967.561 96.661 967.561zM96.661 962.647c3.968.0 7.739-.607000000000085 11.312-1.822C111.56 959.625 114.843 957.923 117.823 955.72 120.817 953.531 123.408 950.947 125.597 947.967 127.8 944.973 129.502 941.69 130.702 938.117 131.902 934.53 132.502 930.76 132.502 926.806 132.502 922.837 131.902 919.067 130.702 915.494 129.502 911.907 127.8 908.624 125.597 905.644 123.408 902.65 120.817 900.059 117.823 897.87 114.843 895.667 111.56 893.965 107.973 892.765 104.4 891.564 100.629 890.964 96.661 890.964 92.6928 890.964 88.9151 891.564 85.3282 892.765 81.7553 893.965 78.472 895.667 75.4781 897.87 72.4984 900.059 69.907 902.65 67.704 905.644 65.5151 908.624 63.8205 911.907 62.6201 915.494 61.4198 919.067 60.8196 922.837 60.8196 926.806 60.8196 930.76 61.4198 934.53 62.6201 938.117 63.8205 941.69 65.5151 944.973 67.704 947.967 69.907 950.947 72.4984 953.531 75.4781 955.72 78.472 957.923 81.7553 959.625 85.3282 960.825 88.9151 962.04 92.6928 962.647 96.661 962.647z" fill="#000"/><circle cx="304.677" cy="314.523" r="37.9597" fill="#f7f7f7"/><path d="M321.03 305.892H315.777C315.466 304.381 314.922 303.054 314.146 301.91 313.383 300.766 312.451 299.806 311.35 299.029 310.262 298.238 309.055 297.645 307.727 297.25 306.4 296.854 305.016 296.657 303.575 296.657 300.949 296.657 298.569 297.32 296.437 298.648 294.319 299.975 292.631 301.931 291.374 304.516 290.131 307.1 289.51 310.27 289.51 314.027 289.51 317.783 290.131 320.953 291.374 323.538 292.631 326.122 294.319 328.078 296.437 329.405 298.569 330.733 300.949 331.397 303.575 331.397 305.016 331.397 306.4 331.199 307.727 330.803 309.055 330.408 310.262 329.822 311.35 329.045 312.451 328.254 313.383 327.287 314.146 326.143 314.922 324.985 315.466 323.658 315.777 322.161H321.03C320.635 324.378 319.915 326.362 318.87 328.113 317.824 329.864 316.525 331.354 314.972 332.583 313.418 333.797 311.674 334.722 309.74 335.358 307.819 335.993 305.764 336.311 303.575 336.311 299.876 336.311 296.585 335.407 293.704 333.6 290.823 331.792 288.557 329.222 286.905 325.889 285.252 322.556 284.426 318.602 284.426 314.027 284.426 309.451 285.252 305.497 286.905 302.164 288.557 298.831 290.823 296.261 293.704 294.454 296.585 292.646 299.876 291.742 303.575 291.742 305.764 291.742 307.819 292.06 309.74 292.695 311.674 293.331 313.418 294.263 314.972 295.492 316.525 296.706 317.824 298.189 318.87 299.94 319.915 301.677 320.635 303.661 321.03 305.892zm-18.302 48.89C298.223 354.782 293.93 354.098 289.849 352.728 285.782 351.358 282.047 349.423 278.643 346.924 275.254 344.438 272.31 341.494 269.81 338.09 267.324 334.701 265.397 330.973 264.027 326.906 262.657 322.825 261.972 318.532 261.972 314.027S262.657 305.236 264.027 301.169C265.397 297.087 267.324 293.352 269.81 289.963 272.31 286.559 275.254 283.615 278.643 281.13 282.047 278.63 285.782 276.695 289.849 275.325 293.93 273.956 298.223 273.271 302.728 273.271S311.519 273.956 315.586 275.325C319.667 276.695 323.403 278.63 326.792 281.13 330.195 283.615 333.14 286.559 335.625 289.963 338.125 293.352 340.059 297.087 341.429 301.169 342.799 305.236 343.484 309.522 343.484 314.027S342.799 322.825 341.429 326.906C340.059 330.973 338.125 334.701 335.625 338.09 333.14 341.494 330.195 344.438 326.792 346.924 323.403 349.423 319.667 351.358 315.586 352.728 311.519 354.098 307.233 354.782 302.728 354.782zM302.728 349.868C306.696 349.868 310.467 349.261 314.04 348.046 317.627 346.846 320.91 345.144 323.89 342.941 326.884 340.752 329.475 338.168 331.664 335.188 333.867 332.194 335.569 328.911 336.769 325.338 337.969 321.751 338.57 317.981 338.57 314.027 338.57 310.058 337.969 306.288 336.769 302.715 335.569 299.128 333.867 295.845 331.664 292.865 329.475 289.871 326.884 287.28 323.89 285.091 320.91 282.888 317.627 281.186 314.04 279.986 310.467 278.785 306.696 278.185 302.728 278.185S294.982 278.785 291.395 279.986C287.822 281.186 284.539 282.888 281.545 285.091 278.566 287.28 275.974 289.871 273.771 292.865 271.582 295.845 269.888 299.128 268.687 302.715 267.487 306.288 266.887 310.058 266.887 314.027 266.887 317.981 267.487 321.751 268.687 325.338 269.888 328.911 271.582 332.194 273.771 335.188 275.974 338.168 278.566 340.752 281.545 342.941 284.539 345.144 287.822 346.846 291.395 348.046 294.982 349.261 298.76 349.868 302.728 349.868z" fill="#000"/><circle cx="98.6099" cy="314.523" r="37.9597" fill="#f7f7f7"/><path d="M114.963 305.892H109.71C109.399 304.381 108.855 303.054 108.079 301.91 107.316 300.766 106.384 299.806 105.282 299.029 104.195 298.238 102.988 297.645 101.66 297.25 100.333 296.854 98.9488 296.657 97.5083 296.657 94.8817 296.657 92.5021 297.32 90.3697 298.648 88.2514 299.975 86.5638 301.931 85.307 304.516 84.0643 307.1 83.4429 310.27 83.4429 314.027 83.4429 317.783 84.0643 320.953 85.307 323.538 86.5638 326.122 88.2514 328.078 90.3697 329.405 92.5021 330.733 94.8817 331.397 97.5083 331.397 98.9488 331.397 100.333 331.199 101.66 330.803 102.988 330.408 104.195 329.822 105.282 329.045 106.384 328.254 107.316 327.287 108.079 326.143 108.855 324.985 109.399 323.658 109.71 322.161h5.253C114.568 324.378 113.847 326.362 112.802 328.113 111.757 329.864 110.458 331.354 108.905 332.583 107.351 333.797 105.607 334.722 103.673 335.358 101.752 335.993 99.6972 336.311 97.5083 336.311 93.8084 336.311 90.518 335.407 87.6371 333.6 84.7562 331.792 82.4897 329.222 80.8374 325.889 79.1851 322.556 78.359 318.602 78.359 314.027 78.359 309.451 79.1851 305.497 80.8374 302.164 82.4897 298.831 84.7562 296.261 87.6371 294.454 90.518 292.646 93.8084 291.742 97.5083 291.742 99.6972 291.742 101.752 292.06 103.673 292.695 105.607 293.331 107.351 294.263 108.905 295.492 110.458 296.706 111.757 298.189 112.802 299.94 113.847 301.677 114.568 303.661 114.963 305.892zm-18.302 48.89C92.1561 354.782 87.8631 354.098 83.7818 352.728 79.7147 351.358 75.9795 349.423 72.5761 346.924 69.1868 344.438 66.2424 341.494 63.7428 338.09 61.2574 334.701 59.3297 330.973 57.9599 326.906 56.5901 322.825 55.9051 318.532 55.9051 314.027S56.5901 305.236 57.9599 301.169C59.3297 297.087 61.2574 293.352 63.7428 289.963 66.2424 286.559 69.1868 283.615 72.5761 281.13 75.9795 278.63 79.7147 276.695 83.7818 275.325 87.8631 273.956 92.1561 273.271 96.661 273.271 101.166 273.271 105.452 273.956 109.519 275.325 113.6 276.695 117.336 278.63 120.725 281.13 124.128 283.615 127.073 286.559 129.558 289.963 132.058 293.352 133.992 297.087 135.362 301.169 136.732 305.236 137.417 309.522 137.417 314.027S136.732 322.825 135.362 326.906C133.992 330.973 132.058 334.701 129.558 338.09 127.073 341.494 124.128 344.438 120.725 346.924 117.336 349.423 113.6 351.358 109.519 352.728 105.452 354.098 101.166 354.782 96.661 354.782zM96.661 349.868c3.968.0 7.739-.606999999999971 11.312-1.822C111.56 346.846 114.843 345.144 117.823 342.941 120.817 340.752 123.408 338.168 125.597 335.188 127.8 332.194 129.502 328.911 130.702 325.338 131.902 321.751 132.502 317.981 132.502 314.027 132.502 310.058 131.902 306.288 130.702 302.715 129.502 299.128 127.8 295.845 125.597 292.865 123.408 289.871 120.817 287.28 117.823 285.091 114.843 282.888 111.56 281.186 107.973 279.986 104.4 278.785 100.629 278.185 96.661 278.185 92.6928 278.185 88.9151 278.785 85.3282 279.986 81.7553 281.186 78.472 282.888 75.4781 285.091 72.4984 287.28 69.907 289.871 67.704 292.865 65.5151 295.845 63.8205 299.128 62.6201 302.715 61.4198 306.288 60.8196 310.058 60.8196 314.027 60.8196 317.981 61.4198 321.751 62.6201 325.338 63.8205 328.911 65.5151 332.194 67.704 335.188 69.907 338.168 72.4984 340.752 75.4781 342.941 78.472 345.144 81.7553 346.846 85.3282 348.046 88.9151 349.261 92.6928 349.868 96.661 349.868z" fill="#000"/><circle cx="304.677" cy="1138.79" r="37.9597" fill="#f7f7f7"/><path d="M321.03 1130.16H315.777C315.466 1128.65 314.923 1127.32 314.146 1126.18 313.383 1125.04 312.451 1124.07 311.35 1123.3 310.262 1122.51 309.055 1121.91 307.728 1121.52 306.4 1121.12 305.016 1120.93 303.576 1120.93 300.949 1120.93 298.569 1121.59 296.437 1122.92 294.319 1124.24 292.631 1126.2 291.374 1128.78 290.132 1131.37 289.51 1134.54 289.51 1138.3 289.51 1142.05 290.132 1145.22 291.374 1147.81 292.631 1150.39 294.319 1152.35 296.437 1153.67 298.569 1155 300.949 1155.67 303.576 1155.67 305.016 1155.67 306.4 1155.47 307.728 1155.07 309.055 1154.68 310.262 1154.09 311.35 1153.31 312.451 1152.52 313.383 1151.56 314.146 1150.41 314.923 1149.25 315.466 1147.93 315.777 1146.43H321.03C320.635 1148.65 319.915 1150.63 318.87 1152.38S316.526 1155.62 314.972 1156.85C313.419 1158.07 311.675 1158.99 309.74 1159.63 307.819 1160.26 305.765 1160.58 303.576 1160.58 299.876 1160.58 296.585 1159.68 293.704 1157.87 290.824 1156.06 288.557 1153.49 286.905 1150.16 285.253 1146.83 284.426 1142.87 284.426 1138.3 284.426 1133.72 285.253 1129.77 286.905 1126.43 288.557 1123.1 290.824 1120.53 293.704 1118.72 296.585 1116.91 299.876 1116.01 303.576 1116.01 305.765 1116.01 307.819 1116.33 309.74 1116.96 311.675 1117.6 313.419 1118.53 314.972 1119.76 316.526 1120.97 317.825 1122.46 318.87 1124.21 319.915 1125.95 320.635 1127.93 321.03 1130.16zM302.728 1179.05C298.224 1179.05 293.93 1178.37 289.849 1177 285.782 1175.63 282.047 1173.69 278.643 1171.19 275.254 1168.71 272.31 1165.76 269.81 1162.36 267.325 1158.97 265.397 1155.24 264.027 1151.17 262.657 1147.09 261.973 1142.8 261.973 1138.3 261.973 1133.79 262.657 1129.5 264.027 1125.44 265.397 1121.36 267.325 1117.62 269.81 1114.23 272.31 1110.83 275.254 1107.88 278.643 1105.4 282.047 1102.9 285.782 1100.96 289.849 1099.59 293.93 1098.22 298.224 1097.54 302.728 1097.54 307.233 1097.54 311.519 1098.22 315.586 1099.59 319.668 1100.96 323.403 1102.9 326.792 1105.4 330.196 1107.88 333.14 1110.83 335.625 1114.23 338.125 1117.62 340.06 1121.36 341.43 1125.44 342.799 1129.5 343.484 1133.79 343.484 1138.3 343.484 1142.8 342.799 1147.09 341.43 1151.17 340.06 1155.24 338.125 1158.97 335.625 1162.36 333.14 1165.76 330.196 1168.71 326.792 1171.19 323.403 1173.69 319.668 1175.63 315.586 1177 311.519 1178.37 307.233 1179.05 302.728 1179.05zM302.728 1174.14C306.697 1174.14 310.467 1173.53 314.04 1172.32 317.627 1171.11 320.91 1169.41 323.89 1167.21 326.884 1165.02 329.475 1162.44 331.664 1159.46 333.867 1156.46 335.569 1153.18 336.769 1149.61 337.97 1146.02 338.57 1142.25 338.57 1138.3 338.57 1134.33 337.97 1130.56 336.769 1126.98 335.569 1123.4 333.867 1120.11 331.664 1117.13 329.475 1114.14 326.884 1111.55 323.89 1109.36 320.91 1107.16 317.627 1105.46 314.04 1104.25 310.467 1103.05 306.697 1102.45 302.728 1102.45 298.76 1102.45 294.983 1103.05 291.396 1104.25 287.823 1105.46 284.539 1107.16 281.546 1109.36 278.566 1111.55 275.974 1114.14 273.771 1117.13 271.583 1120.11 269.888 1123.4 268.688 1126.98 267.487 1130.56 266.887 1134.33 266.887 1138.3 266.887 1142.25 267.487 1146.02 268.688 1149.61 269.888 1153.18 271.583 1156.46 273.771 1159.46 275.974 1162.44 278.566 1165.02 281.546 1167.21 284.539 1169.41 287.823 1171.11 291.396 1172.32 294.983 1173.53 298.76 1174.14 302.728 1174.14z" fill="#000"/><circle cx="98.6099" cy="1138.79" r="37.9597" fill="#f7f7f7"/><path d="M114.963 1130.16H109.71C109.399 1128.65 108.855 1127.32 108.079 1126.18 107.316 1125.04 106.384 1124.07 105.282 1123.3 104.195 1122.51 102.988 1121.91 101.66 1121.52 100.333 1121.12 98.9488 1120.93 97.5083 1120.93 94.8817 1120.93 92.5021 1121.59 90.3697 1122.92 88.2514 1124.24 86.5638 1126.2 85.307 1128.78 84.0643 1131.37 83.4429 1134.54 83.4429 1138.3 83.4429 1142.05 84.0643 1145.22 85.307 1147.81 86.5638 1150.39 88.2514 1152.35 90.3697 1153.67 92.5021 1155 94.8817 1155.67 97.5083 1155.67 98.9488 1155.67 100.333 1155.47 101.66 1155.07 102.988 1154.68 104.195 1154.09 105.282 1153.31 106.384 1152.52 107.316 1151.56 108.079 1150.41 108.855 1149.25 109.399 1147.93 109.71 1146.43h5.253C114.568 1148.65 113.847 1150.63 112.802 1152.38 111.757 1154.13 110.458 1155.62 108.905 1156.85 107.351 1158.07 105.607 1158.99 103.673 1159.63 101.752 1160.26 99.6972 1160.58 97.5083 1160.58 93.8084 1160.58 90.518 1159.68 87.6371 1157.87 84.7562 1156.06 82.4897 1153.49 80.8374 1150.16 79.1851 1146.83 78.359 1142.87 78.359 1138.3 78.359 1133.72 79.1851 1129.77 80.8374 1126.43 82.4897 1123.1 84.7562 1120.53 87.6371 1118.72S93.8084 1116.01 97.5083 1116.01C99.6972 1116.01 101.752 1116.33 103.673 1116.96 105.607 1117.6 107.351 1118.53 108.905 1119.76 110.458 1120.97 111.757 1122.46 112.802 1124.21 113.847 1125.95 114.568 1127.93 114.963 1130.16zM96.661 1179.05C92.1561 1179.05 87.8631 1178.37 83.7818 1177 79.7147 1175.63 75.9795 1173.69 72.5761 1171.19 69.1868 1168.71 66.2424 1165.76 63.7428 1162.36 61.2574 1158.97 59.3297 1155.24 57.9599 1151.17 56.5901 1147.09 55.9051 1142.8 55.9051 1138.3 55.9051 1133.79 56.5901 1129.5 57.9599 1125.44 59.3297 1121.36 61.2574 1117.62 63.7428 1114.23 66.2424 1110.83 69.1868 1107.88 72.5761 1105.4 75.9795 1102.9 79.7147 1100.96 83.7818 1099.59 87.8631 1098.22 92.1561 1097.54 96.661 1097.54 101.166 1097.54 105.452 1098.22 109.519 1099.59 113.6 1100.96 117.336 1102.9 120.725 1105.4 124.128 1107.88 127.073 1110.83 129.558 1114.23 132.058 1117.62 133.992 1121.36 135.362 1125.44 136.732 1129.5 137.417 1133.79 137.417 1138.3 137.417 1142.8 136.732 1147.09 135.362 1151.17 133.992 1155.24 132.058 1158.97 129.558 1162.36 127.073 1165.76 124.128 1168.71 120.725 1171.19 117.336 1173.69 113.6 1175.63 109.519 1177 105.452 1178.37 101.166 1179.05 96.661 1179.05zM96.661 1174.14C100.629 1174.14 104.4 1173.53 107.973 1172.32 111.56 1171.11 114.843 1169.41 117.823 1167.21 120.817 1165.02 123.408 1162.44 125.597 1159.46 127.8 1156.46 129.502 1153.18 130.702 1149.61 131.902 1146.02 132.502 1142.25 132.502 1138.3 132.502 1134.33 131.902 1130.56 130.702 1126.98S127.8 1120.11 125.597 1117.13C123.408 1114.14 120.817 1111.55 117.823 1109.36 114.843 1107.16 111.56 1105.46 107.973 1104.25 104.4 1103.05 100.629 1102.45 96.661 1102.45 92.6928 1102.45 88.9151 1103.05 85.3282 1104.25 81.7553 1105.46 78.472 1107.16 75.4781 1109.36 72.4984 1111.55 69.907 1114.14 67.704 1117.13 65.5151 1120.11 63.8205 1123.4 62.6201 1126.98 61.4198 1130.56 60.8196 1134.33 60.8196 1138.3 60.8196 1142.25 61.4198 1146.02 62.6201 1149.61 63.8205 1153.18 65.5151 1156.46 67.704 1159.46 69.907 1162.44 72.4984 1165.02 75.4781 1167.21 78.472 1169.41 81.7553 1171.11 85.3282 1172.32 88.9151 1173.53 92.6928 1174.14 96.661 1174.14z" fill="#000"/><circle cx="304.677" cy="742.926" r="37.9597" fill="#f7f7f7"/><path d="M302.22 764.121H288.832V720.738h13.981C307.021 720.738 310.623 721.607 313.616 723.344 316.61 725.066 318.905 727.545 320.501 730.779 322.097 733.999 322.895 737.854 322.895 742.345 322.895 746.864 322.09 750.754 320.48 754.016 318.87 757.264 316.526 759.764 313.447 761.515 310.368 763.252 306.626 764.121 302.22 764.121zM294.086 759.46H301.881C305.468 759.46 308.441 758.768 310.799 757.384S314.916 754.03 316.074 751.474C317.232 748.918 317.811 745.875 317.811 742.345 317.811 738.842 317.239 735.827 316.095 733.3 314.951 730.758 313.242 728.809 310.969 727.453 308.695 726.083 305.863 725.398 302.474 725.398H294.086V759.46zM302.728 783.185C298.224 783.185 293.93 782.5 289.849 781.13 285.782 779.761 282.047 777.826 278.643 775.326 275.254 772.841 272.31 769.896 269.81 766.493 267.325 763.104 265.397 759.376 264.027 755.309 262.657 751.227 261.973 746.934 261.973 742.429S262.657 733.638 264.027 729.571C265.397 725.49 267.325 721.755 269.81 718.366 272.31 714.962 275.254 712.018 278.643 709.532 282.047 707.033 285.782 705.098 289.849 703.728 293.93 702.358 298.224 701.673 302.728 701.673 307.233 701.673 311.519 702.358 315.586 703.728 319.668 705.098 323.403 707.033 326.792 709.532 330.196 712.018 333.14 714.962 335.625 718.366 338.125 721.755 340.06 725.49 341.43 729.571 342.799 733.638 343.484 737.924 343.484 742.429S342.799 751.227 341.43 755.309C340.06 759.376 338.125 763.104 335.625 766.493 333.14 769.896 330.196 772.841 326.792 775.326 323.403 777.826 319.668 779.761 315.586 781.13 311.519 782.5 307.233 783.185 302.728 783.185zM302.728 778.271C306.697 778.271 310.467 777.664 314.04 776.449 317.627 775.249 320.91 773.547 323.89 771.344 326.884 769.155 329.475 766.571 331.664 763.591 333.867 760.597 335.569 757.314 336.769 753.741 337.97 750.154 338.57 746.383 338.57 742.429 338.57 738.461 337.97 734.691 336.769 731.118 335.569 727.531 333.867 724.247 331.664 721.268 329.475 718.274 326.884 715.682 323.89 713.494 320.91 711.29 317.627 709.589 314.04 708.388 310.467 707.188 306.697 706.588 302.728 706.588 298.76 706.588 294.983 707.188 291.396 708.388 287.823 709.589 284.539 711.29 281.546 713.494 278.566 715.682 275.974 718.274 273.771 721.268 271.583 724.247 269.888 727.531 268.688 731.118 267.487 734.691 266.887 738.461 266.887 742.429 266.887 746.383 267.487 750.154 268.688 753.741 269.888 757.314 271.583 760.597 273.771 763.591 275.974 766.571 278.566 769.155 281.546 771.344 284.539 773.547 287.823 775.249 291.396 776.449 294.983 777.664 298.76 778.271 302.728 778.271z" fill="#000"/><circle cx="304.677" cy="1567.19" r="37.9597" fill="#f7f7f7"/><path d="M302.22 1588.39H288.832V1545.01h13.981C307.021 1545.01 310.622 1545.88 313.616 1547.61 316.61 1549.34 318.905 1551.81 320.501 1555.05 322.096 1558.27 322.894 1562.12 322.894 1566.61 322.894 1571.13 322.089 1575.02 320.479 1578.29 318.87 1581.53 316.525 1584.03 313.447 1585.78 310.368 1587.52 306.626 1588.39 302.22 1588.39zM294.086 1583.73H301.881C305.468 1583.73 308.44 1583.04 310.799 1581.65 313.157 1580.27 314.915 1578.3 316.073 1575.74 317.231 1573.19 317.81 1570.14 317.81 1566.61 317.81 1563.11 317.238 1560.1 316.095 1557.57 314.951 1555.03 313.242 1553.08 310.968 1551.72 308.695 1550.35 305.863 1549.67 302.474 1549.67H294.086V1583.73zm8.642 23.72C298.223 1607.45 293.93 1606.77 289.849 1605.4 285.782 1604.03 282.047 1602.09 278.643 1599.6 275.254 1597.11 272.31 1594.17 269.81 1590.76 267.324 1587.37 265.397 1583.64 264.027 1579.58 262.657 1575.5 261.972 1571.2 261.972 1566.7 261.972 1562.19 262.657 1557.91 264.027 1553.84 265.397 1549.76 267.324 1546.02 269.81 1542.63 272.31 1539.23 275.254 1536.29 278.643 1533.8 282.047 1531.3 285.782 1529.37 289.849 1528 293.93 1526.63 298.223 1525.94 302.728 1525.94S311.519 1526.63 315.586 1528C319.667 1529.37 323.403 1531.3 326.792 1533.8 330.195 1536.29 333.14 1539.23 335.625 1542.63 338.125 1546.02 340.059 1549.76 341.429 1553.84 342.799 1557.91 343.484 1562.19 343.484 1566.7 343.484 1571.2 342.799 1575.5 341.429 1579.58 340.059 1583.64 338.125 1587.37 335.625 1590.76 333.14 1594.17 330.195 1597.11 326.792 1599.6 323.403 1602.09 319.667 1604.03 315.586 1605.4 311.519 1606.77 307.233 1607.45 302.728 1607.45zM302.728 1602.54C306.696 1602.54 310.467 1601.93 314.04 1600.72 317.627 1599.52 320.91 1597.82 323.89 1595.61 326.884 1593.42 329.475 1590.84 331.664 1587.86 333.867 1584.87 335.569 1581.58 336.769 1578.01 337.969 1574.42 338.57 1570.65 338.57 1566.7 338.57 1562.73 337.969 1558.96 336.769 1555.39 335.569 1551.8 333.867 1548.52 331.664 1545.54 329.475 1542.54 326.884 1539.95 323.89 1537.76 320.91 1535.56 317.627 1533.86 314.04 1532.66 310.467 1531.46 306.696 1530.86 302.728 1530.86S294.982 1531.46 291.395 1532.66C287.822 1533.86 284.539 1535.56 281.545 1537.76 278.566 1539.95 275.974 1542.54 273.771 1545.54 271.582 1548.52 269.888 1551.8 268.687 1555.39 267.487 1558.96 266.887 1562.73 266.887 1566.7 266.887 1570.65 267.487 1574.42 268.687 1578.01 269.888 1581.58 271.582 1584.87 273.771 1587.86 275.974 1590.84 278.566 1593.42 281.545 1595.61 284.539 1597.82 287.822 1599.52 291.395 1600.72 294.982 1601.93 298.76 1602.54 302.728 1602.54z" fill="#000"/><circle cx="402.287" cy="504.322" r="37.9597" fill="#f7f7f7"/><path d="M387.078 525.517V482.134H413.26v4.661H392.331v14.658h19.573V506.113H392.331v14.744h21.268V525.517H387.078zm13.261 19.064C395.834 544.581 391.541 543.897 387.459 542.527 383.392 541.157 379.657 539.222 376.254 536.723 372.864 534.237 369.92 531.293 367.42 527.889 364.935 524.5 363.007 520.772 361.637 516.705 360.268 512.624 359.583 508.33 359.583 503.826 359.583 499.321 360.268 495.035 361.637 490.968 363.007 486.886 364.935 483.151 367.42 479.762 369.92 476.358 372.864 473.414 376.254 470.929 379.657 468.429 383.392 466.494 387.459 465.124 391.541 463.755 395.834 463.07 400.339 463.07 404.843 463.07 409.129 463.755 413.197 465.124 417.278 466.494 421.013 468.429 424.402 470.929 427.806 473.414 430.75 476.358 433.236 479.762 435.735 483.151 437.67 486.886 439.04 490.968 440.409 495.035 441.094 499.321 441.094 503.826 441.094 508.33 440.409 512.624 439.04 516.705 437.67 520.772 435.735 524.5 433.236 527.889 430.75 531.293 427.806 534.237 424.402 536.723 421.013 539.222 417.278 541.157 413.197 542.527 409.129 543.897 404.843 544.581 400.339 544.581zM400.339 539.667C404.307 539.667 408.077 539.06 411.65 537.845 415.237 536.645 418.52 534.943 421.5 532.74 424.494 530.551 427.085 527.967 429.274 524.987 431.477 521.993 433.179 518.71 434.379 515.137 435.58 511.55 436.18 507.78 436.18 503.826 436.18 499.857 435.58 496.087 434.379 492.514 433.179 488.927 431.477 485.644 429.274 482.664 427.085 479.67 424.494 477.079 421.5 474.89 418.52 472.687 415.237 470.985 411.65 469.785 408.077 468.584 404.307 467.984 400.339 467.984 396.37 467.984 392.593 468.584 389.006 469.785 385.433 470.985 382.149 472.687 379.156 474.89 376.176 477.079 373.585 479.67 371.382 482.664 369.193 485.644 367.498 488.927 366.298 492.514 365.097 496.087 364.497 499.857 364.497 503.826 364.497 507.78 365.097 511.55 366.298 515.137 367.498 518.71 369.193 521.993 371.382 524.987 373.585 527.967 376.176 530.551 379.156 532.74 382.149 534.943 385.433 536.645 389.006 537.845 392.593 539.06 396.37 539.667 400.339 539.667z" fill="#000"/><circle cx="104.033" cy="601.932" r="37.9597" fill="#f7f7f7"/><path d="M88.8234 623.127V579.744H115.005V584.405H94.0767v14.658H113.65V603.723H94.0767v14.744H115.344V623.127H88.8234zM102.084 642.192C97.579 642.192 93.2859 641.507 89.2047 640.137 85.1376 638.767 81.4023 636.832 77.9989 634.333 74.6097 631.847 71.6652 628.903 69.1657 625.499 66.6802 622.11 64.7526 618.382 63.3827 614.315 62.0129 610.234 61.328 605.941 61.328 601.436S62.0129 592.645 63.3827 588.578C64.7526 584.496 66.6802 580.761 69.1657 577.372 71.6652 573.969 74.6097 571.024 77.9989 568.539 81.4023 566.039 85.1376 564.104 89.2047 562.735 93.2859 561.365 97.579 560.68 102.084 560.68 106.589 560.68 110.875 561.365 114.942 562.735 119.023 564.104 122.758 566.039 126.148 568.539 129.551 571.024 132.495 573.969 134.981 577.372 137.48 580.761 139.415 584.496 140.785 588.578 142.155 592.645 142.84 596.931 142.84 601.436S142.155 610.234 140.785 614.315C139.415 618.382 137.48 622.11 134.981 625.499 132.495 628.903 129.551 631.847 126.148 634.333 122.758 636.832 119.023 638.767 114.942 640.137 110.875 641.507 106.589 642.192 102.084 642.192zM102.084 637.277C106.052 637.277 109.823 636.67 113.396 635.455 116.983 634.255 120.266 632.553 123.246 630.35 126.239 628.161 128.831 625.577 131.02 622.597 133.223 619.604 134.924 616.32 136.125 612.747 137.325 609.16 137.925 605.39 137.925 601.436 137.925 597.467 137.325 593.697 136.125 590.124 134.924 586.537 133.223 583.254 131.02 580.274 128.831 577.28 126.239 574.689 123.246 572.5 120.266 570.297 116.983 568.595 113.396 567.395 109.823 566.194 106.052 565.594 102.084 565.594 98.1156 565.594 94.338 566.194 90.751 567.395 87.1782 568.595 83.8948 570.297 80.901 572.5 77.9213 574.689 75.3299 577.28 73.1269 580.274 70.938 583.254 69.2433 586.537 68.043 590.124 66.8426 593.697 66.2424 597.467 66.2424 601.436 66.2424 605.39 66.8426 609.16 68.043 612.747 69.2433 616.32 70.938 619.604 73.1269 622.597 75.3299 625.577 77.9213 628.161 80.901 630.35 83.8948 632.553 87.1782 634.255 90.751 635.455 94.338 636.67 98.1156 637.277 102.084 637.277z" fill="#000"/><circle cx="104.033" cy="1431.62" r="37.9597" fill="#f7f7f7"/><path d="M88.8234 1452.82V1409.44H115.005V1414.1H94.0767V1428.75H113.65V1433.42H94.0767v14.74H115.344V1452.82H88.8234zM102.084 1471.88C97.579 1471.88 93.2859 1471.2 89.2047 1469.83 85.1376 1468.46 81.4023 1466.52 77.9989 1464.02 74.6097 1461.54 71.6652 1458.59 69.1657 1455.19 66.6802 1451.8 64.7526 1448.07 63.3827 1444.01 62.0129 1439.93 61.328 1435.63 61.328 1431.13 61.328 1426.62 62.0129 1422.34 63.3827 1418.27 64.7526 1414.19 66.6802 1410.45 69.1657 1407.06 71.6652 1403.66 74.6097 1400.72 77.9989 1398.23 81.4023 1395.73 85.1376 1393.8 89.2047 1392.43 93.2859 1391.06 97.579 1390.37 102.084 1390.37 106.589 1390.37 110.875 1391.06 114.942 1392.43 119.023 1393.8 122.758 1395.73 126.148 1398.23 129.551 1400.72 132.495 1403.66 134.981 1407.06 137.48 1410.45 139.415 1414.19 140.785 1418.27 142.155 1422.34 142.84 1426.62 142.84 1431.13 142.84 1435.63 142.155 1439.93 140.785 1444.01 139.415 1448.07 137.48 1451.8 134.981 1455.19 132.495 1458.59 129.551 1461.54 126.148 1464.02 122.758 1466.52 119.023 1468.46 114.942 1469.83 110.875 1471.2 106.589 1471.88 102.084 1471.88zM102.084 1466.97C106.052 1466.97 109.823 1466.36 113.396 1465.15 116.983 1463.95 120.266 1462.24 123.246 1460.04 126.239 1457.85 128.831 1455.27 131.02 1452.29 133.223 1449.3 134.924 1446.01 136.125 1442.44 137.325 1438.85 137.925 1435.08 137.925 1431.13 137.925 1427.16 137.325 1423.39 136.125 1419.82 134.924 1416.23 133.223 1412.95 131.02 1409.97 128.831 1406.97 126.239 1404.38 123.246 1402.19 120.266 1399.99 116.983 1398.29 113.396 1397.09 109.823 1395.89 106.052 1395.29 102.084 1395.29 98.1156 1395.29 94.338 1395.89 90.751 1397.09 87.1782 1398.29 83.8948 1399.99 80.901 1402.19 77.9213 1404.38 75.3299 1406.97 73.1269 1409.97 70.938 1412.95 69.2433 1416.23 68.043 1419.82 66.8426 1423.39 66.2424 1427.16 66.2424 1431.13 66.2424 1435.08 66.8426 1438.85 68.043 1442.44 69.2433 1446.01 70.938 1449.3 73.1269 1452.29 75.3299 1455.27 77.9213 1457.85 80.901 1460.04 83.8948 1462.24 87.1782 1463.95 90.751 1465.15 94.338 1466.36 98.1156 1466.97 102.084 1466.97z" fill="#000"/><circle cx="402.287" cy="1328.59" r="37.9597" fill="#f7f7f7"/><path d="M387.078 1349.78V1306.4H413.26V1311.06H392.331V1325.72h19.573V1330.38H392.331V1345.12h21.268V1349.78H387.078zM400.339 1368.85C395.834 1368.85 391.541 1368.16 387.459 1366.79 383.392 1365.42 379.657 1363.49 376.254 1360.99 372.864 1358.51 369.92 1355.56 367.42 1352.16 364.935 1348.77 363.007 1345.04 361.637 1340.97 360.268 1336.89 359.583 1332.6 359.583 1328.09 359.583 1323.59 360.268 1319.3 361.637 1315.24 363.007 1311.15 364.935 1307.42 367.42 1304.03 369.92 1300.63 372.864 1297.68 376.254 1295.2 379.657 1292.7 383.392 1290.76 387.459 1289.39 391.541 1288.02 395.834 1287.34 400.339 1287.34 404.843 1287.34 409.129 1288.02 413.197 1289.39 417.278 1290.76 421.013 1292.7 424.402 1295.2 427.806 1297.68 430.75 1300.63 433.236 1304.03 435.735 1307.42 437.67 1311.15 439.04 1315.24 440.409 1319.3 441.094 1323.59 441.094 1328.09 441.094 1332.6 440.409 1336.89 439.04 1340.97 437.67 1345.04 435.735 1348.77 433.236 1352.16 430.75 1355.56 427.806 1358.51 424.402 1360.99 421.013 1363.49 417.278 1365.42 413.197 1366.79 409.129 1368.16 404.843 1368.85 400.339 1368.85zM400.339 1363.94C404.307 1363.94 408.077 1363.33 411.65 1362.11 415.237 1360.91 418.52 1359.21 421.5 1357.01 424.494 1354.82 427.085 1352.24 429.274 1349.26 431.477 1346.26 433.179 1342.98 434.379 1339.41 435.58 1335.82 436.18 1332.05 436.18 1328.09 436.18 1324.13 435.58 1320.35 434.379 1316.78 433.179 1313.2 431.477 1309.91 429.274 1306.93 427.085 1303.94 424.494 1301.35 421.5 1299.16 418.52 1296.95 415.237 1295.25 411.65 1294.05 408.077 1292.85 404.307 1292.25 400.339 1292.25 396.37 1292.25 392.593 1292.85 389.006 1294.05 385.433 1295.25 382.149 1296.95 379.156 1299.16 376.176 1301.35 373.585 1303.94 371.382 1306.93 369.193 1309.91 367.498 1313.2 366.298 1316.78 365.097 1320.35 364.497 1324.13 364.497 1328.09 364.497 1332.05 365.097 1335.82 366.298 1339.41 367.498 1342.98 369.193 1346.26 371.382 1349.26 373.585 1352.24 376.176 1354.82 379.156 1357.01 382.149 1359.21 385.433 1360.91 389.006 1362.11 392.593 1363.33 396.37 1363.94 400.339 1363.94z" fill="#000"/><circle cx="716.81" cy="493.476" r="37.9597" fill="#f7f7f7"/><path d="M701.855 514.67V471.288h26.013V475.948H707.109v14.659H725.919V495.267H707.109V514.67H701.855zM714.861 533.735C710.357 533.735 706.064 533.05 701.982 531.68 697.915 530.31 694.18 528.376 690.777 525.876 687.387 523.391 684.443 520.446 681.943 517.043 679.458 513.654 677.53 509.925 676.16 505.858 674.791 501.777 674.106 497.484 674.106 492.979S674.791 484.188 676.16 480.121C677.53 476.04 679.458 472.305 681.943 468.915 684.443 465.512 687.387 462.568 690.777 460.082 694.18 457.583 697.915 455.648 701.982 454.278 706.064 452.908 710.357 452.223 714.861 452.223 719.366 452.223 723.652 452.908 727.719 454.278 731.801 455.648 735.536 457.583 738.925 460.082 742.329 462.568 745.273 465.512 747.758 468.915 750.258 472.305 752.193 476.04 753.563 480.121 754.932 484.188 755.617 488.474 755.617 492.979S754.932 501.777 753.563 505.858C752.193 509.925 750.258 513.654 747.758 517.043 745.273 520.446 742.329 523.391 738.925 525.876 735.536 528.376 731.801 530.31 727.719 531.68 723.652 533.05 719.366 533.735 714.861 533.735zM714.861 528.821C718.83 528.821 722.6 528.213 726.173 526.999 729.76 525.798 733.043 524.097 736.023 521.894 739.017 519.705 741.608 517.121 743.797 514.141 746 511.147 747.702 507.864 748.902 504.291 750.103 500.704 750.703 496.933 750.703 492.979 750.703 489.011 750.103 485.24 748.902 481.667 747.702 478.081 746 474.797 743.797 471.817 741.608 468.824 739.017 466.232 736.023 464.043 733.043 461.84 729.76 460.139 726.173 458.938 722.6 457.738 718.83 457.138 714.861 457.138 710.893 457.138 707.116 457.738 703.529 458.938 699.956 460.139 696.672 461.84 693.679 464.043 690.699 466.232 688.107 468.824 685.904 471.817 683.716 474.797 682.021 478.081 680.821 481.667 679.62 485.24 679.02 489.011 679.02 492.979 679.02 496.933 679.62 500.704 680.821 504.291 682.021 507.864 683.716 511.147 685.904 514.141 688.107 517.121 690.699 519.705 693.679 521.894 696.672 524.097 699.956 525.798 703.529 526.999 707.116 528.213 710.893 528.821 714.861 528.821z" fill="#000"/><circle cx="592.086" cy="498.899" r="37.9597" fill="#f7f7f7"/><path d="M577.131 520.094V476.711h26.013v4.661h-20.76V496.03h18.811V500.69H582.384V520.094H577.131zM590.137 539.159C585.632 539.159 581.339 538.474 577.258 537.104 573.191 535.734 569.456 533.799 566.052 531.3 562.663 528.814 559.719 525.87 557.219 522.466 554.734 519.077 552.806 515.349 551.436 511.282 550.066 507.201 549.381 502.908 549.381 498.403S550.066 489.612 551.436 485.545C552.806 481.463 554.734 477.728 557.219 474.339 559.719 470.936 562.663 467.991 566.052 465.506 569.456 463.006 573.191 461.071 577.258 459.702 581.339 458.332 585.632 457.647 590.137 457.647 594.642 457.647 598.928 458.332 602.995 459.702 607.077 461.071 610.812 463.006 614.201 465.506 617.604 467.991 620.549 470.936 623.034 474.339 625.534 477.728 627.469 481.463 628.838 485.545 630.208 489.612 630.893 493.898 630.893 498.403S630.208 507.201 628.838 511.282C627.469 515.349 625.534 519.077 623.034 522.466 620.549 525.87 617.604 528.814 614.201 531.3 610.812 533.799 607.077 535.734 602.995 537.104 598.928 538.474 594.642 539.159 590.137 539.159zM590.137 534.244C594.106 534.244 597.876 533.637 601.449 532.422 605.036 531.222 608.319 529.52 611.299 527.317 614.293 525.128 616.884 522.544 619.073 519.564 621.276 516.571 622.978 513.287 624.178 509.714 625.379 506.127 625.979 502.357 625.979 498.403 625.979 494.434 625.379 490.664 624.178 487.091 622.978 483.504 621.276 480.221 619.073 477.241 616.884 474.247 614.293 471.656 611.299 469.467 608.319 467.264 605.036 465.562 601.449 464.362 597.876 463.161 594.106 462.561 590.137 462.561 586.169 462.561 582.391 463.161 578.804 464.362 575.232 465.562 571.948 467.264 568.954 469.467 565.975 471.656 563.383 474.247 561.18 477.241 558.991 480.221 557.297 483.504 556.096 487.091 554.896 490.664 554.296 494.434 554.296 498.403 554.296 502.357 554.896 506.127 556.096 509.714 557.297 513.287 558.991 516.571 561.18 519.564 563.383 522.544 565.975 525.128 568.954 527.317 571.948 529.52 575.232 531.222 578.804 532.422 582.391 533.637 586.169 534.244 590.137 534.244z" fill="#000"/><circle cx="716.81" cy="1317.74" r="37.9597" fill="#f7f7f7"/><path d="M701.855 1338.94V1295.56h26.013V1300.22H707.109V1314.87H725.919V1319.54H707.109V1338.94H701.855zM714.861 1358C710.357 1358 706.064 1357.32 701.982 1355.95 697.915 1354.58 694.18 1352.64 690.777 1350.14 687.387 1347.66 684.443 1344.71 681.943 1341.31 679.458 1337.92 677.53 1334.19 676.16 1330.13 674.791 1326.05 674.106 1321.75 674.106 1317.25 674.106 1312.74 674.791 1308.46 676.16 1304.39 677.53 1300.31 679.458 1296.57 681.943 1293.18 684.443 1289.78 687.387 1286.84 690.777 1284.35 694.18 1281.85 697.915 1279.92 701.982 1278.55 706.064 1277.18 710.357 1276.49 714.861 1276.49 719.366 1276.49 723.652 1277.18 727.719 1278.55 731.801 1279.92 735.536 1281.85 738.925 1284.35 742.329 1286.84 745.273 1289.78 747.758 1293.18 750.258 1296.57 752.193 1300.31 753.563 1304.39 754.932 1308.46 755.617 1312.74 755.617 1317.25 755.617 1321.75 754.932 1326.05 753.563 1330.13 752.193 1334.19 750.258 1337.92 747.758 1341.31 745.273 1344.71 742.329 1347.66 738.925 1350.14 735.536 1352.64 731.801 1354.58 727.719 1355.95 723.652 1357.32 719.366 1358 714.861 1358zM714.861 1353.09C718.83 1353.09 722.6 1352.48 726.173 1351.27 729.76 1350.07 733.043 1348.37 736.023 1346.16 739.017 1343.97 741.608 1341.39 743.797 1338.41 746 1335.42 747.702 1332.13 748.902 1328.56 750.103 1324.97 750.703 1321.2 750.703 1317.25 750.703 1313.28 750.103 1309.51 748.902 1305.94 747.702 1302.35 746 1299.07 743.797 1296.09 741.608 1293.09 739.017 1290.5 736.023 1288.31 733.043 1286.11 729.76 1284.41 726.173 1283.21 722.6 1282.01 718.83 1281.41 714.861 1281.41 710.893 1281.41 707.116 1282.01 703.529 1283.21 699.956 1284.41 696.672 1286.11 693.679 1288.31 690.699 1290.5 688.107 1293.09 685.904 1296.09 683.716 1299.07 682.021 1302.35 680.821 1305.94 679.62 1309.51 679.02 1313.28 679.02 1317.25 679.02 1321.2 679.62 1324.97 680.821 1328.56 682.021 1332.13 683.716 1335.42 685.904 1338.41 688.107 1341.39 690.699 1343.97 693.679 1346.16 696.672 1348.37 699.956 1350.07 703.529 1351.27 707.116 1352.48 710.893 1353.09 714.861 1353.09z" fill="#000"/><circle cx="592.086" cy="1323.17" r="37.9597" fill="#f7f7f7"/><path d="M577.131 1344.36V1300.98h26.013V1305.64h-20.76V1320.3h18.811V1324.96H582.384V1344.36H577.131zM590.137 1363.43C585.632 1363.43 581.339 1362.74 577.258 1361.37 573.191 1360 569.456 1358.07 566.052 1355.57 562.663 1353.08 559.719 1350.14 557.219 1346.73 554.734 1343.35 552.806 1339.62 551.436 1335.55 550.066 1331.47 549.381 1327.18 549.381 1322.67 549.381 1318.17 550.066 1313.88 551.436 1309.81 552.806 1305.73 554.734 1302 557.219 1298.61 559.719 1295.2 562.663 1292.26 566.052 1289.77 569.456 1287.27 573.191 1285.34 577.258 1283.97 581.339 1282.6 585.632 1281.91 590.137 1281.91 594.642 1281.91 598.928 1282.6 602.995 1283.97 607.077 1285.34 610.812 1287.27 614.201 1289.77 617.604 1292.26 620.549 1295.2 623.034 1298.61 625.534 1302 627.469 1305.73 628.838 1309.81 630.208 1313.88 630.893 1318.17 630.893 1322.67 630.893 1327.18 630.208 1331.47 628.838 1335.55 627.469 1339.62 625.534 1343.35 623.034 1346.73 620.549 1350.14 617.604 1353.08 614.201 1355.57 610.812 1358.07 607.077 1360 602.995 1361.37 598.928 1362.74 594.642 1363.43 590.137 1363.43zM590.137 1358.51C594.106 1358.51 597.876 1357.9 601.449 1356.69 605.036 1355.49 608.319 1353.79 611.299 1351.59 614.293 1349.4 616.884 1346.81 619.073 1343.83 621.276 1340.84 622.978 1337.56 624.178 1333.98 625.379 1330.4 625.979 1326.62 625.979 1322.67 625.979 1318.7 625.379 1314.93 624.178 1311.36 622.978 1307.77 621.276 1304.49 619.073 1301.51 616.884 1298.52 614.293 1295.92 611.299 1293.73 608.319 1291.53 605.036 1289.83 601.449 1288.63 597.876 1287.43 594.106 1286.83 590.137 1286.83 586.169 1286.83 582.391 1287.43 578.804 1288.63 575.232 1289.83 571.948 1291.53 568.954 1293.73 565.975 1295.92 563.383 1298.52 561.18 1301.51 558.991 1304.49 557.297 1307.77 556.096 1311.36 554.896 1314.93 554.296 1318.7 554.296 1322.67 554.296 1326.62 554.896 1330.4 556.096 1333.98 557.297 1337.56 558.991 1340.84 561.18 1343.83 563.383 1346.81 565.975 1349.4 568.954 1351.59 571.948 1353.79 575.232 1355.49 578.804 1356.69 582.391 1357.9 586.169 1358.51 590.137 1358.51z" fill="#000"/><circle cx="613.775" cy="1426.2" r="37.9597" fill="#f7f7f7"/><path d="M624.663 1417.57C624.197 1416.14 623.582 1414.87 622.82 1413.74 622.071 1412.59 621.175 1411.62 620.13 1410.81 619.099 1410.01 617.926 1409.39 616.613 1408.97 615.3 1408.55 613.859 1408.33 612.292 1408.33 609.722 1408.33 607.384 1409 605.28 1410.33 603.176 1411.65 601.503 1413.61 600.26 1416.19 599.017 1418.78 598.396 1421.95 598.396 1425.7 598.396 1429.46 599.024 1432.63 600.281 1435.22 601.538 1437.8 603.24 1439.76 605.386 1441.08 607.533 1442.41 609.948 1443.07 612.631 1443.07 615.116 1443.07 617.305 1442.54 619.197 1441.49 621.104 1440.41 622.587 1438.9 623.646 1436.95 624.719 1434.99 625.256 1432.68 625.256 1430.03L626.866 1430.36H613.817V1425.7H630.34V1430.36C630.34 1433.94 629.577 1437.04 628.052 1439.69 626.541 1442.33 624.451 1444.37 621.782 1445.83 619.127 1447.27 616.077 1447.99 612.631 1447.99 608.79 1447.99 605.414 1447.09 602.505 1445.28 599.61 1443.47 597.351 1440.9 595.727 1437.57 594.117 1434.23 593.312 1430.28 593.312 1425.7 593.312 1422.27 593.771 1419.19 594.689 1416.45 595.621 1413.69 596.934 1411.35 598.629 1409.41 600.324 1407.48 602.329 1406 604.645 1404.97S609.51 1403.42 612.292 1403.42C614.58 1403.42 616.712 1403.77 618.689 1404.46 620.68 1405.14 622.453 1406.1 624.006 1407.36 625.574 1408.6 626.88 1410.09 627.925 1411.83 628.97 1413.55 629.69 1415.47 630.085 1417.57H624.663zM611.826 1466.46C607.321 1466.46 603.028 1465.78 598.947 1464.41 594.88 1463.04 591.144 1461.1 587.741 1458.6 584.352 1456.12 581.407 1453.17 578.908 1449.77 576.422 1446.38 574.495 1442.65 573.125 1438.58 571.755 1434.5 571.07 1430.21 571.07 1425.7 571.07 1421.2 571.755 1416.91 573.125 1412.85 574.495 1408.77 576.422 1405.03 578.908 1401.64 581.407 1398.24 584.352 1395.29 587.741 1392.81 591.144 1390.31 594.88 1388.37 598.947 1387 603.028 1385.63 607.321 1384.95 611.826 1384.95S620.617 1385.63 624.684 1387C628.765 1388.37 632.5 1390.31 635.89 1392.81 639.293 1395.29 642.237 1398.24 644.723 1401.64 647.222 1405.03 649.157 1408.77 650.527 1412.85 651.897 1416.91 652.582 1421.2 652.582 1425.7 652.582 1430.21 651.897 1434.5 650.527 1438.58 649.157 1442.65 647.222 1446.38 644.723 1449.77 642.237 1453.17 639.293 1456.12 635.89 1458.6 632.5 1461.1 628.765 1463.04 624.684 1464.41 620.617 1465.78 616.331 1466.46 611.826 1466.46zM611.826 1461.55C615.794 1461.55 619.565 1460.94 623.137 1459.72 626.724 1458.52 630.008 1456.82 632.988 1454.62 635.981 1452.43 638.573 1449.85 640.762 1446.87 642.965 1443.87 644.666 1440.59 645.867 1437.02 647.067 1433.43 647.667 1429.66 647.667 1425.7S647.067 1417.97 645.867 1414.39C644.666 1410.81 642.965 1407.52 640.762 1404.54 638.573 1401.55 635.981 1398.96 632.988 1396.77 630.008 1394.57 626.724 1392.86 623.137 1391.66 619.565 1390.46 615.794 1389.86 611.826 1389.86 607.858 1389.86 604.08 1390.46 600.493 1391.66 596.92 1392.86 593.637 1394.57 590.643 1396.77 587.663 1398.96 585.072 1401.55 582.869 1404.54 580.68 1407.52 578.985 1410.81 577.785 1414.39 576.585 1417.97 575.984 1421.74 575.984 1425.7S576.585 1433.43 577.785 1437.02C578.985 1440.59 580.68 1443.87 582.869 1446.87 585.072 1449.85 587.663 1452.43 590.643 1454.62 593.637 1456.82 596.92 1458.52 600.493 1459.72 604.08 1460.94 607.858 1461.55 611.826 1461.55z" fill="#000"/><circle cx="613.775" cy="601.932" r="37.9597" fill="#f7f7f7"/><path d="M624.663 593.301C624.197 591.875 623.582 590.597 622.82 589.467 622.071 588.323 621.175 587.349 620.13 586.544 619.099 585.739 617.926 585.125 616.613 584.701 615.3 584.278 613.859 584.066 612.292 584.066 609.722 584.066 607.384 584.729 605.28 586.057 603.176 587.384 601.503 589.34 600.26 591.925 599.017 594.509 598.396 597.679 598.396 601.436 598.396 605.192 599.024 608.362 600.281 610.947 601.538 613.531 603.24 615.487 605.386 616.814 607.533 618.142 609.948 618.806 612.631 618.806 615.116 618.806 617.305 618.276 619.197 617.217 621.104 616.144 622.587 614.633 623.646 612.684 624.719 610.721 625.256 608.412 625.256 605.757L626.866 606.096H613.817V601.436H630.34V606.096C630.34 609.669 629.577 612.776 628.052 615.416 626.541 618.057 624.451 620.105 621.782 621.559 619.127 623 616.077 623.72 612.631 623.72 608.79 623.72 605.414 622.816 602.505 621.009 599.61 619.201 597.351 616.631 595.727 613.298 594.117 609.965 593.312 606.011 593.312 601.436 593.312 598.004 593.771 594.918 594.689 592.179 595.621 589.425 596.934 587.081 598.629 585.146 600.324 583.211 602.329 581.729 604.645 580.698 606.961 579.667 609.51 579.151 612.292 579.151 614.58 579.151 616.712 579.497 618.689 580.189 620.68 580.867 622.453 581.834 624.006 583.091 625.574 584.334 626.88 585.824 627.925 587.561 628.97 589.284 629.69 591.197 630.085 593.301H624.663zm-12.837 48.891C607.321 642.192 603.028 641.507 598.947 640.137 594.88 638.767 591.144 636.832 587.741 634.333 584.352 631.847 581.407 628.903 578.908 625.499 576.422 622.11 574.495 618.382 573.125 614.315 571.755 610.234 571.07 605.941 571.07 601.436S571.755 592.645 573.125 588.578C574.495 584.496 576.422 580.761 578.908 577.372 581.407 573.969 584.352 571.024 587.741 568.539 591.144 566.039 594.88 564.104 598.947 562.735 603.028 561.365 607.321 560.68 611.826 560.68S620.617 561.365 624.684 562.735C628.765 564.104 632.5 566.039 635.89 568.539 639.293 571.024 642.237 573.969 644.723 577.372 647.222 580.761 649.157 584.496 650.527 588.578 651.897 592.645 652.582 596.931 652.582 601.436S651.897 610.234 650.527 614.315C649.157 618.382 647.222 622.11 644.723 625.499 642.237 628.903 639.293 631.847 635.89 634.333 632.5 636.832 628.765 638.767 624.684 640.137 620.617 641.507 616.331 642.192 611.826 642.192zM611.826 637.277C615.794 637.277 619.565 636.67 623.137 635.455 626.724 634.255 630.008 632.553 632.988 630.35 635.981 628.161 638.573 625.577 640.762 622.597 642.965 619.604 644.666 616.32 645.867 612.747 647.067 609.16 647.667 605.39 647.667 601.436 647.667 597.467 647.067 593.697 645.867 590.124 644.666 586.537 642.965 583.254 640.762 580.274 638.573 577.28 635.981 574.689 632.988 572.5 630.008 570.297 626.724 568.595 623.137 567.395 619.565 566.194 615.794 565.594 611.826 565.594 607.858 565.594 604.08 566.194 600.493 567.395 596.92 568.595 593.637 570.297 590.643 572.5 587.663 574.689 585.072 577.28 582.869 580.274 580.68 583.254 578.985 586.537 577.785 590.124 576.585 593.697 575.984 597.467 575.984 601.436 575.984 605.39 576.585 609.16 577.785 612.747 578.985 616.32 580.68 619.604 582.869 622.597 585.072 625.577 587.663 628.161 590.643 630.35 593.637 632.553 596.92 634.255 600.493 635.455 604.08 636.67 607.858 637.277 611.826 637.277z" fill="#000"/><circle cx="765.618" cy="639.892" r="37.9597" fill="#f7f7f7"/><path d="M746.85 661.087V617.704H752.103V637.023H775.235V617.704H780.488v43.383H775.235V641.683H752.103v19.404H746.85zM763.669 680.152C759.164 680.152 754.871 679.467 750.79 678.097 746.723 676.727 742.988 674.792 739.584 672.293 736.195 669.807 733.25 666.863 730.751 663.459 728.265 660.07 726.338 656.342 724.968 652.275 723.598 648.194 722.913 643.901 722.913 639.396S723.598 630.605 724.968 626.538C726.338 622.456 728.265 618.721 730.751 615.332 733.25 611.928 736.195 608.984 739.584 606.499 742.988 603.999 746.723 602.064 750.79 600.695 754.871 599.325 759.164 598.64 763.669 598.64S772.46 599.325 776.527 600.695C780.608 602.064 784.344 603.999 787.733 606.499 791.136 608.984 794.081 611.928 796.566 615.332 799.066 618.721 801 622.456 802.37 626.538 803.74 630.605 804.425 634.891 804.425 639.396S803.74 648.194 802.37 652.275C801 656.342 799.066 660.07 796.566 663.459 794.081 666.863 791.136 669.807 787.733 672.293 784.344 674.792 780.608 676.727 776.527 678.097 772.46 679.467 768.174 680.152 763.669 680.152zM763.669 675.237C767.637 675.237 771.408 674.63 774.981 673.415 778.568 672.215 781.851 670.513 784.831 668.31 787.825 666.121 790.416 663.537 792.605 660.557 794.808 657.563 796.51 654.28 797.71 650.707 798.91 647.12 799.511 643.35 799.511 639.396 799.511 635.427 798.91 631.657 797.71 628.084 796.51 624.497 794.808 621.214 792.605 618.234 790.416 615.24 787.825 612.649 784.831 610.46 781.851 608.257 778.568 606.555 774.981 605.355 771.408 604.154 767.637 603.554 763.669 603.554S755.923 604.154 752.336 605.355C748.763 606.555 745.48 608.257 742.486 610.46 739.506 612.649 736.915 615.24 734.712 618.234 732.523 621.214 730.829 624.497 729.628 628.084 728.428 631.657 727.828 635.427 727.828 639.396 727.828 643.35 728.428 647.12 729.628 650.707 730.829 654.28 732.523 657.563 734.712 660.557 736.915 663.537 739.506 666.121 742.486 668.31 745.48 670.513 748.763 672.215 752.336 673.415 755.923 674.63 759.701 675.237 763.669 675.237z" fill="#000"/><circle cx="765.618" cy="1464.16" r="37.9597" fill="#f7f7f7"/><path d="M746.85 1485.36V1441.97H752.103V1461.29H775.235V1441.97H780.488V1485.36H775.235V1465.95H752.103V1485.36H746.85zM763.669 1504.42C759.164 1504.42 754.871 1503.74 750.79 1502.37 746.723 1501 742.988 1499.06 739.584 1496.56 736.195 1494.08 733.25 1491.13 730.751 1487.73 728.265 1484.34 726.338 1480.61 724.968 1476.54 723.598 1472.46 722.913 1468.17 722.913 1463.66 722.913 1459.16 723.598 1454.87 724.968 1450.81 726.338 1446.73 728.265 1442.99 730.751 1439.6 733.25 1436.2 736.195 1433.25 739.584 1430.77 742.988 1428.27 746.723 1426.33 750.79 1424.96 754.871 1423.59 759.164 1422.91 763.669 1422.91S772.46 1423.59 776.527 1424.96C780.608 1426.33 784.344 1428.27 787.733 1430.77 791.136 1433.25 794.081 1436.2 796.566 1439.6 799.066 1442.99 801 1446.73 802.37 1450.81 803.74 1454.87 804.425 1459.16 804.425 1463.66 804.425 1468.17 803.74 1472.46 802.37 1476.54 801 1480.61 799.066 1484.34 796.566 1487.73 794.081 1491.13 791.136 1494.08 787.733 1496.56 784.344 1499.06 780.608 1501 776.527 1502.37 772.46 1503.74 768.174 1504.42 763.669 1504.42zM763.669 1499.51C767.637 1499.51 771.408 1498.9 774.981 1497.68 778.568 1496.48 781.851 1494.78 784.831 1492.58 787.825 1490.39 790.416 1487.81 792.605 1484.83 794.808 1481.83 796.51 1478.55 797.71 1474.98 798.91 1471.39 799.511 1467.62 799.511 1463.66 799.511 1459.7 798.91 1455.93 797.71 1452.35 796.51 1448.77 794.808 1445.48 792.605 1442.5 790.416 1439.51 787.825 1436.92 784.831 1434.73 781.851 1432.53 778.568 1430.82 774.981 1429.62 771.408 1428.42 767.637 1427.82 763.669 1427.82S755.923 1428.42 752.336 1429.62C748.763 1430.82 745.48 1432.53 742.486 1434.73 739.506 1436.92 736.915 1439.51 734.712 1442.5 732.523 1445.48 730.829 1448.77 729.628 1452.35 728.428 1455.93 727.828 1459.7 727.828 1463.66 727.828 1467.62 728.428 1471.39 729.628 1474.98 730.829 1478.55 732.523 1481.83 734.712 1484.83 736.915 1487.81 739.506 1490.39 742.486 1492.58 745.48 1494.78 748.763 1496.48 752.336 1497.68 755.923 1498.9 759.701 1499.51 763.669 1499.51z" fill="#000"/><circle cx="700.544" cy="1599.73" r="37.9597" fill="#f7f7f7"/><path d="M701.222 1577.54V1620.93H695.969V1577.54H701.222zM698.596 1639.99C694.091 1639.99 689.798 1639.31 685.716 1637.94 681.649 1636.57 677.914 1634.63 674.511 1632.13 671.121 1629.65 668.177 1626.7 665.677 1623.3 663.192 1619.91 661.264 1616.18 659.894 1612.11 658.525 1608.03 657.84 1603.74 657.84 1599.23 657.84 1594.73 658.525 1590.44 659.894 1586.38 661.264 1582.3 663.192 1578.56 665.677 1575.17 668.177 1571.77 671.121 1568.82 674.511 1566.34 677.914 1563.84 681.649 1561.9 685.716 1560.53 689.798 1559.16 694.091 1558.48 698.596 1558.48 703.1 1558.48 707.386 1559.16 711.454 1560.53 715.535 1561.9 719.27 1563.84 722.659 1566.34 726.063 1568.82 729.007 1571.77 731.493 1575.17 733.992 1578.56 735.927 1582.3 737.297 1586.38 738.667 1590.44 739.351 1594.73 739.351 1599.23 739.351 1603.74 738.667 1608.03 737.297 1612.11 735.927 1616.18 733.992 1619.91 731.493 1623.3 729.007 1626.7 726.063 1629.65 722.659 1632.13 719.27 1634.63 715.535 1636.57 711.454 1637.94 707.386 1639.31 703.1 1639.99 698.596 1639.99zM698.596 1635.08C702.564 1635.08 706.334 1634.47 709.907 1633.25 713.494 1632.05 716.778 1630.35 719.757 1628.15 722.751 1625.96 725.343 1623.38 727.531 1620.4 729.734 1617.4 731.436 1614.12 732.636 1610.55 733.837 1606.96 734.437 1603.19 734.437 1599.23S733.837 1591.5 732.636 1587.92C731.436 1584.34 729.734 1581.05 727.531 1578.07 725.343 1575.08 722.751 1572.49 719.757 1570.3 716.778 1568.1 713.494 1566.39 709.907 1565.19 706.334 1563.99 702.564 1563.39 698.596 1563.39 694.627 1563.39 690.85 1563.99 687.263 1565.19 683.69 1566.39 680.407 1568.1 677.413 1570.3 674.433 1572.49 671.842 1575.08 669.639 1578.07 667.45 1581.05 665.755 1584.34 664.555 1587.92 663.354 1591.5 662.754 1595.27 662.754 1599.23S663.354 1606.96 664.555 1610.55C665.755 1614.12 667.45 1617.4 669.639 1620.4 671.842 1623.38 674.433 1625.96 677.413 1628.15 680.407 1630.35 683.69 1632.05 687.263 1633.25 690.85 1634.47 694.627 1635.08 698.596 1635.08z" fill="#000"/><circle cx="700.542" cy="775.463" r="37.9597" fill="#f7f7f7"/><path d="M701.22 753.275V796.657H695.966V753.275H701.22zM698.593 815.722C694.088 815.722 689.795 815.037 685.714 813.667 681.647 812.298 677.911 810.363 674.508 807.863 671.119 805.378 668.174 802.433 665.675 799.03 663.189 795.641 661.262 791.913 659.892 787.845 658.522 783.764 657.837 779.471 657.837 774.966S658.522 766.175 659.892 762.108C661.262 758.027 663.189 754.292 665.675 750.902 668.174 747.499 671.119 744.555 674.508 742.069 677.911 739.57 681.647 737.635 685.714 736.265 689.795 734.895 694.088 734.21 698.593 734.21S707.384 734.895 711.451 736.265C715.532 737.635 719.267 739.57 722.657 742.069 726.06 744.555 729.004 747.499 731.49 750.902 733.99 754.292 735.924 758.027 737.294 762.108 738.664 766.175 739.349 770.461 739.349 774.966S738.664 783.764 737.294 787.845C735.924 791.913 733.99 795.641 731.49 799.03 729.004 802.433 726.06 805.378 722.657 807.863 719.267 810.363 715.532 812.298 711.451 813.667 707.384 815.037 703.098 815.722 698.593 815.722zM698.593 810.808C702.561 810.808 706.332 810.2 709.905 808.986 713.492 807.786 716.775 806.084 719.755 803.881 722.748 801.692 725.34 799.108 727.529 796.128 729.732 793.134 731.433 789.851 732.634 786.278 733.834 782.691 734.434 778.92 734.434 774.966 734.434 770.998 733.834 767.227 732.634 763.655 731.433 760.068 729.732 756.784 727.529 753.804 725.34 750.811 722.748 748.219 719.755 746.03 716.775 743.827 713.492 742.126 709.905 740.925 706.332 739.725 702.561 739.125 698.593 739.125 694.625 739.125 690.847 739.725 687.26 740.925 683.687 742.126 680.404 743.827 677.41 746.03 674.43 748.219 671.839 750.811 669.636 753.804 667.447 756.784 665.752 760.068 664.552 763.655 663.352 767.227 662.751 770.998 662.751 774.966 662.751 778.92 663.352 782.691 664.552 786.278 665.752 789.851 667.447 793.134 669.636 796.128 671.839 799.108 674.43 801.692 677.41 803.881 680.404 806.084 683.687 807.786 687.26 808.986 690.847 810.2 694.625 810.808 698.593 810.808z" fill="#000"/></svg>