<svg width="1275" height="1644" viewBox="0 0 1275 1644" fill="none" xmlns="http://www.w3.org/2000/svg"><path d="M797.908 1058.84 775.262 1145.66l478.868 276.5L1272.01 1411.84V1203.03l-39.74-22.95L1227.31 1182.95 1222.34 1180.08V1153.69L1122.99 1096.32 1105.1 1106.65 1073.31 1088.29V858.827l-39.74-22.949L1028.61 838.75 1023.64 835.878V809.492l-99.352-57.365-17.88 10.326L892.499 754.418l-17.886 10.327-22.87 87.686L846.799 848.083l-17.885 10.326L783.123 1033.98 805.229 1053.42 804.863 1054.82 797.908 1058.84z" fill="#f0f0f0" stroke="#000" stroke-width="3.25274" stroke-miterlimit="10"/><path d="M853.721 854.131 848.777 849.782" stroke="#000" stroke-width="1.62637" stroke-miterlimit="10" stroke-linecap="round" stroke-linejoin="round"/><path d="M1075.29 1089.99V860.526" stroke="#000" stroke-width="1.62637" stroke-miterlimit="10" stroke-linecap="round" stroke-linejoin="round"/><path d="M908.381 764.15 894.471 756.12" stroke="#000" stroke-width="1.62637" stroke-miterlimit="10" stroke-linecap="round" stroke-linejoin="round"/><path d="M1107.08 1108.35 1075.29 1089.99" stroke="#000" stroke-width="1.62637" stroke-miterlimit="10" stroke-linecap="round" stroke-linejoin="round"/><path d="M1273.99 1204.72v208.81" stroke="#000" stroke-width="1.62637" stroke-miterlimit="10" stroke-linecap="round" stroke-linejoin="round"/><path d="M1229.28 1184.64 1224.31 1181.78" stroke="#000" stroke-width="1.62637" stroke-miterlimit="10" stroke-linecap="round" stroke-linejoin="round"/><path d="M1030.58 840.447 1025.61 837.58" stroke="#000" stroke-width="1.62637" stroke-miterlimit="10" stroke-linecap="round" stroke-linejoin="round"/><path d="M1025.62 811.191v26.386" stroke="#000" stroke-width="1.62637" stroke-miterlimit="10" stroke-linecap="round" stroke-linejoin="round"/><path d="M926.262 753.824l99.348 57.365" stroke="#000" stroke-width="1.62637" stroke-miterlimit="10" stroke-linecap="round" stroke-linejoin="round"/><path d="M1075.29 860.525l-39.74-22.949" stroke="#000" stroke-width="1.62637" stroke-miterlimit="10" stroke-linecap="round" stroke-linejoin="round"/><path d="M1273.99 1204.72l-39.74-22.95" stroke="#000" stroke-width="1.62637" stroke-miterlimit="10" stroke-linecap="round" stroke-linejoin="round"/><path d="M1224.32 1155.39 1124.97 1098.02" stroke="#000" stroke-width="1.62637" stroke-miterlimit="10" stroke-linecap="round" stroke-linejoin="round"/><path d="M1224.32 1155.39V1181.77" stroke="#000" stroke-width="1.62637" stroke-miterlimit="10" stroke-linecap="round" stroke-linejoin="round"/><path d="M777.237 1147.36 799.883 1060.54" stroke="#000" stroke-width="1.62637" stroke-miterlimit="10" stroke-linecap="round" stroke-linejoin="round"/><path d="M799.877 1060.54 804.683 1064.76" stroke="#000" stroke-width="1.62637" stroke-miterlimit="10" stroke-linecap="round" stroke-linejoin="round"/><path d="M807.209 1055.12 785.102 1035.67" stroke="#000" stroke-width="1.62637" stroke-miterlimit="10" stroke-linecap="round" stroke-linejoin="round"/><path d="M785.102 1035.67 830.893 860.106" stroke="#000" stroke-width="1.62637" stroke-miterlimit="10" stroke-linecap="round" stroke-linejoin="round"/><path d="M852.996 879.554 830.89 860.109" stroke="#000" stroke-width="1.62637" stroke-miterlimit="10" stroke-linecap="round" stroke-linejoin="round"/><path d="M855.505 869.908 852.99 879.557" stroke="#000" stroke-width="1.62637" stroke-miterlimit="10" stroke-linecap="round" stroke-linejoin="round"/><path d="M850.702 865.68 855.509 869.906" stroke="#000" stroke-width="1.62637" stroke-miterlimit="10" stroke-linecap="round" stroke-linejoin="round"/><path d="M898.45 779.065 876.593 766.443" stroke="#000" stroke-width="1.62637" stroke-miterlimit="10" stroke-linecap="round" stroke-linejoin="round"/><path d="M898.456 779.065V784.804" stroke="#000" stroke-width="1.62637" stroke-miterlimit="10" stroke-linecap="round" stroke-linejoin="round"/><path d="M908.389 790.539 898.456 784.8" stroke="#000" stroke-width="1.62637" stroke-miterlimit="10" stroke-linecap="round" stroke-linejoin="round"/><path d="M908.378 764.15l99.352 57.365" stroke="#000" stroke-width="1.62637" stroke-miterlimit="10" stroke-linecap="round" stroke-linejoin="round"/><path d="M1007.73 821.516V847.907" stroke="#000" stroke-width="1.62637" stroke-miterlimit="10" stroke-linecap="round" stroke-linejoin="round"/><path d="M1017.67 853.641 1007.73 847.902" stroke="#000" stroke-width="1.62637" stroke-miterlimit="10" stroke-linecap="round" stroke-linejoin="round"/><path d="M1017.67 847.904V853.643" stroke="#000" stroke-width="1.62637" stroke-miterlimit="10" stroke-linecap="round" stroke-linejoin="round"/><path d="M1057.41 870.85 1017.67 847.901" stroke="#000" stroke-width="1.62637" stroke-miterlimit="10" stroke-linecap="round" stroke-linejoin="round"/><path d="M1057.4 1100.32V870.853" stroke="#000" stroke-width="1.62637" stroke-miterlimit="10" stroke-linecap="round" stroke-linejoin="round"/><path d="M1097.15 1123.26l-39.75-22.95" stroke="#000" stroke-width="1.62637" stroke-miterlimit="10" stroke-linecap="round" stroke-linejoin="round"/><path d="M1097.14 1123.26V1129" stroke="#000" stroke-width="1.62637" stroke-miterlimit="10" stroke-linecap="round" stroke-linejoin="round"/><path d="M1107.08 1134.74 1097.15 1129" stroke="#000" stroke-width="1.62637" stroke-miterlimit="10" stroke-linecap="round" stroke-linejoin="round"/><path d="M1206.43 1165.71 1107.08 1108.35" stroke="#000" stroke-width="1.62637" stroke-miterlimit="10" stroke-linecap="round" stroke-linejoin="round"/><path d="M1206.43 1165.71V1192.1" stroke="#000" stroke-width="1.62637" stroke-miterlimit="10" stroke-linecap="round" stroke-linejoin="round"/><path d="M1216.36 1197.84 1206.43 1192.1" stroke="#000" stroke-width="1.62637" stroke-miterlimit="10" stroke-linecap="round" stroke-linejoin="round"/><path d="M1216.36 1192.1V1197.84" stroke="#000" stroke-width="1.62637" stroke-miterlimit="10" stroke-linecap="round" stroke-linejoin="round"/><path d="M1256.1 1215.05l-39.74-22.95" stroke="#000" stroke-width="1.62637" stroke-miterlimit="10" stroke-linecap="round" stroke-linejoin="round"/><path d="M1256.1 1215.05v208.81" stroke="#000" stroke-width="1.62637" stroke-miterlimit="10" stroke-linecap="round" stroke-linejoin="round"/><path d="M1256.1 1423.86 777.234 1147.35" stroke="#000" stroke-width="1.62637" stroke-miterlimit="10" stroke-linecap="round" stroke-linejoin="round"/><path d="M806.841 1056.52 799.887 1060.54" stroke="#000" stroke-width="1.62637" stroke-miterlimit="10" stroke-linecap="round" stroke-linejoin="round"/><path d="M848.777 849.781 830.896 860.108" stroke="#000" stroke-width="1.62637" stroke-miterlimit="10" stroke-linecap="round" stroke-linejoin="round"/><path d="M894.474 756.119 876.593 766.445" stroke="#000" stroke-width="1.62637" stroke-miterlimit="10" stroke-linecap="round" stroke-linejoin="round"/><path d="M908.389 773.328 898.456 779.067" stroke="#000" stroke-width="1.62637" stroke-miterlimit="10" stroke-linecap="round" stroke-linejoin="round"/><path d="M908.389 779.065 898.456 784.804" stroke="#000" stroke-width="1.62637" stroke-miterlimit="10" stroke-linecap="round" stroke-linejoin="round"/><path d="M926.26 753.824 908.374 764.15" stroke="#000" stroke-width="1.62637" stroke-miterlimit="10" stroke-linecap="round" stroke-linejoin="round"/><path d="M1025.61 811.19 1007.73 821.517" stroke="#000" stroke-width="1.62637" stroke-miterlimit="10" stroke-linecap="round" stroke-linejoin="round"/><path d="M1025.61 837.58 1007.73 847.906" stroke="#000" stroke-width="1.62637" stroke-miterlimit="10" stroke-linecap="round" stroke-linejoin="round"/><path d="M1075.29 860.526 1057.4 870.852" stroke="#000" stroke-width="1.62637" stroke-miterlimit="10" stroke-linecap="round" stroke-linejoin="round"/><path d="M1075.29 1089.99 1057.4 1100.32" stroke="#000" stroke-width="1.62637" stroke-miterlimit="10" stroke-linecap="round" stroke-linejoin="round"/><path d="M1107.08 1117.53 1097.15 1123.26" stroke="#000" stroke-width="1.62637" stroke-miterlimit="10" stroke-linecap="round" stroke-linejoin="round"/><path d="M1107.08 1123.26 1097.15 1129" stroke="#000" stroke-width="1.62637" stroke-miterlimit="10" stroke-linecap="round" stroke-linejoin="round"/><path d="M1124.97 1098.02 1107.09 1108.35" stroke="#000" stroke-width="1.62637" stroke-miterlimit="10" stroke-linecap="round" stroke-linejoin="round"/><path d="M1224.32 1155.39 1206.43 1165.71" stroke="#000" stroke-width="1.62637" stroke-miterlimit="10" stroke-linecap="round" stroke-linejoin="round"/><path d="M1224.32 1181.78 1206.43 1192.1" stroke="#000" stroke-width="1.62637" stroke-miterlimit="10" stroke-linecap="round" stroke-linejoin="round"/><path d="M1273.99 1204.72 1256.11 1215.05" stroke="#000" stroke-width="1.62637" stroke-miterlimit="10" stroke-linecap="round" stroke-linejoin="round"/><path d="M1273.99 1413.54 1256.11 1423.86" stroke="#000" stroke-width="1.62637" stroke-miterlimit="10" stroke-linecap="round" stroke-linejoin="round"/><path d="M804.687 1064.77 806.835 1056.52" stroke="#000" stroke-width="1.62637" stroke-miterlimit="10" stroke-linecap="round" stroke-linejoin="round"/><path d="M806.837 1056.52 807.205 1055.11" stroke="#000" stroke-width="1.62637" stroke-miterlimit="10" stroke-linecap="round" stroke-linejoin="round"/><path d="M850.702 865.68 853.716 854.132" stroke="#000" stroke-width="1.62637" stroke-miterlimit="10" stroke-linecap="round" stroke-linejoin="round"/><path d="M853.718 854.131l22.87-87.687" stroke="#000" stroke-width="1.62637" stroke-miterlimit="10" stroke-linecap="round" stroke-linejoin="round"/><path d="M908.378 779.065v11.472" stroke="#000" stroke-width="1.62637" stroke-miterlimit="10" stroke-linecap="round" stroke-linejoin="round"/><path d="M1107.08 1123.26v11.47" stroke="#000" stroke-width="1.62637" stroke-miterlimit="10" stroke-linecap="round" stroke-linejoin="round"/><path d="M1035.55 837.579 1030.58 840.445" stroke="#000" stroke-width="1.62637" stroke-miterlimit="10" stroke-linecap="round" stroke-linejoin="round"/><path d="M1030.59 840.447 1017.67 847.907" stroke="#000" stroke-width="1.62637" stroke-miterlimit="10" stroke-linecap="round" stroke-linejoin="round"/><path d="M1234.25 1181.78 1229.28 1184.64" stroke="#000" stroke-width="1.62637" stroke-miterlimit="10" stroke-linecap="round" stroke-linejoin="round"/><path d="M1229.28 1184.65 1216.36 1192.1" stroke="#000" stroke-width="1.62637" stroke-miterlimit="10" stroke-linecap="round" stroke-linejoin="round"/><path d="M908.378 764.15V773.331" stroke="#000" stroke-width="1.62637" stroke-miterlimit="10" stroke-linecap="round" stroke-linejoin="round"/><path d="M908.378 773.328V779.067" stroke="#000" stroke-width="1.62637" stroke-miterlimit="10" stroke-linecap="round" stroke-linejoin="round"/><path d="M1107.08 1108.35V1117.53" stroke="#000" stroke-width="1.62637" stroke-miterlimit="10" stroke-linecap="round" stroke-linejoin="round"/><path d="M1107.08 1117.53V1123.26" stroke="#000" stroke-width="1.62637" stroke-miterlimit="10" stroke-linecap="round" stroke-linejoin="round"/><path d="M418.402 1277.98 395.756 1364.8l478.869 276.5L892.506 1630.98V1422.17l-39.737-22.95L847.799 1402.09 842.83 1399.22V1372.83L743.485 1315.46 725.599 1325.79 693.809 1307.43V1077.97l-39.742-22.95L649.103 1057.89 644.134 1055.02V1028.63L544.783 971.269l-17.881 10.326L512.993 973.56l-17.886 10.326-22.87 87.684L467.293 1067.22 449.408 1077.55l-45.791 175.57L425.723 1272.56 425.357 1273.96 418.402 1277.98z" fill="#f0f0f0" stroke="#000" stroke-width="3.25274" stroke-miterlimit="10"/><path d="M894.477 1423.86v208.81" stroke="#000" stroke-width="1.62637" stroke-miterlimit="10" stroke-linecap="round" stroke-linejoin="round"/><path d="M876.591 1434.19l-39.742-22.95" stroke="#000" stroke-width="1.62637" stroke-miterlimit="10" stroke-linecap="round" stroke-linejoin="round"/><path d="M876.586 1434.19V1643" stroke="#000" stroke-width="1.62637" stroke-miterlimit="10" stroke-linecap="round" stroke-linejoin="round"/><path d="M844.798 1374.53 826.917 1384.85" stroke="#000" stroke-width="1.62637" stroke-miterlimit="10" stroke-linecap="round" stroke-linejoin="round"/><path d="M894.467 1423.86 876.586 1434.19" stroke="#000" stroke-width="1.62637" stroke-miterlimit="10" stroke-linecap="round" stroke-linejoin="round"/><path d="M894.467 1632.67 876.586 1643" stroke="#000" stroke-width="1.62637" stroke-miterlimit="10" stroke-linecap="round" stroke-linejoin="round"/><path d="M474.195 1073.27 469.251 1068.92" stroke="#000" stroke-width="1.62637" stroke-miterlimit="10" stroke-linecap="round" stroke-linejoin="round"/><path d="M695.77 1309.13V1079.66" stroke="#000" stroke-width="1.62637" stroke-miterlimit="10" stroke-linecap="round" stroke-linejoin="round"/><path d="M528.867 983.288 514.958 975.258" stroke="#000" stroke-width="1.62637" stroke-miterlimit="10" stroke-linecap="round" stroke-linejoin="round"/><path d="M727.56 1327.48 695.77 1309.13" stroke="#000" stroke-width="1.62637" stroke-miterlimit="10" stroke-linecap="round" stroke-linejoin="round"/><path d="M651.067 1059.58 646.098 1056.72" stroke="#000" stroke-width="1.62637" stroke-miterlimit="10" stroke-linecap="round" stroke-linejoin="round"/><path d="M646.098 1030.33V1056.71" stroke="#000" stroke-width="1.62637" stroke-miterlimit="10" stroke-linecap="round" stroke-linejoin="round"/><path d="M546.748 972.961 646.099 1030.33" stroke="#000" stroke-width="1.62637" stroke-miterlimit="10" stroke-linecap="round" stroke-linejoin="round"/><path d="M695.775 1079.66l-39.742-22.95" stroke="#000" stroke-width="1.62637" stroke-miterlimit="10" stroke-linecap="round" stroke-linejoin="round"/><path d="M844.799 1374.53 745.448 1317.16" stroke="#000" stroke-width="1.62637" stroke-miterlimit="10" stroke-linecap="round" stroke-linejoin="round"/><path d="M397.72 1366.49l22.646-86.81" stroke="#000" stroke-width="1.62637" stroke-miterlimit="10" stroke-linecap="round" stroke-linejoin="round"/><path d="M420.373 1279.68 425.179 1283.9" stroke="#000" stroke-width="1.62637" stroke-miterlimit="10" stroke-linecap="round" stroke-linejoin="round"/><path d="M427.689 1274.26l-22.107-19.45" stroke="#000" stroke-width="1.62637" stroke-miterlimit="10" stroke-linecap="round" stroke-linejoin="round"/><path d="M405.582 1254.81l45.791-175.57" stroke="#000" stroke-width="1.62637" stroke-miterlimit="10" stroke-linecap="round" stroke-linejoin="round"/><path d="M473.473 1098.69 451.367 1079.25" stroke="#000" stroke-width="1.62637" stroke-miterlimit="10" stroke-linecap="round" stroke-linejoin="round"/><path d="M476.001 1089.05 473.485 1098.69" stroke="#000" stroke-width="1.62637" stroke-miterlimit="10" stroke-linecap="round" stroke-linejoin="round"/><path d="M471.189 1084.82 475.995 1089.04" stroke="#000" stroke-width="1.62637" stroke-miterlimit="10" stroke-linecap="round" stroke-linejoin="round"/><path d="M518.927 998.203 497.07 985.58" stroke="#000" stroke-width="1.62637" stroke-miterlimit="10" stroke-linecap="round" stroke-linejoin="round"/><path d="M518.929 998.203V1003.94" stroke="#000" stroke-width="1.62637" stroke-miterlimit="10" stroke-linecap="round" stroke-linejoin="round"/><path d="M528.862 1009.68 518.929 1003.94" stroke="#000" stroke-width="1.62637" stroke-miterlimit="10" stroke-linecap="round" stroke-linejoin="round"/><path d="M528.864 983.288 628.215 1040.65" stroke="#000" stroke-width="1.62637" stroke-miterlimit="10" stroke-linecap="round" stroke-linejoin="round"/><path d="M628.208 1040.65V1067.04" stroke="#000" stroke-width="1.62637" stroke-miterlimit="10" stroke-linecap="round" stroke-linejoin="round"/><path d="M638.153 1072.78 628.22 1067.04" stroke="#000" stroke-width="1.62637" stroke-miterlimit="10" stroke-linecap="round" stroke-linejoin="round"/><path d="M638.145 1067.04V1072.78" stroke="#000" stroke-width="1.62637" stroke-miterlimit="10" stroke-linecap="round" stroke-linejoin="round"/><path d="M677.888 1089.99 638.145 1067.04" stroke="#000" stroke-width="1.62637" stroke-miterlimit="10" stroke-linecap="round" stroke-linejoin="round"/><path d="M677.892 1319.45V1089.99" stroke="#000" stroke-width="1.62637" stroke-miterlimit="10" stroke-linecap="round" stroke-linejoin="round"/><path d="M717.635 1342.4 677.892 1319.45" stroke="#000" stroke-width="1.62637" stroke-miterlimit="10" stroke-linecap="round" stroke-linejoin="round"/><path d="M717.63 1342.4V1348.14" stroke="#000" stroke-width="1.62637" stroke-miterlimit="10" stroke-linecap="round" stroke-linejoin="round"/><path d="M727.569 1353.87 717.636 1348.14" stroke="#000" stroke-width="1.62637" stroke-miterlimit="10" stroke-linecap="round" stroke-linejoin="round"/><path d="M826.918 1384.85 727.567 1327.49" stroke="#000" stroke-width="1.62637" stroke-miterlimit="10" stroke-linecap="round" stroke-linejoin="round"/><path d="M876.589 1643 397.72 1366.49" stroke="#000" stroke-width="1.62637" stroke-miterlimit="10" stroke-linecap="round" stroke-linejoin="round"/><path d="M427.328 1275.66 420.373 1279.68" stroke="#000" stroke-width="1.62637" stroke-miterlimit="10" stroke-linecap="round" stroke-linejoin="round"/><path d="M469.257 1068.92 451.376 1079.24" stroke="#000" stroke-width="1.62637" stroke-miterlimit="10" stroke-linecap="round" stroke-linejoin="round"/><path d="M514.95 975.256 497.07 985.582" stroke="#000" stroke-width="1.62637" stroke-miterlimit="10" stroke-linecap="round" stroke-linejoin="round"/><path d="M528.862 992.466 518.929 998.205" stroke="#000" stroke-width="1.62637" stroke-miterlimit="10" stroke-linecap="round" stroke-linejoin="round"/><path d="M528.862 998.203 518.929 1003.94" stroke="#000" stroke-width="1.62637" stroke-miterlimit="10" stroke-linecap="round" stroke-linejoin="round"/><path d="M546.744 972.962l-17.88 10.326" stroke="#000" stroke-width="1.62637" stroke-miterlimit="10" stroke-linecap="round" stroke-linejoin="round"/><path d="M646.101 1030.33 628.22 1040.65" stroke="#000" stroke-width="1.62637" stroke-miterlimit="10" stroke-linecap="round" stroke-linejoin="round"/><path d="M646.101 1056.72 628.22 1067.04" stroke="#000" stroke-width="1.62637" stroke-miterlimit="10" stroke-linecap="round" stroke-linejoin="round"/><path d="M695.773 1079.66 677.892 1089.99" stroke="#000" stroke-width="1.62637" stroke-miterlimit="10" stroke-linecap="round" stroke-linejoin="round"/><path d="M695.773 1309.13 677.892 1319.45" stroke="#000" stroke-width="1.62637" stroke-miterlimit="10" stroke-linecap="round" stroke-linejoin="round"/><path d="M727.569 1336.66 717.636 1342.4" stroke="#000" stroke-width="1.62637" stroke-miterlimit="10" stroke-linecap="round" stroke-linejoin="round"/><path d="M727.569 1342.4 717.636 1348.14" stroke="#000" stroke-width="1.62637" stroke-miterlimit="10" stroke-linecap="round" stroke-linejoin="round"/><path d="M745.451 1317.16 727.57 1327.49" stroke="#000" stroke-width="1.62637" stroke-miterlimit="10" stroke-linecap="round" stroke-linejoin="round"/><path d="M425.173 1283.9 427.321 1275.66" stroke="#000" stroke-width="1.62637" stroke-miterlimit="10" stroke-linecap="round" stroke-linejoin="round"/><path d="M427.323 1275.66 427.691 1274.25" stroke="#000" stroke-width="1.62637" stroke-miterlimit="10" stroke-linecap="round" stroke-linejoin="round"/><path d="M471.189 1084.82 474.203 1073.27" stroke="#000" stroke-width="1.62637" stroke-miterlimit="10" stroke-linecap="round" stroke-linejoin="round"/><path d="M474.201 1073.27l22.87-87.688" stroke="#000" stroke-width="1.62637" stroke-miterlimit="10" stroke-linecap="round" stroke-linejoin="round"/><path d="M528.864 998.203v11.467" stroke="#000" stroke-width="1.62637" stroke-miterlimit="10" stroke-linecap="round" stroke-linejoin="round"/><path d="M727.567 1327.48V1336.66" stroke="#000" stroke-width="1.62637" stroke-miterlimit="10" stroke-linecap="round" stroke-linejoin="round"/><path d="M656.036 1056.72 651.067 1059.58" stroke="#000" stroke-width="1.62637" stroke-miterlimit="10" stroke-linecap="round" stroke-linejoin="round"/><path d="M651.062 1059.58 638.145 1067.04" stroke="#000" stroke-width="1.62637" stroke-miterlimit="10" stroke-linecap="round" stroke-linejoin="round"/><path d="M528.864 983.288V992.468" stroke="#000" stroke-width="1.62637" stroke-miterlimit="10" stroke-linecap="round" stroke-linejoin="round"/><path d="M528.864 992.466V998.205" stroke="#000" stroke-width="1.62637" stroke-miterlimit="10" stroke-linecap="round" stroke-linejoin="round"/><path d="M727.567 1336.66V1342.4" stroke="#000" stroke-width="1.62637" stroke-miterlimit="10" stroke-linecap="round" stroke-linejoin="round"/><path d="M727.567 1342.4V1353.87" stroke="#000" stroke-width="1.62637" stroke-miterlimit="10" stroke-linecap="round" stroke-linejoin="round"/><path d="M497.071 1423.86 397.72 1366.5" stroke="#000" stroke-width="1.62637" stroke-miterlimit="10" stroke-linecap="round" stroke-linejoin="round"/><path d="M849.765 1403.78 844.796 1400.92" stroke="#000" stroke-width="1.62637" stroke-miterlimit="10" stroke-linecap="round" stroke-linejoin="round"/><path d="M894.476 1423.86 854.733 1400.91" stroke="#000" stroke-width="1.62637" stroke-miterlimit="10" stroke-linecap="round" stroke-linejoin="round"/><path d="M844.796 1374.53V1400.91" stroke="#000" stroke-width="1.62637" stroke-miterlimit="10" stroke-linecap="round" stroke-linejoin="round"/><path d="M826.917 1384.85V1411.24" stroke="#000" stroke-width="1.62637" stroke-miterlimit="10" stroke-linecap="round" stroke-linejoin="round"/><path d="M836.851 1416.98 826.917 1411.24" stroke="#000" stroke-width="1.62637" stroke-miterlimit="10" stroke-linecap="round" stroke-linejoin="round"/><path d="M836.849 1411.24V1416.98" stroke="#000" stroke-width="1.62637" stroke-miterlimit="10" stroke-linecap="round" stroke-linejoin="round"/><path d="M844.798 1400.91 826.917 1411.24" stroke="#000" stroke-width="1.62637" stroke-miterlimit="10" stroke-linecap="round" stroke-linejoin="round"/><path d="M854.733 1400.91 849.764 1403.78" stroke="#000" stroke-width="1.62637" stroke-miterlimit="10" stroke-linecap="round" stroke-linejoin="round"/><path d="M849.765 1403.78 836.849 1411.24" stroke="#000" stroke-width="1.62637" stroke-miterlimit="10" stroke-linecap="round" stroke-linejoin="round"/><path d="M1073.31 346.202 675.914 575.665v20.653L725.589 625 748.439 611.807 753.403 614.674V620.412L824.935 661.718V682.37l49.676 28.682L1272.01 481.589V460.936L1222.34 432.249 1199.49 445.447 1194.52 442.575V436.841l-71.53-41.305V374.884L1073.31 346.202z" fill="#f0f0f0" stroke="#000" stroke-width="3.25274" stroke-miterlimit="10"/><path d="M727.573 626.699l22.85-13.193" stroke="#000" stroke-width="1.62637" stroke-miterlimit="10" stroke-linecap="round" stroke-linejoin="round"/><path d="M1075.3 347.9 1124.98 376.582" stroke="#000" stroke-width="1.62637" stroke-miterlimit="10" stroke-linecap="round" stroke-linejoin="round"/><path d="M1124.97 376.583v20.652" stroke="#000" stroke-width="1.62637" stroke-miterlimit="10" stroke-linecap="round" stroke-linejoin="round"/><path d="M1124.98 376.583 1102.13 389.776" stroke="#000" stroke-width="1.62637" stroke-miterlimit="10" stroke-linecap="round" stroke-linejoin="round"/><path d="M1112.06 395.513 1102.13 389.775" stroke="#000" stroke-width="1.62637" stroke-miterlimit="10" stroke-linecap="round" stroke-linejoin="round"/><path d="M1117.03 392.645 1112.06 395.511" stroke="#000" stroke-width="1.62637" stroke-miterlimit="10" stroke-linecap="round" stroke-linejoin="round"/><path d="M1196.5 438.538v5.738" stroke="#000" stroke-width="1.62637" stroke-miterlimit="10" stroke-linecap="round" stroke-linejoin="round"/><path d="M750.417 592.854V613.506" stroke="#000" stroke-width="1.62637" stroke-miterlimit="10" stroke-linecap="round" stroke-linejoin="round"/><path d="M1196.51 438.538 1191.54 441.405" stroke="#000" stroke-width="1.62637" stroke-miterlimit="10" stroke-linecap="round" stroke-linejoin="round"/><path d="M677.895 577.364V598.016" stroke="#000" stroke-width="1.62637" stroke-miterlimit="10" stroke-linecap="round" stroke-linejoin="round"/><path d="M1201.47 447.143 1224.32 433.95" stroke="#000" stroke-width="1.62637" stroke-miterlimit="10" stroke-linecap="round" stroke-linejoin="round"/><path d="M1224.32 433.949 1274 462.631" stroke="#000" stroke-width="1.62637" stroke-miterlimit="10" stroke-linecap="round" stroke-linejoin="round"/><path d="M1274 462.632v20.652" stroke="#000" stroke-width="1.62637" stroke-miterlimit="10" stroke-linecap="round" stroke-linejoin="round"/><path d="M1274 462.632 876.599 692.096" stroke="#000" stroke-width="1.62637" stroke-miterlimit="10" stroke-linecap="round" stroke-linejoin="round"/><path d="M876.599 692.097v20.652" stroke="#000" stroke-width="1.62637" stroke-miterlimit="10" stroke-linecap="round" stroke-linejoin="round"/><path d="M1274 483.283 876.599 712.747" stroke="#000" stroke-width="1.62637" stroke-miterlimit="10" stroke-linecap="round" stroke-linejoin="round"/><path d="M755.395 622.11l71.533 41.305" stroke="#000" stroke-width="1.62637" stroke-miterlimit="10" stroke-linecap="round" stroke-linejoin="round"/><path d="M876.596 692.097l-49.675-28.683" stroke="#000" stroke-width="1.62637" stroke-miterlimit="10" stroke-linecap="round" stroke-linejoin="round"/><path d="M826.921 663.414v20.652" stroke="#000" stroke-width="1.62637" stroke-miterlimit="10" stroke-linecap="round" stroke-linejoin="round"/><path d="M876.596 712.749l-49.675-28.683" stroke="#000" stroke-width="1.62637" stroke-miterlimit="10" stroke-linecap="round" stroke-linejoin="round"/><path d="M727.571 606.048l-49.676-28.682" stroke="#000" stroke-width="1.62637" stroke-miterlimit="10" stroke-linecap="round" stroke-linejoin="round"/><path d="M755.395 601.459 834.875 647.351" stroke="#000" stroke-width="1.62637" stroke-miterlimit="10" stroke-linecap="round" stroke-linejoin="round"/><path d="M727.573 606.048l22.85-13.193" stroke="#000" stroke-width="1.62637" stroke-miterlimit="10" stroke-linecap="round" stroke-linejoin="round"/><path d="M760.35 598.59 750.417 592.852" stroke="#000" stroke-width="1.62637" stroke-miterlimit="10" stroke-linecap="round" stroke-linejoin="round"/><path d="M755.395 601.458 760.364 598.591" stroke="#000" stroke-width="1.62637" stroke-miterlimit="10" stroke-linecap="round" stroke-linejoin="round"/><path d="M834.874 647.351 839.843 644.485" stroke="#000" stroke-width="1.62637" stroke-miterlimit="10" stroke-linecap="round" stroke-linejoin="round"/><path d="M839.839 644.483 849.772 650.222" stroke="#000" stroke-width="1.62637" stroke-miterlimit="10" stroke-linecap="round" stroke-linejoin="round"/><path d="M677.895 577.365 1075.29 347.901" stroke="#000" stroke-width="1.62637" stroke-miterlimit="10" stroke-linecap="round" stroke-linejoin="round"/><path d="M727.571 626.699 677.895 598.017" stroke="#000" stroke-width="1.62637" stroke-miterlimit="10" stroke-linecap="round" stroke-linejoin="round"/><path d="M727.573 606.047V626.7" stroke="#000" stroke-width="1.62637" stroke-miterlimit="10" stroke-linecap="round" stroke-linejoin="round"/><path d="M755.386 616.374 750.417 613.507" stroke="#000" stroke-width="1.62637" stroke-miterlimit="10" stroke-linecap="round" stroke-linejoin="round"/><path d="M839.839 644.483V655.955" stroke="#000" stroke-width="1.62637" stroke-miterlimit="10" stroke-linecap="round" stroke-linejoin="round"/><path d="M834.874 647.351v11.472" stroke="#000" stroke-width="1.62637" stroke-miterlimit="10" stroke-linecap="round" stroke-linejoin="round"/><path d="M859.708 510.246l99.351-57.365" stroke="#000" stroke-width="1.62637" stroke-miterlimit="10" stroke-linecap="round" stroke-linejoin="round"/><path d="M959.062 452.88l24.835 14.343" stroke="#000" stroke-width="1.62637" stroke-miterlimit="10" stroke-linecap="round" stroke-linejoin="round"/><path d="M877.593 520.572l81.465-47.038" stroke="#000" stroke-width="1.62637" stroke-miterlimit="10" stroke-linecap="round" stroke-linejoin="round"/><path d="M959.062 473.532 966.016 477.549" stroke="#000" stroke-width="1.62637" stroke-miterlimit="10" stroke-linecap="round" stroke-linejoin="round"/><path d="M959.062 452.88v20.652" stroke="#000" stroke-width="1.62637" stroke-miterlimit="10" stroke-linecap="round" stroke-linejoin="round"/><path d="M1117.02 392.645 1124.97 397.232" stroke="#000" stroke-width="1.62637" stroke-miterlimit="10" stroke-linecap="round" stroke-linejoin="round"/><path d="M1124.97 397.234l71.53 41.305" stroke="#000" stroke-width="1.62637" stroke-miterlimit="10" stroke-linecap="round" stroke-linejoin="round"/><path d="M1191.54 441.407 1196.51 444.274" stroke="#000" stroke-width="1.62637" stroke-miterlimit="10" stroke-linecap="round" stroke-linejoin="round"/><path d="M1196.5 444.274 1201.47 447.141" stroke="#000" stroke-width="1.62637" stroke-miterlimit="10" stroke-linecap="round" stroke-linejoin="round"/><path d="M849.772 650.22 839.839 655.958" stroke="#000" stroke-width="1.62637" stroke-miterlimit="10" stroke-linecap="round" stroke-linejoin="round"/><path d="M755.395 601.459V616.373" stroke="#000" stroke-width="1.62637" stroke-miterlimit="10" stroke-linecap="round" stroke-linejoin="round"/><path d="M755.395 616.374V622.112" stroke="#000" stroke-width="1.62637" stroke-miterlimit="10" stroke-linecap="round" stroke-linejoin="round"/><path d="M983.901 467.221l-17.88 10.326" stroke="#000" stroke-width="1.62637" stroke-miterlimit="10" stroke-linecap="round" stroke-linejoin="round"/><path d="M966.011 477.548 884.546 524.586" stroke="#000" stroke-width="1.62637" stroke-miterlimit="10" stroke-linecap="round" stroke-linejoin="round"/><path d="M884.547 524.587 877.593 520.569" stroke="#000" stroke-width="1.62637" stroke-miterlimit="10" stroke-linecap="round" stroke-linejoin="round"/><path d="M877.594 520.572 859.708 510.246" stroke="#000" stroke-width="1.62637" stroke-miterlimit="10" stroke-linecap="round" stroke-linejoin="round"/><path d="M839.843 655.956 834.874 658.823" stroke="#000" stroke-width="1.62637" stroke-miterlimit="10" stroke-linecap="round" stroke-linejoin="round"/><path d="M834.868 658.825 826.921 663.413" stroke="#000" stroke-width="1.62637" stroke-miterlimit="10" stroke-linecap="round" stroke-linejoin="round"/><path d="M549.742 267.606 554.711 270.473v5.738l71.532 41.305v20.653l49.675 28.682L1073.32 137.382V116.735l-49.68-28.6879-22.85 13.1979L995.823 98.3734V92.64L924.291 51.3349V30.6824L874.615 2.00006 477.217 231.464v20.652L526.892 280.799 549.742 267.606z" fill="#f0f0f0" stroke="#000" stroke-width="3.25274" stroke-miterlimit="10"/><path d="M677.893 368.551l-49.676-28.682" stroke="#000" stroke-width="1.62637" stroke-miterlimit="10" stroke-linecap="round" stroke-linejoin="round"/><path d="M528.876 282.502l22.85-13.193" stroke="#000" stroke-width="1.62637" stroke-miterlimit="10" stroke-linecap="round" stroke-linejoin="round"/><path d="M876.599 3.70273 926.275 32.3851" stroke="#000" stroke-width="1.62637" stroke-miterlimit="10" stroke-linecap="round" stroke-linejoin="round"/><path d="M926.274 32.3849V53.0374" stroke="#000" stroke-width="1.62637" stroke-miterlimit="10" stroke-linecap="round" stroke-linejoin="round"/><path d="M926.271 32.3842 903.421 45.5771" stroke="#000" stroke-width="1.62637" stroke-miterlimit="10" stroke-linecap="round" stroke-linejoin="round"/><path d="M913.363 51.3157 903.43 45.5772" stroke="#000" stroke-width="1.62637" stroke-miterlimit="10" stroke-linecap="round" stroke-linejoin="round"/><path d="M918.321 48.4474 913.352 51.3141" stroke="#000" stroke-width="1.62637" stroke-miterlimit="10" stroke-linecap="round" stroke-linejoin="round"/><path d="M997.802 94.3399v5.7381" stroke="#000" stroke-width="1.62637" stroke-miterlimit="10" stroke-linecap="round" stroke-linejoin="round"/><path d="M551.72 248.656v20.653" stroke="#000" stroke-width="1.62637" stroke-miterlimit="10" stroke-linecap="round" stroke-linejoin="round"/><path d="M997.806 94.3406 992.837 97.2073" stroke="#000" stroke-width="1.62637" stroke-miterlimit="10" stroke-linecap="round" stroke-linejoin="round"/><path d="M479.198 233.167v20.652" stroke="#000" stroke-width="1.62637" stroke-miterlimit="10" stroke-linecap="round" stroke-linejoin="round"/><path d="M1002.77 102.945 1025.62 89.7521" stroke="#000" stroke-width="1.62637" stroke-miterlimit="10" stroke-linecap="round" stroke-linejoin="round"/><path d="M1025.63 89.7512 1075.3 118.434" stroke="#000" stroke-width="1.62637" stroke-miterlimit="10" stroke-linecap="round" stroke-linejoin="round"/><path d="M1075.3 118.434v20.653" stroke="#000" stroke-width="1.62637" stroke-miterlimit="10" stroke-linecap="round" stroke-linejoin="round"/><path d="M1075.3 118.434 677.902 347.898" stroke="#000" stroke-width="1.62637" stroke-miterlimit="10" stroke-linecap="round" stroke-linejoin="round"/><path d="M1075.3 139.086 677.902 368.55" stroke="#000" stroke-width="1.62637" stroke-miterlimit="10" stroke-linecap="round" stroke-linejoin="round"/><path d="M556.689 277.913l71.532 41.305" stroke="#000" stroke-width="1.62637" stroke-miterlimit="10" stroke-linecap="round" stroke-linejoin="round"/><path d="M677.893 347.899l-49.676-28.682" stroke="#000" stroke-width="1.62637" stroke-miterlimit="10" stroke-linecap="round" stroke-linejoin="round"/><path d="M628.217 319.216v20.652" stroke="#000" stroke-width="1.62637" stroke-miterlimit="10" stroke-linecap="round" stroke-linejoin="round"/><path d="M528.874 261.849l-49.676-28.682" stroke="#000" stroke-width="1.62637" stroke-miterlimit="10" stroke-linecap="round" stroke-linejoin="round"/><path d="M556.689 257.26l79.48 45.893" stroke="#000" stroke-width="1.62637" stroke-miterlimit="10" stroke-linecap="round" stroke-linejoin="round"/><path d="M528.876 261.849l22.85-13.193" stroke="#000" stroke-width="1.62637" stroke-miterlimit="10" stroke-linecap="round" stroke-linejoin="round"/><path d="M561.653 254.392 551.72 248.654" stroke="#000" stroke-width="1.62637" stroke-miterlimit="10" stroke-linecap="round" stroke-linejoin="round"/><path d="M556.689 257.26 561.658 254.394" stroke="#000" stroke-width="1.62637" stroke-miterlimit="10" stroke-linecap="round" stroke-linejoin="round"/><path d="M636.174 303.153 641.143 300.287" stroke="#000" stroke-width="1.62637" stroke-miterlimit="10" stroke-linecap="round" stroke-linejoin="round"/><path d="M641.142 300.285 651.075 306.024" stroke="#000" stroke-width="1.62637" stroke-miterlimit="10" stroke-linecap="round" stroke-linejoin="round"/><path d="M479.198 233.167 876.597 3.70359" stroke="#000" stroke-width="1.62637" stroke-miterlimit="10" stroke-linecap="round" stroke-linejoin="round"/><path d="M528.874 282.502l-49.676-28.683" stroke="#000" stroke-width="1.62637" stroke-miterlimit="10" stroke-linecap="round" stroke-linejoin="round"/><path d="M528.876 261.85v20.652" stroke="#000" stroke-width="1.62637" stroke-miterlimit="10" stroke-linecap="round" stroke-linejoin="round"/><path d="M556.689 272.175 551.72 269.309" stroke="#000" stroke-width="1.62637" stroke-miterlimit="10" stroke-linecap="round" stroke-linejoin="round"/><path d="M641.142 300.285v11.472" stroke="#000" stroke-width="1.62637" stroke-miterlimit="10" stroke-linecap="round" stroke-linejoin="round"/><path d="M636.174 303.154v11.472" stroke="#000" stroke-width="1.62637" stroke-miterlimit="10" stroke-linecap="round" stroke-linejoin="round"/><path d="M661.005 166.048l99.351-57.365" stroke="#000" stroke-width="1.62637" stroke-miterlimit="10" stroke-linecap="round" stroke-linejoin="round"/><path d="M760.361 108.682l24.836 14.344" stroke="#000" stroke-width="1.62637" stroke-miterlimit="10" stroke-linecap="round" stroke-linejoin="round"/><path d="M678.886 176.374l81.465-47.038" stroke="#000" stroke-width="1.62637" stroke-miterlimit="10" stroke-linecap="round" stroke-linejoin="round"/><path d="M760.361 129.333 767.316 133.351" stroke="#000" stroke-width="1.62637" stroke-miterlimit="10" stroke-linecap="round" stroke-linejoin="round"/><path d="M760.361 108.682v20.652" stroke="#000" stroke-width="1.62637" stroke-miterlimit="10" stroke-linecap="round" stroke-linejoin="round"/><path d="M918.327 48.4473 926.275 53.0351" stroke="#000" stroke-width="1.62637" stroke-miterlimit="10" stroke-linecap="round" stroke-linejoin="round"/><path d="M926.274 53.0367l71.532 41.305" stroke="#000" stroke-width="1.62637" stroke-miterlimit="10" stroke-linecap="round" stroke-linejoin="round"/><path d="M992.843 97.2077 997.812 100.074" stroke="#000" stroke-width="1.62637" stroke-miterlimit="10" stroke-linecap="round" stroke-linejoin="round"/><path d="M997.802 100.076 1002.77 102.943" stroke="#000" stroke-width="1.62637" stroke-miterlimit="10" stroke-linecap="round" stroke-linejoin="round"/><path d="M651.075 306.022 641.142 311.761" stroke="#000" stroke-width="1.62637" stroke-miterlimit="10" stroke-linecap="round" stroke-linejoin="round"/><path d="M556.689 257.261v14.914" stroke="#000" stroke-width="1.62637" stroke-miterlimit="10" stroke-linecap="round" stroke-linejoin="round"/><path d="M556.689 272.176v5.738" stroke="#000" stroke-width="1.62637" stroke-miterlimit="10" stroke-linecap="round" stroke-linejoin="round"/><path d="M785.198 123.024l-17.88 10.326" stroke="#000" stroke-width="1.62637" stroke-miterlimit="10" stroke-linecap="round" stroke-linejoin="round"/><path d="M767.314 133.349 685.849 180.388" stroke="#000" stroke-width="1.62637" stroke-miterlimit="10" stroke-linecap="round" stroke-linejoin="round"/><path d="M685.841 180.39 678.886 176.372" stroke="#000" stroke-width="1.62637" stroke-miterlimit="10" stroke-linecap="round" stroke-linejoin="round"/><path d="M678.892 176.374 661.011 166.048" stroke="#000" stroke-width="1.62637" stroke-miterlimit="10" stroke-linecap="round" stroke-linejoin="round"/><path d="M641.136 311.759 636.167 314.626" stroke="#000" stroke-width="1.62637" stroke-miterlimit="10" stroke-linecap="round" stroke-linejoin="round"/><path d="M636.165 314.627 628.217 319.214" stroke="#000" stroke-width="1.62637" stroke-miterlimit="10" stroke-linecap="round" stroke-linejoin="round"/><path d="M677.902 347.899v20.653" stroke="#000" stroke-width="1.62637" stroke-miterlimit="10" stroke-linecap="round" stroke-linejoin="round"/><path d="M416.699 804.156 441.86 707.691 429.504 696.82 467.25 552.1 463.819 549.08 464.801 545.318l22.85-13.193L514.65 428.607 497.35 413.388 99.9509 642.852 72.9519 746.374 85.3033 757.24 47.5567 901.965 50.9882 904.985 50.0107 908.743 27.1611 921.936 2 1018.4 19.3001 1033.62 416.699 804.156z" fill="#f0f0f0" stroke="#000" stroke-width="3.25274" stroke-miterlimit="10"/><path d="M106.934 754.797 112.555 759.746" stroke="#000" stroke-width="1.62637" stroke-miterlimit="10" stroke-linecap="round" stroke-linejoin="round"/><path d="M112.553 759.744l2.515-9.649" stroke="#000" stroke-width="1.62637" stroke-miterlimit="10" stroke-linecap="round" stroke-linejoin="round"/><path d="M101.963 757.666 107.583 762.61" stroke="#000" stroke-width="1.62637" stroke-miterlimit="10" stroke-linecap="round" stroke-linejoin="round"/><path d="M74.9281 748.073 101.927 644.551" stroke="#000" stroke-width="1.62637" stroke-miterlimit="10" stroke-linecap="round" stroke-linejoin="round"/><path d="M92.2188 763.292 119.218 659.769" stroke="#000" stroke-width="1.62637" stroke-miterlimit="10" stroke-linecap="round" stroke-linejoin="round"/><path d="M119.219 659.772 101.919 644.553" stroke="#000" stroke-width="1.62637" stroke-miterlimit="10" stroke-linecap="round" stroke-linejoin="round"/><path d="M101.919 644.552 499.318 415.088" stroke="#000" stroke-width="1.62637" stroke-miterlimit="10" stroke-linecap="round" stroke-linejoin="round"/><path d="M49.5281 903.666 87.2747 758.941" stroke="#000" stroke-width="1.62637" stroke-miterlimit="10" stroke-linecap="round" stroke-linejoin="round"/><path d="M66.8313 918.885 107.592 762.612" stroke="#000" stroke-width="1.62637" stroke-miterlimit="10" stroke-linecap="round" stroke-linejoin="round"/><path d="M51.975 910.444 69.2751 925.663" stroke="#000" stroke-width="1.62637" stroke-miterlimit="10" stroke-linecap="round" stroke-linejoin="round"/><path d="M107.588 762.613 112.557 759.746" stroke="#000" stroke-width="1.62637" stroke-miterlimit="10" stroke-linecap="round" stroke-linejoin="round"/><path d="M66.8313 918.885 71.8004 916.019" stroke="#000" stroke-width="1.62637" stroke-miterlimit="10" stroke-linecap="round" stroke-linejoin="round"/><path d="M52.9576 906.685 51.975 910.443" stroke="#000" stroke-width="1.62637" stroke-miterlimit="10" stroke-linecap="round" stroke-linejoin="round"/><path d="M71.7932 916.017 69.2781 925.661" stroke="#000" stroke-width="1.62637" stroke-miterlimit="10" stroke-linecap="round" stroke-linejoin="round"/><path d="M29.1281 923.639 46.4282 938.858" stroke="#000" stroke-width="1.62637" stroke-miterlimit="10" stroke-linecap="round" stroke-linejoin="round"/><path d="M516.622 430.308 489.623 533.83" stroke="#000" stroke-width="1.62637" stroke-miterlimit="10" stroke-linecap="round" stroke-linejoin="round"/><path d="M516.62 430.307l-17.3-15.219" stroke="#000" stroke-width="1.62637" stroke-miterlimit="10" stroke-linecap="round" stroke-linejoin="round"/><path d="M46.4343 938.858l22.8496-13.193" stroke="#000" stroke-width="1.62637" stroke-miterlimit="10" stroke-linecap="round" stroke-linejoin="round"/><path d="M29.1281 923.638l22.8496-13.193" stroke="#000" stroke-width="1.62637" stroke-miterlimit="10" stroke-linecap="round" stroke-linejoin="round"/><path d="M431.473 698.524l12.356 10.871" stroke="#000" stroke-width="1.62637" stroke-miterlimit="10" stroke-linecap="round" stroke-linejoin="round"/><path d="M443.834 709.393 418.673 805.858" stroke="#000" stroke-width="1.62637" stroke-miterlimit="10" stroke-linecap="round" stroke-linejoin="round"/><path d="M119.222 659.772 516.621 430.308" stroke="#000" stroke-width="1.62637" stroke-miterlimit="10" stroke-linecap="round" stroke-linejoin="round"/><path d="M466.766 547.021l22.85-13.193" stroke="#000" stroke-width="1.62637" stroke-miterlimit="10" stroke-linecap="round" stroke-linejoin="round"/><path d="M428.463 710.072 423.494 712.939" stroke="#000" stroke-width="1.62637" stroke-miterlimit="10" stroke-linecap="round" stroke-linejoin="round"/><path d="M465.788 550.781 469.22 553.8" stroke="#000" stroke-width="1.62637" stroke-miterlimit="10" stroke-linecap="round" stroke-linejoin="round"/><path d="M443.828 709.392l-22.849 13.193" stroke="#000" stroke-width="1.62637" stroke-miterlimit="10" stroke-linecap="round" stroke-linejoin="round"/><path d="M469.226 553.8 464.257 556.666" stroke="#000" stroke-width="1.62637" stroke-miterlimit="10" stroke-linecap="round" stroke-linejoin="round"/><path d="M423.494 712.941 420.979 722.585" stroke="#000" stroke-width="1.62637" stroke-miterlimit="10" stroke-linecap="round" stroke-linejoin="round"/><path d="M74.9281 748.073l12.3565 10.871" stroke="#000" stroke-width="1.62637" stroke-miterlimit="10" stroke-linecap="round" stroke-linejoin="round"/><path d="M87.2688 758.942 92.2124 763.29" stroke="#000" stroke-width="1.62637" stroke-miterlimit="10" stroke-linecap="round" stroke-linejoin="round"/><path d="M49.5281 903.666 52.9596 906.686" stroke="#000" stroke-width="1.62637" stroke-miterlimit="10" stroke-linecap="round" stroke-linejoin="round"/><path d="M52.9562 906.685l13.8686 12.2" stroke="#000" stroke-width="1.62637" stroke-miterlimit="10" stroke-linecap="round" stroke-linejoin="round"/><path d="M115.075 750.098 106.934 754.797" stroke="#000" stroke-width="1.62637" stroke-miterlimit="10" stroke-linecap="round" stroke-linejoin="round"/><path d="M464.257 556.667 465.795 550.781" stroke="#000" stroke-width="1.62637" stroke-miterlimit="10" stroke-linecap="round" stroke-linejoin="round"/><path d="M465.788 550.781 466.771 547.024" stroke="#000" stroke-width="1.62637" stroke-miterlimit="10" stroke-linecap="round" stroke-linejoin="round"/><path d="M428.466 710.072 431.48 698.524" stroke="#000" stroke-width="1.62637" stroke-miterlimit="10" stroke-linecap="round" stroke-linejoin="round"/><path d="M431.473 698.525l37.746-144.726" stroke="#000" stroke-width="1.62637" stroke-miterlimit="10" stroke-linecap="round" stroke-linejoin="round"/><path d="M106.932 754.797 101.963 757.664" stroke="#000" stroke-width="1.62637" stroke-miterlimit="10" stroke-linecap="round" stroke-linejoin="round"/><path d="M101.963 757.666 92.2188 763.292" stroke="#000" stroke-width="1.62637" stroke-miterlimit="10" stroke-linecap="round" stroke-linejoin="round"/><path d="M21.2657 1035.32 3.96558 1020.1" stroke="#000" stroke-width="1.62637" stroke-miterlimit="10" stroke-linecap="round" stroke-linejoin="round"/><path d="M3.96863 1020.1 29.1297 923.638" stroke="#000" stroke-width="1.62637" stroke-miterlimit="10" stroke-linecap="round" stroke-linejoin="round"/><path d="M21.2717 1035.32l25.1611-96.463" stroke="#000" stroke-width="1.62637" stroke-miterlimit="10" stroke-linecap="round" stroke-linejoin="round"/><path d="M418.671 805.857 21.2717 1035.32" stroke="#000" stroke-width="1.62637" stroke-miterlimit="10" stroke-linecap="round" stroke-linejoin="round"/><path d="M18.0378 1039.47 394.705 1362.06" stroke="#000" stroke-width="1.62637" stroke-miterlimit="10" stroke-dasharray="9.79 6.53"/><path d="M592.445 298.01v705.93" stroke="#000" stroke-width="1.62637" stroke-miterlimit="10" stroke-dasharray="9.79 6.53"/><path d="M971.474 196.195V397.236" stroke="#000" stroke-width="1.62637" stroke-miterlimit="10" stroke-dasharray="9.79 6.53"/><path d="M791.149 642.207V1342.4" stroke="#000" stroke-width="1.62637" stroke-miterlimit="10" stroke-dasharray="9.79 6.53"/><path d="M118.435 661.302 495.102 983.885" stroke="#000" stroke-width="1.62637" stroke-miterlimit="10" stroke-dasharray="9.79 6.53"/></svg>