<svg width="2201" height="566" viewBox="0 0 2201 566" fill="none" xmlns="http://www.w3.org/2000/svg"><circle cx="230.165" cy="230.233" r="230.165" fill="#02cc64"/><ellipse cx="810.206" cy="232.152" rx="229.206" ry="230.165" fill="#0595e6"/><circle cx="1390.17" cy="230.233" r="230.165" fill="#f04924"/><ellipse cx="1971.21" cy="232.152" rx="229.206" ry="230.165" fill="#777"/><path d="M193.388 561.212C192.319 561.212 191.382 561.072 190.578 560.793 189.775 560.521 189.097 560.146 188.545 559.669 187.994 559.192 187.564 558.658 187.258 558.065L188.75 557.084C188.974 557.479 189.274 557.868 189.649 558.249 190.03 558.63 190.524 558.947 191.13 559.199 191.743 559.451 192.496 559.577 193.388 559.577 194.778 559.577 195.898 559.23 196.749 558.535 197.608 557.84 198.037 556.761 198.037 555.296V551.761H197.873C197.662 552.238 197.359 552.715 196.964 553.192 196.569 553.662 196.051 554.053 195.411 554.367 194.778 554.68 193.991 554.837 193.051 554.837 191.798 554.837 190.684 554.527 189.71 553.907 188.743 553.287 187.98 552.402 187.421 551.25 186.87 550.093 186.594 548.713 186.594 547.113 186.594 545.526 186.863 544.129 187.401 542.924 187.946 541.718 188.705 540.778 189.679 540.104 190.653 539.43 191.787 539.092 193.082 539.092 194.042 539.092 194.839 539.263 195.472 539.603 196.106 539.937 196.613 540.352 196.995 540.85 197.383 541.347 197.686 541.83 197.904 542.3H198.088V539.307H199.866v16.102C199.866 556.737 199.583 557.83 199.018 558.688 198.452 559.546 197.683 560.18 196.709 560.589 195.735 561.004 194.628 561.212 193.388 561.212zM193.265 553.171C194.273 553.171 195.135 552.929 195.85 552.446 196.565 551.955 197.114 551.254 197.495 550.341 197.877 549.428 198.067 548.342 198.067 547.082 198.067 545.856 197.88 544.77 197.505 543.823 197.131 542.869 196.586 542.12 195.871 541.575 195.162 541.023 194.294 540.747 193.265 540.747 192.217 540.747 191.331 541.03 190.609 541.595 189.887 542.161 189.342 542.924 188.974 543.884 188.607 544.838 188.423 545.904 188.423 547.082 188.423 548.281 188.61 549.34 188.985 550.259 189.359 551.172 189.907 551.887 190.629 552.405 191.351 552.916 192.23 553.171 193.265 553.171zM214.652 549.003V539.307H216.47V555H214.652V552.395H214.509C214.141 553.198 213.559 553.869 212.762 554.407 211.965 554.939 210.991 555.204 209.84 555.204 208.838 555.204 207.95 554.986 207.173 554.55 206.397 554.108 205.787 553.461 205.344 552.609 204.902 551.758 204.68 550.712 204.68 549.473V539.307H206.499V549.36C206.499 550.586 206.86 551.574 207.582 552.323 208.304 553.066 209.23 553.437 210.361 553.437 211.069 553.437 211.75 553.267 212.404 552.926S213.596 552.088 214.018 551.434C214.441 550.774 214.652 549.963 214.652 549.003zM221.306 555V539.307H223.134V555H221.306zM222.235 536.61C221.861 536.61 221.541 536.484 221.275 536.232 221.009 535.973 220.876 535.663 220.876 535.302S221.009 534.634 221.275 534.382C221.541 534.124 221.861 533.994 222.235 533.994 222.61 533.994 222.93 534.124 223.196 534.382 223.461 534.634 223.594 534.941 223.594 535.302S223.461 535.973 223.196 536.232C222.93 536.484 222.61 536.61 222.235 536.61zm11.359 18.717C232.307 555.327 231.179 554.986 230.212 554.305 229.245 553.624 228.489 552.674 227.944 551.455 227.406 550.236 227.137 548.815 227.137 547.194 227.137 545.58 227.406 544.167 227.944 542.954 228.489 541.735 229.248 540.788 230.222 540.114 231.196 539.433 232.33 539.092 233.625 539.092 234.578 539.092 235.372 539.263 236.005 539.603 236.639 539.937 237.146 540.352 237.527 540.85 237.909 541.347 238.205 541.83 238.416 542.3H238.58V534.076H240.409V555H238.631V552.088H238.416C238.205 552.565 237.905 553.055 237.517 553.559 237.129 554.057 236.615 554.476 235.974 554.816 235.341 555.157 234.547 555.327 233.594 555.327zM233.808 553.662C234.823 553.662 235.688 553.386 236.404 552.834 237.119 552.276 237.664 551.509 238.038 550.535 238.42 549.554 238.61 548.431 238.61 547.164 238.61 545.91 238.423 544.804 238.048 543.843 237.674 542.876 237.129 542.12 236.414 541.575 235.699 541.023 234.83 540.747 233.808 540.747 232.76 540.747 231.874 541.034 231.152 541.606 230.437 542.171 229.892 542.937 229.517 543.905 229.15 544.872 228.966 545.958 228.966 547.164 228.966 548.383 229.153 549.483 229.528 550.464 229.902 551.445 230.447 552.224 231.162 552.803 231.884 553.376 232.766 553.662 233.808 553.662zM251.933 555.327C250.469 555.327 249.202 554.986 248.132 554.305 247.063 553.617 246.236 552.667 245.65 551.455 245.071 550.236 244.781 548.832 244.781 547.245 244.781 545.665 245.071 544.262 245.65 543.036 246.236 541.803 247.043 540.839 248.071 540.145 249.106 539.443 250.302 539.092 251.657 539.092 252.509 539.092 253.329 539.249 254.12 539.562 254.91 539.869 255.618 540.342 256.245 540.982 256.878 541.616 257.379 542.416 257.747 543.383 258.114 544.344 258.298 545.481 258.298 546.796V547.695h-12.26V546.091h10.401C256.439 545.083 256.234 544.177 255.826 543.373 255.424 542.563 254.862 541.922 254.14 541.452 253.425 540.982 252.597 540.747 251.657 540.747 250.663 540.747 249.788 541.013 249.032 541.544 248.275 542.076 247.683 542.777 247.254 543.649 246.832 544.521 246.617 545.474 246.61 546.51V547.47C246.61 548.717 246.825 549.806 247.254 550.74 247.69 551.666 248.306 552.384 249.103 552.895S250.843 553.662 251.933 553.662C252.676 553.662 253.326 553.546 253.885 553.314 254.45 553.083 254.923 552.773 255.305 552.384 255.693 551.989 255.986 551.557 256.183 551.087L257.91 551.649C257.672 552.31 257.28 552.919 256.735 553.478 256.197 554.036 255.523 554.486 254.712 554.826 253.908 555.16 252.982 555.327 251.933 555.327zM272.85 542.75 271.184 543.22C271.021 542.75 270.789 542.324 270.489 541.943 270.19 541.561 269.798 541.258 269.315 541.034 268.838 540.809 268.245 540.696 267.537 540.696 266.474 540.696 265.602 540.948 264.921 541.452S263.9 542.607 263.9 543.404C263.9 544.078 264.131 544.626 264.594 545.049 265.064 545.464 265.786 545.795 266.76 546.04L269.131 546.622C270.445 546.942 271.429 547.45 272.083 548.144 272.744 548.839 273.074 549.711 273.074 550.76 273.074 551.645 272.829 552.432 272.339 553.12 271.848 553.808 271.164 554.35 270.285 554.745 269.413 555.133 268.402 555.327 267.251 555.327 265.718 555.327 264.455 554.983 263.46 554.295 262.466 553.6 261.829 552.599 261.55 551.291L263.297 550.862C263.522 551.795 263.961 552.5 264.615 552.977 265.275 553.454 266.144 553.692 267.22 553.692 268.426 553.692 269.389 553.423 270.111 552.885 270.833 552.34 271.194 551.659 271.194 550.842 271.194 550.208 270.983 549.677 270.561 549.248 270.139 548.812 269.498 548.492 268.64 548.288L266.076 547.675C264.714 547.348 263.705 546.83 263.052 546.122 262.398 545.413 262.071 544.535 262.071 543.486 262.071 542.621 262.306 541.861 262.776 541.207 263.246 540.547 263.893 540.029 264.717 539.654 265.541 539.28 266.481 539.092 267.537 539.092 268.974 539.092 270.122 539.419 270.98 540.073 271.845 540.72 272.468 541.613 272.85 542.75z" fill="#000"/><path d="M768.779 556V535.076H770.608V543.3H770.771C770.976 542.83 771.268 542.347 771.65 541.85 772.038 541.352 772.546 540.937 773.172 540.603 773.806 540.263 774.603 540.092 775.563 540.092 776.85 540.092 777.981 540.433 778.955 541.114 779.929 541.788 780.688 542.735 781.233 543.954 781.778 545.167 782.051 546.58 782.051 548.194 782.051 549.815 781.778 551.236 781.233 552.455 780.695 553.674 779.939 554.624 778.965 555.305 777.998 555.986 776.874 556.327 775.594 556.327 774.64 556.327 773.843 556.157 773.203 555.816 772.569 555.476 772.059 555.057 771.67 554.559 771.282 554.055 770.982 553.565 770.771 553.088H770.546V556H768.779zM770.577 548.164C770.577 549.431 770.764 550.554 771.139 551.535 771.521 552.509 772.065 553.276 772.774 553.834 773.489 554.386 774.354 554.662 775.369 554.662 776.411 554.662 777.293 554.376 778.015 553.803 778.737 553.224 779.285 552.445 779.66 551.464 780.035 550.483 780.222 549.383 780.222 548.164 780.222 546.958 780.035 545.872 779.66 544.905 779.292 543.937 778.747 543.171 778.025 542.606 777.303 542.034 776.418 541.747 775.369 541.747 774.347 541.747 773.479 542.023 772.764 542.575 772.055 543.12 771.514 543.876 771.139 544.843 770.764 545.804 770.577 546.91 770.577 548.164zm17.287-13.088V556H786.045V535.076H787.864zM798.776 556.327C797.42 556.327 796.221 555.983 795.179 555.295 794.144 554.607 793.333 553.657 792.748 552.445 792.162 551.225 791.869 549.819 791.869 548.225 791.869 546.618 792.162 545.204 792.748 543.985 793.333 542.759 794.144 541.805 795.179 541.124 796.221 540.436 797.42 540.092 798.776 540.092 800.131 540.092 801.326 540.436 802.362 541.124 803.397 541.812 804.208 542.766 804.793 543.985 805.386 545.204 805.682 546.618 805.682 548.225 805.682 549.819 805.389 551.225 804.804 552.445 804.218 553.657 803.404 554.607 802.362 555.295 801.326 555.983 800.131 556.327 798.776 556.327zM798.776 554.662C799.865 554.662 800.788 554.369 801.544 553.783S802.873 552.417 803.261 551.443C803.656 550.469 803.853 549.397 803.853 548.225S803.656 545.977 803.261 544.996C802.873 544.016 802.3 543.229 801.544 542.636 800.788 542.044 799.865 541.747 798.776 541.747 797.693 541.747 796.77 542.044 796.007 542.636 795.251 543.229 794.675 544.016 794.28 544.996 793.892 545.977 793.698 547.053 793.698 548.225S793.892 550.469 794.28 551.443C794.675 552.417 795.251 553.197 796.007 553.783 796.763 554.369 797.686 554.662 798.776 554.662zM815.805 556.327C814.401 556.327 813.179 555.976 812.137 555.275 811.101 554.573 810.298 553.613 809.726 552.393 809.153 551.174 808.867 549.785 808.867 548.225 808.867 546.652 809.157 545.252 809.736 544.026 810.322 542.8 811.132 541.839 812.167 541.145 813.203 540.443 814.405 540.092 815.774 540.092 816.823 540.092 817.773 540.297 818.624 540.705 819.476 541.107 820.177 541.676 820.729 542.412 821.288 543.14 821.638 543.992 821.781 544.966H819.942C819.752 544.08 819.292 543.324 818.563 542.698 817.841 542.064 816.922 541.747 815.805 541.747 814.803 541.747 813.918 542.02 813.148 542.565 812.379 543.103 811.776 543.856 811.34 544.823 810.911 545.783 810.696 546.897 810.696 548.164 810.696 549.437 810.907 550.565 811.33 551.545 811.752 552.519 812.344 553.282 813.107 553.834 813.877 554.386 814.776 554.662 815.805 554.662 816.499 554.662 817.133 554.532 817.705 554.273 818.284 554.008 818.767 553.633 819.156 553.149 819.551 552.666 819.816 552.09 819.953 551.423H821.792C821.655 552.37 821.318 553.214 820.78 553.957 820.249 554.692 819.558 555.271 818.706 555.693 817.862 556.116 816.894 556.327 815.805 556.327zM827.345 550.074 827.324 547.694H827.733L835.089 540.307H837.388L830.123 547.581 829.96 547.612 827.345 550.074zM825.689 556V535.076H827.508V556H825.689zM835.467 556 829.092 547.939 830.399 546.682 837.796 556H835.467zM851.349 543.75 849.684 544.22C849.52 543.75 849.289 543.324 848.989 542.943 848.689 542.561 848.298 542.258 847.814 542.034 847.337 541.809 846.745 541.696 846.036 541.696 844.974 541.696 844.102 541.948 843.421 542.452 842.74 542.956 842.399 543.607 842.399 544.404 842.399 545.078 842.631 545.626 843.094 546.049 843.564 546.464 844.286 546.795 845.26 547.04L847.63 547.622C848.945 547.942 849.929 548.45 850.583 549.144 851.243 549.839 851.574 550.711 851.574 551.76 851.574 552.645 851.329 553.432 850.838 554.12 850.348 554.808 849.663 555.35 848.785 555.745 847.913 556.133 846.901 556.327 845.75 556.327 844.218 556.327 842.954 555.983 841.96 555.295 840.965 554.6 840.328 553.599 840.049 552.291L841.796 551.862C842.021 552.795 842.46 553.5 843.114 553.977 843.775 554.454 844.643 554.692 845.72 554.692 846.925 554.692 847.889 554.423 848.611 553.885 849.333 553.34 849.694 552.659 849.694 551.842 849.694 551.208 849.483 550.677 849.06 550.248 848.638 549.812 847.998 549.492 847.14 549.288L844.575 548.675C843.213 548.348 842.205 547.83 841.551 547.122 840.897 546.413 840.57 545.535 840.57 544.486 840.57 543.621 840.805 542.861 841.275 542.207 841.745 541.547 842.392 541.029 843.216 540.654 844.041 540.28 844.98 540.092 846.036 540.092 847.473 540.092 848.621 540.419 849.479 541.073 850.344 541.72 850.968 542.613 851.349 543.75z" fill="#000"/><path d="M1365.58 540.307V541.891H1358.09V540.307H1365.58zM1360.43 536.547H1362.26v15.356C1362.26 552.557 1362.37 553.071 1362.6 553.446 1362.82 553.814 1363.12 554.076 1363.48 554.232 1363.84 554.382 1364.22 554.457 1364.63 554.457 1364.87 554.457 1365.07 554.444 1365.24 554.416 1365.42 554.382 1365.57 554.348 1365.69 554.314L1366.08 555.959C1365.91 556.027 1365.69 556.089 1365.43 556.143 1365.17 556.204 1364.85 556.235 1364.47 556.235 1363.8 556.235 1363.16 556.089 1362.54 555.796 1361.92 555.503 1361.42 555.067 1361.03 554.488 1360.63 553.909 1360.43 553.19 1360.43 552.332V536.547zm15.21 19.78C1374.29 556.327 1373.09 555.983 1372.05 555.295S1370.2 553.657 1369.62 552.445C1369.03 551.225 1368.74 549.819 1368.74 548.225 1368.74 546.618 1369.03 545.204 1369.62 543.985 1370.2 542.759 1371.01 541.805 1372.05 541.124 1373.09 540.436 1374.29 540.092 1375.64 540.092 1377 540.092 1378.19 540.436 1379.23 541.124 1380.26 541.812 1381.08 542.766 1381.66 543.985 1382.25 545.204 1382.55 546.618 1382.55 548.225 1382.55 549.819 1382.26 551.225 1381.67 552.445 1381.09 553.657 1380.27 554.607 1379.23 555.295S1377 556.327 1375.64 556.327zM1375.64 554.662C1376.73 554.662 1377.66 554.369 1378.41 553.783 1379.17 553.197 1379.74 552.417 1380.13 551.443 1380.52 550.469 1380.72 549.397 1380.72 548.225S1380.52 545.977 1380.13 544.996C1379.74 544.016 1379.17 543.229 1378.41 542.636 1377.66 542.044 1376.73 541.747 1375.64 541.747 1374.56 541.747 1373.64 542.044 1372.87 542.636 1372.12 543.229 1371.54 544.016 1371.15 544.996 1370.76 545.977 1370.57 547.053 1370.57 548.225S1370.76 550.469 1371.15 551.443C1371.54 552.417 1372.12 553.197 1372.87 553.783 1373.63 554.369 1374.55 554.662 1375.64 554.662zM1392.64 556.327C1391.29 556.327 1390.09 555.983 1389.05 555.295S1387.2 553.657 1386.61 552.445C1386.03 551.225 1385.73 549.819 1385.73 548.225 1385.73 546.618 1386.03 545.204 1386.61 543.985 1387.2 542.759 1388.01 541.805 1389.05 541.124 1390.09 540.436 1391.29 540.092 1392.64 540.092 1394 540.092 1395.19 540.436 1396.23 541.124 1397.26 541.812 1398.07 542.766 1398.66 543.985 1399.25 545.204 1399.55 546.618 1399.55 548.225 1399.55 549.819 1399.26 551.225 1398.67 552.445 1398.08 553.657 1397.27 554.607 1396.23 555.295S1394 556.327 1392.64 556.327zM1392.64 554.662C1393.73 554.662 1394.65 554.369 1395.41 553.783S1396.74 552.417 1397.13 551.443C1397.52 550.469 1397.72 549.397 1397.72 548.225S1397.52 545.977 1397.13 544.996C1396.74 544.016 1396.17 543.229 1395.41 542.636 1394.65 542.044 1393.73 541.747 1392.64 541.747 1391.56 541.747 1390.64 542.044 1389.87 542.636 1389.12 543.229 1388.54 544.016 1388.15 544.996 1387.76 545.977 1387.56 547.053 1387.56 548.225S1387.76 550.469 1388.15 551.443C1388.54 552.417 1389.12 553.197 1389.87 553.783 1390.63 554.369 1391.55 554.662 1392.64 554.662zM1405.36 535.076V556H1403.54V535.076H1405.36zM1420.71 543.75 1419.05 544.22C1418.89 543.75 1418.65 543.324 1418.35 542.943 1418.06 542.561 1417.66 542.258 1417.18 542.034 1416.7 541.809 1416.11 541.696 1415.4 541.696 1414.34 541.696 1413.47 541.948 1412.79 542.452S1411.76 543.607 1411.76 544.404C1411.76 545.078 1412 545.626 1412.46 546.049 1412.93 546.464 1413.65 546.795 1414.63 547.04L1417 547.622C1418.31 547.942 1419.29 548.45 1419.95 549.144 1420.61 549.839 1420.94 550.711 1420.94 551.76 1420.94 552.645 1420.69 553.432 1420.2 554.12S1419.03 555.35 1418.15 555.745C1417.28 556.133 1416.27 556.327 1415.12 556.327 1413.58 556.327 1412.32 555.983 1411.33 555.295 1410.33 554.6 1409.69 553.599 1409.41 552.291L1411.16 551.862C1411.39 552.795 1411.83 553.5 1412.48 553.977 1413.14 554.454 1414.01 554.692 1415.09 554.692 1416.29 554.692 1417.25 554.423 1417.98 553.885 1418.7 553.34 1419.06 552.659 1419.06 551.842 1419.06 551.208 1418.85 550.677 1418.43 550.248 1418 549.812 1417.36 549.492 1416.51 549.288L1413.94 548.675C1412.58 548.348 1411.57 547.83 1410.92 547.122 1410.26 546.413 1409.94 545.535 1409.94 544.486 1409.94 543.621 1410.17 542.861 1410.64 542.207 1411.11 541.547 1411.76 541.029 1412.58 540.654 1413.41 540.28 1414.35 540.092 1415.4 540.092 1416.84 540.092 1417.99 540.419 1418.85 541.073 1419.71 541.72 1420.33 542.613 1420.71 543.75z" fill="#000"/><path d="M1875.94 542.75 1874.28 543.22C1874.12 542.75 1873.88 542.324 1873.58 541.943 1873.28 541.561 1872.89 541.258 1872.41 541.034 1871.93 540.809 1871.34 540.696 1870.63 540.696 1869.57 540.696 1868.7 540.948 1868.02 541.452S1866.99 542.607 1866.99 543.404C1866.99 544.078 1867.23 544.626 1867.69 545.049 1868.16 545.464 1868.88 545.795 1869.86 546.04L1872.23 546.622C1873.54 546.942 1874.52 547.45 1875.18 548.144 1875.84 548.839 1876.17 549.711 1876.17 550.76 1876.17 551.645 1875.92 552.432 1875.43 553.12S1874.26 554.35 1873.38 554.745C1872.51 555.133 1871.5 555.327 1870.35 555.327 1868.81 555.327 1867.55 554.983 1866.56 554.295 1865.56 553.6 1864.92 552.599 1864.64 551.291L1866.39 550.862C1866.62 551.795 1867.06 552.5 1867.71 552.977 1868.37 553.454 1869.24 553.692 1870.32 553.692 1871.52 553.692 1872.48 553.423 1873.21 552.885 1873.93 552.34 1874.29 551.659 1874.29 550.842 1874.29 550.208 1874.08 549.677 1873.66 549.248 1873.23 548.812 1872.59 548.492 1871.74 548.288L1869.17 547.675C1867.81 547.348 1866.8 546.83 1866.15 546.122 1865.49 545.413 1865.17 544.535 1865.17 543.486 1865.17 542.621 1865.4 541.861 1865.87 541.207 1866.34 540.547 1866.99 540.029 1867.81 539.654 1868.64 539.28 1869.58 539.092 1870.63 539.092 1872.07 539.092 1873.22 539.419 1874.08 540.073 1874.94 540.72 1875.56 541.613 1875.94 542.75zM1886.33 539.307V540.891H1878.84V539.307H1886.33zM1881.18 535.547H1883.01v15.356C1883.01 551.557 1883.12 552.071 1883.35 552.446 1883.57 552.814 1883.87 553.076 1884.23 553.232 1884.59 553.382 1884.97 553.457 1885.38 553.457 1885.62 553.457 1885.83 553.444 1886 553.416 1886.17 553.382 1886.32 553.348 1886.45 553.314L1886.83 554.959C1886.66 555.027 1886.44 555.089 1886.18 555.143 1885.92 555.204 1885.6 555.235 1885.22 555.235 1884.55 555.235 1883.91 555.089 1883.29 554.796 1882.68 554.503 1882.17 554.067 1881.78 553.488 1881.38 552.909 1881.18 552.19 1881.18 551.332V535.547zM1894.85 555.358C1893.9 555.358 1893.03 555.174 1892.25 554.806 1891.47 554.431 1890.84 553.893 1890.38 553.192 1889.92 552.483 1889.69 551.625 1889.69 550.617 1889.69 549.84 1889.83 549.187 1890.13 548.655 1890.42 548.124 1890.83 547.688 1891.37 547.348 1891.91 547.007 1892.55 546.738 1893.28 546.54 1894.02 546.343 1894.83 546.19 1895.71 546.081 1896.59 545.972 1897.34 545.876 1897.94 545.795 1898.55 545.713 1899.02 545.583 1899.34 545.406 1899.66 545.229 1899.82 544.943 1899.82 544.548V544.18C1899.82 543.111 1899.5 542.27 1898.86 541.657 1898.23 541.037 1897.31 540.727 1896.12 540.727 1894.99 540.727 1894.07 540.976 1893.35 541.473 1892.65 541.97 1892.15 542.556 1891.86 543.23L1890.14 542.607C1890.49 541.749 1890.98 541.064 1891.61 540.553 1892.23 540.036 1892.94 539.665 1893.71 539.44 1894.49 539.208 1895.28 539.092 1896.07 539.092 1896.67 539.092 1897.29 539.171 1897.94 539.327 1898.6 539.484 1899.2 539.756 1899.76 540.145 1900.32 540.526 1900.77 541.061 1901.12 541.749 1901.47 542.43 1901.64 543.295 1901.64 544.344V555H1899.82V552.517H1899.71C1899.49 552.98 1899.17 553.43 1898.74 553.866S1897.77 554.659 1897.12 554.939C1896.48 555.218 1895.72 555.358 1894.85 555.358zM1895.09 553.692C1896.06 553.692 1896.9 553.478 1897.6 553.049 1898.31 552.619 1898.86 552.051 1899.24 551.342 1899.63 550.627 1899.82 549.84 1899.82 548.982V546.714C1899.69 546.844 1899.46 546.959 1899.14 547.062 1898.82 547.164 1898.46 547.256 1898.04 547.337 1897.64 547.412 1897.23 547.477 1896.82 547.531 1896.41 547.586 1896.04 547.634 1895.71 547.675 1894.83 547.783 1894.07 547.954 1893.45 548.185 1892.82 548.417 1892.34 548.737 1892.01 549.146 1891.67 549.548 1891.51 550.065 1891.51 550.699 1891.51 551.652 1891.85 552.391 1892.53 552.916 1893.21 553.433 1894.06 553.692 1895.09 553.692zm13.21-8.5V555H1906.48V539.307H1908.25V541.769H1908.41C1908.78 540.965 1909.35 540.322 1910.13 539.838 1910.91 539.348 1911.88 539.103 1913.03 539.103 1914.08 539.103 1915.01 539.324 1915.81 539.767 1916.61 540.203 1917.23 540.846 1917.68 541.698 1918.13 542.549 1918.35 543.595 1918.35 544.834V555H1916.53V544.947C1916.53 543.659 1916.17 542.641 1915.45 541.892 1914.73 541.143 1913.77 540.768 1912.57 540.768 1911.74 540.768 1911.01 540.945 1910.37 541.299 1909.73 541.653 1909.22 542.164 1908.85 542.832 1908.48 543.492 1908.3 544.279 1908.3 545.192zm20.49 10.135C1927.5 555.327 1926.37 554.986 1925.41 554.305 1924.44 553.624 1923.68 552.674 1923.14 551.455 1922.6 550.236 1922.33 548.815 1922.33 547.194 1922.33 545.58 1922.6 544.167 1923.14 542.954 1923.68 541.735 1924.44 540.788 1925.42 540.114 1926.39 539.433 1927.53 539.092 1928.82 539.092 1929.77 539.092 1930.57 539.263 1931.2 539.603 1931.83 539.937 1932.34 540.352 1932.72 540.85 1933.1 541.347 1933.4 541.83 1933.61 542.3H1933.77V534.076H1935.6V555H1933.83V552.088H1933.61C1933.4 552.565 1933.1 553.055 1932.71 553.559 1932.32 554.057 1931.81 554.476 1931.17 554.816 1930.54 555.157 1929.74 555.327 1928.79 555.327zM1929 553.662C1930.02 553.662 1930.88 553.386 1931.6 552.834 1932.31 552.276 1932.86 551.509 1933.23 550.535 1933.61 549.554 1933.81 548.431 1933.81 547.164 1933.81 545.91 1933.62 544.804 1933.24 543.843 1932.87 542.876 1932.32 542.12 1931.61 541.575 1930.89 541.023 1930.03 540.747 1929 540.747 1927.95 540.747 1927.07 541.034 1926.35 541.606 1925.63 542.171 1925.09 542.937 1924.71 543.905 1924.34 544.872 1924.16 545.958 1924.16 547.164 1924.16 548.383 1924.35 549.483 1924.72 550.464 1925.1 551.445 1925.64 552.224 1926.36 552.803 1927.08 553.376 1927.96 553.662 1929 553.662zM1945.17 555.358C1944.22 555.358 1943.35 555.174 1942.57 554.806 1941.79 554.431 1941.16 553.893 1940.7 553.192 1940.24 552.483 1940.01 551.625 1940.01 550.617 1940.01 549.84 1940.15 549.187 1940.45 548.655 1940.74 548.124 1941.15 547.688 1941.69 547.348 1942.23 547.007 1942.87 546.738 1943.6 546.54 1944.34 546.343 1945.15 546.19 1946.03 546.081 1946.91 545.972 1947.66 545.876 1948.26 545.795 1948.88 545.713 1949.34 545.583 1949.66 545.406 1949.98 545.229 1950.14 544.943 1950.14 544.548V544.18C1950.14 543.111 1949.82 542.27 1949.18 541.657 1948.55 541.037 1947.64 540.727 1946.44 540.727 1945.31 540.727 1944.39 540.976 1943.67 541.473 1942.97 541.97 1942.47 542.556 1942.18 543.23L1940.46 542.607C1940.81 541.749 1941.3 541.064 1941.93 540.553 1942.55 540.036 1943.26 539.665 1944.03 539.44 1944.81 539.208 1945.6 539.092 1946.39 539.092 1946.99 539.092 1947.62 539.171 1948.26 539.327 1948.92 539.484 1949.52 539.756 1950.08 540.145 1950.64 540.526 1951.09 541.061 1951.44 541.749 1951.79 542.43 1951.96 543.295 1951.96 544.344V555H1950.14V552.517H1950.03C1949.81 552.98 1949.49 553.43 1949.06 553.866 1948.63 554.302 1948.09 554.659 1947.44 554.939 1946.8 555.218 1946.04 555.358 1945.17 555.358zM1945.41 553.692C1946.38 553.692 1947.22 553.478 1947.92 553.049 1948.63 552.619 1949.18 552.051 1949.56 551.342 1949.95 550.627 1950.14 549.84 1950.14 548.982V546.714C1950.01 546.844 1949.78 546.959 1949.46 547.062 1949.14 547.164 1948.78 547.256 1948.36 547.337 1947.96 547.412 1947.55 547.477 1947.14 547.531 1946.73 547.586 1946.36 547.634 1946.03 547.675 1945.15 547.783 1944.39 547.954 1943.77 548.185 1943.14 548.417 1942.66 548.737 1942.33 549.146 1941.99 549.548 1941.83 550.065 1941.83 550.699 1941.83 551.652 1942.17 552.391 1942.85 552.916 1943.53 553.433 1944.38 553.692 1945.41 553.692zM1956.8 555V539.307H1958.57V541.718H1958.7C1959.01 540.928 1959.56 540.291 1960.33 539.808 1961.12 539.317 1962 539.072 1962.99 539.072 1963.14 539.072 1963.31 539.075 1963.49 539.082 1963.67 539.089 1963.83 539.096 1963.95 539.103V540.952C1963.87 540.938 1963.73 540.918 1963.52 540.891 1963.32 540.863 1963.1 540.85 1962.86 540.85 1962.04 540.85 1961.31 541.023 1960.67 541.371 1960.04 541.711 1959.54 542.185 1959.17 542.791 1958.8 543.397 1958.62 544.088 1958.62 544.865V555H1956.8zM1972.23 555.327C1970.94 555.327 1969.81 554.986 1968.84 554.305 1967.88 553.624 1967.12 552.674 1966.58 551.455 1966.04 550.236 1965.77 548.815 1965.77 547.194 1965.77 545.58 1966.04 544.167 1966.58 542.954 1967.12 541.735 1967.88 540.788 1968.85 540.114 1969.83 539.433 1970.96 539.092 1972.26 539.092 1973.21 539.092 1974 539.263 1974.64 539.603 1975.27 539.937 1975.78 540.352 1976.16 540.85 1976.54 541.347 1976.84 541.83 1977.05 542.3H1977.21V534.076H1979.04V555H1977.26V552.088H1977.05C1976.84 552.565 1976.54 553.055 1976.15 553.559 1975.76 554.057 1975.25 554.476 1974.61 554.816 1973.97 555.157 1973.18 555.327 1972.23 555.327zM1972.44 553.662C1973.46 553.662 1974.32 553.386 1975.04 552.834 1975.75 552.276 1976.3 551.509 1976.67 550.535 1977.05 549.554 1977.24 548.431 1977.24 547.164 1977.24 545.91 1977.05 544.804 1976.68 543.843 1976.31 542.876 1975.76 542.12 1975.05 541.575 1974.33 541.023 1973.46 540.747 1972.44 540.747 1971.39 540.747 1970.51 541.034 1969.78 541.606 1969.07 542.171 1968.52 542.937 1968.15 543.905 1967.78 544.872 1967.6 545.958 1967.6 547.164 1967.6 548.383 1967.78 549.483 1968.16 550.464 1968.53 551.445 1969.08 552.224 1969.79 552.803 1970.52 553.376 1971.4 553.662 1972.44 553.662zM1997.96 555.327C1996.67 555.327 1995.55 554.986 1994.58 554.305 1993.61 553.624 1992.86 552.674 1992.31 551.455 1991.77 550.236 1991.5 548.815 1991.5 547.194 1991.5 545.58 1991.77 544.167 1992.31 542.954 1992.86 541.735 1993.62 540.788 1994.59 540.114 1995.56 539.433 1996.7 539.092 1997.99 539.092 1998.95 539.092 1999.74 539.263 2000.37 539.603 2001.01 539.937 2001.51 540.352 2001.9 540.85 2002.28 541.347 2002.57 541.83 2002.78 542.3H2002.95V534.076H2004.78V555H2003V552.088H2002.78C2002.57 552.565 2002.27 553.055 2001.89 553.559 2001.5 554.057 2000.98 554.476 2000.34 554.816 1999.71 555.157 1998.92 555.327 1997.96 555.327zM1998.18 553.662C1999.19 553.662 2000.06 553.386 2000.77 552.834 2001.49 552.276 2002.03 551.509 2002.41 550.535 2002.79 549.554 2002.98 548.431 2002.98 547.164 2002.98 545.91 2002.79 544.804 2002.42 543.843 2002.04 542.876 2001.5 542.12 2000.78 541.575 2000.07 541.023 1999.2 540.747 1998.18 540.747 1997.13 540.747 1996.24 541.034 1995.52 541.606 1994.81 542.171 1994.26 542.937 1993.89 543.905 1993.52 544.872 1993.33 545.958 1993.33 547.164 1993.33 548.383 1993.52 549.483 1993.9 550.464 1994.27 551.445 1994.82 552.224 1995.53 552.803 1996.25 553.376 1997.13 553.662 1998.18 553.662zM2016.3 555.327C2014.84 555.327 2013.57 554.986 2012.5 554.305 2011.43 553.617 2010.6 552.667 2010.02 551.455 2009.44 550.236 2009.15 548.832 2009.15 547.245 2009.15 545.665 2009.44 544.262 2010.02 543.036 2010.6 541.803 2011.41 540.839 2012.44 540.145 2013.47 539.443 2014.67 539.092 2016.03 539.092 2016.88 539.092 2017.7 539.249 2018.49 539.562 2019.28 539.869 2019.99 540.342 2020.61 540.982 2021.25 541.616 2021.75 542.416 2022.11 543.383 2022.48 544.344 2022.67 545.481 2022.67 546.796V547.695h-12.26V546.091H2020.81C2020.81 545.083 2020.6 544.177 2020.19 543.373 2019.79 542.563 2019.23 541.922 2018.51 541.452S2016.97 540.747 2016.03 540.747C2015.03 540.747 2014.16 541.013 2013.4 541.544 2012.64 542.076 2012.05 542.777 2011.62 543.649 2011.2 544.521 2010.99 545.474 2010.98 546.51V547.47C2010.98 548.717 2011.19 549.806 2011.62 550.74 2012.06 551.666 2012.67 552.384 2013.47 552.895S2015.21 553.662 2016.3 553.662C2017.04 553.662 2017.69 553.546 2018.25 553.314 2018.82 553.083 2019.29 552.773 2019.67 552.384 2020.06 551.989 2020.35 551.557 2020.55 551.087L2022.28 551.649C2022.04 552.31 2021.65 552.919 2021.1 553.478 2020.57 554.036 2019.89 554.486 2019.08 554.826 2018.28 555.16 2017.35 555.327 2016.3 555.327zM2032.86 539.307V540.891H2025.37V539.307H2032.86zM2027.71 535.547H2029.53v15.356C2029.53 551.557 2029.65 552.071 2029.87 552.446 2030.1 552.814 2030.39 553.076 2030.75 553.232 2031.11 553.382 2031.5 553.457 2031.9 553.457 2032.14 553.457 2032.35 553.444 2032.52 553.416 2032.69 553.382 2032.84 553.348 2032.97 553.314L2033.36 554.959C2033.18 555.027 2032.96 555.089 2032.7 555.143 2032.44 555.204 2032.12 555.235 2031.74 555.235 2031.07 555.235 2030.43 555.089 2029.81 554.796 2029.2 554.503 2028.69 554.067 2028.3 553.488 2027.9 552.909 2027.71 552.19 2027.71 551.332V535.547zM2041.37 555.358C2040.42 555.358 2039.56 555.174 2038.77 554.806 2037.99 554.431 2037.37 553.893 2036.9 553.192 2036.44 552.483 2036.21 551.625 2036.21 550.617 2036.21 549.84 2036.36 549.187 2036.65 548.655 2036.94 548.124 2037.36 547.688 2037.89 547.348 2038.43 547.007 2039.07 546.738 2039.81 546.54 2040.54 546.343 2041.35 546.19 2042.24 546.081 2043.12 545.972 2043.86 545.876 2044.46 545.795 2045.08 545.713 2045.54 545.583 2045.86 545.406 2046.18 545.229 2046.34 544.943 2046.34 544.548V544.18C2046.34 543.111 2046.02 542.27 2045.38 541.657 2044.75 541.037 2043.84 540.727 2042.65 540.727 2041.51 540.727 2040.59 540.976 2039.88 541.473 2039.17 541.97 2038.67 542.556 2038.38 543.23L2036.66 542.607C2037.01 541.749 2037.5 541.064 2038.13 540.553 2038.76 540.036 2039.46 539.665 2040.23 539.44 2041.01 539.208 2041.8 539.092 2042.59 539.092 2043.19 539.092 2043.82 539.171 2044.46 539.327 2045.12 539.484 2045.72 539.756 2046.28 540.145 2046.84 540.526 2047.29 541.061 2047.64 541.749 2047.99 542.43 2048.16 543.295 2048.16 544.344V555H2046.34V552.517H2046.23C2046.01 552.98 2045.69 553.43 2045.26 553.866S2044.29 554.659 2043.65 554.939C2043 555.218 2042.24 555.358 2041.37 555.358zM2041.61 553.692C2042.58 553.692 2043.42 553.478 2044.13 553.049 2044.84 552.619 2045.38 552.051 2045.76 551.342 2046.15 550.627 2046.34 549.84 2046.34 548.982V546.714C2046.21 546.844 2045.98 546.959 2045.66 547.062 2045.35 547.164 2044.98 547.256 2044.57 547.337 2044.16 547.412 2043.75 547.477 2043.34 547.531 2042.93 547.586 2042.56 547.634 2042.24 547.675 2041.35 547.783 2040.6 547.954 2039.97 548.185 2039.34 548.417 2038.86 548.737 2038.53 549.146 2038.19 549.548 2038.03 550.065 2038.03 550.699 2038.03 551.652 2038.37 552.391 2039.05 552.916 2039.73 553.433 2040.59 553.692 2041.61 553.692zM2053.02 555V539.307H2054.85V555H2053.02zM2053.95 536.61C2053.58 536.61 2053.26 536.484 2052.99 536.232 2052.72 535.973 2052.59 535.663 2052.59 535.302S2052.72 534.634 2052.99 534.382C2053.26 534.124 2053.58 533.994 2053.95 533.994 2054.32 533.994 2054.65 534.124 2054.91 534.382 2055.18 534.634 2055.31 534.941 2055.31 535.302S2055.18 535.973 2054.91 536.232C2054.65 536.484 2054.32 536.61 2053.95 536.61zM2061.48 534.076V555H2059.66V534.076H2061.48zM2076.83 542.75 2075.17 543.22C2075 542.75 2074.77 542.324 2074.47 541.943 2074.17 541.561 2073.78 541.258 2073.3 541.034 2072.82 540.809 2072.23 540.696 2071.52 540.696 2070.46 540.696 2069.59 540.948 2068.91 541.452 2068.22 541.956 2067.88 542.607 2067.88 543.404 2067.88 544.078 2068.12 544.626 2068.58 545.049 2069.05 545.464 2069.77 545.795 2070.74 546.04L2073.11 546.622C2074.43 546.942 2075.41 547.45 2076.07 548.144 2076.73 548.839 2077.06 549.711 2077.06 550.76 2077.06 551.645 2076.81 552.432 2076.32 553.12 2075.83 553.808 2075.15 554.35 2074.27 554.745 2073.4 555.133 2072.39 555.327 2071.23 555.327 2069.7 555.327 2068.44 554.983 2067.44 554.295 2066.45 553.6 2065.81 552.599 2065.53 551.291L2067.28 550.862C2067.51 551.795 2067.94 552.5 2068.6 552.977 2069.26 553.454 2070.13 553.692 2071.2 553.692 2072.41 553.692 2073.37 553.423 2074.1 552.885 2074.82 552.34 2075.18 551.659 2075.18 550.842 2075.18 550.208 2074.97 549.677 2074.54 549.248 2074.12 548.812 2073.48 548.492 2072.62 548.288L2070.06 547.675C2068.7 547.348 2067.69 546.83 2067.04 546.122 2066.38 545.413 2066.05 544.535 2066.05 543.486 2066.05 542.621 2066.29 541.861 2066.76 541.207 2067.23 540.547 2067.88 540.029 2068.7 539.654 2069.53 539.28 2070.47 539.092 2071.52 539.092 2072.96 539.092 2074.11 539.419 2074.96 540.073 2075.83 540.72 2076.45 541.613 2076.83 542.75z" fill="#000"/></svg>