<svg width="456" height="300" viewBox="0 0 456 300" fill="none" xmlns="http://www.w3.org/2000/svg"><rect width="456" height="300" fill="#333"/><path d="M242.395 187.812 238.798 201.597l76.047 43.906L317.685 243.864V210.707L311.374 207.063 310.585 207.519 309.797 207.063v-4.19L294.019 193.764 291.179 195.403 286.131 192.489V156.053L279.819 152.409 279.031 152.865 278.242 152.409v-4.19L262.465 139.11 259.625 140.75 257.416 139.474 254.576 141.114 250.944 155.037 250.159 154.347 247.319 155.986 240.047 183.864 243.557 186.952 243.499 187.174 242.395 187.812z" fill="#fff" fill-opacity=".1" stroke="#f7f7f7" stroke-width="1.06745" stroke-miterlimit="10"/><path d="M251.257 155.307 250.472 154.617" stroke="#f7f7f7" stroke-width=".533727" stroke-miterlimit="10" stroke-linecap="round" stroke-linejoin="round"/><path d="M286.444 192.759V156.323" stroke="#f7f7f7" stroke-width=".533727" stroke-miterlimit="10" stroke-linecap="round" stroke-linejoin="round"/><path d="M259.938 141.019 257.729 139.744" stroke="#f7f7f7" stroke-width=".533727" stroke-miterlimit="10" stroke-linecap="round" stroke-linejoin="round"/><path d="M291.492 195.673 286.444 192.759" stroke="#f7f7f7" stroke-width=".533727" stroke-miterlimit="10" stroke-linecap="round" stroke-linejoin="round"/><path d="M317.999 210.977v33.156" stroke="#f7f7f7" stroke-width=".533727" stroke-miterlimit="10" stroke-linecap="round" stroke-linejoin="round"/><path d="M310.899 207.788 310.11 207.333" stroke="#f7f7f7" stroke-width=".533727" stroke-miterlimit="10" stroke-linecap="round" stroke-linejoin="round"/><path d="M279.344 153.134 278.555 152.679" stroke="#f7f7f7" stroke-width=".533727" stroke-miterlimit="10" stroke-linecap="round" stroke-linejoin="round"/><path d="M278.556 148.489v4.19" stroke="#f7f7f7" stroke-width=".533727" stroke-miterlimit="10" stroke-linecap="round" stroke-linejoin="round"/><path d="M262.778 139.38 278.556 148.489" stroke="#f7f7f7" stroke-width=".533727" stroke-miterlimit="10" stroke-linecap="round" stroke-linejoin="round"/><path d="M286.444 156.323 280.133 152.679" stroke="#f7f7f7" stroke-width=".533727" stroke-miterlimit="10" stroke-linecap="round" stroke-linejoin="round"/><path d="M317.999 210.977 311.688 207.333" stroke="#f7f7f7" stroke-width=".533727" stroke-miterlimit="10" stroke-linecap="round" stroke-linejoin="round"/><path d="M310.11 203.143 294.333 194.034" stroke="#f7f7f7" stroke-width=".533727" stroke-miterlimit="10" stroke-linecap="round" stroke-linejoin="round"/><path d="M310.11 203.143v4.19" stroke="#f7f7f7" stroke-width=".533727" stroke-miterlimit="10" stroke-linecap="round" stroke-linejoin="round"/><path d="M239.112 201.868l3.596-13.786" stroke="#f7f7f7" stroke-width=".533727" stroke-miterlimit="10" stroke-linecap="round" stroke-linejoin="round"/><path d="M242.708 188.082 243.471 188.753" stroke="#f7f7f7" stroke-width=".533727" stroke-miterlimit="10" stroke-linecap="round" stroke-linejoin="round"/><path d="M243.871 187.222 240.36 184.134" stroke="#f7f7f7" stroke-width=".533727" stroke-miterlimit="10" stroke-linecap="round" stroke-linejoin="round"/><path d="M240.36 184.134 247.632 156.256" stroke="#f7f7f7" stroke-width=".533727" stroke-miterlimit="10" stroke-linecap="round" stroke-linejoin="round"/><path d="M251.143 159.344 247.632 156.256" stroke="#f7f7f7" stroke-width=".533727" stroke-miterlimit="10" stroke-linecap="round" stroke-linejoin="round"/><path d="M251.541 157.812 251.142 159.344" stroke="#f7f7f7" stroke-width=".533727" stroke-miterlimit="10" stroke-linecap="round" stroke-linejoin="round"/><path d="M250.778 157.141 251.542 157.812" stroke="#f7f7f7" stroke-width=".533727" stroke-miterlimit="10" stroke-linecap="round" stroke-linejoin="round"/><path d="M258.361 143.388l-3.471-2.005" stroke="#f7f7f7" stroke-width=".533727" stroke-miterlimit="10" stroke-linecap="round" stroke-linejoin="round"/><path d="M258.361 143.388V144.299" stroke="#f7f7f7" stroke-width=".533727" stroke-miterlimit="10" stroke-linecap="round" stroke-linejoin="round"/><path d="M259.938 145.21 258.361 144.298" stroke="#f7f7f7" stroke-width=".533727" stroke-miterlimit="10" stroke-linecap="round" stroke-linejoin="round"/><path d="M259.938 141.019 275.715 150.128" stroke="#f7f7f7" stroke-width=".533727" stroke-miterlimit="10" stroke-linecap="round" stroke-linejoin="round"/><path d="M275.715 150.128v4.191" stroke="#f7f7f7" stroke-width=".533727" stroke-miterlimit="10" stroke-linecap="round" stroke-linejoin="round"/><path d="M277.293 155.229 275.715 154.318" stroke="#f7f7f7" stroke-width=".533727" stroke-miterlimit="10" stroke-linecap="round" stroke-linejoin="round"/><path d="M277.293 154.319V155.23" stroke="#f7f7f7" stroke-width=".533727" stroke-miterlimit="10" stroke-linecap="round" stroke-linejoin="round"/><path d="M283.605 157.962 277.293 154.318" stroke="#f7f7f7" stroke-width=".533727" stroke-miterlimit="10" stroke-linecap="round" stroke-linejoin="round"/><path d="M283.604 194.398V157.962" stroke="#f7f7f7" stroke-width=".533727" stroke-miterlimit="10" stroke-linecap="round" stroke-linejoin="round"/><path d="M289.915 198.042 283.604 194.398" stroke="#f7f7f7" stroke-width=".533727" stroke-miterlimit="10" stroke-linecap="round" stroke-linejoin="round"/><path d="M289.915 198.042V198.953" stroke="#f7f7f7" stroke-width=".533727" stroke-miterlimit="10" stroke-linecap="round" stroke-linejoin="round"/><path d="M291.493 199.864 289.916 198.953" stroke="#f7f7f7" stroke-width=".533727" stroke-miterlimit="10" stroke-linecap="round" stroke-linejoin="round"/><path d="M307.27 204.783 291.492 195.674" stroke="#f7f7f7" stroke-width=".533727" stroke-miterlimit="10" stroke-linecap="round" stroke-linejoin="round"/><path d="M307.271 204.782v4.191" stroke="#f7f7f7" stroke-width=".533727" stroke-miterlimit="10" stroke-linecap="round" stroke-linejoin="round"/><path d="M308.848 209.884 307.271 208.972" stroke="#f7f7f7" stroke-width=".533727" stroke-miterlimit="10" stroke-linecap="round" stroke-linejoin="round"/><path d="M308.848 208.973V209.884" stroke="#f7f7f7" stroke-width=".533727" stroke-miterlimit="10" stroke-linecap="round" stroke-linejoin="round"/><path d="M315.159 212.616 308.848 208.972" stroke="#f7f7f7" stroke-width=".533727" stroke-miterlimit="10" stroke-linecap="round" stroke-linejoin="round"/><path d="M315.159 212.616v33.157" stroke="#f7f7f7" stroke-width=".533727" stroke-miterlimit="10" stroke-linecap="round" stroke-linejoin="round"/><path d="M315.158 245.773l-76.047-43.906" stroke="#f7f7f7" stroke-width=".533727" stroke-miterlimit="10" stroke-linecap="round" stroke-linejoin="round"/><path d="M243.813 187.444 242.708 188.082" stroke="#f7f7f7" stroke-width=".533727" stroke-miterlimit="10" stroke-linecap="round" stroke-linejoin="round"/><path d="M250.472 154.616 247.633 156.256" stroke="#f7f7f7" stroke-width=".533727" stroke-miterlimit="10" stroke-linecap="round" stroke-linejoin="round"/><path d="M257.729 139.744 254.89 141.384" stroke="#f7f7f7" stroke-width=".533727" stroke-miterlimit="10" stroke-linecap="round" stroke-linejoin="round"/><path d="M259.938 142.477 258.361 143.388" stroke="#f7f7f7" stroke-width=".533727" stroke-miterlimit="10" stroke-linecap="round" stroke-linejoin="round"/><path d="M259.938 143.388 258.361 144.299" stroke="#f7f7f7" stroke-width=".533727" stroke-miterlimit="10" stroke-linecap="round" stroke-linejoin="round"/><path d="M262.778 139.38 259.938 141.019" stroke="#f7f7f7" stroke-width=".533727" stroke-miterlimit="10" stroke-linecap="round" stroke-linejoin="round"/><path d="M278.555 148.489 275.715 150.128" stroke="#f7f7f7" stroke-width=".533727" stroke-miterlimit="10" stroke-linecap="round" stroke-linejoin="round"/><path d="M278.555 152.679 275.715 154.319" stroke="#f7f7f7" stroke-width=".533727" stroke-miterlimit="10" stroke-linecap="round" stroke-linejoin="round"/><path d="M286.444 156.323 283.604 157.962" stroke="#f7f7f7" stroke-width=".533727" stroke-miterlimit="10" stroke-linecap="round" stroke-linejoin="round"/><path d="M286.444 192.759 283.604 194.398" stroke="#f7f7f7" stroke-width=".533727" stroke-miterlimit="10" stroke-linecap="round" stroke-linejoin="round"/><path d="M291.493 197.131 289.916 198.042" stroke="#f7f7f7" stroke-width=".533727" stroke-miterlimit="10" stroke-linecap="round" stroke-linejoin="round"/><path d="M291.493 198.042 289.916 198.953" stroke="#f7f7f7" stroke-width=".533727" stroke-miterlimit="10" stroke-linecap="round" stroke-linejoin="round"/><path d="M294.333 194.034 291.494 195.674" stroke="#f7f7f7" stroke-width=".533727" stroke-miterlimit="10" stroke-linecap="round" stroke-linejoin="round"/><path d="M310.11 203.143 307.27 204.783" stroke="#f7f7f7" stroke-width=".533727" stroke-miterlimit="10" stroke-linecap="round" stroke-linejoin="round"/><path d="M310.11 207.333 307.27 208.973" stroke="#f7f7f7" stroke-width=".533727" stroke-miterlimit="10" stroke-linecap="round" stroke-linejoin="round"/><path d="M317.999 210.977 315.159 212.616" stroke="#f7f7f7" stroke-width=".533727" stroke-miterlimit="10" stroke-linecap="round" stroke-linejoin="round"/><path d="M317.999 244.134 315.159 245.773" stroke="#f7f7f7" stroke-width=".533727" stroke-miterlimit="10" stroke-linecap="round" stroke-linejoin="round"/><path d="M243.472 188.753 243.813 187.444" stroke="#f7f7f7" stroke-width=".533727" stroke-miterlimit="10" stroke-linecap="round" stroke-linejoin="round"/><path d="M243.812 187.444 243.871 187.221" stroke="#f7f7f7" stroke-width=".533727" stroke-miterlimit="10" stroke-linecap="round" stroke-linejoin="round"/><path d="M250.778 157.141 251.257 155.307" stroke="#f7f7f7" stroke-width=".533727" stroke-miterlimit="10" stroke-linecap="round" stroke-linejoin="round"/><path d="M251.257 155.307 254.889 141.384" stroke="#f7f7f7" stroke-width=".533727" stroke-miterlimit="10" stroke-linecap="round" stroke-linejoin="round"/><path d="M259.938 143.388v1.821" stroke="#f7f7f7" stroke-width=".533727" stroke-miterlimit="10" stroke-linecap="round" stroke-linejoin="round"/><path d="M291.493 198.042v1.821" stroke="#f7f7f7" stroke-width=".533727" stroke-miterlimit="10" stroke-linecap="round" stroke-linejoin="round"/><path d="M280.133 152.679 279.344 153.134" stroke="#f7f7f7" stroke-width=".533727" stroke-miterlimit="10" stroke-linecap="round" stroke-linejoin="round"/><path d="M279.345 153.134 277.293 154.319" stroke="#f7f7f7" stroke-width=".533727" stroke-miterlimit="10" stroke-linecap="round" stroke-linejoin="round"/><path d="M311.687 207.333 310.898 207.788" stroke="#f7f7f7" stroke-width=".533727" stroke-miterlimit="10" stroke-linecap="round" stroke-linejoin="round"/><path d="M310.899 207.789 308.848 208.973" stroke="#f7f7f7" stroke-width=".533727" stroke-miterlimit="10" stroke-linecap="round" stroke-linejoin="round"/><path d="M259.938 141.019v1.458" stroke="#f7f7f7" stroke-width=".533727" stroke-miterlimit="10" stroke-linecap="round" stroke-linejoin="round"/><path d="M259.938 142.477V143.388" stroke="#f7f7f7" stroke-width=".533727" stroke-miterlimit="10" stroke-linecap="round" stroke-linejoin="round"/><path d="M291.493 195.674V197.131" stroke="#f7f7f7" stroke-width=".533727" stroke-miterlimit="10" stroke-linecap="round" stroke-linejoin="round"/><path d="M291.493 197.131V198.042" stroke="#f7f7f7" stroke-width=".533727" stroke-miterlimit="10" stroke-linecap="round" stroke-linejoin="round"/><path d="M182.125 222.609l-3.596 13.786L254.576 280.3 257.415 278.661V245.504L251.105 241.86 250.316 242.316 249.527 241.86V237.67L233.75 228.561 230.91 230.201 225.861 227.286V190.85L219.55 187.206 218.762 187.662 217.972 187.206v-4.19L202.195 173.907 199.355 175.547 197.147 174.271 194.306 175.911 190.674 189.834 189.889 189.144 187.049 190.784 179.777 218.661 183.288 221.749 183.23 221.971 182.125 222.609z" fill="#fff" fill-opacity=".1" stroke="#f7f7f7" stroke-width="1.06745" stroke-miterlimit="10"/><path d="M257.729 245.773V278.93" stroke="#f7f7f7" stroke-width=".533727" stroke-miterlimit="10" stroke-linecap="round" stroke-linejoin="round"/><path d="M254.889 247.413 248.578 243.769" stroke="#f7f7f7" stroke-width=".533727" stroke-miterlimit="10" stroke-linecap="round" stroke-linejoin="round"/><path d="M254.889 247.413v33.156" stroke="#f7f7f7" stroke-width=".533727" stroke-miterlimit="10" stroke-linecap="round" stroke-linejoin="round"/><path d="M249.84 237.939 247 239.579" stroke="#f7f7f7" stroke-width=".533727" stroke-miterlimit="10" stroke-linecap="round" stroke-linejoin="round"/><path d="M257.729 245.773 254.889 247.413" stroke="#f7f7f7" stroke-width=".533727" stroke-miterlimit="10" stroke-linecap="round" stroke-linejoin="round"/><path d="M257.729 278.93 254.889 280.57" stroke="#f7f7f7" stroke-width=".533727" stroke-miterlimit="10" stroke-linecap="round" stroke-linejoin="round"/><path d="M190.987 190.104 190.202 189.413" stroke="#f7f7f7" stroke-width=".533727" stroke-miterlimit="10" stroke-linecap="round" stroke-linejoin="round"/><path d="M226.174 227.555V191.119" stroke="#f7f7f7" stroke-width=".533727" stroke-miterlimit="10" stroke-linecap="round" stroke-linejoin="round"/><path d="M199.669 175.816 197.46 174.541" stroke="#f7f7f7" stroke-width=".533727" stroke-miterlimit="10" stroke-linecap="round" stroke-linejoin="round"/><path d="M231.223 230.47 226.174 227.555" stroke="#f7f7f7" stroke-width=".533727" stroke-miterlimit="10" stroke-linecap="round" stroke-linejoin="round"/><path d="M219.075 187.931 218.286 187.476" stroke="#f7f7f7" stroke-width=".533727" stroke-miterlimit="10" stroke-linecap="round" stroke-linejoin="round"/><path d="M218.286 183.285v4.19" stroke="#f7f7f7" stroke-width=".533727" stroke-miterlimit="10" stroke-linecap="round" stroke-linejoin="round"/><path d="M202.508 174.176 218.286 183.285" stroke="#f7f7f7" stroke-width=".533727" stroke-miterlimit="10" stroke-linecap="round" stroke-linejoin="round"/><path d="M226.175 191.119 219.863 187.475" stroke="#f7f7f7" stroke-width=".533727" stroke-miterlimit="10" stroke-linecap="round" stroke-linejoin="round"/><path d="M249.84 237.939l-15.778-9.108" stroke="#f7f7f7" stroke-width=".533727" stroke-miterlimit="10" stroke-linecap="round" stroke-linejoin="round"/><path d="M178.842 236.664 182.438 222.879" stroke="#f7f7f7" stroke-width=".533727" stroke-miterlimit="10" stroke-linecap="round" stroke-linejoin="round"/><path d="M182.439 222.879 183.202 223.55" stroke="#f7f7f7" stroke-width=".533727" stroke-miterlimit="10" stroke-linecap="round" stroke-linejoin="round"/><path d="M183.601 222.018 180.09 218.93" stroke="#f7f7f7" stroke-width=".533727" stroke-miterlimit="10" stroke-linecap="round" stroke-linejoin="round"/><path d="M180.09 218.93 187.362 191.052" stroke="#f7f7f7" stroke-width=".533727" stroke-miterlimit="10" stroke-linecap="round" stroke-linejoin="round"/><path d="M190.873 194.141 187.362 191.053" stroke="#f7f7f7" stroke-width=".533727" stroke-miterlimit="10" stroke-linecap="round" stroke-linejoin="round"/><path d="M191.273 192.609 190.874 194.141" stroke="#f7f7f7" stroke-width=".533727" stroke-miterlimit="10" stroke-linecap="round" stroke-linejoin="round"/><path d="M190.509 191.937 191.272 192.608" stroke="#f7f7f7" stroke-width=".533727" stroke-miterlimit="10" stroke-linecap="round" stroke-linejoin="round"/><path d="M198.091 178.184 194.62 176.18" stroke="#f7f7f7" stroke-width=".533727" stroke-miterlimit="10" stroke-linecap="round" stroke-linejoin="round"/><path d="M198.091 178.184V179.095" stroke="#f7f7f7" stroke-width=".533727" stroke-miterlimit="10" stroke-linecap="round" stroke-linejoin="round"/><path d="M199.669 180.006 198.091 179.095" stroke="#f7f7f7" stroke-width=".533727" stroke-miterlimit="10" stroke-linecap="round" stroke-linejoin="round"/><path d="M199.668 175.816 215.446 184.925" stroke="#f7f7f7" stroke-width=".533727" stroke-miterlimit="10" stroke-linecap="round" stroke-linejoin="round"/><path d="M215.445 184.925v4.19" stroke="#f7f7f7" stroke-width=".533727" stroke-miterlimit="10" stroke-linecap="round" stroke-linejoin="round"/><path d="M217.023 190.026 215.446 189.115" stroke="#f7f7f7" stroke-width=".533727" stroke-miterlimit="10" stroke-linecap="round" stroke-linejoin="round"/><path d="M217.023 189.115V190.026" stroke="#f7f7f7" stroke-width=".533727" stroke-miterlimit="10" stroke-linecap="round" stroke-linejoin="round"/><path d="M223.334 192.759 217.023 189.115" stroke="#f7f7f7" stroke-width=".533727" stroke-miterlimit="10" stroke-linecap="round" stroke-linejoin="round"/><path d="M223.334 229.195V192.759" stroke="#f7f7f7" stroke-width=".533727" stroke-miterlimit="10" stroke-linecap="round" stroke-linejoin="round"/><path d="M229.646 232.838 223.334 229.194" stroke="#f7f7f7" stroke-width=".533727" stroke-miterlimit="10" stroke-linecap="round" stroke-linejoin="round"/><path d="M229.646 232.838V233.75" stroke="#f7f7f7" stroke-width=".533727" stroke-miterlimit="10" stroke-linecap="round" stroke-linejoin="round"/><path d="M231.223 234.66 229.646 233.749" stroke="#f7f7f7" stroke-width=".533727" stroke-miterlimit="10" stroke-linecap="round" stroke-linejoin="round"/><path d="M247 239.579 231.223 230.47" stroke="#f7f7f7" stroke-width=".533727" stroke-miterlimit="10" stroke-linecap="round" stroke-linejoin="round"/><path d="M254.889 280.569l-76.047-43.905" stroke="#f7f7f7" stroke-width=".533727" stroke-miterlimit="10" stroke-linecap="round" stroke-linejoin="round"/><path d="M183.543 222.241 182.439 222.879" stroke="#f7f7f7" stroke-width=".533727" stroke-miterlimit="10" stroke-linecap="round" stroke-linejoin="round"/><path d="M190.202 189.413 187.363 191.053" stroke="#f7f7f7" stroke-width=".533727" stroke-miterlimit="10" stroke-linecap="round" stroke-linejoin="round"/><path d="M197.459 174.541 194.62 176.18" stroke="#f7f7f7" stroke-width=".533727" stroke-miterlimit="10" stroke-linecap="round" stroke-linejoin="round"/><path d="M199.669 177.273 198.091 178.185" stroke="#f7f7f7" stroke-width=".533727" stroke-miterlimit="10" stroke-linecap="round" stroke-linejoin="round"/><path d="M199.669 178.184 198.091 179.095" stroke="#f7f7f7" stroke-width=".533727" stroke-miterlimit="10" stroke-linecap="round" stroke-linejoin="round"/><path d="M202.508 174.176 199.668 175.816" stroke="#f7f7f7" stroke-width=".533727" stroke-miterlimit="10" stroke-linecap="round" stroke-linejoin="round"/><path d="M218.285 183.285 215.446 184.925" stroke="#f7f7f7" stroke-width=".533727" stroke-miterlimit="10" stroke-linecap="round" stroke-linejoin="round"/><path d="M218.285 187.475 215.446 189.115" stroke="#f7f7f7" stroke-width=".533727" stroke-miterlimit="10" stroke-linecap="round" stroke-linejoin="round"/><path d="M226.174 191.119 223.334 192.759" stroke="#f7f7f7" stroke-width=".533727" stroke-miterlimit="10" stroke-linecap="round" stroke-linejoin="round"/><path d="M226.174 227.555 223.334 229.195" stroke="#f7f7f7" stroke-width=".533727" stroke-miterlimit="10" stroke-linecap="round" stroke-linejoin="round"/><path d="M231.223 231.927 229.646 232.839" stroke="#f7f7f7" stroke-width=".533727" stroke-miterlimit="10" stroke-linecap="round" stroke-linejoin="round"/><path d="M231.223 232.838 229.646 233.75" stroke="#f7f7f7" stroke-width=".533727" stroke-miterlimit="10" stroke-linecap="round" stroke-linejoin="round"/><path d="M234.063 228.83 231.224 230.47" stroke="#f7f7f7" stroke-width=".533727" stroke-miterlimit="10" stroke-linecap="round" stroke-linejoin="round"/><path d="M183.202 223.55 183.543 222.241" stroke="#f7f7f7" stroke-width=".533727" stroke-miterlimit="10" stroke-linecap="round" stroke-linejoin="round"/><path d="M183.543 222.241 183.602 222.017" stroke="#f7f7f7" stroke-width=".533727" stroke-miterlimit="10" stroke-linecap="round" stroke-linejoin="round"/><path d="M190.509 191.937 190.987 190.104" stroke="#f7f7f7" stroke-width=".533727" stroke-miterlimit="10" stroke-linecap="round" stroke-linejoin="round"/><path d="M190.987 190.104 194.619 176.18" stroke="#f7f7f7" stroke-width=".533727" stroke-miterlimit="10" stroke-linecap="round" stroke-linejoin="round"/><path d="M199.668 178.184v1.822" stroke="#f7f7f7" stroke-width=".533727" stroke-miterlimit="10" stroke-linecap="round" stroke-linejoin="round"/><path d="M231.223 230.47v1.458" stroke="#f7f7f7" stroke-width=".533727" stroke-miterlimit="10" stroke-linecap="round" stroke-linejoin="round"/><path d="M219.864 187.475 219.075 187.931" stroke="#f7f7f7" stroke-width=".533727" stroke-miterlimit="10" stroke-linecap="round" stroke-linejoin="round"/><path d="M219.074 187.931 217.023 189.115" stroke="#f7f7f7" stroke-width=".533727" stroke-miterlimit="10" stroke-linecap="round" stroke-linejoin="round"/><path d="M199.668 175.816v1.458" stroke="#f7f7f7" stroke-width=".533727" stroke-miterlimit="10" stroke-linecap="round" stroke-linejoin="round"/><path d="M199.668 177.273V178.185" stroke="#f7f7f7" stroke-width=".533727" stroke-miterlimit="10" stroke-linecap="round" stroke-linejoin="round"/><path d="M231.223 231.927V232.839" stroke="#f7f7f7" stroke-width=".533727" stroke-miterlimit="10" stroke-linecap="round" stroke-linejoin="round"/><path d="M231.223 232.838v1.822" stroke="#f7f7f7" stroke-width=".533727" stroke-miterlimit="10" stroke-linecap="round" stroke-linejoin="round"/><path d="M194.619 245.773 178.842 236.664" stroke="#f7f7f7" stroke-width=".533727" stroke-miterlimit="10" stroke-linecap="round" stroke-linejoin="round"/><path d="M250.629 242.585 249.84 242.13" stroke="#f7f7f7" stroke-width=".533727" stroke-miterlimit="10" stroke-linecap="round" stroke-linejoin="round"/><path d="M257.729 245.773 251.418 242.129" stroke="#f7f7f7" stroke-width=".533727" stroke-miterlimit="10" stroke-linecap="round" stroke-linejoin="round"/><path d="M249.84 237.939v4.19" stroke="#f7f7f7" stroke-width=".533727" stroke-miterlimit="10" stroke-linecap="round" stroke-linejoin="round"/><path d="M247 239.579v4.191" stroke="#f7f7f7" stroke-width=".533727" stroke-miterlimit="10" stroke-linecap="round" stroke-linejoin="round"/><path d="M248.578 244.68 247 243.769" stroke="#f7f7f7" stroke-width=".533727" stroke-miterlimit="10" stroke-linecap="round" stroke-linejoin="round"/><path d="M248.578 243.769V244.68" stroke="#f7f7f7" stroke-width=".533727" stroke-miterlimit="10" stroke-linecap="round" stroke-linejoin="round"/><path d="M249.84 242.13 247 243.769" stroke="#f7f7f7" stroke-width=".533727" stroke-miterlimit="10" stroke-linecap="round" stroke-linejoin="round"/><path d="M251.419 242.129 250.629 242.585" stroke="#f7f7f7" stroke-width=".533727" stroke-miterlimit="10" stroke-linecap="round" stroke-linejoin="round"/><path d="M250.629 242.585 248.578 243.769" stroke="#f7f7f7" stroke-width=".533727" stroke-miterlimit="10" stroke-linecap="round" stroke-linejoin="round"/><path d="M286.131 74.6546 223.022 111.09v3.28L230.911 118.924 234.539 116.829 235.328 117.285V118.196L246.687 124.754V128.034L254.576 132.588l63.11-36.4357V92.8729L309.797 88.3177 306.168 90.4134 305.379 89.9574V89.047L294.02 82.4883V79.209L286.131 74.6546z" fill="#fff" fill-opacity=".1" stroke="#f7f7f7" stroke-width="1.06745" stroke-miterlimit="10"/><path d="M231.225 119.194 234.854 117.099" stroke="#f7f7f7" stroke-width=".533727" stroke-miterlimit="10" stroke-linecap="round" stroke-linejoin="round"/><path d="M286.445 74.9243 294.334 79.4787" stroke="#f7f7f7" stroke-width=".533727" stroke-miterlimit="10" stroke-linecap="round" stroke-linejoin="round"/><path d="M294.333 79.4788V82.7581" stroke="#f7f7f7" stroke-width=".533727" stroke-miterlimit="10" stroke-linecap="round" stroke-linejoin="round"/><path d="M294.334 79.4788 290.705 81.5737" stroke="#f7f7f7" stroke-width=".533727" stroke-miterlimit="10" stroke-linecap="round" stroke-linejoin="round"/><path d="M292.282 82.4848 290.705 81.5736" stroke="#f7f7f7" stroke-width=".533727" stroke-miterlimit="10" stroke-linecap="round" stroke-linejoin="round"/><path d="M293.072 82.0293 292.283 82.4845" stroke="#f7f7f7" stroke-width=".533727" stroke-miterlimit="10" stroke-linecap="round" stroke-linejoin="round"/><path d="M305.693 89.3165V90.2277" stroke="#f7f7f7" stroke-width=".533727" stroke-miterlimit="10" stroke-linecap="round" stroke-linejoin="round"/><path d="M234.853 113.82V117.099" stroke="#f7f7f7" stroke-width=".533727" stroke-miterlimit="10" stroke-linecap="round" stroke-linejoin="round"/><path d="M305.693 89.3165 304.904 89.7717" stroke="#f7f7f7" stroke-width=".533727" stroke-miterlimit="10" stroke-linecap="round" stroke-linejoin="round"/><path d="M223.335 111.36v3.28" stroke="#f7f7f7" stroke-width=".533727" stroke-miterlimit="10" stroke-linecap="round" stroke-linejoin="round"/><path d="M306.482 90.6829 310.111 88.588" stroke="#f7f7f7" stroke-width=".533727" stroke-miterlimit="10" stroke-linecap="round" stroke-linejoin="round"/><path d="M310.111 88.5878 318 93.1422" stroke="#f7f7f7" stroke-width=".533727" stroke-miterlimit="10" stroke-linecap="round" stroke-linejoin="round"/><path d="M318 93.1423v3.2794" stroke="#f7f7f7" stroke-width=".533727" stroke-miterlimit="10" stroke-linecap="round" stroke-linejoin="round"/><path d="M317.999 93.1423 254.89 129.578" stroke="#f7f7f7" stroke-width=".533727" stroke-miterlimit="10" stroke-linecap="round" stroke-linejoin="round"/><path d="M254.89 129.578v3.28" stroke="#f7f7f7" stroke-width=".533727" stroke-miterlimit="10" stroke-linecap="round" stroke-linejoin="round"/><path d="M317.999 96.4215 254.89 132.857" stroke="#f7f7f7" stroke-width=".533727" stroke-miterlimit="10" stroke-linecap="round" stroke-linejoin="round"/><path d="M235.643 118.465l11.359 6.559" stroke="#f7f7f7" stroke-width=".533727" stroke-miterlimit="10" stroke-linecap="round" stroke-linejoin="round"/><path d="M254.89 129.578 247.001 125.024" stroke="#f7f7f7" stroke-width=".533727" stroke-miterlimit="10" stroke-linecap="round" stroke-linejoin="round"/><path d="M247.001 125.024v3.279" stroke="#f7f7f7" stroke-width=".533727" stroke-miterlimit="10" stroke-linecap="round" stroke-linejoin="round"/><path d="M254.89 132.858 247.001 128.303" stroke="#f7f7f7" stroke-width=".533727" stroke-miterlimit="10" stroke-linecap="round" stroke-linejoin="round"/><path d="M231.224 115.915 223.335 111.361" stroke="#f7f7f7" stroke-width=".533727" stroke-miterlimit="10" stroke-linecap="round" stroke-linejoin="round"/><path d="M235.643 115.186 248.264 122.473" stroke="#f7f7f7" stroke-width=".533727" stroke-miterlimit="10" stroke-linecap="round" stroke-linejoin="round"/><path d="M231.225 115.915 234.854 113.82" stroke="#f7f7f7" stroke-width=".533727" stroke-miterlimit="10" stroke-linecap="round" stroke-linejoin="round"/><path d="M236.43 114.731 234.853 113.82" stroke="#f7f7f7" stroke-width=".533727" stroke-miterlimit="10" stroke-linecap="round" stroke-linejoin="round"/><path d="M235.643 115.186 236.432 114.731" stroke="#f7f7f7" stroke-width=".533727" stroke-miterlimit="10" stroke-linecap="round" stroke-linejoin="round"/><path d="M248.264 122.473 249.053 122.018" stroke="#f7f7f7" stroke-width=".533727" stroke-miterlimit="10" stroke-linecap="round" stroke-linejoin="round"/><path d="M249.053 122.018 250.63 122.929" stroke="#f7f7f7" stroke-width=".533727" stroke-miterlimit="10" stroke-linecap="round" stroke-linejoin="round"/><path d="M223.335 111.36l63.109-36.4355" stroke="#f7f7f7" stroke-width=".533727" stroke-miterlimit="10" stroke-linecap="round" stroke-linejoin="round"/><path d="M231.224 119.194 223.335 114.64" stroke="#f7f7f7" stroke-width=".533727" stroke-miterlimit="10" stroke-linecap="round" stroke-linejoin="round"/><path d="M231.225 115.915v3.279" stroke="#f7f7f7" stroke-width=".533727" stroke-miterlimit="10" stroke-linecap="round" stroke-linejoin="round"/><path d="M235.642 117.555 234.853 117.099" stroke="#f7f7f7" stroke-width=".533727" stroke-miterlimit="10" stroke-linecap="round" stroke-linejoin="round"/><path d="M249.053 122.018v1.822" stroke="#f7f7f7" stroke-width=".533727" stroke-miterlimit="10" stroke-linecap="round" stroke-linejoin="round"/><path d="M248.264 122.473v1.822" stroke="#f7f7f7" stroke-width=".533727" stroke-miterlimit="10" stroke-linecap="round" stroke-linejoin="round"/><path d="M252.208 100.703 267.985 91.594" stroke="#f7f7f7" stroke-width=".533727" stroke-miterlimit="10" stroke-linecap="round" stroke-linejoin="round"/><path d="M267.986 91.5938 271.93 93.8714" stroke="#f7f7f7" stroke-width=".533727" stroke-miterlimit="10" stroke-linecap="round" stroke-linejoin="round"/><path d="M255.048 102.342l12.937-7.4686" stroke="#f7f7f7" stroke-width=".533727" stroke-miterlimit="10" stroke-linecap="round" stroke-linejoin="round"/><path d="M267.986 94.873 269.09 95.511" stroke="#f7f7f7" stroke-width=".533727" stroke-miterlimit="10" stroke-linecap="round" stroke-linejoin="round"/><path d="M267.986 91.5938V94.8731" stroke="#f7f7f7" stroke-width=".533727" stroke-miterlimit="10" stroke-linecap="round" stroke-linejoin="round"/><path d="M293.071 82.0293 294.333 82.7578" stroke="#f7f7f7" stroke-width=".533727" stroke-miterlimit="10" stroke-linecap="round" stroke-linejoin="round"/><path d="M294.333 82.758l11.36 6.5587" stroke="#f7f7f7" stroke-width=".533727" stroke-miterlimit="10" stroke-linecap="round" stroke-linejoin="round"/><path d="M304.904 89.772 305.693 90.2272" stroke="#f7f7f7" stroke-width=".533727" stroke-miterlimit="10" stroke-linecap="round" stroke-linejoin="round"/><path d="M305.693 90.2274 306.482 90.6826" stroke="#f7f7f7" stroke-width=".533727" stroke-miterlimit="10" stroke-linecap="round" stroke-linejoin="round"/><path d="M250.63 122.929 249.053 123.84" stroke="#f7f7f7" stroke-width=".533727" stroke-miterlimit="10" stroke-linecap="round" stroke-linejoin="round"/><path d="M235.643 115.186v2.368" stroke="#f7f7f7" stroke-width=".533727" stroke-miterlimit="10" stroke-linecap="round" stroke-linejoin="round"/><path d="M235.643 117.555V118.466" stroke="#f7f7f7" stroke-width=".533727" stroke-miterlimit="10" stroke-linecap="round" stroke-linejoin="round"/><path d="M271.93 93.8711l-2.839 1.6397" stroke="#f7f7f7" stroke-width=".533727" stroke-miterlimit="10" stroke-linecap="round" stroke-linejoin="round"/><path d="M269.089 95.5107 256.152 102.98" stroke="#f7f7f7" stroke-width=".533727" stroke-miterlimit="10" stroke-linecap="round" stroke-linejoin="round"/><path d="M256.153 102.98 255.048 102.342" stroke="#f7f7f7" stroke-width=".533727" stroke-miterlimit="10" stroke-linecap="round" stroke-linejoin="round"/><path d="M255.048 102.342l-2.84-1.639" stroke="#f7f7f7" stroke-width=".533727" stroke-miterlimit="10" stroke-linecap="round" stroke-linejoin="round"/><path d="M249.053 123.84 248.264 124.295" stroke="#f7f7f7" stroke-width=".533727" stroke-miterlimit="10" stroke-linecap="round" stroke-linejoin="round"/><path d="M248.264 124.295 247.001 125.024" stroke="#f7f7f7" stroke-width=".533727" stroke-miterlimit="10" stroke-linecap="round" stroke-linejoin="round"/><path d="M202.985 62.1748 203.774 62.63V63.5412l11.359 6.5587v3.2794L223.022 77.9337l63.109-36.4368V38.2184L278.242 33.6632 274.614 35.7589 273.825 35.3029V34.3925l-11.36-6.5587V24.5544L254.576 20 191.467 56.4359v3.2794L199.356 64.2697 202.985 62.1748z" fill="#fff" fill-opacity=".1" stroke="#f7f7f7" stroke-width="1.06745" stroke-miterlimit="10"/><path d="M223.336 78.2036 215.447 73.6492" stroke="#f7f7f7" stroke-width=".533727" stroke-miterlimit="10" stroke-linecap="round" stroke-linejoin="round"/><path d="M199.671 64.54 203.3 62.4451" stroke="#f7f7f7" stroke-width=".533727" stroke-miterlimit="10" stroke-linecap="round" stroke-linejoin="round"/><path d="M254.891 20.2702 262.779 24.8246" stroke="#f7f7f7" stroke-width=".533727" stroke-miterlimit="10" stroke-linecap="round" stroke-linejoin="round"/><path d="M262.779 24.8246V28.104" stroke="#f7f7f7" stroke-width=".533727" stroke-miterlimit="10" stroke-linecap="round" stroke-linejoin="round"/><path d="M262.779 24.8246 259.15 26.9195" stroke="#f7f7f7" stroke-width=".533727" stroke-miterlimit="10" stroke-linecap="round" stroke-linejoin="round"/><path d="M260.729 27.8306 259.151 26.9194" stroke="#f7f7f7" stroke-width=".533727" stroke-miterlimit="10" stroke-linecap="round" stroke-linejoin="round"/><path d="M261.517 27.3752 260.728 27.8304" stroke="#f7f7f7" stroke-width=".533727" stroke-miterlimit="10" stroke-linecap="round" stroke-linejoin="round"/><path d="M274.139 34.6624V35.5736" stroke="#f7f7f7" stroke-width=".533727" stroke-miterlimit="10" stroke-linecap="round" stroke-linejoin="round"/><path d="M203.299 59.1657v3.2794" stroke="#f7f7f7" stroke-width=".533727" stroke-miterlimit="10" stroke-linecap="round" stroke-linejoin="round"/><path d="M274.139 34.6624 273.35 35.1176" stroke="#f7f7f7" stroke-width=".533727" stroke-miterlimit="10" stroke-linecap="round" stroke-linejoin="round"/><path d="M191.782 56.7063v3.2793" stroke="#f7f7f7" stroke-width=".533727" stroke-miterlimit="10" stroke-linecap="round" stroke-linejoin="round"/><path d="M274.928 36.0287 278.557 33.9338" stroke="#f7f7f7" stroke-width=".533727" stroke-miterlimit="10" stroke-linecap="round" stroke-linejoin="round"/><path d="M278.557 33.9337 286.446 38.488" stroke="#f7f7f7" stroke-width=".533727" stroke-miterlimit="10" stroke-linecap="round" stroke-linejoin="round"/><path d="M286.446 38.4882v3.2794" stroke="#f7f7f7" stroke-width=".533727" stroke-miterlimit="10" stroke-linecap="round" stroke-linejoin="round"/><path d="M286.445 38.4883 223.336 74.9242" stroke="#f7f7f7" stroke-width=".533727" stroke-miterlimit="10" stroke-linecap="round" stroke-linejoin="round"/><path d="M286.445 41.7675 223.336 78.2034" stroke="#f7f7f7" stroke-width=".533727" stroke-miterlimit="10" stroke-linecap="round" stroke-linejoin="round"/><path d="M204.088 63.8113l11.36 6.5587" stroke="#f7f7f7" stroke-width=".533727" stroke-miterlimit="10" stroke-linecap="round" stroke-linejoin="round"/><path d="M223.336 74.9243 215.447 70.3699" stroke="#f7f7f7" stroke-width=".533727" stroke-miterlimit="10" stroke-linecap="round" stroke-linejoin="round"/><path d="M215.447 70.3698v3.2794" stroke="#f7f7f7" stroke-width=".533727" stroke-miterlimit="10" stroke-linecap="round" stroke-linejoin="round"/><path d="M199.67 61.2607 191.782 56.7063" stroke="#f7f7f7" stroke-width=".533727" stroke-miterlimit="10" stroke-linecap="round" stroke-linejoin="round"/><path d="M204.088 60.5321l12.622 7.2871" stroke="#f7f7f7" stroke-width=".533727" stroke-miterlimit="10" stroke-linecap="round" stroke-linejoin="round"/><path d="M199.671 61.2607 203.3 59.1658" stroke="#f7f7f7" stroke-width=".533727" stroke-miterlimit="10" stroke-linecap="round" stroke-linejoin="round"/><path d="M204.876 60.0766 203.299 59.1654" stroke="#f7f7f7" stroke-width=".533727" stroke-miterlimit="10" stroke-linecap="round" stroke-linejoin="round"/><path d="M204.088 60.5321 204.877 60.0769" stroke="#f7f7f7" stroke-width=".533727" stroke-miterlimit="10" stroke-linecap="round" stroke-linejoin="round"/><path d="M216.71 67.8192 217.499 67.364" stroke="#f7f7f7" stroke-width=".533727" stroke-miterlimit="10" stroke-linecap="round" stroke-linejoin="round"/><path d="M217.499 67.3638 219.076 68.275" stroke="#f7f7f7" stroke-width=".533727" stroke-miterlimit="10" stroke-linecap="round" stroke-linejoin="round"/><path d="M191.782 56.7063l63.109-36.4359" stroke="#f7f7f7" stroke-width=".533727" stroke-miterlimit="10" stroke-linecap="round" stroke-linejoin="round"/><path d="M199.67 64.54 191.782 59.9856" stroke="#f7f7f7" stroke-width=".533727" stroke-miterlimit="10" stroke-linecap="round" stroke-linejoin="round"/><path d="M199.671 61.2608V64.5401" stroke="#f7f7f7" stroke-width=".533727" stroke-miterlimit="10" stroke-linecap="round" stroke-linejoin="round"/><path d="M204.088 62.9004 203.299 62.4452" stroke="#f7f7f7" stroke-width=".533727" stroke-miterlimit="10" stroke-linecap="round" stroke-linejoin="round"/><path d="M217.499 67.3638v1.8216" stroke="#f7f7f7" stroke-width=".533727" stroke-miterlimit="10" stroke-linecap="round" stroke-linejoin="round"/><path d="M216.71 67.8192v1.8216" stroke="#f7f7f7" stroke-width=".533727" stroke-miterlimit="10" stroke-linecap="round" stroke-linejoin="round"/><path d="M220.654 46.0487l15.777-9.1088" stroke="#f7f7f7" stroke-width=".533727" stroke-miterlimit="10" stroke-linecap="round" stroke-linejoin="round"/><path d="M236.432 36.9396 240.376 39.2172" stroke="#f7f7f7" stroke-width=".533727" stroke-miterlimit="10" stroke-linecap="round" stroke-linejoin="round"/><path d="M223.494 47.6883l12.937-7.4691" stroke="#f7f7f7" stroke-width=".533727" stroke-miterlimit="10" stroke-linecap="round" stroke-linejoin="round"/><path d="M236.432 40.2189 237.536 40.8568" stroke="#f7f7f7" stroke-width=".533727" stroke-miterlimit="10" stroke-linecap="round" stroke-linejoin="round"/><path d="M236.432 36.9397v3.2794" stroke="#f7f7f7" stroke-width=".533727" stroke-miterlimit="10" stroke-linecap="round" stroke-linejoin="round"/><path d="M261.518 27.3752l1.262.7285" stroke="#f7f7f7" stroke-width=".533727" stroke-miterlimit="10" stroke-linecap="round" stroke-linejoin="round"/><path d="M262.779 28.1039l11.36 6.5588" stroke="#f7f7f7" stroke-width=".533727" stroke-miterlimit="10" stroke-linecap="round" stroke-linejoin="round"/><path d="M273.351 35.1178 274.14 35.573" stroke="#f7f7f7" stroke-width=".533727" stroke-miterlimit="10" stroke-linecap="round" stroke-linejoin="round"/><path d="M274.139 35.5732 274.928 36.0284" stroke="#f7f7f7" stroke-width=".533727" stroke-miterlimit="10" stroke-linecap="round" stroke-linejoin="round"/><path d="M219.076 68.2747 217.499 69.1859" stroke="#f7f7f7" stroke-width=".533727" stroke-miterlimit="10" stroke-linecap="round" stroke-linejoin="round"/><path d="M204.088 60.5321v2.3681" stroke="#f7f7f7" stroke-width=".533727" stroke-miterlimit="10" stroke-linecap="round" stroke-linejoin="round"/><path d="M204.088 62.9004V63.8116" stroke="#f7f7f7" stroke-width=".533727" stroke-miterlimit="10" stroke-linecap="round" stroke-linejoin="round"/><path d="M240.376 39.217l-2.839 1.6397" stroke="#f7f7f7" stroke-width=".533727" stroke-miterlimit="10" stroke-linecap="round" stroke-linejoin="round"/><path d="M237.536 40.8566l-12.937 7.4691" stroke="#f7f7f7" stroke-width=".533727" stroke-miterlimit="10" stroke-linecap="round" stroke-linejoin="round"/><path d="M224.598 48.326 223.494 47.688" stroke="#f7f7f7" stroke-width=".533727" stroke-miterlimit="10" stroke-linecap="round" stroke-linejoin="round"/><path d="M223.494 47.6883l-2.84-1.6397" stroke="#f7f7f7" stroke-width=".533727" stroke-miterlimit="10" stroke-linecap="round" stroke-linejoin="round"/><path d="M217.499 69.1856 216.709 69.6408" stroke="#f7f7f7" stroke-width=".533727" stroke-miterlimit="10" stroke-linecap="round" stroke-linejoin="round"/><path d="M216.709 69.641 215.447 70.3695" stroke="#f7f7f7" stroke-width=".533727" stroke-miterlimit="10" stroke-linecap="round" stroke-linejoin="round"/><path d="M223.336 74.9243v3.2794" stroke="#f7f7f7" stroke-width=".533727" stroke-miterlimit="10" stroke-linecap="round" stroke-linejoin="round"/><path d="M181.856 147.372 185.852 132.055 183.89 130.328l5.994-22.979L189.339 106.869 189.495 106.272 193.124 104.177 197.411 87.7396 194.664 85.323l-63.109 36.436L127.268 138.197 129.229 139.922 123.235 162.903 123.78 163.382 123.624 163.979l-3.628 2.095L116 181.391l2.747 2.417 63.109-36.436z" fill="#fff" fill-opacity=".1" stroke="#f7f7f7" stroke-width="1.06745" stroke-miterlimit="10"/><path d="M132.665 139.534 133.557 140.32" stroke="#f7f7f7" stroke-width=".533727" stroke-miterlimit="10" stroke-linecap="round" stroke-linejoin="round"/><path d="M133.558 140.32 133.957 138.788" stroke="#f7f7f7" stroke-width=".533727" stroke-miterlimit="10" stroke-linecap="round" stroke-linejoin="round"/><path d="M131.875 139.99 132.768 140.775" stroke="#f7f7f7" stroke-width=".533727" stroke-miterlimit="10" stroke-linecap="round" stroke-linejoin="round"/><path d="M127.582 138.467 131.869 122.029" stroke="#f7f7f7" stroke-width=".533727" stroke-miterlimit="10" stroke-linecap="round" stroke-linejoin="round"/><path d="M130.328 140.883 134.616 124.445" stroke="#f7f7f7" stroke-width=".533727" stroke-miterlimit="10" stroke-linecap="round" stroke-linejoin="round"/><path d="M134.616 124.446 131.868 122.029" stroke="#f7f7f7" stroke-width=".533727" stroke-miterlimit="10" stroke-linecap="round" stroke-linejoin="round"/><path d="M131.868 122.029l63.109-36.436" stroke="#f7f7f7" stroke-width=".533727" stroke-miterlimit="10" stroke-linecap="round" stroke-linejoin="round"/><path d="M123.549 163.173l5.994-22.981" stroke="#f7f7f7" stroke-width=".533727" stroke-miterlimit="10" stroke-linecap="round" stroke-linejoin="round"/><path d="M126.296 165.589l6.473-24.814" stroke="#f7f7f7" stroke-width=".533727" stroke-miterlimit="10" stroke-linecap="round" stroke-linejoin="round"/><path d="M123.938 164.249l2.747 2.417" stroke="#f7f7f7" stroke-width=".533727" stroke-miterlimit="10" stroke-linecap="round" stroke-linejoin="round"/><path d="M132.769 140.775 133.558 140.32" stroke="#f7f7f7" stroke-width=".533727" stroke-miterlimit="10" stroke-linecap="round" stroke-linejoin="round"/><path d="M126.296 165.589 127.085 165.134" stroke="#f7f7f7" stroke-width=".533727" stroke-miterlimit="10" stroke-linecap="round" stroke-linejoin="round"/><path d="M124.093 163.652 123.937 164.249" stroke="#f7f7f7" stroke-width=".533727" stroke-miterlimit="10" stroke-linecap="round" stroke-linejoin="round"/><path d="M127.084 165.134 126.685 166.665" stroke="#f7f7f7" stroke-width=".533727" stroke-miterlimit="10" stroke-linecap="round" stroke-linejoin="round"/><path d="M120.31 166.344l2.747 2.417" stroke="#f7f7f7" stroke-width=".533727" stroke-miterlimit="10" stroke-linecap="round" stroke-linejoin="round"/><path d="M197.725 88.0095 193.437 104.448" stroke="#f7f7f7" stroke-width=".533727" stroke-miterlimit="10" stroke-linecap="round" stroke-linejoin="round"/><path d="M197.726 88.0095 194.979 85.5928" stroke="#f7f7f7" stroke-width=".533727" stroke-miterlimit="10" stroke-linecap="round" stroke-linejoin="round"/><path d="M123.057 168.761 126.686 166.666" stroke="#f7f7f7" stroke-width=".533727" stroke-miterlimit="10" stroke-linecap="round" stroke-linejoin="round"/><path d="M120.31 166.344l3.628-2.095" stroke="#f7f7f7" stroke-width=".533727" stroke-miterlimit="10" stroke-linecap="round" stroke-linejoin="round"/><path d="M184.204 130.599 186.166 132.325" stroke="#f7f7f7" stroke-width=".533727" stroke-miterlimit="10" stroke-linecap="round" stroke-linejoin="round"/><path d="M186.166 132.325 182.17 147.642" stroke="#f7f7f7" stroke-width=".533727" stroke-miterlimit="10" stroke-linecap="round" stroke-linejoin="round"/><path d="M134.616 124.446l63.109-36.4364" stroke="#f7f7f7" stroke-width=".533727" stroke-miterlimit="10" stroke-linecap="round" stroke-linejoin="round"/><path d="M189.808 106.542 193.437 104.447" stroke="#f7f7f7" stroke-width=".533727" stroke-miterlimit="10" stroke-linecap="round" stroke-linejoin="round"/><path d="M183.726 132.432 182.937 132.888" stroke="#f7f7f7" stroke-width=".533727" stroke-miterlimit="10" stroke-linecap="round" stroke-linejoin="round"/><path d="M189.653 107.139 190.198 107.619" stroke="#f7f7f7" stroke-width=".533727" stroke-miterlimit="10" stroke-linecap="round" stroke-linejoin="round"/><path d="M186.165 132.325 182.537 134.42" stroke="#f7f7f7" stroke-width=".533727" stroke-miterlimit="10" stroke-linecap="round" stroke-linejoin="round"/><path d="M190.198 107.618 189.409 108.074" stroke="#f7f7f7" stroke-width=".533727" stroke-miterlimit="10" stroke-linecap="round" stroke-linejoin="round"/><path d="M182.936 132.888 182.537 134.419" stroke="#f7f7f7" stroke-width=".533727" stroke-miterlimit="10" stroke-linecap="round" stroke-linejoin="round"/><path d="M127.582 138.467 129.544 140.193" stroke="#f7f7f7" stroke-width=".533727" stroke-miterlimit="10" stroke-linecap="round" stroke-linejoin="round"/><path d="M129.542 140.192 130.328 140.883" stroke="#f7f7f7" stroke-width=".533727" stroke-miterlimit="10" stroke-linecap="round" stroke-linejoin="round"/><path d="M123.549 163.173 124.094 163.652" stroke="#f7f7f7" stroke-width=".533727" stroke-miterlimit="10" stroke-linecap="round" stroke-linejoin="round"/><path d="M124.093 163.652 126.296 165.589" stroke="#f7f7f7" stroke-width=".533727" stroke-miterlimit="10" stroke-linecap="round" stroke-linejoin="round"/><path d="M133.957 138.788 132.665 139.534" stroke="#f7f7f7" stroke-width=".533727" stroke-miterlimit="10" stroke-linecap="round" stroke-linejoin="round"/><path d="M189.409 108.074 189.653 107.139" stroke="#f7f7f7" stroke-width=".533727" stroke-miterlimit="10" stroke-linecap="round" stroke-linejoin="round"/><path d="M189.653 107.139 189.809 106.542" stroke="#f7f7f7" stroke-width=".533727" stroke-miterlimit="10" stroke-linecap="round" stroke-linejoin="round"/><path d="M183.726 132.433 184.204 130.599" stroke="#f7f7f7" stroke-width=".533727" stroke-miterlimit="10" stroke-linecap="round" stroke-linejoin="round"/><path d="M184.204 130.599l5.994-22.981" stroke="#f7f7f7" stroke-width=".533727" stroke-miterlimit="10" stroke-linecap="round" stroke-linejoin="round"/><path d="M132.665 139.534 131.875 139.99" stroke="#f7f7f7" stroke-width=".533727" stroke-miterlimit="10" stroke-linecap="round" stroke-linejoin="round"/><path d="M131.876 139.99 130.328 140.883" stroke="#f7f7f7" stroke-width=".533727" stroke-miterlimit="10" stroke-linecap="round" stroke-linejoin="round"/><path d="M119.06 184.078l-2.747-2.417" stroke="#f7f7f7" stroke-width=".533727" stroke-miterlimit="10" stroke-linecap="round" stroke-linejoin="round"/><path d="M116.313 181.661l3.996-15.317" stroke="#f7f7f7" stroke-width=".533727" stroke-miterlimit="10" stroke-linecap="round" stroke-linejoin="round"/><path d="M119.061 184.078l3.996-15.317" stroke="#f7f7f7" stroke-width=".533727" stroke-miterlimit="10" stroke-linecap="round" stroke-linejoin="round"/><path d="M182.17 147.642l-63.109 36.436" stroke="#f7f7f7" stroke-width=".533727" stroke-miterlimit="10" stroke-linecap="round" stroke-linejoin="round"/><path d="M118.547 184.737l59.817 51.222" stroke="#f7f7f7" stroke-width=".533727" stroke-miterlimit="10" stroke-dasharray="3.21 2.14"/><path d="M209.767 67.0024V179.095" stroke="#f7f7f7" stroke-width=".533727" stroke-miterlimit="10" stroke-dasharray="3.21 2.14"/><path d="M269.958 50.8354V82.7582" stroke="#f7f7f7" stroke-width=".533727" stroke-miterlimit="10" stroke-dasharray="3.21 2.14"/><path d="M241.321 121.657V232.839" stroke="#f7f7f7" stroke-width=".533727" stroke-miterlimit="10" stroke-dasharray="3.21 2.14"/><path d="M134.49 124.689l59.817 51.222" stroke="#f7f7f7" stroke-width=".533727" stroke-miterlimit="10" stroke-dasharray="3.21 2.14"/></svg>