<svg width="461" height="2467" viewBox="0 0 461 2467" fill="none" xmlns="http://www.w3.org/2000/svg"><circle cx="230.165" cy="230.165" r="230.165" fill="#02cc64"/><path d="M193.388 561.144C192.319 561.144 191.382 561.005 190.578 560.726 189.775 560.453 189.097 560.079 188.545 559.602 187.994 559.125 187.564 558.59 187.258 557.998L188.75 557.017C188.974 557.412 189.274 557.8 189.649 558.182 190.03 558.563 190.524 558.88 191.13 559.132 191.743 559.384 192.496 559.51 193.388 559.51 194.778 559.51 195.898 559.162 196.749 558.468 197.608 557.773 198.037 556.693 198.037 555.229V551.694H197.873C197.662 552.171 197.359 552.647 196.964 553.124 196.569 553.594 196.051 553.986 195.411 554.299 194.778 554.612 193.991 554.769 193.051 554.769 191.798 554.769 190.684 554.459 189.71 553.839 188.743 553.22 187.98 552.334 187.421 551.183 186.87 550.025 186.594 548.646 186.594 547.045 186.594 545.458 186.863 544.062 187.401 542.856 187.946 541.651 188.705 540.711 189.679 540.036 190.653 539.362 191.787 539.025 193.082 539.025 194.042 539.025 194.839 539.195 195.472 539.536 196.106 539.87 196.613 540.285 196.995 540.782 197.383 541.28 197.686 541.763 197.904 542.233H198.088V539.24H199.866v16.101C199.866 556.669 199.583 557.763 199.018 558.621 198.452 559.479 197.683 560.113 196.709 560.521 195.735 560.937 194.628 561.144 193.388 561.144zM193.265 553.104C194.273 553.104 195.135 552.862 195.85 552.378 196.565 551.888 197.114 551.186 197.495 550.274 197.877 549.361 198.067 548.275 198.067 547.015 198.067 545.789 197.88 544.702 197.505 543.755 197.131 542.802 196.586 542.053 195.871 541.508 195.162 540.956 194.294 540.68 193.265 540.68 192.217 540.68 191.331 540.963 190.609 541.528 189.887 542.093 189.342 542.856 188.974 543.817 188.607 544.77 188.423 545.836 188.423 547.015 188.423 548.213 188.61 549.272 188.985 550.192 189.359 551.105 189.907 551.82 190.629 552.338 191.351 552.848 192.23 553.104 193.265 553.104zM214.652 548.935V539.24H216.47v15.693H214.652V552.327H214.509C214.141 553.131 213.559 553.802 212.762 554.34 211.965 554.871 210.991 555.137 209.84 555.137 208.838 555.137 207.95 554.919 207.173 554.483 206.397 554.04 205.787 553.393 205.344 552.542 204.902 551.69 204.68 550.645 204.68 549.405V539.24H206.499v10.053C206.499 550.519 206.86 551.507 207.582 552.256 208.304 552.998 209.23 553.369 210.361 553.369 211.069 553.369 211.75 553.199 212.404 552.859 213.058 552.518 213.596 552.021 214.018 551.367 214.441 550.706 214.652 549.896 214.652 548.935zM221.306 554.933V539.24H223.134v15.693H221.306zM222.235 536.542C221.861 536.542 221.541 536.416 221.275 536.164 221.009 535.905 220.876 535.596 220.876 535.235S221.009 534.567 221.275 534.315C221.541 534.056 221.861 533.927 222.235 533.927 222.61 533.927 222.93 534.056 223.196 534.315 223.461 534.567 223.594 534.874 223.594 535.235S223.461 535.905 223.196 536.164C222.93 536.416 222.61 536.542 222.235 536.542zm11.359 18.718C232.307 555.26 231.179 554.919 230.212 554.238 229.245 553.557 228.489 552.607 227.944 551.387 227.406 550.168 227.137 548.748 227.137 547.127 227.137 545.513 227.406 544.099 227.944 542.887 228.489 541.668 229.248 540.721 230.222 540.047 231.196 539.366 232.33 539.025 233.625 539.025 234.578 539.025 235.372 539.195 236.005 539.536 236.639 539.87 237.146 540.285 237.527 540.782 237.909 541.28 238.205 541.763 238.416 542.233H238.58V534.009H240.409v20.924H238.631V552.021H238.416C238.205 552.498 237.905 552.988 237.517 553.492 237.129 553.989 236.615 554.408 235.974 554.749 235.341 555.089 234.547 555.26 233.594 555.26zM233.808 553.594C234.823 553.594 235.688 553.318 236.404 552.767 237.119 552.208 237.664 551.442 238.038 550.468 238.42 549.487 238.61 548.363 238.61 547.096 238.61 545.843 238.423 544.736 238.048 543.776 237.674 542.809 237.129 542.053 236.414 541.508 235.699 540.956 234.83 540.68 233.808 540.68 232.76 540.68 231.874 540.966 231.152 541.538 230.437 542.104 229.892 542.87 229.517 543.837 229.15 544.804 228.966 545.891 228.966 547.096 228.966 548.316 229.153 549.416 229.528 550.396 229.902 551.377 230.447 552.157 231.162 552.736 231.884 553.308 232.766 553.594 233.808 553.594zM251.933 555.26C250.469 555.26 249.202 554.919 248.132 554.238 247.063 553.55 246.236 552.6 245.65 551.387 245.071 550.168 244.781 548.765 244.781 547.178 244.781 545.598 245.071 544.195 245.65 542.969 246.236 541.736 247.043 540.772 248.071 540.077 249.106 539.376 250.302 539.025 251.657 539.025 252.509 539.025 253.329 539.182 254.12 539.495 254.91 539.801 255.618 540.275 256.245 540.915 256.878 541.549 257.379 542.349 257.747 543.316 258.114 544.276 258.298 545.414 258.298 546.728V547.628h-12.26V546.024h10.401C256.439 545.015 256.234 544.11 255.826 543.306 255.424 542.495 254.862 541.855 254.14 541.385 253.425 540.915 252.597 540.68 251.657 540.68 250.663 540.68 249.788 540.946 249.032 541.477 248.275 542.008 247.683 542.71 247.254 543.582 246.832 544.454 246.617 545.407 246.61 546.442V547.403C246.61 548.649 246.825 549.739 247.254 550.672 247.69 551.599 248.306 552.317 249.103 552.828 249.9 553.339 250.843 553.594 251.933 553.594 252.676 553.594 253.326 553.478 253.885 553.247 254.45 553.015 254.923 552.705 255.305 552.317 255.693 551.922 255.986 551.49 256.183 551.02L257.91 551.581C257.672 552.242 257.28 552.852 256.735 553.41 256.197 553.969 255.523 554.418 254.712 554.759 253.908 555.093 252.982 555.26 251.933 555.26zm20.917-12.577L271.184 543.153C271.021 542.683 270.789 542.257 270.489 541.875 270.19 541.494 269.798 541.191 269.315 540.966 268.838 540.741 268.245 540.629 267.537 540.629 266.474 540.629 265.602 540.881 264.921 541.385S263.9 542.54 263.9 543.336C263.9 544.011 264.131 544.559 264.594 544.981 265.064 545.397 265.786 545.727 266.76 545.972L269.131 546.555C270.445 546.875 271.429 547.382 272.083 548.077 272.744 548.772 273.074 549.644 273.074 550.693 273.074 551.578 272.829 552.365 272.339 553.053 271.848 553.741 271.164 554.282 270.285 554.677 269.413 555.065 268.402 555.26 267.251 555.26 265.718 555.26 264.455 554.916 263.46 554.228 262.466 553.533 261.829 552.532 261.55 551.224L263.297 550.795C263.522 551.728 263.961 552.433 264.615 552.91 265.275 553.386 266.144 553.625 267.22 553.625 268.426 553.625 269.389 553.356 270.111 552.818 270.833 552.273 271.194 551.592 271.194 550.774 271.194 550.141 270.983 549.61 270.561 549.181 270.139 548.745 269.498 548.424 268.64 548.22L266.076 547.607C264.714 547.28 263.705 546.763 263.052 546.054 262.398 545.346 262.071 544.467 262.071 543.418 262.071 542.553 262.306 541.794 262.776 541.14 263.246 540.479 263.893 539.962 264.717 539.587S266.481 539.025 267.537 539.025C268.974 539.025 270.122 539.352 270.98 540.006 271.845 540.653 272.468 541.545 272.85 542.683z" fill="#000"/><ellipse cx="230.206" cy="865.098" rx="229.206" ry="230.165" fill="#0595e6"/><path d="M188.779 1188.95V1168.02H190.608V1176.25H190.771C190.976 1175.78 191.268 1175.29 191.65 1174.8 192.038 1174.3 192.546 1173.88 193.172 1173.55 193.806 1173.21 194.603 1173.04 195.563 1173.04 196.85 1173.04 197.981 1173.38 198.955 1174.06 199.929 1174.73 200.688 1175.68 201.233 1176.9 201.778 1178.11 202.051 1179.53 202.051 1181.14 202.051 1182.76 201.778 1184.18 201.233 1185.4 200.695 1186.62 199.939 1187.57 198.965 1188.25 197.998 1188.93 196.874 1189.27 195.594 1189.27 194.64 1189.27 193.843 1189.1 193.203 1188.76 192.569 1188.42 192.059 1188 191.67 1187.51 191.282 1187 190.982 1186.51 190.771 1186.03H190.546V1188.95h-1.767zM190.577 1181.11C190.577 1182.38 190.764 1183.5 191.139 1184.48 191.521 1185.46 192.065 1186.22 192.774 1186.78 193.489 1187.33 194.354 1187.61 195.369 1187.61 196.411 1187.61 197.293 1187.32 198.015 1186.75 198.737 1186.17 199.285 1185.39 199.66 1184.41S200.222 1182.33 200.222 1181.11C200.222 1179.9 200.035 1178.82 199.66 1177.85 199.292 1176.88 198.747 1176.12 198.025 1175.55S196.418 1174.69 195.369 1174.69C194.347 1174.69 193.479 1174.97 192.764 1175.52 192.055 1176.07 191.514 1176.82 191.139 1177.79 190.764 1178.75 190.577 1179.86 190.577 1181.11zM207.864 1168.02V1188.95H206.045V1168.02H207.864zm10.912 21.25C217.42 1189.27 216.221 1188.93 215.179 1188.24 214.144 1187.55 213.333 1186.6 212.748 1185.39 212.162 1184.17 211.869 1182.77 211.869 1181.17 211.869 1179.56 212.162 1178.15 212.748 1176.93 213.333 1175.71 214.144 1174.75 215.179 1174.07 216.221 1173.38 217.42 1173.04 218.776 1173.04 220.131 1173.04 221.326 1173.38 222.362 1174.07 223.397 1174.76 224.208 1175.71 224.793 1176.93 225.386 1178.15 225.682 1179.56 225.682 1181.17 225.682 1182.77 225.389 1184.17 224.804 1185.39 224.218 1186.6 223.404 1187.55 222.362 1188.24 221.326 1188.93 220.131 1189.27 218.776 1189.27zM218.776 1187.61C219.865 1187.61 220.788 1187.32 221.544 1186.73S222.873 1185.36 223.261 1184.39C223.656 1183.42 223.853 1182.34 223.853 1181.17 223.853 1180 223.656 1178.92 223.261 1177.94 222.873 1176.96 222.3 1176.18 221.544 1175.58 220.788 1174.99 219.865 1174.69 218.776 1174.69 217.693 1174.69 216.77 1174.99 216.007 1175.58 215.251 1176.18 214.675 1176.96 214.28 1177.94 213.892 1178.92 213.698 1180 213.698 1181.17 213.698 1182.34 213.892 1183.42 214.28 1184.39 214.675 1185.36 215.251 1186.14 216.007 1186.73S217.686 1187.61 218.776 1187.61zM235.805 1189.27C234.401 1189.27 233.179 1188.92 232.137 1188.22 231.101 1187.52 230.298 1186.56 229.726 1185.34 229.153 1184.12 228.867 1182.73 228.867 1181.17 228.867 1179.6 229.157 1178.2 229.736 1176.97 230.322 1175.75 231.132 1174.79 232.167 1174.09 233.203 1173.39 234.405 1173.04 235.774 1173.04 236.823 1173.04 237.773 1173.24 238.624 1173.65 239.476 1174.05 240.177 1174.62 240.729 1175.36 241.288 1176.09 241.638 1176.94 241.781 1177.91h-1.839C239.752 1177.03 239.292 1176.27 238.563 1175.64 237.841 1175.01 236.922 1174.69 235.805 1174.69 234.803 1174.69 233.918 1174.97 233.148 1175.51 232.379 1176.05 231.776 1176.8 231.34 1177.77 230.911 1178.73 230.696 1179.84 230.696 1181.11 230.696 1182.38 230.907 1183.51 231.33 1184.49 231.752 1185.47 232.344 1186.23 233.107 1186.78 233.877 1187.33 234.776 1187.61 235.805 1187.61 236.499 1187.61 237.133 1187.48 237.705 1187.22 238.284 1186.95 238.767 1186.58 239.156 1186.1 239.551 1185.61 239.816 1185.04 239.953 1184.37h1.839C241.655 1185.32 241.318 1186.16 240.78 1186.9 240.249 1187.64 239.558 1188.22 238.706 1188.64 237.862 1189.06 236.894 1189.27 235.805 1189.27zm11.54-6.25L247.324 1180.64H247.733L255.089 1173.25H257.388L250.123 1180.53 249.96 1180.56 247.345 1183.02zM245.689 1188.95V1168.02H247.508V1188.95H245.689zM255.467 1188.95 249.092 1180.89 250.399 1179.63 257.796 1188.95H255.467zm15.882-12.25L269.684 1177.17C269.52 1176.7 269.289 1176.27 268.989 1175.89 268.689 1175.51 268.298 1175.2 267.814 1174.98 267.337 1174.76 266.745 1174.64 266.036 1174.64 264.974 1174.64 264.102 1174.89 263.421 1175.4 262.74 1175.9 262.399 1176.55 262.399 1177.35 262.399 1178.02 262.631 1178.57 263.094 1179 263.564 1179.41 264.286 1179.74 265.26 1179.99L267.63 1180.57C268.945 1180.89 269.929 1181.4 270.583 1182.09 271.243 1182.79 271.574 1183.66 271.574 1184.71 271.574 1185.59 271.329 1186.38 270.838 1187.07 270.348 1187.75 269.663 1188.3 268.785 1188.69 267.913 1189.08 266.901 1189.27 265.75 1189.27 264.218 1189.27 262.954 1188.93 261.96 1188.24 260.965 1187.55 260.328 1186.55 260.049 1185.24L261.796 1184.81C262.021 1185.74 262.46 1186.45 263.114 1186.92 263.775 1187.4 264.643 1187.64 265.72 1187.64 266.925 1187.64 267.889 1187.37 268.611 1186.83 269.333 1186.29 269.694 1185.61 269.694 1184.79 269.694 1184.15 269.483 1183.62 269.06 1183.19 268.638 1182.76 267.998 1182.44 267.14 1182.23L264.575 1181.62C263.213 1181.29 262.205 1180.78 261.551 1180.07S260.57 1178.48 260.57 1177.43C260.57 1176.57 260.805 1175.81 261.275 1175.15 261.745 1174.49 262.392 1173.98 263.216 1173.6 264.041 1173.23 264.98 1173.04 266.036 1173.04 267.473 1173.04 268.621 1173.37 269.479 1174.02 270.344 1174.67 270.968 1175.56 271.349 1176.7z" fill="#000"/><circle cx="230.165" cy="1498.39" r="230.165" fill="#f04924"/><path d="M205.582 1808.47V1810.05h-7.489V1808.47h7.489zM200.433 1804.71H202.262V1820.06C202.262 1820.72 202.374 1821.23 202.599 1821.6 202.824 1821.97 203.116 1822.23 203.477 1822.39 203.838 1822.54 204.223 1822.62 204.632 1822.62 204.87 1822.62 205.075 1822.6 205.245 1822.57 205.415 1822.54 205.565 1822.51 205.695 1822.47L206.083 1824.12C205.906 1824.19 205.688 1824.25 205.429 1824.3 205.17 1824.36 204.85 1824.39 204.469 1824.39 203.801 1824.39 203.157 1824.25 202.538 1823.95 201.925 1823.66 201.42 1823.22 201.025 1822.65 200.63 1822.07 200.433 1821.35 200.433 1820.49v-15.78zm15.21 19.78C214.288 1824.49 213.089 1824.14 212.047 1823.45 211.012 1822.77 210.201 1821.82 209.615 1820.6 209.029 1819.38 208.737 1817.98 208.737 1816.38 208.737 1814.78 209.029 1813.36 209.615 1812.14 210.201 1810.92 211.012 1809.96 212.047 1809.28 213.089 1808.59 214.288 1808.25 215.643 1808.25 216.999 1808.25 218.194 1808.59 219.229 1809.28 220.265 1809.97 221.075 1810.92 221.661 1812.14 222.253 1813.36 222.55 1814.78 222.55 1816.38 222.55 1817.98 222.257 1819.38 221.671 1820.6 221.085 1821.82 220.271 1822.77 219.229 1823.45 218.194 1824.14 216.999 1824.49 215.643 1824.49zM215.643 1822.82C216.733 1822.82 217.656 1822.53 218.412 1821.94 219.168 1821.36 219.74 1820.58 220.128 1819.6 220.523 1818.63 220.721 1817.55 220.721 1816.38 220.721 1815.21 220.523 1814.14 220.128 1813.15 219.74 1812.17 219.168 1811.39 218.412 1810.79 217.656 1810.2 216.733 1809.91 215.643 1809.91 214.56 1809.91 213.637 1810.2 212.874 1810.79 212.118 1811.39 211.543 1812.17 211.148 1813.15 210.76 1814.14 210.565 1815.21 210.565 1816.38 210.565 1817.55 210.76 1818.63 211.148 1819.6 211.543 1820.58 212.118 1821.36 212.874 1821.94 213.63 1822.53 214.553 1822.82 215.643 1822.82zM232.641 1824.49C231.286 1824.49 230.087 1824.14 229.045 1823.45 228.01 1822.77 227.199 1821.82 226.614 1820.6 226.028 1819.38 225.735 1817.98 225.735 1816.38 225.735 1814.78 226.028 1813.36 226.614 1812.14 227.199 1810.92 228.01 1809.96 229.045 1809.28 230.087 1808.59 231.286 1808.25 232.641 1808.25 233.997 1808.25 235.192 1808.59 236.228 1809.28 237.263 1809.97 238.073 1810.92 238.659 1812.14 239.252 1813.36 239.548 1814.78 239.548 1816.38 239.548 1817.98 239.255 1819.38 238.669 1820.6 238.084 1821.82 237.27 1822.77 236.228 1823.45 235.192 1824.14 233.997 1824.49 232.641 1824.49zM232.641 1822.82C233.731 1822.82 234.654 1822.53 235.41 1821.94 236.166 1821.36 236.738 1820.58 237.127 1819.6 237.522 1818.63 237.719 1817.55 237.719 1816.38 237.719 1815.21 237.522 1814.14 237.127 1813.15 236.738 1812.17 236.166 1811.39 235.41 1810.79 234.654 1810.2 233.731 1809.91 232.641 1809.91 231.558 1809.91 230.636 1810.2 229.873 1810.79 229.117 1811.39 228.541 1812.17 228.146 1813.15 227.758 1814.14 227.564 1815.21 227.564 1816.38 227.564 1817.55 227.758 1818.63 228.146 1819.6 228.541 1820.58 229.117 1821.36 229.873 1821.94 230.629 1822.53 231.552 1822.82 232.641 1822.82zM245.359 1803.23V1824.16H243.54V1803.23H245.359zM260.715 1811.91 259.049 1812.38C258.886 1811.91 258.654 1811.48 258.355 1811.1 258.055 1810.72 257.663 1810.42 257.18 1810.19 256.703 1809.97 256.11 1809.85 255.402 1809.85 254.34 1809.85 253.468 1810.11 252.787 1810.61 252.105 1811.11 251.765 1811.77 251.765 1812.56 251.765 1813.24 251.996 1813.78 252.46 1814.21 252.93 1814.62 253.652 1814.95 254.626 1815.2L256.996 1815.78C258.31 1816.1 259.295 1816.61 259.949 1817.3 260.609 1818 260.94 1818.87 260.94 1819.92 260.94 1820.8 260.694 1821.59 260.204 1822.28S259.029 1823.51 258.15 1823.9C257.279 1824.29 256.267 1824.49 255.116 1824.49 253.583 1824.49 252.32 1824.14 251.326 1823.45 250.331 1822.76 249.694 1821.76 249.415 1820.45L251.162 1820.02C251.387 1820.95 251.826 1821.66 252.48 1822.14 253.141 1822.61 254.009 1822.85 255.085 1822.85 256.291 1822.85 257.255 1822.58 257.977 1822.04 258.699 1821.5 259.06 1820.82 259.06 1820 259.06 1819.37 258.849 1818.84 258.426 1818.41 258.004 1817.97 257.364 1817.65 256.505 1817.45L253.941 1816.83C252.579 1816.51 251.571 1815.99 250.917 1815.28S249.936 1813.69 249.936 1812.64C249.936 1811.78 250.171 1811.02 250.641 1810.37 251.111 1809.7 251.758 1809.19 252.582 1808.81 253.406 1808.44 254.346 1808.25 255.402 1808.25 256.839 1808.25 257.987 1808.58 258.845 1809.23 259.71 1809.88 260.333 1810.77 260.715 1811.91z" fill="#000"/><ellipse cx="230.206" cy="2133.6" rx="229.206" ry="230.165" fill="#777"/><path d="M134.945 2444.2 133.279 2444.67C133.116 2444.2 132.884 2443.78 132.585 2443.39 132.285 2443.01 131.893 2442.71 131.41 2442.48 130.933 2442.26 130.34 2442.15 129.632 2442.15 128.569 2442.15 127.698 2442.4 127.016 2442.9 126.335 2443.41 125.995 2444.06 125.995 2444.85 125.995 2445.53 126.226 2446.08 126.69 2446.5 127.16 2446.92 127.881 2447.25 128.856 2447.49L131.226 2448.07C132.54 2448.39 133.525 2448.9 134.178 2449.6 134.839 2450.29 135.17 2451.16 135.17 2452.21 135.17 2453.1 134.924 2453.88 134.434 2454.57 133.943 2455.26 133.259 2455.8 132.38 2456.2 131.508 2456.58 130.497 2456.78 129.346 2456.78 127.813 2456.78 126.55 2456.43 125.555 2455.75 124.561 2455.05 123.924 2454.05 123.645 2452.74L125.392 2452.31C125.617 2453.25 126.056 2453.95 126.71 2454.43 127.371 2454.9 128.239 2455.14 129.315 2455.14 130.521 2455.14 131.485 2454.87 132.207 2454.34 132.929 2453.79 133.29 2453.11 133.29 2452.29 133.29 2451.66 133.078 2451.13 132.656 2450.7 132.234 2450.26 131.594 2449.94 130.735 2449.74L128.171 2449.13C126.809 2448.8 125.801 2448.28 125.147 2447.57 124.493 2446.86 124.166 2445.99 124.166 2444.94 124.166 2444.07 124.401 2443.31 124.871 2442.66 125.341 2442 125.988 2441.48 126.812 2441.11 127.636 2440.73 128.576 2440.54 129.632 2440.54 131.069 2440.54 132.217 2440.87 133.075 2441.52 133.94 2442.17 134.563 2443.06 134.945 2444.2zM145.333 2440.76V2442.34h-7.489V2440.76h7.489zM140.183 2437H142.012V2452.35C142.012 2453.01 142.125 2453.52 142.349 2453.9 142.574 2454.26 142.867 2454.53 143.228 2454.68 143.589 2454.83 143.974 2454.91 144.383 2454.91 144.621 2454.91 144.825 2454.89 144.996 2454.87 145.166 2454.83 145.316 2454.8 145.445 2454.77L145.833 2456.41C145.656 2456.48 145.438 2456.54 145.179 2456.59 144.921 2456.66 144.601 2456.69 144.219 2456.69 143.552 2456.69 142.908 2456.54 142.288 2456.25 141.675 2455.95 141.171 2455.52 140.776 2454.94 140.381 2454.36 140.183 2453.64 140.183 2452.78V2437zM153.846 2456.81C152.899 2456.81 152.034 2456.62 151.251 2456.26 150.468 2455.88 149.844 2455.34 149.381 2454.64 148.918 2453.93 148.686 2453.08 148.686 2452.07 148.686 2451.29 148.833 2450.64 149.126 2450.11 149.419 2449.57 149.834 2449.14 150.372 2448.8 150.91 2448.46 151.547 2448.19 152.283 2447.99 153.018 2447.79 153.829 2447.64 154.714 2447.53 155.593 2447.42 156.335 2447.33 156.942 2447.25 157.555 2447.16 158.021 2447.03 158.341 2446.86 158.661 2446.68 158.822 2446.39 158.822 2446V2445.63C158.822 2444.56 158.501 2443.72 157.861 2443.11 157.228 2442.49 156.315 2442.18 155.123 2442.18 153.992 2442.18 153.069 2442.43 152.354 2442.92 151.646 2443.42 151.149 2444.01 150.863 2444.68L149.136 2444.06C149.49 2443.2 149.981 2442.52 150.607 2442 151.234 2441.49 151.935 2441.12 152.712 2440.89 153.488 2440.66 154.275 2440.54 155.072 2440.54 155.671 2440.54 156.295 2440.62 156.942 2440.78 157.596 2440.93 158.202 2441.21 158.76 2441.6 159.319 2441.98 159.772 2442.51 160.119 2443.2 160.466 2443.88 160.64 2444.75 160.64 2445.79V2456.45H158.822V2453.97h-.113C158.491 2454.43 158.168 2454.88 157.739 2455.32 157.309 2455.75 156.771 2456.11 156.124 2456.39 155.477 2456.67 154.718 2456.81 153.846 2456.81zM154.091 2455.14C155.058 2455.14 155.896 2454.93 156.604 2454.5 157.313 2454.07 157.858 2453.5 158.239 2452.79 158.627 2452.08 158.822 2451.29 158.822 2450.43V2448.17C158.685 2448.29 158.457 2448.41 158.137 2448.51 157.824 2448.61 157.459 2448.71 157.044 2448.79 156.635 2448.86 156.226 2448.93 155.818 2448.98 155.409 2449.04 155.041 2449.08 154.714 2449.13 153.829 2449.23 153.073 2449.4 152.446 2449.64 151.82 2449.87 151.339 2450.19 151.006 2450.6 150.672 2451 150.505 2451.52 150.505 2452.15 150.505 2453.1 150.846 2453.84 151.527 2454.37 152.208 2454.88 153.063 2455.14 154.091 2455.14zm13.205-8.5V2456.45H165.478V2440.76h1.767V2443.22H167.409C167.777 2442.42 168.349 2441.77 169.125 2441.29 169.909 2440.8 170.876 2440.55 172.027 2440.55 173.083 2440.55 174.009 2440.77 174.806 2441.22 175.61 2441.65 176.233 2442.3 176.675 2443.15 177.125 2444 177.35 2445.05 177.35 2446.29V2456.45H175.531V2446.4C175.531 2445.11 175.17 2444.09 174.448 2443.34 173.733 2442.59 172.773 2442.22 171.567 2442.22 170.743 2442.22 170.011 2442.4 169.37 2442.75 168.73 2443.1 168.223 2443.62 167.848 2444.28 167.48 2444.94 167.296 2445.73 167.296 2446.64zM187.789 2456.78C186.502 2456.78 185.374 2456.44 184.407 2455.76 183.44 2455.08 182.684 2454.12 182.139 2452.91 181.601 2451.69 181.332 2450.27 181.332 2448.65S181.601 2445.62 182.139 2444.41C182.684 2443.19 183.443 2442.24 184.417 2441.56S186.525 2440.54 187.819 2440.54C188.773 2440.54 189.567 2440.71 190.2 2441.05 190.833 2441.39 191.341 2441.8 191.722 2442.3 192.104 2442.8 192.4 2443.28 192.611 2443.75H192.775V2435.53h1.828V2456.45H192.826V2453.54H192.611C192.4 2454.02 192.1 2454.51 191.712 2455.01 191.324 2455.51 190.81 2455.93 190.169 2456.27 189.536 2456.61 188.742 2456.78 187.789 2456.78zM188.003 2455.11C189.018 2455.11 189.883 2454.84 190.598 2454.28 191.314 2453.73 191.859 2452.96 192.233 2451.99 192.615 2451.01 192.805 2449.88 192.805 2448.61 192.805 2447.36 192.618 2446.25 192.243 2445.29 191.869 2444.33 191.324 2443.57 190.609 2443.03 189.894 2442.47 189.025 2442.2 188.003 2442.2 186.954 2442.2 186.069 2442.48 185.347 2443.06 184.632 2443.62 184.087 2444.39 183.712 2445.36 183.345 2446.32 183.161 2447.41 183.161 2448.61 183.161 2449.83 183.348 2450.93 183.723 2451.91 184.097 2452.9 184.642 2453.68 185.357 2454.25 186.079 2454.83 186.961 2455.11 188.003 2455.11zM204.166 2456.81C203.22 2456.81 202.355 2456.62 201.571 2456.26 200.788 2455.88 200.165 2455.34 199.702 2454.64 199.239 2453.93 199.007 2453.08 199.007 2452.07 199.007 2451.29 199.153 2450.64 199.446 2450.11 199.739 2449.57 200.155 2449.14 200.693 2448.8 201.231 2448.46 201.868 2448.19 202.603 2447.99 203.339 2447.79 204.149 2447.64 205.035 2447.53 205.914 2447.42 206.656 2447.33 207.262 2447.25 207.875 2447.16 208.342 2447.03 208.662 2446.86 208.982 2446.68 209.142 2446.39 209.142 2446V2445.63C209.142 2444.56 208.822 2443.72 208.182 2443.11 207.548 2442.49 206.636 2442.18 205.444 2442.18 204.313 2442.18 203.39 2442.43 202.675 2442.92 201.966 2443.42 201.469 2444.01 201.183 2444.68L199.456 2444.06C199.811 2443.2 200.301 2442.52 200.928 2442 201.554 2441.49 202.256 2441.12 203.032 2440.89 203.809 2440.66 204.596 2440.54 205.392 2440.54 205.992 2440.54 206.615 2440.62 207.262 2440.78 207.916 2440.93 208.522 2441.21 209.081 2441.6 209.639 2441.98 210.092 2442.51 210.44 2443.2 210.787 2443.88 210.961 2444.75 210.961 2445.79V2456.45H209.142V2453.97H209.03C208.812 2454.43 208.488 2454.88 208.059 2455.32 207.63 2455.75 207.092 2456.11 206.445 2456.39 205.798 2456.67 205.038 2456.81 204.166 2456.81zM204.412 2455.14C205.379 2455.14 206.217 2454.93 206.925 2454.5S208.178 2453.5 208.56 2452.79C208.948 2452.08 209.142 2451.29 209.142 2450.43V2448.17C209.006 2448.29 208.778 2448.41 208.458 2448.51 208.144 2448.61 207.78 2448.71 207.364 2448.79 206.956 2448.86 206.547 2448.93 206.138 2448.98 205.73 2449.04 205.362 2449.08 205.035 2449.13 204.149 2449.23 203.393 2449.4 202.767 2449.64 202.14 2449.87 201.66 2450.19 201.326 2450.6 200.992 2451 200.826 2451.52 200.826 2452.15 200.826 2453.1 201.166 2453.84 201.847 2454.37 202.528 2454.88 203.383 2455.14 204.412 2455.14zM215.798 2456.45V2440.76h1.768V2443.17H217.699C218.012 2442.38 218.557 2441.74 219.333 2441.26 220.117 2440.77 221.002 2440.52 221.99 2440.52 222.14 2440.52 222.306 2440.53 222.49 2440.53 222.674 2440.54 222.828 2440.55 222.95 2440.55V2442.4C222.868 2442.39 222.725 2442.37 222.521 2442.34 222.317 2442.31 222.095 2442.3 221.857 2442.3 221.04 2442.3 220.311 2442.47 219.671 2442.82 219.037 2443.16 218.536 2443.64 218.169 2444.24 217.801 2444.85 217.617 2445.54 217.617 2446.32V2456.45H215.798zM231.226 2456.78C229.938 2456.78 228.811 2456.44 227.844 2455.76 226.877 2455.08 226.121 2454.12 225.576 2452.91 225.038 2451.69 224.769 2450.27 224.769 2448.65S225.038 2445.62 225.576 2444.41C226.121 2443.19 226.88 2442.24 227.854 2441.56 228.828 2440.88 229.962 2440.54 231.256 2440.54 232.21 2440.54 233.004 2440.71 233.637 2441.05 234.27 2441.39 234.778 2441.8 235.159 2442.3 235.541 2442.8 235.837 2443.28 236.048 2443.75H236.212V2435.53h1.828V2456.45H236.263V2453.54H236.048C235.837 2454.02 235.537 2454.51 235.149 2455.01S234.247 2455.93 233.606 2456.27C232.973 2456.61 232.179 2456.78 231.226 2456.78zM231.44 2455.11C232.455 2455.11 233.32 2454.84 234.035 2454.28 234.751 2453.73 235.295 2452.96 235.67 2451.99 236.052 2451.01 236.242 2449.88 236.242 2448.61 236.242 2447.36 236.055 2446.25 235.68 2445.29 235.306 2444.33 234.761 2443.57 234.046 2443.03 233.33 2442.47 232.462 2442.2 231.44 2442.2 230.391 2442.2 229.506 2442.48 228.784 2443.06 228.069 2443.62 227.524 2444.39 227.149 2445.36 226.781 2446.32 226.598 2447.41 226.598 2448.61 226.598 2449.83 226.785 2450.93 227.159 2451.91 227.534 2452.9 228.079 2453.68 228.794 2454.25 229.516 2454.83 230.398 2455.11 231.44 2455.11zM256.962 2456.78C255.675 2456.78 254.547 2456.44 253.58 2455.76 252.613 2455.08 251.857 2454.12 251.312 2452.91 250.774 2451.69 250.505 2450.27 250.505 2448.65S250.774 2445.62 251.312 2444.41C251.857 2443.19 252.616 2442.24 253.59 2441.56S255.699 2440.54 256.993 2440.54C257.946 2440.54 258.74 2440.71 259.373 2441.05 260.007 2441.39 260.514 2441.8 260.895 2442.3 261.277 2442.8 261.573 2443.28 261.784 2443.75H261.948V2435.53H263.777V2456.45H261.999V2453.54H261.784C261.573 2454.02 261.274 2454.51 260.885 2455.01 260.497 2455.51 259.983 2455.93 259.343 2456.27 258.709 2456.61 257.916 2456.78 256.962 2456.78zM257.177 2455.11C258.191 2455.11 259.056 2454.84 259.772 2454.28 260.487 2453.73 261.032 2452.96 261.406 2451.99 261.788 2451.01 261.978 2449.88 261.978 2448.61 261.978 2447.36 261.791 2446.25 261.417 2445.29 261.042 2444.33 260.497 2443.57 259.782 2443.03 259.067 2442.47 258.198 2442.2 257.177 2442.2 256.128 2442.2 255.242 2442.48 254.52 2443.06 253.805 2443.62 253.26 2444.39 252.885 2445.36 252.518 2446.32 252.334 2447.41 252.334 2448.61 252.334 2449.83 252.521 2450.93 252.896 2451.91 253.27 2452.9 253.815 2453.68 254.53 2454.25 255.252 2454.83 256.134 2455.11 257.177 2455.11zM275.301 2456.78C273.837 2456.78 272.57 2456.44 271.501 2455.76 270.431 2455.07 269.604 2454.12 269.018 2452.91 268.439 2451.69 268.149 2450.28 268.149 2448.7 268.149 2447.12 268.439 2445.71 269.018 2444.49 269.604 2443.25 270.411 2442.29 271.439 2441.6 272.475 2440.89 273.67 2440.54 275.025 2440.54 275.877 2440.54 276.698 2440.7 277.488 2441.01 278.278 2441.32 278.986 2441.79 279.613 2442.43 280.246 2443.07 280.747 2443.87 281.115 2444.83 281.482 2445.79 281.666 2446.93 281.666 2448.25V2449.15h-12.26V2447.54h10.401C279.807 2446.53 279.603 2445.63 279.194 2444.82 278.792 2444.01 278.23 2443.37 277.508 2442.9 276.793 2442.43 275.965 2442.2 275.025 2442.2 274.031 2442.2 273.156 2442.46 272.4 2443 271.644 2443.53 271.051 2444.23 270.622 2445.1 270.2 2445.97 269.985 2446.93 269.978 2447.96V2448.92C269.978 2450.17 270.193 2451.26 270.622 2452.19 271.058 2453.12 271.674 2453.84 272.471 2454.35 273.268 2454.86 274.211 2455.11 275.301 2455.11 276.044 2455.11 276.694 2455 277.253 2454.77 277.818 2454.53 278.291 2454.22 278.673 2453.84 279.061 2453.44 279.354 2453.01 279.551 2452.54L281.278 2453.1C281.04 2453.76 280.648 2454.37 280.103 2454.93 279.565 2455.49 278.891 2455.94 278.08 2456.28 277.277 2456.61 276.35 2456.78 275.301 2456.78zm16.554-16.02V2442.34H284.366V2440.76H291.855zM286.706 2437H288.535V2452.35C288.535 2453.01 288.647 2453.52 288.872 2453.9 289.097 2454.26 289.389 2454.53 289.75 2454.68 290.111 2454.83 290.496 2454.91 290.905 2454.91 291.143 2454.91 291.348 2454.89 291.518 2454.87 291.688 2454.83 291.838 2454.8 291.967 2454.77L292.356 2456.41C292.179 2456.48 291.961 2456.54 291.702 2456.59 291.443 2456.66 291.123 2456.69 290.741 2456.69 290.074 2456.69 289.43 2456.54 288.81 2456.25 288.197 2455.95 287.693 2455.52 287.298 2454.94S286.706 2453.64 286.706 2452.78V2437zM300.368 2456.81C299.422 2456.81 298.557 2456.62 297.773 2456.26 296.99 2455.88 296.367 2455.34 295.904 2454.64 295.44 2453.93 295.209 2453.08 295.209 2452.07 295.209 2451.29 295.355 2450.64 295.648 2450.11 295.941 2449.57 296.356 2449.14 296.895 2448.8 297.433 2448.46 298.07 2448.19 298.805 2447.99 299.541 2447.79 300.351 2447.64 301.237 2447.53 302.115 2447.42 302.858 2447.33 303.464 2447.25 304.077 2447.16 304.544 2447.03 304.864 2446.86 305.184 2446.68 305.344 2446.39 305.344 2446V2445.63C305.344 2444.56 305.024 2443.72 304.384 2443.11 303.75 2442.49 302.837 2442.18 301.645 2442.18 300.515 2442.18 299.592 2442.43 298.877 2442.92 298.168 2443.42 297.671 2444.01 297.385 2444.68L295.658 2444.06C296.013 2443.2 296.503 2442.52 297.13 2442 297.756 2441.49 298.458 2441.12 299.234 2440.89 300.011 2440.66 300.797 2440.54 301.594 2440.54 302.194 2440.54 302.817 2440.62 303.464 2440.78 304.118 2440.93 304.724 2441.21 305.283 2441.6 305.841 2441.98 306.294 2442.51 306.641 2443.2 306.989 2443.88 307.162 2444.75 307.162 2445.79V2456.45H305.344V2453.97H305.232C305.014 2454.43 304.69 2454.88 304.261 2455.32 303.832 2455.75 303.294 2456.11 302.647 2456.39 302 2456.67 301.24 2456.81 300.368 2456.81zM300.613 2455.14C301.581 2455.14 302.418 2454.93 303.127 2454.5 303.835 2454.07 304.38 2453.5 304.762 2452.79 305.15 2452.08 305.344 2451.29 305.344 2450.43V2448.17C305.208 2448.29 304.979 2448.41 304.659 2448.51 304.346 2448.61 303.982 2448.71 303.566 2448.79 303.157 2448.86 302.749 2448.93 302.34 2448.98 301.931 2449.04 301.564 2449.08 301.237 2449.13 300.351 2449.23 299.595 2449.4 298.969 2449.64 298.342 2449.87 297.862 2450.19 297.528 2450.6 297.194 2451 297.027 2451.52 297.027 2452.15 297.027 2453.1 297.368 2453.84 298.049 2454.37 298.73 2454.88 299.585 2455.14 300.613 2455.14zM312.021 2456.45V2440.76H313.849V2456.45H312.021zM312.95 2438.06C312.576 2438.06 312.256 2437.93 311.99 2437.68 311.724 2437.42 311.591 2437.11 311.591 2436.75S311.724 2436.09 311.99 2435.83C312.256 2435.57 312.576 2435.45 312.95 2435.45 313.325 2435.45 313.645 2435.57 313.911 2435.83 314.176 2436.09 314.309 2436.39 314.309 2436.75S314.176 2437.42 313.911 2437.68C313.645 2437.93 313.325 2438.06 312.95 2438.06zM320.478 2435.53V2456.45H318.659V2435.53H320.478zM335.834 2444.2 334.168 2444.67C334.005 2444.2 333.773 2443.78 333.473 2443.39 333.174 2443.01 332.782 2442.71 332.298 2442.48 331.822 2442.26 331.229 2442.15 330.521 2442.15 329.458 2442.15 328.586 2442.4 327.905 2442.9 327.224 2443.41 326.884 2444.06 326.884 2444.85 326.884 2445.53 327.115 2446.08 327.578 2446.5 328.048 2446.92 328.77 2447.25 329.744 2447.49L332.115 2448.07C333.429 2448.39 334.413 2448.9 335.067 2449.6 335.728 2450.29 336.058 2451.16 336.058 2452.21 336.058 2453.1 335.813 2453.88 335.323 2454.57 334.832 2455.26 334.148 2455.8 333.269 2456.2 332.397 2456.58 331.386 2456.78 330.235 2456.78 328.702 2456.78 327.439 2456.43 326.444 2455.75 325.45 2455.05 324.813 2454.05 324.534 2452.74L326.281 2452.31C326.506 2453.25 326.945 2453.95 327.599 2454.43 328.259 2454.9 329.128 2455.14 330.204 2455.14 331.41 2455.14 332.373 2454.87 333.095 2454.34 333.817 2453.79 334.178 2453.11 334.178 2452.29 334.178 2451.66 333.967 2451.13 333.545 2450.7 333.123 2450.26 332.482 2449.94 331.624 2449.74L329.06 2449.13C327.698 2448.8 326.689 2448.28 326.036 2447.57 325.382 2446.86 325.055 2445.99 325.055 2444.94 325.055 2444.07 325.29 2443.31 325.76 2442.66 326.23 2442 326.877 2441.48 327.701 2441.11 328.525 2440.73 329.465 2440.54 330.521 2440.54 331.958 2440.54 333.106 2440.87 333.964 2441.52 334.829 2442.17 335.452 2443.06 335.834 2444.2z" fill="#000"/></svg>